<?xml version="1.0" encoding="UTF-8"?> <svg xmlns="http://www.w3.org/2000/svg" width="80" height="80" viewBox="0 0 80 80" fill="none"><rect width="80" height="80" fill="#009C32"></rect><rect width="80" height="80" fill="url(#paint0_linear)"></rect><path d="M66.6803 39.0414C65.8993 37.0615 63.9525 35.9726 61.8516 36.3576L57.5399 37.1275C56.8249 37.2595 56.352 37.9415 56.4729 38.6564C56.6049 39.3714 57.2869 39.8444 58.0018 39.7234L62.3136 38.9534C63.3365 38.7664 63.9745 39.3824 64.2274 40.0204C64.4804 40.6583 64.4364 41.5383 63.5565 42.0992L57.2209 46.202C56.6379 46.5869 55.912 46.6089 55.307 46.279C54.6911 45.949 54.3281 45.333 54.3281 44.6291V31.3199C54.3281 30.594 53.7451 30 53.0082 30C52.2822 30 51.6883 30.594 51.6883 31.3199V44.6071C51.6883 46.29 52.5682 47.7639 54.0421 48.5668C54.7241 48.9408 55.461 49.1278 56.198 49.1278C57.0449 49.1278 57.8919 48.8858 58.6508 48.3908L64.9864 44.2881C66.7793 43.1332 67.4612 41.0213 66.6803 39.0414ZM44.4067 36.3466L40.095 37.1165C39.38 37.2485 38.9071 37.9305 39.0281 38.6454C39.1601 39.3604 39.842 39.8334 40.557 39.7124L44.8687 38.9424C45.8916 38.7554 46.5296 39.3714 46.7826 40.0094C47.0356 40.6473 46.9916 41.5273 46.1116 42.0882L39.776 46.191C39.1931 46.5759 38.4671 46.5979 37.8621 46.268C37.2462 45.938 36.8832 45.322 36.8832 44.6181V34.5207C36.8832 32.8378 36.0033 31.3639 34.5294 30.561C33.0554 29.758 31.3286 29.824 29.9206 30.737L14.0047 41.0543C12.2118 42.2202 11.5408 44.3321 12.3218 46.312C13.1027 48.2918 15.0496 49.3808 17.1505 48.9958L31.0536 46.4989C31.7685 46.367 32.2415 45.685 32.1205 44.97C31.9885 44.2551 31.3066 43.7821 30.5916 43.9031L16.6885 46.4C15.6656 46.5869 15.0276 45.971 14.7746 45.333C14.5216 44.6951 14.5656 43.8151 15.4456 43.2542L31.3616 32.9368C31.9445 32.5518 32.6705 32.5298 33.2754 32.8598C33.8914 33.1898 34.2544 33.8058 34.2544 34.5097V44.6071C34.2544 46.29 35.1343 47.7639 36.6082 48.5668C37.2902 48.9408 38.0271 49.1278 38.7641 49.1278C39.611 49.1278 40.458 48.8858 41.2059 48.3908L47.5415 44.2881C49.3344 43.1222 50.0054 41.0103 49.2244 39.0304C48.4545 37.0505 46.5076 35.9726 44.4067 36.3466Z" fill="white"></path><defs><linearGradient id="paint0_linear" x1="0" y1="80" x2="80" y2="0" gradientUnits="userSpaceOnUse"><stop stop-color="#0BAA5E"></stop><stop offset="1" stop-color="#57D945"></stop></linearGradient></defs></svg> 