<?xml version="1.0" encoding="UTF-8"?> <svg xmlns="http://www.w3.org/2000/svg" width="80" height="80" viewBox="0 0 80 80" fill="none"><rect width="80" height="80" fill="white"></rect><path fill-rule="evenodd" clip-rule="evenodd" d="M71.3333 0H8.66666C3.8802 0 0 3.8802 0 8.66666V71.3334C0 76.1197 3.8802 80 8.66666 80H71.3333C76.1197 80 80 76.1197 80 71.3334V8.66666C80 3.8802 76.1197 0 71.3333 0ZM21.3333 26.6666H27.9999V53.3334H23.3333V31.3334H18.6667L21.3333 26.6666ZM54.6666 26.6666H61.3333V53.3334H56.6667V31.3334H52L54.6666 26.6666ZM38 40L42.6667 31.3334H31.9999L34.6667 26.6666H50L47.3333 31.3334L44.7421 36.1457C47.8446 37.5661 50 40.698 50 44.3334C50 49.3039 45.9705 53.3334 41 53.3334C36.0294 53.3334 31.9999 49.3039 31.9999 44.3334H36.6666C36.6666 46.7266 38.6067 48.6666 41 48.6666C43.3932 48.6666 45.3333 46.7266 45.3333 44.3334C45.3333 41.9401 43.3932 40 41 40H38Z" fill="#FF333A"></path></svg> 