<?xml version="1.0" encoding="UTF-8"?> <svg xmlns="http://www.w3.org/2000/svg" width="80" height="80" viewBox="0 0 80 80" fill="none"><rect width="80" height="80" fill="#F5F8FA"></rect><path d="M8.04883 55.5938H6.42773V61.2188H3V47H6.42773V52.498H7.74609L10.4805 47H14.6309L10.7246 53.5625L15.1191 61.2188H11.0664L8.04883 55.5938Z" fill="#0F6C37"></path><path d="M21.4863 53.1719V53.1816L23.8398 47H27.4531L22.668 58.2793C22.1536 59.4186 21.5742 60.2227 20.9297 60.6914C20.2917 61.1536 19.543 61.3978 18.6836 61.4238H17.9902L17.4629 61.4043L17.4043 58.748C17.4824 58.7741 17.7103 58.7871 18.0879 58.7871C18.6087 58.7871 18.9993 58.6992 19.2598 58.5234C19.5267 58.3411 19.7415 57.9928 19.9043 57.4785L20.0703 57.0098L14.9336 47H18.5762L21.4863 53.1719Z" fill="#0F6C37"></path><path d="M32.0527 56.3945V61.2188H28.625V47H34.2988C35.3861 47 36.3464 47.2018 37.1797 47.6055C38.0195 48.0026 38.6673 48.5723 39.123 49.3145C39.5853 50.0501 39.8164 50.8867 39.8164 51.8242C39.8164 53.2109 39.3184 54.321 38.3223 55.1543C37.3327 55.9811 35.972 56.3945 34.2402 56.3945H32.0527ZM32.0527 53.748H34.2988C34.9629 53.748 35.4674 53.582 35.8125 53.25C36.1641 52.918 36.3398 52.4492 36.3398 51.8438C36.3398 51.1797 36.1608 50.6491 35.8027 50.252C35.4447 49.8548 34.9564 49.653 34.3379 49.6465H32.0527V53.748Z" fill="#0F6C37"></path><path d="M51.2422 49.6465H45.0605V61.2188H41.6328V47H51.2422V49.6465Z" fill="#0F6C37"></path><path d="M58.8691 58.5625H54.1719L53.3516 61.2188H49.6895L54.9043 47H58.127L63.3809 61.2188H59.6992L58.8691 58.5625ZM54.9922 55.916H58.0488L56.5156 50.9844L54.9922 55.916Z" fill="#0F6C37"></path><path d="M76.3105 61.2188H72.9023V55.2812H67.8535V61.2188H64.4258V47H67.8535V52.6445H72.9023V47H76.3105V61.2188Z" fill="#0F6C37"></path><path d="M27.7088 19.291H52.2906L67.768 36.1341H12.2314L27.7088 19.291Z" fill="url(#paint0_linear)"></path><path d="M67.7686 36.1348L56.3881 23.8434L67.7686 23.903L80.0003 23.903L67.7686 36.1348Z" fill="#0F6C37"></path><path d="M12.2314 36.1348L-0.000280279 23.903L12.2314 23.903L23.4732 23.903L12.2314 36.1348Z" fill="#0F6C37"></path><path d="M39.9404 31.4639L27.7087 19.2321L39.9404 19.2321L52.1722 19.2321L39.9404 31.4639Z" fill="#0F6C37"></path><defs><linearGradient id="paint0_linear" x1="31.5782" y1="38.4102" x2="32.4886" y2="18.153" gradientUnits="userSpaceOnUse"><stop stop-color="#0F6C37"></stop><stop offset="1" stop-color="#C4C4C4" stop-opacity="0"></stop></linearGradient></defs></svg> 