<?xml version="1.0" encoding="UTF-8"?> <svg xmlns="http://www.w3.org/2000/svg" width="80" height="80" viewBox="0 0 80 80" fill="none"><rect width="80" height="80" fill="white"></rect><path d="M10.9068 39.0698C10.9068 62.1395 30.2966 69.7674 39.9915 70.6977V80C10.9067 79.2558 0 54.8837 0 39.0698C0.72712 13.0233 18.4809 3.41085 27.2669 1.86047V11.1628C12.7246 19.3488 10.3008 33.1783 10.9068 39.0698Z" fill="#009983"></path><path d="M69.0764 39.0698C69.0764 62.1395 49.6865 69.7674 39.9915 70.6977V80C69.0764 79.2558 80.5025 57.6744 79.9831 39.0698C79.256 13.0233 61.5022 3.41085 52.7162 1.86047V11.1628C67.2586 19.3488 69.6823 33.1783 69.0764 39.0698Z" fill="#009983"></path><path d="M36.3559 52.093H43.6271V70.6977H36.3559V52.093Z" fill="#009983"></path><path d="M27.2669 40.9302H38.1737V52.093H27.2669V40.9302Z" fill="#009983"></path><path d="M41.8093 40.9302H52.7161V52.093H41.8093V40.9302Z" fill="#009983"></path><path d="M41.8093 26.0465H52.7161V37.2093H41.8093V26.0465Z" fill="#009983"></path><path d="M27.2669 26.0465H38.1737V37.2093H27.2669V26.0465Z" fill="#009983"></path><path d="M27.2669 1.86047H30.9025V26.0465H27.2669L27.2669 1.86047Z" fill="#009983"></path><path d="M49.0805 1.86047H52.7162L52.7161 26.0465H49.0805V1.86047Z" fill="#009983"></path><path d="M36.3559 0H43.6271V24.186H36.3559V0Z" fill="#009983"></path></svg> 