<?xml version="1.0" encoding="UTF-8"?> <svg xmlns="http://www.w3.org/2000/svg" width="80" height="80" viewBox="0 0 80 80" fill="none"><rect width="80" height="80" fill="white"></rect><rect width="80" height="80" fill="#073D59" fill-opacity="0.1"></rect><path d="M46.1787 44.1157V52.8828H41.0518V28H50.7588C52.6273 28 54.2679 28.3418 55.6807 29.0254C57.1048 29.709 58.1986 30.6831 58.9619 31.9478C59.7253 33.201 60.1069 34.6309 60.1069 36.2373C60.1069 38.6755 59.2695 40.6009 57.5947 42.0137C55.9313 43.415 53.6242 44.1157 50.6733 44.1157H46.1787ZM46.1787 39.9629H50.7588C52.1146 39.9629 53.1457 39.6439 53.8521 39.0059C54.5698 38.3678 54.9287 37.4564 54.9287 36.2715C54.9287 35.0524 54.5698 34.0669 53.8521 33.3149C53.1343 32.563 52.1431 32.1756 50.8784 32.1528H46.1787V39.9629Z" fill="#CD1F45"></path><path d="M35.2866 32.1528H24.1782V36.9722H28.1772C31.1053 36.9722 33.4238 37.6842 35.1328 39.1084C36.8532 40.5212 37.7134 42.4295 37.7134 44.8335C37.7134 47.2489 36.8589 49.1914 35.1499 50.6611C33.4523 52.1195 31.1908 52.86 28.3652 52.8828H19V28H35.2866V32.1528ZM24.1782 41.1079V48.7642H28.2627C29.5729 48.7642 30.6154 48.4053 31.3901 47.6875C32.1763 46.9697 32.5693 46.007 32.5693 44.7993C32.5693 43.6714 32.1934 42.7827 31.4414 42.1333C30.7008 41.4725 29.6812 41.1307 28.3823 41.1079H24.1782Z" fill="#073D59"></path></svg> 