<?xml version="1.0" encoding="UTF-8"?> <svg xmlns="http://www.w3.org/2000/svg" width="80" height="80" viewBox="0 0 80 80" fill="none"><rect width="80" height="80" fill="#832B43"></rect><path d="M48.8663 48.1804C50.5843 49.3479 52.5391 50.1278 54.5934 50.4652C55.1175 50.525 55.638 50.6133 56.1524 50.7297C57.0652 51.0023 57.259 51.5955 56.532 52.2208C51.9843 56.1089 47.2669 59.7083 41.144 60.8226C37.9613 61.3998 35.0857 60.518 32.3877 58.9067C29.3812 56.9555 26.5922 54.6928 24.0676 52.1567C20.3356 48.5179 16.1815 45.3318 11.6926 42.665C10.0804 41.6644 8.3072 40.9458 6.45011 40.5406C4.77802 40.2359 4.68109 39.8592 5.50502 38.4643C8.42108 33.5902 11.4906 28.8443 15.7072 24.9242C21.4505 19.5931 28.0419 17.6531 35.6834 19.9539C41.0309 21.5572 46.3218 23.369 51.6773 24.9563C58.5515 26.9925 65.5225 27.6098 72.5986 26.0144C74.9412 25.4853 75.3127 25.8381 74.7958 28.1308C74.0849 31.3375 72.2271 33.8707 69.9976 36.1475C64.7922 41.6321 58.1572 45.5779 50.8292 47.5471C50.2799 47.6834 49.7548 47.8918 48.8663 48.1804ZM67.647 31.081C67.3804 30.9447 67.2916 30.8645 67.2027 30.8645C66.9295 30.8547 66.6561 30.8735 66.3869 30.9206C61.1202 32.0429 56.1443 30.8805 51.2169 29.1409C46.6934 27.5376 42.4445 25.2609 37.8644 23.8179C35.098 22.8214 32.172 22.3324 29.2293 22.3749C25.2955 22.6167 21.5501 24.1317 18.5667 26.6878C16.13 28.5633 14.0369 30.8413 12.3792 33.4218C13.1663 33.1378 13.9283 32.7892 14.6571 32.3796C18.5965 30.1238 22.9197 28.6048 27.4118 27.8984C32.6983 27.2544 38.0478 28.4225 42.5737 31.2092C45.0778 32.6682 47.4203 34.3437 50.0779 35.5863C53.5352 37.1896 57.0248 37.6225 60.579 36.0112C63.2136 34.8096 65.6038 33.1385 67.6308 31.081H67.647ZM14.8752 35.939C15.0108 36.0724 15.1782 36.1696 15.3618 36.2214C15.5454 36.2733 15.7393 36.2782 15.9253 36.2356C18.1335 36.0419 20.3581 36.3152 22.4521 37.0373C26.8948 38.352 30.0048 41.4705 32.9531 44.7814C34.8029 46.8577 36.58 48.9981 38.6075 50.898C42.0325 54.1047 45.8775 54.8422 50.2556 53.0545C50.6111 52.9102 51.2411 52.9263 51.1523 52.3731C51.0634 51.82 50.498 51.9162 50.1102 51.8119C47.9587 51.2887 45.9435 50.3188 44.1973 48.966C40.7966 46.2324 38.2764 42.7451 35.6269 39.3461C31.8384 34.5361 27.2907 31.6902 20.8446 33.4699C18.7396 33.9861 16.7189 34.7959 14.8429 35.8749L14.8752 35.939Z" fill="white"></path></svg> 