<?xml version="1.0" encoding="UTF-8"?> <svg xmlns="http://www.w3.org/2000/svg" width="80" height="80" viewBox="0 0 80 80" fill="none"><rect width="80" height="80" fill="white"></rect><path d="M40 7L0 73.6667H80L40 7Z" fill="#730B00"></path><path d="M47.1797 46.4873L56.4105 71.6155H76.9233L66.6669 56.2309H56.4105L54.3592 51.1027H65.1284L62.0515 46.4873H47.1797Z" fill="#F0BF49"></path><path d="M59.9996 66.4867L57.4355 60.8457H64.1022L67.692 66.4867H59.9996Z" fill="#730B00"></path><path d="M46.1536 48.0258L32.8203 22.3848V30.5899L39.9998 45.9745L34.3588 46.4873V50.0771H39.9998L32.8203 60.8463L33.3331 70.5899L46.1536 48.0258Z" fill="#F0BF49"></path><path d="M17.9489 45.9746L3.07715 71.6156H9.74382L15.8977 60.8464L19.4874 71.6156H25.6413L20.0002 58.2823L33.3336 45.9746H27.1797L19.4874 54.1797L23.0772 45.9746H17.9489Z" fill="#F0BF49"></path></svg> 