<?xml version="1.0" encoding="UTF-8"?> <svg xmlns="http://www.w3.org/2000/svg" width="80" height="80" viewBox="0 0 80 80" fill="none"><rect width="80" height="80" fill="#214288"></rect><rect width="80" height="80" fill="white" fill-opacity="0.9"></rect><ellipse cx="40" cy="40" rx="28" ry="18" fill="#214288"></ellipse><path d="M28.865 53.53C27.465 53.53 26.2983 53.0633 25.365 52.13C24.455 51.22 24 50.1583 24 48.945C24 47.7083 24.2917 46.565 24.875 45.515C25.4583 44.4417 26.2867 43.45 27.36 42.54C28.4567 41.63 29.88 40.8833 31.63 40.3C33.38 39.6933 35.3167 39.355 37.44 39.285C38.6767 36.2283 39.7733 32.81 40.73 29.03C40.7533 28.89 40.765 28.715 40.765 28.505C40.765 28.2717 40.6483 28.0733 40.415 27.91V27.56C42.4217 27.1867 44.2533 27 45.91 27L48.01 27.14C48.6167 28.2133 48.955 29.7067 49.025 31.62C49.095 33.51 49.1417 36.8 49.165 41.49C51.685 42.5867 53.8433 43.975 55.64 45.655C55.5467 45.9583 55.36 46.2617 55.08 46.565C54.8233 46.845 54.5783 47.055 54.345 47.195L53.995 47.405C52.6183 46.0517 51.02 44.8967 49.2 43.94C49.2467 45.27 49.375 46.39 49.585 47.3C49.9117 48.7933 50.2967 49.54 50.74 49.54C50.9967 49.54 51.3 49.4817 51.65 49.365L52.175 50.73C50.565 51.7567 49.025 52.27 47.555 52.27C45.1283 52.27 43.915 50.4383 43.915 46.775V42.19C42.2817 41.7933 40.8 41.5483 39.47 41.455C36.4367 49.505 32.9017 53.53 28.865 53.53ZM36.565 41.42C33.9283 41.63 31.735 42.5517 29.985 44.185C28.235 45.8183 27.36 47.3467 27.36 48.77C27.36 50.1933 27.9083 50.905 29.005 50.905C31.245 50.905 33.765 47.7433 36.565 41.42ZM43.53 29.8C43.4833 29.7767 43.39 29.765 43.25 29.765C43.11 29.765 43.0167 29.7767 42.97 29.8C42.76 31.5733 41.85 34.7583 40.24 39.355C41.3833 39.425 42.6083 39.5883 43.915 39.845C43.915 34.105 43.7867 30.7567 43.53 29.8Z" fill="white"></path></svg> 