<?xml version="1.0" encoding="UTF-8"?> <svg xmlns="http://www.w3.org/2000/svg" width="80" height="80" viewBox="0 0 80 80" fill="none"><rect x="0.000976562" width="80" height="80" fill="#003C77"></rect><g clip-path="url(#clip0)"><path d="M33.76 26.8798L60.08 40.1332L33.76 53.3865L7.46667 40.1332L33.76 26.8798ZM33.76 23.1465L0 40.1332L33.76 57.1465L67.52 40.1332L33.76 23.1465Z" fill="white"></path><path d="M79.9999 40.1333L39.9999 20L36.2666 21.8667L72.5332 40.1333L36.2666 58.4L39.9999 60.2933L79.9999 40.1333Z" fill="white"></path><path d="M17.0137 40.1337L33.7603 48.587V45.3604L23.387 40.1337L30.667 36.4804V40.3737L33.7603 38.7204V34.907V34.4004V31.707L17.0137 40.1337Z" fill="white"></path><path d="M36.4004 33.0137V36.2403L40.5337 38.3203L36.4004 40.4003V43.6003L46.9071 38.3203L36.4004 33.0137Z" fill="white"></path></g><defs><clipPath id="clip0"><rect y="20" width="80" height="40.2933" fill="white"></rect></clipPath></defs></svg> 