<?xml version="1.0" encoding="UTF-8"?> <svg xmlns="http://www.w3.org/2000/svg" width="80" height="80" viewBox="0 0 80 80" fill="none"><rect width="80" height="80" fill="#F5F8FA"></rect><path d="M31.2304 45.7888V44.1717C29.842 43.4786 27.7593 43.0166 25.6766 43.0166C21.974 43.0166 19.6599 44.4027 19.6599 47.1749C19.6599 49.4851 21.5112 50.8712 24.2881 50.8712C28.6849 51.1022 31.2304 48.792 31.2304 45.7888ZM11.5605 47.637C11.5605 41.1685 16.6516 38.1652 23.8253 38.1652C26.8336 38.1652 29.1477 38.6273 31.2304 39.3203V38.8583C31.2304 35.393 28.9163 33.3139 24.7509 33.3139C21.5112 33.3139 19.1971 34.0069 16.4202 34.931L14.1061 28.4625C17.3458 27.0764 20.817 26.1523 25.908 26.1523C30.5362 26.1523 34.0073 27.3074 36.09 29.6176C38.4041 31.9278 39.3298 35.162 39.3298 39.0893V56.4156H31.2304V53.1814C29.1477 55.4915 26.3708 56.8776 21.974 56.8776C16.1888 56.8776 11.5605 53.6434 11.5605 47.637Z" fill="#7A66A8"></path><path d="M48.123 58.7268C55.7596 53.4134 58.9993 48.331 58.9993 40.4764C58.9993 32.6218 55.7596 27.5395 48.123 22.2261L51.8256 16.6816C62.2391 22.2261 67.5615 29.8496 67.5615 40.7074C67.5615 51.3342 62.2391 58.9578 51.8256 64.7332L48.123 58.7268Z" fill="#7A66A8"></path></svg> 