<?xml version="1.0" encoding="UTF-8"?> <svg xmlns="http://www.w3.org/2000/svg" width="80" height="80" viewBox="0 0 80 80" fill="none"><rect width="80" height="80" fill="#006DA4"></rect><rect x="10" y="10" width="60" height="60" fill="white"></rect><path d="M23.8216 46.4979H16.8269L15.6696 50H10L17.565 30H22.9997L30.7157 50H25.0294L23.8216 46.4979ZM18.1185 42.5494H22.463L20.3327 36.3691L20.2488 35.9914L20.1817 36.3348L18.1185 42.5494Z" fill="#006DA4"></path><path d="M49.8211 50H44.1851V42.4464H37.5594V50H31.8899V30H37.5594V37.9828H44.1851V30H49.8211V50Z" fill="#006DA4"></path><path d="M67.9368 34.4635H58.2248V36.6953H61.4286C64.1124 36.7182 66.2091 37.3019 67.7188 38.4464C69.2396 39.5908 70 41.2046 70 43.2876C70 45.3705 69.2284 47.0129 67.6852 48.2146C66.1532 49.4049 64.0006 50 61.2273 50H52.5552V30H67.9368V34.4635ZM61.3112 45.5365C63.324 45.5365 64.3304 44.7754 64.3304 43.2532C64.3304 41.8913 63.3799 41.1931 61.4789 41.1588H58.2248V45.5365H61.3112Z" fill="#006DA4"></path></svg> 