<?xml version="1.0" encoding="UTF-8"?> <svg xmlns="http://www.w3.org/2000/svg" width="80" height="80" viewBox="0 0 80 80" fill="none"><rect x="0.000976562" width="80" height="80" fill="#F5F8FA"></rect><path fill-rule="evenodd" clip-rule="evenodd" d="M52.316 43.7686H45.3911C42.5285 43.7689 39.7163 44.5226 37.2372 45.9541C34.7581 47.3855 32.6995 49.4443 31.2681 51.9234L19.666 71.9994H26.4997C29.3618 72.0052 32.1748 71.2557 34.6546 69.8265C37.1343 68.3974 39.193 66.3391 40.6227 63.8597L52.316 43.7686Z" fill="#0066B3"></path><path fill-rule="evenodd" clip-rule="evenodd" d="M25.7852 54.3538L29.2172 48.3857C30.6502 45.9068 31.4047 43.0941 31.4047 40.2308C31.4047 37.3675 30.6502 34.5548 29.2172 32.0759L17.6303 12L14.1831 17.9529C12.7529 20.43 12 23.2399 12 26.1002C12 28.9605 12.7529 31.7704 14.1831 34.2475L25.7852 54.3538Z" fill="#00A5E4"></path><path fill-rule="evenodd" clip-rule="evenodd" d="M29.8555 26.108L33.3027 32.0761C34.734 34.5552 36.7927 36.614 39.2718 38.0454C41.7508 39.4769 44.563 40.2307 47.4257 40.231H70.6147L67.1827 34.2477C65.7514 31.7685 63.6927 29.7098 61.2136 28.2783C58.7346 26.8468 55.9224 26.0931 53.0597 26.0928L29.8555 26.108Z" fill="#F58220"></path></svg> 