<svg width="80" height="80" viewBox="0 0 80 80" fill="none" xmlns="http://www.w3.org/2000/svg">
<rect width="80" height="80" fill="white"/>
<path d="M3.54161 17.413C2.66316 16.9903 1.90736 16.6661 1.3334 16.4368C7.41655 13.8519 14.474 13.5621 20.9565 14.3106C27.7291 15.0926 33.8194 17.0016 37.4121 18.544C38.3369 20.3953 39.7058 23.1876 40.9084 25.7523C41.5278 27.073 42.1016 28.3304 42.5477 29.3665C42.9997 30.4163 43.3042 31.2025 43.4038 31.6007C43.4316 31.7116 43.4321 31.9766 43.3523 32.4387C43.2765 32.8781 43.1405 33.4312 42.9538 34.0757C42.5807 35.3632 42.0166 36.9761 41.3656 38.699C40.1403 41.942 38.619 45.5441 37.5199 48.0344L19.9744 40.5973C20.6608 31.9448 15.7504 25.7932 10.7022 21.8354C8.13936 19.8261 5.52334 18.3665 3.54161 17.413Z" fill="#D5CBCC" stroke="#968C8D"/>
<path d="M41.8979 11.9464C47.5585 10.0182 62.2704 6.97064 77.7822 9.40067C71.626 11.633 61.2079 18.9051 55.638 35.2031L55.5992 35.3167L55.6161 35.4355C55.964 37.8684 55.2033 44.5647 49.0791 51.1207L48.8087 51.4101L49.0285 51.7396L54.5841 60.0658L54.7484 60.312L55.0433 60.2864L66.8452 59.261C64.3712 63.0915 57.7345 69.8569 47.2051 71.4967C44.9897 71.3024 39.4521 70.2741 34.6837 67.6754L34.5718 67.6144H34.4444H25.1734C23.0836 65.954 20.0046 62.9045 17.43 59.0393C14.8235 55.126 12.7627 50.4201 12.7228 45.5014C13.1822 44.7977 14.0351 43.7353 15.1768 42.7345C16.3861 41.6744 17.8907 40.7086 19.5655 40.2905L19.9138 40.2036L19.9428 39.8458C20.2234 36.3886 20.1415 31.1386 18.9701 26.6216C17.812 22.1558 15.5136 18.156 11.1888 17.6629C10.7627 17.5756 10.0654 17.3679 9.37288 17.0284C8.66183 16.6798 8.01177 16.2194 7.63814 15.6595L7.60504 15.6099L7.5612 15.5694L1.27968 9.77635H7.22222H7.3735L7.49941 9.69248C7.96607 9.38165 9.12901 8.95496 10.4631 8.83055C11.7948 8.70637 13.1672 8.89555 14.1323 9.66691C16.7628 11.7696 23.3943 19.939 24.5007 40.9426L24.5108 41.1343L24.6466 41.27C24.7385 41.3618 24.8695 41.4576 25.0018 41.547C25.142 41.6417 25.313 41.7484 25.5041 41.8625C25.8867 42.0909 26.366 42.3584 26.8733 42.6327C27.8887 43.1819 29.0326 43.7673 29.7765 44.1389L30.292 44.3964L30.4743 43.8499L32.141 38.8542L32.1667 38.7771V38.6959V27.5944V27.5131L32.141 27.4361L31.0934 24.296C32.2694 21.858 35.9416 16.2172 41.8979 11.9464Z" fill="#E3DFDE" stroke="#968C8D"/>
</svg>
