<?xml version="1.0" encoding="UTF-8"?> <svg xmlns="http://www.w3.org/2000/svg" width="80" height="80" viewBox="0 0 80 80" fill="none"><rect width="80" height="80" fill="#FE5000"></rect><path d="M55.015 17.5H24.985C20.8367 17.5 17.5 20.8367 17.5 24.985V55.015C17.5 59.1633 20.8367 62.5 24.985 62.5H55.015C59.1633 62.5 62.5 59.1633 62.5 55.015V24.985C62.5 20.8367 59.1633 17.5 55.015 17.5ZM60.1553 54.2034C60.0651 54.2936 59.9749 54.2936 59.8848 54.2936C54.1132 50.7766 47.2595 48.7926 40.0451 48.7926C32.8307 48.7926 25.977 50.7766 20.1152 54.2936C20.0251 54.3838 19.8447 54.2936 19.8447 54.2034C19.7545 54.1132 19.7545 53.9329 19.9349 53.9329C25.1653 49.8747 29.7645 44.7345 33.1914 38.6022C36.7084 32.5601 38.8727 26.0671 39.7745 19.484C39.7745 19.3938 39.8647 19.3036 40.0451 19.3036C40.1353 19.3036 40.2254 19.3938 40.3156 19.484C41.2174 26.0671 43.3818 32.5601 46.8988 38.6022C50.4158 44.6443 54.9248 49.7846 60.2455 53.8427C60.2455 53.9329 60.2455 54.1132 60.1553 54.2034Z" fill="white"></path></svg> 