<?xml version="1.0" encoding="UTF-8"?> <svg xmlns="http://www.w3.org/2000/svg" width="80" height="80" viewBox="0 0 80 80" fill="none"><rect width="80" height="80" fill="white"></rect><path fill-rule="evenodd" clip-rule="evenodd" d="M75 5H5V75H75V5ZM0 0V80H80V0H0Z" fill="#5E8640"></path><path d="M11 46.7188C11 44.3193 11.4441 42.0762 12.3324 39.9897C13.273 37.8509 14.527 35.9991 16.0946 34.4342C17.6622 32.8171 19.4649 31.5391 21.5027 30.6002C23.5928 29.6612 25.8135 29.1917 28.1649 29.1917C29.7324 29.1917 31.1694 29.4004 32.4757 29.8177C33.782 30.1828 34.9054 30.6523 35.846 31.2261C36.7865 31.7999 37.5442 32.3998 38.1189 33.0258C38.6937 33.6517 39.0856 34.1995 39.2946 34.6689L39.6081 30.0524H46.0352V62.7592H39.2946V58.6122C39.0334 59.0295 38.6153 59.525 38.0406 60.0989C37.4658 60.6727 36.7081 61.2204 35.7676 61.742C34.8793 62.2115 33.8081 62.6288 32.5541 62.9939C31.3 63.3591 29.8631 63.5417 28.2433 63.5417C25.7351 63.5417 23.4099 63.0983 21.2676 62.2115C19.1775 61.2725 17.3748 60.0467 15.8595 58.5339C14.3441 56.969 13.1423 55.1694 12.2541 53.135C11.418 51.1006 11 48.9619 11 46.7188ZM17.7405 46.3276C17.7405 47.8403 18.0018 49.2488 18.5243 50.5529C19.0991 51.857 19.8568 52.9785 20.7973 53.9174C21.7378 54.8564 22.8613 55.6128 24.1676 56.1866C25.4739 56.7082 26.9108 56.969 28.4784 56.969C30.046 56.969 31.4829 56.7082 32.7892 56.1866C34.1478 55.6128 35.2973 54.8564 36.2379 53.9174C37.2307 52.9263 37.9883 51.8048 38.5108 50.5529C39.0334 49.2488 39.2946 47.8403 39.2946 46.3276C39.2946 44.8148 39.0334 43.4325 38.5108 42.1805C37.9883 40.8764 37.2307 39.7549 36.2379 38.816C35.2973 37.877 34.1478 37.1467 32.7892 36.6251C31.4829 36.0513 30.046 35.7644 28.4784 35.7644C26.9108 35.7644 25.4739 36.0513 24.1676 36.6251C22.8613 37.1467 21.7378 37.877 20.7973 38.816C19.8568 39.7549 19.0991 40.8764 18.5243 42.1805C18.0018 43.4325 17.7405 44.8148 17.7405 46.3276Z" fill="#5E8640"></path><path d="M62.6513 29.1917L66.6486 33.1823C64.6631 35.008 62.7559 36.7816 60.927 38.503C59.1504 40.2244 57.2694 42.0241 55.2838 43.902C57.6351 47.0318 59.9342 50.1877 62.1811 53.3697C64.4279 56.4995 66.7009 59.6294 69 62.7592H61.3189C59.5423 60.3075 57.7396 57.908 55.9108 55.5606C54.1342 53.1611 52.3576 50.7354 50.5811 48.2837L46.0351 52.4308L46.0352 62.7592H39.3729V14H46.0351V44.6062C48.9612 41.9458 51.7567 39.3898 54.4216 36.9381C57.0865 34.4342 59.8297 31.8521 62.6513 29.1917Z" fill="#5E8640"></path></svg> 