<?xml version="1.0" encoding="UTF-8"?> <svg xmlns="http://www.w3.org/2000/svg" width="80" height="80" viewBox="0 0 80 80" fill="none"><rect width="80" height="80" fill="#5A0091"></rect><path d="M50.557 37.7114L61.7047 18.443C61.8523 18.2215 61.7047 18 61.4833 18H54.396C52.698 18 51.2953 18.8121 50.4833 20.2148L38.5234 40.8859C38.4497 41.0336 38.5234 41.255 38.6711 41.3289C44.208 43.3221 48.7114 47.5302 51.1477 52.7718C51.2214 52.9933 51.0739 53.2147 50.8523 53.2147H27.0805C26.9329 53.2147 26.7852 53.0671 26.7852 52.9194V27.0805C26.7852 26.9329 26.9329 26.7852 27.0805 26.7852H39.0403C40.5906 26.7852 42.0671 25.9732 42.8792 24.5705L46.4228 18.443C46.5704 18.2215 46.4228 18 46.2013 18H18.2953C18.1477 18 18 18.1477 18 18.2953V61.7047C18 61.8523 18.1477 62 18.2953 62H61.7047C61.8523 62 62 61.8523 62 61.7047C61.9262 52.1812 57.4967 43.6913 50.6309 38.0806C50.4833 38.0067 50.4833 37.859 50.557 37.7114Z" fill="#96D700"></path></svg> 