<?xml version="1.0" encoding="UTF-8"?> <svg xmlns="http://www.w3.org/2000/svg" width="80" height="80" viewBox="0 0 80 80" fill="none"><rect width="80" height="80" fill="#F5F8FA"></rect><path fill-rule="evenodd" clip-rule="evenodd" d="M40 65.6C54.1385 65.6 65.6 54.1385 65.6 40C65.6 25.8615 54.1385 14.4 40 14.4C25.8615 14.4 14.4 25.8615 14.4 40C14.4 54.1385 25.8615 65.6 40 65.6ZM40 72C57.6731 72 72 57.6731 72 40C72 22.3269 57.6731 8 40 8C22.3269 8 8 22.3269 8 40C8 57.6731 22.3269 72 40 72Z" fill="#006F8B"></path><path d="M42.667 29.867C34.1337 23.467 20.267 25.7781 14.4004 27.7337L11.7333 29.867C11.3779 31.4669 10.667 34.88 10.667 35.7333C10.667 36.8 11.2004 46.9333 10.667 48C10.2404 48.8533 19.7337 59.3778 24.5337 64.5333L45.867 67.2C50.3115 65.0667 58.4537 61.12 55.467 62.4C52.4804 63.68 49.2448 63.6444 48.0004 63.4667C39.0404 63.4667 36.0893 56 35.7337 52.2667C38.4004 34.6667 59.7357 41.0631 60.267 41.6C47.467 28.3733 31.467 33.2444 25.067 37.3333C27.2004 36.0533 30.5781 36.8 32.0004 37.3333L18.1337 49.0667L26.1337 38.9333C23.8937 39.6505 19.371 41.188 19.2004 41.6C23.0404 31.7867 36.4448 29.6891 42.667 29.867Z" fill="#006F8B"></path></svg> 