<?xml version="1.0" encoding="UTF-8"?> <svg xmlns="http://www.w3.org/2000/svg" width="80" height="80" viewBox="0 0 80 80" fill="none"><rect width="80" height="80" fill="#5E676A"></rect><path fill-rule="evenodd" clip-rule="evenodd" d="M40.6995 13C40.6995 20.933 51.3316 20.933 51.3316 29.0052V34.8505L28.3886 39.7217V29.0052C28.3886 20.933 39.1606 20.933 39.1606 13C24.6114 13.4175 13 25.2474 13 39.8608C13 47.933 16.4974 55.0309 21.9534 59.9021C25.7306 59.067 28.3886 55.7268 28.3886 51.8299V41.2526L46.2953 37.4948V46.8196C46.2953 52.3866 42.3782 57.2577 36.9223 58.3711L23.4922 61.2938C28.1088 64.7732 33.7047 67 40 67C54.829 67 67 54.8918 67 40C66.8601 25.2474 55.2487 13.4175 40.6995 13Z" fill="#FFD200"></path></svg> 