<svg width="80" height="80" viewBox="0 0 80 80" fill="none" xmlns="http://www.w3.org/2000/svg">
<rect width="80" height="80" fill="#005AFF"/>
<path d="M24.6659 29.1038C24.6659 33.3054 21.5981 36.2075 17.4137 36.2075C13.2293 36.2075 10.1615 33.3089 10.1615 29.1038C10.1615 24.8986 13.2293 22 17.4137 22C21.6015 22 24.6659 24.8986 24.6659 29.1038ZM53.0941 29.1038C53.0941 33.3054 50.0263 36.2075 45.8421 36.2075C41.6576 36.2075 38.5898 33.3089 38.5898 29.1038C38.5898 24.8986 41.6576 22 45.8421 22C50.0263 22 53.0941 24.8986 53.0941 29.1038ZM68.1345 27.5464V35.7406H64.6131V28.3024C64.6131 26.1598 63.6169 25.2784 61.8374 25.2784C59.9719 25.2784 58.6871 26.2852 58.6871 29.1874V35.7441H55.1656V22.4215H58.646V24.4388H58.7285C59.5974 22.9267 61.0921 22 63.0811 22C66.0219 22 68.1345 23.5991 68.1345 27.5464ZM55.1656 44.2141V57.5369H51.6446V52.1576H46.3402V57.5369H42.8188V44.2141H46.3402V49.0465H51.6446V44.2141H55.1656ZM36.6007 44.2141V46.1479H36.5182C35.8965 44.8029 34.2405 43.7926 32.1243 43.7926C28.6854 43.7926 25.9095 46.3149 25.9095 50.8512C25.9095 55.4326 28.6029 57.9966 32.1243 57.9966C34.2783 57.9966 35.814 56.9897 36.5182 55.7287H36.6007V57.5369H40.1221V44.2141H36.6007ZM18.2451 44.0888C16.0911 44.0888 14.4317 45.0956 13.5626 46.6947H13.4801C13.6038 43.7544 14.6 42.5767 17.9977 42.2388L23.2608 41.7336V38.2462L17.4171 38.7096C11.7005 39.1729 10 43.1236 10 49.426C10 55.0143 13.1915 58 17.3347 58C21.4366 58 24.5457 55.018 24.5457 50.8547C24.5422 46.6947 21.7252 44.0888 18.2451 44.0888ZM25.9508 22.4215V25.4456H33.0381L25.7859 32.8838V35.7406H37.7205V32.7166H30.1386L37.3908 25.2366V22.4215H25.9508ZM33.0381 54.7636C30.9253 54.7636 29.558 53.1679 29.558 50.9383C29.558 48.6702 30.9253 47.0291 33.0381 47.0291C35.1509 47.0291 36.6007 48.6247 36.6007 50.8963C36.6007 53.1225 35.1509 54.7636 33.0381 54.7636ZM13.8511 29.1038C13.8511 31.4136 15.2596 32.9291 17.4137 32.9291C19.5677 32.9291 20.9762 31.4171 20.9762 29.1038C20.9762 26.7904 19.5677 25.2784 17.4137 25.2784C15.2596 25.2784 13.8511 26.7904 13.8511 29.1038ZM42.2793 29.1038C42.2793 31.4136 43.688 32.9291 45.8421 32.9291C47.9962 32.9291 49.4046 31.4171 49.4046 29.1038C49.4046 26.7904 47.9962 25.2784 45.8421 25.2784C43.688 25.2784 42.2793 26.7904 42.2793 29.1038ZM17.29 54.7636C15.2597 54.7636 13.6862 53.2096 13.6862 50.8963C13.6862 48.5448 15.2597 47.1547 17.29 47.1547C19.3204 47.1547 20.8938 48.5414 20.8938 50.8963C20.8972 53.2061 19.3204 54.7636 17.29 54.7636ZM65.8158 57.5369L61.3807 51.1508V57.5369H57.8593V44.2141H61.3807V49.7187L65.5238 44.2141H69.5844L64.7371 50.2658L70 57.5369H65.8158Z" fill="white"/>
</svg>
