<?xml version="1.0" encoding="UTF-8"?> <svg xmlns="http://www.w3.org/2000/svg" width="80" height="80" viewBox="0 0 80 80" fill="none"><rect width="80" height="80" fill="#F5F8FA"></rect><path d="M23.906 42.9319H19.6515L17.1232 57.3971H10L16.1507 22H23.2739L20.7942 36.1734H23.7601L34.6272 22H43.7682L29.9595 39.1151L38.3712 57.3971H30.2269L23.906 42.9319Z" fill="#294294"></path><path d="M68.9789 27.9076H53.6629L52.4716 34.7634L57.1151 34.7877C60.9887 34.8039 64.0276 35.8088 66.2318 37.8023C68.436 39.7958 69.4165 42.4457 69.1734 45.752C68.9141 49.269 67.4392 52.0891 64.7488 54.2123C62.0583 56.3355 58.6305 57.3971 54.4652 57.3971H41.3371L47.4878 22H70L68.9789 27.9076ZM51.4506 40.6467L49.5543 51.5381L54.7569 51.5624C56.637 51.5624 58.2496 51.0357 59.5948 49.9822C60.9562 48.9125 61.7747 47.4781 62.0502 45.6791C62.2609 44.2042 61.9611 43.0211 61.1507 42.1297C60.3404 41.222 59.1167 40.7358 57.4797 40.671L51.4506 40.6467Z" fill="#294294"></path></svg> 