<?xml version="1.0" encoding="UTF-8"?> <svg xmlns="http://www.w3.org/2000/svg" width="80" height="80" viewBox="0 0 80 80" fill="none"><rect width="80" height="80" fill="white"></rect><path fill-rule="evenodd" clip-rule="evenodd" d="M10.1613 52.1436C10.1613 48.5345 17.4699 45.053 26.3181 45.053C35.1675 45.053 42.4762 48.5345 42.4762 52.1436C42.4762 55.754 35.1675 59.2342 26.3181 59.2342C17.4699 59.2342 10.1613 55.7528 10.1613 52.1436ZM39.7271 42.0871C35.3369 41.0848 30.849 40.5733 26.3458 40.562C12.1743 40.5584 0.00240966 45.7902 3.47273e-07 52.0099C-0.00240896 58.2295 12.532 63.7083 26.3169 63.6746C31.0343 63.6264 35.5627 63.206 40.1054 61.9025C44.8228 63.1855 48.9379 63.6758 53.4193 63.6722C59.9593 63.6661 66.2645 62.8169 72.3396 60.2811C74.9115 59.1005 76.9727 57.7838 78.7544 55.5299C79.5302 54.3614 79.9157 53.4314 80 52.0207V47.9707C79.3639 54.8589 65.8212 59.1234 53.8939 59.1402C51.7737 59.1427 49.5945 59.1065 47.5249 58.8078C48.7765 58.0488 50.045 57.1285 50.9943 55.9624C51.964 56.0226 52.4375 56.0178 53.4193 56.0178C59.9593 56.0118 66.2645 55.1613 72.3396 52.6267C74.9115 51.4461 76.9727 50.1294 78.7544 47.8755C79.5302 46.7058 79.9157 45.777 80 44.3663V40.3151C79.3639 47.2045 65.8212 51.469 53.8939 51.4859C53.3795 51.4859 53.1085 51.4847 52.6218 51.469C52.4314 50.3125 52.0556 49.5247 51.1027 48.308C51.8743 48.3455 52.6468 48.3636 53.4193 48.3622C59.9593 48.3562 66.2645 47.5069 72.3396 44.9711C74.9115 43.7917 76.9727 42.475 78.7544 40.2199C79.5302 39.0514 79.9157 38.1214 80 36.712V32.6607C79.3639 39.5489 65.8212 43.8146 53.8939 43.8303C49.0512 43.8375 44.4386 43.152 39.7271 42.0871Z" fill="#0D47A1"></path><path fill-rule="evenodd" clip-rule="evenodd" d="M69.8399 28.5299C69.8399 32.1403 62.5301 35.6217 53.6819 35.6217C44.8337 35.6217 37.5238 32.1403 37.5238 28.5311C37.5238 24.9208 44.8337 21.4405 53.6819 21.4405C62.5301 21.4405 69.8399 24.922 69.8399 28.5311V28.5299ZM40.2717 38.5888C44.6619 39.5911 49.1498 40.1026 53.653 40.1139C67.8245 40.1175 79.9964 34.8845 79.9988 28.6661C80.0036 22.4452 67.468 16.9652 53.6831 17.0002C48.9669 17.0484 44.4386 17.4688 39.8946 18.7722C35.1772 17.4893 31.0633 16.999 26.5807 17.0026C20.0419 17.0086 13.7355 17.8579 7.66161 20.3937C5.08967 21.5742 3.02851 22.8909 1.24802 25.1448C0.469816 26.3134 0.0843263 27.2434 3.47273e-07 28.654V32.7041C0.638468 25.8158 14.1788 21.5514 26.1073 21.5345C28.2263 21.5321 30.4055 21.5682 32.4763 21.867C31.2235 22.6259 29.9562 23.5463 29.0069 24.7124C28.0372 24.6521 27.5637 24.657 26.5807 24.657C20.0419 24.663 13.7355 25.5135 7.66041 28.0481C5.08847 29.2286 3.0273 30.5453 1.24682 32.7992C0.469816 33.969 0.0843263 34.8977 3.47273e-07 36.3084V40.3597C0.637263 33.4702 14.1788 29.2057 26.1073 29.1889C26.6205 29.1889 26.8927 29.1901 27.3782 29.2057C27.5686 30.3622 27.9444 31.1501 28.8973 32.3668C28.1257 32.3292 27.3533 32.3112 26.5807 32.3125C20.0419 32.3186 13.7355 33.1679 7.66041 35.7025C5.08847 36.883 3.0273 38.1997 1.24682 40.4548C0.469816 41.6233 0.0843263 42.5521 3.47273e-07 43.9616V48.0128C0.637263 41.1246 14.1788 36.8589 26.1073 36.8421C30.95 36.836 35.5614 37.5215 40.2729 38.5864L40.2717 38.5888Z" fill="#0D47A1"></path></svg> 