<?xml version="1.0" encoding="UTF-8"?> <svg xmlns="http://www.w3.org/2000/svg" width="80" height="80" viewBox="0 0 80 80" fill="none"><rect width="80" height="80" fill="white"></rect><path d="M67.3455 56.6113C71.4206 57.8981 75.4957 59.6139 79.9997 62.1877C69.0613 44.1716 49.7584 24.6542 30.6699 12C35.6029 16.933 43.5386 27.6568 45.6833 39.0241C53.4045 44.6005 60.6967 50.6059 67.3455 56.6113Z" fill="#003662"></path><path d="M67.3459 56.6111C57.9089 53.6085 49.9732 53.394 44.1823 54.0374C46.3271 49.1044 46.5416 43.957 45.6836 39.024C31.3137 28.7291 15.2279 19.7211 0 13.0723C11.1528 20.579 23.5925 42.6701 28.74 66.2626C39.8928 63.0455 56.8365 60.6862 78.9276 68.1929C75.2815 64.3323 71.4209 60.4717 67.3459 56.6111Z" fill="#003662"></path></svg> 