<?xml version="1.0" encoding="UTF-8"?> <svg xmlns="http://www.w3.org/2000/svg" width="80" height="80" viewBox="0 0 80 80" fill="none"><rect width="80" height="80" fill="#F5F8FA"></rect><circle cx="40" cy="40" r="32" fill="white"></circle><path fill-rule="evenodd" clip-rule="evenodd" d="M40 69.44C56.2593 69.44 69.44 56.2593 69.44 40C69.44 23.7407 56.2593 10.56 40 10.56C23.7407 10.56 10.56 23.7407 10.56 40C10.56 56.2593 23.7407 69.44 40 69.44ZM40 72C57.6731 72 72 57.6731 72 40C72 22.3269 57.6731 8 40 8C22.3269 8 8 22.3269 8 40C8 57.6731 22.3269 72 40 72Z" fill="#00923F"></path><path d="M33.3156 33.3156C25.7493 32.2347 19.6859 28.8356 17.6 27.2711C14.9831 31.5378 14.2341 38.2459 14.1867 41.0667C14.6418 54.4356 23.5733 57.2089 27.9822 56.9244C38.6773 56.5831 42.1096 47.2059 42.4889 42.56C42.6027 38.2364 39.5496 35.2593 38.0089 34.3111L32.2489 40.4267L29.12 37.5822L33.3156 33.3156Z" fill="#00923F"></path><path d="M53.44 18.6666C41.2658 11.328 29.9259 15.6089 25.7778 18.6666C29.0204 26.9155 36.3259 28.9778 39.5733 28.9778C47.1396 29.0916 51.9704 22.1511 53.44 18.6666Z" fill="#00923F"></path><path d="M61.6889 27.2711C54.9191 31.6516 48.6281 33.0785 46.3289 33.2444C54.976 40.9244 57.6119 52.7526 57.8489 57.7067C68.4871 46.3858 64.8415 32.6993 61.6889 27.2711Z" fill="#00923F"></path></svg> 