<?xml version="1.0" encoding="UTF-8"?> <svg xmlns="http://www.w3.org/2000/svg" width="80" height="80" viewBox="0 0 80 80" fill="none"><rect width="80" height="80" fill="#004B98"></rect><path d="M43.8856 14H62.1713V21.3143H42.9713C38.9485 21.3143 35.8094 24.3619 34.7427 25.8857C34.0113 29.1771 35.657 30.9143 36.5713 31.3714C37.3027 26.9829 42.6666 24.6667 45.257 24.0571H54.857C68.0227 25.1543 71.3142 31.219 71.3142 34.1143C71.3142 42.16 62.7808 45.3905 58.5142 46H42.057C35.4742 46 27.7332 40.5143 24.6856 37.7714V46H16.457V14.9143H24.6856V31.3714C31.0856 39.1429 39.3142 41.4286 39.7713 41.4286H55.7713C66.0113 35.2114 58.2094 30.3048 53.0285 28.6286H43.8856C38.0342 31.1886 41.4475 35.181 43.8856 36.8571C34.0113 38.32 30.0189 30.4571 29.257 26.3429C29.257 19.0286 39.0094 15.0667 43.8856 14Z" fill="white"></path><path d="M80 48.2853L0 47.8281L1.82857 50.571H78.1714L80 48.2853Z" fill="white"></path><path d="M75.8856 52.4004H4.57129L5.94272 54.229H74.057L75.8856 52.4004Z" fill="white"></path><path d="M71.314 56.0576H9.14258C20.114 64.1033 33.8283 65.5052 39.314 65.2005C59.794 63.7376 69.1807 58.4957 71.314 56.0576Z" fill="white"></path></svg> 