<?xml version="1.0" encoding="UTF-8"?> <svg xmlns="http://www.w3.org/2000/svg" width="80" height="80" viewBox="0 0 80 80" fill="none"><rect width="80" height="80" fill="#008D5C"></rect><g clip-path="url(#clip0)"><path d="M37.8503 26.4746V54.1761H31.3273V42.8185H18.523V54.1761H12V26.4746H18.523V37.3969H31.3273V26.4746H37.8503Z" fill="#FFD503"></path><path d="M55.824 54.6512C52.9517 54.6512 50.3479 54.0444 48.0125 52.8308C45.704 51.5908 43.8787 49.8892 42.5365 47.7258C41.2212 45.536 40.5635 43.0693 40.5635 40.3256C40.5635 37.5818 41.2212 35.1283 42.5365 32.9649C43.8787 30.7752 45.704 29.0735 48.0125 27.86C50.3479 26.62 52.9651 26 55.8642 26C58.307 26 60.5082 26.4221 62.4677 27.2663C64.4541 28.1106 66.1185 29.3242 67.4607 30.9071L63.2731 34.7061C61.3672 32.5428 59.0049 31.4611 56.1863 31.4611C54.4416 31.4611 52.8847 31.8437 51.5156 32.6088C50.1466 33.3475 49.0729 34.3896 48.2943 35.7351C47.5428 37.0806 47.1669 38.6107 47.1669 40.3256C47.1669 42.0405 47.5428 43.5706 48.2943 44.9161C49.0729 46.2616 50.1466 47.3168 51.5156 48.082C52.8847 48.8206 54.4416 49.19 56.1863 49.19C59.0049 49.19 61.3672 48.0951 63.2731 45.9054L67.4607 49.7045C66.1185 51.3138 64.4541 52.5406 62.4677 53.3848C60.4814 54.2291 58.2668 54.6512 55.824 54.6512Z" fill="#FFD503"></path></g><defs><clipPath id="clip0"><rect x="12" y="26" width="56" height="28.6512" fill="white"></rect></clipPath></defs></svg> 