<?xml version="1.0" encoding="UTF-8"?> <svg xmlns="http://www.w3.org/2000/svg" width="80" height="80" viewBox="0 0 80 80" fill="none"><rect width="80" height="80" fill="#07407F"></rect><g clip-path="url(#clip0)"><path fill-rule="evenodd" clip-rule="evenodd" d="M52.7574 24.207C50.7838 34.1806 48.9512 44.0132 46.9776 53.9868C42.3257 39.6079 31.4358 37.881 17.3389 41.9691C29.145 36.0484 40.9512 30.1277 52.7574 24.207Z" fill="white"></path><path fill-rule="evenodd" clip-rule="evenodd" d="M40.0352 21C62.0969 21 80.0705 29.7401 80.0705 40.4537C80.0705 51.1674 62.0969 59.9075 40.0352 59.9075C17.9736 59.9075 0 51.1674 0 40.4537C0 29.7401 17.9736 21 40.0352 21ZM32.5639 25.9692C21.7445 30.4097 14.1322 41.1233 17.6916 49.4758C21.2511 57.8282 33.7974 59.2026 45.674 54.304C57.5507 49.37 64.3877 38.3744 60.6872 30.4802C57.022 22.5859 43.4185 21.4934 32.5639 25.9692Z" fill="white"></path></g><defs><clipPath id="clip0"><rect width="80" height="38.9075" fill="white" transform="translate(0 21)"></rect></clipPath></defs></svg> 