<?xml version="1.0" encoding="UTF-8"?> <svg xmlns="http://www.w3.org/2000/svg" width="80" height="80" viewBox="0 0 80 80" fill="none"><rect width="80" height="80" fill="#F5F8FA"></rect><path d="M27.2781 31.7467H15.4934V36.8362H19.7359C22.8422 36.8362 25.3019 37.5882 27.1149 39.0922C28.94 40.5842 29.8525 42.5996 29.8525 45.1384C29.8525 47.6892 28.946 49.7406 27.133 51.2928C25.3321 52.8329 22.9329 53.615 19.9353 53.639H10V27.361H27.2781V31.7467ZM15.4934 41.2039V49.2894H19.8266C21.2165 49.2894 22.3225 48.9104 23.1444 48.1524C23.9784 47.3944 24.3954 46.3777 24.3954 45.1023C24.3954 43.9111 23.9965 42.9726 23.1988 42.2868C22.4131 41.5889 21.3314 41.2279 19.9535 41.2039H15.4934Z" fill="url(#paint0_linear)"></path><path d="M50.3433 44.8857C50.1378 47.7132 49.0862 49.9392 47.1886 51.5635C45.3031 53.1878 42.8132 54 39.719 54C36.3347 54 33.6695 52.869 31.7236 50.607C29.7897 48.3329 28.8227 45.2166 28.8227 41.258V39.6517C28.8227 37.125 29.27 34.8991 30.1644 32.9739C31.0588 31.0488 32.334 29.5749 33.9898 28.5521C35.6578 27.5174 37.5917 27 39.7915 27C42.8374 27 45.291 27.8122 47.1524 29.4365C49.0137 31.0608 50.0894 33.3409 50.3795 36.2767H44.9405C44.8075 34.5802 44.3301 33.3529 43.5082 32.5949C42.6984 31.8249 41.4595 31.4398 39.7915 31.4398C37.9785 31.4398 36.6187 32.0896 35.7122 33.389C34.8178 34.6765 34.3585 36.6798 34.3343 39.3991V41.3844C34.3343 44.2239 34.7634 46.2995 35.6216 47.611C36.4918 48.9225 37.8576 49.5782 39.719 49.5782C41.399 49.5782 42.65 49.1992 43.4719 48.4412C44.3059 47.6711 44.7833 46.486 44.9042 44.8857H50.3433Z" fill="url(#paint1_linear)"></path><path d="M67.4255 31.7467H55.6409V36.8362H59.8834C62.9897 36.8362 65.4493 37.5882 67.2623 39.0922C69.0874 40.5842 70 42.5996 70 45.1384C70 47.6892 69.0935 49.7406 67.2805 51.2928C65.4795 52.8329 63.0803 53.615 60.0828 53.639H50.1475V27.361H67.4255V31.7467ZM55.6409 41.2039V49.2894H59.974C61.364 49.2894 62.4699 48.9104 63.2918 48.1524C64.1258 47.3944 64.5428 46.3777 64.5428 45.1023C64.5428 43.9111 64.144 42.9726 63.3462 42.2868C62.5606 41.5889 61.4788 41.2279 60.1009 41.2039H55.6409Z" fill="url(#paint2_linear)"></path><defs><linearGradient id="paint0_linear" x1="145.081" y1="19.8447" x2="145.081" y2="62.0876" gradientUnits="userSpaceOnUse"><stop stop-color="#D9B964"></stop><stop offset="1" stop-color="#CEA52F"></stop></linearGradient><linearGradient id="paint1_linear" x1="145.081" y1="19.8447" x2="145.081" y2="62.0876" gradientUnits="userSpaceOnUse"><stop stop-color="#D9B964"></stop><stop offset="1" stop-color="#CEA52F"></stop></linearGradient><linearGradient id="paint2_linear" x1="145.081" y1="19.8447" x2="145.081" y2="62.0876" gradientUnits="userSpaceOnUse"><stop stop-color="#D9B964"></stop><stop offset="1" stop-color="#CEA52F"></stop></linearGradient></defs></svg> 