<?xml version="1.0" encoding="UTF-8"?> <svg xmlns="http://www.w3.org/2000/svg" width="80" height="80" viewBox="0 0 80 80" fill="none"><path d="M80.0002 79.9998V21.3839C80.0002 9.57372 80.0002 -7.62939e-06 80.0002 -7.62939e-06H0C0 -7.62939e-06 0.000166178 9.57372 0.000166178 21.3839V79.9999C0.000166178 79.9999 9.58494 80 21.4079 80H58.5924C70.4152 80 80.0002 79.9998 80.0002 79.9998Z" fill="black"></path><path fill-rule="evenodd" clip-rule="evenodd" d="M63.4809 39.9268V39.609H55.2156V40C55.2156 48.1817 48.5079 54.8183 40.2405 54.8183C31.973 54.8183 25.2654 48.1817 25.2654 40C25.2654 31.8183 31.973 25.1817 40.2405 25.1817H40.4872V17H40.2405C27.4211 17 17 27.3124 17 40C17 52.6876 27.419 63 40.2405 63C53.0619 63 63.4809 52.6876 63.4809 40V39.9268Z" fill="white"></path></svg> 