<?xml version="1.0" encoding="UTF-8"?> <svg xmlns="http://www.w3.org/2000/svg" width="80" height="80" viewBox="0 0 80 80" fill="none"><rect width="80" height="80" fill="#A61731"></rect><path d="M23.8088 36.4H16.4112V30.8286H31.9238V25H10V55H23.495C30.2201 55 34.2551 51.6571 34.2551 45.6143C34.2551 39.5286 30.6684 36.4 23.8088 36.4ZM23.2708 49.1714H16.4112V42.0143H23.5847C26.5885 42.0143 27.7991 43.1286 27.7991 45.5286C27.7991 47.9286 26.2747 49.1714 23.2708 49.1714Z" fill="white"></path><path d="M62.6024 25L54.5771 36.5286L46.507 25H39.1543V55H45.5655V33.4857L54.2633 46.1286H54.8461L63.5888 33.4857V55H70V25H62.6024Z" fill="white"></path></svg> 