<?xml version="1.0" encoding="UTF-8"?> <svg xmlns="http://www.w3.org/2000/svg" width="80" height="80" viewBox="0 0 80 80" fill="none"><rect width="80" height="80" fill="#F5F8FA"></rect><circle cx="40" cy="40" r="30" fill="white"></circle><path d="M40 10C23.4319 10 10 23.4319 10 40C10 56.5681 23.4319 70 40 70C56.5681 70 70 56.5681 70 40C70 23.4319 56.5681 10 40 10ZM68.0492 40C68.0492 55.4904 55.4921 68.0492 40 68.0492C24.5079 68.0492 11.9508 55.4904 11.9508 40C11.9508 24.5096 24.5096 11.9508 40 11.9508C55.4904 11.9508 68.0492 24.5096 68.0492 40Z" fill="#6F6F6F"></path><path d="M40.0024 22.2246V23.1993C49.2667 23.1993 56.8054 30.7363 56.8054 40.0024H57.7802C57.7802 30.1846 49.8202 22.2246 40.0024 22.2246ZM40.0024 56.8054C30.7381 56.8054 23.1993 49.2685 23.1993 40.0024H22.2246C22.2246 49.8202 30.1846 57.7802 40.0024 57.7802" fill="#6F6F6F"></path><path d="M54.3617 27.3374C54.7688 27.7714 55.3557 28.4715 55.6852 28.8967L61.7544 25.071C61.4513 24.6772 60.9684 24.0787 60.6071 23.6569L56.7637 26.1806L56.5011 26.4046L56.6967 26.1211L58.3938 22.7574L57.1937 21.5656L53.8049 23.2509L53.5194 23.4452L53.7467 23.1844L56.2896 19.3692C55.842 18.9912 55.412 18.6446 54.864 18.2246L51.0117 24.2467C51.4999 24.6195 52.1431 25.1673 52.5537 25.54L56.1804 23.6709L56.413 23.5012L56.2421 23.7322L54.3617 27.3374Z" fill="#6F6F6F"></path><path d="M40.5937 19.7067L42.252 16.0175L42.3577 15.6903L42.3278 16.0315L42.5022 20.9616C43.0838 21.0158 43.6847 21.0963 44.2768 21.1943L44.0072 13.8929C43.1789 13.8019 42.3542 13.7372 41.5295 13.7021L39.8959 17.7291L39.8377 18.0284L39.7796 17.7291L38.1477 13.7021C37.323 13.7372 36.4983 13.8019 35.67 13.8929L35.4004 21.1943C35.9925 21.0963 36.5934 21.0176 37.175 20.9616L37.3494 16.0315L37.3195 15.6903L37.4252 16.0175L39.0835 19.7067H40.5937Z" fill="#6F6F6F"></path><path d="M27.1811 25.5239C28.1398 24.5211 28.6825 23.3625 27.7239 22.2564C27.2023 21.6562 26.3264 21.5249 25.6004 21.8207L25.5281 21.8487L25.551 21.7857C25.6585 21.5004 25.7273 20.5904 24.9466 19.9621C24.5659 19.6558 24.0884 19.542 23.6055 19.591C22.705 19.682 22.0124 20.2928 20.1268 22.3807C19.5576 23.0107 18.7294 24.0048 18.2324 24.6488L23.4117 29.5281C25.1281 27.6415 25.8277 26.9397 27.1811 25.5239ZM20.4229 24.3303C21.4661 23.0632 22.5746 21.9134 23.0768 21.4584C23.2354 21.3149 23.4081 21.1714 23.6178 21.1154C23.958 21.0226 24.3086 21.2624 24.3879 21.6089C24.4673 21.9572 24.247 22.288 24.002 22.561C23.4504 23.1788 21.4274 25.2806 21.4274 25.2806L20.4229 24.3303ZM22.4512 26.2414C22.4512 26.2414 24.4214 24.1728 25.0647 23.5113C25.3202 23.2488 25.4841 23.0895 25.6603 23.0037C25.8876 22.8935 26.1361 22.8707 26.3581 23.0177C26.5767 23.163 26.6771 23.4133 26.6225 23.6618C26.5573 23.9575 26.3141 24.2393 26.1132 24.4546C25.8418 24.7433 23.5051 27.2267 23.5015 27.2302L22.4512 26.2414Z" fill="#6F6F6F"></path><path d="M40.0024 22.2246V40.0024H22.2246C22.2246 30.1776 30.1776 22.2246 40.0024 22.2246Z" fill="#0066B1"></path><path d="M57.7778 40C57.7778 49.8248 49.8248 57.7778 40 57.7778V40H57.7778Z" fill="#0066B1"></path></svg> 