<?xml version="1.0" encoding="UTF-8"?> <svg xmlns="http://www.w3.org/2000/svg" width="80" height="80" viewBox="0 0 80 80" fill="none"><rect width="80" height="80" fill="#F5F8FA"></rect><path d="M63.9888 43.6126H61.572V44.821H63.9888C64.2573 44.821 64.9555 45.6266 65.6 48.849V50.4601C65.6 51.2657 65.1972 51.6685 64.7944 52.0713C64.3916 52.4741 64.3916 52.8769 64.3916 53.6825V59.3217C64.3916 60.1273 64.7944 60.1273 65.1972 61.7385C65.6 63.3496 66.0028 61.7385 66.8084 62.5441C67.614 63.3496 68.0168 62.9469 68.8224 62.5441L70.4336 61.7385C71.2392 61.3357 70.8364 60.9329 71.642 60.1273C72.4476 59.3217 71.642 58.9189 71.642 58.1133C71.642 57.3077 71.642 56.9049 66.8084 56.0993C66.4056 56.9049 66.0028 55.6965 66.0028 53.6825C66.0028 52.8769 66.8084 52.8769 66.8084 51.6685C66.8084 50.4601 67.2112 50.8629 67.2112 50.0573C67.2112 49.2517 67.2112 48.849 66.8084 48.0434C66.4862 47.3989 66.6741 46.7007 66.8084 46.4322L66.0028 44.821L63.9888 43.6126Z" fill="#93462F"></path><path d="M44.6545 13L41.4322 20.2503L43.4462 23.0699L44.2517 25.8895V28.7091L37.0014 42.0014L32.1678 52.0713L34.1818 54.0853L36.5986 54.8909L39.4182 52.4741L49.8909 32.7371L50.6965 27.5007L49.0853 22.2643L44.6545 13Z" fill="#93462F"></path><path d="M11.6252 58.1133L8 62.9469H25.3203L24.5147 59.7245L25.7231 57.3077L28.9455 55.6965H33.3762L30.5566 51.6685L43.0434 28.7091L40.6266 21.4587L18.8755 59.7245H15.2503L11.6252 58.1133Z" fill="#93462F"></path><path d="M33.779 31.9315L22.9035 50.4601L20.8895 47.6406V45.2238L21.6951 42.0014L27.7371 31.9315H33.779Z" fill="#93462F"></path><path d="M36.5986 26.2923L33.779 31.1259H25.3203V32.7371L24.9175 33.9455L23.7091 35.9594H20.8895L19.6811 34.751V31.9315L20.8895 30.3203H23.7091V27.9035L25.3203 26.2923H36.5986Z" fill="#93462F"></path><path d="M45.0573 42.807L40.6266 52.4741L41.4322 53.2797L42.6406 54.8909V57.7105C42.6406 58.5161 42.2378 58.1133 41.4322 58.1133C40.6266 58.1133 40.6266 58.5161 39.821 58.5161H37.4042C36.5986 58.5161 36.5986 58.5161 35.3902 58.1133C34.1818 57.7105 34.5846 58.5161 33.3762 58.5161C32.4095 58.5161 32.4364 59.0531 32.5706 59.3217L31.3622 60.5301V62.5441H45.8629V57.7105C45.8629 56.9049 46.6685 56.9049 46.6685 56.0993C46.6685 55.2937 47.4741 55.6965 47.8769 54.8909C48.2797 54.0853 49.0853 54.0853 49.8909 54.0853C50.6965 54.0853 51.0993 53.6825 52.7105 53.2797C54.3217 52.8769 54.3217 53.2797 55.1273 53.2797C55.7717 53.2797 55.9329 53.8168 55.9329 54.0853C56.0671 54.4881 56.2551 55.6159 55.9329 56.9049C55.5301 57.7105 55.5301 57.7105 53.5161 58.5161C52.8716 58.8383 52.7105 58.3818 52.7105 58.1133H51.5021C51.1799 58.1133 50.2937 58.3818 49.8909 58.5161L49.0853 59.3217L47.8769 61.3357V62.9469L57.5441 62.5441V60.5301C57.5441 60.1273 57.9469 59.3217 58.7524 58.5161C59.558 57.7105 58.7524 57.7105 58.7524 56.9049C58.7524 56.2604 59.558 56.0993 59.9608 56.0993C60.2294 55.8308 61.0887 54.8909 62.3776 53.2797C62.7804 52.4741 63.1832 52.4741 63.1832 51.6685V47.6406L61.9748 46.0294V43.6126L60.7664 42.807H45.0573Z" fill="#93462F"></path></svg> 