<?xml version="1.0" encoding="UTF-8"?> <svg xmlns="http://www.w3.org/2000/svg" width="80" height="80" viewBox="0 0 80 80" fill="none"><rect width="80" height="80" fill="#F5F8FA"></rect><path fill-rule="evenodd" clip-rule="evenodd" d="M46.0745 14.9776C42.5664 15.6503 39.7331 19.1745 40.3952 23.3056C30.958 19.9988 18.8668 20.6273 10.4113 22.2379C8.51495 22.6085 6.79796 23.0134 5.3255 23.4481C4.90071 23.5725 4.90071 23.9855 5.27284 24.0631C18.2609 27.039 23.2646 33.7068 33.3488 35.3489C26.1747 45.3164 26.4773 57.8539 27.3732 60.8523C27.5482 61.5746 30.8822 66.0078 32.8714 67.7798C33.0927 67.9683 33.3907 68.0341 33.6567 67.9836C34.035 67.9124 34.3733 67.6076 34.3617 67.2C34.1234 55.6039 35.5307 48.0425 39.1798 46.7249C41.5125 45.8881 42.6128 45.5743 43.2875 45.3533C53.0692 42.2773 52.2954 30.4144 52.1669 26.1282C51.9813 19.1475 55.4197 17.2564 58.2995 16.7099L72.5441 13.9902C73.8131 13.7485 74.5226 13.8946 74.9009 13.8242L75 13.7386C74.9465 13.4103 74.494 13.0162 73.515 13H73.3919C73.1206 13.0045 72.8118 13.0361 72.4629 13.1037L57.7418 15.911C55.7803 16.2852 54.1623 16.3853 53.692 16.2554C52.7309 15.9822 49.2166 14.3851 46.0745 14.9776Z" fill="#F27007"></path></svg> 