<?xml version="1.0" encoding="UTF-8"?> <svg xmlns="http://www.w3.org/2000/svg" width="80" height="80" viewBox="0 0 80 80" fill="none"><rect x="0.000976562" width="80" height="80" fill="#00AC5D"></rect><circle cx="40" cy="40" r="30" fill="white"></circle><path d="M31.89 20.0195C31.2087 20.0976 30.9368 20.1632 30.4462 20.3601C29.7275 20.6507 28.9806 21.2445 28.4743 21.932C27.2962 23.5288 27.115 25.6132 27.9962 27.4445C28.2712 28.0163 28.6587 28.5913 29.0837 29.0632L29.265 29.2632L28.9743 29.0163C27.9993 28.1788 27.0118 27.7007 25.8431 27.4945C25.4993 27.4351 24.5275 27.4445 24.165 27.5101C23.3493 27.6632 22.5712 27.9976 21.9181 28.4788C21.5618 28.7413 21.0368 29.2913 20.79 29.6632C20.265 30.4476 20.0525 31.1382 20.0087 32.1726C19.8962 34.9507 21.4243 36.9413 24.6087 38.1726C26.8431 39.0351 29.5743 39.507 34.5931 39.8913C35.1868 39.9382 35.7056 39.982 35.7493 39.9913C35.7931 40.0038 35.3493 40.0507 34.765 40.0976C32.4368 40.2882 30.8525 40.4507 29.7181 40.6101C23.39 41.5101 20.3681 43.4976 20.0275 46.9851C19.9837 47.4257 20.0056 48.1663 20.0775 48.5882C20.29 49.8757 21.0962 51.0288 22.3118 51.7851C23.4431 52.4851 24.865 52.7257 26.1931 52.4382C27.1931 52.2226 28.2431 51.6601 29.0775 50.9038L29.2962 50.7038L29.0775 50.9538C28.19 51.9663 27.6868 52.9945 27.4931 54.1882C27.4431 54.4976 27.4431 55.4226 27.4962 55.7195C27.6493 56.6195 27.9681 57.3851 28.4743 58.0695C28.9681 58.7382 29.715 59.3413 30.4025 59.6257C30.9962 59.8695 31.44 59.9601 32.1712 59.9913C34.7212 60.0945 36.6243 58.8038 37.8525 56.1413C38.7837 54.1132 39.3337 51.5507 39.7181 47.4382C39.8056 46.4757 39.9681 44.507 39.9681 44.3663C39.9681 44.3038 39.9837 44.2507 39.9993 44.2507C40.0181 44.2507 40.0306 44.3038 40.0306 44.3663C40.0306 44.507 40.1931 46.4757 40.2806 47.4382C40.665 51.5507 41.215 54.1132 42.1462 56.1413C43.1181 58.2476 44.5181 59.5007 46.3181 59.8757C47.2118 60.0601 48.3868 60.0288 49.1181 59.7976C49.9181 59.5445 50.5462 59.1507 51.1368 58.5288C52.3181 57.2882 52.8087 55.4976 52.4337 53.7976C52.2275 52.8601 51.6962 51.8413 50.9931 51.032L50.7368 50.7351L50.9368 50.9163C51.815 51.7132 52.8743 52.2538 53.9712 52.4757C54.4306 52.5663 55.3806 52.5757 55.8306 52.4913C57.3275 52.2163 58.6337 51.3288 59.3837 50.0757C59.6275 49.6663 59.84 49.0851 59.9212 48.5882C59.9931 48.1663 60.015 47.4257 59.9712 46.9851C59.6306 43.4976 56.6087 41.5101 50.2806 40.6101C49.1462 40.4507 47.5618 40.2882 45.2337 40.0976C44.6493 40.0507 44.2056 40.0038 44.2493 39.9913C44.2931 39.982 44.8118 39.9382 45.4056 39.8913C48.1087 39.6851 50.0368 39.4632 51.5837 39.1882C56.6118 38.2851 59.2837 36.5132 59.8743 33.682C60.0118 33.0132 60.0337 32.0851 59.9212 31.4132C59.84 30.9163 59.6275 30.3351 59.3837 29.9257C58.6087 28.632 57.3087 27.7695 55.7181 27.4976C55.4212 27.4445 54.4962 27.4445 54.1868 27.4945C52.9931 27.6882 51.965 28.1913 50.9525 29.0788L50.7025 29.2976L50.9025 29.0788C52.4931 27.3288 52.9712 25.1101 52.1806 23.1101C51.7056 21.9007 50.69 20.8257 49.5962 20.3757C49.0025 20.132 48.5587 20.0413 47.8275 20.0101C44.89 19.8913 42.8462 21.5945 41.6243 25.1726C40.9962 27.0163 40.5931 29.2445 40.2806 32.5945C40.1868 33.6163 40.0306 35.5163 40.0306 35.657C40.0306 35.7257 40.0181 35.782 39.9993 35.782C39.9837 35.782 39.9681 35.7257 39.9681 35.657C39.9681 35.5163 39.8118 33.6163 39.7181 32.5945C39.4056 29.2445 39.0025 27.0163 38.3743 25.1726C37.2806 21.9663 35.5431 20.2851 33.065 20.032C32.765 20.0038 32.1087 19.9945 31.89 20.0195Z" fill="#00AC5D"></path></svg> 