<?xml version="1.0" encoding="UTF-8"?> <svg xmlns="http://www.w3.org/2000/svg" width="80" height="80" viewBox="0 0 80 80" fill="none"><rect width="80" height="80" fill="#C6A75E"></rect><path d="M53.4093 13.7531L53.4086 13.7527L49.8863 11.9592L49.1594 11.589V12.4047V40.0217V40.5217H49.6594H54.4999H54.9999V40.0217V21.7053C60.4419 26.1413 63.6594 32.79 63.6594 40C63.6594 53.0567 53.0356 63.6595 40 63.6595C26.9644 63.6595 16.3405 53.0567 16.3405 40C16.3405 32.7922 19.5758 26.1441 25 21.7075V40V40.5H25.5H30.3405H30.8405V40V12.3831V11.5674L30.1136 11.9375L26.5913 13.7311L26.5898 13.7319C16.6565 18.8304 10.5 28.8771 10.5 40C10.5 56.2672 23.7328 69.5 40 69.5C56.2671 69.5 69.4999 56.2672 69.4999 40C69.4999 28.8773 63.3435 18.8301 53.4093 13.7531ZM37.5798 10.5H37.0798V11V40V40.5H37.5798H42.4203H42.9203V40V11V10.5H42.4203H37.5798Z" fill="white" stroke="white"></path></svg> 