<?xml version="1.0" encoding="UTF-8"?> <svg xmlns="http://www.w3.org/2000/svg" width="80" height="80" viewBox="0 0 80 80" fill="none"><rect width="80" height="80" fill="#0F609D"></rect><path d="M39.5 18C27.0636 18 17 28.0824 17 40.5003C17 52.9264 27.0636 63 39.5 63C51.9157 63 62 52.9264 62 40.5003C62 28.0824 51.9157 18 39.5 18ZM41.9406 61.6342L45.117 54.0139H41.3309C39.3908 54.0139 38.736 52.6182 39.1914 51.3769L44.5431 38.0825C44.5431 38.0825 45.0284 37.0692 44.1462 36.5684C43.1903 36.024 42.6615 37.0243 42.6615 37.0243L32.8859 52.4399C32.6211 52.8958 31.7098 54.0282 30.2534 53.3735C28.7838 52.7134 29.2467 51.1911 29.3576 50.9482L34.4872 38.7507C34.4872 38.7507 35.0032 37.568 34.4668 36.6936C33.9508 35.8695 33.334 35.781 32.7394 35.7599H29.9752L26.174 44.7535L26.2482 31.3733L37.2752 18.6764L33.7319 27.1488C33.7319 27.1488 36.8255 27.1488 38.0976 27.1488C38.7375 27.1488 39.3396 27.4754 39.6782 28.0286C39.9947 28.5526 40.0751 29.2651 39.7395 30.0947L34.2561 43.3864C34.0791 43.7743 34.0131 44.5113 34.8 44.8651C35.5716 45.253 36.0946 44.6133 36.1831 44.4364L45.7669 28.9092C46.4142 27.8449 47.3701 27.2331 48.516 27.7843C49.8841 28.4376 49.5529 29.8136 49.3986 30.2695L44.5249 42.5045C43.5106 44.9951 45.4808 45.4143 46.3408 45.4143C46.7887 45.4143 48.612 45.4143 48.612 45.4143L52.3323 36.2955L52.6107 49.888L41.9406 61.6342Z" fill="white"></path></svg> 