<?xml version="1.0" encoding="UTF-8"?> <svg xmlns="http://www.w3.org/2000/svg" width="80" height="80" viewBox="0 0 80 80" fill="none"><rect width="80" height="80" fill="#0C75BA"></rect><path d="M10 10H70V70H10V10Z" fill="white"></path><path d="M17 17H63V63H17V17Z" fill="#0C75BA"></path><path d="M24 24H70V70H24V24Z" fill="white"></path><circle cx="55" cy="55" r="25" fill="#0C75BA"></circle><path d="M30 56H38V80H30V56Z" fill="#0C75BA"></path><path d="M56 38L56 30L80 30L80 38L56 38Z" fill="#0C75BA"></path><circle cx="58.5" cy="58.5" r="21.5" fill="white"></circle><path d="M70 30H80L80 80H70L70 30Z" fill="#0C75BA"></path><path d="M30 80L30 70L80 70L80 80L30 80Z" fill="#0C75BA"></path></svg> 