<?xml version="1.0" encoding="UTF-8"?> <svg xmlns="http://www.w3.org/2000/svg" width="80" height="80" viewBox="0 0 80 80" fill="none"><rect width="80" height="80" fill="#302C29"></rect><path d="M74.5333 23.0081C74.5333 4.26548 53.1602 2.04596 42.4736 3.27902C42.5983 6.56138 42.7729 13.1296 42.4736 13.1439C62.2027 12.1574 67.1349 19.309 67.1349 23.0081C67.1349 27.9401 62.2027 31.6397 59.7366 32.8729C59.8507 36.2279 60.0106 42.8977 59.7366 42.7375C66.6417 46.6833 67.546 52.602 67.1349 55.0681C64.1756 66.9056 51.1051 68.2208 44.9398 67.3988V77.2633C70.5875 79.2362 76.9995 63.2886 76.9995 55.0681C76.9995 43.2307 70.4231 38.6273 67.1349 37.8052C74.0401 35.8323 74.9444 27.1184 74.5333 23.0081Z" fill="white"></path><path d="M12.8813 40.2732C12.8813 21.5306 30.9666 13.9678 40.009 13.1458V3.28125C9.42901 4.2677 2.60613 28.7646 3.01715 40.2732H12.8813Z" fill="white"></path><path d="M12.8813 40.2732C12.8813 59.0158 30.9669 66.5786 40.0093 67.4007V77.2652C9.42931 76.2787 2.60613 51.7818 3.01715 40.2732H12.8813Z" fill="white"></path><circle cx="40" cy="40" r="23" fill="#0988C2"></circle><circle cx="40" cy="40" r="5" fill="#302C29"></circle><path d="M39 40H41V80H39V40Z" fill="#302C29"></path></svg> 