<?xml version="1.0" encoding="UTF-8"?> <svg xmlns="http://www.w3.org/2000/svg" width="80" height="80" viewBox="0 0 80 80" fill="none"><rect width="80" height="80" fill="#0070BA"></rect><path d="M58.3357 51.6353H62.4216V31.7183H58.3357V51.6353ZM34.917 51.6353H38.9662V31.7183H34.917V51.6353ZM25.4329 31.3903C22.5902 31.3903 20.012 32.327 18.137 34.0534C16.1015 35.9223 15 38.5547 15 41.6772C15 44.8016 16.1015 47.465 18.137 49.3374C20.012 51.069 22.5902 52 25.4329 52C28.2661 52 30.588 50.9177 32.5094 48.6448L32.5824 48.5713L30.2478 45.7627L30.1752 45.8725C28.7274 47.343 27.0478 48.0973 25.3232 48.0973C21.7323 48.0973 19.1218 45.3967 19.1218 41.6772C19.1218 37.9665 21.7323 35.2935 25.3232 35.2935C27.0478 35.2935 28.7274 36.0451 30.1752 37.5188L30.2478 37.6281L32.5824 34.819L32.5094 34.7464C30.588 32.4787 28.2661 31.3903 25.4329 31.3903ZM50.055 25.5173L46.043 27.6696V31.7187H42.5776V35.4758H46.043V46.7112C46.043 49.7725 47.8534 51.8732 50.5658 51.9274C52.4019 51.9624 53.5029 51.4127 54.1772 51.0153L54.2135 50.9785L55.1987 47.1489L54.9796 47.2949C53.8899 47.9587 52.8623 48.2801 51.9519 48.2801C50.6349 48.2801 50.055 47.6045 50.055 46.0544V35.4758H54.1772V31.7187H50.055V25.5173Z" fill="white"></path><path d="M64.8124 28.2107C61.0828 22.9258 54.8902 19.7769 48.5912 19.7769C42.2953 19.7769 36.0996 22.9258 32.3801 28.2107L32.1895 28.4805H36.8832L36.9356 28.4267C40.1339 25.1292 44.2967 23.3853 48.5912 23.3853C52.8826 23.3853 57.0542 25.1292 60.2538 28.4267L60.3093 28.4805H65.0004L64.8124 28.2107Z" fill="#FF0000"></path></svg> 