<?xml version="1.0" encoding="UTF-8"?> <svg xmlns="http://www.w3.org/2000/svg" width="80" height="80" viewBox="0 0 80 80" fill="none"><rect width="80" height="80" fill="white"></rect><path d="M19.6102 5.61404C-5.66062 19.6491 -1.21482 47.0175 4.16693 58.9474L11.1862 53.3333C5.00892 32 13.7601 20.5848 18.9079 17.5439L40.6689 39.2982L41.3708 40.7018L12.5902 68.7719C19.808 77.7544 34.3168 80 40.6689 80C73.2402 77.7544 80.4471 51.9298 79.9791 39.2982C80.5406 7.85965 48.8585 0 32.9472 0L41.3708 8.42105C66.0801 11.7895 71.7895 30.4094 71.5555 39.2982C68.186 72.9825 41.1369 72.9825 28.0335 68.7719V67.3684L53.3043 40.7018V39.2982L19.6102 5.61404Z" fill="#0081C8"></path></svg> 