<?xml version="1.0" encoding="UTF-8"?> <svg xmlns="http://www.w3.org/2000/svg" width="80" height="80" viewBox="0 0 80 80" fill="none"><rect width="80" height="80" fill="#F0F0F0"></rect><path d="M48.0214 14.0012C46.9342 14.0012 43.7 14.0012 39.9414 18.5671C39.9895 18.625 40.0383 18.6822 40.0885 18.7422C41.0537 17.6126 42.2642 16.4572 43.5647 15.6164C44.7655 14.8419 46.1588 14.3249 47.3115 14.1986C48.1525 14.1058 50.9321 14.14 54.0973 14.14C54.114 14.14 54.123 14.1477 54.1307 14.1575L54.0484 14.0193C54.0436 14.0068 54.0317 14.0012 54.0192 14.0012H48.0214Z" fill="url(#paint0_radial_4478_2653)"></path><path d="M25.9809 14.0004C25.9697 14.0004 25.9564 14.0039 25.9488 14.0171L14.1778 34.417L10.4861 40.8144L10.0586 41.5561L10.0028 41.6517C9.99866 41.6587 9.99868 41.6726 10.0057 41.6866L21.2195 61.1201V61.0392C20.9761 60.5926 20.8017 60.2487 20.7083 60.0331C20.2397 58.9705 19.974 57.5004 20.0423 56.0721C20.2327 52.3093 22.2313 48.5968 23.2375 46.8553C25.5952 42.7701 30.153 34.8671 30.153 34.8671C30.153 34.8671 34.7128 26.9661 37.0712 22.8775C38.0761 21.1381 40.2908 17.5483 43.4539 15.504C44.6533 14.7281 46.0626 14.2257 47.2118 14.0988C48.0542 14.0039 50.8512 14.0004 54.0199 14.0004H25.9809Z" fill="url(#paint1_radial_4478_2653)"></path><path d="M10.6257 42.7527L10.1006 41.8415C10.2777 42.1506 10.452 42.4555 10.6257 42.7527ZM66.5071 47.5349C65.8209 48.4684 64.6829 49.4389 63.411 50.0892C60.0575 51.807 55.8477 51.9319 53.8394 51.9319H40.0015H26.1658C24.1581 51.9319 19.9413 51.807 16.5948 50.0892C15.3208 49.4389 14.1828 48.4684 13.4959 47.5349C13.0615 46.9418 11.9457 45.0391 10.6257 42.7527L13.4387 47.6318L24.0277 65.9832C24.0333 65.9923 24.0458 66 24.057 66H55.9474C55.9579 66 55.9704 65.9909 55.976 65.9812L69.8711 41.9029C68.3383 44.5577 66.9966 46.8706 66.5071 47.5349" fill="url(#paint2_radial_4478_2653)"></path><path d="M47.2118 14.0996C46.0626 14.2266 44.6533 14.7289 43.4539 15.5048C42.1297 16.3609 40.9728 17.4856 40 18.634C41.3521 20.2283 42.3444 21.8645 42.9288 22.8783C45.2872 26.9669 49.8491 34.8679 49.8491 34.8679C49.8491 34.8679 54.4069 42.7709 56.766 46.8561C57.7688 48.5976 59.7701 52.3101 59.9556 56.0729C60.0267 57.5012 59.7568 58.9713 59.2945 60.0339C58.9688 60.7763 57.676 63.0334 56.1754 65.6338L69.9979 41.6818C69.9979 41.6804 70 41.679 70 41.6741V41.6595C70 41.656 69.9979 41.6525 69.9958 41.6504L54.0492 14.0193C54.0443 14.0068 54.0325 14.0012 54.0199 14.0012C50.8512 14.0012 48.0542 14.0047 47.2118 14.0996" fill="url(#paint3_radial_4478_2653)"></path><defs><radialGradient id="paint0_radial_4478_2653" cx="0" cy="0" r="1" gradientUnits="userSpaceOnUse" gradientTransform="translate(59.2715 60.4175) scale(46.7102 46.7363)"><stop stop-color="#FEDF33"></stop><stop offset="0.440002" stop-color="#FBB809"></stop><stop offset="0.899994" stop-color="#EE960D"></stop><stop offset="1" stop-color="#E17A10"></stop></radialGradient><radialGradient id="paint1_radial_4478_2653" cx="0" cy="0" r="1" gradientUnits="userSpaceOnUse" gradientTransform="translate(47.2194 14.0241) scale(46.1878 46.2134)"><stop stop-color="#FEDF33"></stop><stop offset="0.440002" stop-color="#FBB809"></stop><stop offset="0.899994" stop-color="#EE960D"></stop><stop offset="1" stop-color="#E17A10"></stop></radialGradient><radialGradient id="paint2_radial_4478_2653" cx="0" cy="0" r="1" gradientUnits="userSpaceOnUse" gradientTransform="translate(13.4405 47.6138) scale(46.3196 46.3452)"><stop stop-color="#FEDF33"></stop><stop offset="0.440002" stop-color="#FBB809"></stop><stop offset="0.899994" stop-color="#EE960D"></stop><stop offset="1" stop-color="#E17A10"></stop></radialGradient><radialGradient id="paint3_radial_4478_2653" cx="0" cy="0" r="1" gradientUnits="userSpaceOnUse" gradientTransform="translate(59.2668 60.1456) scale(46.4148 46.4405)"><stop stop-color="#FEDF33"></stop><stop offset="0.440002" stop-color="#FBB809"></stop><stop offset="0.899994" stop-color="#EE960D"></stop><stop offset="1" stop-color="#D87301"></stop></radialGradient></defs></svg> 