<?xml version="1.0" encoding="UTF-8"?> <svg xmlns="http://www.w3.org/2000/svg" width="80" height="80" viewBox="0 0 80 80" fill="none"><rect width="80" height="80" fill="#F5F8FA"></rect><path d="M35.0747 34.75L32.542 37.25V39.75L38.8739 48.5H41.4066L47.7385 39.75V37.25L45.2057 34.75H35.0747Z" fill="#F7B01A"></path><path d="M52.5238 35.375L67.7203 26C67.9314 33.9167 68.2269 51.125 67.7203 51.625C67.0873 61 49.9911 67.25 42.3928 71V54.125L52.5238 35.375Z" fill="#7D7FBC"></path><path d="M36.3399 11L14.8115 22.875L28.7416 32.25H51.5364L65.4665 22.875L44.5713 11H36.3399Z" fill="#7D7FBC"></path><path d="M27.4762 35.375L12.2797 26C12.0686 33.9167 11.7731 51.125 12.2797 51.625C12.9127 61 30.0089 67.25 37.6072 71V54.125L27.4762 35.375Z" fill="#7D7FBC"></path></svg> 