<?xml version="1.0" encoding="UTF-8"?> <svg xmlns="http://www.w3.org/2000/svg" width="80" height="80" viewBox="0 0 80 80" fill="none"><rect width="80" height="80" fill="white"></rect><path d="M19.6162 35.1385H29.6801V23.8809C25.0746 26.2681 21.4926 30.3621 19.6162 35.1385Z" fill="#6A2538"></path><path d="M39.915 66.8656C48.1027 66.8656 55.2668 62.4309 59.0195 55.7783H20.8105C24.5631 62.4309 31.7274 66.8656 39.915 66.8656Z" fill="#6A2538"></path><path d="M0 0V80H80V0H0ZM8.69936 43.3267C8.69936 29.6799 17.3987 18.0811 29.6801 13.9873V4.26443H38.209V43.8379H8.86994C8.86994 43.4971 8.69936 43.3267 8.69936 43.3267ZM39.9147 76.0774C23.5394 76.0774 10.0639 63.4548 8.86994 47.2494H70.9595C69.7654 63.4548 56.29 76.0774 39.9147 76.0774ZM70.9595 43.6675H41.6204V4.26443H50.1492V13.9873C62.2601 18.2517 71.13 29.8513 71.13 43.3267C70.9595 43.3267 70.9595 43.4971 70.9595 43.6675Z" fill="#6A2538"></path><path d="M49.9785 23.8809V35.1385H60.0425C58.1662 30.3621 54.5841 26.2681 49.9785 23.8809Z" fill="#6A2538"></path></svg> 