<?xml version="1.0" encoding="UTF-8"?> <svg xmlns="http://www.w3.org/2000/svg" width="80" height="80" viewBox="0 0 80 80" fill="none"><rect width="80" height="80" fill="#F3F6FA"></rect><path fill-rule="evenodd" clip-rule="evenodd" d="M34.123 32.0538H42.0729V14.667H34.123V32.0538ZM36.1937 30.1247H40.0025V16.6216H36.1937V30.1247Z" fill="#001934"></path><path fill-rule="evenodd" clip-rule="evenodd" d="M24 34.667H57.3333V36.0004H24V34.667Z" fill="#001934"></path><path fill-rule="evenodd" clip-rule="evenodd" d="M24 48.0002H26.045V45.7111H37.727V37.8408H24V48.0002ZM26.0451 43.7051H35.6821V39.8728H26.0451V43.7051Z" fill="#001934"></path><path fill-rule="evenodd" clip-rule="evenodd" d="M49.3585 16.6214V32.0535H51.4035V20.4537L55.1867 16.6214V32.0535H57.2573V14.6924H54.3432L51.4035 17.6759V14.6924H48.5149L43.5303 19.7336V32.0535H45.5753V20.4537L49.3585 16.6214Z" fill="#001934"></path><path fill-rule="evenodd" clip-rule="evenodd" d="M39.8994 45.7111H47.4914V48.0002H49.5875V45.7111H57.2307V37.8408H39.8994V45.7111ZM49.6131 43.7051H55.2368V39.8728H49.6131V43.7051ZM41.9186 43.7051H47.5168V39.8728H41.9186V43.7051Z" fill="#001934"></path><path fill-rule="evenodd" clip-rule="evenodd" d="M29.8793 32.0538H31.9499V14.667H29.0358L24 19.7082V32.0538H29.8793ZM26.096 20.4545L29.9048 16.5964V30.1252H26.096V20.4545Z" fill="#001934"></path><path fill-rule="evenodd" clip-rule="evenodd" d="M52.8 64.8866H51.2843V57.333H52.8V60.907L55.3011 57.333H57.0948L54.4927 60.8816L57.3474 64.8866H55.5032L52.8 60.9323V64.8866ZM47.5199 64.8866H46.0041V61.7181H43.402V64.8866H41.8862V57.333H43.402V60.4254H46.0041V57.333H47.5199V64.8866ZM36.5809 62.301L35.6462 59.5635L34.6609 62.301H36.5809ZM39.0061 64.8866H37.4398L36.9851 63.5431H34.2314L33.7767 64.8866H32.2103L35.0145 57.333H36.2019L39.0061 64.8866ZM28.0926 62.5292C28.0926 61.9209 27.6884 61.4899 27.0063 61.4899H25.4905V63.5685H27.0063C27.6884 63.5685 28.0926 63.1375 28.0926 62.5292ZM29.5832 62.5293C29.5832 63.8981 28.6484 64.8867 27.0821 64.8867H24V57.3331H29.1032V58.6511H25.4905V60.172H27.0821C28.6484 60.172 29.5832 61.1352 29.5832 62.5293Z" fill="#001934"></path><path fill-rule="evenodd" clip-rule="evenodd" d="M57.3333 52V53.3333H24V52H57.3333Z" fill="#8BC540"></path></svg> 