<?xml version="1.0" encoding="UTF-8"?> <svg xmlns="http://www.w3.org/2000/svg" width="80" height="80" viewBox="0 0 80 80" fill="none"><rect width="80" height="80" fill="#F5F8FA"></rect><path d="M28.3349 48.5847C28.3349 49.4922 28.2484 51.1667 28.0756 53.6082C27.9243 56.0713 27.8163 57.4217 27.7515 57.6594H24.8022C24.7806 57.0976 24.6186 55.9201 24.3161 54.1268C24.0136 52.355 23.7759 51.3395 23.6031 51.0803H9.73179C9.49412 51.3395 9.19163 52.2578 8.82432 53.8351C8.45702 55.434 8.18694 56.7303 8.01409 57.7242H5C5 57.2489 5.0108 56.8168 5.03241 56.4278C5.09723 52.5171 5.18365 49.9027 5.29169 48.5847H7.59276C8.52183 47.2451 9.39689 45.1169 10.2179 42.2001C11.039 39.2832 11.4495 35.5453 11.4495 30.9864V29.7224L8.04649 29.2687V27H28.3349V29.2687L25.2235 29.7224V48.5847H28.3349ZM14.0423 31.1808C14.0639 35.3725 13.7722 38.9483 13.1672 41.9084C12.5622 44.8684 11.8924 47.0939 11.1578 48.5847H19.7139V29.3983H14.0423V31.1808Z" fill="#22AF46"></path><path d="M43.938 38.0516C45.1696 38.3325 46.2391 39.0996 47.1466 40.3527C48.054 41.6059 49.0047 43.2588 49.9986 45.3114C50.4955 46.3485 50.8953 47.1263 51.1977 47.6449C51.5218 48.1634 51.8243 48.4767 52.1052 48.5847L53.272 48.9412V51.0803H47.4058C46.8657 51.0803 46.3579 50.6698 45.8826 49.8487C45.4288 49.0277 44.8671 47.7745 44.1973 46.0892C43.3762 44.0798 42.6524 42.5566 42.0258 41.5195C41.3993 40.4608 40.6755 39.9314 39.8544 39.9314H38.6228V48.5847L41.5397 48.9737V51.0803H30.7149V48.9412L33.1132 48.5847V29.7224L30.7149 29.2687V27H41.0212V29.2687L38.6228 29.7224V37.9544H40.7295L46.1095 29.69L43.8408 29.2687V27H52.7534V29.2687L49.9986 29.7224L43.938 38.0516Z" fill="#22AF46"></path><path d="M62.3927 37.0794C62.5656 37.0578 63.1381 37.0253 64.1104 36.9821C65.0827 36.9173 65.8713 36.8849 66.4763 36.8849C69.3499 36.8849 71.489 37.4467 72.8934 38.5702C74.2978 39.6937 75 41.4114 75 43.7233C75 46.1216 74.2114 47.9906 72.6341 49.3302C71.0784 50.6698 69.0258 51.3395 66.4763 51.3395C65.9577 51.3395 65.1151 51.3071 63.9484 51.2423C61.3556 51.1343 59.9836 51.0803 59.8323 51.0803H54.0959V48.9412L56.8831 48.6171V29.7224L54.0959 29.2687V27H72.6341L72.9906 33.644H69.8469L68.8422 29.6252L62.3927 29.3335V37.0794ZM62.3927 48.7792C63.0625 48.9737 63.8079 49.0709 64.629 49.0709C66.2926 49.0709 67.4918 48.6171 68.2264 47.7097C68.961 46.8022 69.3283 45.5707 69.3283 44.015C69.3283 42.3297 68.961 41.1089 68.2264 40.3527C67.5134 39.5749 66.4007 39.186 64.8882 39.186C64.4777 39.186 64.024 39.1968 63.527 39.2184C63.0517 39.24 62.6736 39.2616 62.3927 39.2832V48.7792Z" fill="#22AF46"></path></svg> 