<?xml version="1.0" encoding="UTF-8"?> <svg xmlns="http://www.w3.org/2000/svg" width="80" height="80" viewBox="0 0 80 80" fill="none"><rect width="80" height="80" fill="white"></rect><rect y="30.7744" width="80" height="34.5161" fill="#75A4C7"></rect><rect y="14" width="80" height="6.45161" fill="#75A4C7"></rect><path d="M20.3226 49.3222C13.871 36.29 4.08602 34.3222 0 34.9674V41.9029C13.9355 41.9029 17.4194 57.4943 17.4194 65.29H23.2258C23.2258 46.8384 34.1935 42.0105 39.6774 41.9029C53.6129 42.9352 56.5591 57.9244 56.2903 65.29H62.0968C62.871 45.5481 74.4086 41.4728 80 41.9029V34.9675C68.7742 34.3222 61.5054 44.2684 59.3548 49.3222C54.3226 37.3221 44.1398 34.7523 39.6774 34.9674C28.9677 34.9674 22.3118 44.5373 20.3226 49.3222Z" fill="white"></path></svg> 