<?xml version="1.0" encoding="UTF-8"?> <svg xmlns="http://www.w3.org/2000/svg" width="80" height="80" viewBox="0 0 80 80" fill="none"><rect width="80" height="80" fill="#F5F8FA"></rect><rect width="80" height="80" fill="#10923C"></rect><rect x="16" y="16" width="48" height="48" fill="white"></rect><path d="M0 29.3333L5.33333 32V48L0 50.6667V29.3333Z" fill="white"></path><path d="M80 29.3333L74.6667 32V48L80 50.6667V29.3333Z" fill="white"></path><path d="M50.6667 9.32509e-07L48 5.33333L32 5.33333L29.3333 0L50.6667 9.32509e-07Z" fill="white"></path><path d="M50.6667 80L48 74.6667H32L29.3333 80H50.6667Z" fill="white"></path><path d="M10.666 10.666H18.666L21.3327 21.3327L10.666 18.666V10.666Z" fill="white"></path><path d="M69.3327 10.666H61.3327L58.666 21.3327L69.3327 18.666V10.666Z" fill="white"></path><path d="M10.666 69.334H18.666L21.3327 58.6673L10.666 61.334V69.334Z" fill="white"></path><path d="M69.3327 69.334H61.3327L58.666 58.6673L69.3327 61.334V69.334Z" fill="white"></path></svg> 