<?xml version="1.0" encoding="UTF-8"?> <svg xmlns="http://www.w3.org/2000/svg" width="80" height="80" viewBox="0 0 80 80" fill="none"><rect width="80" height="80" fill="#991B2C"></rect><path fill-rule="evenodd" clip-rule="evenodd" d="M34.4519 68L33.5377 67.9781L32.6472 67.9345L31.7768 67.8669L30.9085 67.7541L30.0635 67.6429L29.2167 67.4852L28.392 67.2829L27.5905 67.0808L26.7878 66.8553L26.0082 66.5861L25.229 66.2948L24.4714 66.0021L23.7375 65.6672L23.0236 65.3069L22.3116 64.9247L21.6199 64.5206L20.9299 64.0711L20.2597 63.6236L19.5936 63.1287L18.9706 62.612L18.3462 62.0732L17.7434 61.5346L17.1861 60.9507L16.6308 60.3664L16.0954 59.7385L15.5819 59.1087L15.0937 58.4573L14.6256 57.784L14.2016 57.0875L13.7793 56.3921L13.377 55.6512L13.0214 54.9106L13 54.8873L13.0433 54.8432L21.398 48.2416L21.598 48.7583L21.7968 49.2968L22.0425 49.7917L22.2882 50.3071L22.556 50.778L22.8437 51.2732L23.1567 51.7207L23.4697 52.1718L19.2599 55.5619L19.5936 56.0099L19.9504 56.4594L20.3072 56.9089L20.684 57.3128L21.0862 57.7402L21.487 58.1208L21.9115 58.5024L22.3537 58.8614L22.7998 59.2217L23.246 59.5582L23.7141 59.8949L24.18 60.1881L24.6719 60.4771L25.1836 60.7721L25.6752 61.0397L26.1868 61.2869L26.7201 61.5127L27.2337 61.7364L27.7688 61.9388L28.3243 62.1406L28.8598 62.3204L29.4171 62.4768L29.9743 62.612L30.5533 62.7465L31.1106 62.8593L31.6891 62.972L32.2687 63.0396L32.8477 63.1067L33.4285 63.1741L34.0057 63.196L34.5848 63.2193H35.7663L36.3691 63.196L36.9466 63.1522L37.5491 63.1067L38.1281 63.0396L38.7291 62.9483L39.3081 62.8593L39.8871 62.7465L40.4661 62.6353L41.0452 62.5008L41.6025 62.3424L42.1813 62.186L42.7387 62.0059L43.2955 61.8035L43.8748 61.6017L44.4102 61.3999L44.9655 61.1744L45.5009 60.9285L46.0564 60.6807L46.5916 60.4119L47.1051 60.1406L47.6405 59.8511L48.1522 59.5582L48.6639 59.2452L49.1755 58.9288L49.6671 58.5917L50.1569 58.2555L50.6466 57.9185L51.1366 57.5383L51.6047 57.1781L52.0725 56.7977L52.5171 56.4156L52.9648 56.0099L53.4089 55.6057L53.8534 55.1802L54.2777 54.7529L54.6799 54.3266L55.1042 53.8773L55.4811 53.4278L55.8819 52.9563L56.2604 52.5086L56.6173 52.0138L56.9961 51.5424L57.3297 51.0477L57.6646 50.5543L57.9975 50.0374L58.3108 49.5424L58.6222 49.0279L58.9098 48.4891L59.2012 47.9737L59.4672 47.4315L59.7348 46.8951L59.9807 46.3328L60.2245 45.7942L60.4488 45.2316L60.6472 44.6714L60.849 44.0874L61.0276 43.5266L61.2059 42.9426L61.3612 42.3581L61.5176 41.7742L61.6288 41.192L61.7632 40.5861L61.8507 40.0018L62.007 38.9683L62.0981 37.9343L62.1418 36.9028V35.8912L62.0981 34.8812L62.007 33.8931L61.8507 32.9285L61.674 31.9623L61.4502 30.9961L61.1623 30.0751L60.849 29.1562L60.494 28.2574L60.0919 27.3802L59.6474 26.5503L59.1777 25.7207L58.6676 24.913L58.1103 24.1486L57.508 23.4079L56.8851 22.711L56.2369 22.0376L55.5469 21.3863L54.8131 20.7802L54.0539 20.2194L53.2522 19.6793L52.4497 19.208L51.5828 18.7585L50.7124 18.3562L49.8 17.996L48.8857 17.6812L47.9063 17.412L46.9265 17.2097L45.923 17.053L45.5009 16.9859L45.0767 16.9405L44.6524 16.8732L44.2319 16.8515L43.7855 16.8058L43.3393 16.7839H41.8265L41.2237 16.8058L40.599 16.8515L39.9745 16.9186L39.3517 16.9859L38.7507 17.0752L38.1281 17.1642L37.5253 17.3008L36.9244 17.4339L36.3218 17.5919L35.7206 17.7485L35.1186 17.9286L34.5412 18.1085L33.9384 18.3328L33.3612 18.5567L32.7801 18.7818L32.2011 19.0295L31.6001 19.3206L31.0214 19.6122L30.4421 19.9045L29.8612 20.2194L29.3059 20.5564L28.7486 20.8927L28.1915 21.2517L27.6344 21.6333L27.101 22.0155L26.5653 22.3977L26.0537 22.824L25.5402 23.2276L25.0288 23.6536L24.5372 24.0812L24.071 24.5305L27.2772 27.8749L26.8113 28.3245L26.3651 28.774L25.9409 29.2455L25.5185 29.717L25.1178 30.1881L24.7374 30.7051L24.3605 31.1979L24.0036 31.7386L17.7434 25.0913L17.6996 25.0456L17.7194 25.0236L18.3222 24.283L18.9469 23.5643L19.5936 22.8454L20.2397 22.1721L20.908 21.4989L21.598 20.8475L22.3116 20.2194L23.0236 19.6122L23.7579 19.006L24.5171 18.4455L25.2945 17.8848L26.074 17.3681L26.8551 16.8515L27.6798 16.3566L28.5047 15.9088L29.3276 15.4574L30.1308 15.0534L30.9537 14.673L31.7768 14.3349L32.6256 13.9979L33.4719 13.6849L34.3169 13.3938L35.1857 13.1463L36.0542 12.9223L36.9244 12.697L37.8148 12.5187L38.7072 12.3603L39.5976 12.2477L40.4899 12.1365L41.3783 12.0674L42.2925 12.0235L43.1829 12L43.7181 12.0235H44.2517L44.789 12.0674L45.3007 12.0914L45.8361 12.1365L46.3475 12.2039L46.8594 12.2691L47.3727 12.3384L47.9063 12.4276L48.4396 12.5389L48.975 12.6513L49.4886 12.7646L50.0239 12.8991L50.5354 13.0555L51.0254 13.2139L51.5371 13.3703L52.0268 13.5504L52.5171 13.7308L53.0065 13.9305L53.4762 14.1564L53.9443 14.3581L54.4102 14.5837L54.8564 14.8296L55.3026 15.0774L55.7469 15.323L56.193 15.594L56.6173 15.8632L57.0399 16.1547L57.4641 16.4458L57.8646 16.7387L58.2653 17.053L58.6441 17.3681L59.0244 17.6812L59.4014 18.0192L59.7802 18.3784L60.1371 18.7131L60.494 19.0749L60.8271 19.4336L61.1623 19.814L61.4956 20.1962L61.9177 20.7131L62.3203 21.2517L62.7211 21.7904L63.0779 22.3525L63.4347 22.8911L63.7679 23.4753L64.1012 24.0593L64.391 24.6433L64.6821 25.2259L64.9479 25.8319L65.1938 26.4391L65.4159 27.0453L65.6383 27.6512L65.838 28.2793L66.0185 28.909L66.1738 29.5363L66.3283 30.1881L66.4646 30.8163L66.574 31.4689L66.6651 32.1207L66.7523 32.7703L66.8196 33.4221L66.8651 34.0732L66.9076 34.7245V36.701L66.8651 37.3743L66.8196 38.0254L66.7523 38.6986L66.6651 39.35L66.574 40.0018L66.4646 40.7205L66.3083 41.4376L66.1516 42.1563L65.9952 42.8534L65.7947 43.5721L65.5942 44.2672L65.3705 44.9405L65.1262 45.6375L64.8824 46.3108L64.6148 46.9841L64.325 47.6574L64.0357 48.3087L63.7242 48.96L63.3875 49.6119L63.0544 50.2398L62.6991 50.8911L62.3203 51.497L61.9418 52.1264L61.5411 52.7323L61.1388 53.3166L60.7145 53.9209L60.2937 54.5064L59.8476 55.0669L59.3795 55.6293L58.9098 56.1898L58.4436 56.7286L57.9539 57.2671L57.4401 57.784L56.9269 58.301L56.4173 58.7941L55.8819 59.289L55.3464 59.7837L54.789 60.2533L54.2319 60.7026L53.6532 61.1522L53.0977 61.5798L52.4965 62.0059L51.9156 62.4115L51.3149 62.8138L50.6904 63.196L50.0898 63.5782L49.4666 63.9366L48.8205 64.275L48.1958 64.6117L47.5494 64.9247L46.9033 65.2176L46.2366 65.5087L45.5902 65.7779L44.9216 66.0476L44.2319 66.2948L43.5633 66.5203L42.8953 66.7208L42.2032 66.9226L41.5132 67.1027L40.823 67.2594L40.1093 67.4178L39.419 67.5523L38.7072 67.6648L38.0153 67.7541L37.3034 67.8434L36.5894 67.9107L35.8775 67.9561L35.1653 67.9781L34.4519 68Z" fill="white"></path><path fill-rule="evenodd" clip-rule="evenodd" d="M36.992 51.5857L37.6585 51.5638L38.3064 51.5199L38.9513 51.4293L39.5976 51.2959L40.2221 51.1377L40.8447 50.9578L41.4696 50.7339L42.0704 50.4645L42.6932 50.1734L43.2955 49.857L43.8748 49.4983L44.4522 49.1179L45.0093 48.7122L45.5463 48.2862L46.0564 47.8134L46.548 47.3417L46.6824 47.1634L46.8829 46.9177L46.9921 46.7812L47.0832 46.6687L30.5076 46.6924L30.3312 46.4669L30.1742 46.2191L30.0179 45.9735L29.8612 45.7262L29.6174 45.1875L29.3717 44.6489L29.1948 44.0649L29.0381 43.4809L28.9272 42.8747L28.8598 42.2688H54.5234L54.5014 42.3359L54.2558 43.0765L53.9882 43.8172L53.7005 44.5359L53.3634 45.231L53.0066 45.9281L52.6296 46.6013L52.2072 47.2527L51.7833 47.9045L51.3149 48.5319L50.8252 49.138L50.3336 49.7223L49.8 50.2846L49.2427 50.8466L48.6874 51.3619L48.0867 51.8789L47.4839 52.3498L46.8829 52.821L46.2366 53.247L45.5902 53.6528L44.9436 54.0331L44.2755 54.3931L43.5853 54.7082L42.8953 55.0228L42.1813 55.2922L41.4696 55.5381L40.7322 55.7417L40.0218 55.92L39.2627 56.0783L38.5286 56.1892L37.771 56.2785L37.0118 56.3239L36.2545 56.3477H35.6319L35.031 56.3025L34.43 56.2346L33.8287 56.1673L33.2043 56.0547L32.5801 55.8984L31.9773 55.7417L31.398 55.5613L30.8209 55.3376L30.2635 55.1121L29.708 54.8426L29.1712 54.55L28.6593 54.2587L28.1711 53.9204L27.7018 53.5835L27.2337 53.2267L26.7878 52.8451L26.3652 52.4389L25.9644 52.0133L25.5639 51.5638L25.2071 51.1163L24.8502 50.6428L24.5372 50.1499L24.2276 49.6332L23.9365 49.1179L23.6922 48.5778L23.4463 48.039L23.2241 47.4767L23.0455 46.8945L22.8672 46.3102L22.7344 45.7025L22.6234 45.0963L22.5104 44.4685L22.443 43.8406L22.4213 43.1893L22.3994 42.538V41.9099L22.443 41.2807L22.5104 40.6289L22.5994 40.0013L22.7563 39.1458L22.9343 38.3161L23.1805 37.5081L23.4463 36.7004L23.7579 35.9139L24.0944 35.15L24.4714 34.3857L24.8734 33.6453L25.3183 32.9279L25.7864 32.2095L26.2759 31.5341L26.8113 30.8624L27.3449 30.233L27.9239 29.6036L28.5246 29.0212L29.1712 28.4372L29.8179 27.8983L30.4857 27.3797L31.1777 26.9103L31.8677 26.4386L32.6021 26.0112L33.3375 25.629L34.0951 25.2688L34.874 24.9338L35.6554 24.6427L36.4347 24.3937L37.2358 24.1699L38.0608 23.9895L38.8857 23.8329L39.7088 23.7436L40.5319 23.6763L41.3564 23.6531L42.114 23.6763L42.8499 23.7204L43.5853 23.8097L44.299 23.9222L44.989 24.0806L45.6554 24.2592L46.3039 24.4628L46.9485 24.7085L47.5732 24.9776L48.1721 25.2925L48.7532 25.6076L49.3103 25.9676L49.8674 26.3482L50.379 26.7537L50.8688 27.1797L51.3371 27.6506L51.8068 28.1221L52.2273 28.6388L52.6296 29.1556L53.0066 29.7164L53.3634 30.2785L53.6767 30.8843L53.9882 31.4903L54.232 32.1202L54.4782 32.7475L54.6799 33.4216L54.8564 34.0948L54.9896 34.7679L55.1042 35.4865L55.1901 36.2052L55.2352 36.9242V37.7319H29.5736L29.8414 37.1041L30.1529 36.4966L30.4857 35.9139L30.8647 35.3518L31.2451 34.8133L31.6892 34.2964L32.134 33.8032L32.6021 33.3083H49.1756L49.0205 33.0172L48.8641 32.7475L48.6874 32.4787L48.5091 32.2309L48.3305 31.9836L48.1301 31.738L47.9298 31.4903L47.7061 31.2665L47.2597 30.8389L46.7921 30.4348L46.2802 30.0746L45.7685 29.7381L45.1895 29.4467L44.5867 29.1775L43.986 28.9538L43.3394 28.7515L42.6932 28.6155L42.0267 28.5043L41.335 28.4372L40.6445 28.415L40.0417 28.4372L39.4629 28.4805L38.862 28.5481L38.2829 28.6609L37.7057 28.7734L37.1484 28.9301L36.5895 29.1324L36.0321 29.3342L35.475 29.5598L34.9417 29.8289L34.43 30.0985L33.9165 30.3894L33.4046 30.7264L32.9151 31.0647L32.447 31.4232L31.9773 31.8271L31.5346 32.2095L31.1107 32.6371L30.7081 33.0845L30.3074 33.5341L29.9286 34.0055L29.5736 34.5003L29.2386 34.9932L28.9272 35.5098L28.6377 36.0269L28.392 36.5655L28.1479 37.126L27.9239 37.688L27.7234 38.2506L27.5686 38.8328L27.4342 39.417L27.323 40.0013L27.2574 40.4722L27.212 40.9204L27.1882 41.37V42.2688L27.212 42.7398L27.2574 43.1658L27.323 43.6153L27.412 44.0408L27.5232 44.4685L27.6344 44.8958L27.7689 45.3002L27.9239 45.7025L28.1025 46.0847L28.2808 46.4669L28.4813 46.8491L28.6812 47.1853L28.9272 47.5456L29.1712 47.8826L29.4172 48.1953L29.7957 48.623L30.1742 49.0054L30.575 49.3636L30.9979 49.6787L31.4221 49.993L31.8896 50.2608L32.3342 50.5083L32.8258 50.7339L33.3155 50.9359L33.8053 51.1163L34.3169 51.2489L34.8524 51.3619L35.3659 51.4745L35.8992 51.5199L36.455 51.5638L36.992 51.5857" fill="white"></path></svg> 