<?xml version="1.0" encoding="UTF-8"?> <svg xmlns="http://www.w3.org/2000/svg" width="80" height="80" viewBox="0 0 80 80" fill="none"><rect width="80" height="80" fill="#F5F8FA"></rect><path fill-rule="evenodd" clip-rule="evenodd" d="M43.8019 23.7857C43.0522 22.5 41.9813 21.4286 40.6961 20.6786C41.5529 20.6786 42.4096 20.6786 43.2664 20.7857C43.4806 21.75 43.5877 22.7143 43.8019 23.7857C43.8019 23.7857 43.8019 23.6786 43.8019 23.7857ZM70.1473 25.6071C70.1473 25.6071 70.1473 25.6071 69.2905 25.0714C68.9692 24.8571 68.5408 24.6429 68.2195 24.4286C69.5047 23.4643 71.004 22.5 72.6104 21.8571C71.6466 23.0357 70.8969 24.3214 70.1473 25.6071ZM31.9143 30C34.913 29.3571 37.4833 29.1429 40.4819 29.3571C40.6961 29.4643 40.589 29.6786 40.3748 29.7857C39.3039 30.4286 34.6988 31.1786 31.9143 30ZM4.92637 46.9286C4.06961 45.6429 3.53414 44.25 3.10576 42.8571C3.10576 42.5357 2.99866 42.3214 2.99866 42C2.89157 41.25 2.89157 40.5 2.89157 39.6429C2.89157 39.1071 2.99866 38.6786 3.10576 38.25C3.42704 36.9643 3.96252 35.7857 4.60509 34.6071C4.81928 34.2857 5.03347 33.9643 5.24766 33.75C5.99732 32.7857 6.74699 31.9286 7.60375 31.0714C8.46051 30.3214 9.21017 29.6786 10.174 28.9286C12.423 27.4286 14.7791 26.1429 17.2423 25.0714C17.6707 24.8571 18.0991 24.75 18.5274 24.5357C20.7764 23.6786 23.0254 23.0357 25.3815 22.5C26.3454 22.2857 27.2021 22.0714 28.166 21.9643C24.4177 24.4286 25.0602 27.6429 28.8086 29.5714C23.4538 30.4286 15.1004 34.2857 14.1365 40.9286C9.74565 41.25 5.56894 42.5357 4.92637 46.9286ZM40.3748 51.2143C36.5194 48.5357 32.3427 46.5 32.7711 41.25C33.1995 38.25 35.9839 37.1786 39.1968 37.0714C42.6238 37.2857 44.9799 37.9286 47.0147 40.5C47.1218 40.8214 47.336 41.0357 47.336 41.3571C48.2999 45.4286 43.909 49.0714 40.3748 51.2143ZM59.5448 51.4286C59.1165 48.8571 58.1526 45.1071 54.2972 41.7857C59.1165 35.25 60.6158 32.1429 64.6854 27.4286C65.0067 27.1071 65.4351 26.6786 65.7564 26.3571C66.7202 26.8929 67.6841 27.4286 68.6479 28.0714C65.1138 35.6786 62.1151 43.5 59.5448 51.4286ZM43.4806 52.6071C42.838 52.3929 42.1954 52.0714 41.5529 51.8571C44.9799 49.5 49.6921 45.5357 48.7282 41.1429C48.2999 39.75 47.7644 38.6786 46.4792 37.8214C48.1928 38.1429 51.6198 40.6071 53.1191 41.6786C50.3347 45 47.0147 49.9286 43.4806 52.6071ZM26.5596 53.6786C26.1312 53.5714 25.7028 53.4643 25.2744 53.4643C19.0629 51.9643 17.1352 48.4286 17.8849 42.9643C23.0254 43.2857 33.0924 46.7143 27.2021 53.1429C26.9879 53.3571 26.9879 53.3571 26.6667 53.6786H26.5596ZM27.6305 53.6786C30.415 51.75 31.0576 49.2857 29.5582 46.6071C27.2021 43.0714 22.7041 42 18.4203 41.1429C19.17 36.1071 24.9531 32.0357 29.9866 30.4286C33.9491 31.6071 38.1258 31.9286 41.8742 30.2143C42.6238 29.8929 42.6238 29.3571 41.9813 28.8214C39.6252 27.6429 33.4137 28.6071 30.6292 29.1429H30.5221C30.3079 28.9286 30.0937 28.8214 29.8795 28.6071C27.7376 26.5714 27.095 23.6786 29.6653 21.75C29.8795 21.6429 30.0937 21.4286 30.415 21.3214C32.5569 21 34.8059 20.7857 36.9478 20.6786C37.0549 20.6786 37.162 20.6786 37.2691 20.6786C39.3039 21.2143 41.1245 22.1786 42.5167 23.6786C43.5877 25.0714 44.2303 26.5714 44.9799 28.0714C45.1941 28.1786 45.5154 28.2857 45.7296 28.3929C44.8728 25.9286 44.3373 23.4643 44.1232 20.8929C43.5877 20.6786 48.9424 21.2143 49.585 21.3214C50.3347 21.4286 51.1914 21.5357 51.9411 21.75C54.1901 22.1786 56.5462 22.7143 58.7952 23.3571C60.6158 24 62.4364 24.6429 64.1499 25.5C64.4712 25.6071 64.7925 25.8214 65.1138 25.9286C61.2584 29.5714 57.7242 35.3571 53.5475 41.0357C51.7269 39.6429 49.6921 38.3571 47.5502 37.3929C46.158 36.75 44.6586 36.3214 43.0522 36C37.4833 34.6071 27.9518 35.3571 29.5582 42.5357C30.9505 46.9286 35.1272 49.6071 39.3039 51.75C36.091 53.1429 31.3788 54.2143 27.6305 53.6786ZM44.6586 53.0357C46.8005 51.4286 53.4404 42.75 53.8688 42.3214C58.0455 46.1786 59.3307 51.6429 58.6881 55.3929C52.905 55.6071 48.0857 54.3214 44.6586 53.0357ZM63.2932 55.9286C65.0067 46.8214 67.8983 38.4643 71.3253 29.7857C72.075 30.4286 72.7175 31.0714 73.4672 31.8214C74.0027 32.4643 74.0027 32.4643 74.6452 33.2143C75.2878 34.0714 75.2878 34.0714 75.502 34.5C75.9304 35.3571 76.3588 36.2143 76.68 37.0714C77.1084 38.4643 77.3226 39.8571 77.2155 41.3571C77.1084 42.2143 76.8942 43.0714 76.68 43.8214C76.573 44.0357 76.4659 44.3571 76.3588 44.5714C75.7162 45.9643 74.9665 47.1429 74.0027 48.4286C73.5743 48.8571 73.253 49.2857 72.8246 49.7143C71.7537 50.7857 70.5756 51.75 69.2905 52.6071C68.0054 53.4643 66.6131 54.2143 65.2209 54.9643C64.0428 55.6071 64.0428 55.6071 63.2932 55.9286ZM27.7376 59.25C25.5957 58.8214 23.5609 58.2857 21.5261 57.75C18.8487 56.8929 16.3855 55.9286 13.9224 54.6429C12.8514 54.1071 11.8876 53.4643 10.9237 52.8214C9.63855 51.9643 8.35341 51 7.28246 49.8214C6.21151 46.8214 7.92503 42.75 13.9224 42.6429C13.494 47.1429 15.6359 51 19.8126 53.3571C26.0241 56.4643 33.9491 55.5 39.9465 52.6071C40.4819 52.3929 40.4819 52.3929 40.3748 52.3929C40.6961 52.5 42.6238 53.25 42.9451 53.25C39.0897 56.25 33.0924 58.9286 27.7376 59.25ZM32.0214 59.8929C36.6265 58.9286 40.589 56.7857 43.909 53.6786C48.0857 55.2857 53.6546 56.5714 58.3668 56.0357C58.1526 56.6786 57.9384 57.3214 57.7242 57.9643C57.51 58.0714 56.5462 58.2857 55.5823 58.5C47.8715 60.3214 40.0535 60.75 32.0214 59.8929ZM38.34 63C33.1995 62.8929 28.2731 62.1429 23.3467 60.9643C22.7041 60.75 22.0616 60.6429 21.419 60.4286C20.241 60.2143 20.241 60.2143 19.4913 60.1071C18.8487 60 18.8487 60 17.6707 59.6786C16.921 59.4643 16.1714 59.25 15.5288 59.0357C14.1365 58.5 12.8514 57.9643 11.5663 57.2143C11.245 57 11.0308 56.8929 10.7095 56.6786C9.85274 56.1429 9.10308 55.5 8.35341 54.8571C7.81794 54.3214 7.28246 53.7857 6.85408 53.1429C5.46185 51.9643 4.2838 50.7857 3.21285 49.3929C2.99866 49.0714 2.78447 48.8571 2.57028 48.6429C2.249 48.2143 2.249 48.2143 1.71352 47.25C0.963856 45.8571 0.535475 44.3571 0.107095 42.8571C0.107095 42.5357 0 42.2143 0 41.7857C0 41.25 0 41.25 0 41.25C0 40.7143 0 40.2857 0 39.75C0 39.75 1.51605e-07 39.75 0.107095 38.8929C0.107095 38.5714 0.21419 38.25 0.21419 37.9286C0.64257 36 1.39224 34.3929 2.46319 32.6786C3.53414 31.0714 4.81928 29.6786 6.31861 28.2857C6.74699 27.9643 7.17537 27.6429 7.60375 27.2143C8.99598 26.1429 10.4953 25.2857 11.9946 24.3214C13.8153 23.3571 15.743 22.5 17.6707 21.75C18.4203 21.5357 19.17 21.2143 19.9197 21C20.4552 20.7857 20.9906 20.6786 21.6332 20.4643C22.49 20.25 23.4538 20.0357 24.5248 19.7143C26.6667 19.1786 28.8086 18.8571 30.9505 18.5357C31.7001 18.4286 32.4498 18.3214 33.1995 18.3214C35.2343 18.2143 37.2691 18.1071 39.3039 18C39.8394 18 40.3748 18 40.9103 18C42.6238 18 44.3373 18.1071 46.0509 18.2143C49.1566 18.5357 52.2624 18.9643 55.3681 19.6071C56.332 19.8214 57.4029 20.1429 58.3668 20.3571C60.83 21.1071 63.1861 21.9643 65.4351 22.9286C66.506 23.4643 66.506 23.4643 67.2557 23.7857C68.755 22.6071 70.3614 21.5357 72.075 20.6786C73.1459 20.1429 74.324 19.6071 75.3949 19.0714C72.3962 26.4643 72.3962 26.4643 72.1821 27C72.8246 27.5357 72.8246 27.5357 73.4672 28.0714C74.324 28.8214 75.0736 29.5714 75.8233 30.4286C76.4659 31.1786 76.4659 31.1786 77.0013 31.9286C77.8581 33.1071 78.5007 34.3929 79.0361 35.6786C79.3574 36.6429 79.5716 37.6071 79.7858 38.5714C79.7858 38.7857 79.7858 39 79.8929 39.2143C79.8929 40.1786 79.8929 40.1786 80 40.1786C80 40.3929 80 40.5 80 40.7143C80 40.7143 80 40.7143 80 41.4643C79.8929 42.75 79.5716 44.0357 79.1432 45.2143C78.7149 46.1786 78.1794 47.1429 77.6439 48.1071C77.1084 48.9643 76.4659 49.7143 75.8233 50.4643C75.502 50.7857 75.1807 51.2143 74.7523 51.5357C74.324 51.8571 74.0027 52.2857 73.5743 52.6071C72.6104 53.4643 71.5395 54.2143 70.4685 54.9643C69.9331 55.2857 69.2905 55.6071 68.755 56.0357C67.0415 57 65.2209 57.8571 63.4003 58.6071C61.6867 59.25 59.8661 59.8929 58.1526 60.4286C57.51 60.6429 56.8675 60.75 56.2249 60.9643C53.6546 61.6071 51.0843 62.0357 48.407 62.3571C47.336 62.4643 46.158 62.5714 45.087 62.6786C43.909 62.7857 42.838 62.7857 41.66 62.7857C40.6961 63 39.5181 63 38.34 63Z" fill="#264796"></path></svg> 