<?xml version="1.0" encoding="UTF-8"?> <svg xmlns="http://www.w3.org/2000/svg" width="80" height="80" viewBox="0 0 80 80" fill="none"><rect width="80" height="80" fill="#F7F7F7"></rect><path d="M22.5254 53.1242L25.1149 55.1385L27.7045 57.1484C27.7045 57.1484 28.1346 55.6151 29.2236 53.6008L24.0446 49.5755C22.9575 51.5908 22.5254 53.1242 22.5254 53.1242Z" fill="#CC5E1D"></path><path d="M24.3721 48.9913L29.5513 53.0166C30.1133 52.0449 30.8233 50.9909 31.6981 49.9566L26.5232 45.9313C25.6442 46.9649 24.9361 48.0186 24.3721 48.9913Z" fill="#D47B19"></path><path d="M26.9639 45.4335L32.1411 49.458C32.9519 48.5675 33.8969 47.7049 34.9858 46.9413L29.8088 42.9151C28.7179 43.6807 27.775 44.5415 26.9639 45.4335" fill="#D08E1E"></path><path d="M47.2168 33.3351L52.3939 37.3594C53.2603 36.544 54.1148 35.6385 54.9463 34.6121L49.7692 30.5871C48.9376 31.6111 48.0812 32.5198 47.2168 33.3351Z" fill="#F4CF32"></path><path d="M34.8496 40.4269L40.0269 44.4512C41.264 43.9623 42.6058 43.4406 44.0037 42.8125L38.8266 38.7895C37.4271 39.4163 36.0868 39.9361 34.8496 40.4269" fill="#F8DB54"></path><path d="M30.8293 42.2538C30.6811 42.3443 30.5351 42.4368 30.3867 42.5285L35.5657 46.5547C35.712 46.4622 35.8582 46.3666 36.0064 46.2788C36.951 45.718 38.0711 45.2342 39.3121 44.735L34.1352 40.7108C32.8961 41.2088 31.774 41.6926 30.8293 42.2538" fill="#F8A013"></path><path d="M54.6523 22.4064L59.8295 26.4307C60.3235 25.3003 60.797 24.0913 61.2436 22.8017L56.0665 18.7762C55.6179 20.0671 55.1464 21.2753 54.6523 22.4064Z" fill="#E78B14"></path><path d="M52.6328 26.4084L57.8119 30.4326C58.415 29.392 58.9952 28.2703 59.5513 27.0538L54.3762 23.0284C53.8185 24.2469 53.2359 25.367 52.6328 26.4084Z" fill="#E79D12"></path><path d="M39.5039 38.4777L44.681 42.5039C45.8481 41.9541 47.0524 41.3182 48.2606 40.5546L43.0839 36.5292C41.8753 37.292 40.6734 37.9271 39.5039 38.4777Z" fill="#FCF9A5"></path><path d="M43.6719 36.1486L48.849 40.1729C49.8679 39.4927 50.8888 38.7145 51.8974 37.8129L46.7207 33.7887C45.7121 34.6882 44.6908 35.4684 43.6719 36.1486" fill="#FCD564"></path><path d="M50.1807 30.0683L55.3574 34.0938C56.0842 33.1602 56.7925 32.1342 57.4719 31.007L52.2948 26.9828C51.6134 28.1088 50.9051 29.1348 50.1807 30.0683Z" fill="#EBA90F"></path><path d="M15 47.2764L17.5897 49.2856L20.1772 51.2988C20.1772 51.2988 20.6073 49.7674 21.6962 47.7491L16.5192 43.7229C15.4303 45.7421 15 47.2764 15 47.2764" fill="#88181C"></path><path d="M16.8467 43.1396L22.0239 47.165C22.5877 46.1928 23.2959 45.1387 24.1748 44.1052L18.9957 40.0801C18.1188 41.1145 17.4087 42.1685 16.8467 43.1396Z" fill="#BC1F24"></path><path d="M19.4346 39.584L24.6135 43.6094C25.4246 42.7158 26.3693 41.8565 27.4604 41.091L22.2811 37.0655C21.1922 37.8303 20.2476 38.6907 19.4346 39.584Z" fill="#C52025"></path><path d="M39.6895 27.485L44.8666 31.5068C45.7353 30.6938 46.5898 29.7872 47.4209 28.7639L42.2422 24.7385C41.4103 25.7618 40.5562 26.6704 39.6895 27.485Z" fill="#E63634"></path><path d="M27.3223 34.5764L32.4993 38.6006C33.7364 38.1129 35.0807 37.592 36.4785 36.9631L31.2994 32.9397C29.8996 33.5685 28.5595 34.0875 27.3223 34.5764" fill="#F57684"></path><path d="M23.3041 36.4028C23.1537 36.4913 23.0077 36.585 22.8613 36.6787L28.0405 40.7041C28.1846 40.6104 28.3308 40.5176 28.4808 40.429C29.4258 39.8682 30.5456 39.3844 31.7847 38.8845L26.6078 34.861C25.3687 35.3602 24.2488 35.8451 23.3041 36.4028" fill="#EE2B21"></path><path d="M45.1064 20.5576L50.2855 24.5811C50.8867 23.5408 51.4693 22.4207 52.023 21.2034L46.8459 17.18C46.2921 18.3965 45.71 19.5174 45.1064 20.5576Z" fill="#C52025"></path><path d="M31.9785 32.6259L37.1535 36.6514C38.325 36.102 39.5249 35.4657 40.7331 34.7033L35.556 30.6779C34.3457 31.4403 33.1456 32.0766 31.9785 32.6259" fill="#FABBC4"></path><path d="M36.1445 30.2961L41.3236 34.3223C42.3425 33.6421 43.3634 32.8639 44.372 31.9623L39.1953 27.9369C38.1863 28.8388 37.1634 29.6178 36.1445 30.2961Z" fill="#F47291"></path><path d="M42.6553 24.2191L47.832 28.2441C48.5569 27.3098 49.2627 26.2834 49.9441 25.1578L44.769 21.1336C44.0836 22.2592 43.3774 23.2856 42.6553 24.2191Z" fill="#D82324"></path><path d="M30.0537 58.9758L32.6414 60.9867L35.2308 63C35.2308 63 35.6611 61.4685 36.7499 59.4513L31.5729 55.4247C30.484 57.443 30.0537 58.9758 30.0537 58.9758Z" fill="#88181C"></path><path d="M31.8994 54.8433L37.0784 58.8643C37.6384 57.8947 38.3487 56.84 39.2277 55.8075L34.0483 51.7822C33.1696 52.8166 32.4635 53.8705 31.8994 54.8433Z" fill="#BC1F24"></path><path d="M34.4893 51.2854L39.6663 55.3105C40.4793 54.4193 41.4223 53.5578 42.5131 52.7931L37.336 48.7687C36.2451 49.5325 35.3024 50.3918 34.4893 51.2854" fill="#C52025"></path><path d="M54.7422 39.1849L59.9193 43.21C60.788 42.3962 61.6401 41.4903 62.4737 40.4655L57.2966 36.4401C56.465 37.4629 55.6109 38.3708 54.7422 39.1849Z" fill="#E63634"></path><path d="M42.375 46.2787L47.5521 50.3018C48.7892 49.8128 50.1314 49.2932 51.5309 48.6642L46.3538 44.6409C44.9523 45.2689 43.614 45.7886 42.375 46.2787Z" fill="#F57684"></path><path d="M38.3553 48.1044C38.2071 48.1951 38.0613 48.2897 37.917 48.3783L43.0921 52.4033C43.238 52.3109 43.3842 52.2191 43.5344 52.1307C44.4774 51.5698 45.5991 51.0859 46.8381 50.5857L41.6614 46.5615C40.4224 47.0626 39.3023 47.5448 38.3553 48.1044" fill="#EE2B21"></path><path d="M47.0312 44.3271L52.2084 48.3535C53.3755 47.8016 54.5774 47.1676 55.788 46.404L50.6089 42.3798C49.4007 43.1434 48.1964 43.7785 47.0312 44.3271Z" fill="#FABBC4"></path><path d="M51.1982 41.9992L56.3769 46.0234C57.3959 45.3444 58.4152 44.5662 59.4258 43.6635L54.2486 39.6381C53.24 40.5396 52.2191 41.319 51.1982 41.9992Z" fill="#F47291"></path><path d="M57.709 35.9207L62.8861 39.9453C63.6106 39.0118 64.3168 37.9854 65.0002 36.8578L59.8211 32.8343C59.1397 33.9611 58.4338 34.9844 57.709 35.9207Z" fill="#D82324"></path></svg> 