<svg width="80" height="80" viewBox="0 0 80 80" fill="none" xmlns="http://www.w3.org/2000/svg">
<rect width="80" height="80" fill="#F5F8FA"/>
<g clip-path="url(#clip0_6979_5118)">
<path fill-rule="evenodd" clip-rule="evenodd" d="M37.1352 34.7481C37.1352 34.7481 52.8203 14.1462 71.8171 41.016C67.0629 44.3989 57.0971 51.2357 57.0971 51.2357C57.0971 51.2357 59.0984 31.2839 37.1352 34.7481ZM42.6819 45.0592C42.6819 45.0592 26.9968 65.6509 8 38.7912C12.7543 35.4084 22.7302 28.5716 22.7302 28.5716C22.7302 28.5716 20.7187 48.5233 42.6819 45.0592Z" fill="#3D509A"/>
<path fill-rule="evenodd" clip-rule="evenodd" d="M45.0697 37.125C45.0697 37.125 65.6716 52.8202 38.7916 71.7967C35.4087 67.0425 28.582 57.0767 28.582 57.0767C28.582 57.0767 48.5338 59.0983 45.0697 37.125Z" fill="#3D509A"/>
<path fill-rule="evenodd" clip-rule="evenodd" d="M34.7585 42.6819C34.7585 42.6819 14.1566 26.9867 41.0366 8C44.4093 12.7441 51.2461 22.7302 51.2461 22.7302C51.2461 22.7302 31.3045 20.7187 34.7585 42.6819Z" fill="#32B34A"/>
</g>
<defs>
<clipPath id="clip0_6979_5118">
<rect width="64" height="64" fill="white" transform="translate(8 8)"/>
</clipPath>
</defs>
</svg>
