<?xml version="1.0" encoding="UTF-8"?> <svg xmlns="http://www.w3.org/2000/svg" width="80" height="80" viewBox="0 0 80 80" fill="none"><path d="M79.7987 0H0V79.7987H79.7987V0Z" fill="#7399C6"></path><path d="M9.7105 11.2204H14.0879V18.2141C12.5784 18.4656 10.9684 18.6166 10.0124 18.6166C5.68534 18.6166 3.87402 15.9499 3.87402 11.4719C3.87402 6.69206 6.18849 4.02539 10.7168 4.02539C11.3206 4.02539 12.5281 4.07571 13.9369 4.37759V8.70464H12.9306L12.3269 7.04426C11.7734 5.53482 11.1193 4.93105 10.113 4.93105C8.25138 4.93105 7.29541 7.29583 7.29541 11.4719C7.29541 15.799 7.84887 17.7109 10.113 17.7109C10.3646 17.7109 10.7168 17.7109 11.1696 17.6103V12.7298L9.66019 11.7738V11.2204H9.7105ZM13.8363 30.1889C13.8363 33.0065 11.9243 34.6166 8.50295 34.6166C7.54698 34.6166 6.18849 34.4656 4.93063 34.2141V28.8807H5.93692L6.33943 30.0883C7.24509 32.9059 7.9495 33.7612 9.15704 33.7612C10.4149 33.7612 11.2703 32.8053 11.2703 31.4468C11.2703 30.3902 10.7168 29.5348 9.50924 28.8807L7.44635 27.7738C5.83629 26.9185 4.98094 25.6103 4.98094 24.0002C4.98094 21.5348 6.94321 20.0757 10.264 20.0757C11.0187 20.0757 11.874 20.126 13.2828 20.3273V24.755H12.2765L11.6728 23.1449C11.1193 21.5851 10.5658 20.9814 9.40861 20.9814C8.25138 20.9814 7.49667 21.6355 7.49667 22.6417C7.49667 23.4971 8.05012 24.2518 9.15704 24.9059L11.2703 26.0631C13.0313 27.0694 13.8363 28.3776 13.8363 30.1889ZM23.1445 33.4594L23.547 34.0631V34.365H20.3772L20.2765 33.0568C19.9243 34.0128 18.9684 34.6166 17.7608 34.6166C16.2011 34.6166 15.0941 33.6606 15.0941 31.8996C15.0941 30.1386 16.0501 29.082 18.918 27.9248L20.2262 27.3713V25.9122C20.2262 24.8053 19.874 24.3021 19.069 24.3021C18.3646 24.3021 17.9118 24.755 17.4589 25.8619L16.8048 27.4719H15.8489V24.1512C17.0564 23.799 18.3143 23.5474 19.3709 23.5474C21.786 23.5474 23.0941 24.6543 23.0941 26.7172V33.4594H23.1445ZM24.503 13.0317C24.503 16.604 22.591 18.6166 20.1759 18.6166C17.7608 18.6166 15.8489 16.6543 15.8489 13.0317C15.8489 9.40904 17.7608 7.44677 20.1759 7.44677C22.591 7.44677 24.503 9.45935 24.503 13.0317ZM20.2765 31.5977V28.1763L19.8237 28.3776C18.6162 28.9311 18.0627 29.8367 18.0627 31.3965C18.0627 32.7046 18.4149 33.3084 19.1193 33.3084C19.874 33.3587 20.2765 32.604 20.2765 31.5977ZM21.4338 13.0317C21.4338 9.20778 21.0816 8.25181 20.1256 8.25181C19.1696 8.25181 18.8174 9.20778 18.8174 13.0317C18.8174 16.8556 19.1696 17.8116 20.1256 17.8116C21.0816 17.8116 21.4338 16.9059 21.4338 13.0317ZM31.5973 31.7487L32.2514 32.1009C31.6476 33.8116 30.7419 34.6669 28.9306 34.6669C26.264 34.6669 24.8552 32.604 24.8552 29.1826C24.8552 25.4594 26.5155 23.5474 29.4841 23.5474C30.2388 23.5474 31.3457 23.648 32.2011 24.0002V27.5222H31.1948L30.7923 26.1638C30.3394 24.6543 29.9369 24.3021 29.3835 24.3021C28.5281 24.3021 27.874 25.3587 27.874 29.2329C27.874 32.4028 28.3269 33.56 29.635 33.56C30.4401 33.5097 30.9935 33.0568 31.5973 31.7487ZM29.635 18.365H25.9118V18.0631L26.3143 17.4594V5.88703L25.9118 5.28325V4.98137L29.1822 4.72979V17.4594L29.5847 18.0631V18.365H29.635ZM34.8174 18.6166C32.4023 18.6166 31.0941 16.6543 31.0941 12.9311C31.0941 9.30841 32.5533 7.44677 34.8677 7.44677C35.9243 7.44677 36.5784 7.94992 36.83 8.75495V5.88703L36.4275 5.28325V4.98137L39.7482 4.72979V17.4594L40.1508 18.0631V18.365H37.2325L36.9809 16.8556C36.6791 18.0631 36.025 18.6166 34.8174 18.6166ZM42.0627 33.4594L42.4652 34.0631V34.365H38.7419V34.0631L39.1445 33.4594V25.9122C39.1445 25.1575 38.7923 24.6543 38.1885 24.6543C37.3835 24.6543 36.83 25.409 36.83 26.4656V33.4594L37.2325 34.0631V34.365H33.5092V34.0631L33.9118 33.4594V21.887L33.5092 21.2833V20.9814L36.83 20.7298V24.8556C37.2828 23.8996 38.3394 23.4971 39.2954 23.4971C41.0564 23.4971 42.0627 24.5537 42.0627 26.6669V33.4594ZM34.113 12.9814C34.113 16.604 34.4652 17.7612 35.4715 17.7612C36.5784 17.7612 36.83 16.2015 36.83 12.9311C36.83 9.81155 36.5784 8.30212 35.4715 8.30212C34.5155 8.30212 34.113 9.45935 34.113 12.9814ZM55.2451 17.4594L55.6476 18.0631V18.365H51.9243V18.0631L52.3268 17.4594V9.86187C52.3268 9.15747 52.025 8.60401 51.3709 8.60401C50.5658 8.60401 50.113 9.40904 50.113 10.4656V17.4594L50.5155 18.0631V18.365H46.7923V18.0631L47.1948 17.4594V9.86187C47.1948 9.15747 46.8929 8.60401 46.2388 8.60401C45.4338 8.60401 44.9306 9.40904 44.9306 10.4656V17.4594L45.3331 18.0631V18.365H41.6099V18.0631L42.0124 17.4594V8.90589L41.6099 8.40275V8.10086L44.5281 7.74866H44.7797L44.8803 9.00652C45.2828 8.05055 46.2891 7.49709 47.4464 7.49709C48.7042 7.49709 49.4589 8.10086 49.8614 9.15747C50.3143 8.15118 51.2703 7.49709 52.5784 7.49709C54.2388 7.49709 55.1445 8.50338 55.1445 10.6166V17.4594H55.2451ZM51.1696 31.1952C51.1696 33.1575 50.0124 34.6669 47.0942 34.6669C46.3897 34.6669 45.3835 34.5663 43.874 34.3147V30.4908H44.7797L45.0816 31.2958C45.8363 33.3084 46.2891 33.8619 47.396 33.8619C48.4526 33.8619 49.0061 33.3587 49.0061 32.3021C49.0061 31.4468 48.5533 30.8933 47.547 30.3399L45.6853 29.3336C44.4778 28.6795 43.9243 27.7738 43.9243 26.5663C43.9243 24.604 45.3835 23.4971 47.8992 23.4971C48.6539 23.4971 49.5596 23.5977 50.5659 23.799V26.7675H49.7105L49.2577 25.7109C48.8048 24.6543 48.4023 24.2518 47.4967 24.2518C46.591 24.2518 46.0879 24.7046 46.0879 25.409C46.0879 26.0631 46.4904 26.4656 47.4967 27.0191L49.3583 28.0757C50.5155 28.8304 51.1696 29.7361 51.1696 31.1952ZM64.9055 17.4594L65.308 18.0631V18.365H62.1382L62.0375 17.0568C61.6853 18.0128 60.7294 18.6166 59.5218 18.6166C57.9621 18.6166 56.8552 17.6606 56.8552 15.8996C56.8552 14.1386 57.8111 13.082 60.6791 11.9248L61.9872 11.3713V9.91218C61.9872 8.80526 61.635 8.30212 60.83 8.30212C60.1256 8.30212 59.6728 8.75495 59.2199 9.86187L58.5658 11.4719H57.6099V8.10086C58.8174 7.74866 60.0753 7.49709 61.1319 7.49709C63.547 7.49709 64.8552 8.60401 64.8552 10.6669V17.4594H64.9055ZM61.9872 15.5474V12.1763L61.5344 12.3776C60.3269 12.9311 59.7734 13.8367 59.7734 15.3965C59.7734 16.7046 60.1256 17.3084 60.83 17.3084C61.635 17.3084 61.9872 16.5537 61.9872 15.5474ZM75.7231 18.0631V18.365H71.9998V18.0631L72.4023 17.4594V9.86187C72.4023 9.10715 72.0501 8.60401 71.4464 8.60401C70.6413 8.60401 70.0879 9.35872 70.0879 10.4153V17.409L70.4904 18.0128V18.3147H66.7671V18.0128L67.1696 17.409V8.85558L66.7671 8.35243V8.05055L69.6853 7.69835H69.9369L70.0375 9.00652C70.4401 7.8996 71.547 7.49709 72.6036 7.49709C74.3646 7.49709 75.3709 8.55369 75.3709 10.6669V17.4594L75.7231 18.0631Z" fill="white"></path></svg> 