<?xml version="1.0" encoding="UTF-8"?> <svg xmlns="http://www.w3.org/2000/svg" width="80" height="80" viewBox="0 0 80 80" fill="none"><rect width="80" height="80" fill="#F5F8FA"></rect><path d="M39.8037 29.3407H25.9948L21.3918 56H15L20.5192 24H40.7199L39.8037 29.3407Z" fill="#B78F53"></path><path d="M64.0838 29.3407H50.3403L49.2714 35.5385L53.438 35.5604C56.9139 35.5751 59.6408 36.4835 61.6187 38.2857C63.5966 40.0879 64.4764 42.4835 64.2583 45.4725C64.0256 48.652 62.7022 51.2015 60.288 53.1209C57.8738 55.0403 54.7978 56 51.0602 56H39.2801L44.7993 24H65L64.0838 29.3407ZM48.3551 40.8571L46.6536 50.7033L51.322 50.7253C53.009 50.7253 54.4561 50.2491 55.6632 49.2967C56.8848 48.3297 57.6193 47.033 57.8665 45.4066C58.0556 44.0733 57.7865 43.0037 57.0593 42.1978C56.3322 41.3773 55.2341 40.9377 53.7653 40.8791L48.3551 40.8571Z" fill="#B78F53"></path></svg> 