<?xml version="1.0" encoding="UTF-8"?> <svg xmlns="http://www.w3.org/2000/svg" width="80" height="80" viewBox="0 0 80 80" fill="none"><rect width="80" height="80" fill="#F5F8FA"></rect><path fill-rule="evenodd" clip-rule="evenodd" d="M56.1797 24.8592C53.7867 24.6479 51.1431 24.4456 48.5074 24.4456C34.8515 24.4456 19.9866 31.5071 19.9866 41.8975C19.9866 45.4367 21.9021 48.9657 25.2637 51.8688C13.995 49.1725 8.00009 42.5224 8.00009 36.0802C8.00009 25.2761 22.8593 18 36.5288 18C45.6392 18 52.3464 20.4906 56.1797 22.1551" fill="#C0003D"></path><path fill-rule="evenodd" clip-rule="evenodd" d="M60.0249 35.457L59.7776 51.0456C53.2015 56.0952 43.2787 56.5662 36.7686 56.4684C32.3884 56.4684 25.4966 55.4063 21.1858 53.9486C21.1858 53.9486 21.1699 54.2093 21.1699 53.9969C26.2031 58.3689 38.9793 62.1137 48.746 61.9935C55.2002 62.0789 65.3111 61.2652 71.7618 56.6482L72 42.3117" fill="#C0003D"></path><path fill-rule="evenodd" clip-rule="evenodd" d="M56.2598 35.5293C53.3814 35.5293 35.1674 35.7316 35.1674 35.7316C35.1674 35.7316 56.0205 47.5831 56.0205 47.9934C56.0205 47.1684 56.2598 38.0221 56.2598 35.5293Z" fill="#C0003D"></path></svg> 