<?xml version="1.0" encoding="UTF-8"?> <svg xmlns="http://www.w3.org/2000/svg" width="80" height="80" viewBox="0 0 80 80" fill="none"><rect width="80" height="80" fill="#F5F8FA"></rect><path d="M67.1097 57.9325V62.8507C64.3759 64.225 61.7838 64.9066 59.2047 64.9066C52.0544 64.9066 47.7559 60.6569 47.7559 55.3263C47.7559 49.5625 52.6516 44.7822 58.9347 44.7822C60.5041 44.7822 61.6469 45.056 62.8722 45.4657C63.7637 45.7422 64.3075 46.0816 64.8569 46.0816C65.3331 46.0816 65.4691 45.2594 65.5384 44.7822H66.2228L66.8359 51.4141H66.0156C65.6753 50.11 65.0613 49.0329 64.2428 48.2772C62.9434 46.975 61.1678 46.2888 59.14 46.2888C54.8388 46.2888 52.3112 49.6985 52.3112 54.8444C52.3112 59.9003 55.3853 63.3991 59.4803 63.3991C60.7084 63.3991 61.7838 63.1225 63.1488 62.5085V57.4553C63.1488 55.8053 62.8722 55.1866 60.5744 55.1866V54.43H69.2228V55.1866C67.0413 55.1885 67.1097 55.8747 67.1097 57.9325V57.9325ZM43.3159 49.8391L43.3169 64.5653H42.1741L27.5116 49.361C27.5791 49.7716 27.5791 50.1119 27.5791 50.5244V59.7644C27.5791 62.6444 27.5791 63.6738 30.1759 63.6738V64.4294H23.2984V63.6738C25.8766 63.6738 25.8756 62.4419 25.8756 59.7644V49.2194C25.8756 47.6613 25.8756 45.9466 23.1625 45.9466V45.1938H29.6256L41.695 57.6579C41.6294 57.3119 41.6294 57.1085 41.6294 56.6285V49.8382C41.6294 47.1129 41.695 45.9457 39.1028 45.9457V45.1938H45.9775V45.9466C43.4519 45.9466 43.3159 47.0472 43.3159 49.8391V49.8391ZM10 64.4285V63.6728C11.6406 63.6728 12.8012 63.5369 12.8012 61.1332V48.4844C12.8012 46.0132 11.9116 45.9466 10 45.9466V45.1938H19.6797V45.9466C17.6969 45.9466 16.8916 46.0132 16.8916 48.4844V61.1332C16.8916 63.5369 17.9041 63.6728 19.6797 63.6728V64.4285H10Z" fill="#000066"></path><path d="M24.5901 20.0902L24.7891 18.6002L25.0841 17.2142L25.5781 16.5192L25.8711 15.0352L26.4651 13.8472L27.2541 13.5462L28.5351 13.4482C28.5351 13.4482 30.6081 13.7452 30.9061 13.7452C31.2001 13.7452 33.5471 13.8482 33.5471 13.8482L35.4221 13.5472L36.4091 14.1412L36.9001 15.9252L38.0841 18.4062C38.0841 18.4062 38.3791 19.5912 38.5801 19.8902C38.7751 20.1872 39.7641 24.0332 40.0591 24.2292C40.3551 24.4272 43.4941 26.1142 43.4941 26.1142L46.1591 25.6172L46.5521 24.0322L47.8371 23.5352L49.8061 24.8202C49.8061 24.8202 51.7781 29.8782 51.9801 30.1762C52.1681 30.4752 52.2551 33.4242 52.2551 33.4242V35.1102L53.6361 36.5962C53.6361 36.5962 52.9521 35.6192 53.9341 36.5962C55.4151 38.0832 65.6571 28.9872 53.8281 19.3942L52.1701 19.2972L50.4501 19.3172L48.8541 18.3802L48.5321 17.8512L48.5131 16.1472L50.1931 15.7742L50.9411 15.5382L51.5661 15.7082L53.0181 17.3922L54.0001 18.5862L55.0201 19.5282L58.8461 24.2322L59.9631 27.4362L59.1641 33.0202L56.2991 36.9442L51.6921 38.1452L46.2101 38.7912H30.4471L19.7341 38.4302L19.2891 36.7922L20.1231 35.5252L22.4481 34.3742L23.7951 34.8892L24.1191 34.3522L25.7321 29.8892L24.7291 26.3192L24.7731 25.4792L25.3431 24.1902L24.5901 20.0902V20.0902Z" fill="white"></path><path d="M52.604 18.273C52.454 17.98 52.175 17.835 51.964 17.835C51.746 17.543 51.454 17.178 51.165 17.178C51.382 17.178 51.675 16.956 52.038 16.956C52.175 17.319 52.453 17.543 52.528 17.835L52.604 18.273V18.273ZM60.395 29.301C60.395 26.08 59.086 22.86 56.75 20.539C55.73 19.518 54.566 19.004 53.691 17.98C53.257 17.543 52.892 17.103 52.604 16.516C52.237 16.151 52.039 15.932 51.603 15.71L51.819 16.369H51.747C51.383 16.369 51.018 16.151 50.726 15.932L51.017 15.635C50.949 15.493 50.726 15.493 50.58 15.493C49.419 15.272 48.323 15.932 47.159 16.151V16.296C47.889 16.517 48.031 17.394 48.468 17.836H48.905C49.054 17.836 49.271 17.981 49.42 17.981C49.42 17.836 49.272 17.544 49.272 17.544C49.42 17.394 49.563 17.394 49.71 17.544C50.075 17.762 50.582 17.394 50.95 17.981C50.512 17.981 50.075 17.981 49.71 18.202C49.71 18.274 49.929 18.42 49.856 18.565C49.492 18.42 49.055 18.565 48.906 18.274L48.837 18.346C49.3072 18.8815 49.9085 19.2858 50.582 19.519C51.528 19.667 52.311 19.222 53.259 19.444C56.607 21.055 58.944 24.836 58.944 28.644C58.944 34.038 55.886 36.232 53.915 36.232C53.549 36.232 52.973 36.013 52.741 35.792C52.972 34.986 53.116 34.109 53.116 32.792C53.116 29.668 51.894 26.305 50.22 24.545C49.421 23.743 48.546 23.083 47.599 23.083C47.161 23.083 46.722 23.083 46.431 23.45C46.068 23.743 45.849 24.325 45.921 24.691C45.341 25.131 44.392 25.35 43.663 25.35C42.861 25.35 41.864 25.058 40.917 24.325V23.23C40.697 23.158 39.972 22.72 40.335 22.371C40.552 22.446 40.697 22.567 40.771 22.644C40.698 22.154 40.698 21.566 40.335 21.13C40.189 21.13 39.972 21.13 39.753 20.981C39.534 20.76 39.315 20.465 39.315 20.1C39.534 20.465 39.894 20.323 40.115 20.539C39.752 19.666 39.894 19.297 39.241 17.98C39.092 17.319 38.44 16.956 38 16.516C37.78 16.369 37.709 16.151 37.418 16.151C37.129 16.076 37.129 15.709 37.129 15.493C37.2 15.493 37.418 15.635 37.563 15.709C37.129 14.685 36.836 13.591 35.889 13.024L35.676 13.148H34.51C34.649 13.024 34.942 12.954 35.163 12.804C34.941 12.585 34.801 12.51 34.358 12.51C34.14 12.585 33.849 12.804 33.56 12.804H33.487C33.487 12.585 33.42 12.293 33.849 12.148C33.419 12.075 33.068 12.075 32.56 12.148C32.488 12.51 32.267 12.732 32.267 13.024C32.048 13.148 31.979 13.368 31.757 13.591C31.757 13.148 31.979 12.732 32.048 12.293C31.757 12.368 31.396 12.585 31.247 12.585C30.668 12.293 29.938 12 29.646 12C30.082 12.293 29.862 12.804 29.937 13.148L29.646 13.023C29.571 12.732 29.21 12.51 29.136 12.148C28.699 12.148 28.408 12.293 28.04 12.51V12.585C28.261 12.585 28.552 12.804 28.699 13.023C28.189 13.023 27.826 12.804 27.316 12.804L27.24 12.732C27.026 12.804 26.804 13.023 26.662 13.148C26.151 13.591 25.788 13.956 25.565 14.61C25.712 14.61 25.931 14.61 26.005 14.685C25.712 14.759 25.565 15.124 25.275 15.201V16.295C25.058 16.516 24.765 16.734 24.62 17.178C24.258 18.344 24.183 19.665 24.183 21.128C24.11 21.417 23.98 21.49 23.84 21.564V22.718C23.84 22.718 24.258 22.296 24.477 22.152V23.081C24.184 23.081 23.981 23.448 23.981 23.665C23.981 23.957 24.044 24.252 24.044 24.543C24.044 24.689 24.044 24.689 24.111 24.835C24.111 24.689 24.258 24.543 24.477 24.473C24.477 24.473 24.621 24.323 24.911 24.323C24.691 24.543 24.621 24.835 24.477 25.13L24.258 25.349L24.184 25.568C24.477 27.105 24.911 28.425 25.495 29.886C24.911 30.837 24.259 32.646 23.841 34.4C23.476 34.038 22.964 33.962 22.529 33.962C22.091 34.038 21.658 34.184 21.363 34.621C20.928 34.4 20.344 34.473 20.053 34.769C19.398 35.351 19.398 35.646 19.398 36.085C19.252 36.231 18.96 36.597 18.96 37.108C18.96 37.764 19.032 38.208 19.398 38.791H30.448C30.378 38.573 30.23 38.278 30.085 38.134C29.864 37.695 30.015 37.109 30.015 36.671C30.231 36.232 30.449 35.79 30.742 35.429C30.813 35.206 30.742 35.206 30.813 35.134L31.323 34.986C31.617 34.986 31.834 34.769 32.199 34.769C32.418 35.134 32.418 34.548 32.782 34.4C33.562 34.259 34.361 34.4 34.803 34.986C34.803 35.134 34.871 35.134 34.871 35.207H34.51C34.07 34.986 33.561 34.769 33.07 34.986C33.07 35.207 32.999 35.207 32.999 35.429V35.79C33.288 35.79 33.488 36.085 33.778 36.231C33.923 36.012 34.36 35.79 34.649 35.79C35.016 35.79 35.526 36.013 35.526 36.597V37.4C35.817 37.695 36.18 37.765 36.549 37.916C36.401 38.209 36.18 38.209 35.967 38.209H35.379C35.307 38.135 35.163 38.135 35.163 37.916C34.942 38.209 34.801 38.498 34.648 38.792H43.151C43.007 38.498 42.86 38.279 42.797 38.135C42.662 37.696 42.662 37.11 42.662 36.672L43.444 35.572C43.881 35.572 44.25 35.429 45.048 35.351C45.191 35.134 45.048 34.986 45.701 34.986C46.208 34.986 46.576 35.134 46.72 35.207C46.794 35.352 46.794 35.352 46.72 35.501C46.576 35.647 46.284 35.352 46.066 35.43C45.92 35.573 46.14 35.647 46.14 35.792C46.285 35.938 45.486 35.646 45.486 35.646C45.486 35.646 45.34 36.085 45.263 36.232L45.701 36.671C45.848 36.888 45.485 37.109 45.485 37.329C45.339 37.255 45.047 37.032 45.047 37.108C44.9 37.694 45.047 38.208 44.973 38.791H45.777L45.848 37.55C45.918 36.816 46.793 35.5 47.305 35.5C47.596 35.5 47.814 35.646 48.031 35.791C48.177 36.085 48.544 36.231 48.544 36.376C48.544 36.524 48.323 36.597 47.958 36.597C47.814 36.597 47.814 36.376 47.597 36.232L47.16 36.67C47.16 36.67 47.67 37.108 47.67 37.399C47.67 37.764 47.598 37.915 47.381 38.133L46.94 37.254C46.721 37.254 46.359 37.693 46.359 37.914C46.359 38.207 46.21 38.353 46.21 38.79H50.728C51.24 38.791 51.677 38.644 52.177 38.353H53.038C54.856 38.353 56.318 37.839 57.626 36.523C59.375 34.768 60.396 31.988 60.395 29.301V29.301ZM44.612 36.012L43.881 36.084C44.174 36.23 44.174 36.596 44.174 36.67C44.174 36.887 44.027 37.108 43.881 37.254C43.737 37.108 43.737 36.887 43.592 36.67C43.445 36.67 43.373 37.031 43.373 37.182C43.373 37.84 43.662 38.354 43.881 38.79H44.536C44.465 38.207 44.318 37.693 44.318 37.031C44.318 36.67 44.536 36.23 44.612 36.012ZM35.016 36.887C35.016 36.596 34.801 36.524 34.51 36.524C34.36 36.524 33.998 36.744 33.998 36.887C33.998 37.182 33.85 38.79 33.85 38.79H34.36C34.579 38.133 35.016 37.254 35.016 36.887V36.887ZM33.42 36.814C33.357 36.814 33.487 36.96 32.78 36.23C32.634 36.23 32.416 36.669 32.416 36.814C32.416 37.398 32.561 38.207 32.78 38.79H33.356C33.356 38.133 33.42 37.398 33.42 36.814V36.814ZM32.197 38.79C31.832 38.133 31.758 37.107 31.758 36.887C31.758 36.524 31.758 36.012 31.981 35.645L31.18 35.79C30.961 36.085 30.885 36.231 30.885 36.376L31.25 36.231C31.321 36.231 31.397 36.376 31.465 36.524C31.398 36.887 30.961 36.887 30.812 37.032C30.592 37.764 31.25 38.208 31.322 38.791H32.197V38.79ZM50.436 16.735H49.635C49.491 16.516 49.272 16.735 49.129 16.735C48.98 16.735 48.905 16.735 48.616 16.516C49.054 16.516 49.271 16.295 49.635 16.151C49.928 16.369 50.219 16.442 50.436 16.735V16.735ZM48.688 25.129C48.177 24.983 47.89 24.763 47.449 24.763C47.306 24.763 46.652 24.983 46.577 25.129C46.358 24.835 46.721 24.252 47.015 24.105C47.306 23.957 47.449 24.032 47.597 24.105C47.597 24.543 48.106 24.323 48.395 24.473C48.545 24.689 48.616 24.835 48.688 25.129V25.129ZM48.616 26.229C48.178 26.229 48.106 26.155 47.815 26.155C47.449 26.155 47.015 26.303 46.794 26.666C46.651 26.374 46.72 26.229 46.794 26.009C47.015 25.792 47.38 25.494 47.669 25.494C48.178 25.493 48.616 25.859 48.616 26.229V26.229ZM50.291 27.835C49.709 27.471 48.836 27.256 48.324 27.256C48.032 27.256 47.16 27.615 46.867 27.909L46.721 27.256C47.16 27.178 47.16 26.815 47.45 26.815C47.671 26.815 47.96 26.737 48.179 26.737C48.397 26.737 48.546 26.594 48.617 26.594C48.98 26.594 48.837 26.96 49.055 26.96C49.272 26.96 49.42 26.814 49.563 26.814C49.928 26.814 50.219 27.398 50.291 27.835V27.835ZM50.512 29.447C50 29.447 49.491 29.301 49.42 29.083C49.272 28.934 49.42 28.643 49.055 28.643C48.907 28.643 48.689 28.86 48.689 28.86C48.545 28.934 48.107 28.643 48.107 28.86C48.107 29.227 47.816 29.375 47.45 29.375C47.307 29.375 47.161 29.375 47.016 29.302V28.57C47.959 28.57 47.891 28.275 48.325 28.275C48.617 28.275 48.837 28.425 49.055 28.425C49.42 28.425 49.2 28.275 49.563 28.275C49.928 28.275 50.075 28.57 50.292 28.644C50.291 28.859 50.512 29.152 50.512 29.447V29.447ZM49.855 31.053C49.634 30.983 49.128 30.911 49.128 30.69C49.128 30.399 48.979 30.325 48.615 30.325C48.323 30.325 48.105 30.399 47.669 30.542C47.669 30.542 47.448 30.255 47.38 29.959C47.523 29.886 48.106 29.739 48.395 29.739C48.906 29.739 49.419 29.739 49.419 29.959C49.42 30.254 49.855 30.324 49.855 31.053V31.053ZM37.129 19.589L36.983 20.321L36.4 20.465L36.765 18.859C36.911 19.149 37.129 19.443 37.129 19.589ZM51.238 33.594C51.238 34.036 51.238 34.182 51.017 34.547L50.58 33.889C50.726 33.668 50.726 33.377 50.948 33.012L51.238 33.594ZM49.491 32.645C48.979 32.645 49.271 31.641 48.178 31.641C47.959 31.641 47.816 31.989 47.524 32.061L47.598 31.569C47.598 31.419 47.67 31.127 47.959 30.983C48.545 30.983 48.396 31.202 48.836 31.354C49.055 31.418 49.199 31.569 49.491 31.569V32.645ZM44.901 28.496C44.25 28.129 43.88 27.471 43.298 26.814C43.88 26.814 44.026 27.398 44.464 27.47C44.611 27.615 44.755 27.691 44.901 27.908V28.496ZM38.656 23.081C38.22 23.081 38 22.86 37.78 22.444C37.78 22.223 37.709 21.93 37.78 21.564C37.929 21.856 37.929 22.001 38.074 22.152C38.366 22.001 38.366 22.369 38.44 22.444C38.514 22.642 38.656 22.86 38.656 23.081V23.081ZM50.727 35.57C50.581 35.79 50.581 35.79 50.512 36.011C50.512 35.644 50.074 35.427 49.782 34.767L50.075 34.257C50.292 34.398 50.582 34.618 50.582 34.984C50.582 34.984 50.513 35.205 50.582 35.349C50.581 35.428 50.727 35.428 50.727 35.57V35.57ZM49.271 33.449C49.271 33.743 49.199 33.814 49.128 34.181C48.615 34.107 48.615 33.523 48.544 33.449C48.177 33.011 47.669 33.377 47.306 33.377C47.16 32.938 47.38 32.938 47.38 32.645C47.597 32.645 47.815 32.499 48.031 32.645C48.394 32.499 48.615 32.864 48.978 32.864C49.055 33.012 49.199 33.377 49.271 33.449V33.449ZM45.557 30.471C45.557 30.764 45.411 30.983 45.487 31.278C45.341 30.837 45.049 30.399 44.902 29.959C44.902 29.886 44.829 29.886 44.975 29.813L45.34 29.885C45.41 30.031 45.557 30.254 45.557 30.471V30.471ZM39.17 24.689C39.092 24.983 38.805 24.689 38.732 24.689H38.075C38 24.543 37.93 24.473 37.93 24.323C38.221 24.253 38.441 24.105 38.657 24.253C38.805 24.473 38.947 24.689 39.17 24.689V24.689ZM40.77 26.373C40.551 26.594 39.971 26.665 39.535 26.303L40.117 26.008C40.334 26.229 40.625 26.303 40.77 26.373ZM44.536 30.541C44.536 30.982 44.465 31.494 44.465 31.988C44.25 31.988 44.25 31.861 44.25 31.568C44.174 31.126 44.026 30.763 43.881 30.324C43.736 29.738 43.373 29.226 43.08 28.568C43.008 28.273 42.662 28.129 42.371 27.909C42.731 27.909 43.08 27.909 43.373 28.201C43.373 28.347 43.444 28.424 43.662 28.642C44.174 28.642 44.026 29.3 44.465 29.593C44.25 29.812 44.174 29.957 44.027 30.101C44.25 30.254 44.465 30.324 44.536 30.541V30.541ZM41.719 28.348C41.719 28.569 41.573 28.643 41.426 28.786C41.426 28.786 41.131 28.425 41.131 28.274C41.131 27.983 41.131 27.836 41.209 27.616C41.426 27.835 41.719 28.129 41.719 28.348ZM48.545 34.984L48.396 35.205C48.033 34.984 47.816 34.915 47.381 34.915C47.381 34.619 47.16 34.258 47.016 34.258C46.578 34.258 46.653 34.547 46.286 34.547L46.94 33.889C47.016 33.743 47.016 33.743 47.161 33.743C47.382 33.889 47.45 33.96 47.671 33.96C47.671 34.107 47.671 34.182 47.599 34.398C47.817 34.546 47.96 34.328 48.108 34.546C48.324 34.619 48.545 34.693 48.545 34.984V34.984ZM42.662 29.958C42.662 30.102 42.447 30.254 42.371 30.254C42.371 30.254 42.01 29.885 41.938 29.518C41.863 29.227 42.153 28.715 42.153 28.715L42.371 28.86C42.447 28.934 42.371 29.153 42.447 29.375C42.662 29.518 42.797 29.813 42.662 29.958V29.958ZM36.983 22.86C36.108 22.369 35.163 22.001 34.069 21.93C34.069 22.152 34.069 22.369 33.998 22.444C34.869 22.86 35.676 23.228 36.4 23.884V24.543C35.675 23.812 34.869 23.081 33.921 22.86C33.849 23.007 33.56 23.156 33.486 23.448C32.997 23.081 32.415 22.719 31.831 22.642C31.614 22.642 31.464 21.856 31.464 21.856C31.831 21.71 32.048 21.49 32.196 21.128H32.487C32.706 21.128 32.706 20.979 32.706 20.76C32.706 20.322 31.757 20.322 31.32 20.322C30.81 20.322 30.446 20.322 30.156 20.539C30.012 20.539 30.081 20.76 30.081 20.907L30.3 21.129C30.446 21.129 30.591 20.98 30.739 20.98C30.667 21.418 30.81 21.637 31.249 21.857L31.179 22.566C30.3 22.566 29.716 22.937 29.063 23.229C28.845 23.082 28.7 22.861 28.552 22.643C27.679 22.937 26.151 24.106 26.151 24.106V23.59C26.804 23.007 27.679 22.718 28.336 22.369V21.856C28.041 21.71 27.754 21.856 27.463 21.856C26.8275 21.9346 26.2239 22.1791 25.713 22.565C25.713 22.369 25.639 22.076 25.639 22.076C26.443 21.636 27.463 21.27 28.41 21.417V21.128C28.336 20.979 28.336 20.76 28.19 20.76C27.753 20.322 27.317 19.665 27.317 19.221L27.608 19.076C27.462 18.639 27.317 17.543 27.608 17.178C27.17 16.956 26.733 16.588 26.587 16.295C26.441 15.931 26.296 15.709 26.222 15.272C26.442 14.833 26.587 14.685 26.804 14.246C26.95 14.246 27.169 14.176 27.24 14.028C27.608 13.956 27.827 13.591 28.261 13.811C28.552 13.811 28.845 13.956 29.063 14.028C29.063 14.176 29.063 14.246 29.21 14.397C29.646 14.397 29.646 14.833 29.861 15.201C30.081 15.272 30.299 15.272 30.446 15.272C30.884 15.419 31.247 15.419 31.395 15.635C31.978 15.272 32.559 15.201 33.213 15.272C33.285 15.052 33.418 14.759 33.485 14.397C33.558 14.61 33.558 14.397 33.702 14.397C33.996 14.176 34.356 13.811 34.867 13.956C35.161 14.176 35.674 14.028 35.965 14.397C36.176 14.685 36.324 15.124 36.545 15.493C36.324 15.931 36.545 16.516 36.106 16.735L35.674 17.178C35.523 17.178 35.523 17.319 35.305 17.319C35.523 17.835 35.377 18.564 35.161 19.076C35.305 19.004 35.522 19.004 35.522 18.786V19.297C35.522 19.666 35.304 20.025 35.013 20.321C34.867 20.759 34.507 21.342 33.995 21.416V21.563C35.085 21.563 35.964 21.855 36.98 22.368V22.86H36.983ZM39.971 27.471L39.606 27.616C38.805 27.616 38.441 27.399 38.075 27.104C38.367 27.104 38.732 26.737 38.732 26.737C39.092 27.104 39.605 27.398 39.971 27.471V27.471ZM37.93 25.791C37.491 25.791 36.984 26.008 36.766 25.567C36.912 25.493 37.057 25.277 37.201 25.129L37.93 25.791ZM43.881 32.645C43.881 33.012 43.444 33.45 43.299 33.744C43.445 33.378 43.445 32.645 43.299 32.645C43.152 32.573 42.861 32.645 42.861 32.499C42.861 32.28 42.936 31.989 42.936 31.862C42.936 31.569 42.732 31.419 42.732 31.278C42.732 30.837 43.227 30.764 43.374 30.471C43.445 30.764 43.445 31.053 43.445 31.418C43.445 31.568 43.663 31.988 43.445 32.354C43.444 32.572 43.881 32.424 43.881 32.645V32.645ZM42.227 31.861C42.227 32.279 41.939 32.644 41.864 33.085C41.864 32.645 41.792 32.279 41.498 31.988C41.498 31.861 41.72 31.861 41.574 31.64C41.574 31.64 41.132 31.417 41.132 31.125C41.132 30.835 41.427 30.617 41.574 30.397C41.574 30.323 41.864 30.54 41.864 30.981C41.864 31.051 41.864 31.276 41.792 31.417C41.719 31.641 42.227 31.641 42.227 31.861V31.861ZM36.18 26.665C35.817 26.736 35.526 26.373 35.163 26.228C35.016 25.79 35.016 25.348 34.869 25.129C35.163 25.348 35.815 25.348 35.676 26.007C35.676 26.229 35.967 26.373 36.18 26.665V26.665ZM38.221 28.715C37.93 28.715 37.418 28.715 37.129 28.495C36.692 28.273 36.549 28.129 36.326 27.908C36.619 27.691 36.983 27.691 37.129 27.615C37.418 27.908 37.709 28.424 38.221 28.715V28.715ZM25.932 17.393L25.424 17.543L25.494 17.178C25.639 16.956 25.713 16.735 25.932 16.516V17.393ZM35.307 27.615C35.016 27.691 34.51 27.835 34.359 27.47C33.922 26.814 34.141 26.228 34.359 25.714C34.51 26.154 34.579 26.593 34.649 26.96C34.725 27.256 35.163 27.398 35.307 27.615V27.615ZM33.215 23.59C33.143 24.031 32.998 24.689 32.561 24.982C32.561 24.689 32.416 24.543 32.268 24.323L32.198 24.543C32.198 24.689 32.05 24.982 32.05 25.277C31.907 25.348 31.616 25.493 31.322 25.348V25.129C31.251 24.982 31.251 24.689 31.251 24.543L31.181 24.473C30.962 24.543 30.962 24.689 30.962 24.835C30.886 24.982 30.741 25.129 30.741 25.348C30.448 25.348 30.302 25.277 30.083 25.129V24.473C30.083 24.323 30.083 24.323 30.015 24.323L29.648 24.689C29.357 24.473 29.284 23.884 29.284 23.518C30.449 22.86 31.908 23.081 32.782 23.448C32.924 23.518 33.069 23.518 33.215 23.59V23.59ZM36.983 29.518H36.765C35.966 29.813 35.306 29.301 34.648 28.86C35.015 28.715 35.525 28.643 35.966 28.643L36.179 29.082C36.4 29.152 36.766 29.373 36.983 29.518V29.518ZM26.078 18.419L25.713 18.858C25.788 19.588 25.494 20.099 25.494 20.759L25.131 19.588C25.205 19.296 25.276 19.003 25.494 18.638L26.078 18.419V18.419ZM33.561 27.908C33.215 27.691 32.561 27.615 32.707 27.178C32.85 26.815 33.069 26.737 33.215 26.594C33.287 27.104 33.356 27.471 33.561 27.908ZM40.334 35.428H40.258C40.116 35.205 40.043 34.985 39.895 34.985C40.117 34.182 39.678 33.524 39.535 32.864V32.645C39.755 33.012 40.335 33.377 40.259 33.743C40.334 34.398 40.334 34.984 40.334 35.428V35.428ZM38.656 32.645C38.295 32.645 38 32.645 37.78 32.28C37.709 32.28 37.562 32.061 37.49 32.206C37.129 32.499 36.765 31.989 36.326 32.061C36.113 32.2893 35.8321 32.4429 35.525 32.499V32.425C35.525 32.206 35.675 31.989 35.966 31.862C36.4 31.989 36.765 31.053 37.199 31.569C37.417 31.641 37.636 31.641 37.779 31.641C38.295 31.861 38.44 32.279 38.656 32.645V32.645ZM31.979 26.736C31.979 27.256 31.906 27.908 31.396 28.129L31.25 27.399C31.465 27.256 31.687 27.104 31.979 26.736ZM34.432 29.958C34.289 30.102 33.85 30.252 33.561 30.252C33.143 29.885 32.85 29.447 32.416 28.859L33.561 29.082C33.777 29.227 34.215 29.738 34.432 29.958ZM38.805 34.107C38.514 33.888 38.075 33.888 37.93 33.523C37.637 33.449 37.418 33.449 37.057 33.449C36.766 33.523 36.401 33.523 36.109 33.523C36.035 33.523 36.109 33.449 35.967 33.377C35.526 33.523 35.088 33.523 34.649 33.96L35.016 33.085C35.307 33.085 35.526 32.938 35.676 32.938C35.967 32.864 36.18 32.864 36.401 32.864V32.938C37.201 32.938 38.15 32.864 38.732 33.524L38.805 34.107V34.107ZM30.447 27.908C30.013 27.47 29.646 27.103 29.646 26.665C29.862 26.665 30.082 26.665 30.3 26.814C30.301 27.178 30.447 27.471 30.447 27.908V27.908ZM29.063 25.79L28.845 26.736C28.628 26.302 28.408 25.859 28.335 25.348L29.063 25.79V25.79ZM39.534 35.645C39.4154 35.9305 39.3178 36.2243 39.242 36.524C39.092 36.085 38.947 35.428 38.44 35.428C38.366 35.133 38.294 34.985 38 34.768L37.418 34.694C37.49 34.985 37.93 34.985 37.637 35.428C37.93 35.645 38.15 35.645 38.295 36.012C38.441 36.231 38.295 36.524 38.366 36.67L37.929 36.887C37.929 36.524 37.999 35.789 37.49 35.645C37.056 35.79 36.983 35.206 36.692 34.985C36.548 34.985 36.548 34.62 36.326 34.768C35.967 34.985 35.525 34.768 35.163 34.985L35.525 34.399C35.816 34.182 36.108 34.258 36.4 34.182L36.983 34.108C37.562 34.108 38.074 34.399 38.656 34.62C38.947 34.768 39.092 34.985 39.092 35.35C39.242 35.428 39.534 35.428 39.534 35.645V35.645ZM33.705 32.205H33.56C33.487 32.205 32.997 31.988 32.849 31.861C32.78 31.64 32.78 31.418 32.78 31.418H33.356L33.705 32.205V32.205ZM28.117 26.959C27.679 26.814 27.17 26.373 26.95 26.008C26.8179 25.7334 26.744 25.4345 26.733 25.13C27.027 25.13 27.241 25.349 27.318 25.494V25.568C27.68 26.008 28.041 26.373 28.117 26.959ZM31.615 29.518C31.541 29.958 31.321 30.102 30.961 30.619C30.74 30.765 30.301 30.837 29.863 31.054C29.937 30.837 30.157 30.765 30.301 30.542C30.447 30.325 30.74 29.959 30.812 29.739C31.18 29.518 31.321 29.518 31.615 29.518V29.518ZM36.983 36.67L36.765 36.887C36.548 36.67 36.692 36.084 36.326 36.012C35.967 36.012 35.676 35.645 35.525 35.571L35.816 35.428C35.816 35.428 35.966 35.35 36.108 35.428C36.254 35.571 36.4 35.645 36.4 35.789C36.548 36.012 36.765 35.789 36.911 36.012C36.983 36.23 37.057 36.523 36.983 36.67ZM30.301 28.934C30.082 29.373 29.863 29.813 29.43 29.958C29.211 29.958 28.846 30.102 28.409 29.958C28.629 29.812 28.846 29.738 29.138 29.518L29.716 28.934H30.301ZM31.758 32.279C31.465 32.498 31.25 32.498 30.885 32.424L30.447 31.861H31.541L31.758 32.279V32.279ZM26.442 26.736C26.078 27.103 25.713 27.256 25.565 27.691C25.565 27.47 25.494 27.255 25.423 27.103C25.493 26.814 25.712 26.665 25.787 26.593C26.006 26.665 26.151 26.665 26.442 26.736V26.736ZM27.318 27.835C27.318 28.129 27.17 28.495 26.804 28.859L26.513 29.082C26.513 28.643 26.733 28.273 26.733 27.908C26.95 27.835 27.17 27.691 27.318 27.835V27.835ZM28.336 28.715L28.041 29.813C27.68 30.102 27.17 29.959 26.733 29.959C27.318 29.813 27.754 29.153 28.041 28.716C28.117 28.643 28.19 28.715 28.336 28.715ZM28.7 32.424C28.7 32.645 28.629 33.524 28.629 33.524C28.481 33.012 28.117 32.498 27.68 32.498C27.463 32.28 27.242 32.061 27.17 31.862C26.95 31.641 26.733 31.862 26.442 31.641C26.152 31.641 25.789 31.641 25.494 31.862V31.641L26.006 31.053C26.514 31.126 27.17 31.053 27.319 31.418C27.68 31.641 28.042 31.861 28.118 31.988V32.205C28.262 32.279 28.553 32.354 28.7 32.424V32.424ZM28.336 34.693L27.827 35.205C27.68 34.984 27.827 34.619 27.609 34.398C27.609 34.257 27.754 34.181 27.679 34.107C27.609 33.96 26.733 33.668 26.733 33.668C26.442 33.449 26.078 33.229 25.789 32.938C25.494 32.864 25.275 33.012 24.91 33.084V32.938C25.058 32.645 25.058 32.28 25.494 32.28C25.713 32.28 26.006 32.28 26.152 32.498C26.442 32.498 26.588 32.791 26.804 32.864C27.169 33.229 27.462 33.378 27.679 33.524C27.679 33.743 27.753 33.889 27.898 33.961C28.336 33.96 28.19 34.398 28.336 34.693V34.693ZM27.241 35.789L27.027 36.523L26.513 35.205C25.931 34.619 25.275 34.547 24.909 34.258C24.619 34.182 24.619 34.399 24.475 34.258C24.475 34.108 24.475 33.889 24.689 33.668H25.129L25.564 33.889C25.788 34.108 26.295 34.108 26.295 34.547C26.295 34.619 26.221 34.693 26.441 34.985L27.169 35.206L27.241 35.789V35.789ZM25.205 36.523C25.205 37.107 24.258 37.914 24.258 37.914C24.258 37.549 24.477 37.107 24.477 36.67C24.477 36.67 24.184 36.375 23.911 36.375C23.699 36.523 23.699 36.67 23.623 36.887C23.407 37.328 22.964 37.764 22.895 38.207L22.824 38.133C22.824 37.399 22.895 36.156 23.331 35.645C23.699 35.206 23.981 35.206 24.402 35.133L24.768 35.205L24.477 35.644C24.768 35.789 25.205 36.084 25.205 36.523V36.523ZM22.676 36.084C22.676 36.375 22.604 36.67 22.456 36.887C22.385 36.596 22.168 36.231 21.801 36.231C21.51 36.815 21.434 37.032 21.729 37.915C21.51 38.134 21.363 38.208 21.074 38.354C20.928 38.059 20.928 37.549 20.928 37.254C20.928 36.743 21 36.231 21.147 35.789C21.363 35.57 21.51 35.205 21.729 34.984H22.529C22.169 34.984 22.169 35.349 22.169 35.57C22.385 35.645 22.676 35.719 22.676 36.084V36.084ZM20.78 36.887C20.707 36.887 20.491 36.67 20.271 36.67C20.052 37.108 20.271 37.399 20.271 37.914C20.271 38.133 20.199 38.353 20.199 38.353C20.053 38.353 19.761 38.058 19.688 37.763V36.595L20.343 35.788C20.78 36.084 20.928 36.523 20.78 36.887V36.887ZM35.815 16.516C35.966 16.151 35.966 15.493 35.675 15.124C35.524 14.833 35.162 14.685 34.8 14.397L34.288 14.685C33.997 14.833 33.849 15.124 33.849 15.493C34.358 15.709 34.869 16.295 35.087 16.735H35.306C35.524 16.516 35.676 16.735 35.815 16.516ZM33.356 16.956C33.356 16.735 33.287 16.735 33.214 16.735C32.847 16.735 32.847 16.151 32.56 16.296C32.414 16.296 32.267 16.151 32.048 16.296C32.048 16.37 32.048 16.37 32.196 16.37C32.559 16.37 32.413 16.883 32.706 16.957H33.356V16.956ZM34.51 17.835C34.51 17.835 34.649 17.835 34.51 17.761L32.924 17.543C32.78 17.761 32.414 17.761 32.414 17.98H32.268C32.416 18.564 32.416 19.221 32.416 19.884C32.707 19.955 32.998 20.1 32.998 20.539C33.287 20.688 33.561 20.76 33.85 20.979C33.998 20.907 34.07 20.688 34.141 20.465C33.85 20.1 33.215 20.322 33.215 19.666L32.78 19.518C32.78 19.076 32.78 18.639 32.707 18.344L32.78 18.273C32.78 18.344 32.849 18.419 32.998 18.564C33.287 18.564 33.561 18.639 33.85 18.419C33.998 18.344 33.998 17.98 34.141 17.98C34.289 17.98 34.432 17.98 34.51 17.835V17.835ZM30.885 16.295C30.74 16.15 30.301 16.369 30.082 16.441C29.793 16.515 29.571 16.734 29.571 16.955H30.377C30.447 16.735 30.74 16.442 30.885 16.295ZM29.282 15.493C29.211 14.759 28.409 14.685 28.041 14.397H27.754C27.17 14.61 27.026 15.201 26.95 15.709C27.17 16.369 27.608 15.931 27.898 16.369C28.19 16.151 28.916 15.635 29.282 15.493V15.493ZM33.561 22.223V21.856H32.85L32.78 21.93L33.561 22.223V22.223ZM30.301 17.98C30.301 17.835 30.157 17.69 29.938 17.543H28.19C28.19 17.835 28.409 17.98 28.628 17.98C28.628 18.273 28.845 18.344 28.915 18.419C29.136 18.564 29.21 18.564 29.429 18.419C29.646 18.564 29.716 18.273 29.792 18.419C29.792 18.858 29.792 19.076 29.716 19.442C29.646 19.954 29.21 19.883 28.845 20.099C28.845 20.321 28.628 20.687 28.845 20.906C29.063 20.76 29.21 20.687 29.571 20.538C29.571 20.321 29.793 20.099 30.082 19.954C30.082 19.297 30.301 18.639 30.301 17.98V17.98ZM29.717 21.856C29.571 21.564 29.211 21.856 28.846 21.71C28.846 21.856 28.846 22.001 29.064 22.152C29.282 21.93 29.646 21.856 29.717 21.856" fill="#FF6200"></path></svg> 