<?xml version="1.0" encoding="UTF-8"?> <svg xmlns="http://www.w3.org/2000/svg" width="80" height="80" viewBox="0 0 80 80" fill="none"><rect width="80" height="80" fill="#F27421"></rect><path fill-rule="evenodd" clip-rule="evenodd" d="M10 52.5766C9.99638 50.762 10.6525 49.203 11.9543 47.8983C13.2617 46.5979 14.8204 45.9443 16.6365 45.9443C18.4724 45.9443 20.0466 46.5979 21.345 47.8983C22.6463 49.203 23.294 50.762 23.2981 52.5766C23.3029 54.4113 22.6535 55.9844 21.3467 57.2896C20.0425 58.5871 18.467 59.2383 16.6322 59.2383C14.8156 59.2383 13.2593 58.5871 11.9592 57.2896C10.6621 55.9844 10.0078 54.4113 10 52.5766Z" fill="white"></path><path fill-rule="evenodd" clip-rule="evenodd" d="M65.7142 36.3446H65.7099V22.4617C65.7099 21.8164 65.1862 21.291 64.5349 21.291H54.5494C53.9022 21.291 53.3755 21.8164 53.3755 22.4617V36.7757C53.3809 40.7743 52.7363 42.9532 51.5786 44.7895C50.4221 46.6283 48.0834 48.5942 45.5951 48.5942C40.2354 48.5942 40.737 42.9435 40.737 38.5306V37.4148L40.755 23.1452V22.4617C40.755 21.8164 40.2281 21.291 39.5806 21.291L25.7071 21C24.7302 21 23.8438 21 23.8438 22.609V26.7679C23.8438 28.9407 24.9846 30.6935 28.8281 30.7845V31.0909H28.8241L28.8101 44.7249C28.7946 46.4464 28.927 48.0195 29.1986 49.437C29.6872 51.9487 30.6192 53.5625 31.9977 55.1458C34.0623 57.5209 37.1179 58.7181 41.1201 58.7779V58.7827C41.2278 58.7827 41.3212 58.8067 41.432 58.8067C44.3387 58.8067 46.7462 58.3182 48.6503 57.3412C53.3755 54.9158 54.3423 52.1475 54.3948 52.0922H54.8134V53.5718C54.9498 56.2901 55.8933 58.2271 57.9625 58.2271H64.3943C65.9996 58.2271 65.9996 57.3412 65.9996 56.3644C65.9996 56.3644 65.7501 53.6247 65.7142 36.3446Z" fill="white"></path></svg> 