<?xml version="1.0" encoding="UTF-8"?> <svg xmlns="http://www.w3.org/2000/svg" width="80" height="80" viewBox="0 0 80 80" fill="none"><rect width="80" height="80" fill="#F5F8FA"></rect><path fill-rule="evenodd" clip-rule="evenodd" d="M27.9769 21.2263C31.2321 18.539 35.4287 17.0138 39.6514 17.0007C43.2669 16.9687 46.8824 18.035 49.9097 20.0134C54.2936 22.8489 57.4356 27.5553 58.2636 32.7207C58.5701 34.5496 58.5366 36.4118 58.5381 38.2609C58.5381 45.7651 58.5352 53.2678 58.5396 60.7719C55.598 60.7777 52.658 60.7806 49.7179 60.769C49.7223 52.4456 49.7165 44.1222 49.7223 35.7988C49.7905 33.1158 48.6198 30.459 46.6849 28.6171C45.0304 27.0265 42.8123 26.0315 40.523 25.8688C37.9083 25.6538 35.2312 26.5472 33.2483 28.2598C31.0898 30.1133 29.7563 32.9357 29.8202 35.7915C29.8246 44.1178 29.8187 52.4441 29.8231 60.7705C26.8816 60.7632 23.9401 60.8024 21 60.7661C21.0073 52.5865 21.0015 44.4083 21.003 36.2288C21.0552 34.9156 21.09 33.5937 21.353 32.3024C22.1578 27.978 24.5676 23.995 27.9768 21.2263H27.9769ZM38.4138 54.6216C39.5788 54.3601 40.8208 54.4328 41.9393 54.854C43.7463 55.5048 45.2003 57.0474 45.7552 58.885C46.3116 60.6571 46.0385 62.6777 44.9868 64.216C43.4412 66.6215 40.1337 67.663 37.4929 66.5605C35.449 65.7674 33.8758 63.8441 33.581 61.6638C33.4081 60.6876 33.5374 59.6766 33.8454 58.7397C34.5164 56.7003 36.3162 55.0792 38.4138 54.6216" fill="#31AD4F"></path></svg> 