<?xml version="1.0" encoding="UTF-8"?> <svg xmlns="http://www.w3.org/2000/svg" width="80" height="80" viewBox="0 0 80 80" fill="none"><rect width="80" height="80" fill="#F2F0F1"></rect><path d="M24.6315 29H16.1147V29.7097H18.8444V43.7953C18.8444 47.9992 17.6433 49.2003 15.0228 49.2003C14.0401 49.3094 13.1665 48.5997 13.0573 47.617C13.0573 47.5078 13.0573 47.3986 13.0573 47.2894C13.0573 45.7608 12.9481 44.8326 11.5833 44.8326C10.2184 44.8326 10 46.2521 10 46.6889C10 48.6543 10.8735 50.1284 14.7498 50.1284C19.3904 50.1284 21.8472 48.5997 21.8472 43.4132V29.7097H24.6861L24.6315 29Z" fill="#503629"></path><path d="M36.0418 29H27.6341V29.7097H30.0909V45.7608C30.1455 46.4159 30.0909 47.071 29.8725 47.7262C29.6541 48.1629 29.272 48.5451 28.8352 48.6543C28.3439 48.8181 27.7979 48.9273 27.252 48.9273V49.5824H36.151V48.9273C35.5504 48.9273 35.0045 48.8727 34.4585 48.7089C33.9672 48.5451 33.585 48.2175 33.4212 47.7808C33.2574 47.344 33.1482 46.9073 33.2028 46.4705V40.9018H35.4412C41.8835 40.9018 43.6851 38.3358 43.6851 34.8963C43.6851 31.4568 42.5386 29 36.0418 29ZM34.8407 40.0828H33.1482V29.8189H34.6769C39.6451 29.8189 40.8462 31.839 40.8462 35.1147C40.8462 38.3904 38.8807 40.192 34.9499 40.192" fill="#503629"></path><path d="M67.543 47.6717C67.3792 47.2349 67.3246 46.7436 67.3792 46.2522V29.7098H69.6176V29.0547H64.3218L57.8796 44.7235C57.8796 44.7781 57.825 44.8327 57.7704 44.8327C57.7158 44.8327 57.6612 44.7781 57.6066 44.7235C57.6066 44.7235 50.946 29.2185 50.8914 29.0547H44.9951V29.7098H47.5611V47.1257C47.5611 47.5079 47.3973 47.8355 47.2335 48.163C47.0151 48.4906 46.6876 48.709 46.3054 48.8182C45.9232 48.9274 45.4865 48.9274 45.1043 48.9274V49.5825H50.946V48.9274C50.5638 48.9274 50.2363 48.8728 49.9087 48.7636C49.4719 48.6544 49.1444 48.436 48.8714 48.1084C48.653 47.7809 48.5438 47.4533 48.4892 47.0711L48.4346 45.5971V31.839H48.7622C48.7622 31.839 56.3509 49.3641 56.3509 49.5825H57.0607L64.2127 32.0028H64.3764V46.143C64.3764 46.6344 64.3218 47.1257 64.2127 47.6171C64.0489 48.0538 63.7213 48.3814 63.3391 48.5452C62.8478 48.709 62.3564 48.8182 61.8651 48.8182V49.4733H69.9998V48.8182C69.5084 48.8182 68.9624 48.709 68.4711 48.5452C68.0343 48.3268 67.7068 47.9447 67.543 47.5079" fill="#503629"></path></svg> 