<?xml version="1.0" encoding="UTF-8"?> <svg xmlns="http://www.w3.org/2000/svg" width="80" height="80" viewBox="0 0 80 80" fill="none"><rect width="80" height="80" fill="#F5F8FA"></rect><path d="M10 6H26.8974V25.432L10 49.9333V6Z" fill="#34713A"></path><path d="M45.907 6L14.2244 52.4679H16.759L48.0192 6H45.907Z" fill="#34713A"></path><path d="M50.1314 6L18.4487 52.4679H20.9833L52.2436 6H50.1314Z" fill="#34713A"></path><path d="M54.3558 6L22.6731 52.4679H25.2077L56.4679 6H54.3558Z" fill="#34713A"></path><path d="M41.6827 6L10 52.4679H12.5346L43.7949 6H41.6827Z" fill="#34713A"></path><path d="M39.5705 58.3812C21.9972 56.0156 12.5346 58.8037 10 60.4934V70.6318C20.8144 61.5072 40.4154 68.8013 48.8641 73.5889C66.4374 70.2094 70.2675 59.2261 69.9859 54.1568C69.31 43.0045 59.8474 37.4003 55.2006 35.9922C45.7381 33.6266 41.4011 36.9779 40.4154 38.9493C51.5677 41.3149 53.5109 47.2572 53.0885 49.9326C51.7367 57.3675 43.5132 58.6629 39.5705 58.3812Z" fill="#1E3D6D"></path><path d="M40.4154 48.6652L47.1744 40.6389L50.9763 42.7511L40.4154 48.6652Z" fill="#1E3D6D"></path><path d="M68.7186 27.9658L53.9333 35.9922L59.0026 38.5267L68.7186 27.9658Z" fill="#1E3D6D"></path></svg> 