<?xml version="1.0" encoding="UTF-8"?> <svg xmlns="http://www.w3.org/2000/svg" width="80" height="80" viewBox="0 0 80 80" fill="none"><rect width="80" height="80" fill="white"></rect><path d="M6 75.2628C13.8951 73.9996 19.8164 71.0521 21.7901 69.7363C23.6849 70.9994 25.2113 70.789 25.7377 70.5259C30.4747 72.4207 26.1324 77.6315 23.3691 80C31.58 80 42.0541 79.2105 46.2648 78.8157C53.5283 76.2893 61.9234 77.7631 65.213 78.8157C57.0021 72.4997 56.7916 69.0785 57.7127 68.1574C53.923 61.2097 56.1337 55.7885 57.7127 53.9463C61.8181 42.2616 58.6338 33.5507 56.5284 30.6558C57.7127 32.1033 60.1602 35.0771 60.476 35.3929C61.7392 40.4457 61.2655 51.7092 60.8707 56.7094C60.2391 64.9202 66.1341 66.7099 69.1605 66.5784C67.5815 64.0521 67.1868 61.3151 67.1868 60.2623C67.5026 55.5253 69.95 50.6567 71.1343 48.8145C78.082 28.9189 71.9238 15.7867 67.9763 11.7075C51.5545 -6.92483 25.0797 0.786015 13.8951 6.97048L22.5796 25.9186C16.2636 36.0243 9.94753 48.0248 7.57901 52.7619L11.5265 56.7094C8.05272 64.2887 6.39475 72.2364 6 75.2628Z" fill="#051B4D"></path></svg> 