<?xml version="1.0" encoding="UTF-8"?> <svg xmlns="http://www.w3.org/2000/svg" width="80" height="80" viewBox="0 0 80 80" fill="none"><rect width="80" height="80" fill="#4665AE"></rect><path d="M51.9126 24.9502C53.4901 24.9502 54.8911 25.2922 56.1154 25.9761C57.3398 26.6365 58.2934 27.5681 58.9762 28.7709C59.659 29.9737 60.0004 31.3298 60.0004 32.8391C60.0004 35.1504 59.2352 37.0489 57.7047 38.5347C56.1978 40.0205 54.2671 40.7634 51.9126 40.7634H42.2002V16H58.0579V20.8819H47.4626V24.9502H51.9126ZM51.4535 35.8461C52.3482 35.8461 53.0781 35.5631 53.6432 34.9971C54.2318 34.4311 54.5261 33.7118 54.5261 32.8391C54.5261 32.4146 54.4437 32.0137 54.2789 31.6363C54.1376 31.259 53.9375 30.9406 53.6785 30.6812C53.4195 30.4218 53.0899 30.2213 52.6896 30.0798C52.3129 29.9147 51.9008 29.8322 51.4535 29.8322H47.4626V35.8461H51.4535Z" fill="white"></path><path d="M40.812 37.0801C42.3896 37.0801 43.7905 37.4221 45.0148 38.106C46.2392 38.7664 47.1928 39.6979 47.8756 40.9007C48.5584 42.1035 48.8998 43.4596 48.8998 44.969C48.8998 47.2803 48.1346 49.1788 46.6042 50.6646C45.0973 52.1504 43.1665 52.8933 40.812 52.8933H31.0996V28.1299H46.9573V33.0118H36.362V37.0801H40.812ZM40.3529 47.976C41.2476 47.976 41.9775 47.693 42.5426 47.127C43.1312 46.561 43.4255 45.8416 43.4255 44.969C43.4255 44.5445 43.3431 44.1436 43.1783 43.7662C43.037 43.3889 42.8369 43.0705 42.5779 42.8111C42.3189 42.5516 41.9893 42.3512 41.589 42.2097C41.2123 42.0446 40.8002 41.962 40.3529 41.962H36.362V47.976H40.3529Z" fill="white"></path><path d="M40.6256 63.0007H34.0918L25.3683 50.902V63.0007H20V38.2373H25.3683V49.6639L33.4561 38.2373H39.7074L31.2664 50.0884L40.6256 63.0007Z" fill="white"></path></svg> 