<?xml version="1.0" encoding="UTF-8"?> <svg xmlns="http://www.w3.org/2000/svg" width="80" height="80" viewBox="0 0 80 80" fill="none"><rect x="0.000976562" width="80" height="80" fill="#F5F8FA"></rect><path d="M70 38.4875C70.004 40.349 69.6387 42.1929 68.9251 43.9123C68.2116 45.6317 67.164 47.1924 65.843 48.5042L52.404 61.9599L50.1335 64.2137L40.3172 54.3973L30.5008 64.2137H22.0033L40.3673 45.8497L50.1836 55.6661L61.6527 44.2971C62.4146 43.5298 63.0178 42.62 63.428 41.6195C63.8382 40.619 64.0474 39.5476 64.0435 38.4663C64.0396 37.385 63.8228 36.3151 63.4054 35.3176C62.9881 34.3201 62.3783 33.4146 61.611 32.6527C60.8437 31.8909 59.9338 31.2877 58.9333 30.8774C57.9329 30.4672 56.8614 30.2581 55.7801 30.262C54.6989 30.2659 53.6289 30.4827 52.6314 30.9C51.6339 31.3174 50.7284 31.9272 49.9666 32.6945L42.3038 40.3573L40.3005 42.3606L22.4708 24.4474V16L40.3506 33.8798L45.7763 28.4708C47.7584 26.4908 50.2829 25.1427 53.0309 24.5967C55.7788 24.0507 58.627 24.3314 61.2155 25.4033C63.804 26.4751 66.0168 28.2901 67.5744 30.6189C69.1319 32.9476 69.9644 35.6858 69.9666 38.4875H70ZM38.5476 44.1469L18.5142 64.1803H10L34.3072 39.9065L38.5476 44.1469V44.1469Z" fill="#348D36"></path></svg> 