<?xml version="1.0" encoding="UTF-8"?> <svg xmlns="http://www.w3.org/2000/svg" width="80" height="80" viewBox="0 0 80 80" fill="none"><rect width="80" height="80" fill="#F5F8FA"></rect><path d="M33.4385 33.135C33.1204 30.59 35.1617 25.1819 36.2221 22.7959H21.1111V55.8016H28.6666L24.69 52.2227V29.5561H27.4736C28.7461 32.7374 31.9804 33.2676 33.4385 33.135Z" fill="#284583"></path><path d="M8.78362 33.135C9.10174 30.59 7.06043 25.1819 6 22.7959H21.1111V55.8016H13.5555L17.5321 52.2227V29.5561H14.7485C13.476 32.7374 10.2417 33.2676 8.78362 33.135Z" fill="#284583"></path><path d="M55.7065 22H52.5252V25.5789L44.9697 30.7485L40.1977 46.6549L35.8235 36.3157H29.4609L35.8235 55.8011H37.4141V57.3917L34.2329 58.9823L37.8118 62.9589L34.2329 66.1402L39.8001 70.5145L44.9697 66.1402L41.3907 62.9589L44.572 58.9823L42.186 57.3917V55.8011H44.1743C46.958 48.2455 52.5252 32.9754 52.5252 32.3391C52.5252 31.7029 54.646 29.1579 55.7065 27.9649V22Z" fill="#284583"></path><path d="M63.2628 22.3975H73.9996V24.3858L72.0113 26.7717L71.216 33.5319C68.0347 33.5319 66.9743 29.5553 66.8417 27.567C63.3423 27.8852 60.8768 32.7366 60.0815 35.1226L72.409 41.0875L72.0113 54.6079L70.023 56.1985H51.333V55.0055L53.3213 53.4149V34.3272C55.5482 30.8278 60.8768 24.916 63.2628 22.3975Z" fill="#284583"></path><path d="M59.6836 51.8237V41.0869L65.6485 44.6658L66.0461 51.8237H59.6836Z" fill="#F5F8FA"></path></svg> 