<?xml version="1.0" encoding="UTF-8"?> <svg xmlns="http://www.w3.org/2000/svg" width="80" height="80" viewBox="0 0 80 80" fill="none"><rect width="80" height="80" fill="white"></rect><path d="M52.3677 46.6502C52.1905 45.5667 51.8757 44.5096 51.4309 43.504C50.1447 40.5171 47.9444 38.0042 45.1396 36.3188C42.9255 35.0192 40.3953 34.3412 37.8209 34.3577C35.2466 34.3742 32.7254 35.0845 30.5285 36.4123C28.4791 37.6384 26.8155 39.4051 25.7241 41.5143C25.3644 42.2351 25.0626 42.9829 24.8216 43.7506C23.6442 47.441 23.6871 52.4749 25.8272 55.8762C26.5118 57.0173 27.548 57.9114 28.7838 58.4272C29.3987 58.6713 30.0623 58.7715 30.7228 58.7199C31.3833 58.6682 32.0228 58.4662 32.5913 58.1296C34.0266 57.2112 34.3102 55.4681 34.018 53.878C33.6828 51.8882 33.4164 49.9325 34.1641 47.9852C34.3823 47.3487 34.7404 46.7679 35.2127 46.2846C35.5161 46.0111 35.8577 45.782 36.2268 45.6043C37.0051 45.2191 37.8833 45.0768 38.7451 45.1962C39.489 45.3657 40.1819 45.7068 40.7673 46.1914C41.3528 46.6761 41.8143 47.2907 42.1142 47.9852C42.7124 49.3609 43.0251 50.8414 43.0339 52.3389C43.3519 58.8608 41.7704 65.6124 40.0945 71.8963C39.9226 72.5425 39.7421 73.1888 39.5616 73.835C39.4155 74.3282 39.1576 74.949 39.4756 75.4336C39.621 75.6359 39.8247 75.79 40.0601 75.8758C41.0399 76.267 41.8392 75.6717 42.4924 75.0255C46.3514 71.182 48.8267 66.2246 50.5199 61.1312C51.1652 59.2292 51.6792 57.286 52.0583 55.315C52.6498 52.4754 52.7515 49.5573 52.3591 46.6842" fill="#057F71"></path><path d="M80 16.5398C79.9925 16.3178 79.9398 16.0996 79.845 15.8983C79.7502 15.697 79.6152 15.5167 79.4483 15.3682C79.2814 15.2197 79.0858 15.1061 78.8735 15.0342C78.6611 14.9623 78.4362 14.9335 78.2123 14.9497C77.2671 15.0887 76.3503 15.3757 75.4964 15.8C58.5218 22.1944 39.3985 23.4529 21.4699 20.8509C18.4016 20.4173 15.3075 19.805 12.222 19.3288C10.2968 19.0312 8.39734 18.6061 6.44634 18.4785C4.79615 18.3595 2.73342 18.3 1.39264 19.4394C-0.403657 20.9104 -0.274736 23.7675 0.722252 25.6638C2.04173 27.8783 3.94641 29.6951 6.23147 30.9187C8.34577 32.1772 10.8898 33.5122 13.4253 33.3507C20.2667 32.9198 27.088 32.2679 33.8893 31.3949C45.4836 29.9069 57.6365 28.4953 68.526 24.0481C72.1367 22.639 75.5415 20.7603 78.6506 18.4615C79.2093 18.0449 80 17.3561 80 16.5653" fill="#057F71"></path><path d="M31.2939 10.8087C31.2939 12.5666 31.9998 14.2526 33.2562 15.4956C34.5126 16.7386 36.2167 17.437 37.9935 17.437C39.7704 17.437 41.4744 16.7386 42.7309 15.4956C43.9873 14.2526 44.6931 12.5666 44.6931 10.8087C44.6903 10.2618 44.5671 9.72213 44.3321 9.2271C43.7219 7.99413 43.0859 7.40741 43.1461 5.97887C43.2234 4.00612 40.7138 4.00612 39.3558 4.00612C37.8509 3.9532 36.3539 4.24417 34.9811 4.85644C33.9134 5.38859 33.0085 6.19286 32.3597 7.18633C31.6925 8.19988 31.3263 9.37832 31.3025 10.5876C31.2983 10.6386 31.2983 10.6897 31.3025 10.7407" fill="#CA1235"></path></svg> 