<?xml version="1.0" encoding="UTF-8"?> <svg xmlns="http://www.w3.org/2000/svg" width="80" height="80" viewBox="0 0 80 80" fill="none"><rect width="80" height="80" fill="#F5F8FA"></rect><path fill-rule="evenodd" clip-rule="evenodd" d="M53.4222 47.1775C55.4655 47.1775 57.1227 48.8519 57.1227 50.9147C57.1227 52.9802 55.4655 54.654 53.4222 54.654C51.7966 54.654 50.4147 53.5911 49.9178 52.116H39.7265H29.3126C28.742 53.4367 27.436 54.3603 25.9191 54.3603C23.8758 54.3603 22.2217 52.6873 22.2217 50.6209C22.2217 48.5581 23.8758 46.8846 25.9191 46.8846C26.1965 46.8846 26.4687 46.9167 26.7292 46.9754L31.7589 38.1735L36.9954 29.0108C36.4047 28.348 36.0439 27.4705 36.0439 26.5104C36.0439 24.4459 37.7001 22.7705 39.7434 22.7705C41.7857 22.7705 43.445 24.4459 43.445 26.5104C43.445 27.4825 43.0769 28.3698 42.4735 29.0357L47.6952 38.1735L52.8641 47.2193C53.0466 47.1915 53.2323 47.1775 53.4222 47.1775ZM28.5057 47.9481C29.0753 48.5104 29.4667 49.2578 29.5838 50.0937H39.7265H49.8113C49.9906 49.293 50.4231 48.5885 51.0191 48.0729L45.9514 39.2013L40.754 30.1088C40.4333 30.2007 40.0936 30.2486 39.7434 30.2486C39.3826 30.2486 39.0345 30.1967 38.7054 30.0992L33.5027 39.2013L28.5057 47.9481Z" fill="#273981"></path><path fill-rule="evenodd" clip-rule="evenodd" d="M40 5L54.9995 13.7504L70 22.5004V40.0002V57.5001L54.9995 66.2502L40 75L24.9995 66.2502L10 57.5001V40.0002V22.5004L24.9995 13.7504L40 5Z" fill="#273981"></path><path fill-rule="evenodd" clip-rule="evenodd" d="M15.2446 54.2927L38.6062 67.8499L39.6158 66.077L17.2152 53.0782V26.2061H15.2246V54.2474H15.27L15.2446 54.2927Z" fill="white"></path><path fill-rule="evenodd" clip-rule="evenodd" d="M64.2618 25.6755L40.8992 12.1182L39.8896 13.891L62.2902 26.8897V53.7621H64.2808V25.7206H64.2355L64.2618 25.6755Z" fill="white"></path><path fill-rule="evenodd" clip-rule="evenodd" d="M53.4222 45.4207C55.4655 45.4207 57.1227 47.0949 57.1227 49.1577C57.1227 51.2234 55.4655 52.8971 53.4222 52.8971C51.7966 52.8971 50.4147 51.8343 49.9178 50.3592H39.7265H29.3126C28.742 51.6799 27.436 52.6035 25.9191 52.6035C23.8758 52.6035 22.2217 50.9305 22.2217 48.8641C22.2217 46.8013 23.8758 45.1278 25.9191 45.1278C26.1965 45.1278 26.4687 45.1599 26.7292 45.2185L31.7589 36.4166L36.9954 27.254C36.4047 26.5912 36.0439 25.7136 36.0439 24.7536C36.0439 22.6891 37.7001 21.0137 39.7434 21.0137C41.7857 21.0137 43.445 22.6891 43.445 24.7536C43.445 25.7257 43.0769 26.613 42.4735 27.2789L47.6952 36.4166L52.8641 45.4624C53.0466 45.4347 53.2323 45.4207 53.4222 45.4207ZM28.5057 46.1911C29.0753 46.7535 29.4667 47.501 29.5838 48.3369H39.7265H49.8113C49.9906 47.5361 50.4231 46.8316 51.0191 46.316L45.9514 37.4445L40.754 28.352C40.4333 28.4439 40.0936 28.4917 39.7434 28.4917C39.3826 28.4917 39.0345 28.4399 38.7054 28.3423L33.5027 37.4445L28.5057 46.1911Z" fill="white"></path></svg> 