<?xml version="1.0" encoding="UTF-8"?> <svg xmlns="http://www.w3.org/2000/svg" width="80" height="80" viewBox="0 0 80 80" fill="none"><rect width="80" height="80" fill="#1E4FA0"></rect><path d="M33.8 18H44.2V63H33.8V18Z" fill="white"></path><path d="M9 31.6608C14.44 18.1608 27.8 18.5358 33.8 20.4108V28.0446C24.84 22.9018 19.4 28.8482 17.8 32.4643C16.84 44.6786 25.9333 54.1607 30.6 57.375V63H14.6V57.7768H22.6C13 49.7411 9.26667 36.75 9 31.6608Z" fill="white"></path><path d="M69 31.6608C63.56 18.1608 50.2 18.5358 44.2 20.4108V28.0446C53.16 22.9018 58.6 28.8482 60.2 32.4643C61.16 44.6786 52.0667 54.1607 47.4 57.375V63H63.4V57.7768H55.4C65 49.7411 68.7333 36.75 69 31.6608Z" fill="white"></path></svg> 