<?xml version="1.0" encoding="UTF-8"?> <svg xmlns="http://www.w3.org/2000/svg" width="80" height="80" viewBox="0 0 80 80" fill="none"><rect width="80" height="80" fill="url(#paint0_linear)"></rect><path d="M46.4248 70.0391H43.5708L41.8447 79.8828H36L40.3066 55H46.1685L44.4937 64.6216H46.5615L52.8677 55H60.2505L51.415 66.7578L56.5249 79.8828H49.8428L46.4248 70.0391Z" fill="white"></path><path d="M45.1748 29.2871L45.2773 29.27C47.1458 29.2358 48.775 29.703 50.165 30.6714C51.5664 31.6398 52.586 32.9842 53.2241 34.7046C53.7823 36.2313 53.976 37.8548 53.8051 39.5752C53.6114 41.5576 52.9791 43.3521 51.9082 44.9585C50.8372 46.5535 49.4472 47.784 47.7382 48.6499C46.0406 49.5044 44.2006 49.9089 42.2182 49.8633H41.8935L41.2099 53.0249H35.5703L36.2709 49.8462H36.1855C34.3854 49.8804 32.7903 49.4645 31.4003 48.5986C30.0104 47.7214 28.9736 46.508 28.29 44.9585C27.6064 43.3976 27.3557 41.7 27.538 39.8657C27.7317 37.8491 28.364 36.0205 29.435 34.3799C30.5174 32.7279 31.9187 31.4518 33.6391 30.5518C35.3709 29.6403 37.2337 29.2074 39.2275 29.2529H39.5522L40.2529 26.0913L45.7387 26.0742L45.1748 29.2871ZM33.041 41.7969C33.1663 42.7311 33.5138 43.4831 34.0834 44.0527C34.6531 44.6224 35.3994 44.9528 36.3222 45.0439L36.8178 45.0781L38.9711 34.0039C37.5698 34.0039 36.3678 34.4255 35.3652 35.2686C34.3626 36.1003 33.6619 37.2681 33.2631 38.772C32.9897 39.8201 32.9156 40.8285 33.041 41.7969ZM44.6279 34.0381L42.5087 45.1123C43.7506 45.1123 44.833 44.7933 45.7558 44.1553C46.6787 43.5059 47.3736 42.5944 47.8408 41.4209C48.3079 40.2474 48.4788 38.9771 48.3535 37.6099C48.2623 36.5845 47.9262 35.7585 47.3452 35.1318C46.7641 34.4938 45.9666 34.1349 44.9526 34.0552L44.6279 34.0381Z" fill="white"></path><path d="M27.8945 0L30.27 17.2607L38.6099 0H46.4028L42.0962 24.8828H36.2173L37.2769 18.7817L39.8062 7.53662L31.0903 24.8828H27.2109L24.3911 6.88721L22.8188 19.3628L21.8447 24.8828H16L20.3066 0H27.8945Z" fill="white"></path><defs><linearGradient id="paint0_linear" x1="0" y1="40" x2="80" y2="40" gradientUnits="userSpaceOnUse"><stop stop-color="#CA4C27"></stop><stop offset="1" stop-color="#7A1831"></stop></linearGradient></defs></svg> 