<?xml version="1.0" encoding="UTF-8"?> <svg xmlns="http://www.w3.org/2000/svg" width="80" height="80" viewBox="0 0 80 80" fill="none"><rect width="80" height="80" fill="#F5F8FA"></rect><path d="M25.9272 43.6619L18.605 31.8857H12V59.7401H18.008V41.6733L25.7679 53.4501H25.9272L33.7651 41.5543V59.7401H39.8537V31.8857H33.2475L25.9272 43.6619Z" fill="#008BB0"></path><path d="M57.5927 17C49.6351 17 43.1846 23.4505 43.1846 31.4075C43.1846 39.3651 49.6345 45.8162 57.5927 45.8162C65.5503 45.8162 72.0002 39.3657 72.0002 31.4075C72.0008 23.4505 65.5503 17 57.5927 17ZM57.5927 39.9212C52.8904 39.9212 49.079 36.1098 49.079 31.4075C49.079 26.7058 52.8898 22.8944 57.5927 22.8944C62.2956 22.8944 66.1057 26.7052 66.1057 31.4075C66.1057 36.1098 62.2956 39.9212 57.5927 39.9212Z" fill="#FDB924"></path></svg> 