<?xml version="1.0" encoding="UTF-8"?> <svg xmlns="http://www.w3.org/2000/svg" width="80" height="80" viewBox="0 0 80 80" fill="none"><rect width="80" height="80" fill="#F5F8FA"></rect><path d="M58.1053 20C14.6526 24.0421 1.26316 37.9649 0 44.4211C9.76842 33.6421 30.7368 30.9474 40 30.9474C50.4421 29.2632 67.6491 34.1754 74.9474 36.8421C78.6526 36.1684 79.8596 32.6316 80 30.9474C79.6632 22.5263 65.2632 20.1404 58.1053 20Z" fill="#F6A448"></path><path d="M21.8947 59.5791C65.3474 55.537 78.7368 41.6142 80 35.158C70.2316 45.937 49.2632 48.6317 40 48.6317C29.5579 50.3159 12.3509 45.4037 5.05263 42.737C1.34737 43.4107 0.14035 46.9475 0 48.6317C0.336838 57.0528 14.7368 59.4388 21.8947 59.5791Z" fill="#526DB4"></path></svg> 