<?xml version="1.0" encoding="UTF-8"?> <svg xmlns="http://www.w3.org/2000/svg" width="80" height="80" viewBox="0 0 80 80" fill="none"><rect width="80" height="80" fill="white"></rect><path d="M51.5913 12C47.4543 12 43.5382 12.8797 40 14.4725C36.4559 12.8797 32.5398 12 28.4067 12C12.721 12 0 24.7191 0 40.4106C0 56.0982 12.7191 68.8134 28.4067 68.8134C32.5398 68.8134 36.4579 67.924 40 66.3526C43.5382 67.924 47.4543 68.8134 51.5913 68.8134C67.2751 68.8134 80 56.0982 80 40.4106C79.9981 24.7191 67.2751 12 51.5913 12ZM40 66.0852C25.818 66.0852 14.3157 54.5907 14.3157 40.4106C14.3157 26.2266 25.818 14.7225 40 14.7225C54.1762 14.7225 65.6784 26.2266 65.6784 40.4106C65.6784 54.5907 54.1762 66.0852 40 66.0852ZM51.8084 40.4106C51.8084 46.931 46.5301 52.2306 40 52.2306C33.468 52.2306 28.1878 46.9329 28.1878 40.4106C28.1878 33.8825 33.468 28.5867 40 28.5867C46.5301 28.5887 51.8084 33.8825 51.8084 40.4106Z" fill="#E60000"></path></svg> 