<?xml version="1.0" encoding="UTF-8"?> <svg xmlns="http://www.w3.org/2000/svg" width="80" height="80" viewBox="0 0 80 80" fill="none"><rect width="80" height="80" fill="#00738B"></rect><path d="M10.6992 27.3418L17.0908 45.3887L23.4482 27.3418H30.1816V52.2246H25.0376V45.4229L25.5503 33.6821L18.834 52.2246H15.3135L8.61426 33.6992L9.12695 45.4229V52.2246H4V27.3418H10.6992Z" fill="white"></path><path d="M34.6592 52.2246V27.3418H43.375C46.3942 27.3418 48.6842 27.9229 50.2451 29.085C51.806 30.2357 52.5864 31.9276 52.5864 34.1606C52.5864 35.3797 52.2731 36.4564 51.6465 37.3906C51.0199 38.3135 50.1483 38.9914 49.0317 39.4243C50.3078 39.7433 51.3104 40.387 52.0396 41.3555C52.7801 42.3239 53.1504 43.5088 53.1504 44.9102C53.1504 47.3027 52.387 49.1143 50.8604 50.3447C49.3337 51.5752 47.1576 52.2018 44.332 52.2246H34.6592ZM39.7861 41.3896V48.106H44.1782C45.3859 48.106 46.3258 47.8211 46.998 47.2515C47.6816 46.6704 48.0234 45.8729 48.0234 44.8589C48.0234 42.5802 46.8442 41.4238 44.4858 41.3896H39.7861ZM39.7861 37.7666H43.5801C46.1663 37.721 47.4595 36.6899 47.4595 34.6733C47.4595 33.5454 47.1291 32.7365 46.4683 32.2466C45.8188 31.7453 44.7878 31.4946 43.375 31.4946H39.7861V37.7666Z" fill="white"></path><path d="M76.5464 43.936C76.3527 46.6134 75.3615 48.7212 73.5728 50.2593C71.7954 51.7974 69.4484 52.5664 66.5317 52.5664C63.3416 52.5664 60.8294 51.4954 58.9951 49.3535C57.1722 47.2002 56.2607 44.2493 56.2607 40.501V38.98C56.2607 36.5874 56.6823 34.4797 57.5254 32.6567C58.3685 30.8338 59.5705 29.4382 61.1313 28.4697C62.7036 27.4899 64.5265 27 66.6001 27C69.4712 27 71.784 27.769 73.5386 29.3071C75.2931 30.8452 76.3071 33.0042 76.5806 35.7842H71.4536C71.3283 34.1777 70.8783 33.0156 70.1035 32.2979C69.3402 31.5687 68.1724 31.2041 66.6001 31.2041C64.8911 31.2041 63.6094 31.8193 62.7549 33.0498C61.9118 34.2689 61.4788 36.1659 61.4561 38.7407V40.6206C61.4561 43.3094 61.8605 45.2747 62.6694 46.5166C63.4897 47.7585 64.7772 48.3794 66.5317 48.3794C68.1154 48.3794 69.2946 48.0205 70.0693 47.3027C70.8555 46.5736 71.3055 45.4513 71.4194 43.936H76.5464Z" fill="white"></path></svg> 