<?xml version="1.0" encoding="UTF-8"?> <svg xmlns="http://www.w3.org/2000/svg" width="80" height="80" viewBox="0 0 80 80" fill="none"><rect width="80" height="80" fill="#F5F8FA"></rect><path fill-rule="evenodd" clip-rule="evenodd" d="M66.1312 54.722C64.7337 52.549 53.5343 50.8451 40.0002 50.8451C26.4663 50.8451 15.2658 52.5481 13.8693 54.722C11.5222 50.5818 10.1309 45.8349 10 40.7843C12.2927 43.173 24.8872 45.0117 40.0002 45.0117C55.1124 45.0117 67.7075 43.1748 70 40.7843C69.8688 45.8358 68.4776 50.5845 66.1312 54.722ZM65.0438 56.4942C61.6611 58.2449 51.7037 59.518 40.0002 59.518C28.2967 59.518 18.3395 58.2431 14.9558 56.4942C20.3349 64.6202 29.5583 70 40.0002 70C50.441 70 59.6678 64.6209 65.0438 56.4942ZM65.0456 23.5062C59.6669 15.3794 50.4419 9.99993 40.0002 9.99993C29.558 9.99993 20.3317 15.3794 14.954 23.5062C18.3342 21.7556 28.2945 20.4813 40.0002 20.4813C51.7055 20.4813 61.6638 21.7565 65.0456 23.5062ZM70 39.2152C69.8688 34.1637 68.4785 29.4169 66.1312 25.2767C64.7364 27.4506 53.5352 29.1545 40.0002 29.1545C26.4634 29.1545 15.2615 27.4497 13.8682 25.2758C11.5215 29.416 10.1309 34.1637 10 39.2152C12.2916 36.8256 24.8872 34.9878 40.0002 34.9878C55.1124 34.9878 67.7057 36.8265 70 39.2152Z" fill="url(#paint0_radial)"></path><defs><radialGradient id="paint0_radial" cx="0" cy="0" r="1" gradientUnits="userSpaceOnUse" gradientTransform="translate(40 40) rotate(-90) scale(30)"><stop stop-color="#ED7016"></stop><stop offset="1" stop-color="#F05F36"></stop></radialGradient></defs></svg> 