<?xml version="1.0" encoding="UTF-8"?> <svg xmlns="http://www.w3.org/2000/svg" width="80" height="80" viewBox="0 0 80 80" fill="none"><rect width="80" height="80" fill="white"></rect><path fill-rule="evenodd" clip-rule="evenodd" d="M79.9996 19.2991C79.6529 30.1816 34.6553 30.3556 26.1504 30.5971V8C34.6553 8.24142 79.6529 8.41784 79.9996 19.2991Z" fill="#004017"></path><path fill-rule="evenodd" clip-rule="evenodd" d="M0 35.877V43.5444C17.345 43.8682 68.236 45.1287 79.7339 34.7059L79.861 26.9189C73.9444 34.4923 35.3718 37.5055 0 35.877Z" fill="#004017"></path><path fill-rule="evenodd" clip-rule="evenodd" d="M0 49.7537V57.421C17.345 57.7448 68.236 59.0065 79.7339 48.5825L79.861 40.7979C73.9444 48.3701 35.3718 51.3821 0 49.7537Z" fill="#004017"></path><path fill-rule="evenodd" clip-rule="evenodd" d="M0 64.0595V71.7316C17.345 72.0554 68.236 73.3171 79.7339 62.8931L79.861 55.1084C73.9444 62.6806 35.3718 65.6926 0 64.0595Z" fill="#004017"></path></svg> 