<?xml version="1.0" encoding="UTF-8"?> <svg xmlns="http://www.w3.org/2000/svg" width="80" height="80" viewBox="0 0 80 80" fill="none"><rect width="80" height="80" fill="white"></rect><rect x="42" y="42" width="38" height="38" fill="#FF8401"></rect><path d="M65.7026 55.729H58.4028V58.896H61.0308C62.9549 58.896 64.4785 59.3639 65.6016 60.2998C66.7321 61.2282 67.2974 62.4823 67.2974 64.062C67.2974 65.6493 66.7358 66.9258 65.6128 67.8916C64.4972 68.8499 63.0111 69.3366 61.1543 69.3516H55V53H65.7026V55.729ZM58.4028 61.6138V66.645H61.0869C61.9479 66.645 62.633 66.4092 63.1421 65.9375C63.6587 65.4658 63.917 64.8332 63.917 64.0396C63.917 63.2983 63.6699 62.7144 63.1758 62.2876C62.6891 61.8534 62.019 61.6287 61.1655 61.6138H58.4028Z" fill="white"></path><rect x="42" width="38" height="38" fill="#5B97DE"></rect><path d="M69.3403 30.0215H66.2295V26.001H56.3691V30.0103H53.1797L53 23.2944H54.2354C54.9017 22.7404 55.4146 21.9281 55.7739 20.8574C56.1408 19.7793 56.3879 18.4466 56.5151 16.8594L56.9868 9.64941H67.7007V23.2944H69.6099L69.3403 30.0215ZM58.0986 23.2944H64.3315V12.3784H60.1875L59.9067 16.6797C59.6821 19.5622 59.0794 21.7671 58.0986 23.2944Z" fill="white"></path><rect width="38" height="38" fill="#A7CF43"></rect><path d="M25.3081 26.001H21.939V18.9932H15.3691V26.001H12V9.64941H15.3691V16.2754H21.939V9.64941H25.3081V26.001Z" fill="white"></path></svg> 