<?xml version="1.0" encoding="UTF-8"?> <svg xmlns="http://www.w3.org/2000/svg" width="80" height="80" viewBox="0 0 80 80" fill="none"><rect width="80" height="80" fill="white"></rect><path d="M27.3905 16.1976C27.4586 6.59254 33.2847 0.198916 40.4821 0.00428472C47.6796 -0.190346 53.8461 6.2714 54.0989 14.1539C54.1511 17.99 53.1412 21.7657 51.1811 25.063C48.448 29.9774 39.3928 39.1445 39.3928 39.1445L35.9497 32.4006C35.9497 32.4006 37.3989 30.3375 39.3053 28.0408C41.7765 25.1595 43.7698 21.9002 45.2091 18.3872C45.768 17.094 46.0529 15.699 46.0456 14.2902C45.9386 10.9133 43.5848 8.2177 40.7058 8.23717C37.8269 8.25663 35.4147 11.0301 35.3661 14.3388C35.2423 16.7457 35.8823 19.13 37.1946 21.1509C37.8366 22.1241 38.8092 23.9439 38.8092 23.9439L33.7321 30.0455C32.6018 28.5773 31.5593 27.0436 30.6099 25.4523C28.5869 22.056 27.3711 18.3774 27.3711 16.1781" fill="#DD1F2A"></path><path d="M25.4262 25.2281C23.2383 23.0677 20.5476 21.4859 17.5965 20.6251C10.1073 18.562 2.33595 22.7174 0.429598 29.8117C-0.477618 33.4294 0.0642402 37.2586 1.93954 40.4821C3.81484 43.7057 6.87506 46.0683 10.4671 47.0657C14.0851 48.0619 17.9071 48.0451 21.5162 47.017C22.8352 46.6862 24.1342 46.2801 25.4067 45.8006L21.5843 38.5311C21.5843 38.5311 19.9405 39.0469 18.8123 39.3778C16.5389 40.0439 14.1007 39.8571 11.9553 38.8523C8.89147 37.5677 7.27691 34.3076 8.3468 31.5828C9.41669 28.858 12.8598 27.5345 15.8458 28.6634C17.3732 29.3676 18.7708 30.3251 19.9794 31.4952C26.7878 37.3342 29.4431 47.5912 29.4431 47.5912C29.4431 47.5912 20.6895 50.5107 17.5284 52.6808C11.3911 56.9724 8.77476 64.4949 11.1674 70.8107C12.0134 73.2536 13.5838 75.3803 15.6693 76.9069C17.7547 78.4336 20.2558 79.2876 22.839 79.3549C25.7728 79.3398 28.6365 78.4567 31.0699 76.8168C33.5032 75.177 35.3974 72.8536 36.5141 70.1392C38.2843 66.0033 38.7026 61.6338 38.7901 57.1865C38.8171 51.2353 37.648 45.3394 35.3523 39.8493C33.0565 34.3591 29.6809 29.3869 25.4262 25.2281V25.2281ZM28.6067 67.7355C27.352 69.9445 25.504 71.307 22.8584 71.1415C21.9106 71.1183 20.9941 70.7976 20.2384 70.2248C19.4827 69.652 18.926 68.8561 18.6469 67.9496C17.7424 65.4388 18.6469 63.3855 20.1642 61.3321C22.8001 57.7801 30.1629 55.9214 30.1629 55.9214C30.1629 55.9214 30.4352 58.9382 30.4352 59.96C30.5272 62.6726 29.8925 65.3606 28.5969 67.7452" fill="#DD1F2A"></path><path d="M44.1102 67.0733C44.8644 70.0903 46.3397 72.8789 48.4093 75.1992C53.7198 80.9797 62.4637 81.6415 67.7354 76.6297C73.1918 71.4428 73.3572 62.4509 68.0564 56.5536C65.5086 53.7522 62.2474 51.6969 58.6219 50.6076C57.346 50.181 56.0471 49.8268 54.7313 49.5468L54.2548 57.7895C54.2548 57.7895 55.9179 58.2371 57.0462 58.568C59.3366 59.2341 61.3112 60.7021 62.6096 62.7039C64.5549 65.4482 64.2534 69.0878 61.9482 70.8297C59.6431 72.5717 56.0249 71.8029 54.0894 69.2435C53.1517 67.8236 52.455 66.2585 52.0274 64.6113C49.2165 55.9599 52.2511 45.8197 52.2511 45.8197C52.2511 45.8197 61.2285 48.0774 65.0023 47.9022C72.3748 47.6005 78.5024 42.6277 79.7182 35.9616C80.2592 33.3934 80.0172 30.7219 79.0236 28.2929C78.03 25.8638 76.3304 23.7892 74.145 22.3375C71.684 20.7698 68.8098 19.9764 65.8936 20.0597C62.9773 20.1429 60.153 21.0991 57.7854 22.8046C54.1575 25.364 51.5508 28.8673 49.1971 32.5945C46.0995 37.705 44.0561 43.3844 43.1875 49.2977C42.3188 55.211 42.6425 61.2385 44.1394 67.0247L44.1102 67.0733ZM63.2418 29.1982C64.2374 28.5541 65.4054 28.2286 66.5904 28.2651C67.7754 28.3016 68.9211 28.6984 69.8752 29.4026C70.6714 29.9328 71.2852 30.6955 71.6332 31.5869C71.9812 32.4783 72.0466 33.4552 71.8204 34.3851C71.3049 37.0029 69.4861 38.2777 67.1226 39.2022C63.057 40.7982 55.8401 38.414 55.8401 38.414C55.8401 38.414 57.1532 35.6989 57.6881 34.8328C58.9924 32.4839 60.9126 30.5357 63.2418 29.1982" fill="#DD1F2A"></path></svg> 