<?xml version="1.0" encoding="UTF-8"?> <svg xmlns="http://www.w3.org/2000/svg" width="80" height="80" viewBox="0 0 80 80" fill="none"><rect width="80" height="80" fill="#213F4D"></rect><path d="M41.4854 40.6881L47.9819 15H56.4774L49.9809 40.6881H55.9777C67.9714 40.6881 68.1379 49.5566 67.9714 53.9908C67.9714 61.3303 59.9756 64.3884 55.9777 65H47.9819L45.983 57.2018H55.9777C62.3743 53.5321 58.643 50.1682 55.9777 48.945H43.4843L41.4854 40.6881Z" fill="white"></path><path d="M28.4893 40.2294L35.4856 15H43.4813L36.485 40.2294L43.4813 65H35.4856L28.4893 40.2294Z" fill="white"></path><path d="M12 26.0092V15H19.9958V26.0092L27.9916 52.156V64.5413H19.9958V52.156L12 26.0092Z" fill="white"></path></svg> 