<svg width="80" height="80" viewBox="0 0 80 80" fill="none" xmlns="http://www.w3.org/2000/svg">
<rect width="80" height="80" fill="#F5F8FA"/>
<path d="M24.974 64.9052C24.8504 64.906 24.7286 64.8746 24.6206 64.8142C24.5128 64.7538 24.4224 64.6664 24.3584 64.5604L10.0993 40.8692C10.0355 40.7588 10.002 40.6334 10.002 40.506C10.002 40.3784 10.0355 40.2532 10.0993 40.1428C10.1612 40.0304 10.2521 39.9368 10.3626 39.872C10.4731 39.807 10.5991 39.7728 10.7273 39.7734H24.2722V16.8209C24.2588 16.7184 24.2674 16.6142 24.2974 16.5153C24.3274 16.4164 24.3782 16.325 24.4464 16.2473C24.5146 16.1696 24.5986 16.1074 24.6928 16.0647C24.787 16.0221 24.8892 16 24.9926 16C25.0958 16 25.198 16.0221 25.2922 16.0647C25.3864 16.1074 25.4704 16.1696 25.5386 16.2473C25.6068 16.325 25.6576 16.4164 25.6876 16.5153C25.7176 16.6142 25.7262 16.7184 25.7128 16.8209V39.7734H52.8026V16.7593C52.806 16.603 52.8598 16.452 52.956 16.3287C53.052 16.2053 53.1854 16.1163 53.3362 16.0748C53.4868 16.0334 53.647 16.0416 53.7926 16.0984C53.9384 16.1551 54.0618 16.2574 54.1448 16.3899C54.1448 16.4515 57.925 22.2758 61.4344 28.137C68.4778 39.8964 68.4778 40.1428 68.4778 40.4506C68.4652 40.6466 68.3774 40.83 68.233 40.963C68.0884 41.096 67.8984 41.1684 67.702 41.1648H54.2432V64.0556C54.2504 64.2534 54.1818 64.4464 54.0514 64.5952C53.9208 64.744 53.7384 64.8372 53.5414 64.856C53.341 64.8376 53.1546 64.7458 53.018 64.5978C52.8816 64.45 52.8048 64.2568 52.8026 64.0556V41.214H25.7128V64.191C25.7128 64.3482 25.6608 64.501 25.5652 64.6256C25.4694 64.7504 25.3352 64.84 25.1834 64.8806C25.116 64.9034 25.0448 64.9118 24.974 64.9052ZM11.9956 41.214L24.3092 61.5806V41.214H11.9956ZM54.2432 39.7734H66.6922C64.9438 36.695 58.9102 26.955 54.2432 19.3328V39.7734Z" fill="url(#paint0_linear_7855_7890)"/>
<path d="M24.974 64.9052C24.8504 64.906 24.7286 64.8746 24.6206 64.8142C24.5128 64.7538 24.4224 64.6664 24.3584 64.5604L10.0993 40.8692C10.0355 40.7588 10.002 40.6334 10.002 40.506C10.002 40.3784 10.0355 40.2532 10.0993 40.1428C10.1612 40.0304 10.2521 39.9368 10.3626 39.872C10.4731 39.807 10.5991 39.7728 10.7273 39.7734H24.2722V16.8209C24.2588 16.7184 24.2674 16.6142 24.2974 16.5153C24.3274 16.4164 24.3782 16.325 24.4464 16.2473C24.5146 16.1696 24.5986 16.1074 24.6928 16.0647C24.787 16.0221 24.8892 16 24.9926 16C25.0958 16 25.198 16.0221 25.2922 16.0647C25.3864 16.1074 25.4704 16.1696 25.5386 16.2473C25.6068 16.325 25.6576 16.4164 25.6876 16.5153C25.7176 16.6142 25.7262 16.7184 25.7128 16.8209V39.7734H52.8026V16.7593C52.806 16.603 52.8598 16.452 52.956 16.3287C53.052 16.2053 53.1854 16.1163 53.3362 16.0748C53.4868 16.0334 53.647 16.0416 53.7926 16.0984C53.9384 16.1551 54.0618 16.2574 54.1448 16.3899C54.1448 16.4515 57.925 22.2758 61.4344 28.137C68.4778 39.8964 68.4778 40.1428 68.4778 40.4506C68.4652 40.6466 68.3774 40.83 68.233 40.963C68.0884 41.096 67.8984 41.1684 67.702 41.1648H54.2432V64.0556C54.2504 64.2534 54.1818 64.4464 54.0514 64.5952C53.9208 64.744 53.7384 64.8372 53.5414 64.856C53.341 64.8376 53.1546 64.7458 53.018 64.5978C52.8816 64.45 52.8048 64.2568 52.8026 64.0556V41.214H25.7128V64.191C25.7128 64.3482 25.6608 64.501 25.5652 64.6256C25.4694 64.7504 25.3352 64.84 25.1834 64.8806C25.116 64.9034 25.0448 64.9118 24.974 64.9052ZM11.9956 41.214L24.3092 61.5806V41.214H11.9956ZM54.2432 39.7734H66.6922C64.9438 36.695 58.9102 26.955 54.2432 19.3328V39.7734Z" fill="url(#paint1_linear_7855_7890)"/>
<path d="M25.7 19.6162L64.82 41.2141L52.7774 61.3097L13.645 39.7733L25.7 19.6162ZM24.9734 16.0452C24.8516 16.0454 24.732 16.0773 24.6262 16.1377C24.5204 16.1982 24.4322 16.2851 24.3702 16.39L10.0987 40.1551C10.0504 40.2381 10.0191 40.3297 10.0064 40.4247C9.99369 40.5199 9.99997 40.6165 10.0249 40.7093C10.0481 40.7999 10.0896 40.8847 10.1468 40.9589C10.2039 41.0329 10.2756 41.0947 10.3573 41.1401L53.1592 64.7821C53.2688 64.8411 53.3918 64.8707 53.5162 64.8683C53.6378 64.8671 53.7572 64.8347 53.8626 64.7743C53.9682 64.7139 54.0568 64.6277 54.1196 64.5235L68.391 40.8447C68.4686 40.6727 68.484 40.4793 68.4346 40.2973C68.385 40.1153 68.274 39.9563 68.12 39.8473L25.3182 16.1314C25.2136 16.0714 25.0942 16.0415 24.9734 16.0452Z" fill="url(#paint2_linear_7855_7890)"/>
<defs>
<linearGradient id="paint0_linear_7855_7890" x1="52.5564" y1="65.4962" x2="25.9344" y2="15.4418" gradientUnits="userSpaceOnUse">
<stop offset="0.18" stop-color="#6B4D9A"/>
<stop offset="0.28" stop-color="#5C216E"/>
</linearGradient>
<linearGradient id="paint1_linear_7855_7890" x1="52.5564" y1="65.4962" x2="25.9344" y2="15.4418" gradientUnits="userSpaceOnUse">
<stop offset="0.18" stop-color="#6B4D9A"/>
<stop offset="0.28" stop-color="#5C216E"/>
</linearGradient>
<linearGradient id="paint2_linear_7855_7890" x1="39.2326" y1="64.9053" x2="39.2326" y2="16.0452" gradientUnits="userSpaceOnUse">
<stop offset="0.26" stop-color="#6B4D9A"/>
<stop offset="1" stop-color="#5C216E"/>
</linearGradient>
</defs>
</svg>
