<?xml version="1.0" encoding="UTF-8"?> <svg xmlns="http://www.w3.org/2000/svg" width="80" height="80" viewBox="0 0 80 80" fill="none"><rect width="80" height="80" fill="#F5F8FA"></rect><path fill-rule="evenodd" clip-rule="evenodd" d="M40 56.6316C51.1464 56.7043 59.6829 52.5827 67.0366 44.3516L72 50.4128C67.8651 54.7076 62.8981 58.1257 57.3985 60.4608C51.8988 62.7959 45.9804 63.9998 40 63.9998C34.0196 63.9998 28.1012 62.7959 22.6015 60.4608C17.1019 58.1257 12.1349 54.7076 8 50.4128L12.9634 44.3516C20.3171 52.5827 28.8537 56.7407 40 56.6316Z" fill="#E3000F"></path><path fill-rule="evenodd" clip-rule="evenodd" d="M64.4281 41.2493H58.4159L49.3915 28.9935V41.2129H44.5745V16.7378H49.3915V26.9691L58.233 16.7378H63.8915L53.7086 28.0116L64.5013 41.2251L64.4281 41.2493ZM36.8428 28.9572C36.9315 26.6964 36.136 24.4894 34.6233 22.799C33.0902 21.2983 31.0249 20.4572 28.8733 20.4572C26.7217 20.4572 24.6564 21.2983 23.1233 22.799C21.6074 24.5054 20.82 26.7317 20.9281 29.0057C20.8271 31.2749 21.6138 33.4949 23.1233 35.2002C23.8769 35.9534 24.7728 36.5511 25.7596 36.959C26.7464 37.3669 27.8046 37.5768 28.8733 37.5768C29.942 37.5768 31.0001 37.3669 31.9869 36.959C32.9737 36.5511 33.8696 35.9534 34.6233 35.2002C36.1328 33.4949 36.9195 31.2749 36.8184 29.0057L36.8428 28.9572ZM41.9891 28.9572C42.0451 30.6732 41.7448 32.3822 41.1069 33.9778C40.4691 35.5733 39.5074 37.0211 38.2818 38.2308C35.7689 40.612 32.4303 41.9403 28.9586 41.9403C25.4869 41.9403 22.1484 40.612 19.6355 38.2308C18.3989 37.0263 17.4258 35.5808 16.7774 33.985C16.129 32.3893 15.8191 30.6776 15.8672 28.9572C15.8193 27.2386 16.1294 25.5288 16.7778 23.935C17.4263 22.3413 18.3992 20.8979 19.6355 19.6956C22.1526 17.3227 25.4895 16 28.9586 16C32.4277 16 35.7646 17.3227 38.2818 19.6956C39.4983 20.9073 40.4508 22.3548 41.0803 23.9481C41.7097 25.5415 42.0024 27.2465 41.9403 28.9572H41.9891Z" fill="#44413E"></path></svg> 