<?xml version="1.0" encoding="UTF-8"?> <svg xmlns="http://www.w3.org/2000/svg" width="80" height="80" viewBox="0 0 80 80" fill="none"><rect width="80" height="80" fill="#F5F8FA"></rect><path d="M57.3288 18.254C38.6999 6.65492 23.6933 16.9359 18.5186 23.5263C30.9377 15.6176 36.6299 16.277 37.9237 17.5952C6.35815 35.521 10.1098 51.8652 15.9313 57.7965C23.1759 27.2172 46.5482 18.6934 57.3288 18.254Z" fill="url(#paint0_linear)"></path><path d="M63.1507 23.5273C34.1725 27.218 23.047 51.8659 21.1064 63.7286C26.7986 67.9464 31.6714 68.5615 33.3963 68.3419C32.8788 44.0893 49.5672 34.9506 57.976 33.4129C67.2905 49.2298 50.6452 63.7286 41.1583 69.0009C74.7938 61.0924 69.8347 35.39 63.1507 23.5273Z" fill="url(#paint1_linear)"></path><defs><linearGradient id="paint0_linear" x1="45.1381" y1="4.56008" x2="10.3322" y2="51.3623" gradientUnits="userSpaceOnUse"><stop stop-color="#79D5FA"></stop><stop offset="1" stop-color="#01529B"></stop></linearGradient><linearGradient id="paint1_linear" x1="55.3887" y1="14.9599" x2="20.2545" y2="63.1069" gradientUnits="userSpaceOnUse"><stop stop-color="#79D5FA"></stop><stop offset="1" stop-color="#01529B"></stop></linearGradient></defs></svg> 