<?xml version="1.0" encoding="UTF-8"?> <svg xmlns="http://www.w3.org/2000/svg" width="80" height="80" viewBox="0 0 80 80" fill="none"><rect width="80" height="80" fill="#EAF5EC"></rect><path fill-rule="evenodd" clip-rule="evenodd" d="M33.8299 19.6667C28.9356 19.6667 24.6629 21.037 20.9339 23.7778C21.8662 22.8642 22.8761 22.0267 23.9637 21.1893C28.7026 17.8395 33.9075 16.6975 39.6563 17.535C45.4051 18.4485 49.9886 21.1893 53.4068 25.7572C56.825 30.4012 58.068 35.5021 57.1358 41.2119C56.9804 42.3539 56.6697 43.4959 56.3589 44.4856C58.1457 41.9732 59.311 39.0041 59.8548 35.7304C60.2432 33.3704 60.2432 31.1625 59.9325 28.9547C61.5639 32.5329 62.03 36.3395 61.3308 40.4506C60.3986 46.0844 57.6019 50.5761 52.863 53.9259C48.4349 57.0473 43.463 58.3416 38.0249 57.6564C37.8696 56.8189 37.7919 55.9815 37.7919 55.0679C37.6365 51.7181 38.258 48.5967 39.5787 45.7037L37.3257 45.2469C33.8299 49.4342 32.1985 54.2304 32.3538 59.7119C32.3538 60.3971 32.4315 61.0062 32.5092 61.6152C29.7125 60.6255 27.1488 59.0267 24.8182 56.7428C20.7009 52.7078 18.681 47.8354 18.681 42.1255C18.681 36.4156 20.7786 31.5432 24.8182 27.5082C28.9356 23.4732 33.9076 21.4938 39.734 21.4938C40.8993 21.4938 42.0646 21.5699 43.1522 21.7222C40.3555 20.3518 37.2481 19.6667 33.8299 19.6667ZM38.3357 59.179C39.734 59.7119 41.2101 60.0926 42.7638 60.321C48.7456 61.2346 54.106 60.0165 59.0002 56.5144C63.8168 53.0123 66.7689 48.3683 67.7011 42.5823C68.6333 36.7963 67.3904 31.4671 63.8945 26.6708C61.797 23.8539 59.2333 21.6461 56.2035 20.1996C56.1258 20.1234 56.0482 19.9712 55.9705 19.8951C52.4746 15.0988 47.7357 12.2058 41.7539 11.2922C35.772 10.3786 30.4117 11.5967 25.5174 15.0988C21.167 18.2202 18.3703 22.2551 17.1273 27.2798C13.7091 31.1625 12 35.7304 12 41.0597C12 46.9979 14.0975 52.0226 18.3703 56.2099C22.3323 60.0926 27.0712 62.1481 32.5869 62.4527C32.9753 64.8128 33.6745 67.0206 34.8398 69H43.696C40.977 66.1831 39.1902 62.9095 38.3357 59.179Z" fill="#2F9A41"></path></svg> 