<?xml version="1.0" encoding="UTF-8"?> <svg xmlns="http://www.w3.org/2000/svg" width="80" height="80" viewBox="0 0 80 80" fill="none"><rect x="0.000976562" width="80" height="80" fill="#F5F8FA"></rect><rect x="40" y="5" width="50" height="50" rx="5" transform="rotate(45 40 5)" fill="#062980"></rect><path d="M50.1914 40.3472C50.1914 42.7967 49.7585 44.9443 48.8926 46.79C48.0267 48.6357 46.7848 50.0599 45.167 51.0625C43.5605 52.0651 41.7148 52.5664 39.6299 52.5664C37.5677 52.5664 35.7277 52.0708 34.1099 51.0796C32.492 50.0884 31.2388 48.6756 30.3501 46.8413C29.4614 44.9956 29.0114 42.8765 29 40.4839V39.2534C29 36.8039 29.4386 34.6506 30.3159 32.7935C31.2046 30.925 32.4521 29.4951 34.0586 28.5039C35.6764 27.5013 37.5221 27 39.5957 27C41.6693 27 43.5093 27.5013 45.1157 28.5039C46.7336 29.4951 47.9811 30.925 48.8584 32.7935C49.7471 34.6506 50.1914 36.7982 50.1914 39.2363V40.3472ZM44.9961 39.2192C44.9961 36.6102 44.529 34.6278 43.5947 33.272C42.6605 31.9162 41.3275 31.2383 39.5957 31.2383C37.8753 31.2383 36.548 31.9105 35.6138 33.2549C34.6795 34.5879 34.2067 36.5475 34.1953 39.1338V40.3472C34.1953 42.8879 34.6624 44.8589 35.5967 46.2603C36.5309 47.6616 37.8753 48.3623 39.6299 48.3623C41.3503 48.3623 42.6719 47.6901 43.5947 46.3457C44.5176 44.9899 44.9847 43.0189 44.9961 40.4326V39.2192Z" fill="white"></path></svg> 