<?xml version="1.0" encoding="UTF-8"?> <svg xmlns="http://www.w3.org/2000/svg" width="80" height="80" viewBox="0 0 80 80" fill="none"><rect width="80" height="80" fill="#F5F8FA"></rect><g clip-path="url(#clip0)"><path fill-rule="evenodd" clip-rule="evenodd" d="M46.6726 30.3896H52.9453C55.1271 30.3256 56.909 30.2249 58.7544 29.0808C59.3832 28.6229 59.8898 28.0156 60.2292 27.3131C60.5686 26.6105 60.7303 25.8343 60.6999 25.0537C60.7415 24.2736 60.5817 23.496 60.236 22.7967C59.8902 22.0973 59.3704 21.5001 58.7271 21.0632C56.955 20.1058 54.9527 19.6653 52.9453 19.791H46.6726V30.3896ZM39.9453 15.0225V53.1337C39.9499 53.2704 39.9818 53.4048 40.0391 53.5287C40.0965 53.6527 40.1781 53.7638 40.2792 53.8552C40.3802 53.9466 40.4985 54.0166 40.627 54.0609C40.7556 54.1052 40.8917 54.1229 41.0271 54.113H54.6635C56.7724 54.148 58.8754 53.8799 60.909 53.3168C62.5585 52.8614 64.103 52.0839 65.4544 51.0286C66.6926 50.0428 67.6726 48.7671 68.309 47.3127C68.989 45.727 69.3298 44.0149 69.309 42.2879C69.3136 41.3342 69.1975 40.3839 68.9635 39.4598C68.588 37.9758 67.854 36.6082 66.8271 35.4784C65.5675 37.1152 63.8173 38.2995 61.8362 38.8557C61.8158 38.858 61.7964 38.8662 61.7803 38.8791C61.7642 38.8921 61.7521 38.9094 61.7453 38.929C61.7286 38.9732 61.7286 39.022 61.7453 39.0662C62.4098 39.9809 62.7318 41.1025 62.6544 42.233C62.719 43.1163 62.5564 44.0016 62.1821 44.8032C61.8079 45.6047 61.2348 46.2957 60.518 46.8093C58.4635 48.2188 55.209 48.292 53.818 48.292H46.6726V36.2656H53.7362C60.1635 36.2656 67.318 33.2452 67.3726 24.8523C67.5544 13.8418 54.9271 13.9151 53.4453 13.9151H41.0271C40.7393 13.9222 40.4656 14.0417 40.2637 14.2484C40.0618 14.455 39.9476 14.7326 39.9453 15.0225Z" fill="#19B5FF"></path><path d="M30.9727 26.674C30.9727 24.2332 30.2303 22.4729 28.7455 21.3929C27.2606 20.3129 25.0212 19.779 22.0273 19.7912H16.7273V33.6116H22.0273C25.0273 33.6116 27.2666 33.0624 28.7455 31.9641C30.2273 30.8567 30.9727 29.0994 30.9727 26.674ZM37.8091 26.674C37.8467 28.5616 37.4776 30.4351 36.7273 32.1655C36.0207 33.723 34.9623 35.0926 33.6364 36.1651C32.2213 37.2982 30.5955 38.1353 28.8545 38.6272C26.8163 39.2017 24.7075 39.4821 22.5909 39.4601H16.7273V53.0058C16.7263 53.2881 16.6191 53.5595 16.4273 53.7655C16.3281 53.8737 16.207 53.9591 16.072 54.016C15.9371 54.0728 15.7916 54.0997 15.6455 54.095H11.1C10.9538 54.0997 10.8083 54.0728 10.6734 54.016C10.5385 53.9591 10.4174 53.8737 10.3182 53.7655C10.1198 53.5624 10.0059 53.2906 10 53.0058V15.0227C9.99919 14.7401 10.1066 14.468 10.3 14.2631C10.3975 14.1515 10.5179 14.0626 10.6529 14.0026C10.7879 13.9425 10.9343 13.9127 11.0818 13.9153H22.5909C24.7075 13.8932 26.8163 14.1736 28.8545 14.7482C30.5949 15.2459 32.2202 16.0858 33.6364 17.2193C34.9662 18.2953 36.0252 19.6719 36.7273 21.2373C37.4707 22.9505 37.8397 24.8045 37.8091 26.674Z" fill="#19B5FF"></path><path fill-rule="evenodd" clip-rule="evenodd" d="M65.4545 66.8172L10.3818 58.1772C10.1455 58.1406 10 58.0399 10 57.8477C10 57.6555 10.1636 57.5548 10.3727 57.5548H65.4545C65.5035 57.5536 65.5522 57.5621 65.5979 57.5799C65.6435 57.5975 65.6854 57.6242 65.7208 57.6582C65.7563 57.6922 65.7847 57.7329 65.8045 57.778C65.8244 57.8231 65.8352 57.8717 65.8364 57.9209V66.4511C65.8378 66.5011 65.8287 66.5509 65.8098 66.5972C65.7909 66.6435 65.7625 66.6853 65.7265 66.7198C65.6905 66.7543 65.6476 66.7808 65.6008 66.7976C65.5539 66.8144 65.5041 66.821 65.4545 66.8172Z" fill="#19B5FF"></path></g><defs><clipPath id="clip0"><rect width="60" height="54" fill="white" transform="translate(10 13)"></rect></clipPath></defs></svg> 