<svg width="80" height="80" viewBox="0 0 80 80" fill="none" xmlns="http://www.w3.org/2000/svg">
<path d="M80 0H0V80H80V0Z" fill="#1A8B87"/>
<path fill-rule="evenodd" clip-rule="evenodd" d="M19.1838 34.5306C16.7846 34.7659 11.1396 36.1306 11.1396 40.1782C11.1866 44.6491 18.2899 45.2609 20.7832 45.2139C25.2991 45.0727 30.0977 42.9547 34.0963 40.0839V39.284C30.0977 35.566 23.8411 34.107 19.1838 34.5306ZM39.9765 46.1551H39.8822C39.4119 46.908 39.0826 47.7082 38.8473 48.6024C38.7062 49.3082 38.6122 49.9671 38.6592 50.72C38.7532 51.2379 38.8473 51.7555 39.0826 52.2261L39.7412 53.0262L39.8352 53.0732H39.9292H40.0235L40.1645 53.0262L40.8232 52.2261C41.0582 51.7555 41.1525 51.2849 41.2465 50.72C41.2935 49.9671 41.2465 49.3082 41.1055 48.6024C40.8702 47.7082 40.5879 46.908 40.0705 46.1551H39.9765ZM63.4032 51.8968L63.3562 51.7555C61.5686 51.9438 58.5579 51.8968 56.7703 51.6615C54.7006 51.3319 52.6777 50.7673 50.702 49.9671V50.1084C50.749 51.1436 50.749 52.1791 50.702 53.2145C50.608 54.344 50.3727 55.4735 50.0434 56.5089C54.3713 55.6147 59.4989 54.2497 63.4032 51.8968ZM16.5965 51.8497L16.6436 51.7085C18.4312 51.8968 21.3948 51.8497 23.1824 51.6144C25.2521 51.2849 27.2751 50.72 29.2507 49.9201V50.0614C29.2037 51.0966 29.2037 52.1321 29.2977 53.1675C29.392 54.297 29.6271 55.4265 29.9564 56.4619C25.6285 55.6147 20.4539 54.2497 16.5965 51.8497ZM48.5851 29.3065L48.6791 29.4948C53.054 28.3654 58.4169 27.6595 62.9329 28.3654L62.9799 28.1771C59.5459 25.5888 54.3243 24.2238 50.1374 23.3769C49.8081 25.4475 49.2437 27.4242 48.5851 29.3065ZM31.4147 29.3065L31.2737 29.4948C26.8987 28.3654 21.5358 27.6595 17.0669 28.3654L17.0199 28.1771C20.4539 25.5888 25.6757 24.2238 29.8624 23.3769C30.1447 25.4475 30.709 27.4242 31.4147 29.3065ZM39.9292 27.0006H40.0705C40.7762 25.5888 41.2465 23.7062 41.4348 22.1061C40.9642 22.0591 40.4939 22.0591 40.0235 22.0591C39.5529 22.0591 39.0826 22.0591 38.6122 22.1061C38.7532 23.7532 39.2238 25.6358 39.9292 27.0006ZM60.8159 34.5306C63.2152 34.7659 68.8601 36.1306 68.8131 40.1782C68.7661 44.6491 61.6629 45.2609 59.1696 45.2139C54.6536 45.0727 49.9023 42.9547 45.8567 40.0839V39.284C49.8553 35.566 56.1119 34.107 60.8159 34.5306ZM50.5137 39.5663C53.007 40.9311 55.7826 41.7783 58.5109 42.1076C59.7339 42.2489 65.7555 42.2959 65.7555 39.9429C65.7555 37.872 60.9102 37.4014 59.4049 37.3074C56.3 37.2131 53.3833 37.9662 50.5137 39.331V39.5663ZM46.9387 45.402L47.4561 44.6491C51.3134 46.955 55.265 48.4141 59.6399 48.5081C65.1438 48.7436 69.3307 46.814 72.1531 42.6254L72.8587 43.19C70.4597 55.9911 51.6897 60.4149 43.0812 60.6975L42.8929 59.8503C48.5851 57.7324 49.0554 51.1436 46.9387 45.402ZM40.2116 41.4017C42.3755 43.4726 43.7398 46.3434 44.0221 49.5906C44.1161 52.6027 43.0812 55.9441 40.3998 56.6972L39.9765 56.7442L39.5529 56.6972C36.8716 55.9441 35.8366 52.6497 35.9309 49.5906C36.213 46.2962 37.5772 43.4253 39.7412 41.4017H40.2116ZM44.5865 19.141C43.9748 23.8945 42.7518 28.5066 40.2586 32.2716H39.9765H39.6942C37.2009 28.5066 35.9779 23.8945 35.3663 19.141C36.9186 19.047 38.4239 19 39.9765 19C41.5288 19 43.0812 19.047 44.5865 19.141ZM33.0143 45.402C30.9443 51.0966 31.3677 57.7324 37.0599 59.8503L36.9186 60.6975C28.404 60.6032 9.72834 56.3676 7.09403 43.049L7.84669 42.6254C11.2807 46.955 15.5146 48.8377 20.3128 48.5081C24.6878 48.3671 28.6864 46.908 32.4967 44.6491L33.0143 45.402ZM21.3478 31.2832C15.3263 31.2832 10.0106 33.4011 7.56438 38.7662L7 38.3898C7.18804 26.577 22.4768 21.0237 31.9323 19.6119C32.6379 24.8357 34.2373 29.4948 36.7306 33.8247L37.5302 35.1424L37.3892 35.3777L36.26 34.8129C31.4147 32.6009 26.4754 31.2832 21.3478 31.2832ZM58.605 31.2832C53.4774 31.4715 48.5381 32.6009 43.7398 34.8129L42.6578 35.3777L42.4225 35.1424L43.2695 33.8247C45.7625 29.4948 47.315 24.8357 48.0677 19.6119C58.7462 21.5883 72.4354 26.1064 73 38.3898L72.4354 38.7662C69.3777 33.1188 65.5202 31.2832 58.605 31.2832ZM29.439 39.5663C26.8987 40.9311 24.1702 41.7783 21.4418 42.1076C20.1716 42.2489 14.2443 42.2959 14.1973 39.9429C14.1973 37.872 19.0898 37.4014 20.5481 37.3074C23.6528 37.2131 26.5694 37.9662 29.439 39.331V39.5663Z" fill="white"/>
</svg>
