<?xml version="1.0" encoding="UTF-8"?> <svg xmlns="http://www.w3.org/2000/svg" width="80" height="80" viewBox="0 0 80 80" fill="none"><rect width="80" height="80" fill="#E00025"></rect><path d="M9.93455 28.5263V52.4737C9.93455 53.9474 9.93455 57.6316 7 57.6316V58H22.4064V57.6316C19.4719 57.6316 19.4719 53.9474 19.4719 52.4737V24.8421H29.376V52.4737C29.376 53.9474 29.376 57.6316 26.4414 57.6316V58H41.8478V57.6316C38.9133 57.6316 38.9133 53.9474 38.9133 52.4737V28.5263C38.9133 27.0526 38.9133 23.3684 41.8478 23.3684V23H7V23.3684C9.93455 23.3684 9.93455 27.0526 9.93455 28.5263Z" fill="white"></path><path d="M60.2826 38.5839C58.7564 38.5839 57.2302 38.5839 55.7041 39.0949L54.941 39.3504V24.7883H59.0108C66.3873 24.7883 68.4223 29.1314 68.931 31.9416H69.4397L69.1853 23H43.2402V23.2555C45.7839 23.2555 45.7839 26.8321 45.7839 28.365V52.635C45.7839 54.1679 45.7839 57.7445 43.2402 57.7445V58H60.7913C68.4222 58 73.0008 54.1679 73.0008 47.781C72.7464 43.438 69.4397 38.5839 60.2826 38.5839ZM57.4846 56.4672C54.6866 56.4672 54.6866 54.1679 54.6866 53.146V40.8832H55.1953C55.7041 40.8832 56.2128 40.8832 56.7215 40.8832C62.5719 40.8832 63.0806 47.0146 63.0806 49.0584C63.0806 52.3796 61.3001 56.4672 57.4846 56.4672Z" fill="white"></path></svg> 