<?xml version="1.0" encoding="UTF-8"?> <svg xmlns="http://www.w3.org/2000/svg" width="80" height="80" viewBox="0 0 80 80" fill="none"><rect width="80" height="80" fill="white"></rect><path d="M53.4416 42.25L40.5068 64.25H63.3329C65.7846 60.0833 70.8402 51.75 71.4489 51.75H54.2025L57.246 47H72.2097L74.9996 42.25H53.4416Z" fill="#566F79"></path><path d="M52.1738 55.25L48.623 60.5H60.2897L63.5868 55.25H52.1738Z" fill="white"></path><path d="M21.4854 40L35.9419 63.5L39.4926 58.25L28.0796 39.5L33.4056 30.75L44.3114 48.75L47.3549 43.25L33.4056 20.5L21.4854 40Z" fill="#566F79"></path><path d="M61.5581 17.5H37.4639L49.6378 37.75H73.9856L68.9131 29.75H62.8262L65.616 33.5H53.6958L46.8479 21.75H58.5146L60.5436 24.25H65.616L61.5581 17.5Z" fill="#566F79"></path><path d="M51.9203 0L60.2899 14.5H33.6594L17.9348 40.25L34.4203 68H61.558L53.442 80H28.8406L5 41V38.25L28.3333 0H51.9203Z" fill="url(#paint0_linear)"></path><defs><linearGradient id="paint0_linear" x1="33.279" y1="0" x2="33.279" y2="80" gradientUnits="userSpaceOnUse"><stop stop-color="#880623"></stop><stop offset="0.5" stop-color="#DA5261"></stop><stop offset="1" stop-color="#880623"></stop></linearGradient></defs></svg> 