<?xml version="1.0" encoding="UTF-8"?> <svg xmlns="http://www.w3.org/2000/svg" width="80" height="80" viewBox="0 0 80 80" fill="none"><rect width="80" height="80" fill="#F5F5F5"></rect><path d="M22.7783 37.6115L21.0688 35.555C20.8895 35.3396 21.0429 35.0124 21.3234 35.0124H24.9005C25.0709 34.5053 25.1672 33.9637 25.1672 33.401C25.1672 30.8248 23.2496 28.6035 20.6176 28.6035C17.9858 28.6035 16.0685 30.8248 16.0685 33.401C16.0685 35.9772 17.9858 38.167 20.6176 38.167C21.4151 38.167 22.1456 37.9633 22.7783 37.6115ZM30.5153 41.0871C30.7008 41.2926 30.5487 41.6235 30.2687 41.6235H26.3647C26.2061 41.6235 26.0555 41.5528 25.9536 41.4306L25.2922 40.6349C23.9447 41.5087 22.3401 42.0186 20.6176 42.0186C15.866 42.0186 12 38.1528 12 33.401C12 28.6492 15.866 24.7835 20.6176 24.7835C25.3697 24.7835 29.2354 28.6492 29.2354 33.401C29.2354 35.114 28.7308 36.7103 27.866 38.0535L30.5153 41.0871ZM66.5762 25.1798H63.3901C63.1565 25.1798 62.9664 25.3696 62.9664 25.6038V41.1982C62.9664 41.4321 63.1565 41.622 63.3901 41.622H66.5762C66.8099 41.622 67 41.4321 67 41.1982V25.6038C67 25.3696 66.8099 25.1798 66.5762 25.1798ZM61.2152 25.1798H57.651C57.4642 25.1798 57.3001 25.3008 57.2454 25.4776L54.4251 34.6933L51.3251 25.4674C51.2674 25.2958 51.1056 25.1798 50.9229 25.1798H48.4356C48.2532 25.1798 48.0911 25.2958 48.0337 25.4674L44.9338 34.6933L42.1131 25.4776C42.0588 25.3008 41.8943 25.1798 41.7076 25.1798H38.1434C38.007 25.1798 37.8792 25.2449 37.7995 25.3545C37.7199 25.464 37.6983 25.6051 37.7415 25.7335L42.9767 41.3362C43.0344 41.5078 43.1964 41.6235 43.3785 41.6235H46.2075C46.3899 41.6235 46.552 41.5078 46.6097 41.3365L49.6794 32.2208L52.7488 41.3365C52.8066 41.5078 52.9686 41.6235 53.151 41.6235H55.98C56.1621 41.6235 56.3244 41.5078 56.3818 41.3362L61.6173 25.7335C61.6605 25.6051 61.6389 25.464 61.5593 25.3545C61.4793 25.2449 61.3516 25.1798 61.2152 25.1798ZM36.3921 25.6038V41.1982C36.3921 41.4321 36.2023 41.622 35.9684 41.622H32.7823C32.5486 41.622 32.3585 41.4321 32.3585 41.1982V25.6038C32.3585 25.3696 32.5486 25.1798 32.7823 25.1798H35.9684C36.2023 25.1798 36.3921 25.3696 36.3921 25.6038Z" fill="#F57D14"></path><path d="M19.4087 47.3348H15.368V49.0879H16.8226C17.8877 49.0879 18.7311 49.3469 19.3528 49.8649C19.9785 50.3788 20.2914 51.073 20.2914 51.9475C20.2914 52.8261 19.9806 53.5327 19.359 54.0673C18.7415 54.5978 17.9188 54.8672 16.891 54.8755H13.4844V45.8242H19.4087V47.3348ZM15.368 50.5923V53.3773H16.8537C17.3303 53.3773 17.7095 53.2467 17.9913 52.9856C18.2773 52.7245 18.4203 52.3743 18.4203 51.935C18.4203 51.5248 18.2835 51.2015 18.01 50.9653C17.7406 50.7249 17.3697 50.6006 16.8972 50.5923H15.368Z" fill="#2A303B"></path><path d="M25.6466 54.8755C25.5637 54.7138 25.5036 54.5128 25.4663 54.2725C25.0312 54.7573 24.4655 54.9998 23.7692 54.9998C23.1103 54.9998 22.5632 54.8091 22.1281 54.4279C21.697 54.0466 21.4815 53.5658 21.4815 52.9856C21.4815 52.2728 21.7447 51.7258 22.271 51.3445C22.8015 50.9632 23.5661 50.7705 24.5649 50.7663H25.3917V50.3809C25.3917 50.0701 25.3109 49.8214 25.1493 49.6349C24.9918 49.4484 24.7411 49.3552 24.3971 49.3552C24.0945 49.3552 23.8562 49.4277 23.6822 49.5728C23.5123 49.7178 23.4273 49.9168 23.4273 50.1696H21.6307C21.6307 49.78 21.7509 49.4194 21.9913 49.0879C22.2317 48.7563 22.5715 48.4973 23.0108 48.3108C23.4501 48.1202 23.9433 48.0249 24.4903 48.0249C25.3192 48.0249 25.9761 48.2342 26.461 48.6527C26.95 49.0672 27.1945 49.6515 27.1945 50.4058V53.3213C27.1986 53.9596 27.2878 54.4424 27.4618 54.7698V54.8755H25.6466ZM24.1608 53.6259C24.4261 53.6259 24.6706 53.5679 24.8944 53.4519C25.1182 53.3317 25.284 53.1721 25.3917 52.9732V51.8169H24.7203C23.821 51.8169 23.3423 52.1278 23.2843 52.7494L23.2781 52.8551C23.2781 53.0789 23.3568 53.2633 23.5143 53.4084C23.6718 53.5534 23.8873 53.6259 24.1608 53.6259Z" fill="#2A303B"></path><path d="M34.7876 54.8755H32.9848V52.2894H30.7531V54.8755H28.9565V48.1492H30.7531V50.8472H32.9848V48.1492H34.7876V54.8755Z" fill="#2A303B"></path><path d="M39.1978 52.3951H38.4767V54.8755H36.6801V48.1492H38.4767V50.6793H39.117L40.5841 48.1492H42.8531L40.6525 51.3507L43.0583 54.8755H40.6649L39.1978 52.3951Z" fill="#2A303B"></path></svg> 