<?xml version="1.0" encoding="UTF-8"?> <svg xmlns="http://www.w3.org/2000/svg" width="80" height="80" viewBox="0 0 80 80" fill="none"><rect width="80" height="80" fill="#1C407F"></rect><path d="M7.46714 59.28C8.61914 59.4507 9.74981 59.7067 10.8591 60.048C12.0111 60.3467 13.0351 60.7093 13.9311 61.136V63.568H0.000583142L0 61.5684V60.5684V59.4434V25.488V23.5684V21.2V18.768H0.683142C2.38981 18.768 4.33114 18.6827 6.50714 18.512C8.72581 18.3413 10.7525 18.256 12.5871 18.256C14.8485 18.256 17.0458 18.4907 19.1791 18.96C21.3551 19.3867 23.2751 20.1333 24.9391 21.2C26.6458 22.2667 28.0111 23.696 29.0351 25.488C30.0591 27.2373 30.5711 29.4347 30.5711 32.08C30.5711 34.5973 30.0591 36.7733 29.0351 38.608C28.0538 40.4427 26.7311 41.9573 25.0671 43.152C23.4031 44.3467 21.4831 45.2427 19.3071 45.84C17.1311 46.3947 14.8911 46.672 12.5871 46.672C12.3738 46.672 12.0325 46.672 11.5631 46.672C11.0938 46.672 10.5818 46.672 10.0271 46.672C9.51514 46.6293 9.00314 46.608 8.49114 46.608C8.02181 46.5653 7.68047 46.5227 7.46714 46.48V59.28ZM10.9231 22.416C10.0698 22.416 9.38714 22.4587 8.87514 22.544C8.40581 22.5867 7.93647 22.672 7.46714 22.8V42.256C7.85114 42.384 8.42714 42.4693 9.19514 42.512C9.96314 42.512 10.5818 42.512 11.0511 42.512C12.2031 42.512 13.3125 42.32 14.3791 41.936C15.4458 41.552 16.3845 40.9547 17.1951 40.144C18.0485 39.3333 18.7311 38.288 19.2431 37.008C19.7551 35.728 20.0111 34.192 20.0111 32.4C20.0111 28.9867 19.1791 26.4693 17.5151 24.848C15.8511 23.2267 13.6538 22.416 10.9231 22.416Z" fill="white"></path><path d="M24.7246 23.056C22.7193 22.7147 20.97 22.096 19.4766 21.2V18.768H53.8446C53.8446 19.7493 53.802 20.8373 53.7166 22.032C53.6313 23.2267 53.5246 24.4213 53.3966 25.616C53.2686 26.8107 53.1193 27.9627 52.9486 29.072C52.778 30.1813 52.6073 31.184 52.4366 32.08H49.8126L45.8446 22.928H34.3246V37.52C34.7086 37.4773 35.178 37.4347 35.7326 37.392C36.2873 37.3067 36.842 37.2427 37.3966 37.2C37.994 37.1573 38.57 37.136 39.1246 37.136C39.722 37.0933 40.234 37.072 40.6606 37.072C42.8366 37.072 44.906 37.3067 46.8686 37.776C48.8313 38.2453 50.538 39.0133 51.9886 40.08C53.482 41.104 54.6553 42.448 55.5086 44.112C56.4046 45.776 56.8526 47.7813 56.8526 50.128C56.8526 52.3893 56.3833 54.3733 55.4446 56.08C54.5486 57.7867 53.29 59.216 51.6686 60.368C50.09 61.4773 48.1913 62.3307 45.9726 62.928C43.7966 63.4827 41.4286 63.76 38.8686 63.76C38.6553 63.76 38.122 63.7387 37.2686 63.696C36.4153 63.696 35.4553 63.6747 34.3886 63.632C33.322 63.632 32.2553 63.6107 31.1886 63.568C30.122 63.568 29.2686 63.568 28.6286 63.568H19.4766V61.136C20.2873 60.6667 21.1193 60.2827 21.9726 59.984C22.8686 59.6427 23.786 59.408 24.7246 59.28V23.056ZM37.9086 41.232C37.226 41.232 36.5646 41.2747 35.9246 41.36C35.2846 41.4027 34.7513 41.488 34.3246 41.616V59.344C34.4953 59.3867 34.7513 59.4293 35.0926 59.472C35.4766 59.5147 35.8606 59.5573 36.2446 59.6C36.6286 59.6 36.9913 59.6 37.3326 59.6C37.7166 59.6 38.0153 59.6 38.2286 59.6C40.746 59.6 42.7086 58.7893 44.1166 57.168C45.5673 55.5467 46.2926 53.264 46.2926 50.32C46.2926 47.504 45.6313 45.2853 44.3086 43.664C42.986 42.0427 40.8526 41.232 37.9086 41.232Z" fill="white"></path><path d="M60.9246 63.568H45.1166V61.136C45.7993 60.7093 46.5246 60.3467 47.2926 60.048C48.1033 59.7067 48.8926 59.4507 49.6606 59.28L66.1727 18H70.9087L80 41.5684V55.5684V60.0684V63.5684L71.7407 63.568V61.136C72.5513 60.752 73.426 60.3893 74.3647 60.048C75.3033 59.7067 76.1993 59.4507 77.0527 59.28L73.3407 49.104H59.1326L55.3566 59.28C57.3193 59.536 59.1753 60.1547 60.9246 61.136V63.568ZM60.6686 44.944H71.9967L67.8367 32.72L66.6207 27.216H66.4927L65.0847 32.848L60.6686 44.944Z" fill="white"></path><mask id="mask0" maskUnits="userSpaceOnUse" x="0" y="18" width="80" height="46"><path d="M7.46714 59.28C8.61914 59.4507 9.74981 59.7067 10.8591 60.048C12.0111 60.3467 13.0351 60.7093 13.9311 61.136V63.568H0.000583142L0 61.5684V60.5684V59.4434V25.488V23.5684V21.2V18.768H0.683142C2.38981 18.768 4.33114 18.6827 6.50714 18.512C8.72581 18.3413 10.7525 18.256 12.5871 18.256C14.8485 18.256 17.0458 18.4907 19.1791 18.96C21.3551 19.3867 23.2751 20.1333 24.9391 21.2C26.6458 22.2667 28.0111 23.696 29.0351 25.488C30.0591 27.2373 30.5711 29.4347 30.5711 32.08C30.5711 34.5973 30.0591 36.7733 29.0351 38.608C28.0538 40.4427 26.7311 41.9573 25.0671 43.152C23.4031 44.3467 21.4831 45.2427 19.3071 45.84C17.1311 46.3947 14.8911 46.672 12.5871 46.672C12.3738 46.672 12.0325 46.672 11.5631 46.672C11.0938 46.672 10.5818 46.672 10.0271 46.672C9.51514 46.6293 9.00314 46.608 8.49114 46.608C8.02181 46.5653 7.68047 46.5227 7.46714 46.48V59.28ZM10.9231 22.416C10.0698 22.416 9.38714 22.4587 8.87514 22.544C8.40581 22.5867 7.93647 22.672 7.46714 22.8V42.256C7.85114 42.384 8.42714 42.4693 9.19514 42.512C9.96314 42.512 10.5818 42.512 11.0511 42.512C12.2031 42.512 13.3125 42.32 14.3791 41.936C15.4458 41.552 16.3845 40.9547 17.1951 40.144C18.0485 39.3333 18.7311 38.288 19.2431 37.008C19.7551 35.728 20.0111 34.192 20.0111 32.4C20.0111 28.9867 19.1791 26.4693 17.5151 24.848C15.8511 23.2267 13.6538 22.416 10.9231 22.416Z" fill="white"></path><path d="M24.7246 23.056C22.7193 22.7147 20.97 22.096 19.4766 21.2V18.768H53.8446C53.8446 19.7493 53.802 20.8373 53.7166 22.032C53.6313 23.2267 53.5246 24.4213 53.3966 25.616C53.2686 26.8107 53.1193 27.9627 52.9486 29.072C52.778 30.1813 52.6073 31.184 52.4366 32.08H49.8126L45.8446 22.928H34.3246V37.52C34.7086 37.4773 35.178 37.4347 35.7326 37.392C36.2873 37.3067 36.842 37.2427 37.3966 37.2C37.994 37.1573 38.57 37.136 39.1246 37.136C39.722 37.0933 40.234 37.072 40.6606 37.072C42.8366 37.072 44.906 37.3067 46.8686 37.776C48.8313 38.2453 50.538 39.0133 51.9886 40.08C53.482 41.104 54.6553 42.448 55.5086 44.112C56.4046 45.776 56.8526 47.7813 56.8526 50.128C56.8526 52.3893 56.3833 54.3733 55.4446 56.08C54.5486 57.7867 53.29 59.216 51.6686 60.368C50.09 61.4773 48.1913 62.3307 45.9726 62.928C43.7966 63.4827 41.4286 63.76 38.8686 63.76C38.6553 63.76 38.122 63.7387 37.2686 63.696C36.4153 63.696 35.4553 63.6747 34.3886 63.632C33.322 63.632 32.2553 63.6107 31.1886 63.568C30.122 63.568 29.2686 63.568 28.6286 63.568H19.4766V61.136C20.2873 60.6667 21.1193 60.2827 21.9726 59.984C22.8686 59.6427 23.786 59.408 24.7246 59.28V23.056ZM37.9086 41.232C37.226 41.232 36.5646 41.2747 35.9246 41.36C35.2846 41.4027 34.7513 41.488 34.3246 41.616V59.344C34.4953 59.3867 34.7513 59.4293 35.0926 59.472C35.4766 59.5147 35.8606 59.5573 36.2446 59.6C36.6286 59.6 36.9913 59.6 37.3326 59.6C37.7166 59.6 38.0153 59.6 38.2286 59.6C40.746 59.6 42.7086 58.7893 44.1166 57.168C45.5673 55.5467 46.2926 53.264 46.2926 50.32C46.2926 47.504 45.6313 45.2853 44.3086 43.664C42.986 42.0427 40.8526 41.232 37.9086 41.232Z" fill="white"></path><path d="M60.9246 63.568H45.1166V61.136C45.7993 60.7093 46.5246 60.3467 47.2926 60.048C48.1033 59.7067 48.8926 59.4507 49.6606 59.28L66.1727 18H70.9087L80 41.5684V55.5684V60.0684V63.5684L71.7407 63.568V61.136C72.5513 60.752 73.426 60.3893 74.3647 60.048C75.3033 59.7067 76.1993 59.4507 77.0527 59.28L73.3407 49.104H59.1326L55.3566 59.28C57.3193 59.536 59.1753 60.1547 60.9246 61.136V63.568ZM60.6686 44.944H71.9967L67.8367 32.72L66.6207 27.216H66.4927L65.0847 32.848L60.6686 44.944Z" fill="white"></path></mask><g mask="url(#mask0)"><path d="M40 30H120L80 80H0L40 30Z" fill="#FCB016"></path></g></svg> 