<?xml version="1.0" encoding="UTF-8"?> <svg xmlns="http://www.w3.org/2000/svg" width="80" height="80" viewBox="0 0 80 80" fill="none"><rect x="0.000976562" width="80" height="80" fill="#F5F8FA"></rect><path d="M46.2943 57.7384C43.515 59.8637 40.2453 61.4986 36.158 62.316V40.4087H29.6186V52.0163C26.6758 50.5448 24.2234 48.5831 22.4251 46.1308C20.2997 43.3515 18.6648 40.0817 17.8474 35.9945H39.7547V29.455H28.1472C29.6186 26.5122 31.5804 24.0599 34.0327 22.2614C36.8121 20.1361 40.0818 18.5012 44.1689 17.6838V39.9183H50.7083V27.9835C53.6511 29.455 56.1035 31.4169 57.9019 33.8692C60.0273 36.6485 61.6622 39.9183 62.4795 44.0053H40.7357V50.5448H52.1797C50.7085 53.4878 48.7465 55.9401 46.2943 57.7384ZM70 50.5448L69.5096 46.7846C68.6921 39.7547 66.4033 34.0326 62.9699 29.6184C59.8637 25.5312 55.6131 22.5884 50.5449 20.6265V10L46.7847 10.4904C39.7547 11.3079 34.0327 13.5966 29.6186 17.03C25.5313 20.1361 22.5885 24.3869 20.6267 29.455H10L10.4905 33.2152C11.3079 40.2451 13.5967 45.9672 17.03 50.3814C20.1362 54.4686 24.3869 57.4114 29.4551 59.3733V70L33.2152 69.5096C40.2453 68.6921 45.9672 66.4032 50.3814 62.97C54.4687 59.8637 57.4115 55.6131 59.3733 50.5448H70Z" fill="#00863E"></path></svg> 