<?xml version="1.0" encoding="UTF-8"?> <svg xmlns="http://www.w3.org/2000/svg" width="80" height="80" viewBox="0 0 80 80" fill="none"><rect width="80" height="80" fill="#00AEC7"></rect><rect width="80" height="80" fill="white" fill-opacity="0.9"></rect><g clip-path="url(#clip0)"><path d="M58.8455 55.1818H13L17.1552 41.5918H63L58.8455 55.1818Z" fill="#00AEC7"></path><path d="M32.5574 36.4966V27.9985H36.293V30.8131H38.0109V27.9985H41.7458V36.4966H38.0109V33.6807H36.293V36.4966H32.5574V36.4966ZM51.0421 31.7713L52.4607 27.9985H48.8183L47.6844 30.8138H47.0167V27.9985H43.281V36.4972H47.0167V33.6813H47.9093L49.0438 36.4972H52.7719L51.0421 31.7713V31.7713ZM58.0572 33.9081C57.1557 33.9081 56.9441 33.2032 56.9441 32.6539C56.9441 32.1071 57.1557 31.4185 58.0572 31.4185C58.9404 31.4185 59.1527 32.1071 59.1527 32.6539C59.1527 33.2032 58.9404 33.9081 58.0572 33.9081ZM59.4003 28.9447C58.2689 28.9447 57.4921 29.385 56.9623 29.9514C56.98 29.2269 57.5091 28.4672 58.2336 28.168C59.4878 27.6369 60.9367 28.008 61.9616 27.1065V24.0059C61.9616 24.0059 61.0854 24.3656 59.4689 24.5558C58.4975 24.6705 57.1198 24.9791 55.9021 25.747C54.3821 26.7008 53.3048 28.2732 53.3048 31.4532C53.3048 35.6052 55.7068 36.7706 58.1807 36.7706C60.6186 36.7706 62.7919 35.5346 62.7919 32.8132C62.7919 30.1989 61.2372 28.9447 59.4003 28.9447V28.9447ZM26.1256 33.7878C25.6121 33.7878 25.1869 33.486 25.0275 33.1855V31.3089C25.2046 31.0078 25.6121 30.7073 26.1256 30.7073C27.0276 30.7073 27.4176 31.4859 27.4176 32.2475C27.4176 32.342 27.4113 32.4384 27.3987 32.5316C27.313 33.1912 26.9149 33.7878 26.1256 33.7878V33.7878ZM31.259 32.2475C31.259 30.1574 30.3103 28.1818 28.1723 27.7868C28.1238 27.778 28.0746 27.7698 28.0242 27.7629C27.8989 27.7446 27.7691 27.7301 27.6349 27.7232C27.5461 27.7182 27.456 27.7157 27.364 27.7157C27.2853 27.7157 27.2078 27.7175 27.1303 27.722C27.1272 27.722 27.1247 27.722 27.1209 27.7232C26.4374 27.7635 25.8377 27.9765 25.3803 28.2965C25.0647 28.5069 24.7976 28.7582 24.5853 29.0247L24.271 27.9985H21.3096V39.8914H25.0452V35.9832C25.3072 36.2175 25.6373 36.4197 26.0348 36.5608C26.4046 36.7108 26.8298 36.78 27.364 36.78C30.0735 36.78 31.259 34.584 31.259 32.2475V32.2475Z" fill="#333F48"></path></g><defs><clipPath id="clip0"><rect x="13" y="24" width="50" height="31.1881" fill="white"></rect></clipPath></defs></svg> 