<svg width="80" height="80" viewBox="0 0 80 80" fill="none" xmlns="http://www.w3.org/2000/svg">
<rect width="80" height="80" fill="#F2F4F6"/>
<path d="M55.3941 10L23 14.2319V23.8181L55.3941 20.9272V10Z" fill="#E4003A"/>
<path d="M43.0382 29.251C37.7493 29.251 33.4507 32.5138 32.385 33.8646V29.9492H23V70.0004H32.3261V55.7549C33.421 57.1351 37.6899 60.3392 43.0085 60.3392C51.8345 60.3392 56.6951 55.5493 56.6951 44.7723C56.6951 33.9951 51.841 29.251 43.0382 29.251ZM39.6972 52.5802C34.1404 52.5802 32.3915 50.5605 32.3915 44.7494C32.3915 38.9383 34.1273 36.9186 39.6972 36.9186C45.2671 36.9186 46.9703 38.909 46.9703 44.7494C46.9703 50.5898 45.2933 52.5671 39.6972 52.5671V52.5802Z" fill="#00274F"/>
</svg>
