<?xml version="1.0" encoding="UTF-8"?> <svg xmlns="http://www.w3.org/2000/svg" width="80" height="80" viewBox="0 0 80 80" fill="none"><rect width="80" height="80" fill="#E41A19"></rect><path d="M40.1251 12.8395C40.6663 12.4429 41.141 11.9638 41.5314 11.4197C41.1407 10.8759 40.6661 10.3968 40.1251 10C39.5841 10.3968 39.1095 10.8759 38.7188 11.4197C39.1095 11.9635 39.5841 12.4427 40.1251 12.8395" fill="white"></path><path d="M41.0898 17.7532V15.1103C42.0127 14.87 43.0235 14.739 43.1114 15.3068C43.0279 16.2299 42.7268 17.1203 42.2324 17.9061C42.8257 17.9061 43.3751 18.1682 43.8585 18.2555C44.6115 17.2038 45.108 15.9924 45.3088 14.7171C45.3088 12.7732 42.1885 13.3411 41.1777 13.625L40.3207 13.8434L39.4637 13.625C38.4309 13.3411 35.3984 12.7513 35.3105 14.6953C35.5331 15.9652 36.0441 17.1679 36.8048 18.2119C37.2882 18.2119 37.7936 17.9716 38.3869 17.8624C37.8918 17.077 37.5906 16.1864 37.508 15.2632C37.508 14.6953 38.5847 14.8482 39.4857 15.0666V17.7532H41.0898V17.7532Z" fill="white"></path><path d="M43.5517 18.9337C42.4935 18.6683 41.4115 18.5073 40.3215 18.4531C39.2104 18.4994 38.1065 18.653 37.0254 18.9118L37.5308 20.6592C38.4414 20.4181 39.3792 20.2934 40.3215 20.2879C41.2755 20.2963 42.2231 20.4435 43.1342 20.7247L43.5517 18.9337Z" fill="white"></path><path d="M24.5675 70.0005H30.2589C31.7657 68.2963 33.0844 66.4363 34.1923 64.4526C33.9525 63.3028 33.5686 62.1874 33.0496 61.1326C33.0496 58.9483 39.6419 52.2428 39.6419 52.2428C37.9646 51.4905 36.1615 51.0535 34.3241 50.9541C29.2041 50.9541 27.0067 53.6625 27.0067 57.0262C27.3097 59.4589 28.1019 61.8061 29.336 63.9284C29.0975 64.7382 28.6282 65.462 27.9848 66.0124C27.3414 66.5628 26.5514 66.9163 25.7102 67.0299C25.2504 66.9754 24.7857 66.9754 24.3258 67.0299C24.0795 67.1497 23.8724 67.3363 23.7285 67.5683C23.5846 67.8002 23.5098 68.068 23.5128 68.3405C23.5128 69.0613 23.5128 69.8913 23.5128 69.8913L24.5895 68.7555V69.935L24.5675 70.0005Z" fill="white"></path><path d="M57.4621 37.4121L57.1106 36.8661C57.6941 36.5234 58.3518 36.3247 59.0286 36.2867C59.7053 36.2487 60.3813 36.3725 61 36.6476C59.308 33.3058 55.1768 34.2668 55.045 37.2592C54.3835 37.6817 53.8448 38.2689 53.4825 38.9625C53.1201 39.6561 52.9467 40.4318 52.9794 41.2127C52.9794 44.7729 57.1106 51.7624 57.1106 53.4006C57.1544 53.6515 57.1403 53.9091 57.0694 54.1538C56.9985 54.3985 56.8726 54.6241 56.7011 54.8134C56.5297 55.0027 56.3173 55.1508 56.0799 55.2466C55.8425 55.3424 55.5863 55.3834 55.3306 55.3664C54.4297 55.3664 53.5288 54.733 52.1004 52.8327C50.4366 50.4355 48.3073 48.3933 45.8378 46.8261L41.6407 43.8992L47.5298 39.5308L47.9693 41.715C48.9521 40.3346 49.6104 38.7524 49.8957 37.0852C50.1809 35.418 50.0858 33.7084 49.6173 32.0826C49.6173 31.886 49.4196 31.4055 49.3317 31.0779L50.8479 31.6458C50.8479 31.4929 50.8479 31.0342 50.8479 30.8813C49.8151 25.5737 45.9037 21.4236 40.52 21.4236C39.0283 21.3933 37.5423 21.6149 36.1252 22.0789L36.3669 23.3021C35.7736 23.586 32.3456 25.0058 32.3456 25.0058C32.3286 26.2547 32.8015 27.4612 33.664 28.3695C34.6737 28.5429 35.7096 28.4907 36.6965 28.2166C36.8516 28.4153 36.948 28.6531 36.9748 28.9032C37.0017 29.1533 36.9579 29.406 36.8484 29.6327C36.7388 29.8595 36.5679 30.0515 36.3548 30.1872C36.1417 30.3228 35.8948 30.3968 35.6417 30.4008H34.1035C34.0701 30.7113 34.1244 31.025 34.2603 31.3066C34.3961 31.5882 34.6081 31.8267 34.8726 31.9953C35.957 32.0381 37.043 32.0162 38.1248 31.9297C38.5264 31.9514 38.9268 31.8683 39.2862 31.6887C39.6455 31.5092 39.9514 31.2393 40.1735 30.906C40.3956 30.5726 40.5261 30.1874 40.5522 29.7884C40.5783 29.3895 40.499 28.9907 40.3222 28.6316C40.2441 28.2473 40.1031 27.8783 39.9047 27.5394C40.2863 27.7829 40.6124 28.103 40.8622 28.4792C41.112 28.8553 41.2798 29.2792 41.355 29.7237C41.485 30.0865 41.5285 30.4744 41.4822 30.8568C41.4358 31.2392 41.3009 31.6057 41.0879 31.9275C40.8749 32.2492 40.5897 32.5175 40.2548 32.7112C39.9199 32.9049 39.5443 33.0187 39.1576 33.0437C36.9602 33.4587 37.2678 33.2403 34.8946 33.7426C33.6895 34.0465 32.5825 34.6515 31.6788 35.5002C30.775 36.3488 30.1044 37.413 29.7307 38.5916L26.5883 39.7929L25.138 40.339C23.6635 40.7726 22.2413 41.3659 20.897 42.1082V42.1082C20.0418 42.7787 19.457 43.732 19.2489 44.7948C19.0851 45.1358 19 45.5089 19 45.8869C19 46.2648 19.0851 46.638 19.2489 46.979C20.072 47.5649 21.0733 47.8503 22.0836 47.7872L20.9629 46.695L22.4132 46.5203C22.9652 46.0863 23.3651 45.49 23.5559 44.8166L25.7533 45.1006C27.2557 45.3225 28.7904 45.0784 30.1482 44.4016C30.8276 45.7678 31.878 46.9178 33.1806 47.7216L34.3672 48.4424C37.5755 50.0587 44.3655 52.5706 44.3655 52.5706C44.3609 52.7049 44.3149 52.8345 44.2337 52.9419C42.2427 54.8222 41.0681 57.4003 40.9595 60.128C40.9595 63.7319 46.7387 63.7101 46.7387 63.7101H48.2769C47.9693 65.108 46.9145 67.052 45.7499 67.052C45.2168 66.9939 44.6789 66.9939 44.1458 67.052C43.911 67.1761 43.7152 67.3619 43.5795 67.5892C43.4439 67.8165 43.3737 68.0764 43.3767 68.3406C43.3767 69.0396 43.3767 69.8259 43.3767 69.8259L44.4314 68.712V69.8259H50.2546L50.6721 68.9522C51.9043 66.8635 52.8573 64.624 53.5068 62.2904C53.5068 61.1546 48.4527 60.1061 48.4747 60.1061C49.1579 57.8908 49.7082 55.6371 50.1227 53.3569C52.1224 56.0653 53.9463 57.0919 55.2647 57.0919C56.1452 57.0979 56.9929 56.7604 57.6256 56.1519C58.2584 55.5433 58.6258 54.7123 58.6488 53.8374C58.6488 52.0901 57.572 50.4082 55.8141 45.9306C54.6055 42.8071 53.4848 40.2516 55.6163 38.6571L55.7042 38.9629C56.0728 39.263 56.5181 39.4553 56.9903 39.5185C57.4626 39.5816 57.9432 39.5131 58.3785 39.3205C58.8138 39.128 59.1867 38.819 59.4556 38.428C59.7245 38.037 59.8788 37.5794 59.9013 37.1063C59.0776 36.9152 58.2123 37.0236 57.4621 37.4121ZM37.0481 23.586C37.9571 23.4627 38.8827 23.5834 39.7289 23.9355C37.8172 25.1587 36.8064 24.8965 37.0481 23.586V23.586ZM36.1252 46.8916H36.3889H36.1252Z" fill="white"></path><path d="M28.4121 29.44L27.5551 28.3697C26.8035 27.2148 25.9266 26.1454 24.9402 25.1808V25.1808C24.1319 24.6243 23.1489 24.3762 22.1714 24.4818C21.8337 24.4325 21.489 24.4622 21.1648 24.5683C20.8406 24.6745 20.5458 24.8543 20.3036 25.0934C19.9912 25.947 19.9912 26.8827 20.3036 27.7363L20.9409 26.4913L21.4682 27.6926C22.0328 27.9959 22.6753 28.1251 23.3141 28.0639L23.5778 30.1171C23.5778 30.1171 24.0832 33.7866 26.7421 34.4855C28.45 34.8459 30.231 34.5985 31.7742 33.7866L28.4121 29.44Z" fill="white"></path></svg> 