<?xml version="1.0" encoding="UTF-8"?> <svg xmlns="http://www.w3.org/2000/svg" width="80" height="80" viewBox="0 0 80 80" fill="none"><rect width="80" height="80" fill="white"></rect><path d="M4.79042 45.2814L2.87425 74.0239H80V72.5868L32.5748 72.1078L31.6168 71.1497H79.521V68.2754L37.8443 67.7964L36.4072 66.3593H78.5629V63.485H42.1557L40.2395 61.5689H77.6048V58.6946H46.9461L44.5509 56.2994H76.6467V53.9042H51.7365L49.3413 51.0299H75.6886L75.2096 49.1138H55.5689L53.1737 46.2395H74.2515V44.8024H60.3593L57.9641 41.9281H74.2515V40.491H65.1497L61.7964 36.6587H72.8144V26.1198L66.1078 23.2455V17.497L64.1916 16.0599V13.6647H62.7545L61.7964 15.5808H60.3593V13.6647L57.006 10.3114V6H55.5689V10.3114L53.1737 13.6647V15.5808H51.7365L50.2994 13.6647L47.9042 17.497V24.2036H45.988L44.5509 20.3713V17.497H45.988V15.5808H44.5509L43.1138 11.7485V6L40.7186 7.91617L42.1557 9.35329V11.7485L40.2395 15.5808L38.8024 16.0599V17.497H40.7186V20.3713L35.4491 30.9102H34.491L33.5329 24.2036H34.491V23.2455L32.5748 19.4132V16.5389H28.7425L30.1796 18.4551H31.6168V19.4132L28.7425 23.2455V24.2036H30.1796L28.7425 31.8683L21.0778 20.3713V16.5389H20.1198V17.497H16.2874V20.3713H20.1198L6.22754 41.9281L0 43.3653L4.79042 45.2814Z" fill="#272361"></path></svg> 