<?xml version="1.0" encoding="UTF-8"?> <svg xmlns="http://www.w3.org/2000/svg" width="80" height="80" viewBox="0 0 80 80" fill="none"><rect width="80" height="80" fill="#F5F8FA"></rect><path d="M8 40.0704C8.36056 51.065 13.5587 58.7002 16.1127 61.1434V40.0704C16.8338 20.6467 32.338 15.4852 40 15.3324C60.1916 17.1649 64.939 32.5879 64.7887 40.0704C63.3143 65.0721 41.3521 66.0299 31.4366 62.9757V71.2217C63.8873 76.3525 71.5429 55.0274 72 39.1542C70.1972 13.8666 49.9155 7.85011 40 8.00281C14.7606 9.10227 8.15023 29.8393 8 40.0704Z" fill="#153F65"></path><ellipse cx="40.4491" cy="40.5294" rx="18.0282" ry="18.3244" fill="#4997CE"></ellipse><path d="M22.4209 57.481V41.9053L31.435 50.6093V62.9783L22.4209 57.481Z" fill="#4997CE"></path><ellipse cx="40.4477" cy="40.5305" rx="9.9155" ry="10.0784" fill="white"></ellipse></svg> 