<?xml version="1.0" encoding="UTF-8"?> <svg xmlns="http://www.w3.org/2000/svg" width="80" height="80" viewBox="0 0 80 80" fill="none"><rect width="80" height="80" fill="#F5F8FA"></rect><path d="M45.4811 15L38.2041 23.6623L60.9447 30.9569L63.2188 28.2214L45.4811 15Z" fill="#00441B"></path><path d="M60.9449 30.9571C31.4731 11.9911 8.03503 28.5255 0 39.1635L11.3703 47.3697C25.1966 30.2274 44.1169 35.9719 51.8487 40.987L60.9449 30.9571Z" fill="#70BC1F"></path><path d="M34.7334 64.5271L41.7779 55.6737L19.1019 48.7376L16.6511 51.7834L34.7334 64.5271Z" fill="#70BC1F"></path><path d="M19.1021 48.7381C49.067 66.9113 71.8072 50.0095 79.557 39.161L67.9729 31.2609C54.6065 48.7659 35.5405 43.528 27.6783 38.7209L19.1021 48.7381Z" fill="#00441B"></path></svg> 