<?xml version="1.0" encoding="UTF-8"?> <svg xmlns="http://www.w3.org/2000/svg" width="80" height="80" viewBox="0 0 80 80" fill="none"><rect width="80" height="80" fill="#F5F8FA"></rect><path d="M64.5456 30.9326C67.5585 30.9326 69.9998 28.4853 69.9998 25.467C69.9998 22.4469 67.5585 19.9996 64.5456 19.9996C61.5334 19.9996 59.0908 22.4469 59.0908 25.467C59.0908 28.4853 61.5334 30.9326 64.5456 30.9326" fill="#0A9AD6"></path><path d="M56.3632 50.0669C54.8573 50.0669 53.6362 48.8432 53.6362 47.3329C53.6362 45.8237 54.8573 44.6006 56.3632 44.6006C57.8695 44.6006 59.0906 45.8237 59.0906 47.3329C59.0906 48.8432 57.8695 50.0669 56.3632 50.0669ZM20.9085 33.6675C20.9085 32.1583 22.13 30.9335 23.6365 30.9335C25.1423 30.9335 26.3634 32.1583 26.3634 33.6675C26.3634 35.1767 25.1423 36.4009 23.6365 36.4009C22.13 36.4009 20.9085 35.1767 20.9085 33.6675V33.6675ZM56.3632 33.6675V26.8339C56.3632 23.0607 53.3107 20.0005 49.5452 20.0005C45.7803 20.0005 42.7278 23.0607 42.7278 26.8339V33.6675H37.273C37.273 26.12 31.1669 20.0005 23.6365 20.0005C16.1049 20.0005 10 26.12 10 33.6675C10 41.2145 16.1049 47.3329 23.6365 47.3329V54.1664C23.6365 57.9408 26.6889 61 30.4544 61C34.2205 61 37.273 57.9408 37.273 54.1664V47.3329H42.7278C42.7278 54.8816 48.8322 61 56.3632 61C63.8946 61 69.9996 54.8816 69.9996 47.3329C69.9996 39.786 63.8946 33.6675 56.3632 33.6675" fill="#0A9AD6"></path></svg> 