<?xml version="1.0" encoding="UTF-8"?> <svg xmlns="http://www.w3.org/2000/svg" width="80" height="80" viewBox="0 0 80 80" fill="none"><rect width="80" height="80" fill="#F5F8FA"></rect><path fill-rule="evenodd" clip-rule="evenodd" d="M54.9775 43.9659H71.1532C71.1532 41.7697 67.2254 40.207 62.4952 40.207C57.765 40.207 54.9775 40.207 54.9775 40.207V43.9659Z" fill="#00529C"></path><path fill-rule="evenodd" clip-rule="evenodd" d="M54.9775 44.6436H71.1532C71.1532 46.9664 67.2254 48.6136 62.4952 48.6136C57.765 48.6136 54.9775 48.6136 54.9775 48.6136V44.6436Z" fill="#00529C"></path><path fill-rule="evenodd" clip-rule="evenodd" d="M35.7627 43.9659H51.9383C51.9383 41.7697 48.0106 40.207 43.2804 40.207C38.5501 40.207 35.7627 40.207 35.7627 40.207V43.9659Z" fill="#00529C"></path><path fill-rule="evenodd" clip-rule="evenodd" d="M35.7627 44.6436H51.9383C51.9383 46.9664 48.0106 48.6136 43.2804 48.6136C38.5501 48.6136 35.7627 48.6136 35.7627 48.6136V44.6436Z" fill="#00529C"></path><path fill-rule="evenodd" clip-rule="evenodd" d="M32.0448 43.9659H9.36511C8.8583 43.5435 7 42.0653 7 40.207C11.7302 40.207 32.0448 40.207 32.0448 40.207V43.9659Z" fill="#00529C"></path><path fill-rule="evenodd" clip-rule="evenodd" d="M32.0474 44.6436H9.79004C11.775 46.2907 16.5053 48.6136 21.1932 48.6136C25.9235 48.6136 32.0474 48.6136 32.0474 48.6136V44.6436V44.6436Z" fill="#00529C"></path><path fill-rule="evenodd" clip-rule="evenodd" d="M71.9982 35.5186H9.36511C8.8583 35.9409 7 37.4613 7 39.3196C11.7302 39.3196 71.9982 39.3196 71.9982 39.3196V35.5186Z" fill="#00529C"></path><path fill-rule="evenodd" clip-rule="evenodd" d="M72.0008 34.8855H9.79004C11.775 33.2806 16.5053 31 21.1932 31C25.9235 31 71.9586 31 71.9586 31V34.8855H72.0008Z" fill="#00529C"></path></svg> 