<?xml version="1.0" encoding="UTF-8"?> <svg xmlns="http://www.w3.org/2000/svg" width="80" height="80" viewBox="0 0 80 80" fill="none"><rect width="80" height="80" fill="white"></rect><circle cx="34.2857" cy="45.7144" r="34.2857" fill="#3778BA"></circle><circle cx="45.7144" cy="34.2857" r="34.2857" fill="#8FCE42"></circle><circle cx="39.9997" cy="39.9997" r="30.8571" fill="white"></circle><path d="M32.9453 45.6963C32.9453 44.7279 32.6035 43.9873 31.9199 43.4746C31.2363 42.9505 30.0059 42.4036 28.2285 41.834C26.4512 41.2529 25.0441 40.6833 24.0073 40.125C21.1818 38.5983 19.769 36.5418 19.769 33.9556C19.769 32.6112 20.145 31.4149 20.897 30.3667C21.6603 29.3071 22.7484 28.4811 24.1611 27.8887C25.5853 27.2962 27.1803 27 28.9463 27C30.7236 27 32.3073 27.3247 33.6973 27.9741C35.0872 28.6121 36.1639 29.5179 36.9272 30.6914C37.702 31.8649 38.0894 33.1979 38.0894 34.6904H32.9624C32.9624 33.5511 32.6035 32.6681 31.8857 32.0415C31.168 31.4035 30.1597 31.0845 28.8608 31.0845C27.6076 31.0845 26.6335 31.3522 25.9385 31.8877C25.2435 32.4118 24.896 33.1068 24.896 33.9727C24.896 34.7816 25.3005 35.4595 26.1094 36.0063C26.9297 36.5532 28.1317 37.0659 29.7153 37.5444C32.632 38.4217 34.7568 39.5098 36.0898 40.8086C37.4229 42.1074 38.0894 43.7253 38.0894 45.6621C38.0894 47.8154 37.2747 49.5073 35.6455 50.7378C34.0163 51.9569 31.8231 52.5664 29.0659 52.5664C27.1519 52.5664 25.4087 52.2189 23.8364 51.5239C22.2642 50.8175 21.0622 49.8548 20.2305 48.6357C19.4102 47.4167 19 46.0039 19 44.3975H24.144C24.144 47.1432 25.7847 48.5161 29.0659 48.5161C30.285 48.5161 31.2363 48.2712 31.9199 47.7812C32.6035 47.2799 32.9453 46.585 32.9453 45.6963Z" fill="black"></path><path d="M41.5757 52.2246V27.3418H50.2915C53.3107 27.3418 55.6007 27.9229 57.1616 29.085C58.7225 30.2357 59.5029 31.9276 59.5029 34.1606C59.5029 35.3797 59.1896 36.4564 58.563 37.3906C57.9364 38.3135 57.0648 38.9914 55.9482 39.4243C57.2243 39.7433 58.2269 40.387 58.9561 41.3555C59.6966 42.3239 60.0669 43.5088 60.0669 44.9102C60.0669 47.3027 59.3035 49.1143 57.7769 50.3447C56.2502 51.5752 54.0741 52.2018 51.2485 52.2246H41.5757ZM46.7026 41.3896V48.106H51.0947C52.3024 48.106 53.2424 47.8211 53.9146 47.2515C54.5981 46.6704 54.9399 45.8729 54.9399 44.8589C54.9399 42.5802 53.7607 41.4238 51.4023 41.3896H46.7026ZM46.7026 37.7666H50.4966C53.0828 37.721 54.376 36.6899 54.376 34.6733C54.376 33.5454 54.0456 32.7365 53.3848 32.2466C52.7354 31.7453 51.7043 31.4946 50.2915 31.4946H46.7026V37.7666Z" fill="black"></path></svg> 