<?xml version="1.0" encoding="UTF-8"?> <svg xmlns="http://www.w3.org/2000/svg" width="80" height="80" viewBox="0 0 80 80" fill="none"><rect width="80" height="80" fill="#174882"></rect><g clip-path="url(#clip0)"><path d="M15 51.667L21.8333 56.3336C26 55.5003 43.3333 52.0003 43.3333 45.8336C43.3333 39.667 38.1667 38.167 33.6667 35.5003C29.1667 32.8336 27 31.5003 27 29.167C27 26.8336 29.1667 24.667 33.3333 23.3336L36 22.667C32.3333 23.167 25.3334 24.667 25.3334 29.3337C25.3334 34.0003 39.6666 38.3337 39.6666 45.167C39.6666 52.0003 15 51.667 15 51.667Z" fill="white"></path><path d="M29.334 29C29.334 25.8333 32.6673 24 35.334 23C31.834 23.8333 27.5007 25.6667 27.5007 29.1667C27.5007 32.6667 30.5007 33.1667 34.0007 35.1667C37.5007 37.1667 43.6673 41 43.6673 45.8333C43.6673 50.6667 39.834 51.6667 32.334 54.1667L22.334 56.6667L28.0006 60.3333C28.0006 60.3333 47.0007 54.8333 47.0007 47.1667C47.0007 34.3333 29.334 33.3333 29.334 29Z" fill="white"></path><path d="M46.8337 25.8333C46.8337 26.7174 46.4825 27.5652 45.8573 28.1903C45.2322 28.8155 44.3844 29.1667 43.5003 29.1667H42.667V30.8333H43.5003C44.1632 30.8566 44.8238 30.7432 45.4409 30.5002C46.0581 30.2571 46.6186 29.8897 47.0877 29.4207C47.5567 28.9516 47.9241 28.3911 48.1672 27.7739C48.4102 27.1568 48.5236 26.4962 48.5003 25.8333C48.5003 24.5514 47.9911 23.322 47.0847 22.4156C46.1782 21.5092 44.9489 21 43.667 21H38.667V32.8333H40.3337V28V22.6667H43.667C44.5068 22.6667 45.3123 23.0003 45.9062 23.5941C46.5 24.188 46.8337 24.9935 46.8337 25.8333V25.8333Z" fill="white"></path><path d="M43.667 19H36.667V32.8333H38.3337V20.6667H43.667C45.0373 20.6667 46.3514 21.211 47.3204 22.1799C48.2893 23.1489 48.8336 24.4631 48.8336 25.8333C48.8336 27.2478 48.2717 28.6044 47.2715 29.6046C46.2714 30.6047 44.9148 31.1666 43.5003 31.1666H42.667V32.8333H43.5003C45.154 32.597 46.6686 31.7772 47.7706 30.5218C48.8726 29.2665 49.4894 27.6584 49.5096 25.9881C49.5297 24.3177 48.9518 22.6953 47.8804 21.4137C46.8089 20.1322 45.3145 19.2761 43.667 19V19Z" fill="white"></path><path d="M55.8333 43.5V34.8333C55.8375 34.0041 55.5324 33.2031 54.9777 32.5867C54.4229 31.9704 53.6584 31.5829 52.8333 31.5C51.9624 31.5406 51.1379 31.9048 50.5213 32.5213C49.9048 33.1379 49.5406 33.9624 49.5 34.8333V43.5H51V34.6667C51.0208 34.4474 51.0849 34.2344 51.1885 34.04C51.2922 33.8457 51.4333 33.6738 51.6038 33.5343C51.7743 33.3948 51.9707 33.2905 52.1817 33.2274C52.3928 33.1643 52.6143 33.1437 52.8333 33.1667C53.0308 33.1874 53.2222 33.2471 53.3964 33.3423C53.5706 33.4375 53.7242 33.5664 53.8482 33.7214C53.9722 33.8765 54.0642 34.0546 54.1189 34.2455C54.1736 34.4363 54.1898 34.6361 54.1666 34.8333V43.5H55.8333Z" fill="white"></path><path d="M62.667 43.5V34.8333C62.6305 33.989 62.2898 33.1864 61.7077 32.5738C61.1257 31.9611 60.3416 31.5797 59.5003 31.5C58.6211 31.5125 57.7824 31.872 57.167 32.5C56.5664 33.1339 56.2119 33.9613 56.167 34.8333V43.5H57.8337V34.6667C57.8545 34.4474 57.9186 34.2344 58.0222 34.04C58.1258 33.8457 58.267 33.6738 58.4375 33.5343C58.6079 33.3948 58.8044 33.2905 59.0154 33.2274C59.2264 33.1643 59.4479 33.1437 59.667 33.1667C60.0491 33.2446 60.3918 33.454 60.6354 33.7586C60.8791 34.0631 61.0082 34.4434 61.0003 34.8333V43.5H62.667Z" fill="white"></path><path d="M59.5007 29.667C58.2302 29.6119 56.984 30.0273 56.0007 30.8337C55.2161 30.2055 54.2699 29.8118 53.2713 29.6979C52.2727 29.5841 51.2623 29.7548 50.3564 30.1903C49.4506 30.6258 48.6862 31.3084 48.1515 32.1594C47.6168 33.0104 47.3334 33.9952 47.334 35.0003V43.5003H49.0007V34.8336C48.9997 33.8894 49.363 32.9811 50.015 32.2981C50.667 31.6151 51.5574 31.2099 52.5007 31.167C53.1841 31.1729 53.8536 31.3615 54.4396 31.7131C55.0257 32.0648 55.5071 32.5667 55.834 33.167V33.167C56.1333 32.5798 56.5854 32.0841 57.1427 31.7321C57.7 31.3802 58.3418 31.1849 59.0006 31.167C59.4885 31.1431 59.9759 31.2217 60.4316 31.3975C60.8872 31.5733 61.301 31.8426 61.6464 32.1879C61.9917 32.5333 62.261 32.9471 62.4368 33.4028C62.6127 33.8584 62.6912 34.3458 62.6673 34.8336V43.5003H64.334V35.0003C64.3801 33.6574 63.9012 32.3493 62.9988 31.3536C62.0965 30.3579 60.8417 29.7529 59.5007 29.667V29.667Z" fill="white"></path></g><defs><clipPath id="clip0"><rect x="15" y="19" width="50" height="41.6667" fill="white"></rect></clipPath></defs></svg> 