<?xml version="1.0" encoding="UTF-8"?> <svg xmlns="http://www.w3.org/2000/svg" width="80" height="80" viewBox="0 0 80 80" fill="none"><rect width="80" height="80" fill="#65C824"></rect><path d="M57.8799 52.001V27.1182H66.8179C70.0194 27.1182 72.4518 27.7049 74.1152 28.8784C75.79 30.0519 76.6274 31.7552 76.6274 33.9883C76.6274 35.2757 76.3312 36.3752 75.7388 37.2866C75.1463 38.1981 74.2747 38.8703 73.124 39.3032C74.4229 39.645 75.4198 40.283 76.1147 41.2173C76.8097 42.1515 77.1572 43.2909 77.1572 44.6353C77.1572 47.0734 76.3825 48.9077 74.833 50.1382C73.2949 51.3573 71.0106 51.9782 67.98 52.001H57.8799ZM63.8784 41.4224V47.3867H67.8091C68.8914 47.3867 69.7231 47.1418 70.3042 46.6519C70.8853 46.1506 71.1758 45.4499 71.1758 44.5498C71.1758 42.4762 70.1447 41.4338 68.0825 41.4224H63.8784ZM63.8784 37.4917H67.0059C68.3161 37.4803 69.2503 37.241 69.8086 36.7739C70.3669 36.3068 70.646 35.6175 70.646 34.7061C70.646 33.6579 70.3441 32.9059 69.7402 32.4502C69.1364 31.9831 68.1623 31.7495 66.8179 31.7495H63.8784V37.4917Z" fill="white"></path><rect x="52" y="20" width="2" height="40" fill="white"></rect><path d="M47.312 41.4565H37.8784V47.3867H49.021V52.001H31.8799V27.1182H49.0552V31.7495H37.8784V36.9961H47.312V41.4565Z" fill="white"></path><rect x="26" y="20" width="2" height="40" fill="white"></rect><path d="M16.7144 45.3872C16.7144 44.5099 16.401 43.8263 15.7744 43.3364C15.1592 42.8465 14.0711 42.3395 12.5103 41.8154C10.9494 41.2913 9.67334 40.7843 8.68213 40.2944C5.45784 38.7108 3.8457 36.5347 3.8457 33.7661C3.8457 32.3875 4.24447 31.1742 5.04199 30.126C5.85091 29.0664 6.99023 28.2461 8.45996 27.665C9.92969 27.0726 11.5817 26.7764 13.416 26.7764C15.2048 26.7764 16.8055 27.0954 18.2183 27.7334C19.6424 28.3714 20.7476 29.2829 21.5337 30.4678C22.3198 31.6413 22.7129 32.9857 22.7129 34.501H16.7314C16.7314 33.487 16.4181 32.7008 15.7915 32.1426C15.1763 31.5843 14.3389 31.3052 13.2793 31.3052C12.2083 31.3052 11.3595 31.5444 10.7329 32.0229C10.1177 32.4901 9.81006 33.0882 9.81006 33.8174C9.81006 34.4554 10.1519 35.0365 10.8354 35.5605C11.519 36.0732 12.721 36.6087 14.4414 37.167C16.1618 37.7139 17.5745 38.3063 18.6797 38.9443C21.3685 40.4938 22.7129 42.63 22.7129 45.353C22.7129 47.5291 21.8926 49.2381 20.252 50.48C18.6113 51.7218 16.3612 52.3428 13.5015 52.3428C11.4849 52.3428 9.65625 51.9839 8.01562 51.2661C6.38639 50.5369 5.15592 49.5457 4.32422 48.2925C3.50391 47.0278 3.09375 45.5752 3.09375 43.9346H9.10938C9.10938 45.2676 9.45117 46.2531 10.1348 46.8911C10.8298 47.5177 11.952 47.8311 13.5015 47.8311C14.4927 47.8311 15.2731 47.6203 15.8428 47.1987C16.4238 46.7658 16.7144 46.1619 16.7144 45.3872Z" fill="white"></path></svg> 