<?xml version="1.0" encoding="UTF-8"?> <svg xmlns="http://www.w3.org/2000/svg" width="80" height="80" viewBox="0 0 80 80" fill="none"><rect width="80" height="80" fill="#F5F8FA"></rect><path fill-rule="evenodd" clip-rule="evenodd" d="M67.3204 53.8039C74.2831 49.9745 78 45.0087 78 40C78 34.9913 74.2831 30.0255 67.3204 26.1961C60.4298 22.4062 50.7744 20 40 20C29.2256 20 19.5702 22.4062 12.6796 26.1961C5.71695 30.0255 2 34.9913 2 40C2 45.0087 5.71695 49.9745 12.6796 53.8039C19.5702 57.5938 29.2256 60 40 60C50.7744 60 60.4298 57.5938 67.3204 53.8039ZM40 62C62.0914 62 80 52.1503 80 40C80 27.8497 62.0914 18 40 18C17.9086 18 0 27.8497 0 40C0 52.1503 17.9086 62 40 62Z" fill="#008000"></path><path d="M25.7911 43.8534C25.6212 46.2016 24.7519 48.0501 23.1831 49.3991C21.6244 50.748 19.566 51.4225 17.008 51.4225C14.2101 51.4225 12.0069 50.4832 10.3981 48.6047C8.79938 46.7162 8 44.1282 8 40.8407V39.5068C8 37.4084 8.36971 35.5599 9.10913 33.9611C9.84856 32.3624 10.9027 31.1383 12.2717 30.289C13.6506 29.4297 15.2493 29 17.0679 29C19.5859 29 21.6144 29.6745 23.1532 31.0234C24.692 32.3724 25.5813 34.2659 25.8211 36.704H21.3246C21.2147 35.2951 20.82 34.2759 20.1405 33.6464C19.471 33.0069 18.4468 32.6871 17.0679 32.6871C15.5691 32.6871 14.445 33.2267 13.6956 34.3059C12.9561 35.375 12.5764 37.0387 12.5564 39.297V40.9457C12.5564 43.3038 12.9112 45.0275 13.6206 46.1166C14.34 47.2058 15.4692 47.7504 17.008 47.7504C18.3969 47.7504 19.4311 47.4356 20.1105 46.8061C20.8 46.1666 21.1947 45.1824 21.2946 43.8534H25.7911Z" fill="#008000"></path><path d="M34.6192 29.2998L40.2248 45.1274L45.8005 29.2998H51.7059V51.1227H47.1944V45.1574L47.644 34.8604L41.7536 51.1227H38.666L32.7906 34.8754L33.2403 45.1574V51.1227H28.7438V29.2998H34.6192Z" fill="#008000"></path><path d="M69.8717 32.9419H60.1293V37.1686H63.6365C66.2045 37.1686 68.2379 37.7931 69.7368 39.0422C71.2456 40.2812 72 41.9549 72 44.0632C72 46.1816 71.2506 47.8852 69.7518 49.1742C68.2629 50.4532 66.2795 51.1027 63.8014 51.1227H55.5878V29.2998H69.8717V32.9419ZM60.1293 40.7958V47.5105H63.7115C64.8606 47.5105 65.7749 47.1958 66.4543 46.5663C67.1438 45.9368 67.4885 45.0924 67.4885 44.0333C67.4885 43.044 67.1588 42.2646 66.4993 41.6951C65.8498 41.1155 64.9555 40.8158 63.8164 40.7958H60.1293Z" fill="#008000"></path></svg> 