<?xml version="1.0" encoding="UTF-8"?> <svg xmlns="http://www.w3.org/2000/svg" width="80" height="80" viewBox="0 0 80 80" fill="none"><rect width="80" height="80" fill="#3B81B9"></rect><g clip-path="url(#clip0)"><path d="M39.4995 5C39.4995 5 15.8696 33.2916 23.5073 75C23.5567 41.7914 39.4995 24.2234 39.4995 24.2234C39.4995 24.2234 55.467 41.8161 55.4918 75.0247C63.1295 33.2916 39.4995 5 39.4995 5Z" fill="white"></path><path d="M39.5004 33.1914C39.5004 33.1914 24.1014 49.9193 29.4404 75.0234C29.9347 55.4293 39.5004 44.681 39.5004 44.681C39.5004 44.681 49.0661 55.4293 49.5604 75.0234C54.8994 49.8946 39.5004 33.1914 39.5004 33.1914Z" fill="white"></path></g><defs><clipPath id="clip0"><rect x="22" y="5" width="35" height="70" fill="white"></rect></clipPath></defs></svg> 