<?xml version="1.0" encoding="UTF-8"?> <svg xmlns="http://www.w3.org/2000/svg" width="80" height="80" viewBox="0 0 80 80" fill="none"><rect width="80" height="80" fill="#F2CD12"></rect><path d="M21.5682 46.1907C21.5682 45.2485 21.2356 44.5279 20.5705 44.0291C19.9054 43.5192 18.7082 42.9871 16.979 42.4328C15.2497 41.8675 13.8807 41.3132 12.8719 40.7701C10.1228 39.2847 8.74825 37.2838 8.74825 34.7675C8.74825 33.4594 9.11406 32.2955 9.84567 31.2757C10.5884 30.2447 11.647 29.4411 13.0216 28.8646C14.4072 28.2882 15.9591 28 17.6773 28C19.4066 28 20.9474 28.3159 22.2998 28.9478C23.6522 29.5685 24.6997 30.4498 25.4425 31.5916C26.1962 32.7334 26.5731 34.0303 26.5731 35.4825H21.5848C21.5848 34.374 21.2356 33.5149 20.5373 32.9052C19.8389 32.2844 18.8579 31.974 17.5942 31.974C16.3748 31.974 15.427 32.2345 14.7508 32.7555C14.0747 33.2654 13.7366 33.9416 13.7366 34.7841C13.7366 35.5711 14.1301 36.2307 14.9171 36.7628C15.7153 37.2949 16.8847 37.7937 18.4256 38.2593C21.2634 39.1128 23.3307 40.1715 24.6277 41.4352C25.9247 42.6989 26.5731 44.273 26.5731 46.1574C26.5731 48.2525 25.7805 49.8987 24.1954 51.0959C22.6102 52.282 20.4763 52.875 17.7937 52.875C15.9314 52.875 14.2354 52.5369 12.7056 51.8607C11.1759 51.1735 10.0064 50.2368 9.19719 49.0507C8.39906 47.8646 8 46.49 8 44.927H13.0049C13.0049 47.5985 14.6012 48.9343 17.7937 48.9343C18.9798 48.9343 19.9054 48.6959 20.5705 48.2193C21.2356 47.7315 21.5682 47.0553 21.5682 46.1907Z" fill="#165492"></path><path d="M49.6524 52.5425H44.6641L34.9535 36.6131V52.5425H29.9652V28.3326H34.9535L44.6807 44.2951V28.3326H49.6524V52.5425Z" fill="#165492"></path><path d="M54.0088 52.5425V28.3326H62.489C65.4265 28.3326 67.6546 28.8979 69.1733 30.0286C70.692 31.1482 71.4513 32.7943 71.4513 34.967C71.4513 36.1531 71.1464 37.2007 70.5368 38.1096C69.9271 39.0075 69.0791 39.6671 67.9927 40.0883C69.2343 40.3987 70.2098 41.025 70.9192 41.9673C71.6397 42.9095 72 44.0624 72 45.4258C72 47.7537 71.2573 49.5162 69.7719 50.7134C68.2865 51.9106 66.1692 52.5203 63.4201 52.5425H54.0088ZM58.9971 42.0005V48.5352H63.2705C64.4455 48.5352 65.36 48.2581 66.014 47.7038C66.6791 47.1385 67.0117 46.3625 67.0117 45.3759C67.0117 43.1589 65.8644 42.0338 63.5698 42.0005H58.9971ZM58.9971 38.4754H62.6885C65.2048 38.4311 66.463 37.4279 66.463 35.4658C66.463 34.3684 66.1415 33.5814 65.4986 33.1047C64.8667 32.617 63.8635 32.3731 62.489 32.3731H58.9971V38.4754Z" fill="#165492"></path></svg> 