<svg width="80" height="80" viewBox="0 0 80 80" fill="none" xmlns="http://www.w3.org/2000/svg">
<rect width="80" height="80" fill="white"/>
<path d="M80.0001 0C80.0001 0 51.0442 0.398769 32.9417 17.6988C17.7393 32.2255 25.8872 44.3482 38.6349 42.9615C38.9853 42.9369 39.0442 43.2517 38.5822 43.3695C31.1614 44.9998 17.2558 44.7298 12.4945 29.4988C7.95575 14.9769 18.935 0 18.935 0H0V55.8364V61.3708V80C0 80 28.9546 79.603 47.0571 62.3042C62.2608 47.7762 54.113 35.6531 41.3639 37.0398C41.0135 37.0648 40.9546 36.7501 41.4166 36.6322C48.8374 35.002 62.7448 35.2719 67.5043 50.5043C72.0431 65.0248 61.0638 80 61.0638 80H79.9988V19.4825H80.0001V0Z" fill="#E61B25"/>
</svg>
