<?xml version="1.0" encoding="UTF-8"?> <svg xmlns="http://www.w3.org/2000/svg" width="80" height="80" viewBox="0 0 80 80" fill="none"><rect width="80" height="80" fill="white"></rect><path d="M0 67.5C0 65.0147 2.01472 63 4.5 63H75.5C77.9853 63 80 65.0147 80 67.5V67.5C80 69.9853 77.9853 72 75.5 72H4.5C2.01472 72 0 69.9853 0 67.5V67.5Z" fill="#23527E"></path><path d="M0 56.5C0 54.0147 2.01472 52 4.5 52H75.5C77.9853 52 80 54.0147 80 56.5V56.5C80 58.9853 77.9853 61 75.5 61H4.5C2.01472 61 0 58.9853 0 56.5V56.5Z" fill="#23527E"></path><path d="M0 45.5C0 43.0147 2.01472 41 4.5 41H75.5C77.9853 41 80 43.0147 80 45.5V45.5C80 47.9853 77.9853 50 75.5 50H4.5C2.01472 50 0 47.9853 0 45.5V45.5Z" fill="#23527E"></path><path d="M0 34.5C0 32.0147 2.01472 30 4.5 30H75.5C77.9853 30 80 32.0147 80 34.5V34.5C80 36.9853 77.9853 39 75.5 39H4.5C2.01472 39 0 36.9853 0 34.5V34.5Z" fill="#23527E"></path><path d="M0 23.5C0 21.0147 2.01472 19 4.5 19H75.5C77.9853 19 80 21.0147 80 23.5V23.5C80 25.9853 77.9853 28 75.5 28H4.5C2.01472 28 0 25.9853 0 23.5V23.5Z" fill="#23527E"></path><path d="M0 12.5C0 10.0147 2.01472 8 4.5 8H75.5C77.9853 8 80 10.0147 80 12.5V12.5C80 14.9853 77.9853 17 75.5 17H4.5C2.01472 17 0 14.9853 0 12.5V12.5Z" fill="#23527E"></path><path d="M52.5005 8H26.5005C4.50048 33.2 16.3338 61.1667 25.0005 72H52.5005C24.5005 45.6 40.8338 18.3333 52.5005 8Z" fill="white"></path></svg> 