<?xml version="1.0" encoding="UTF-8"?> <svg xmlns="http://www.w3.org/2000/svg" width="80" height="80" viewBox="0 0 80 80" fill="none"><rect width="80" height="80" fill="#F5F8FA"></rect><path fill-rule="evenodd" clip-rule="evenodd" d="M27.6712 35.9475L29.3564 33.8234C28.2242 33.385 26.9847 33.3088 25.8076 33.6052L27.6712 35.9475ZM20.8526 44.4045L23.9839 40.5331L21.07 36.8604C19.782 38.0533 18.5331 39.3016 17.3037 40.5724L20.8526 44.4045ZM27.5922 45.1195L25.4706 47.72C26.776 48.0206 28.1441 47.8737 29.3564 47.3025L27.5922 45.1195ZM21.705 31.3218C19.1835 33.2872 16.8176 35.4455 14.6283 37.7775L16.0968 39.3262C18.26 37.0502 20.5781 34.9275 23.0343 32.9737C24.2378 32.1261 25.6675 31.6615 27.1376 31.6404C28.3013 31.6317 29.4523 31.8826 30.5075 32.3751L31.8948 30.6482C30.3998 29.8945 28.7506 29.5003 27.0775 29.4967C25.1392 29.5155 23.2575 30.1547 21.7063 31.3211L21.705 31.3218ZM31.041 46.5285C31.6029 46.0756 32.1144 45.5632 32.5668 45.0002L24.1231 34.3588L22.4581 35.7321L31.041 46.5285ZM24.258 49.2483L22.8112 50.9324C24.2034 51.5865 25.7368 51.8798 27.2712 51.7857C29.8377 51.5958 32.2603 50.5228 34.1297 48.748C35.4325 47.569 36.4546 46.1112 37.1203 44.4825C37.786 42.8537 38.0784 41.0956 37.9757 39.3381C37.7756 37.5251 37.137 35.7885 36.1156 34.2795L34.7479 36.0457C35.7552 37.7327 36.1079 39.7329 35.7387 41.6643C35.4191 43.4452 34.6176 45.1037 33.4219 46.4583C32.2263 47.813 30.6824 48.8117 28.9592 49.3452C27.4248 49.8294 25.7744 49.7947 24.2615 49.2462L24.258 49.2483ZM7.6852 38.7669C7.4474 40.0397 7.4474 41.3458 7.6852 42.6186C8.28028 41.9632 8.87398 41.3085 9.48934 40.6735L7.6852 38.7669ZM9.4103 34.8563C8.92982 35.4419 8.54209 36.0982 8.2607 36.8022L18.3694 47.5025L19.7967 45.7749L9.4103 34.8563ZM14.9996 29.2188C13.4468 30.5544 11.9726 31.9794 10.5844 33.4866L13.4388 36.4843C14.7674 35.0949 16.1345 33.7245 17.5646 32.4347L14.9996 29.2188ZM52.3451 45.0606L50.6403 47.1846C51.7722 47.623 53.0115 47.6994 54.1884 47.4035L52.3451 45.0606ZM59.1435 36.6036L56.0121 40.4749L58.9253 44.1476C60.2344 42.9547 61.463 41.7057 62.6923 40.4349L59.1435 36.6036ZM52.4088 35.8878L54.5493 33.2873C53.2384 32.9754 51.8607 33.1225 50.6445 33.7041L52.4088 35.8878ZM12.5864 26.1601C10.0886 28.2379 7.82239 30.581 5.82724 33.1484C3.26998 36.8808 3.01192 41.8832 4.53914 45.9896L6.20342 44.2024C6.07157 43.7255 5.96582 43.2418 5.88665 42.7533C5.39515 39.8503 5.98801 36.8674 7.55165 34.3757C9.42878 31.9665 11.555 29.7637 13.8948 27.8042L12.5864 26.1601ZM6.6992 29.3564C8.15674 27.7774 9.70554 26.2858 11.3375 24.8893C10.3662 24.095 9.19703 23.4803 8.00756 23.7778C7.52461 23.9193 7.08639 24.1839 6.73556 24.5458C6.38473 24.9077 6.13325 25.3546 6.00555 25.8429C5.83758 26.442 5.81285 27.0724 5.93338 27.6829C6.05392 28.2934 6.31628 28.8668 6.6992 29.3564ZM4.14196 32.4733C4.56152 31.8776 5.03426 31.3022 5.49019 30.7268C4.85894 30.0017 4.41927 29.129 4.21157 28.189C4.00386 27.249 4.03476 26.2717 4.30141 25.3468C4.5221 24.5569 4.94304 23.8378 5.52322 23.2598C6.1034 22.6818 6.82301 22.2645 7.61179 22.0488C9.37606 21.592 11.6557 22.307 13.8955 24.9258L18.9694 31.3183L20.6351 29.9682L15.5605 23.5757C13.5389 21.1534 10.4662 19.129 7.11597 19.9626C5.96951 20.2832 4.92274 20.8902 4.07345 21.7268C3.22417 22.5635 2.60008 23.6025 2.2595 24.7468C1.86492 26.0862 1.83137 27.5065 2.16218 28.8631C2.493 30.2197 3.17639 31.464 4.14268 32.4691L4.14196 32.4733ZM19.5043 55.1244C20.3191 55.4873 21.153 55.8054 22.0022 56.0773C24.1863 56.7527 26.4843 56.976 28.7569 56.7336C31.0295 56.4913 33.2295 55.7884 35.2234 54.6676C34.4108 53.7554 33.657 52.7821 32.9039 51.8292C31.3157 52.7633 29.5435 53.338 27.7111 53.5133C25.6449 53.7094 23.5652 53.3243 21.705 52.4011L19.5043 55.1244ZM16.0555 53.2186C16.6695 53.6158 17.2842 53.9905 17.8792 54.3105L26.4419 43.6698L25.1132 41.9618L16.0555 53.2186ZM10.2278 48.0961C11.5033 49.6385 12.9685 51.0124 14.5885 52.185L17.2646 48.887L13.3794 44.7841L10.2278 48.0961ZM7.4922 50.9731C8.84559 52.5532 10.3754 53.972 12.0515 55.2016C18.3352 59.9459 24.4007 61.3556 29.8711 60.5613C32.8285 60.0891 35.6603 59.0222 38.1967 57.4246C37.6219 56.9482 37.0471 56.4717 36.5121 55.956C34.3866 57.2222 32.0374 58.0647 29.5935 58.4372C24.658 59.1719 19.1281 57.8618 13.3395 53.4944C12.3682 52.74 11.3375 51.9064 10.3068 50.9331C9.83094 50.4547 9.38087 49.9511 8.95857 49.4245L7.4922 50.9731ZM10.9613 56.631C9.24769 55.3499 7.67292 53.8917 6.26287 52.2804C5.93125 52.6693 5.73146 53.154 5.69236 53.6643C5.65327 54.1747 5.77688 54.6843 6.04537 55.1195C6.29144 55.6055 6.6323 56.0369 7.04768 56.3881C7.46306 56.7394 7.9445 57.0033 8.46348 57.1643C8.8901 57.3026 9.34549 57.3259 9.78392 57.2318C10.2223 57.1377 10.6284 56.9295 10.9613 56.6282V56.631ZM14.2514 58.8351C13.6367 58.4779 13.0221 58.1004 12.4277 57.6836C11.8624 58.2888 11.1385 58.7217 10.3391 58.9327C9.53965 59.1437 8.69712 59.1242 7.90825 58.8765C6.42413 58.4021 5.18544 57.3612 4.45946 55.9784C4.05776 55.2632 3.86853 54.4475 3.91413 53.6278C3.95973 52.8081 4.23825 52.0187 4.71678 51.3528C7.27403 48.8112 9.7124 46.1321 12.1704 43.4712L10.7018 41.9429C8.22432 44.6234 5.76636 47.3425 3.16995 49.9037C1.36582 51.6903 1.52459 54.9462 2.5749 56.9706C3.05562 57.9091 3.71635 58.743 4.51917 59.4244C5.32199 60.1059 6.25109 60.6215 7.25306 60.9416C8.49682 61.314 9.82199 61.3132 11.0653 60.9391C12.3086 60.565 13.4156 59.8341 14.25 58.8365L14.2514 58.8351ZM58.2967 49.6855C60.8175 47.7197 63.1832 45.5614 65.3726 43.2298L63.9042 41.6615C61.7482 43.9439 59.4366 46.0731 56.9862 48.0337C55.7802 48.8761 54.3521 49.3402 52.8829 49.3669C51.7127 49.3779 50.5548 49.1269 49.4935 48.6322L48.1257 50.3402C49.6183 51.102 51.2677 51.5031 52.9423 51.5113C54.8731 51.4828 56.7459 50.8444 58.2946 49.6869L58.2967 49.6855ZM35.5604 26.339C33.4575 25.1606 31.1375 24.4243 28.7418 24.1749C25.6208 23.8449 22.4717 24.4384 19.6827 25.8822L22.1406 28.9592C23.9268 28.0017 25.9502 27.5812 27.9684 27.748C29.7299 27.8828 31.4444 28.3832 33.0032 29.2174C33.8164 28.2049 34.6681 27.2526 35.5604 26.3404V26.339ZM38.8708 28.6224C38.3085 28.1394 37.7195 27.6886 37.1065 27.2723C35.9732 28.3944 34.9201 29.5952 33.9549 30.8657L28.7215 37.4562L30.1096 39.1241C32.9836 35.5707 35.7191 31.9176 38.8708 28.6224ZM39.8812 51.2173C40.8858 50.2477 41.8262 49.2133 42.6965 48.1207C41.1139 46.0554 40.2628 43.5194 40.2777 40.9142C40.3098 38.097 41.2023 35.3576 42.835 33.0656C41.99 31.925 41.0835 30.8315 40.1197 29.79C39.1148 30.7536 38.1743 31.7827 37.3044 32.8705C38.885 34.945 39.7357 37.4868 39.7232 40.0981C39.6861 42.9118 38.7934 45.647 37.1646 47.9375C38.0144 49.0745 38.9207 50.168 39.8798 51.2138L39.8812 51.2173ZM42.8944 53.7182C44.0276 52.603 45.0807 51.4087 46.046 50.1444L51.2794 43.5533L49.8914 41.8825C47.0167 45.4163 44.2811 49.089 41.1504 52.3843C41.7023 52.8681 42.2863 53.3135 42.8986 53.7175L42.8944 53.7182ZM60.3183 55.1279L57.8799 52.0313C56.0912 53.0024 54.0594 53.4298 52.0326 53.2614C50.2732 53.1147 48.5611 52.6151 46.9978 51.792C46.1852 52.8053 45.3328 53.7568 44.4405 54.669C46.2149 55.665 48.1455 56.3498 50.1494 56.6941C52.5706 57.1426 55.0633 57.0067 57.4219 56.2977C58.4209 55.9983 59.3898 55.6059 60.3162 55.1258L60.3183 55.1279ZM62.7762 58.2246L61.4476 56.5405C57.9003 58.4923 53.7957 59.1718 49.8116 58.4667C45.2415 57.6143 41.0808 55.2687 37.9778 51.7955C37.2646 50.9816 36.5905 50.1283 35.9164 49.2547C35.4123 49.7641 34.883 50.2478 34.3304 50.7037C34.9849 51.5773 35.659 52.4306 36.3723 53.2446C39.8031 57.053 44.3861 59.6245 49.4159 60.5634C54.0053 61.3778 58.7339 60.5488 62.7762 58.2211V58.2246ZM74.5108 50.2834C75.146 51.0063 75.5882 51.879 75.7961 52.82C76.004 53.761 75.9708 54.7395 75.6995 55.664C75.4756 56.4523 75.0535 57.1696 74.4738 57.7471C73.8942 58.3247 73.1763 58.743 72.3892 58.9621C70.6249 59.3992 68.3655 58.7045 66.1055 56.0851L61.0308 49.6932L59.3659 51.0433L64.4405 57.4351C66.4628 59.8574 69.5347 61.8819 72.885 61.0482C74.0313 60.7277 75.0779 60.1209 75.9271 59.2843C76.7762 58.4478 77.4002 57.4089 77.7407 56.2647C78.1356 54.9268 78.1713 53.508 77.8442 52.1518C77.5171 50.7957 76.8387 49.5503 75.8778 48.5417C75.7786 48.6821 75.68 48.7992 75.5982 48.9192C75.2415 49.3753 74.8849 49.8315 74.508 50.2883L74.5108 50.2834ZM68.6634 56.1201C69.6144 56.9145 70.8039 57.5299 71.9934 57.2324C72.4772 57.0883 72.9165 56.8232 73.2701 56.4619C73.6238 56.1007 73.8801 55.6552 74.015 55.1672C74.1748 54.566 74.1935 53.9358 74.0698 53.3261C73.946 52.7163 73.6832 52.1437 73.3017 51.6531C71.844 53.2316 70.2952 54.7236 68.6634 56.1201ZM69.4361 47.5207L66.5817 44.523C65.2342 45.9124 63.8664 47.2822 62.4392 48.5726L64.9964 51.7885C66.5528 50.4483 68.0349 49.0235 69.4361 47.5207ZM71.7361 44.1848L61.6266 33.4866L60.1994 35.2338L70.606 46.1524C71.0731 45.5542 71.4535 44.8927 71.7361 44.1876V44.1848ZM72.3304 38.3887C71.7158 39.0203 71.1214 39.6785 70.5263 40.3339L72.3108 42.22C72.5452 40.9543 72.5519 39.6568 72.3304 38.3887ZM75.4625 35.0135C74.9073 35.609 74.3523 36.2048 73.7975 36.8008C74.2005 38.2317 74.3479 39.7229 74.2332 41.2054C74.1006 43.1283 73.4871 44.9866 72.4493 46.6085C70.5727 49.0239 68.4465 51.233 66.1062 53.1989L67.4145 54.8473C69.9076 52.7643 72.1734 50.4218 74.1737 47.859C75.586 45.7483 76.3628 43.2743 76.4114 40.7324C76.459 38.7833 76.1363 36.8429 75.4604 35.0149L75.4625 35.0135ZM67.5733 23.3217C68.1386 22.7165 68.8625 22.2835 69.6619 22.0725C70.4613 21.8615 71.3038 21.881 72.0927 22.1288C72.8292 22.3608 73.5128 22.7363 74.1046 23.2337C74.6964 23.7311 75.1847 24.3406 75.5415 25.0275C75.9435 25.7427 76.1328 26.5584 76.0872 27.3781C76.0416 28.1979 75.7629 28.9874 75.2842 29.6532C72.7269 32.1941 70.2885 34.8739 67.8306 37.5123L69.2991 39.061C71.7766 36.3811 74.2346 33.6613 76.8317 31.1008C78.6351 29.3135 78.4966 26.0583 77.426 24.0332C76.9452 23.0949 76.2844 22.2612 75.4816 21.5799C74.6788 20.8985 73.7498 20.383 72.7479 20.0629C71.508 19.6898 70.1873 19.6822 68.9432 20.0413C67.6992 20.4004 66.5842 21.1109 65.7314 22.0881C66.3649 22.4852 66.9796 22.9021 67.5747 23.3189L67.5733 23.3217ZM73.7374 28.7248C74.0696 28.3323 74.2696 27.8444 74.3087 27.331C74.3479 26.8175 74.2243 26.3048 73.9556 25.8661C73.4498 24.8987 72.59 24.1658 71.557 23.8213C71.125 23.691 70.667 23.6736 70.2264 23.7709C69.7858 23.8681 69.3773 24.0768 69.0396 24.377C70.7571 25.653 72.332 27.1116 73.7367 28.7276L73.7374 28.7248ZM65.416 28.8041L62.7399 32.119L66.6446 36.2085L69.7767 32.9105C68.5017 31.3616 67.0365 29.9809 65.416 28.8013V28.8041ZM62.1252 26.699L53.5591 37.3369L54.8877 39.0448L63.9468 27.788C63.3321 27.3909 62.7378 27.0162 62.1231 26.6962L62.1252 26.699ZM44.7832 26.3411C45.5957 27.2533 46.3488 28.2273 47.102 29.1802C48.6903 28.2461 50.4628 27.6713 52.2955 27.4961C54.3681 27.2996 56.4544 27.6844 58.3219 28.6076L60.5022 25.8878C58.1876 24.8203 55.6755 24.2523 53.1283 24.2206C50.212 24.205 47.3398 24.9358 44.7832 26.3439V26.3411ZM41.8098 23.582C42.3846 24.0388 42.9595 24.5349 43.4951 25.0514C45.6203 23.7853 47.969 22.9426 50.4123 22.5694C55.3485 21.8355 60.8791 23.1455 66.667 27.513C67.7274 28.3057 68.7401 29.1607 69.6998 30.0735C70.1956 30.5696 70.6312 31.0657 71.0473 31.5625L72.5157 30.0342C71.1744 28.4499 69.6507 27.0305 67.9767 25.8057C61.6735 21.0411 55.6073 19.6517 50.1564 20.4454C47.1898 20.9056 44.3492 21.9733 41.8113 23.582H41.8098ZM16.0416 21.4376C20.5272 18.7802 25.8054 17.802 30.941 18.6764C34.2714 19.289 37.4418 20.5785 40.2575 22.4656C44.2334 19.8159 48.9254 18.4574 53.6968 18.5746C57.3584 18.675 60.9499 19.6047 64.2028 21.2944C65.2554 19.9514 66.6838 18.9543 68.3047 18.4308C69.9256 17.9074 71.6653 17.8815 73.301 18.3564C75.7682 19.1473 77.8216 20.8888 79.0099 23.1982C80.4567 25.9776 80.4567 29.9879 78.0778 32.3498C77.6421 32.7666 77.2456 33.1835 76.8296 33.6003C77.7724 35.8344 78.2381 38.242 78.1967 40.6679C78.1802 42.8209 77.7073 44.9457 76.8093 46.9011C78.018 48.1055 78.9222 49.5825 79.4463 51.2089C79.9952 53.0151 79.9881 54.9454 79.426 56.7475C78.9992 58.1935 78.2103 59.5055 77.1344 60.5586C76.0586 61.6116 74.7319 62.3704 73.2807 62.7625C69.7529 63.6368 66.4027 61.9906 63.965 59.5662C59.4837 62.2228 54.2095 63.2006 49.0781 62.326C45.7432 61.7081 42.5674 60.4191 39.7421 58.5368C39.2072 58.8743 38.6722 59.2119 38.117 59.529C35.4502 61.0534 32.5037 62.0203 29.4547 62.3717C26.4057 62.7232 23.3174 62.4517 20.3757 61.5738C18.802 61.094 17.276 60.4691 15.8171 59.7073C14.7633 61.0492 13.3348 62.0454 11.7141 62.5688C10.0934 63.0921 8.35399 63.1188 6.7181 62.6453C5.49236 62.257 4.35524 61.6293 3.37213 60.7984C2.38902 59.9674 1.57931 58.9496 0.989625 57.8035C-0.456477 55.0255 -0.456455 51.0145 1.92108 48.6526C2.35743 48.2358 2.7742 47.819 3.19027 47.4021C2.28858 45.3008 1.81679 43.0392 1.8029 40.7514C1.76264 38.4581 2.23679 36.1851 3.19027 34.1006C1.97941 32.8938 1.08107 31.4082 0.573577 29.7732C0.00794722 27.9773 0.00794722 26.0501 0.573577 24.2542C1.00025 22.8083 1.78903 21.4961 2.8647 20.443C3.94038 19.3899 5.26704 18.6309 6.7181 18.2385C8.53347 17.797 10.4435 17.9717 12.1494 18.7353C13.6059 19.3754 14.9255 20.292 16.0352 21.4348L16.0416 21.4376ZM44.0874 31.7583C44.5944 31.2437 45.1315 30.7599 45.6957 30.3093C45.0216 29.4356 44.3475 28.5817 43.6343 27.7684C40.2143 23.9556 35.6368 21.3809 30.6109 20.4433C26.0152 19.6175 21.2766 20.4471 17.231 22.7856L18.5792 24.4697C22.1192 22.518 26.2175 21.8386 30.1949 22.5442C34.7599 23.3976 38.9182 25.7344 42.0287 29.1943C42.742 30.0082 43.4161 30.8819 44.0902 31.7555L44.0874 31.7583ZM48.9823 34.4781C48.4098 34.9261 47.8907 35.4389 47.4355 36.0064L55.88 46.6478L57.545 45.2781L48.9823 34.4781ZM52.8081 31.3415C53.8056 31.2642 54.8079 31.4065 55.745 31.7583L57.1918 30.0742C55.8006 29.417 54.2664 29.1235 52.7318 29.2209C50.162 29.397 47.7351 30.4717 45.8734 32.2579C44.5692 33.4359 43.5462 34.8935 42.8804 36.5225C42.2146 38.1516 41.923 39.9102 42.0273 41.6678C42.2275 43.4827 42.8673 45.2209 43.8909 46.7306L45.258 44.963C44.613 43.898 44.2324 42.693 44.1482 41.4496C44.073 40.1056 44.2835 38.7609 44.7658 37.5047C45.248 36.2486 45.9909 35.1097 46.9453 34.1637C48.4908 32.5342 50.5788 31.5308 52.8129 31.3443L52.8081 31.3415ZM48.7439 40.5338L46.5838 37.8147C46.1621 38.6772 45.9345 39.6222 45.9174 40.5827C45.9002 41.5433 46.0938 42.4959 46.4845 43.3729L48.7439 40.5338ZM31.262 40.4742L33.4227 43.194C33.8444 42.3314 34.0718 41.3862 34.0888 40.4256C34.1059 39.4649 33.9122 38.5122 33.5214 37.6351L31.262 40.4742Z" fill="#0A90E8"></path></svg> 