<?xml version="1.0" encoding="UTF-8"?> <svg xmlns="http://www.w3.org/2000/svg" width="80" height="80" viewBox="0 0 80 80" fill="none"><rect x="0.000976562" width="80" height="80" fill="#F5F8FA"></rect><path fill-rule="evenodd" clip-rule="evenodd" d="M9 40.4854C12.3664 41.3671 15.7901 42.2831 19.0992 43.2335V42.8557C19.0324 42.3084 18.9942 41.758 18.9847 41.2068C18.9727 40.8014 18.9919 40.3956 19.042 39.9931C15.7328 39.0656 12.3664 38.1381 9 37.3137V40.4969V40.4854ZM19.042 39.9931C19.0328 39.8269 19.0521 39.6603 19.0992 39.5007C19.1941 38.6318 19.351 37.7708 19.5687 36.9244C29.0267 39.6725 38.042 42.7488 46.6145 46.1534C54.3206 49.1534 61.6718 52.3137 68.9427 55.6686V58.9091C61.6947 55.5656 54.3206 52.3709 46.6031 49.4053C37.8435 45.9702 28.6718 42.8099 19.1221 40.0732C19.0649 40.0732 19.0649 40.0732 19.0649 40.0732L19.042 39.9931ZM9 30.8328V34.0732C12.3664 34.9549 15.7901 35.8366 19.0992 36.8328C19.271 36.8328 19.3855 36.8328 19.5687 36.9473C19.8292 35.9452 20.1779 34.9681 20.6107 34.0274C20.0978 33.9113 19.5929 33.7621 19.0992 33.5809C15.7901 32.6419 12.3664 31.703 9 30.8328ZM9 24.4091C12.3664 25.2908 15.7901 26.2526 19.0992 27.1572C20.8397 27.6496 22.6374 28.2106 24.3779 28.7488C23.5986 29.5378 22.8791 30.3837 22.2252 31.2793C21.1832 31.0045 20.1412 30.6725 19.0878 30.3977C15.7901 29.4015 12.3664 28.474 9 27.6496V24.4091ZM32.7939 59.161C29.3054 57.7038 26.1614 55.531 23.5649 52.7831C21.1243 50.1386 19.564 46.8021 19.0992 43.2335C28.729 46.0389 37.8435 49.1763 46.5802 52.577C54.2977 55.5427 61.6718 58.7373 68.9198 62.0809V63.3976C66.9368 63.0371 64.9237 62.8684 62.9084 62.8938C61.725 62.9231 60.544 63.0148 59.3702 63.1686C58.1386 63.3098 56.9 63.3824 55.6603 63.3862C52.634 63.4083 49.6092 63.2439 46.6031 62.8938C41.8448 62.345 37.1925 61.1028 32.7939 59.2068V59.2068V59.161ZM46.6031 42.9702C54.3206 45.9358 61.6718 49.1534 68.9427 52.474V49.2335C61.6947 45.89 54.3206 42.6954 46.6603 39.7297C38.771 36.661 30.7557 33.7984 22.2252 31.2793C21.6078 32.1446 21.0639 33.06 20.5992 34.016C29.6603 36.7106 38.3282 39.6954 46.6031 42.9702ZM63.8931 33.8099C65.6847 34.2117 67.4061 34.8794 69 35.7908V19.0503C66.8133 19.7759 64.5111 20.0904 62.2099 19.9778C60.5267 19.9778 58.4427 19.3251 52.1679 19.0389C50.3268 18.9542 48.482 19.0078 46.6489 19.1992C41.878 19.6181 37.2226 20.8984 32.9084 22.9778C29.7613 24.3896 26.8768 26.3255 24.3779 28.703C32.0954 31.0618 39.5229 33.6457 46.6603 36.4549C54.3779 39.4778 61.6947 42.661 68.9427 45.9587V42.7068C62.6054 39.5335 56.1081 36.69 49.4771 34.1877C51.9727 33.3996 54.5777 33.0131 57.1947 33.0427C59.4516 33.0609 61.6991 33.3375 63.8931 33.8671V33.8099Z" fill="#AB4675"></path></svg> 