<?xml version="1.0" encoding="UTF-8"?> <svg xmlns="http://www.w3.org/2000/svg" width="80" height="80" viewBox="0 0 80 80" fill="none"><rect width="80" height="80" fill="#A4A6AE"></rect><path d="M3.95132 40.8511C6.4615 49.4973 33.4304 50.8066 46.601 50.3805V54.0993C9.22733 55.3079 -0.0386165 45.7707 0.000120784 40.8511C0.836846 29.8807 27.3099 27.2156 40.4418 27.2543C73.7249 28.184 80.6511 36.7062 79.9538 40.8511C80.3257 45.9644 71.7415 49.7219 67.403 50.9615L66.7057 47.2427C74.6081 44.7326 76.3513 41.9357 76.235 40.8511C73.26 33.2276 51.1333 31.1668 40.4418 31.0893C11.6213 31.6471 4.10627 37.8296 3.95132 40.8511Z" fill="#DB1024"></path><path d="M38.5821 24.2324L35.6768 24.8135L33.8174 34.5753L36.8389 33.878L38.5821 24.2324Z" fill="#DB1024"></path><path d="M34.9795 45.9639L32.3067 46.6611L30.5635 56.4229L33.4688 55.8419L34.9795 45.9639Z" fill="#DB1024"></path><path d="M42.6495 24.6973L39.8604 24.2324L34.8633 55.842L38.1172 56.5393L42.6495 24.6973Z" fill="#DB1024"></path><path d="M47.8799 24.5811L44.8584 24L39.9775 55.4934L42.8828 56.3069L47.8799 24.5811Z" fill="#DB1024"></path></svg> 