<?xml version="1.0" encoding="UTF-8"?> <svg xmlns="http://www.w3.org/2000/svg" width="80" height="80" viewBox="0 0 80 80" fill="none"><rect width="80" height="80" fill="white"></rect><circle cx="40" cy="40" r="40" fill="#FF0000"></circle><path d="M31.1429 49.8571C35.1429 48.7143 37.5714 47.4762 38.2857 47C34.2857 43.5714 31.8571 39.381 31.1429 37.7143L44 25.5714H51.1429C48.2857 20.4286 43.2857 17.7143 41.1429 17H35.4286L14 37.7143C16.1429 42.7143 27.1429 51 31.1429 49.8571Z" fill="white"></path><path d="M49.7136 29.9651C45.7136 31.108 43.285 32.3461 42.5707 32.8223C46.5707 36.2508 48.9993 40.4413 49.7136 42.108L36.8564 54.2508L29.7136 54.2508C32.5707 59.3937 37.5707 62.108 39.7136 62.8223L45.4279 62.8223L66.8564 42.108C64.7136 37.108 53.7136 28.8223 49.7136 29.9651Z" fill="white"></path></svg> 