<?xml version="1.0" encoding="UTF-8"?> <svg xmlns="http://www.w3.org/2000/svg" width="80" height="80" viewBox="0 0 80 80" fill="none"><rect width="80" height="80" fill="white"></rect><path d="M50.4873 67.2685V42.0488H69.8045C77.9607 43.9805 79.9997 51.0814 79.9997 54.3904C79.7851 62.1173 73.8289 66.1953 70.8777 67.2685H50.4873Z" fill="#2A0E72"></path><path d="M59.0732 57.61V51.1709H67.6587C69.805 51.6002 70.3416 53.4961 70.3416 54.3904C70.3416 56.9661 68.553 57.61 67.6587 57.61H59.0732Z" fill="white"></path><path d="M50.4873 36.6828V27.8291H77.5851L68.7313 36.6828H50.4873Z" fill="#2A0E72"></path><path d="M0.0480477 46.6095C0.477319 30.7265 14.3571 26.9346 21.2433 27.024V36.6826C12.2285 36.0387 9.79614 43.0323 9.70681 46.6095C10.5654 56.0534 16.3247 57.5202 19.0971 57.073H49.1461L40.0239 66.7316C6.32614 71.4536 -0.667405 55.2844 0.0480477 46.6095Z" fill="#2A0E72"></path><path d="M38.1459 12H60.6826L51.5605 21.6586C32.4579 18.8683 29.1132 27.4717 29.8286 32.1221C30.0433 43.2832 43.6905 43.3905 50.4873 42.049V51.7076C25.3749 54.9271 19.8124 39.9921 20.1702 32.1221C19.9555 18.6 32.0646 13.0732 38.1459 12Z" fill="white"></path><path fill-rule="evenodd" clip-rule="evenodd" d="M21.7805 32.1459L21.7783 32.1952C21.6157 35.7699 22.8097 40.9842 26.8935 44.9134C30.7724 48.6453 37.5072 51.4523 48.8775 50.274V43.9432C45.4737 44.3951 41.0894 44.4456 37.2377 43.319C34.9074 42.6374 32.6739 41.4958 30.9997 39.6528C29.3192 37.8027 28.3025 35.3545 28.2215 32.2581C27.826 29.4532 28.6588 25.5784 32.2885 22.8187C35.8129 20.1389 41.6953 18.7248 50.9602 19.9498L56.948 13.6098H38.2903C35.4785 14.1311 31.2903 15.6774 27.8414 18.6177C24.3843 21.5651 21.6812 25.8918 21.7797 32.0965L21.7805 32.1459ZM38.1459 12H60.6826L51.5605 21.6586C32.4579 18.8683 29.1132 27.4717 29.8286 32.1221C30.0274 42.4589 41.748 43.3143 48.8775 42.3186C49.446 42.2392 49.9853 42.1481 50.4873 42.049V51.7076C25.3749 54.9271 19.8124 39.9921 20.1702 32.1221C19.9555 18.6 32.0646 13.0732 38.1459 12Z" fill="#2A0E72"></path><circle cx="41.097" cy="31.5853" r="6.70737" fill="#F1F65F"></circle></svg> 