<svg width="80" height="80" viewBox="0 0 80 80" fill="none" xmlns="http://www.w3.org/2000/svg">
<rect width="80" height="80" fill="#9638E3"/>
<mask id="mask0_5954_1501" style="mask-type:luminance" maskUnits="userSpaceOnUse" x="28" y="10" width="25" height="60">
<path d="M52.223 10H28V69.4174H52.223V10Z" fill="white"/>
</mask>
<g mask="url(#mask0_5954_1501)">
<path d="M32.1153 69.2995C30.6213 69.2995 29.1873 68.4508 28.4933 67.0007C27.5523 64.9965 28.3993 62.6151 30.3983 61.6602C38.8053 57.6873 44.2273 49.0576 44.2273 39.7087C44.2273 30.3599 38.8053 21.7302 30.4103 17.7455C28.4113 16.8024 27.5643 14.4092 28.5053 12.405C29.4463 10.4008 31.8323 9.552 33.8323 10.4951C39.2533 13.0652 43.8503 17.1089 47.1073 22.19C50.4473 27.4126 52.2233 33.4723 52.2233 39.7087C52.2233 45.9452 50.4473 52.0049 47.0963 57.2157C43.8393 62.2968 39.2403 66.3405 33.8203 68.9109C33.2793 69.1817 32.6913 69.2995 32.1153 69.2995Z" fill="white"/>
</g>
</svg>
