<?xml version="1.0" encoding="UTF-8"?> <svg xmlns="http://www.w3.org/2000/svg" width="80" height="80" viewBox="0 0 80 80" fill="none"><rect width="80" height="80" fill="#F46104"></rect><path d="M52.2658 35.1428C47.8473 47.8857 42.2475 54.3571 40 56V75C48.4354 67.6286 54.8481 51.6905 57 44.6428C55.8523 40.7143 52.1941 35 52.2658 35.1428Z" fill="white"></path><path d="M27.7342 35.1428C32.1527 47.8857 37.7525 54.3571 40 56V75C31.5646 67.6286 25.1519 51.6905 23 44.6428C24.1477 40.7143 27.8059 35 27.7342 35.1428Z" fill="white"></path><path d="M47.5316 16.2143C44.1603 8.42857 41.2194 5.80952 39.9283 5V28.8571C44.0886 25.5 47.1252 18.2619 47.5316 16.2143Z" fill="white"></path><path d="M32.3249 17.6429C35.6962 25.4286 38.6371 28.0476 39.9283 28.8571V5C35.7679 8.35714 32.7314 15.5952 32.3249 17.6429Z" fill="white"></path><path d="M47.3165 19.5C45.7671 25.3286 41.6737 30.5476 39.8565 32.4286V51.9286C46.2835 46.7857 51.2616 35.5476 52.9114 30.5714C51.7637 27.0286 48.7032 21.7143 47.3165 19.5Z" fill="white"></path><path d="M32.4684 19.5C34.0177 25.3286 38.0394 30.5476 39.8565 32.4286V51.9286C33.4295 46.7857 28.5232 35.5476 26.8734 30.5714C28.0211 27.0286 31.0816 21.7143 32.4684 19.5Z" fill="white"></path></svg> 