<svg width="80" height="80" viewBox="0 0 80 80" fill="none" xmlns="http://www.w3.org/2000/svg">
<rect width="80" height="80" fill="#FFDD2D"/>
<path d="M15 15H65V40.1438C65 46.5915 61.5213 52.5358 55.8654 55.7718L40 65L24.1514 55.7718C18.4955 52.56 15.0243 46.5915 15.0243 40.1438V15H15Z" fill="white"/>
<path fill-rule="evenodd" clip-rule="evenodd" d="M28.459 28.2314V36.0453C29.5513 34.8469 31.5175 34.0319 33.7508 34.0319H36.2024V43.1164C36.2024 45.5371 35.5471 47.6464 34.5519 48.8209H45.4398C44.4446 47.6464 43.8436 45.5371 43.8436 43.1164V34.0319H46.2282C48.4857 34.0319 50.4678 34.8469 51.5359 36.0453V28.2314H28.459Z" fill="#333333"/>
</svg>
