<?xml version="1.0" encoding="UTF-8"?> <svg xmlns="http://www.w3.org/2000/svg" width="80" height="80" viewBox="0 0 80 80" fill="none"><rect width="80" height="80" fill="#74CE6A"></rect><path d="M36.0942 13C32.1152 12.9945 28.1842 13.8705 24.5831 15.5652C20.9821 17.2599 17.8 19.7314 15.2651 22.8024C14.6055 23.6019 15.2651 24.2276 16.2719 23.7409C19.9501 22.0039 23.9737 21.1245 28.0403 21.1687C33.5093 21.1687 38.7542 23.344 42.6214 27.2162C46.4885 31.0884 48.6611 36.3402 48.6611 41.8162C48.6611 43.8202 48.2669 45.8045 47.501 47.6559C46.7351 49.5073 45.6125 51.1895 44.1974 52.6065C42.7822 54.0235 41.1022 55.1475 39.2532 55.9144C37.4042 56.6813 35.4225 57.076 33.4211 57.076C30.5669 57.076 27.8297 55.9407 25.8115 53.9198C23.7933 51.899 22.6594 49.1582 22.6594 46.3003C22.6594 44.4012 23.4129 42.5799 24.754 41.237C26.0951 39.8941 27.9141 39.1397 29.8108 39.1397C30.4018 39.1351 30.9878 39.2477 31.5352 39.471C32.0825 39.6943 32.5803 40.0239 32.9998 40.4407C33.4193 40.8575 33.7523 41.3534 33.9795 41.8997C34.2068 42.446 34.3237 43.032 34.3237 43.6238C34.3237 43.9782 34.2535 44.3291 34.117 44.6561C33.9805 44.9831 33.7805 45.2798 33.5286 45.5288C33.2767 45.7778 32.9779 45.9742 32.6495 46.1066C32.3212 46.2391 31.9699 46.3049 31.6159 46.3003C30.6439 46.3003 30.2968 46.8217 31.0952 47.656C31.5136 48.089 32.0155 48.4325 32.5705 48.6656C33.1255 48.8986 33.7219 49.0163 34.3237 49.0116C36.2235 49.0024 38.0424 48.2403 39.3826 46.8919C40.7227 45.5435 41.475 43.7186 41.475 41.8162C41.475 38.9584 40.3412 36.2175 38.323 34.1967C36.3048 32.1759 33.5675 31.0406 30.7133 31.0406C26.6743 31.0498 22.8033 32.6604 19.9472 35.5202C17.0912 38.38 15.4826 42.256 15.4734 46.3003C15.5186 51.7656 17.7046 56.9947 21.561 60.8626C25.4174 64.7305 30.6361 66.9282 36.0942 66.9826C39.7109 67.1127 43.3167 66.5117 46.6964 65.2156C50.076 63.9195 53.1602 61.9548 55.7648 59.4388C58.3694 56.9228 60.441 53.9071 61.8559 50.5718C63.2708 47.2365 64 43.6498 64 40.0261C64 36.4023 63.2708 32.8157 61.8559 29.4804C60.441 26.145 58.3694 23.1293 55.7648 20.6134C53.1602 18.0974 50.076 16.1327 46.6964 14.8366C43.3167 13.5405 39.7109 12.9395 36.0942 13.0695V13Z" fill="white"></path></svg> 