<?xml version="1.0" encoding="UTF-8"?> <svg xmlns="http://www.w3.org/2000/svg" width="80" height="80" viewBox="0 0 80 80" fill="none"><rect width="80" height="80" fill="#F5F8FA"></rect><path d="M40 21.2695C23.5859 21.2695 10.2773 29.8789 10.2773 40.4961C10.2773 51.1172 23.5859 59.7305 40 59.7305C56.4141 59.7305 69.7227 51.1211 69.7227 40.4961C69.7227 29.8711 56.4141 21.2695 40 21.2695ZM40 51.4766C37.5586 51.4766 35.5664 46.668 35.4414 40.6172C36.9102 40.7461 38.4375 40.8164 40 40.8164C41.5625 40.8164 43.0898 40.7461 44.5586 40.6172C44.4336 46.6641 42.4414 51.4766 40 51.4766ZM35.7422 35.8125C36.4062 31.5352 38.0625 28.5 40 28.5C41.9375 28.5 43.5938 31.5352 44.2578 35.8125C42.8945 35.9336 41.4727 36 40 36C38.5273 36 37.1055 35.9336 35.7422 35.8125ZM40 24.0508C36.8125 24.0508 34.0938 28.8242 33.0898 35.4883C27.0469 34.5469 22.8281 32.3984 22.8281 29.9023C22.8281 26.5352 30.5156 23.8047 40 23.8047C49.4844 23.8047 57.1719 26.5352 57.1719 29.9023C57.1719 32.3984 52.9531 34.5469 46.9102 35.4883C45.9062 28.8242 43.1875 24.0508 40 24.0508ZM14.5391 39.7773C14.5391 36.5195 15.793 33.4609 17.9766 30.8359C17.9531 31.0195 17.9375 31.207 17.9375 31.3945C17.9375 35.5 24.0938 39 32.6836 40.2891C32.6758 40.5859 32.6758 40.8867 32.6758 41.1875C32.6758 48.8398 34.8203 55.3203 37.7852 57.5195C24.7578 56.7344 14.5391 49.0898 14.5391 39.7773ZM42.2148 57.5195C45.1797 55.3203 47.3242 48.8398 47.3242 41.1875C47.3242 40.8828 47.3203 40.5859 47.3164 40.2891C55.9023 39 62.0625 35.5039 62.0625 31.3945C62.0625 31.207 62.0469 31.0195 62.0234 30.8359C64.207 33.4688 65.4609 36.5195 65.4609 39.7773C65.4609 49.0898 55.2422 56.7344 42.2148 57.5195Z" fill="#282830"></path></svg> 