<?xml version="1.0" encoding="UTF-8"?> <svg xmlns="http://www.w3.org/2000/svg" width="80" height="80" viewBox="0 0 80 80" fill="none"><rect width="80" height="80" fill="#F5F8FA"></rect><path d="M64.8501 52.3227L40.2849 27.8002L39.8646 27.3857L39.4443 27.8066L15.1572 52.3227H16.8255L39.8776 29.0629L63.1624 52.3227H64.8501Z" fill="#A58A57"></path><path d="M10.656 52.3227L39.9609 23.0019L69.324 52.3227H71.3867L39.9415 20.9492L8.61914 52.3227H10.656Z" fill="#A58A57"></path><path d="M0 60.9998L80 60.9739L75.784 56.6807H4.3259L0 60.9998Z" fill="#A58A57"></path><path d="M54.2319 37.3385H52.3955V28.2728C53.9797 28.1304 56.9218 28.0591 57.6525 28.0591C58.7259 28.0591 62.1789 28.2728 64.2675 28.5578C64.2675 28.1628 64.164 27.5864 64.164 27.3339C64.1728 26.9005 64.2073 26.4681 64.2675 26.0388C61.9332 26.1813 57.8012 26.3626 55.8161 26.3626C54.9884 26.3626 51.1734 26.1489 48.8714 26.0388C49.1236 28.0203 49.1559 34.1784 49.1559 38.2515C49.1559 40.9323 49.1559 43.9305 49.0654 46.7537C46.2914 49.5058 43.6338 50.516 41.3771 50.516C34.1802 50.516 31.0311 42.9009 31.0311 35.8556C31.0311 28.5448 34.0185 20.6771 41.3771 20.6771C43.6273 20.6771 46.0651 21.901 48.8003 24.8668H49.3887L50.3004 21.1693C47.5264 19.4468 44.2804 19 41.584 19C36.0748 19 31.6777 21.6355 29.2206 26.2072C27.5911 26.2849 25.6254 26.3496 23.6014 26.3496C20.3683 26.3496 15.9454 26.1748 14.1543 26.0647C14.1543 26.4921 14.2642 27.0684 14.2642 27.3598C14.2642 27.6512 14.1866 28.1433 14.1543 28.5383C16.4948 28.2865 18.8492 28.1892 21.2025 28.2469H21.8491C21.9526 30.1896 21.9913 35.5836 21.9913 38.3745C21.9913 42.9073 21.9138 48.3208 21.7068 52.2579C22.2759 52.219 23.2781 52.1478 23.7049 52.1478C23.9959 52.1478 24.9205 52.219 25.496 52.2579C25.2827 48.3208 25.2115 42.9073 25.2115 38.3745C25.2115 35.5836 25.2115 30.2155 25.3538 28.2469H26.0004C26.9186 28.2469 27.6558 28.2469 28.2636 28.2469C27.38 30.7028 26.9421 33.2971 26.9703 35.9074C26.9703 46.0544 32.5442 52.2579 40.7046 52.2579C43.6454 52.3447 46.5424 51.5291 49.0072 49.9202C49.0072 50.7361 48.9425 51.5261 48.9037 52.2579C49.5824 52.1844 50.2645 52.1476 50.9471 52.1478C52.4925 52.1478 54.9367 52.2579 55.5898 52.2579C61.4094 52.2902 65.8387 49.8814 65.8387 44.578C65.8517 38.0637 57.9758 37.3385 54.2319 37.3385ZM55.4734 50.2375C54.4647 50.2375 53.3525 50.1987 52.4149 50.1663V39.2487C59.2497 39.2487 62.1983 40.5438 62.1983 44.5456C62.1789 48.256 59.7023 50.2375 55.4734 50.2375Z" fill="#00345E"></path></svg> 