<?xml version="1.0" encoding="UTF-8"?> <svg xmlns="http://www.w3.org/2000/svg" width="80" height="80" viewBox="0 0 80 80" fill="none"><rect width="80" height="80" fill="white"></rect><path d="M63.3043 23.1304L61.913 24.3478L63.4783 29.3913L58.9565 26.9565L57.3913 28.1739L62.4348 30.9565L57.0435 35.3043L55.6522 33.3913L57.5652 31.8261L56.1739 30.087L54.2609 31.6522L52.6957 29.5652L54.6087 28L53.2174 26.087L43.4783 34.2609L52.8696 41.7391L54.6087 39.6522C55.8261 39.6522 56.6957 40.6957 57.2174 41.7391L55.4783 43.8261L56.5217 44.6957C58.7826 42.6087 61.913 41.2174 65.0435 41.2174C71.6522 41.2174 76.6956 46.6087 76.6956 53.2174C76.6956 55.3043 76.1739 57.7391 74.9565 59.6522L76.6956 61.0435C76.6956 62.2609 75.4783 63.6522 74.2609 64L72.5217 62.6087C70.2609 64.8696 67.1304 66.087 64 66.087C57.3913 66.087 52.3478 60.8696 52.3478 54.2609C52.3478 52.1739 53.0435 49.913 53.913 48L52.6957 47.1304L50.9565 49.3913C49.7391 49.2174 48.6957 48.3478 48.3478 47.1304L50.087 45.2174L42.2609 38.6087V49.0435H44.8696C45.2174 49.5652 45.3913 50.087 45.3913 50.6087C45.3913 51.1304 45.2174 51.8261 44.8696 52.3478H42.2609V53.5652C48 54.6087 52.8696 59.4783 52.8696 65.3913C52.8696 71.4783 48.1739 76.3478 42.2609 77.3913V79.4783C41.7391 79.8261 41.0435 80 40.3478 80C39.6522 80 38.7826 79.8261 38.2609 79.4783V77.3913C32.3478 76.5217 27.8261 71.4783 27.8261 65.3913C27.8261 59.4783 32.3478 54.6087 38.2609 53.7391V52.3478H35.4783C35.1304 51.8261 34.9565 51.3043 34.9565 50.6087C34.9565 49.913 35.1304 49.3913 35.4783 48.8696H38.2609V38.4348L30.2609 45.0435L32 46.9565C31.6522 48.1739 30.6087 49.0435 29.3913 49.2174L27.6522 46.9565L26.6087 48C27.6522 49.913 28.3478 52 28.3478 54.2609C28.3478 60.8696 23.1304 66.087 16.6957 66.087C13.5652 66.087 10.4348 64.8696 8.17391 62.6087L6.43478 64C5.3913 63.6522 4.17391 62.2609 4 61.0435L5.73913 59.6522C4.69565 57.7391 4 55.4783 4 53.2174C4 46.6087 9.04348 41.2174 15.6522 41.2174C18.7826 41.2174 21.913 42.6087 24.1739 44.6957L25.2174 44L23.4783 41.913C23.8261 40.8696 24.8696 40 26.087 39.8261L27.8261 41.913L37.2174 34.4348L27.4783 26.2609L26.087 28.1739L28 29.7391L26.6087 31.6522L24.6957 30.087L23.3043 31.8261L24.8696 33.0435L23.4783 34.9565L18.2609 30.6087L23.1304 27.8261L21.7391 26.6087L17.2174 29.0435L18.6087 24.3478L17.2174 23.1304L15.4783 28.5217L10.087 24.1739L11.4783 22.4348L13.3913 24L14.9565 22.2609L13.0435 20.5217L14.4348 18.7826L16.3478 20.1739L17.7391 18.4348L13.5652 15.3043C13.913 13.913 14.7826 12.8696 16.1739 12L38.2609 30.087V18.087H36V20.3478H33.7391V18.087H31.4783V20.3478H29.2174V13.5652L34.4348 15.8261V13.913L29.5652 11.8261L34.4348 9.91304V8.17391L29.2174 10.2609V3.30435H31.4783V5.73913H33.7391V3.30435H36V5.73913H38.2609V0.347826C38.9565 0.173913 39.6522 0 40.3478 0C41.0435 0 41.7391 0.173913 42.2609 0.347826V30.087L64.3478 12C65.5652 12.8696 66.4348 13.913 66.9565 15.3043L62.7826 18.6087L64.1739 20.3478L66.087 18.9565L67.4783 20.6957L65.5652 22.4348L66.9565 24.1739L68.8696 22.6087L70.2609 24.3478L64.8696 28.6957L63.3043 23.1304V23.1304ZM18.2609 55.8261C18.2609 57.7391 19.6522 58.9565 21.3913 59.1304L18.6087 61.2174C16.6957 60.5217 14.9565 58.2609 14.9565 56.1739C14.9565 55.4783 15.1304 55.1304 15.3043 54.6087H14.7826C12.1739 54.6087 10.087 52.1739 9.56522 49.7391L12.5217 47.4783V48.3478C12.5217 49.913 14.087 51.3043 15.6522 51.3043C17.3913 51.3043 18.9565 49.913 18.9565 48.1739C18.9565 46.087 17.3913 44.6957 15.3043 44.6957C11.4783 44.6957 7.65217 48.5217 7.65217 53.3913C7.65217 54.7826 8 56.1739 8.52174 57.3913L10.2609 56C11.4783 56.5217 12.3478 57.7391 12.6957 59.1304L10.9565 60.5217C12.6957 61.913 14.7826 62.6087 16.8696 62.6087C21.3913 62.6087 24.8696 58.9565 24.8696 55.8261C24.8696 53.913 23.6522 52.3478 21.7391 52.3478C19.6522 52.6957 18.2609 54.087 18.2609 55.8261V55.8261ZM41.913 62.7826C41.913 64.5217 43.3043 65.913 45.0435 65.913C46.2609 65.913 46.7826 65.3913 47.6522 64.6957V68.3478C46.7826 68.8696 45.913 69.0435 44.8696 69.0435C42.9565 69.0435 41.3913 68.5217 40.3478 66.7826C39.3043 68.5217 37.5652 69.0435 35.6522 69.0435C34.7826 69.0435 33.7391 68.8696 32.8696 68.3478V64.6957C33.7391 65.5652 34.2609 65.913 35.4783 65.913C37.2174 65.913 38.6087 64.5217 38.6087 62.7826C38.6087 61.0435 37.5652 59.6522 35.6522 59.6522C32.3478 59.6522 30.9565 62.7826 30.9565 65.7391C30.9565 69.913 34.087 73.5652 38.087 74.2609V72.1739C38.7826 71.8261 39.4783 71.8261 40 71.8261C40.6957 71.8261 41.3913 71.8261 42.087 72.1739V74.2609C45.913 73.7391 49.2174 69.7391 49.2174 65.7391C49.2174 62.7826 48 59.6522 44.5217 59.6522C43.1304 59.4783 41.913 61.0435 41.913 62.7826V62.7826ZM61.7391 48.3478C61.7391 49.913 63.4783 51.4783 65.0435 51.4783C66.6087 51.4783 68.1739 50.087 68.1739 48.5217V47.6522L70.9565 49.913C70.4348 52.6957 68 54.9565 65.2174 54.7826C65.3913 55.3043 65.3913 55.8261 65.3913 56.3478C65.3913 58.4348 63.6522 60.6956 61.7391 61.3913L59.1304 59.1304C60.8696 58.9565 62.2609 57.7391 62.2609 55.8261C62.2609 53.913 60.6957 52.6956 58.9565 52.6956C57.0435 52.6956 55.8261 54.2609 55.8261 56.1739C55.8261 58.4348 58.6087 62.9565 64 62.9565C66.087 62.9565 68.1739 62.2609 69.7391 60.8696L68 59.4783C68.3478 58.087 69.2174 56.8696 70.4348 56.3478L72.1739 57.7391C72.8696 56.5217 73.2174 55.1304 73.2174 53.7391C73.2174 49.913 70.2609 45.0435 65.5652 45.0435C63.4783 45.0435 61.7391 46.2609 61.7391 48.3478V48.3478Z" fill="black"></path></svg> 