<?xml version="1.0" encoding="UTF-8"?> <svg xmlns="http://www.w3.org/2000/svg" width="80" height="80" viewBox="0 0 80 80" fill="none"><rect width="80" height="80" fill="#104076"></rect><g clip-path="url(#clip0)"><path d="M69.4751 45.9082C69.3613 45.909 69.2492 45.9359 69.1474 45.9868C69.0456 46.0376 68.9569 46.1112 68.888 46.2017C64.1336 52.3714 52.1716 56.7431 38.1653 56.7431C24.3845 56.7431 12.5798 52.5077 7.6786 46.5005C7.66296 46.4818 7.65286 46.4591 7.64942 46.4349C7.64599 46.4108 7.64937 46.3862 7.65918 46.3638C7.66898 46.3415 7.68483 46.3223 7.70493 46.3085C7.72503 46.2947 7.74859 46.2868 7.77295 46.2856C7.85296 46.2845 7.93236 46.2997 8.00628 46.3303C8.0802 46.361 8.14707 46.4064 8.20279 46.4638C12.8628 51.4541 22.9849 54.9137 34.7267 54.9137C45.8604 54.9137 55.5317 51.8053 60.48 47.2344C60.5899 47.1253 60.6647 46.9857 60.6946 46.8337C60.7245 46.6818 60.7083 46.5243 60.6479 46.3817C60.5876 46.239 60.4859 46.1177 60.3561 46.0333C60.2262 45.9489 60.074 45.9053 59.9191 45.9082H58.4671C58.3498 45.91 58.234 45.9356 58.1268 45.9834C58.0197 46.0311 57.9232 46.1 57.8433 46.186C53.4507 50.8303 44.0153 54.0016 33.0912 54.0016C17.9422 54.0016 5.80725 47.8634 5.80725 40.2837C5.80725 32.7039 17.9422 26.5709 33.0912 26.5709C44.0992 26.5709 53.5765 29.8104 57.9482 34.4809C58.0277 34.5674 58.124 34.6366 58.2313 34.6844C58.3386 34.7322 58.4545 34.7575 58.572 34.7587H59.9716C60.128 34.7639 60.2824 34.7223 60.415 34.6393C60.5476 34.5562 60.6525 34.4355 60.7161 34.2925C60.7797 34.1495 60.7992 33.9908 60.7721 33.8366C60.745 33.6825 60.6725 33.54 60.5639 33.4273C55.626 28.8144 45.8866 25.6693 34.7005 25.6693C22.9325 25.6693 12.7947 29.1289 8.14513 34.1349C8.09039 34.1922 8.02444 34.2376 7.95139 34.2683C7.87834 34.2989 7.79975 34.3142 7.72053 34.3132C7.69572 34.313 7.67148 34.3057 7.65062 34.2923C7.62977 34.2788 7.61316 34.2597 7.60273 34.2372C7.59229 34.2147 7.58847 34.1897 7.59169 34.1651C7.59491 34.1405 7.60506 34.1173 7.62094 34.0982C12.5221 28.0753 24.3373 23.8294 38.1391 23.8294C52.2188 23.8294 64.2332 28.2483 68.9352 34.4704C69.003 34.5625 69.0914 34.6375 69.1933 34.6894C69.2952 34.7413 69.4079 34.7686 69.5222 34.7692H73.527C73.7996 34.7804 74.0694 34.7113 74.3031 34.5707C74.5368 34.43 74.7241 34.2239 74.8418 33.9778C74.9595 33.7318 75.0025 33.4566 74.9654 33.1864C74.9283 32.9162 74.8127 32.6628 74.6331 32.4575C68.7674 26.2721 56.1712 22 41.5778 22C21.3809 22 5 30.1878 5 40.2889C5 50.39 21.3809 58.5778 41.5778 58.5778C56.1083 58.5778 68.6521 54.3424 74.5544 48.2041C74.7353 48.0018 74.8524 47.7505 74.8911 47.4819C74.9298 47.2133 74.8883 46.9392 74.7719 46.694C74.6555 46.4488 74.4693 46.2435 74.2366 46.1037C74.004 45.9639 73.7353 45.8959 73.4641 45.9082H69.4751Z" fill="white"></path><path d="M19.2893 41.5887C19.278 41.8693 19.1657 42.1363 18.973 42.3405C18.7804 42.5447 18.5204 42.6724 18.2409 42.7H17.7639C17.4845 42.6724 17.2245 42.5447 17.0319 42.3405C16.8392 42.1363 16.7268 41.8693 16.7156 41.5887V39.0254C16.7258 38.7446 16.8377 38.477 17.0306 38.2725C17.2235 38.068 17.4841 37.9407 17.7639 37.9142H18.2514C18.5308 37.9418 18.7908 38.0695 18.9835 38.2737C19.1762 38.4779 19.2885 38.7449 19.2998 39.0254L19.2893 41.5887ZM20.6837 39.0359C20.6837 38.4437 20.4484 37.8757 20.0296 37.4569C19.6108 37.0382 19.0429 36.8029 18.4506 36.8029H17.5281C17.2338 36.7994 16.9419 36.8547 16.6694 36.9657C16.3968 37.0767 16.1493 37.241 15.9412 37.4491C15.7332 37.6572 15.5688 37.9047 15.4578 38.1772C15.3469 38.4498 15.2915 38.7417 15.295 39.0359V39.4867C15.2923 39.5641 15.2596 39.6375 15.2039 39.6913C15.1481 39.745 15.0737 39.7751 14.9962 39.775H14.0003C13.9254 39.7753 13.8531 39.7475 13.7977 39.697C13.7424 39.6465 13.7081 39.5771 13.7015 39.5025V38.3597C13.7197 38.1383 13.6928 37.9154 13.6225 37.7046C13.5523 37.4938 13.44 37.2994 13.2926 37.1331C13.0529 36.9497 12.7552 36.8585 12.4539 36.8763H12.2285V43.7274H13.7015V41.1799C13.704 41.1051 13.7345 41.034 13.7869 40.9806C13.8393 40.9272 13.9098 40.8955 13.9845 40.8916H15.0067C15.0819 40.8929 15.1537 40.9229 15.2073 40.9756C15.2609 41.0283 15.2923 41.0995 15.295 41.1746V41.5782C15.3096 42.1659 15.5496 42.7254 15.9652 43.1411C16.3809 43.5567 16.9404 43.7967 17.5281 43.8113H18.4559C19.0435 43.7967 19.603 43.5567 20.0187 43.1411C20.4343 42.7254 20.6743 42.1659 20.6889 41.5782L20.6837 39.0359Z" fill="white"></path><path d="M27.2783 42.3279C27.2783 43.2557 27.7029 43.7851 28.5259 43.7851H28.7565V36.9707H27.2783V39.4396C27.275 39.511 27.2461 39.5787 27.1971 39.6307C27.1481 39.6826 27.082 39.7152 27.011 39.7227H24.3009C24.2304 39.7195 24.1633 39.6914 24.1115 39.6434C24.0596 39.5955 24.0265 39.5307 24.0179 39.4606V38.3441C24.0179 37.4162 23.5933 36.8711 22.7703 36.8711H22.5449V43.7275H24.0179V41.2533C24.0213 41.182 24.0501 41.1142 24.0991 41.0622C24.1482 41.0103 24.2142 40.9777 24.2852 40.9702H27.0162C27.0892 40.9739 27.1584 41.0042 27.2105 41.0554C27.2627 41.1066 27.2943 41.1751 27.2993 41.2481V42.0553L27.2783 42.3279Z" fill="white"></path><path d="M45.389 36.9443C45.099 36.9605 44.8251 37.0826 44.6193 37.2875C44.4134 37.4924 44.29 37.7657 44.2725 38.0556H46.4111C46.4854 38.0568 46.5565 38.0862 46.61 38.1377C46.6635 38.1893 46.6955 38.2592 46.6995 38.3334V43.7273H48.1724V38.3439C48.1749 38.2705 48.2049 38.2008 48.2563 38.1484C48.3077 38.096 48.3769 38.0647 48.4502 38.0609H49.5301C49.82 38.0447 50.094 37.9226 50.2998 37.7177C50.5056 37.5128 50.629 37.2395 50.6466 36.9496L45.389 36.9443Z" fill="white"></path><path d="M56.1242 39.5548C56.1317 39.6735 56.1132 39.7924 56.0701 39.9032C56.0269 40.0141 55.96 40.1142 55.8742 40.1965C55.7884 40.2789 55.6856 40.3415 55.573 40.38C55.4605 40.4186 55.3409 40.4321 55.2226 40.4197H53.65C53.574 40.4183 53.5015 40.3875 53.4477 40.3337C53.3939 40.28 53.3631 40.2074 53.3617 40.1314V38.3491C53.361 38.3113 53.3678 38.2736 53.3817 38.2384C53.3955 38.2031 53.4162 38.171 53.4425 38.1437C53.4687 38.1165 53.5001 38.0946 53.5349 38.0795C53.5696 38.0644 53.6069 38.0563 53.6448 38.0556H55.2174C55.8569 38.0556 56.119 38.3072 56.119 38.9152L56.1242 39.5548ZM57.5185 39.0935V38.9677C57.5185 38.9415 57.5185 38.9152 57.5185 38.889C57.5221 38.6228 57.4704 38.3586 57.3666 38.1134C57.2628 37.8681 57.1092 37.6471 56.9155 37.4643C56.7219 37.2815 56.4924 37.1409 56.2416 37.0514C55.9908 36.9619 55.7241 36.9254 55.4585 36.9443H51.873V43.7273H53.3513V41.814C53.3537 41.7401 53.3834 41.6697 53.4347 41.6164C53.4861 41.5632 53.5553 41.5308 53.6291 41.5257H55.4585C55.9901 41.5275 56.5018 41.3232 56.886 40.9556C57.2701 40.5881 57.4969 40.086 57.5185 39.5548C57.5185 39.5023 57.5185 39.1511 57.5185 39.0935Z" fill="white"></path><path d="M38.4014 41.5782C38.4014 42.1472 38.6271 42.6931 39.029 43.096C39.4309 43.4989 39.9762 43.7259 40.5453 43.7273H43.444C43.4276 43.437 43.3046 43.1631 43.0985 42.9579C42.8925 42.7528 42.6179 42.6311 42.3275 42.616H40.5925C40.3852 42.5974 40.1935 42.4978 40.0591 42.3388C39.9247 42.1799 39.8583 41.9744 39.8743 41.7669V38.9153C39.8677 38.7975 39.8867 38.6796 39.9299 38.5698C39.9731 38.4601 40.0396 38.3609 40.1248 38.2793C40.2099 38.1976 40.3117 38.1353 40.4232 38.0967C40.5347 38.0581 40.6533 38.0441 40.7707 38.0556H42.165C42.4522 38.0357 42.7223 37.912 42.9249 37.7075C43.1275 37.503 43.2487 37.2317 43.2658 36.9443H40.5453C39.9771 36.9457 39.4326 37.172 39.0308 37.5738C38.6291 37.9756 38.4028 38.5201 38.4014 39.0883V41.5782Z" fill="white"></path><path d="M73.3806 36.9342C73.2054 36.9236 73.0296 36.9324 72.8564 36.9604C72.7358 36.9971 72.6939 37.0862 72.5157 37.5317C72.5157 37.5317 71.3729 40.7607 71.2 41.0753C71.1812 41.1176 71.1513 41.1541 71.1134 41.1809C71.0756 41.2077 71.0312 41.2237 70.985 41.2273C70.9379 41.2246 70.8924 41.209 70.8536 41.1822C70.8148 41.1554 70.7841 41.1184 70.7649 41.0753C70.5919 40.7607 69.4492 37.5317 69.4492 37.5317C69.2709 37.0862 69.229 37.0076 69.1084 36.9604C68.9352 36.9321 68.7594 36.9233 68.5843 36.9342H67.1689V43.7853H67.3786C68.2016 43.7853 68.6157 43.3135 68.6157 42.3805V39.7595C68.6157 39.5604 68.7415 39.5132 68.8306 39.5132C68.8905 39.5138 68.9487 39.5334 68.9967 39.5692C69.0448 39.605 69.0802 39.6552 69.098 39.7124L70.3088 42.8051H71.6298L72.8407 39.7124C72.8584 39.6552 72.8939 39.605 72.9419 39.5692C72.9899 39.5334 73.0481 39.5138 73.108 39.5132C73.1971 39.5132 73.3229 39.5551 73.3229 39.7595V42.3805C73.3229 43.3135 73.7423 43.7853 74.5652 43.7853H74.7906V36.9342H73.3806Z" fill="white"></path><path d="M60.5272 43.7173H59.0176V36.8662H59.243C60.066 36.8662 60.4696 37.3327 60.4748 38.2501V41.0387C60.4748 41.2065 60.7317 41.2799 60.8837 41.0912L63.7091 36.9448H65.2187V43.7593H64.9881C64.1651 43.7593 63.7615 43.2927 63.7615 42.3754V39.6654C63.7615 39.4976 63.5046 39.4242 63.3526 39.613L60.5272 43.7173" fill="white"></path><path d="M32.0272 43.7173H30.5176V36.8662H30.743C31.566 36.8662 31.9696 37.3327 31.9696 38.2501V41.0387C31.9696 41.2065 32.2264 41.2799 32.3784 41.0912L35.2038 36.9396H36.7135V43.754H36.4881C35.6651 43.754 35.2615 43.2875 35.2562 42.3702V39.6654C35.2562 39.4976 34.9994 39.4242 34.8474 39.613L32.022 43.7173" fill="white"></path></g><defs><clipPath id="clip0"><rect x="5" y="22" width="70" height="36.5778" fill="white"></rect></clipPath></defs></svg> 