<svg width="80" height="80" viewBox="0 0 80 80" fill="none" xmlns="http://www.w3.org/2000/svg">
<rect width="80" height="80" fill="#3B175C"/>
<path fill-rule="evenodd" clip-rule="evenodd" d="M40.466 10C41.2651 10 42.115 10.0331 43.0559 10.1087V15.8653C43.0559 41.2296 44.0228 52.1943 47.7722 69.1022C42.9814 70.3008 37.8998 70.3008 33.1172 69.0928C36.8915 52.0619 37.8655 41.0972 37.8655 15.8653V10.1087C38.8159 10.0331 39.6658 10 40.466 10ZM69.4131 42.1469C69.4131 32.2815 64.0395 23.6077 55.9662 18.6668L56.0749 25.3642C60.874 29.4896 63.9142 35.4896 63.9142 42.1469C63.9142 45.1871 63.2641 48.0878 62.1234 50.738C58.6494 47.4377 56.1742 43.5559 54.634 38.9719C52.7758 33.4234 52.342 27.3477 52.2758 19.9244L52.2841 16.7329L51.6032 16.4492L50.9791 16.2081C49.7167 15.7353 48.4164 15.3452 47.0937 15.0497L47.102 19.915C47.2769 45.5464 51.7179 56.1116 58.3243 64.0525C65.0809 58.9532 69.4131 51.0382 69.4131 42.1469ZM33.8194 19.9197L33.8276 15.0544C32.0451 15.454 30.304 16.0213 28.6373 16.7377L28.6456 19.9292C28.5711 27.3453 28.1456 33.4281 26.2874 38.9766C24.7554 43.5606 22.272 47.4354 18.7979 50.7427C17.6573 48.0926 17.0071 45.1918 17.0071 42.1516C17.0071 35.4849 20.0391 29.4943 24.8465 25.3689L24.9552 18.6715C16.8736 23.603 11.5 32.2768 11.5 42.1516C11.5 51.043 15.8405 58.9579 22.5888 64.0573C29.2118 56.1257 33.6444 45.5512 33.8194 19.9197Z" fill="white"/>
</svg>
