<?xml version="1.0" encoding="UTF-8"?> <svg xmlns="http://www.w3.org/2000/svg" width="80" height="80" viewBox="0 0 80 80" fill="none"><rect width="80" height="80" fill="#F5F8FA"></rect><path opacity="0.5" d="M40.8271 60.6895L23.9996 52.6895V71.9998L40.8271 79.9998V60.6895Z" fill="url(#paint0_linear)"></path><path opacity="0.5" d="M55.4482 8L38.6207 0V19.3103L55.4482 27.3103V8Z" fill="url(#paint1_linear)"></path><path opacity="0.5" d="M55.4482 37.793L24 22.8965V42.2068L55.4482 57.1034V37.793Z" fill="url(#paint2_linear)"></path><path opacity="0.5" d="M24 22.8966L55.4483 8V27.3103L24 42.2069V22.8966Z" fill="url(#paint3_linear)"></path><path opacity="0.5" d="M24 52.6895L55.4483 37.793V57.1033L24 71.9999V52.6895Z" fill="url(#paint4_linear)"></path><defs><linearGradient id="paint0_linear" x1="23.9996" y1="61.9308" x2="40.8271" y2="69.2412" gradientUnits="userSpaceOnUse"><stop stop-color="#0997D5"></stop><stop offset="1" stop-color="#75BE43"></stop></linearGradient><linearGradient id="paint1_linear" x1="38.6207" y1="10.4828" x2="55.7929" y2="16.54" gradientUnits="userSpaceOnUse"><stop stop-color="#0997D5"></stop><stop offset="1" stop-color="#75BE43"></stop></linearGradient><linearGradient id="paint2_linear" x1="24" y1="32.2758" x2="48.5334" y2="54.2152" gradientUnits="userSpaceOnUse"><stop stop-color="#0997D5"></stop><stop offset="1" stop-color="#75BE43"></stop></linearGradient><linearGradient id="paint3_linear" x1="24" y1="32.1379" x2="48.4148" y2="9.82216" gradientUnits="userSpaceOnUse"><stop stop-color="#0997D5"></stop><stop offset="1" stop-color="#75BE43"></stop></linearGradient><linearGradient id="paint4_linear" x1="24" y1="61.9309" x2="48.4148" y2="39.6151" gradientUnits="userSpaceOnUse"><stop stop-color="#0997D5"></stop><stop offset="1" stop-color="#75BE43"></stop></linearGradient></defs></svg> 