<?xml version="1.0" encoding="UTF-8"?> <svg xmlns="http://www.w3.org/2000/svg" width="80" height="80" viewBox="0 0 80 80" fill="none"><rect width="80" height="80" fill="#F5F8FA"></rect><path d="M49 42H80V52H45L49 42Z" fill="#003097"></path><path d="M54 28H80V38H50L54 28Z" fill="#003097"></path><path d="M31 42H0V52H35L31 42Z" fill="#003097"></path><path d="M26 28H0V38H30L26 28Z" fill="#003097"></path><g clip-path="url(#clip0)"><path d="M40.2013 20.7581L42.6793 26.6231L49.0233 27.1681C49.4633 27.2061 49.6423 27.7551 49.3083 28.0441L44.4963 32.2131L45.9383 38.4151C46.0383 38.8461 45.5713 39.1851 45.1933 38.9561L39.7413 35.6681L34.2893 38.9561C33.9103 39.1841 33.4443 38.8451 33.5443 38.4151L34.9863 32.2131L30.1733 28.0431C29.8393 27.7541 30.0173 27.2051 30.4583 27.1671L36.8023 26.6221L39.2803 20.7581C39.4523 20.3501 40.0293 20.3501 40.2013 20.7581V20.7581Z" fill="#F60000"></path></g><defs><clipPath id="clip0"><rect width="19.481" height="19.481" fill="white" transform="translate(30 20)"></rect></clipPath></defs></svg> 