<?xml version="1.0" encoding="UTF-8"?> <svg xmlns="http://www.w3.org/2000/svg" width="80" height="80" viewBox="0 0 80 80" fill="none"><rect width="80" height="80" fill="white"></rect><path d="M52.9508 9C58.6663 9 62.9204 11.5579 65.7132 16.6737C68.5709 21.7896 69.9998 29.7109 69.9998 40.4376V43.7794H46.1312C46.1961 49.3903 46.7482 53.5985 47.7874 56.4039C48.8915 59.1269 50.7425 60.4884 53.3405 60.4884C55.224 60.4884 56.6853 59.4982 57.7245 57.5179C58.8286 55.455 59.3807 52.6496 59.3807 49.1015H69.9998C69.9998 56.5277 68.4735 62.1386 65.4209 65.9342C62.3683 69.7299 58.3415 71.6277 53.3405 71.6277C41.0002 71.6277 34.8301 61.231 34.8301 40.4376C34.8301 19.4792 40.8703 9 52.9508 9ZM52.9508 20.1393C50.7425 20.1393 49.0863 21.2945 47.9822 23.6049C46.943 25.9152 46.3585 29.3396 46.2286 33.8778H58.7962C58.7962 29.4221 58.309 26.039 57.3348 23.7286C56.3606 21.3358 54.8992 20.1393 52.9508 20.1393Z" fill="#E81D2D"></path><path d="M28.794 9C34.2589 9 38.3576 10.5265 41.0901 13.5795C43.8226 16.6325 45.1888 20.9644 45.1888 26.5754V56.1564C45.1888 57.4766 45.422 58.4668 45.8886 59.1269C46.4217 59.787 47.0549 60.117 47.788 60.117H49.9873V69.7711C48.2545 71.0088 46.0552 71.6277 43.3894 71.6277C41.2567 71.6277 39.424 70.9263 37.8911 69.5236C36.4249 68.0383 35.4252 66.1405 34.8921 63.8302H34.4922C32.9594 66.4706 31.2599 68.4509 29.3938 69.7711C27.5944 71.0088 25.1952 71.6277 22.1961 71.6277C19.1304 71.6277 16.3313 70.39 13.7988 67.9146C11.2663 65.3566 10 60.9834 10 54.7949C10 47.1212 12.0993 41.7166 16.298 38.5811C20.4967 35.4455 26.4281 33.8778 34.0923 33.8778V27.6893C34.0923 25.2964 33.7258 23.4398 32.9927 22.1196C32.2596 20.7994 30.9267 20.1393 28.9939 20.1393C26.9946 20.1393 25.5284 20.7994 24.5953 22.1196C23.729 23.3573 23.2958 24.8013 23.2958 26.4516V28.1844H12.3992C12.3326 27.7718 12.2993 26.9054 12.2993 25.5852C12.2993 20.6344 13.7988 16.6325 16.7978 13.5795C19.7969 10.5265 23.7956 9 28.794 9ZM34.0923 43.7794C25.6284 43.7794 21.3964 47.0387 21.3964 53.5572C21.3964 58.013 23.1958 60.2408 26.7946 60.2408C29.2605 60.2408 31.0933 59.0444 32.2929 56.6515C33.4925 54.1761 34.0923 51.0406 34.0923 47.245V43.7794Z" fill="#231F20"></path></svg> 