<?xml version="1.0" encoding="UTF-8"?> <svg xmlns="http://www.w3.org/2000/svg" width="80" height="80" viewBox="0 0 80 80" fill="none"><rect width="80" height="80" fill="#EDEDED"></rect><path d="M13 55.5506V24H24.0514C27.8796 24 30.7833 24.7368 32.7624 26.2103C34.7416 27.6693 35.7311 29.8146 35.7311 32.6461C35.7311 34.1918 35.3339 35.557 34.5393 36.7416C33.7448 37.9117 32.6396 38.7713 31.2239 39.3202C32.8419 39.7247 34.1132 40.5409 35.0377 41.7689C35.9767 42.9968 36.4462 44.4992 36.4462 46.2761C36.4462 49.3098 35.4783 51.6067 33.5425 53.1669C31.6067 54.7271 28.8475 55.5217 25.2648 55.5506H13ZM19.5008 41.8122V50.3282H25.0698C26.6011 50.3282 27.7929 49.9671 28.6453 49.2448C29.512 48.508 29.9454 47.4968 29.9454 46.2111C29.9454 43.3218 28.4502 41.8555 25.4599 41.8122H19.5008ZM19.5008 37.2183H24.3114C27.5907 37.1605 29.2303 35.8531 29.2303 33.2961C29.2303 31.866 28.8114 30.8403 27.9735 30.2191C27.1501 29.5835 25.8427 29.2656 24.0514 29.2656H19.5008V37.2183Z" fill="#0F8A06"></path><path d="M67 24V55.5506H60.4775V29.2656H52.0698L51.5498 40.4037C51.3331 44.1597 50.8563 47.1212 50.1196 49.2881C49.3828 51.4406 48.3066 53.0225 46.8908 54.0337C45.4751 55.0305 43.5393 55.5361 41.0835 55.5506H39.3933V50.3282L40.4767 50.2199C42.1091 50.0032 43.2721 49.0642 43.9655 47.4029C44.6734 45.7271 45.1212 42.7512 45.309 38.4751L45.8507 24H67Z" fill="#0F8A06"></path></svg> 