<?xml version="1.0" encoding="UTF-8"?> <svg xmlns="http://www.w3.org/2000/svg" width="80" height="80" viewBox="0 0 80 80" fill="none"><rect width="80" height="80" fill="#B52363"></rect><path d="M38.647 24.743L27.4258 35.9642L32.2941 40.8325L36.3337 36.7928C39.2915 33.8351 42.3528 32.2123 45.5178 31.9246C48.6827 31.6138 51.4794 32.6727 53.9078 35.101C56.3477 37.5409 57.4468 40.3664 57.2051 43.5773C56.9634 46.7653 55.4269 49.7979 52.5958 52.6751L43.1354 62.1354L18 37L34.452 20.548L38.647 24.743ZM36.4718 45.0102L44.2058 52.7442L48.3317 48.6182C49.6552 47.2947 50.3458 45.8791 50.4033 44.3714C50.4724 42.8523 49.8969 41.4827 48.677 40.2628C47.5376 39.1234 46.2601 38.6055 44.8445 38.7091C43.4289 38.7896 42.0536 39.4744 40.7186 40.7634L36.3337 36.7928L32.2941 40.8325L36.4718 45.0102Z" fill="white"></path></svg> 