<svg width="80" height="80" viewBox="0 0 80 80" fill="none" xmlns="http://www.w3.org/2000/svg">
<rect width="80" height="80" fill="#F5F8FA"/>
<path d="M24.075 52.1422L9 27.028H13.6063C17.0958 33.393 24.6194 46.7042 26.7969 49.0288C28.9744 51.3535 30.9146 49.9974 31.6125 49.0288L34.9626 43.6324H39.3594L33.7063 52.1422C30.0213 55.4631 25.75 53.5259 24.075 52.1422Z" fill="url(#paint0_linear_6150_1501)"/>
<path d="M58.622 28.6884L53.3876 37.4057H57.3657L60.0876 32.2169C66.4526 28.5639 67.9043 32.9087 67.8345 35.5377L60.0876 48.6137C58.7476 51.1044 56.0397 50.4817 54.8532 49.8591L42.5001 28.6884C37.9776 26.0317 34.1948 27.5815 32.8688 28.6884L27.6344 37.4057H31.8219L35.3813 31.1791C36.7213 29.6847 39.0105 30.5564 39.9876 31.1791L52.1313 52.3497C56.4864 55.3385 60.3668 53.5951 61.7626 52.3497L70.5564 37.4057C72.0639 32.7565 69.3699 29.3803 67.8345 28.2733C63.1445 25.7826 59.7386 27.5123 58.622 28.6884Z" fill="url(#paint1_linear_6150_1501)"/>
<defs>
<linearGradient id="paint0_linear_6150_1501" x1="9" y1="40.6987" x2="70.9751" y2="40.6987" gradientUnits="userSpaceOnUse">
<stop stop-color="#EB8820"/>
<stop offset="1" stop-color="#EC510E"/>
</linearGradient>
<linearGradient id="paint1_linear_6150_1501" x1="9" y1="40.6987" x2="70.9751" y2="40.6987" gradientUnits="userSpaceOnUse">
<stop stop-color="#EB8820"/>
<stop offset="1" stop-color="#EC510E"/>
</linearGradient>
</defs>
</svg>
