<?xml version="1.0" encoding="UTF-8"?> <svg xmlns="http://www.w3.org/2000/svg" width="80" height="80" viewBox="0 0 80 80" fill="none"><path d="M80.0002 79.9998V21.3839C80.0002 9.57372 80.0002 -7.62939e-06 80.0002 -7.62939e-06H0C0 -7.62939e-06 0.000166178 9.57372 0.000166178 21.3839V79.9999C0.000166178 79.9999 9.58494 80 21.4079 80H58.5924C70.4152 80 80.0002 79.9998 80.0002 79.9998Z" fill="url(#paint0_linear_4329_1234)"></path><path d="M23.9317 53.126H18.9383L11.5039 26.8743H16.0473L21.566 47.3883L27.5357 26.8743H31.5154L37.4479 47.3883L42.9665 26.8743H47.5093L40.0755 53.126H35.0823L29.5257 33.9618L23.9317 53.126ZM64.8157 39.5129C67.1062 40.7129 68.4953 42.8876 68.4953 45.6251C68.4953 47.7632 67.745 49.5631 66.2048 50.9883C64.6657 52.4136 62.8261 53.126 60.6111 53.126H49.3478V26.8743H59.7852C61.9252 26.8743 63.7648 27.5867 65.2294 28.9744C66.7308 30.3618 67.4817 32.0867 67.4817 34.1494C67.4817 36.4374 66.5808 38.2002 64.8157 39.5129ZM59.7852 30.9244H53.6652V37.825H59.7852C61.6997 37.825 63.1649 36.3249 63.1649 34.3746C63.1649 32.4246 61.6997 30.9244 59.7852 30.9244ZM53.6652 49.0759H60.6111C62.6006 49.0759 64.178 47.4631 64.178 45.4005C64.178 43.3375 62.6006 41.7254 60.6111 41.7254H53.6652V49.0759Z" fill="black"></path><path d="M23.9317 53.126H18.9383L11.5039 26.8743H16.0473L21.566 47.3883L27.5357 26.8743H31.5154L37.4479 47.3883L42.9665 26.8743H47.5093L40.0755 53.126H35.0823L29.5257 33.9618L23.9317 53.126ZM64.8157 39.5129C67.1062 40.7129 68.4953 42.8876 68.4953 45.6251C68.4953 47.7632 67.745 49.5631 66.2048 50.9883C64.6657 52.4136 62.8261 53.126 60.6111 53.126H49.3478V26.8743H59.7852C61.9252 26.8743 63.7648 27.5867 65.2294 28.9744C66.7308 30.3618 67.4817 32.0867 67.4817 34.1494C67.4817 36.4374 66.5808 38.2002 64.8157 39.5129ZM59.7852 30.9244H53.6652V37.825H59.7852C61.6997 37.825 63.1649 36.3249 63.1649 34.3746C63.1649 32.4246 61.6997 30.9244 59.7852 30.9244ZM53.6652 49.0759H60.6111C62.6006 49.0759 64.178 47.4631 64.178 45.4005C64.178 43.3375 62.6006 41.7254 60.6111 41.7254H53.6652V49.0759Z" fill="white"></path><defs><linearGradient id="paint0_linear_4329_1234" x1="36.1641" y1="111.602" x2="111.064" y2="38.0066" gradientUnits="userSpaceOnUse"><stop stop-color="#CB11AB"></stop><stop offset="1" stop-color="#481173"></stop></linearGradient></defs></svg> 