<?xml version="1.0" encoding="UTF-8"?> <svg xmlns="http://www.w3.org/2000/svg" width="80" height="80" viewBox="0 0 80 80" fill="none"><rect width="80" height="80" fill="#07629B"></rect><circle cx="40" cy="40" r="30" fill="#0088CC"></circle><path d="M39.9991 48.6577C25.8773 49.6086 15.265 49.1945 11.4824 51.9679C17.5346 28.1965 32.8542 21.1885 39.9991 19.9999V48.6577Z" fill="#07B2E8"></path><path d="M39.9991 48.6577C54.1208 49.6086 64.7331 49.2266 68.5157 51.9999C62.4636 28.2285 47.144 21.1885 39.9991 19.9999V48.6577Z" fill="#07B2E8"></path><path d="M39.9991 49.436C25.8773 50.1564 15.265 49.867 11.4824 51.968C17.5346 33.9594 32.8542 28.626 39.9991 27.7256V49.436Z" fill="#6BCFF6"></path><path d="M39.9991 49.436C54.1208 50.1564 64.7331 49.867 68.5157 51.968C62.4636 33.9594 47.144 28.626 39.9991 27.7256V49.436Z" fill="#6BCFF6"></path><path d="M40 49.544C25.8783 50.0427 14.7826 50.5137 11 51.9682C17.0522 39.5007 32.8551 35.137 40 34.5137V49.544Z" fill="white"></path><path d="M40 49.544C54.1217 50.0427 65.2174 50.5137 69 51.9682C62.9478 39.5007 47.1449 35.137 40 34.5137V49.544Z" fill="white"></path><circle cx="40" cy="40" r="31" stroke="white" stroke-width="2"></circle></svg> 