<?xml version="1.0" encoding="UTF-8"?> <svg xmlns="http://www.w3.org/2000/svg" width="80" height="80" viewBox="0 0 80 80" fill="none"><rect width="80" height="80" fill="white"></rect><rect y="10" width="80" height="60" fill="#057AB8"></rect><path d="M0 70C0 36.8629 26.8629 10 60 10H80V10C80 43.1371 53.1371 70 20 70H0V70Z" fill="white"></path><path d="M56.3232 31.351C56.0188 31.0286 55.7012 30.7141 55.3632 30.4113C51.6921 27.1072 46.1675 25 39.9996 25C39.9881 25 39.9791 25.0006 39.9692 25.0006C39.9627 25.0006 39.9577 25 39.9512 25C39.929 25 39.906 25.0018 39.8823 25.0018C33.7611 25.0283 28.2849 27.1293 24.6352 30.4113C24.2988 30.7147 23.9796 31.0286 23.6752 31.351C21.3645 33.7973 20 36.7802 20 40C20 43.2192 21.3637 46.2033 23.6752 48.649C23.9796 48.9714 24.2988 49.2859 24.6352 49.5887C28.2841 52.8707 33.7603 54.9717 39.8823 54.9982C39.906 54.9982 39.929 55 39.9512 55C39.9577 55 39.9627 54.9994 39.9684 54.9994C39.9783 54.9994 39.9873 55 39.9988 55C46.1675 55 51.6913 52.8935 55.3632 49.5893C55.6996 49.2865 56.0188 48.9714 56.3232 48.649C58.6338 46.2027 59.9984 43.2198 59.9984 39.9994C59.9984 36.7808 58.6338 33.7973 56.3232 31.351ZM34.1533 26.9508C32.3153 28.2807 30.7875 30.2248 29.7348 32.5578C28.3243 32.1628 27.0549 31.687 25.9603 31.1492C28.106 29.2377 30.9278 27.7657 34.1533 26.9508ZM24.997 32.0901C26.2409 32.7129 27.6785 33.2576 29.2679 33.7062C28.5819 35.5857 28.1881 37.6719 28.1733 39.8732H21.6443C21.6796 36.9777 22.9227 34.2982 24.997 32.0901ZM21.7059 41.104H28.2053C28.3111 42.9466 28.6845 44.695 29.2662 46.2944C27.6761 46.743 26.2393 47.2877 24.997 47.9111C23.1582 45.9535 21.9726 43.626 21.7059 41.104ZM25.9653 48.8484C27.0598 48.3117 28.3259 47.8372 29.7331 47.4422C30.7859 49.7758 32.3145 51.7186 34.1533 53.0485C30.9278 52.2343 28.1118 50.7592 25.9653 48.8484ZM39.1791 53.7249C35.8116 53.379 32.9053 50.7887 31.2577 47.0581C33.6331 46.524 36.322 46.2003 39.1791 46.1479V53.7249ZM39.1791 44.9184C36.1661 44.9725 33.3262 45.3214 30.7973 45.9036C30.2796 44.4291 29.9481 42.8112 29.8488 41.1047H39.1791V44.9184ZM39.1791 39.8732H29.8144C29.8291 37.8061 30.1877 35.8534 30.8047 34.0982C33.3303 34.6786 36.1685 35.0281 39.1782 35.0816V39.8732H39.1791ZM39.1791 33.8521C36.3236 33.7997 33.6356 33.4773 31.2626 32.9431C32.9094 29.2143 35.8132 26.6216 39.1791 26.2751V33.8521ZM58.3524 39.8732H51.7291C51.7143 37.6811 51.3254 35.6035 50.6443 33.7308C52.269 33.2779 53.7369 32.7246 55.0013 32.0908C57.0748 34.2988 58.3171 36.9777 58.3524 39.8732ZM54.0364 31.1504C52.9196 31.6987 51.6216 32.1818 50.1774 32.5812C49.1149 30.2162 47.5649 28.2487 45.6982 26.9139C48.9836 27.7207 51.8571 29.2094 54.0364 31.1504ZM40.8201 26.2844C44.1506 26.6702 47.0192 29.258 48.6488 32.9616C46.298 33.484 43.6403 33.8004 40.8201 33.8521V26.2844ZM40.8201 35.0823C43.7945 35.0293 46.6007 34.6872 49.1042 34.1191C49.7179 35.8694 50.074 37.8147 50.088 39.8738H40.8201V35.0823ZM40.8201 41.104H50.0544C49.9551 42.8026 49.6252 44.4131 49.1124 45.8833C46.6057 45.3134 43.7962 44.9719 40.8218 44.9184L40.8201 41.104ZM40.8201 53.7156V46.1486C43.6419 46.2003 46.2996 46.5166 48.6537 47.0391C47.0217 50.7438 44.1498 53.3298 40.8201 53.7156ZM45.6982 53.0867C47.5649 51.7525 49.1181 49.7862 50.1807 47.4206C51.6216 47.8194 52.918 48.3019 54.0331 48.849C51.8538 50.7894 48.9836 52.2793 45.6982 53.0867ZM55.0013 47.9111C53.7369 47.2772 52.269 46.7227 50.6435 46.2704C51.2195 44.6777 51.5896 42.9374 51.6938 41.1047H58.2917C58.025 43.626 56.8426 45.9541 55.0013 47.9111Z" fill="#057AB8"></path></svg> 