<?xml version="1.0" encoding="UTF-8"?> <svg xmlns="http://www.w3.org/2000/svg" width="80" height="80" viewBox="0 0 80 80" fill="none"><rect width="80" height="80" fill="#F5F8FA"></rect><path fill-rule="evenodd" clip-rule="evenodd" d="M39.1184 25.2344L36.6739 32.9535H19.1804C14.7576 31.6048 14.7576 27.0709 19.1804 25.2344H39.1184Z" fill="#40406B"></path><path fill-rule="evenodd" clip-rule="evenodd" d="M35.1053 35.019L32.7314 42.652H15.1814C10.7586 41.332 10.7586 36.9129 15.1814 34.9473H35.1053V35.019Z" fill="#40406B"></path><path fill-rule="evenodd" clip-rule="evenodd" d="M31.6579 45.2637L29.284 52.9971H11.734C7.29701 51.6341 7.29701 47.258 11.734 45.2637H31.6579Z" fill="#40406B"></path><path fill-rule="evenodd" clip-rule="evenodd" d="M47.7236 29.0791L48.3878 36.7982H67.6617C72.0845 35.4639 72.0845 30.93 67.6617 29.0791H47.7236Z" fill="#40406B"></path><path fill-rule="evenodd" clip-rule="evenodd" d="M47.5688 39.1084H59.0427C63.7199 40.2849 65.034 43.4127 65.1047 47.0571H45.4492L47.5688 39.1084Z" fill="#40406B"></path><path fill-rule="evenodd" clip-rule="evenodd" d="M38.3975 56.9993H57.0779C61.7551 55.8945 64.6377 52.8385 64.7083 49.1367L41.167 49.3519L38.3975 56.9993Z" fill="#40406B"></path><path fill-rule="evenodd" clip-rule="evenodd" d="M33.2256 29.0215H41.7463L33.0561 56.9997H23.9561L33.2256 29.0215Z" fill="#328455"></path><path fill-rule="evenodd" clip-rule="evenodd" d="M44.7002 25.3633H53.3057L44.6154 53.3702H35.4307L44.7002 25.3633Z" fill="#328455"></path></svg> 