<?xml version="1.0" encoding="UTF-8"?> <svg xmlns="http://www.w3.org/2000/svg" width="80" height="80" viewBox="0 0 80 80" fill="none"><rect width="80" height="80" fill="#E2251D"></rect><path d="M30.9072 2.47409C30.9072 4.67827 31.0872 5.17308 32.0318 5.9378C32.9315 6.61254 33.1564 7.19732 33.1564 8.77173C33.1564 10.3461 33.0214 10.706 32.4816 10.5261C31.9418 10.3012 31.8069 10.706 31.8069 12.7303C31.8069 15.1593 31.8519 15.2043 34.236 17.2735C35.5855 18.3981 36.89 19.3428 37.1599 19.3428C37.7896 19.3428 37.8346 14.5746 37.2049 14.1697C36.6201 13.8098 36.6201 10.3461 37.1599 10.3461C37.4298 10.3461 37.7447 10.5711 37.8796 10.796C38.4644 11.7856 39.0042 10.661 39.0042 8.41187L38.9592 6.07275L35.6305 3.23881C31.0422 -0.629743 30.9072 -0.674726 30.9072 2.47409Z" fill="white"></path><path d="M45.3477 3.19319L41.7041 6.34201V13.2694C41.7041 17.093 41.884 20.2868 42.064 20.4217C42.2889 20.5567 44.0882 19.2972 46.1124 17.6328L49.8011 14.6189V12.2348C49.8011 10.4805 49.6211 9.89567 49.1713 9.89567C48.8114 9.89567 48.4066 10.0756 48.2267 10.3455C48.0917 10.5704 47.372 11.2002 46.6522 11.695L45.3028 12.6396V10.7054C45.3477 8.95103 45.5277 8.63615 47.5519 7.01675C49.8011 5.26241 49.8011 5.21743 49.8011 2.60841C49.8011 1.16894 49.6211 -0.000617211 49.3962 -0.000617211C49.2163 -0.000617211 47.372 1.43884 45.3477 3.19319Z" fill="white"></path><path d="M21.3262 11.5602C20.7414 12.1 21.0113 24.0206 21.5961 25.0102C21.911 25.55 25.3297 28.6538 29.2433 31.8926C33.1118 35.1764 36.3056 38.0103 36.3056 38.1453C36.3056 38.5051 33.3367 40.9342 32.9319 40.9342C32.7969 40.9342 30.3678 39 27.5339 36.6159C24.2501 33.8719 22.0909 32.3874 21.6861 32.5674C21.1463 32.7473 21.0113 33.8269 21.0113 38.1003V43.3633L23.2155 45.4325L25.3747 47.5468L23.3055 49.3461L21.2363 51.1454L21.1013 58.1628C20.9664 62.7061 21.1013 65.45 21.4162 66.0798C22.1809 67.4743 37.3402 80.1146 38.1049 79.9346C39.0496 79.7997 39.3195 68.0141 38.4648 66.3947C38.1499 65.8099 34.6862 62.6611 30.8177 59.3773C26.9041 56.0936 23.7103 53.2596 23.7103 53.0797C23.7103 52.8998 24.61 52.0001 25.7346 51.0554L27.7588 49.3911L32.527 53.3946C35.1361 55.5538 37.6101 57.3531 38.015 57.3531C38.6897 57.3531 38.7797 56.7233 38.7797 51.8202V46.2422L37.0253 44.6678L35.271 43.0484L36.7105 41.8789C37.4752 41.2491 38.3299 39.9896 38.5548 39.1349C39.2295 36.8408 39.0946 26.5396 38.4198 25.1901C37.835 24.0206 22.9006 11.2454 22.0909 11.2454C21.821 11.2454 21.4612 11.3803 21.3262 11.5602Z" fill="white"></path><path d="M50.3409 17.8133C46.0675 21.412 42.3788 24.8757 42.1089 25.5054C41.884 26.0902 41.7041 29.239 41.7041 32.4778C41.7041 37.9208 41.7491 38.3256 42.6038 38.5506C43.3685 38.7755 43.5034 39.1803 43.5034 41.5644C43.5034 43.4537 43.2335 44.8932 42.6038 46.1077C41.884 47.5022 41.7041 48.7617 41.7041 52.0005C41.7041 56.5438 41.929 57.5784 42.8737 57.5784C43.9083 57.5784 43.7733 64.6408 42.7387 65.8103C42.064 66.4851 41.884 67.6996 41.7941 72.2879C41.6141 78.5856 41.8391 80.2049 42.8737 79.98C43.9982 79.7551 58.6178 67.3848 59.2025 66.2152C59.5174 65.5404 59.6974 60.8172 59.6974 52.6303C59.6974 41.2046 59.6074 40.035 58.9326 40.035C58.2579 40.035 58.2579 39.99 58.9326 39.2253C59.6074 38.5056 59.6974 36.7962 59.6974 24.8307C59.6974 12.1904 59.6524 11.2458 58.9326 11.2458C58.4828 11.2458 54.6143 14.2147 50.3409 17.8133ZM56.8184 29.8238C57.3582 32.1629 56.4136 33.8273 52.4551 37.246C50.3858 39.0454 48.1367 40.9347 47.4619 41.4295L46.2024 42.3291V39.4052V36.4813L50.6108 32.6578C52.9949 30.5436 55.334 28.8342 55.7388 28.8342C56.1887 28.7892 56.6385 29.239 56.8184 29.8238ZM56.9984 49.9313C56.9984 53.0351 56.2337 54.2047 51.5554 58.1182C49.0813 60.1425 46.8772 61.8968 46.6522 61.9868C46.3823 62.0767 46.2024 60.6373 46.2024 58.613V55.0594L50.9706 51.1458C56.1887 46.8275 56.9984 46.6925 56.9984 49.9313Z" fill="white"></path></svg> 