<svg xmlns="http://www.w3.org/2000/svg" version="1.1" xmlns:xlink="http://www.w3.org/1999/xlink" xmlns:svgjs="http://svgjs.dev/svgjs" width="100%" height="100%" viewBox="0 0 1000 600"><rect width="1000" height="600" x="0" y="0" fill="#000000"/><g><circle r="166.66666666666666" cx="460.4224650065104" cy="482.64465954282014" fill="#ffffff" transform="matrix(0.4255235154724962,0,0,0.4255235154724962,0,94.62333568075209)"/><path d="M447.96548097931895 442.95091337233225L447.96548097931895 442.95091337233225Q447.96548097931895 424.5751407846271 430.5532320478979 415.6281354048455L430.5532320478979 415.6281354048455Q419.1630059682529 410.0534628220585 403.1960425212581 410.0534628220585L403.1960425212581 410.0534628220585L335.1988016349182 410.0534628220585L335.1988016349182 416.35077814705863L354.5725094380606 416.35077814705863L354.5725094380606 548.9385155635908L335.1988016349182 548.9385155635908L335.1988016349182 555.235830888591L403.9186852634712 555.235830888591Q435.12996941524773 555.235830888591 449.65164737781623 535.3803612573065L449.65164737781623 535.3803612573065Q457.1533672731715 524.9880703930986 457.1533672731715 512.6343206571695L457.1533672731715 512.6343206571695Q457.1533672731715 493.2950244131801 439.9819992558215 482.6618526349012L439.9819992558215 482.6618526349012Q431.9985175323242 478.05070370839843 421.5718151089633 476.1236563958301L421.5718151089633 476.1236563958301Q439.01847559953734 469.5854601567589 445.5566718386085 454.10025853790626L445.5566718386085 454.10025853790626Q447.96548097931895 448.28470504104826 447.96548097931895 442.95091337233225ZM375.35709116647627 416.35077814705863L397.38048902440005 416.35077814705863Q422.32886941032945 416.35077814705863 425.70120220732406 438.3741760049825L425.70120220732406 438.3741760049825Q426.1829640354661 441.50562788790603 426.1829640354661 444.91237224405364L426.1829640354661 444.91237224405364Q426.1829640354661 460.63845477697737 413.82921429953694 468.62193650047476L413.82921429953694 468.62193650047476Q406.5683753182527 473.1986738678246 396.898727196258 473.1986738678246L396.898727196258 473.1986738678246L375.35709116647627 473.1986738678246L375.35709116647627 416.35077814705863ZM375.35709116647627 479.7368701068957L401.50987612276083 479.7368701068957Q423.53327398068467 479.7368701068957 431.03499387603995 498.387935167825L431.03499387603995 498.387935167825Q433.9255648448925 505.16701232096716 433.9255648448925 513.1504940444645L433.9255648448925 513.1504940444645Q433.9255648448925 531.7671475462408 421.8126960230344 542.1594384104486L421.8126960230344 542.1594384104486Q413.82921429953694 548.9385155635908 402.71428069311605 548.9385155635908L402.71428069311605 548.9385155635908L375.35709116647627 548.9385155635908L375.35709116647627 479.7368701068957ZM585.646129150496 517.2454695836723L585.646129150496 517.2454695836723Q585.646129150496 495.7038335538905 562.418326722217 482.6618526349012L562.418326722217 482.6618526349012Q557.8071777957141 480.2186319350378 534.097613539293 469.82634107083L534.097613539293 469.82634107083Q512.5559775095112 460.63845477697737 506.9813049267242 450.9688066549827L506.9813049267242 450.9688066549827Q504.09073395787175 445.63501498626675 504.09073395787175 439.5785805753377L504.09073395787175 439.5785805753377Q504.09073395787175 423.37073621427186 519.8168164907954 417.07342088927174L519.8168164907954 417.07342088927174Q526.5958936439376 414.4237308344903 534.8202562815061 414.4237308344903L534.8202562815061 414.4237308344903Q555.1574877409327 414.4237308344903 565.7906595192114 428.22276605484575L565.7906595192114 428.22276605484575Q572.8106175864248 437.65153326276936 572.5697366723537 451.2096875690537L572.5697366723537 451.2096875690537L579.830575653638 451.2096875690537L579.830575653638 408.8490582517033Q574.0150221567799 408.8490582517033 573.0514985004959 412.49668352192197L573.0514985004959 412.49668352192197Q572.5697366723537 414.18284992041924 572.5697366723537 417.07342088927174L572.5697366723537 417.07342088927174Q555.3983686550037 407.6446536813481 533.856732625222 407.6446536813481L533.856732625222 407.6446536813481Q507.7383592280904 407.6446536813481 493.21668126552186 422.16633164391664L493.21668126552186 422.16633164391664Q483.5126215843742 432.3177415940534 483.5126215843742 445.8758959003378L483.5126215843742 445.8758959003378Q483.5126215843742 466.17871580061137 506.25866218451114 479.0142273646826L506.25866218451114 479.0142273646826Q510.38804928287186 481.182155591322 533.856732625222 491.36797710061177L533.856732625222 491.36797710061177Q555.6392495690748 501.03762522260644 561.4203915067798 510.94815425867216L561.4203915067798 510.94815425867216Q564.5862549488563 516.5228268414592 564.5862549488563 523.0610230805303L564.5862549488563 523.0610230805303Q564.5862549488563 539.9915101838093 548.1375296737194 547.4932300791645L548.1375296737194 547.4932300791645Q540.3949288642931 550.8655628761592 530.9661616563694 550.8655628761592L530.9661616563694 550.8655628761592Q493.93932400773497 550.3838010480171 489.80993690937424 505.6487741491093L489.80993690937424 505.6487741491093L482.54909792808996 505.6487741491093L482.54909792808996 555.717592716733Q488.36465142494797 555.717592716733 489.3281750812322 552.3452599197384L489.3281750812322 552.3452599197384Q489.80993690937424 550.3838010480171 489.80993690937424 545.3253018525252L489.80993690937424 545.3253018525252Q508.4610019703035 557.6446400293014 532.1705662267246 557.6446400293014L532.1705662267246 557.6446400293014Q559.9751060223534 557.6446400293014 575.2194267271352 542.6412002385907L575.2194267271352 542.6412002385907Q585.646129150496 532.0080284603118 585.646129150496 517.2454695836723Z " fill="#000000" transform="matrix(0.4255235154724962,0,0,0.4255235154724962,0,94.62333568075209)"/><path d="M773.9795917348679 557.4186821584808L773.9795917348679 557.4186821584808Q793.9279433499327 557.4186821584808 807.5496332877278 542.441279004128L807.5496332877278 542.441279004128Q820.2675144144844 527.9157802552943 820.2675144144844 505.6756277265247L820.2675144144844 505.6756277265247Q820.2675144144844 480.7240487646394 806.6458244766893 466.65045442132504L806.6458244766893 466.65045442132504Q796.4456964663972 456.4180475249245 781.4682933120444 456.4180475249245L781.4682933120444 456.4180475249245Q756.7103876668101 456.4180475249245 746.2843074537584 478.65820005369415L746.2843074537584 478.65820005369415Q745.1545464399603 480.7240487646394 744.4766898316814 482.75761858947607L744.4766898316814 482.75761858947607L744.4766898316814 407.644650614952L710.4224649871937 407.644650614952L710.4224649871937 413.2934556839429L727.4334379663833 413.2934556839429L727.4334379663833 535.85638623799Q727.4334379663833 546.3147453371503 721.5264018085243 548.348315161987L721.5264018085243 548.348315161987Q718.1371187671298 549.4780761757852 710.4224649871937 549.4780761757852L710.4224649871937 549.4780761757852L710.4224649871937 555.1591601308845L739.0215580793416 555.1591601308845L741.0551279041783 540.1817569765317Q750.8033515089511 555.8370167391633 770.5580298073648 557.1927299557212L770.5580298073648 557.1927299557212Q772.3656474294419 557.4186821584808 773.9795917348679 557.4186821584808ZM774.431496140387 465.52069340752684L774.431496140387 465.52069340752684Q793.0241345388941 465.52069340752684 798.7052184939935 488.2127503418158L798.7052184939935 488.2127503418158Q800.9647405215899 496.6052607300308 800.9647405215899 507.2572931458421L800.9647405215899 507.2572931458421Q800.9647405215899 539.2779481654931 783.7278153396405 548.8002195675062L783.7278153396405 548.8002195675062Q778.2726835873009 551.76987708949 771.6877908211629 551.76987708949L771.6877908211629 551.76987708949Q754.6768178419734 551.76987708949 747.6400206703163 533.5968642103937L747.6400206703163 533.5968642103937Q744.2184587428133 524.0745928083805 744.2184587428133 511.5826638843837L744.2184587428133 511.5826638843837Q744.2184587428133 484.1133318060339 757.8401486806083 471.87963397090516L757.8401486806083 471.87963397090516Q765.1028980550251 465.52069340752684 774.431496140387 465.52069340752684ZM918.0725393232972 557.4186821584808L918.0725393232972 557.4186821584808Q935.5676955941146 557.4186821584808 937.3753132161917 536.3082906435093L937.3753132161917 536.3082906435093Q937.6012654189512 534.9525774269515 937.6012654189512 533.8228164131533L937.6012654189512 533.8228164131533L931.6942292610922 533.5968642103937Q930.112563841775 550.155932784064 922.8498144673581 550.3818849868237L922.8498144673581 550.3818849868237Q916.9427783094991 549.9299805813043 916.7168261067395 538.6000915572142L916.7168261067395 538.6000915572142L916.7168261067395 490.6982245721718Q916.7168261067395 458.25794403311005 884.2765455676777 456.4180475249245L884.2765455676777 456.4180475249245Q882.2106968567325 456.4180475249245 880.1771270318959 456.4180475249245L880.1771270318959 456.4180475249245Q854.7736436644911 456.4180475249245 846.1551810735166 468.23211984064244L846.1551810735166 468.23211984064244Q843.4114757542925 472.10558617366473 843.4114757542925 475.94677362057854L843.4114757542925 475.94677362057854Q843.4114757542925 482.9835707922357 849.9963685204305 484.1133318060339L849.9963685204305 484.1133318060339Q851.1261295342285 484.3392840087935 852.2558905480269 484.3392840087935L852.2558905480269 484.3392840087935Q857.4850700976069 484.3392840087935 859.9705443279629 477.75439124265563L859.9705443279629 477.75439124265563Q863.1661540527061 469.36188085444064 864.2959150665044 467.7802154351232L864.2959150665044 467.7802154351232Q868.621285805046 462.09913148002386 877.6916528015399 462.09913148002386L877.6916528015399 462.09913148002386Q899.027996519271 463.45484469658163 899.70585312755 485.4690450225917L899.70585312755 485.4690450225917L899.70585312755 499.76859156866567Q846.3811332762764 499.76859156866567 838.6342006102316 522.0087440974354L838.6342006102316 522.0087440974354Q837.2784873936739 526.3341148359768 837.2784873936739 531.3373421827973L837.2784873936739 531.3373421827973Q837.2784873936739 548.5742673647466 852.4818427507864 554.9332079281248L852.4818427507864 554.9332079281248Q858.614831111405 557.4186821584808 865.4256760803025 557.4186821584808L865.4256760803025 557.4186821584808Q881.9847446539729 557.4186821584808 893.3469125641716 546.0887931343906L893.3469125641716 546.0887931343906Q897.4463310999536 541.763422395849 899.4799009247902 536.9861472517882L899.4799009247902 536.9861472517882Q902.191327357906 557.1927299557212 918.0725393232972 557.4186821584808ZM872.914377657479 548.348315161987L872.914377657479 548.348315161987Q859.0667355169244 548.348315161987 855.9034046782895 534.5006730214322L855.9034046782895 534.5006730214322Q855.2255480700105 531.3373421827973 855.2255480700105 527.4638758497751L855.2255480700105 527.4638758497751Q855.2255480700105 512.2605204926626 872.6884254547194 508.19338084298914L872.6884254547194 508.19338084298914Q881.9847446539729 506.12753213204394 899.70585312755 505.9015799292843L899.70585312755 505.9015799292843L899.70585312755 524.0745928083805Q896.2842912000469 539.7298525710123 883.1467845538796 546.0887931343906L883.1467845538796 546.0887931343906Q877.9176050042995 548.348315161987 872.914377657479 548.348315161987ZM989.7962242564267 549.4780761757852L989.7962242564267 549.4780761757852L979.5960962461347 549.4780761757852L979.5960962461347 500.44644817694456Q980.2739528544137 479.3683355480816 994.5734994004877 470.03973746271953L994.5734994004877 470.03973746271953Q1000.7064877611062 466.1985500158058 1007.0654283244846 466.1985500158058L1007.0654283244846 466.1985500158058Q1020.9130704650393 466.1985500158058 1025.8840189257512 479.14238334532195L1025.8840189257512 479.14238334532195Q1027.9498676366964 484.3392840087935 1027.9498676366964 490.9241767749314L1027.9498676366964 490.9241767749314L1027.9498676366964 535.85638623799Q1027.9498676366964 546.3147453371503 1022.0428314788373 548.348315161987L1022.0428314788373 548.348315161987Q1018.6212695513343 549.4780761757852 1010.9066157713983 549.4780761757852L1010.9066157713983 549.4780761757852L1010.9066157713983 555.1591601308845L1061.9718135950757 555.1591601308845Q1061.9718135950757 550.155932784064 1058.582530553681 549.7040283785448L1058.582530553681 549.7040283785448Q1057.6787217426424 549.4780761757852 1056.2907296399762 549.4780761757852L1056.2907296399762 549.4780761757852L1044.960840615886 549.4780761757852L1044.960840615886 493.1836988025278Q1044.960840615886 470.4916418682388 1029.3055808532542 460.743418263466L1029.3055808532542 460.743418263466Q1022.0428314788373 456.4180475249245 1013.6503210906224 456.4180475249245L1013.6503210906224 456.4180475249245Q996.8330214280841 456.4180475249245 985.9550368095131 469.8137852599599L985.9550368095131 469.8137852599599Q981.8556182737311 475.04296480953997 979.3701440433751 481.4019053729183L979.3701440433751 481.4019053729183L978.4663352323366 458.7098484386293L945.5418714016471 458.7098484386293L945.5418714016471 464.35865350762015L962.5851232669452 464.35865350762015L962.5851232669452 535.85638623799Q962.5851232669452 546.3147453371503 956.6780871090862 548.348315161987L956.6780871090862 548.348315161987Q953.2565251815831 549.4780761757852 945.5418714016471 549.4780761757852L945.5418714016471 549.4780761757852L945.5418714016471 555.1591601308845L995.4773082115262 555.1591601308845Q995.4773082115262 550.155932784064 992.0880251701317 549.7040283785448L992.0880251701317 549.7040283785448Q991.1519374729846 549.4780761757852 989.7962242564267 549.4780761757852ZM1118.9440475766119 549.4780761757852L1118.9440475766119 549.4780761757852L1108.7439195663198 549.4780761757852L1108.7439195663198 515.9080346229252L1121.2035696042083 504.31991450996685L1153.224224623859 555.1591601308845L1183.4049831353245 555.1591601308845Q1183.4049831353245 550.155932784064 1179.9834212078215 549.7040283785448L1179.9834212078215 549.7040283785448Q1179.079612396783 549.4780761757852 1177.723899180225 549.4780761757852L1177.723899180225 549.4780761757852L1169.55734099477 549.4780761757852L1133.0176419199263 493.1836988025278L1154.3539856376574 473.23534718746293Q1162.294591620353 465.74664561028646 1166.394010156135 464.84283679924795L1166.394010156135 464.84283679924795Q1168.201627778212 464.35865350762015 1170.4611498058084 464.35865350762015L1170.4611498058084 464.35865350762015Q1175.464377152629 464.35865350762015 1175.916281558148 460.96937046622566L1175.916281558148 460.96937046622566Q1176.1422337609079 459.8396094524275 1176.1422337609079 458.7098484386293L1176.1422337609079 458.7098484386293L1137.5689648612274 458.7098484386293L1137.5689648612274 464.35865350762015L1154.579937840417 464.35865350762015L1108.7439195663198 506.8053887403228L1108.7439195663198 407.644650614952L1074.6896947218322 407.644650614952L1074.6896947218322 413.2934556839429L1091.7006677010218 413.2934556839429L1091.7006677010218 535.85638623799Q1091.7006677010218 546.3147453371503 1085.8259104292713 548.348315161987L1085.8259104292713 548.348315161987Q1082.4043485017683 549.4780761757852 1074.6896947218322 549.4780761757852L1074.6896947218322 549.4780761757852L1074.6896947218322 555.1591601308845L1124.6251315317113 555.1591601308845Q1124.6251315317113 550.155932784064 1121.2035696042083 549.7040283785448L1121.2035696042083 549.7040283785448Q1120.2997607931698 549.4780761757852 1118.9440475766119 549.4780761757852ZM1190.893684712501 512.7124248981818L1190.893684712501 502.0603924823705L1242.6367391444571 502.0603924823705L1242.6367391444571 512.7124248981818L1190.893684712501 512.7124248981818ZM1302.320399559109 551.2856937978622L1302.320399559109 551.2856937978622Q1317.975659321741 551.2856937978622 1323.4307910740806 541.763422395849L1323.4307910740806 541.763422395849Q1325.4966397850258 538.3741393544545 1325.4966397850258 534.2747208186727L1325.4966397850258 534.2747208186727Q1325.4966397850258 524.7524494166595 1311.6489976444711 517.941604447762L1311.6489976444711 517.941604447762Q1308.6793401224872 516.3599390284445 1301.8684951535897 513.3902815064607L1301.8684951535897 513.3902815064607Q1283.2758567550827 505.6756277265247 1277.1428683944641 498.86478275762715L1277.1428683944641 498.86478275762715Q1270.5579756283262 491.3760811804507 1270.5579756283262 481.4019053729183L1270.5579756283262 481.4019053729183Q1270.5579756283262 465.74664561028646 1287.7949008102753 459.3877050469082L1287.7949008102753 459.3877050469082Q1295.7355067929711 456.4180475249245 1305.0641048783332 456.4180475249245L1305.0641048783332 456.4180475249245Q1320.0415080326861 456.4180475249245 1330.919492651257 462.77698808830274L1330.919492651257 462.77698808830274Q1330.919492651257 456.19209532216485 1334.1151023760006 455.2882865111263L1334.1151023760006 455.2882865111263Q1335.4708155925582 455.06233430836664 1337.0524810118757 455.06233430836664L1337.0524810118757 455.06233430836664L1337.0524810118757 483.43547519775495L1331.1454448540167 483.43547519775495Q1330.6935404484975 462.5510358855431 1308.0014835142083 462.32508368278343L1308.0014835142083 462.32508368278343Q1290.9905105350188 462.32508368278343 1286.8910919992368 472.3315383764244L1286.8910919992368 472.3315383764244Q1285.7613309854387 475.04296480953997 1285.7613309854387 477.98034344541526L1285.7613309854387 477.98034344541526Q1285.7613309854387 487.76084593629656 1299.8349253287531 494.5716909051941L1299.8349253287531 494.5716909051941Q1302.998256167388 496.1533563245115 1309.8091011362856 498.86478275762715L1309.8091011362856 498.86478275762715Q1328.2080662181415 506.35348433480357 1334.3410545787601 513.1643293037012L1334.3410545787601 513.1643293037012Q1340.9259473448978 520.4270786781179 1340.9259473448978 530.4335333717588L1340.9259473448978 530.4335333717588Q1340.9259473448978 548.8002195675062 1321.397221249244 554.9332079281248L1321.397221249244 554.9332079281248Q1313.9085196720673 557.4186821584808 1305.0641048783332 557.4186821584808L1305.0641048783332 557.4186821584808Q1288.698709621314 557.1927299557212 1276.6909639889448 549.2521239730255L1276.6909639889448 549.2521239730255Q1276.6909639889448 555.1591601308845 1273.721306466961 556.062968941923L1273.721306466961 556.062968941923Q1272.3655932504032 556.2889211446827 1270.5579756283262 556.2889211446827L1270.5579756283262 556.2889211446827L1270.5579756283262 521.7827918946757L1276.9169161917046 521.7827918946757Q1277.3688205972237 551.0597415951025 1302.320399559109 551.2856937978622ZM1406.5166439174088 462.09913148002386L1406.5166439174088 462.09913148002386Q1422.3978558828003 462.09913148002386 1427.6270354323804 475.4948692150593L1427.6270354323804 475.4948692150593Q1429.4346530544576 479.82023995360083 1429.4346530544576 484.7911884143128L1429.4346530544576 484.7911884143128Q1429.4346530544576 496.1533563245115 1418.5243895497779 498.63883055486747L1418.5243895497779 498.63883055486747Q1412.875584480787 499.76859156866567 1402.4172253816268 499.54263936590604L1402.4172253816268 499.54263936590604L1378.3694552307802 498.86478275762715Q1379.4992162445783 472.7834427819437 1395.3804282099698 464.84283679924795L1395.3804282099698 464.84283679924795Q1400.6096077595498 462.09913148002386 1406.5166439174088 462.09913148002386ZM1445.9937216281278 533.370912007634L1445.9937216281278 533.370912007634L1440.3126376730283 531.3373421827973Q1432.3720316903327 548.5742673647466 1414.683202102864 550.8337893923429L1414.683202102864 550.8337893923429Q1412.3914011891593 551.0597415951025 1410.3578313643227 551.0597415951025L1410.3578313643227 551.0597415951025Q1386.5360134162356 551.0597415951025 1380.4030250556168 522.7188795918228L1380.4030250556168 522.7188795918228Q1378.59540743354 514.7459947230186 1378.3694552307802 505.2237233210054L1378.3694552307802 505.2237233210054L1405.6128351063703 505.6756277265247Q1433.2758405013715 506.12753213204394 1441.2164464840669 500.44644817694456L1441.2164464840669 500.44644817694456Q1447.3494348446857 495.92740412175186 1447.3494348446857 487.53489373353693L1447.3494348446857 487.53489373353693Q1447.3494348446857 472.10558617366473 1431.6941750820538 463.0029402910624L1431.6941750820538 463.0029402910624Q1420.5902382607233 456.4180475249245 1406.0647395118895 456.4180475249245L1406.0647395118895 456.4180475249245Q1377.6915986225013 456.4180475249245 1365.425621901264 480.04619215636046L1365.425621901264 480.04619215636046Q1359.0666813378857 492.2798899914892 1359.0666813378857 507.7091975513614L1359.0666813378857 507.7091975513614Q1359.0666813378857 535.85638623799 1379.2732640418185 549.4780761757852L1379.2732640418185 549.4780761757852Q1391.3132885602963 557.4186821584808 1406.7425961201686 557.4186821584808L1406.7425961201686 557.4186821584808Q1431.2422706765344 557.4186821584808 1442.8303907894929 539.7298525710123L1442.8303907894929 539.7298525710123Q1444.63800841157 536.534242846269 1445.9937216281278 533.370912007634ZM1509.0989439702826 549.4780761757852L1509.0989439702826 549.4780761757852L1496.8329672490454 549.4780761757852L1496.8329672490454 407.644650614952L1462.7787424045578 407.644650614952L1462.7787424045578 413.2934556839429L1479.8219942698556 413.2934556839429L1479.8219942698556 535.85638623799Q1479.8219942698556 546.3147453371503 1473.9149581119968 548.348315161987L1473.9149581119968 548.348315161987Q1470.4933961844938 549.4780761757852 1462.7787424045578 549.4780761757852L1462.7787424045578 549.4780761757852L1462.7787424045578 555.1591601308845L1514.780027925382 555.1591601308845Q1514.780027925382 550.155932784064 1511.3584659978792 549.7040283785448L1511.3584659978792 549.7040283785448Q1510.4546571868404 549.4780761757852 1509.0989439702826 549.4780761757852ZM1577.401066975909 462.09913148002386L1577.401066975909 462.09913148002386Q1593.2822789413005 462.09913148002386 1598.5114584908806 475.4948692150593L1598.5114584908806 475.4948692150593Q1600.3190761129576 479.82023995360083 1600.3190761129576 484.7911884143128L1600.3190761129576 484.7911884143128Q1600.3190761129576 496.1533563245115 1589.441091494387 498.63883055486747L1589.441091494387 498.63883055486747Q1583.7600075392875 499.76859156866567 1573.3339273262359 499.54263936590604L1573.3339273262359 499.54263936590604L1549.2538782892805 498.86478275762715Q1550.3836393030788 472.7834427819437 1566.2971301545786 464.84283679924795L1566.2971301545786 464.84283679924795Q1571.4940308180499 462.09913148002386 1577.401066975909 462.09913148002386ZM1616.9104235727368 533.370912007634L1616.9104235727368 533.370912007634L1611.2293396176372 531.3373421827973Q1603.2887336349413 548.5742673647466 1585.5676251613645 550.8337893923429L1585.5676251613645 550.8337893923429Q1583.308103133768 551.0597415951025 1581.2745333089315 551.0597415951025L1581.2745333089315 551.0597415951025Q1557.4204364747359 551.0597415951025 1551.3197270002256 522.7188795918228L1551.3197270002256 522.7188795918228Q1549.47983049204 514.7459947230186 1549.2538782892805 505.2237233210054L1549.2538782892805 505.2237233210054L1576.4972581648706 505.6756277265247Q1604.19254244598 506.12753213204394 1612.133148428676 500.44644817694456L1612.133148428676 500.44644817694456Q1618.2661367892943 495.92740412175186 1618.2661367892943 487.53489373353693L1618.2661367892943 487.53489373353693Q1618.2661367892943 472.10558617366473 1602.6108770266628 463.0029402910624L1602.6108770266628 463.0029402910624Q1591.4746613192233 456.4180475249245 1576.94916257039 456.4180475249245L1576.94916257039 456.4180475249245Q1548.5760216810017 456.4180475249245 1536.3423238458727 480.04619215636046L1536.3423238458727 480.04619215636046Q1529.9833832824945 492.2798899914892 1529.9833832824945 507.7091975513614L1529.9833832824945 507.7091975513614Q1529.9833832824945 535.85638623799 1550.157687100319 549.4780761757852L1550.157687100319 549.4780761757852Q1562.1977116187966 557.4186821584808 1577.627019178669 557.4186821584808L1577.627019178669 557.4186821584808Q1602.1589726211432 557.4186821584808 1613.7148138479934 539.7298525710123L1613.7148138479934 539.7298525710123Q1615.5224314700704 536.534242846269 1616.9104235727368 533.370912007634ZM1635.277109768484 507.93514975412097L1635.277109768484 507.93514975412097Q1635.277109768484 535.4044818324708 1655.483692472417 549.0261717702658L1655.483692472417 549.0261717702658Q1667.975621396414 557.4186821584808 1683.856833361805 557.4186821584808L1683.856833361805 557.4186821584808Q1707.4526991071327 557.4186821584808 1719.4927236256103 540.8596135848105L1719.4927236256103 540.8596135848105Q1722.204150058726 536.9861472517882 1723.7858154780433 533.1449598048745L1723.7858154780433 533.1449598048745L1717.9110582062929 531.1113899800378Q1709.4862689319693 549.0261717702658 1690.2157739251836 550.8337893923429L1690.2157739251836 550.8337893923429Q1688.3758774169978 551.0597415951025 1686.5682597949208 551.0597415951025L1686.5682597949208 551.0597415951025Q1670.4610956267697 551.0597415951025 1661.390728630276 534.9525774269515L1661.390728630276 534.9525774269515Q1654.5798836613785 522.7188795918228 1654.5798836613785 505.9015799292843L1654.5798836613785 505.9015799292843Q1654.5798836613785 476.17272582333817 1670.2351434240104 466.1985500158058L1670.2351434240104 466.1985500158058Q1676.8200361901481 462.09913148002386 1684.7606421728437 462.09913148002386L1684.7606421728437 462.09913148002386Q1697.0266188940811 462.09913148002386 1699.512093124437 471.621402882037L1699.512093124437 471.621402882037Q1699.9639975299563 473.46129939022256 1700.6418541382354 477.30248683713637L1700.6418541382354 477.30248683713637Q1701.9975673547929 486.40513271973873 1705.6450814850557 488.6646547473351L1705.6450814850557 488.6646547473351Q1707.904603512652 489.7944157611332 1710.648308831876 490.0203679638929L1710.648308831876 490.0203679638929Q1718.3629626118122 490.47227236941217 1720.396532436649 483.66142740051464L1720.396532436649 483.66142740051464Q1720.8484368421682 482.0797619811972 1720.8484368421682 480.7240487646394L1720.8484368421682 480.7240487646394Q1720.8484368421682 469.135928651681 1706.096985890575 461.64722707450454L1706.096985890575 461.64722707450454Q1695.638626791415 456.4180475249245 1683.4049289562859 456.4180475249245L1683.4049289562859 456.4180475249245Q1652.9982182420608 456.4180475249245 1640.9581937235835 481.17595317015866L1640.9581937235835 481.17595317015866Q1635.277109768484 492.95774659976814 1635.277109768484 507.93514975412097ZM1729.4668994331428 458.7098484386293L1729.4668994331428 464.35865350762015L1745.348111398534 464.35865350762015L1745.348111398534 528.3676846608137Q1746.9620557039602 556.740825550202 1771.4617302603265 557.6446343612405L1771.4617302603265 557.6446343612405Q1792.3461695725382 557.6446343612405 1797.575349122118 532.0151987910763L1797.575349122118 532.0151987910763Q1797.575349122118 531.7892465883167 1797.575349122118 531.563294385557L1797.575349122118 531.563294385557L1791.4423607614995 530.4335333717588Q1785.7612768064005 549.2521239730255 1774.8510133017207 550.8337893923429L1774.8510133017207 550.8337893923429Q1762.6173154665921 550.3818849868237 1762.3913632638323 533.370912007634L1762.3913632638323 533.370912007634L1762.3913632638323 464.35865350762015L1797.575349122118 464.35865350762015L1797.575349122118 458.7098484386293L1762.3913632638323 458.7098484386293L1762.3913632638323 432.3702773740777L1745.348111398534 437.1475525181385L1745.348111398534 458.7098484386293L1729.4668994331428 458.7098484386293ZM1833.1789604998148 544.7330799178328L1833.1789604998148 544.7330799178328Q1833.1789604998148 537.2443783406563 1826.3681155309173 534.048768615913L1826.3681155309173 534.048768615913Q1824.1085935033211 532.9190076021148 1821.6231192729647 532.9190076021148L1821.6231192729647 532.9190076021148Q1814.1344176957887 532.9190076021148 1811.1647601738046 539.7298525710123L1811.1647601738046 539.7298525710123Q1810.0349991600065 542.2153268013683 1810.0349991600065 544.7330799178328L1810.0349991600065 544.7330799178328Q1810.0349991600065 551.9958292922497 1816.6198919261442 555.1591601308845L1816.6198919261442 555.1591601308845Q1819.1053661565006 556.2889211446827 1821.6231192729647 556.2889211446827L1821.6231192729647 556.2889211446827Q1828.8858686473818 556.2889211446827 1832.0491994860167 549.7040283785448L1832.0491994860167 549.7040283785448Q1833.1789604998148 547.2185541481888 1833.1789604998148 544.7330799178328ZM1902.1912189998288 549.4780761757852L1902.1912189998288 549.4780761757852L1885.858102628918 549.4780761757852L1885.858102628918 504.31991450996685Q1885.858102628918 483.66142740051464 1898.5437048695662 471.1694984765177L1898.5437048695662 471.1694984765177Q1903.5469322163863 466.4245022185654 1906.9684941438895 466.1985500158058L1906.9684941438895 466.1985500158058Q1910.8096815908034 466.1985500158058 1914.0052913155464 471.87963397090516L1914.0052913155464 471.87963397090516Q1917.620526559701 478.2062956481749 1920.7838573983358 479.14238334532195L1920.7838573983358 479.14238334532195Q1922.1718495010023 479.5942877508412 1923.5275627175597 479.5942877508412L1923.5275627175597 479.5942877508412Q1930.3384076864572 479.5942877508412 1932.1460253085343 473.0093949847033L1932.1460253085343 473.0093949847033Q1932.5979297140539 471.621402882037 1932.5979297140539 470.26568966547916L1932.5979297140539 470.26568966547916Q1932.5979297140539 460.06556165518714 1922.1718495010023 457.8060396275908L1922.1718495010023 457.8060396275908Q1919.880048587297 457.35413522207153 1917.8464787624603 457.35413522207153L1917.8464787624603 457.35413522207153Q1904.2247888246652 457.35413522207153 1893.5727564088543 468.9099764489214L1893.5727564088543 468.9099764489214Q1888.5695290620338 474.3651082012611 1885.6321504261587 481.17595317015866L1885.6321504261587 481.17595317015866L1884.72834161512 458.7098484386293L1851.8038777844304 458.7098484386293L1851.8038777844304 464.35865350762015L1868.8148507636197 464.35865350762015L1868.8148507636197 535.85638623799Q1868.8148507636197 546.3147453371503 1862.9400934918694 548.348315161987L1862.9400934918694 548.348315161987Q1859.5185315643662 549.4780761757852 1851.8038777844304 549.4780761757852L1851.8038777844304 549.4780761757852L1851.8038777844304 555.1591601308845L1907.8723029549283 555.1591601308845Q1907.8723029549283 550.155932784064 1904.450741027425 549.7040283785448L1904.450741027425 549.7040283785448Q1903.5469322163863 549.4780761757852 1902.1912189998288 549.4780761757852ZM2050.6095373267995 549.4780761757852L2050.6095373267995 549.4780761757852L2039.2796483027096 549.4780761757852L2039.2796483027096 458.7098484386293L2003.6437580389047 458.7098484386293L2003.6437580389047 464.35865350762015L2022.2363964374113 464.35865350762015L2022.2363964374113 513.3902815064607Q2022.2363964374113 533.8228164131533 2007.9368498913373 543.3450878151665L2007.9368498913373 543.3450878151665Q2001.6101882140674 547.670458553708 1994.7993432451703 547.670458553708L1994.7993432451703 547.670458553708Q1976.1744259605543 547.670458553708 1973.2370473246792 528.5936368635732L1973.2370473246792 528.5936368635732Q1972.78514291916 525.4303060249383 1972.78514291916 521.7827918946757L1972.78514291916 521.7827918946757L1972.78514291916 458.7098484386293L1938.2790136691533 458.7098484386293L1938.2790136691533 464.35865350762015L1955.7418910538618 464.35865350762015L1955.7418910538618 518.3935088532812Q1955.9678432566216 557.1927299557212 1988.2144504790322 557.4186821584808L1988.2144504790322 557.4186821584808Q2005.2254234582215 557.4186821584808 2016.1356869629012 543.5710400179262L2016.1356869629012 543.5710400179262Q2020.2028266125749 538.3741393544545 2022.720579729039 532.0151987910763L2022.720579729039 532.0151987910763L2024.3022451483566 555.1591601308845L2056.290621281899 555.1591601308845Q2056.290621281899 550.155932784064 2052.9013382405046 549.7040283785448L2052.9013382405046 549.7040283785448Q2051.997529429466 549.4780761757852 2050.6095373267995 549.4780761757852Z " fill="#ffffff" transform="matrix(0.4255235154724962,0,0,0.4255235154724962,0,94.62333568075209)"/></g></svg>