<?xml version="1.0" encoding="UTF-8"?> <svg xmlns="http://www.w3.org/2000/svg" width="80" height="80" viewBox="0 0 80 80" fill="none"><rect width="80" height="80" fill="#FF5A00"></rect><path d="M44.8236 44.169L48.0164 35.2394L51.2847 44.169H44.8236ZM45.947 31.609L38.0312 51.1494H42.335L43.8282 46.9627H52.3048L53.8349 51.1494H58L50.0843 31.609H45.947Z" fill="white"></path><path d="M24.9496 51.1149L18 51.1766L26.0713 59.2495C27.5645 60.7472 30.5154 61.9615 32.6218 61.9569L39.67 62L31.5016 53.8254C30.0084 52.3353 27.0606 51.1149 24.9496 51.1149Z" fill="white"></path><path d="M28.9044 51.2217L28.8998 39.6694C28.8998 37.5614 27.6763 34.609 26.1878 33.122L21.2275 28.2496V32.0865V39.6694C21.2275 41.7835 22.451 44.7236 23.9457 46.2152L28.9044 51.2217Z" fill="white"></path><path d="M39.7801 21.2712L39.72 14.3216L31.6487 22.3992C30.154 23.8892 28.9351 26.8401 28.9444 28.9481L28.9043 35.9932L37.0696 27.8232C38.5643 26.3285 39.7801 23.3869 39.7801 21.2712Z" fill="white"></path></svg> 