<?xml version="1.0" encoding="UTF-8"?> <svg xmlns="http://www.w3.org/2000/svg" width="80" height="80" viewBox="0 0 80 80" fill="none"><rect width="80" height="80" fill="white"></rect><path d="M31 4.54546V79.182L49.1818 68.5456V4.54546L40.0909 0L31 4.54546Z" fill="#006263"></path><path d="M11 21.3631V79.9995L29.1818 69.9997V5.4541L16.9091 14.545V18.1813C12.9091 17.8176 11.303 20.151 11 21.3631Z" fill="#006263"></path><path d="M69.1816 21.3631V67.9544L50.9998 77.9999V5.4541L63.2725 14.545V18.1813C67.2725 17.8176 68.8786 20.151 69.1816 21.3631Z" fill="#006263"></path><path d="M39.3633 75.6363L69.1815 59.0908V62.7272L39.3633 79.2727V75.6363Z" fill="white"></path><path d="M29.9092 71.4092L69.182 50V53.6364L29.9092 75.0456V71.4092Z" fill="white"></path><path d="M11 73.6366L69.1819 41.8184V45.4547L11 77.273V73.6366Z" fill="white"></path><path d="M11 66.3632L69.1819 34.5449V37.2722L11 69.0904V66.3632Z" fill="white"></path><path d="M11 60.9091L69.1819 29.0908V30.909L11 62.7272V60.9091Z" fill="white"></path><path d="M11 56.3641L69.1819 24.5459V25.455L11 57.2732V56.3641Z" fill="white"></path></svg> 