<?xml version="1.0" encoding="UTF-8"?> <svg xmlns="http://www.w3.org/2000/svg" width="80" height="80" viewBox="0 0 80 80" fill="none"><rect width="80" height="80" fill="#F5F8FA"></rect><path d="M22.1499 47.0977H13.1606L11.4517 52.2246H6L15.2627 27.3418H20.0137L29.3276 52.2246H23.876L22.1499 47.0977ZM14.5449 42.9448H20.7656L17.6382 33.6309L14.5449 42.9448Z" fill="#E1003C"></path><path d="M35.6338 43.9531C35.7819 45.5596 36.2547 46.716 37.0522 47.4224C37.8498 48.1174 39.0062 48.4648 40.5215 48.4648C42.1963 48.4648 43.4382 47.9123 44.2471 46.8071C45.056 45.6906 45.5231 44.0443 45.6484 41.8682H37.7871V37.7153H45.6313C45.4946 35.4937 44.9933 33.8473 44.1274 32.7764C43.2729 31.694 42.0482 31.1528 40.4531 31.1528C38.9036 31.1528 37.7415 31.5231 36.9668 32.2637C36.1921 32.9928 35.742 34.172 35.6167 35.8013H30.4897C30.7404 33.0783 31.7316 30.9307 33.4634 29.3584C35.2065 27.7861 37.5365 27 40.4531 27C42.5267 27 44.3439 27.4899 45.9048 28.4697C47.4771 29.4382 48.6847 30.8338 49.5278 32.6567C50.3709 34.4683 50.7925 36.5817 50.7925 38.9971V40.6206C50.7925 44.2892 49.8753 47.2002 48.041 49.3535C46.2181 51.4954 43.7116 52.5664 40.5215 52.5664C37.582 52.5664 35.2236 51.7917 33.4463 50.2422C31.6803 48.6813 30.7005 46.585 30.5068 43.9531H35.6338Z" fill="#E1003C"></path><path d="M70.6509 31.4946H59.5425V36.314H63.5415C66.4696 36.314 68.7881 37.026 70.4971 38.4502C72.2174 39.863 73.0776 41.7713 73.0776 44.1753C73.0776 46.5907 72.2231 48.5332 70.5142 50.0029C68.8166 51.4613 66.555 52.2018 63.7295 52.2246H54.3643V27.3418H70.6509V31.4946ZM59.5425 40.4497V48.106H63.627C64.9372 48.106 65.9797 47.7471 66.7544 47.0293C67.5405 46.3115 67.9336 45.3488 67.9336 44.1411C67.9336 43.0132 67.5576 42.1245 66.8057 41.4751C66.0651 40.8143 65.0454 40.4725 63.7466 40.4497H59.5425Z" fill="#E1003C"></path></svg> 