<?xml version="1.0" encoding="UTF-8"?> <svg xmlns="http://www.w3.org/2000/svg" width="80" height="80" viewBox="0 0 80 80" fill="none"><rect width="80" height="80" fill="#0061AF"></rect><path d="M21.8027 34.3262H17.8101L17.1128 36.584H14L18.4326 24.498H21.1719L25.6377 36.584H22.5083L21.8027 34.3262ZM18.5073 32.0767H21.1055L19.8022 27.8848L18.5073 32.0767Z" fill="white"></path><path d="M38.5438 24.498V36.584H35.6302V26.7476H32.9158L32.7166 30.8066C32.6336 32.2067 32.4399 33.3245 32.1355 34.1602C31.8312 34.9958 31.3968 35.6073 30.8323 35.9946C30.2734 36.3765 29.5097 36.5729 28.5413 36.584H27.761V34.3428L28.1678 34.3013C28.7488 34.2183 29.1694 33.8641 29.4295 33.2388C29.6896 32.6079 29.8584 31.5482 29.9358 30.0596L30.1434 24.498H38.5438Z" fill="white"></path><path d="M49.5572 31.4624H44.9752V34.3428H50.3873V36.584H42.0616V24.498H50.4039V26.7476H44.9752V29.2959H49.5572V31.4624Z" fill="white"></path><path d="M60.911 25.5273C62.4826 25.5273 63.7333 25.9977 64.663 26.9385C65.5982 27.8737 66.0658 29.0994 66.0658 30.6157C66.0658 31.3573 65.9413 32.0324 65.6923 32.6411C65.4488 33.2443 65.1057 33.759 64.663 34.1851C63.7278 35.0981 62.4771 35.5547 60.911 35.5547V37.082H58.1054V35.5547C56.5172 35.5547 55.2554 35.0981 54.3202 34.1851C53.385 33.272 52.9174 32.0877 52.9174 30.6323C52.9174 29.8631 53.0419 29.1659 53.2909 28.5405C53.5399 27.9152 53.8886 27.3812 54.3368 26.9385C55.2776 25.9977 56.5338 25.5273 58.1054 25.5273V24H60.911V25.5273ZM57.9975 27.8682C57.2725 27.8682 56.6998 28.1117 56.2792 28.5986C55.8642 29.0856 55.6566 29.7635 55.6566 30.6323C55.6566 31.4292 55.8669 32.0601 56.2875 32.5249C56.7081 32.9842 57.314 33.2139 58.1054 33.2139V27.8682H57.9975ZM60.911 27.8682V33.2139H61.0355C61.7273 33.2139 62.2807 32.987 62.6957 32.5332C63.1163 32.0739 63.3266 31.4347 63.3266 30.6157C63.3266 29.7635 63.1218 29.0939 62.7123 28.6069C62.3083 28.1144 61.7079 27.8682 60.911 27.8682Z" fill="white"></path><path d="M24.2598 45.7476H19.022V47.6567H20.5244C21.4818 47.6567 22.3285 47.82 23.0645 48.1465C23.8005 48.473 24.3649 48.9351 24.7578 49.5327C25.1562 50.1248 25.3555 50.8055 25.3555 51.5747C25.3555 52.7645 24.9128 53.7301 24.0273 54.4717C23.1475 55.2132 21.9632 55.584 20.4746 55.584H16.0918V43.498H24.2598V45.7476ZM19.022 49.8979V53.3428H20.5161C21.1082 53.3428 21.5758 53.1768 21.9189 52.8447C22.2676 52.5127 22.4419 52.0838 22.4419 51.5581C22.4419 51.0601 22.2703 50.6589 21.9272 50.3545C21.5841 50.0501 21.1082 49.8979 20.4995 49.8979H19.022Z" fill="white"></path><path d="M35.2815 53.3262H31.2889L30.5916 55.584H27.4788L31.9114 43.498H34.6507L39.1165 55.584H35.9871L35.2815 53.3262ZM31.9861 51.0767H34.5843L33.2811 46.8848L31.9861 51.0767Z" fill="white"></path><path d="M51.8067 55.584H48.9098V50.5371H44.6183V55.584H41.7047V43.498H44.6183V48.2959H48.9098V43.498H51.8067V55.584Z" fill="white"></path><path d="M59.6327 50.8027H58.2548V55.584H55.3412V43.498H58.2548V48.1714H59.3754L61.6996 43.498H65.2274L61.9071 49.0762L65.6425 55.584H62.1977L59.6327 50.8027Z" fill="white"></path></svg> 