<?xml version="1.0" encoding="UTF-8"?> <svg xmlns="http://www.w3.org/2000/svg" width="80" height="80" viewBox="0 0 80 80" fill="none"><rect width="80" height="80" fill="white"></rect><path d="M40.0671 79.9996C62.1216 79.9996 80.0003 62.091 80.0003 39.9998C80.0003 17.9085 62.1216 0 40.0671 0C18.0125 0 0.133789 17.9085 0.133789 39.9998C0.133789 62.091 18.0125 79.9996 40.0671 79.9996Z" fill="url(#paint0_linear)"></path><path d="M13.5885 13.4787C-0.962854 28.0543 -0.829965 51.7148 13.7214 66.2904C28.2396 80.9659 51.9936 80.9659 66.4121 66.5234C80.9635 51.9477 80.8306 28.2873 66.2792 13.7117C51.761 -0.963791 28.007 -0.963791 13.5885 13.4787ZM68.6712 61.2655C72.3589 54.4436 71.2958 45.7248 65.5815 40.001C58.9038 33.3122 48.173 32.9462 41.1299 39.1691C40.8973 39.402 39.7013 40.4669 39.4687 40.833C32.4256 46.9228 21.8277 46.6899 15.0171 39.8679C8.10685 32.9462 7.97396 21.7316 14.7845 14.8098C11.3294 18.2707 8.70485 22.3306 7.04373 26.4903C8.70485 22.1975 11.3294 18.2707 14.7845 14.8098C28.605 0.933037 51.163 0.933037 65.0832 14.9097C77.7409 27.5885 78.9369 47.2888 68.6712 61.2655Z" fill="#433A31"></path><path d="M47.9406 47.6536C45.1831 50.3823 45.1831 54.8083 48.0402 57.5703C50.7977 60.4322 55.2163 60.4322 57.9405 57.6702C60.6979 54.9414 60.6979 50.3823 57.9405 47.6536C55.2163 44.8915 50.6648 44.8915 47.9406 47.6536Z" fill="#D0B650"></path><path d="M22.0613 21.7312C19.3038 24.46 19.3038 28.8859 22.0613 31.648C24.7855 34.3767 29.337 34.3767 32.0612 31.648C34.8186 28.8859 34.8186 24.46 32.0612 21.7312C29.2041 18.9692 24.7855 18.8693 22.0613 21.7312Z" fill="#433A31"></path><defs><linearGradient id="paint0_linear" x1="74.519" y1="59.9448" x2="5.30678" y2="20.0351" gradientUnits="userSpaceOnUse"><stop stop-color="#A1742B"></stop><stop offset="0.521569" stop-color="#EADC66"></stop><stop offset="1" stop-color="#A1742B"></stop></linearGradient></defs></svg> 