<?xml version="1.0" encoding="UTF-8"?> <svg xmlns="http://www.w3.org/2000/svg" width="80" height="80" viewBox="0 0 80 80" fill="none"><rect width="80" height="80" fill="#F5F8FA"></rect><path d="M41.6687 16.8213C40.8034 16.8213 40.3089 16.8213 39.8145 16.9449C42.2868 17.563 43.0285 18.6756 44.2647 20.6535L54.7723 36.2294L58.6044 32.7681L51.311 21.6424C48.715 17.8102 44.5119 16.8213 41.6687 16.8213Z" fill="#216B36"></path><path d="M40.0614 12C24.4855 12 12 24.4855 12 39.9377C12 55.39 24.4855 67.9991 39.9377 67.9991C55.39 67.9991 67.9991 55.5137 67.9991 40.0614C68.1227 24.7327 55.39 12 40.0614 12ZM65.1559 42.5337L59.9639 34.7458L44.388 48.8383C38.8252 53.9066 31.6553 61.8182 26.8342 53.0413C23.6201 47.2312 24.3618 37.2181 28.194 32.2734C30.6664 29.3066 34.2513 29.3066 36.6 32.7679L45.1297 45.5006L48.9619 42.0393L43.1518 33.1387C40.185 28.8121 36.4764 26.9578 32.7679 26.9578C29.5538 26.8342 26.7106 27.9468 24.2382 29.9247C16.9447 35.7347 16.5739 48.3438 22.3839 55.5137C29.0593 63.6725 38.5779 61.0765 45.7478 54.6483L59.0986 42.6573L63.5488 49.4564C63.4252 49.8272 63.178 50.1981 63.0544 50.6925L59.4694 45.2533L55.5136 48.9619L60.0875 55.7609C59.7167 56.2554 59.3458 56.6262 58.975 57.1207L54.1539 49.8272L50.3217 53.5358L55.1428 60.7056C50.9398 63.9197 45.6242 65.774 39.9377 65.774C26.0925 65.6504 14.7196 54.2775 14.7196 40.4322C14.7196 26.3397 26.0925 15.2141 40.0614 15.2141C54.0302 15.2141 65.2795 26.587 65.2795 40.5558C65.2795 41.0503 65.1559 41.792 65.1559 42.5337Z" fill="#216B36"></path><path d="M35.9814 17.5625C34.0035 17.5625 32.0256 18.057 30.2949 19.0459C33.2618 18.6751 35.8577 19.9112 37.8356 22.7545L50.0739 40.9264L53.906 37.4651L42.904 20.9002C41.1733 18.3042 38.701 17.5625 35.9814 17.5625Z" fill="#216B36"></path></svg> 