<?xml version="1.0" encoding="UTF-8"?> <svg xmlns="http://www.w3.org/2000/svg" width="80" height="80" viewBox="0 0 80 80" fill="none"><rect x="0.000976562" width="80" height="80" fill="white"></rect><path d="M57.3816 24.5762C57.3816 24.5762 34.634 24.5762 29.011 24.5762L22.749 35.4562C22.749 35.4562 48.6915 35.4562 51.1196 35.4562L57.3816 24.5762Z" fill="url(#paint0_radial)"></path><path d="M57.3816 46.21C57.3816 46.21 34.634 46.21 29.011 46.21L22.749 57.09C22.749 57.09 48.6915 57.09 51.1196 57.09L57.3816 46.21Z" fill="url(#paint1_radial)"></path><path d="M0 0V66.688V80H13.2907H80V13.312V4.48V0H0ZM66.7093 66.688H13.2907V13.312H66.7093V66.688V66.688Z" fill="url(#paint2_radial)"></path><defs><radialGradient id="paint0_radial" cx="0" cy="0" r="1" gradientUnits="userSpaceOnUse" gradientTransform="translate(-21.508 -19.8685) scale(162.057 162.316)"><stop stop-color="#0093D8"></stop><stop offset="0.2761" stop-color="#006CB7"></stop><stop offset="1" stop-color="#1B1464"></stop></radialGradient><radialGradient id="paint1_radial" cx="0" cy="0" r="1" gradientUnits="userSpaceOnUse" gradientTransform="translate(-21.508 -19.8638) scale(162.055 162.314)"><stop stop-color="#0093D8"></stop><stop offset="0.2761" stop-color="#006CB7"></stop><stop offset="1" stop-color="#1B1464"></stop></radialGradient><radialGradient id="paint2_radial" cx="0" cy="0" r="1" gradientUnits="userSpaceOnUse" gradientTransform="translate(-21.5114 -19.8642) scale(162.056 162.316)"><stop stop-color="#0093D8"></stop><stop offset="0.2761" stop-color="#006CB7"></stop><stop offset="1" stop-color="#1B1464"></stop></radialGradient></defs></svg> 