<?xml version="1.0" encoding="UTF-8"?> <svg xmlns="http://www.w3.org/2000/svg" width="80" height="80" viewBox="0 0 80 80" fill="none"><rect width="80" height="80" fill="#F5F8FA"></rect><path d="M34.5505 36.6714C35.3092 36.5955 36.2385 36.5197 37.3385 36.4438C38.4765 36.33 39.4817 36.2731 40.3542 36.2731C42.4405 36.2731 44.432 36.4817 46.3286 36.899C48.2632 37.2783 49.9701 37.9232 51.4495 38.8336C52.9289 39.744 54.1048 40.9578 54.9772 42.4751C55.8497 43.9545 56.2859 45.7942 56.2859 47.9943C56.2859 50.0806 55.8307 51.8824 54.9203 53.3997C54.01 54.8791 52.7771 56.1119 51.2219 57.0982C49.6667 58.0844 47.8649 58.8241 45.8165 59.3172C43.8061 59.7724 41.6629 60 39.3869 60C39.1593 60 38.7231 59.981 38.0782 59.9431C37.4334 59.9431 36.6937 59.9241 35.8592 59.8862C35.0626 59.8862 34.2281 59.8672 33.3556 59.8293C32.4832 59.8293 31.7245 59.8293 31.0797 59.8293H23V56.643H28.1778V23.1863H23V20H53.5548V30.4125H49.458V24.4381L48.3201 23.1863H34.5505V36.6714ZM38.8748 39.4595C37.8886 39.4595 37.0541 39.4784 36.3713 39.5164C35.6885 39.5543 35.0816 39.6491 34.5505 39.8009V56.5292C34.7402 56.605 35.0436 56.6619 35.4609 56.6999C35.8781 56.6999 36.3144 56.7188 36.7696 56.7568C37.2248 56.7947 37.661 56.8137 38.0782 56.8137C38.4955 56.8137 38.8179 56.8137 39.0455 56.8137C40.5249 56.8137 41.8715 56.643 43.0853 56.3016C44.3371 55.9602 45.3992 55.4291 46.2717 54.7084C47.1821 53.9497 47.8838 53.0204 48.377 51.9203C48.908 50.8203 49.1735 49.4927 49.1735 47.9374C49.1735 45.1683 48.3201 43.0631 46.6131 41.6216C44.9061 40.1802 42.3267 39.4595 38.8748 39.4595Z" fill="#004281"></path></svg> 