<?xml version="1.0" encoding="UTF-8"?> <svg xmlns="http://www.w3.org/2000/svg" width="80" height="80" viewBox="0 0 80 80" fill="none"><rect width="80" height="80" fill="white"></rect><circle cx="40" cy="40" r="40" fill="#A83041"></circle><circle cx="40" cy="40" r="33" fill="#FEFEFE"></circle><circle cx="40" cy="40" r="26" fill="#A83041"></circle><path d="M50.0889 53.0127C49.4248 53.0127 48.8633 52.9053 48.4043 52.6904C47.9551 52.4756 47.6133 52.1777 47.3789 51.7969C47.1543 51.4258 47.042 51.0059 47.042 50.5371C47.042 50.0391 47.1494 49.541 47.3643 49.043C47.667 49.4336 47.9795 49.7119 48.3018 49.8779C48.6338 50.0439 48.9902 50.127 49.3711 50.127C49.8984 50.127 50.3525 49.9707 50.7334 49.6582C51.1143 49.3359 51.4316 48.9014 51.6855 48.3545C51.9102 47.8662 52.0762 47.3193 52.1836 46.7139C52.291 46.0986 52.3447 45.4883 52.3447 44.8828C52.3447 43.7305 52.1445 42.8564 51.7441 42.2607C51.2656 41.5479 50.5137 41.1914 49.4883 41.1914C48.9316 41.1914 48.4531 41.2891 48.0527 41.4844L45.6797 52.5H41.3584L45.6797 32.4609C45.0645 32.4805 44.5225 32.5977 44.0537 32.8125C43.5947 33.0176 43.1992 33.3447 42.8672 33.7939C42.1445 34.7803 41.7832 36.4062 41.7832 38.6719C41.7832 39.3164 41.8564 39.8145 42.0029 40.166C42.042 40.293 42.0908 40.4053 42.1494 40.5029C42.1885 40.5713 42.208 40.6396 42.208 40.708C41.1338 40.708 40.3379 40.4932 39.8203 40.0635C39.2734 39.6045 39 38.8477 39 37.793C39 36.7578 39.1904 35.7764 39.5713 34.8486C39.9619 33.9209 40.5527 33.1055 41.3438 32.4023C42.1934 31.6406 43.2725 31.0498 44.5811 30.6299C45.8896 30.21 47.4375 30 49.2246 30C49.5762 30 49.9521 30.0195 50.3525 30.0586L51.0703 30.1172C52.457 30.2344 53.248 30.2979 53.4434 30.3076C53.9512 30.3467 54.5029 30.3662 55.0986 30.3662C56.1436 30.3662 57.0469 30.2441 57.8086 30C57.7891 30.0879 57.75 30.2881 57.6914 30.6006C57.6426 30.9131 57.5742 31.2158 57.4863 31.5088C57.4082 31.792 57.3105 32.0459 57.1934 32.2705C56.7441 33.1592 55.9971 33.6035 54.9521 33.6035C53.4678 33.6035 51.7783 33.4033 49.8838 33.0029L48.3896 39.9609C48.9951 39.7754 49.5322 39.6387 50.001 39.5508C50.4697 39.4629 50.9482 39.4189 51.4365 39.4189C53.1162 39.4189 54.4004 39.9414 55.2891 40.9863C55.6992 41.4844 56.0068 42.0703 56.2119 42.7441C56.417 43.418 56.5195 44.1602 56.5195 44.9707C56.5195 45.4883 56.4658 46.0449 56.3584 46.6406C56.251 47.2266 56.0898 47.8076 55.875 48.3838C55.6504 48.999 55.3623 49.585 55.0107 50.1416C54.6592 50.6885 54.2539 51.1719 53.7949 51.5918C52.75 52.5391 51.5146 53.0127 50.0889 53.0127Z" fill="white"></path><path d="M34.0889 49.0127C33.4248 49.0127 32.8633 48.9053 32.4043 48.6904C31.9551 48.4756 31.6133 48.1777 31.3789 47.7969C31.1543 47.4258 31.042 47.0059 31.042 46.5371C31.042 46.0391 31.1494 45.541 31.3643 45.043C31.667 45.4336 31.9795 45.7119 32.3018 45.8779C32.6338 46.0439 32.9902 46.127 33.3711 46.127C33.8984 46.127 34.3525 45.9707 34.7334 45.6582C35.1143 45.3359 35.4316 44.9014 35.6855 44.3545C35.9102 43.8662 36.0762 43.3193 36.1836 42.7139C36.291 42.0986 36.3447 41.4883 36.3447 40.8828C36.3447 39.7305 36.1445 38.8564 35.7441 38.2607C35.2656 37.5479 34.5137 37.1914 33.4883 37.1914C32.9316 37.1914 32.4531 37.2891 32.0527 37.4844L29.6797 48.5H25.3584L29.6797 28.4609C29.0645 28.4805 28.5225 28.5977 28.0537 28.8125C27.5947 29.0176 27.1992 29.3447 26.8672 29.7939C26.1445 30.7803 25.7832 32.4062 25.7832 34.6719C25.7832 35.3164 25.8564 35.8145 26.0029 36.166C26.042 36.293 26.0908 36.4053 26.1494 36.5029C26.1885 36.5713 26.208 36.6396 26.208 36.708C25.1338 36.708 24.3379 36.4932 23.8203 36.0635C23.2734 35.6045 23 34.8477 23 33.793C23 32.7578 23.1904 31.7764 23.5713 30.8486C23.9619 29.9209 24.5527 29.1055 25.3438 28.4023C26.1934 27.6406 27.2725 27.0498 28.5811 26.6299C29.8896 26.21 31.4375 26 33.2246 26C33.5762 26 33.9521 26.0195 34.3525 26.0586L35.0703 26.1172C36.457 26.2344 37.248 26.2979 37.4434 26.3076C37.9512 26.3467 38.5029 26.3662 39.0986 26.3662C40.1436 26.3662 41.0469 26.2441 41.8086 26C41.7891 26.0879 41.75 26.2881 41.6914 26.6006C41.6426 26.9131 41.5742 27.2158 41.4863 27.5088C41.4082 27.792 41.3105 28.0459 41.1934 28.2705C40.7441 29.1592 39.9971 29.6035 38.9521 29.6035C37.4678 29.6035 35.7783 29.4033 33.8838 29.0029L32.3896 35.9609C32.9951 35.7754 33.5322 35.6387 34.001 35.5508C34.4697 35.4629 34.9482 35.4189 35.4365 35.4189C37.1162 35.4189 38.4004 35.9414 39.2891 36.9863C39.6992 37.4844 40.0068 38.0703 40.2119 38.7441C40.417 39.418 40.5195 40.1602 40.5195 40.9707C40.5195 41.4883 40.4658 42.0449 40.3584 42.6406C40.251 43.2266 40.0898 43.8076 39.875 44.3838C39.6504 44.999 39.3623 45.585 39.0107 46.1416C38.6592 46.6885 38.2539 47.1719 37.7949 47.5918C36.75 48.5391 35.5146 49.0127 34.0889 49.0127Z" fill="white"></path><rect width="40" height="7" fill="#A83041"></rect><rect x="40" y="73" width="40" height="7" fill="#A83041"></rect></svg> 