<?xml version="1.0" encoding="UTF-8"?> <svg xmlns="http://www.w3.org/2000/svg" width="80" height="80" viewBox="0 0 80 80" fill="none"><rect width="80" height="80" fill="#F26A2C"></rect><path fill-rule="evenodd" clip-rule="evenodd" d="M15 15H64.998V65H15V15ZM17.8662 62.1338H62.1297V17.8683H17.8662V62.1338Z" fill="white"></path><path fill-rule="evenodd" clip-rule="evenodd" d="M59.7115 29.1158L59.6971 29.1035C59.3949 28.9247 58.9322 28.8198 58.6238 28.9555C56.65 28.7663 54.7646 28.7869 52.7681 28.8095H52.7085H52.6283C51.627 28.8218 50.5928 28.8342 49.5585 28.8157C41.1923 28.645 41.1923 28.645 41.1903 28.645C39.2329 28.5915 37.0801 28.606 34.9747 28.6861C33.4121 28.6985 31.8967 28.7396 30.3505 28.7848C28.7427 28.828 24.9019 28.8404 22.6073 28.8465C21.386 28.8506 20.7445 28.8527 20.6622 28.8568C20.3908 28.8712 20.0619 29.2495 20.0557 29.5538C20.0536 29.7245 20.1523 29.9198 20.4422 29.9486C20.6581 29.9691 22.046 29.9774 24.5668 29.9691L27.1431 29.9588C27.8277 29.9568 28.1485 29.9671 28.2965 29.9527H28.313C30.2066 29.7615 32.1085 29.7738 33.9466 29.7841H33.9713H34.0885C35.279 29.7903 36.5106 29.7964 37.7483 29.7471C38.0054 29.8067 38.2747 29.7532 38.5379 29.6998L38.577 29.6936C38.6941 29.671 38.8155 29.6484 38.9306 29.6381C39.2123 29.7203 39.5351 29.7162 39.8744 29.708C40.2033 29.7018 40.5364 29.6957 40.8407 29.7677L40.8428 29.7759L40.8942 29.7738V29.7656C41.1615 29.6751 41.4062 29.7224 41.6652 29.7738C41.6735 29.7759 41.7125 29.7841 41.7125 29.7841C41.8359 29.8067 41.951 29.8273 42.0641 29.8314C44.4553 29.7656 47.1015 29.8519 50.3995 30.1028C50.3954 30.1028 51.96 30.2714 51.96 30.2714V30.2735H51.9765C53.3644 30.1398 54.7975 30.2426 56.1833 30.3454C56.1894 30.3454 56.2203 30.3474 56.2203 30.3474C57.2627 30.4235 58.2476 30.4955 59.2242 30.477L59.2304 30.4873L59.288 30.4667V30.4544L59.804 30.0411L59.8061 30.0432L59.8287 30.0164L59.8267 30.0144C60.0076 29.7327 59.9521 29.342 59.7115 29.1158Z" fill="white"></path><path fill-rule="evenodd" clip-rule="evenodd" d="M45.8684 46.8937L45.9115 46.865V46.7642L45.8746 43.5074V43.4971L45.8725 43.4868C45.8149 42.9995 45.8026 42.4567 45.7903 41.8831C45.7759 41.2395 45.7615 40.5692 45.6751 39.9791C45.6587 39.1341 45.4921 38.2294 45.3297 37.3556L45.2207 36.7593L45.2104 36.7017L45.1693 36.6606C45.0377 36.529 44.9945 36.3645 44.9452 36.1753C44.902 36.015 44.8588 35.8505 44.7601 35.6963C44.5422 35.2974 44.1968 34.9108 43.8904 34.5695L43.874 34.551C43.7979 34.4482 43.7095 34.3927 43.6314 34.3413C43.5882 34.3125 43.543 34.2858 43.4957 34.2447L43.4257 34.183L43.3826 34.1932L43.3271 34.1481C43.0515 33.9281 42.7945 33.8437 42.4964 33.745L42.4902 33.743C42.4039 33.6196 42.2394 33.6011 42.1283 33.5991V33.5168L41.9741 33.4922L41.2484 33.3852L41.1414 33.3688L41.0756 33.4551C41.0489 33.4901 41.0427 33.5004 40.8906 33.4428C40.8207 33.4202 40.7446 33.3914 40.6603 33.3832L40.574 33.375L40.5328 33.4181C40.5102 33.4017 40.4835 33.3832 40.4506 33.3688L40.1504 33.2783L40.1257 33.4181C39.9921 33.4181 39.8769 33.4428 39.7803 33.4942H39.3033L38.8592 33.4962L38.9106 33.6669C38.9085 33.669 38.9065 33.6731 38.9023 33.6751C38.707 33.6258 38.559 33.745 38.4747 33.8129C38.4603 33.8252 38.4438 33.8396 38.4336 33.8478C38.2752 33.8745 38.1868 33.9383 38.1231 33.9877C38.0758 34.0226 38.0614 34.0349 38.0182 34.037L37.9442 34.0431L37.8969 34.1007C37.8291 34.1809 37.6214 34.2735 37.5083 34.3249L37.2657 34.4338L37.3191 34.4853C37.2801 34.5038 37.239 34.5284 37.204 34.5613H36.9676V34.7484C36.9573 34.7464 36.9491 34.7463 36.9408 34.7443L36.8092 34.6867C36.7989 34.6826 36.7147 34.7998 36.7147 34.7998C36.5707 35.0013 36.3836 35.1966 36.1862 35.4084C35.956 35.6531 35.7154 35.908 35.5324 36.1815L35.4769 36.2638L35.5139 36.348C35.4707 36.3748 35.3576 36.4447 35.3391 36.5783C35.2507 36.677 35.2281 36.8065 35.2137 36.8908C35.2096 36.9176 35.2055 36.9546 35.1993 36.9731C35.1027 37.0903 35.078 37.2054 35.0657 37.2959C35.0533 37.3658 35.0472 37.4028 35.0184 37.4398L34.9033 37.5878L34.9547 37.6269C34.9197 37.7153 34.9197 37.8078 34.9176 37.8634C34.9176 37.888 34.9176 37.9189 34.9135 37.9395L34.8374 37.9867L34.856 38.1039C34.8888 38.3342 34.858 38.546 34.8292 38.7701C34.7984 38.986 34.7696 39.2081 34.7943 39.4527C34.7059 39.5884 34.7264 39.7488 34.7429 39.8496C34.747 39.8845 34.7552 39.9318 34.7531 39.9524L34.636 40.0428L34.7203 40.1827C34.7819 40.2875 34.7326 40.4561 34.6853 40.6144C34.6401 40.7686 34.5866 40.9578 34.6421 41.1202C34.6277 41.1326 34.6133 41.149 34.601 41.1655C34.5804 41.1943 34.564 41.2395 34.5661 41.2991C34.5661 41.4246 34.5558 41.4615 34.5496 41.4718L34.4632 41.6507L34.4509 41.7185L34.6072 41.8275C34.5887 41.9344 34.601 42.0331 34.6133 42.1174C34.6318 42.2367 34.636 42.286 34.601 42.3313L34.5023 42.5081L34.5989 42.6232C34.5989 42.6335 34.5989 42.6438 34.5989 42.6541C34.5948 42.7343 34.5866 42.8741 34.6853 42.981C34.6874 43.0016 34.6915 43.02 34.6976 43.0385L34.5208 43.0838L34.636 43.3285C34.6339 43.347 34.6277 43.3717 34.6236 43.3881C34.6072 43.4621 34.5743 43.604 34.6483 43.7315C34.5928 43.8733 34.6277 44.0152 34.6504 44.1077C34.6565 44.1345 34.6668 44.1694 34.6689 44.1941C34.5003 44.3689 34.5825 44.6033 34.6277 44.7287C34.5496 44.8479 34.5681 44.9877 34.5846 45.0761L34.3584 45.1522L34.5887 45.3866C34.5784 45.4359 34.5763 45.5018 34.6154 45.5635C34.6421 45.6067 34.6771 45.6313 34.712 45.6477L34.6401 45.6703C34.6421 45.6786 34.6462 45.6848 34.6483 45.693L34.7306 45.9048L34.7264 45.9294C34.7079 46.0528 34.7367 46.1741 34.7963 46.2687C34.7758 46.2934 34.7634 46.3263 34.7593 46.3695L34.6689 46.4579L34.7573 46.5853C34.8251 46.6819 34.7984 46.8115 34.749 47.013C34.7038 47.1898 34.6483 47.4139 34.7511 47.6072L34.6236 47.7326L34.784 47.8498C34.7799 47.8601 34.7758 47.8683 34.7716 47.8745C34.7305 47.9506 34.6565 48.0904 34.749 48.2425L34.7408 48.2261C34.7758 48.298 34.7614 48.4193 34.7429 48.5427C34.7223 48.7277 34.6935 48.9499 34.7922 49.1699L34.7614 49.3898L34.7675 49.3631C34.7408 49.4495 34.7614 49.5194 34.7902 49.577L34.7203 49.6098L34.7696 49.762C34.819 49.9224 34.821 50.1197 34.821 50.3274C34.821 50.7181 34.8231 51.1642 35.1767 51.5014L35.2548 51.5754L35.3556 51.5446C35.6208 51.4665 35.6332 51.2012 35.6414 51.0614C35.6414 51.0306 35.6435 51.0018 35.6476 50.9792L35.6517 50.9381L35.6414 50.901C35.5345 50.5412 35.5797 50.0704 35.6188 49.653C35.6311 49.542 35.6414 49.4392 35.6476 49.3385L35.6517 49.2891L35.6291 49.2438C35.5571 49.0999 35.5756 48.954 35.5941 48.7895C35.6126 48.6394 35.6311 48.4708 35.5776 48.298C35.6393 47.5352 35.6023 46.6326 35.5715 45.8369C35.5591 45.4997 35.5448 45.181 35.5406 44.887V44.8788V44.8685C35.4954 44.4922 35.5057 44.0892 35.518 43.7006C35.5283 43.3491 35.5386 42.9872 35.5057 42.6541C35.5879 42.2737 35.5838 41.9262 35.5776 41.5582C35.5756 41.3916 35.5715 41.2189 35.5776 41.038L35.5797 40.9948L35.5674 40.9702C35.6496 40.8715 35.6681 40.7687 35.627 40.67C35.664 40.5302 35.6702 40.3965 35.6743 40.2772C35.6764 40.1827 35.6784 40.0942 35.699 40.0099L35.7092 39.9647L35.6969 39.9215C35.6764 39.8393 35.6969 39.7488 35.7195 39.6501C35.7462 39.5309 35.7771 39.389 35.7257 39.2471C35.8676 38.9613 35.8984 38.6118 35.9272 38.2705L35.9375 38.1553C35.9498 38.0813 35.9251 38.0114 35.8634 37.9498C35.8634 37.9436 35.8634 37.9395 35.8634 37.9395C35.8634 37.7894 35.9416 37.6681 36.0382 37.5139C36.1451 37.3453 36.2644 37.1582 36.2973 36.895L36.3014 36.8538L36.2993 36.8435C36.3117 36.8312 36.3261 36.8189 36.3404 36.8066C36.4062 36.7511 36.507 36.6668 36.5049 36.5311C36.5049 36.5064 36.5008 36.4838 36.4926 36.4612C36.618 36.3481 36.6962 36.2185 36.7661 36.0992C36.8689 35.9286 36.9429 35.8052 37.1444 35.7456L37.2431 35.7189L37.2698 35.6182C37.2986 35.5071 37.3973 35.4413 37.5515 35.3447C37.6687 35.2727 37.7962 35.1905 37.8949 35.0671C38.0244 35.0753 38.1046 35.0424 38.1498 34.991C38.3081 34.954 38.4315 34.8595 38.5302 34.7772C38.6967 34.6436 38.7502 34.6148 38.8653 34.6662L38.9805 34.7196L39.0524 34.6476C39.0565 34.6456 39.0648 34.6456 39.0668 34.6436C39.1182 34.6292 39.2107 34.6025 39.2642 34.5202C39.3115 34.5099 39.3588 34.4935 39.3937 34.4811C39.4883 34.4462 39.511 34.4441 39.5418 34.4605C39.5747 34.4811 39.6364 34.5038 39.7124 34.4853L39.7186 34.4996L39.8502 34.4832L40.025 34.4605C40.5472 34.3927 40.9996 34.3351 41.4067 34.5531L41.5526 34.6333L41.639 34.5037C41.6575 34.5222 41.6781 34.5449 41.6924 34.5634C41.7973 34.6806 41.9803 34.8821 42.2456 34.8368C42.3031 34.8882 42.3689 34.9273 42.4265 34.9623C42.4512 34.9746 42.48 34.9952 42.5026 35.0075V35.0157L42.5375 35.065C42.6218 35.174 42.7945 35.2275 42.9364 35.2336C43.2428 35.5544 43.5532 35.9964 43.5532 36.1897V36.3707H43.6869C43.6889 36.3748 43.6889 36.3769 43.691 36.381C43.7403 36.6195 43.8102 36.9155 43.9953 37.1088C43.9418 37.2301 43.9891 37.3781 44.0076 37.4398C44.0138 37.4583 44.022 37.4851 44.0261 37.5056L43.9809 37.6413L44.1001 37.7627L44.1269 37.777C44.1207 37.9004 44.1762 38.0176 44.2153 38.0999C44.2256 38.1204 44.2379 38.1471 44.2482 38.1698L44.2174 38.2355C44.0549 38.548 44.2729 38.7187 44.3777 38.803C44.3942 38.8153 44.4065 38.8256 44.4168 38.8339C44.3345 38.8956 44.3387 38.9613 44.3243 39.0724L44.3366 39.2101L44.3921 39.2985C44.3942 39.2985 44.3942 39.2985 44.3962 39.2985C44.3983 39.3026 44.4003 39.3109 44.4024 39.315C44.4086 39.3417 44.4229 39.3787 44.4456 39.4199L44.3839 39.4815L44.3407 39.646L44.4312 39.7756L44.5011 39.8105C44.5011 39.8845 44.5278 39.9503 44.5484 39.9935C44.5504 40.0017 44.5545 40.0099 44.5587 40.0202L44.5422 40.1025C44.4826 40.4006 44.4065 40.783 44.5915 41.0935C44.5874 41.0997 44.5813 41.1038 44.5772 41.11C44.4908 41.223 44.5134 41.3546 44.5278 41.4492C44.5319 41.4821 44.5422 41.5315 44.536 41.5479L44.4908 41.735C44.4908 41.7432 44.5504 41.7576 44.6039 41.77C44.5977 41.7905 44.5895 41.807 44.5854 41.8275L44.5463 42.0414H44.6183C44.608 42.1154 44.6039 42.1853 44.6018 42.249C44.5998 42.358 44.5957 42.4279 44.5566 42.4855L44.5422 42.5101L44.534 42.5389C44.4826 42.7363 44.5546 42.9193 44.6121 43.0673C44.6245 43.0982 44.6327 43.1229 44.645 43.1496C44.6121 43.1846 44.5813 43.2339 44.5874 43.3038C44.5874 43.3223 44.5936 43.3347 44.5977 43.347L44.5587 43.3881L44.5915 43.493C44.61 43.5526 44.6491 43.5916 44.6923 43.6142L44.6614 43.6225C44.6553 43.6246 44.6553 43.7623 44.6553 43.7623V43.8137L44.5422 43.8466L44.5998 43.9659C44.571 44.0193 44.5402 44.0975 44.571 44.1879L44.4929 44.3257C44.497 44.3216 44.5052 44.4079 44.5772 44.4429C44.5052 44.6896 44.6841 44.8705 44.791 44.9795C44.8362 45.0227 44.865 45.0577 44.8856 45.0844H44.7951L44.863 45.3167L44.865 45.3249C44.8486 45.3393 44.8342 45.3558 44.8177 45.3743L44.6697 45.4483L44.719 45.6498L44.7046 45.6971C44.6697 45.8019 44.6964 45.8739 44.7273 45.9171C44.7334 45.9253 44.7416 45.9294 44.7478 45.9376C44.6944 45.989 44.6327 46.0672 44.6203 46.1885L44.6039 46.3612L44.7416 46.3818C44.7314 46.4188 44.719 46.4537 44.7108 46.4887C44.6923 46.5504 44.6779 46.6079 44.6491 46.6491V46.6511C44.645 46.6594 44.6388 46.6655 44.6368 46.6737L44.8794 46.8094C44.8444 46.8732 44.8239 46.9369 44.8095 46.9842C44.8033 47.0109 44.7931 47.0418 44.7848 47.0582C44.7807 47.0582 44.7745 47.0582 44.7663 47.0582L44.5628 47.0603L44.573 47.2967C44.5854 47.3317 44.5895 47.3728 44.5936 47.4222C44.5977 47.4653 44.6039 47.5147 44.6183 47.5661V47.8005C44.6183 47.8313 44.6183 47.8806 44.6286 47.932L44.6018 47.9444L44.6203 48.076C44.6306 48.1418 44.6245 48.2055 44.6203 48.2713C44.6183 48.3083 44.6142 48.3494 44.6142 48.3947L44.4497 48.479L44.6512 48.699C44.6512 48.7031 44.6491 48.7072 44.6471 48.7093C44.6245 48.7628 44.5977 48.8388 44.5977 48.9211H44.4538L44.6985 49.2192C44.719 49.2459 44.7375 49.3117 44.7519 49.359C44.7519 49.3651 44.756 49.3734 44.756 49.3796C44.6553 49.4741 44.6388 49.618 44.6327 49.6962C44.6286 49.7311 44.6245 49.7805 44.6162 49.7949C44.6162 49.7949 44.6162 49.7949 44.6203 49.7908L44.682 49.873C44.6327 49.9079 44.6039 49.9491 44.5874 49.9841C44.5628 50.0416 44.5587 50.1012 44.5669 50.1547H44.3304L44.5237 50.35L44.3407 50.4097L44.4929 50.5371V51.0224C44.4929 51.1108 44.536 51.1827 44.6059 51.2197C44.6101 51.2218 44.6162 51.2239 44.6203 51.2259C44.7149 51.2897 44.8218 51.2855 44.9082 51.267V51.4685L45.1426 51.3986C45.3132 51.3493 45.4428 51.339 45.5785 51.3678L45.7697 51.4068L45.7944 51.2136C45.8889 50.4878 45.8704 49.7867 45.8499 49.1082C45.8314 48.4461 45.817 47.819 45.9013 47.2042C45.9568 47.0644 45.9013 46.9533 45.8684 46.8937Z" fill="white"></path><path fill-rule="evenodd" clip-rule="evenodd" d="M31.9822 46.8937L32.0254 46.865L31.9884 43.5074V43.4971V43.4868C31.9308 42.9995 31.9184 42.4567 31.9061 41.8831C31.8917 41.2395 31.8773 40.5692 31.7889 39.9791C31.7745 39.1341 31.6059 38.2294 31.4435 37.3556L31.3366 36.7593L31.3263 36.7017L31.2852 36.6606C31.1556 36.529 31.1104 36.3645 31.0611 36.1753C31.0199 36.015 30.9747 35.8505 30.876 35.6963C30.6601 35.2974 30.3126 34.9108 30.0063 34.5695L29.9919 34.551C29.9158 34.4482 29.8253 34.3927 29.7472 34.3413C29.702 34.3125 29.6588 34.2858 29.6115 34.2447L29.5416 34.183L29.4984 34.1932L29.4429 34.1481C29.1653 33.9281 28.9083 33.8437 28.6122 33.745L28.6061 33.743C28.5197 33.6196 28.3573 33.6011 28.2442 33.5991V33.5168L28.09 33.4922L27.3642 33.3852L27.2573 33.3688L27.1915 33.4551C27.1648 33.4901 27.1586 33.5004 27.0064 33.4428C26.9365 33.4202 26.8625 33.3914 26.7782 33.3832L26.6919 33.375L26.6507 33.4181C26.6281 33.4017 26.6014 33.3832 26.5664 33.3688L26.2663 33.2783L26.2416 33.4181C26.1079 33.4181 25.9907 33.4428 25.8961 33.4942H25.4191L24.975 33.4962L25.0264 33.6669C25.0244 33.669 25.0223 33.6731 25.0182 33.6751C24.8229 33.6258 24.6748 33.745 24.5905 33.8129C24.5761 33.8252 24.5597 33.8396 24.5494 33.8478C24.3911 33.8745 24.3006 33.9383 24.2389 33.9877C24.1937 34.0226 24.1773 34.0349 24.1341 34.037L24.058 34.0431L24.0087 34.1007C23.9429 34.1809 23.7332 34.2735 23.6221 34.3249L23.3774 34.4338L23.4309 34.4853C23.3918 34.5038 23.3507 34.5284 23.3137 34.5613H23.0793V34.7484C23.069 34.7464 23.0587 34.7463 23.0526 34.7443L22.921 34.6867C22.9107 34.6826 22.8264 34.7998 22.8264 34.7998C22.6825 35.0013 22.4954 35.1966 22.298 35.4084C22.0656 35.6531 21.8271 35.908 21.6462 36.1815L21.5907 36.2638L21.6277 36.348C21.5845 36.3748 21.4714 36.4447 21.4529 36.5783C21.3645 36.677 21.344 36.8065 21.3275 36.8908C21.3255 36.9176 21.3172 36.9546 21.3111 36.9731C21.2144 37.0903 21.1918 37.2054 21.1774 37.2959C21.1651 37.3658 21.1589 37.4028 21.1301 37.4398L21.0129 37.5878L21.0664 37.6269C21.0314 37.7153 21.0294 37.8078 21.0294 37.8634C21.0294 37.888 21.0273 37.9189 21.0253 37.9395L20.9471 37.9867L20.9636 38.1039C20.9965 38.3342 20.9677 38.546 20.9369 38.7701C20.9081 38.986 20.8793 39.2081 20.9019 39.4527C20.8114 39.5884 20.8341 39.7488 20.8485 39.8496C20.8546 39.8845 20.8608 39.9318 20.8587 39.9524L20.7415 40.0428L20.8238 40.1827C20.8875 40.2875 20.8382 40.4561 20.7888 40.6144C20.7456 40.7686 20.6922 40.9578 20.7477 41.1202C20.7333 41.1326 20.7189 41.149 20.7066 41.1655C20.686 41.1943 20.6675 41.2395 20.6737 41.2991C20.6737 41.4246 20.6613 41.4615 20.6552 41.4718L20.5688 41.6507L20.5544 41.7185L20.7107 41.8275C20.6922 41.9344 20.7045 42.0331 20.7189 42.1174C20.7374 42.2367 20.7415 42.286 20.7066 42.3313L20.6079 42.5081L20.7066 42.6232C20.7066 42.6335 20.7066 42.6438 20.7045 42.6541C20.7004 42.7343 20.6943 42.8741 20.7909 42.981C20.793 43.0016 20.7971 43.02 20.8032 43.0385L20.6264 43.0838L20.7415 43.3285C20.7395 43.347 20.7333 43.3717 20.7292 43.3881C20.7107 43.4621 20.6778 43.604 20.7518 43.7315C20.6983 43.8733 20.7313 44.0152 20.7539 44.1077C20.76 44.1345 20.7703 44.1694 20.7724 44.1941C20.6058 44.3689 20.686 44.6033 20.7313 44.7287C20.6531 44.8479 20.6716 44.9877 20.6881 45.0761L20.4619 45.1522L20.6922 45.3866C20.6819 45.4359 20.6819 45.5018 20.7189 45.5635C20.7457 45.6067 20.7806 45.6313 20.8135 45.6477L20.7436 45.6703C20.7456 45.6786 20.7477 45.6848 20.7518 45.693L20.8341 45.9048L20.83 45.9294C20.8115 46.0528 20.8402 46.1741 20.8999 46.2687C20.8793 46.2934 20.8649 46.3263 20.8628 46.3695L20.7724 46.4579L20.8608 46.5853C20.9286 46.6819 20.9019 46.8115 20.8526 47.013C20.8073 47.1898 20.7518 47.4139 20.8567 47.6072L20.7292 47.7326L20.8896 47.8498C20.8855 47.8601 20.8793 47.8683 20.8772 47.8745C20.8361 47.9506 20.7621 48.0904 20.8546 48.2425L20.8464 48.2261C20.8793 48.298 20.867 48.4193 20.8505 48.5427C20.8279 48.7277 20.8012 48.9499 20.8999 49.1699L20.8669 49.3898L20.8731 49.3631C20.8485 49.4495 20.867 49.5194 20.8957 49.577L20.8238 49.6098L20.8731 49.762C20.9245 49.9224 20.9245 50.1197 20.9266 50.3274C20.9266 50.7181 20.9287 51.1642 21.2823 51.5014L21.3583 51.5754L21.4591 51.5446C21.7244 51.4665 21.7367 51.2012 21.7449 51.0614C21.7449 51.0306 21.747 51.0018 21.7511 50.9792L21.7552 50.9381L21.7449 50.901C21.638 50.5412 21.6832 50.0704 21.7223 49.653C21.7326 49.542 21.7429 49.4392 21.7511 49.3385L21.7552 49.2891L21.7326 49.2438C21.6586 49.0999 21.6771 48.954 21.6976 48.7895C21.7182 48.6394 21.7346 48.4708 21.6812 48.298C21.7408 47.5352 21.7058 46.6326 21.675 45.8369C21.6606 45.4997 21.6483 45.181 21.6442 44.887V44.8788L21.6421 44.8685C21.5969 44.4922 21.6092 44.0892 21.6215 43.7006C21.6318 43.3491 21.6421 42.9872 21.6112 42.6541C21.6935 42.2737 21.6894 41.9262 21.6832 41.5582C21.6812 41.3916 21.6771 41.2189 21.6832 41.038L21.6853 40.9948L21.6729 40.9702C21.7552 40.8715 21.7737 40.7687 21.7326 40.67C21.7696 40.5302 21.7758 40.3965 21.7778 40.2772C21.7819 40.1827 21.784 40.0942 21.8045 40.0099L21.8148 39.9647L21.8025 39.9215C21.7799 39.8393 21.8004 39.7488 21.8231 39.6501C21.8518 39.5309 21.8827 39.389 21.8313 39.2471C21.9731 38.9613 22.004 38.6118 22.0328 38.2705L22.043 38.1553C22.0533 38.0813 22.0307 38.0114 21.9711 37.9498C21.9711 37.9436 21.9711 37.9395 21.9711 37.9395C21.9711 37.7894 22.0472 37.6681 22.1459 37.5139C22.2507 37.3453 22.372 37.1582 22.4029 36.895L22.409 36.8538L22.4049 36.8435C22.4172 36.8312 22.4337 36.8189 22.4481 36.8066C22.5139 36.7511 22.6146 36.6668 22.6126 36.5311C22.6126 36.5064 22.6085 36.4838 22.6002 36.4612C22.7277 36.3481 22.8038 36.2185 22.8737 36.0992C22.9765 35.9286 23.0485 35.8052 23.252 35.7456L23.3507 35.7189L23.3774 35.6182C23.4062 35.5071 23.5049 35.4413 23.6591 35.3447C23.7763 35.2727 23.9038 35.1905 24.0004 35.0671C24.13 35.0753 24.2102 35.0424 24.2574 34.991C24.4158 34.954 24.5371 34.8595 24.6378 34.7772C24.8044 34.6436 24.8578 34.6148 24.973 34.6662L25.0881 34.7196L25.1601 34.6476C25.1642 34.6456 25.1704 34.6456 25.1765 34.6436C25.2279 34.6292 25.3184 34.6025 25.3719 34.5202C25.4212 34.5099 25.4664 34.4935 25.5034 34.4811C25.596 34.4462 25.6186 34.4441 25.6515 34.4605C25.6844 34.4811 25.744 34.5038 25.8221 34.4853L25.8262 34.4996L25.9599 34.4832L26.1367 34.4605C26.6569 34.3927 27.1093 34.3351 27.5164 34.5531L27.6623 34.6333L27.7487 34.5037C27.7672 34.5222 27.7878 34.5449 27.8042 34.5634C27.9091 34.6806 28.0921 34.8821 28.3573 34.8368C28.4149 34.8882 28.4807 34.9273 28.5403 34.9623C28.5629 34.9746 28.5937 34.9952 28.6143 35.0075V35.0157L28.6513 35.065C28.7356 35.174 28.9083 35.2275 29.0502 35.2336C29.3586 35.5544 29.667 35.9964 29.667 36.1897V36.3707H29.8027C29.8027 36.3748 29.8027 36.3769 29.8048 36.381C29.8562 36.6195 29.924 36.9155 30.1091 37.1088C30.0577 37.2301 30.1029 37.3781 30.1214 37.4398C30.1276 37.4583 30.1338 37.4851 30.1399 37.5056L30.0947 37.6413L30.216 37.7627L30.2427 37.777C30.2366 37.9004 30.2921 38.0176 30.3332 38.0999C30.3414 38.1204 30.3558 38.1471 30.364 38.1698L30.3332 38.2355C30.1708 38.548 30.3887 38.7187 30.4956 38.803C30.51 38.8153 30.5224 38.8256 30.5347 38.8339C30.4525 38.8956 30.4566 38.9613 30.4401 39.0724L30.4545 39.2101L30.51 39.2985C30.5121 39.2985 30.5121 39.2985 30.5141 39.2985C30.5162 39.3026 30.5182 39.3109 30.5203 39.315C30.5285 39.3417 30.5409 39.3787 30.5635 39.4199L30.4998 39.4815L30.4566 39.646L30.545 39.7756L30.6169 39.8105C30.6149 39.8845 30.6437 39.9503 30.6642 39.9935C30.6683 40.0017 30.6704 40.0099 30.6745 40.0202L30.6581 40.1025C30.5984 40.4006 30.5224 40.783 30.7074 41.0935C30.7033 41.0997 30.6971 41.1038 30.693 41.11C30.6067 41.223 30.6293 41.3546 30.6437 41.4492C30.6478 41.4821 30.656 41.5315 30.6519 41.5479L30.6046 41.735C30.6046 41.7432 30.6642 41.7576 30.7177 41.77C30.7115 41.7905 30.7054 41.807 30.6992 41.8275L30.6601 42.0414H30.7321C30.7218 42.1154 30.7177 42.1853 30.7156 42.249C30.7136 42.358 30.7095 42.4279 30.6725 42.4855L30.656 42.5101L30.6478 42.5389C30.5943 42.7363 30.6663 42.9193 30.7259 43.0673C30.7362 43.0982 30.7485 43.1229 30.7568 43.1496C30.7259 43.1846 30.6951 43.2339 30.6992 43.3038C30.6992 43.3223 30.7053 43.3347 30.7095 43.347L30.6704 43.3881L30.7053 43.493C30.7239 43.5526 30.7629 43.5916 30.8061 43.6142L30.7752 43.6225C30.7691 43.6246 30.7691 43.7623 30.7691 43.7623V43.8137L30.654 43.8466L30.7115 43.9659C30.6827 44.0193 30.6539 44.0975 30.6827 44.1879L30.6046 44.3257C30.6067 44.3216 30.619 44.4079 30.6889 44.4429C30.6169 44.6896 30.7958 44.8705 30.9027 44.9795C30.948 45.0227 30.9767 45.0577 30.9973 45.0844H30.9069L30.9747 45.3167L30.9768 45.3249C30.9624 45.3393 30.9459 45.3558 30.9315 45.3743L30.7814 45.4483L30.8287 45.6498L30.8143 45.6971C30.7794 45.8019 30.8081 45.8739 30.8369 45.9171C30.8431 45.9253 30.8513 45.9294 30.8575 45.9376C30.804 45.989 30.7444 46.0672 30.73 46.1885L30.7136 46.3612L30.8513 46.3818C30.839 46.4188 30.8287 46.4537 30.8205 46.4887C30.802 46.5504 30.7876 46.6079 30.7588 46.6491V46.6511C30.7547 46.6594 30.7485 46.6655 30.7465 46.6737L30.9891 46.8094C30.9562 46.8732 30.9356 46.9369 30.9192 46.9842C30.9151 47.0109 30.9027 47.0418 30.8945 47.0582C30.8904 47.0582 30.8842 47.0582 30.876 47.0582L30.6725 47.0603L30.6848 47.2967C30.6951 47.3317 30.7012 47.3728 30.7053 47.4222C30.7095 47.4653 30.7156 47.5147 30.728 47.5661V47.8005C30.728 47.8313 30.728 47.8806 30.7383 47.932L30.7095 47.9444L30.73 48.076C30.7383 48.1418 30.7341 48.2055 30.73 48.2713C30.728 48.3083 30.7239 48.3494 30.7239 48.3947L30.5594 48.479L30.7609 48.699C30.7609 48.7031 30.7588 48.7072 30.7568 48.7093C30.7342 48.7628 30.7074 48.8388 30.7074 48.9211H30.5635L30.8082 49.2192C30.8287 49.2459 30.8472 49.3117 30.8616 49.359C30.8637 49.3651 30.8637 49.3734 30.8657 49.3796C30.767 49.4741 30.7506 49.618 30.7424 49.6962C30.7383 49.7311 30.7341 49.7805 30.7239 49.7949C30.7239 49.7949 30.7259 49.7949 30.728 49.7908L30.7896 49.873C30.7424 49.9079 30.7115 49.9491 30.6971 49.9841C30.6704 50.0416 30.6704 50.1012 30.6766 50.1547H30.4401L30.6354 50.35L30.4545 50.4097L30.6066 50.5371V51.0224C30.6066 51.1108 30.6498 51.1827 30.7197 51.2197C30.7259 51.2218 30.73 51.2239 30.7341 51.2259C30.8287 51.2897 30.9356 51.2855 31.022 51.267V51.4685L31.2543 51.3986C31.425 51.3493 31.5545 51.339 31.6902 51.3678L31.8814 51.4068L31.9061 51.2136C32.0007 50.4878 31.9822 49.7867 31.9637 49.1082C31.9452 48.4461 31.9287 47.819 32.013 47.2042C32.0726 47.0644 32.0171 46.9533 31.9822 46.8937Z" fill="white"></path><path fill-rule="evenodd" clip-rule="evenodd" d="M59.5115 47.1424L59.5547 47.1116V47.0109L59.5177 43.754V43.7438V43.7335C59.4581 43.2482 59.4457 42.7034 59.4354 42.1297C59.4211 41.4862 59.4067 40.8179 59.3183 40.2299C59.3039 39.3828 59.1353 38.4781 58.9728 37.6043L58.8639 37.008L58.8556 36.9545L58.8145 36.9114C58.685 36.7798 58.6397 36.6153 58.5904 36.4261C58.5472 36.2658 58.5041 36.1033 58.4054 35.945C58.1874 35.5482 57.842 35.1596 57.5356 34.8203L57.5192 34.8018C57.4431 34.699 57.3526 34.6414 57.2745 34.5941C57.2293 34.5633 57.1861 34.5366 57.1388 34.4975L57.0689 34.4358L57.0257 34.4461L56.9702 34.4029C56.6947 34.1829 56.4377 34.0966 56.1395 33.9999L56.1334 33.9979C56.047 33.8725 55.8825 33.854 55.7715 33.8519V33.7717L55.6173 33.7491L54.8915 33.6401L54.7846 33.6237L54.7208 33.71C54.6941 33.747 54.6879 33.7552 54.5337 33.6997C54.4659 33.6751 54.3878 33.6483 54.3055 33.6401L54.2191 33.6319L54.178 33.673C54.1554 33.6566 54.1287 33.6401 54.0937 33.6237L53.7935 33.5332L53.7709 33.673C53.6373 33.673 53.5201 33.6977 53.4255 33.7491H52.9485L52.5044 33.7511L52.5578 33.9218C52.5537 33.9239 52.5517 33.928 52.5496 33.93C52.3543 33.8786 52.2042 34 52.1219 34.0678C52.1096 34.0801 52.0911 34.0925 52.0808 34.1007C51.9225 34.1274 51.8341 34.1932 51.7703 34.2426C51.7251 34.2775 51.7087 34.2878 51.6655 34.2919L51.5915 34.3001L51.5421 34.3598C51.4763 34.44 51.2666 34.5304 51.1556 34.5818L50.9109 34.6888L50.9644 34.7422C50.9253 34.7566 50.8842 34.7833 50.8492 34.8162H50.6128V35.0033C50.6025 35.0033 50.5943 35.0013 50.5881 34.9972L50.4544 34.9416C50.4442 34.9375 50.3578 35.0526 50.3578 35.0526C50.2139 35.2541 50.0289 35.4515 49.8315 35.6613C49.6012 35.908 49.3606 36.1609 49.1797 36.4344L49.1242 36.5186L49.1612 36.6009C49.118 36.6276 49.007 36.6975 48.9864 36.8312C48.898 36.9278 48.8754 37.0573 48.863 37.1457C48.8589 37.1704 48.8548 37.2074 48.8466 37.2259C48.75 37.3431 48.7253 37.4603 48.7129 37.5488C48.7027 37.6187 48.6944 37.6557 48.6657 37.6927L48.5505 37.8386L48.6019 37.8777C48.567 37.9661 48.5669 38.0587 48.5649 38.1142C48.5649 38.1388 48.5649 38.1697 48.5608 38.1882L48.4847 38.2355L48.5012 38.3547C48.5361 38.583 48.5053 38.7947 48.4744 39.0189C48.4436 39.2347 48.4169 39.4568 48.4395 39.7015C48.3511 39.8372 48.3716 39.9975 48.3881 40.0983C48.3922 40.1312 48.4004 40.1806 48.3984 40.2011L48.2811 40.2936L48.3654 40.4293C48.4271 40.5342 48.3778 40.7028 48.3305 40.8632C48.2853 41.0153 48.2318 41.2065 48.2873 41.369C48.275 41.3813 48.2585 41.3957 48.2462 41.4121C48.2277 41.4409 48.2092 41.4862 48.2133 41.5458C48.2133 41.6712 48.201 41.7103 48.1948 41.7205L48.1105 41.8974L48.0961 41.9693L48.2524 42.0763C48.2359 42.1832 48.2483 42.2818 48.2606 42.3661C48.2791 42.4854 48.2832 42.5327 48.2483 42.58L48.1516 42.7547L48.2483 42.8699C48.2483 42.8802 48.2483 42.8905 48.2462 42.9028C48.2421 42.9789 48.2359 43.1228 48.3326 43.2277C48.3346 43.2503 48.3387 43.2688 48.3449 43.2853L48.1681 43.3304L48.2832 43.5752C48.2812 43.5937 48.277 43.6183 48.2729 43.6368C48.2544 43.7088 48.2236 43.8527 48.2955 43.9802C48.24 44.1221 48.275 44.2619 48.2997 44.3565C48.3058 44.3832 48.3141 44.4181 48.3182 44.4428C48.1496 44.6155 48.2318 44.852 48.277 44.9754C48.1989 45.0946 48.2174 45.2365 48.2339 45.3228L48.0098 45.3989L48.24 45.6353C48.2298 45.6847 48.2298 45.7485 48.2668 45.8101C48.2935 45.8554 48.3285 45.878 48.3634 45.8944L48.2935 45.9171C48.2956 45.9253 48.2997 45.9335 48.3017 45.9417H48.2997L48.3819 46.1535L48.3798 46.1761C48.3613 46.2994 48.3901 46.4208 48.4497 46.5153C48.4292 46.54 48.4169 46.5729 48.4128 46.6181L48.3223 46.7066L48.4107 46.834C48.4785 46.9307 48.4539 47.0602 48.4004 47.2617C48.3572 47.4344 48.3038 47.6627 48.4066 47.8539L48.277 47.9814L48.4374 48.0985C48.4333 48.1067 48.4292 48.115 48.4251 48.1232C48.384 48.1973 48.31 48.3391 48.4045 48.4933L48.3963 48.4727C48.4292 48.5447 48.4148 48.664 48.3984 48.7914C48.3778 48.9744 48.3511 49.1986 48.4477 49.4165L48.4169 49.6386L48.423 49.6098C48.3942 49.6961 48.4169 49.7681 48.4436 49.8236L48.3737 49.8565L48.423 50.0107C48.4744 50.169 48.4744 50.3684 48.4744 50.572C48.4765 50.9647 48.4765 51.4109 48.8322 51.7501L48.9083 51.8221L49.009 51.7934C49.2722 51.7132 49.2866 51.45 49.2948 51.3081C49.2948 51.2772 49.2969 51.2485 49.2989 51.2279L49.303 51.1868L49.2948 51.1498C49.1879 50.79 49.2331 50.3171 49.2722 49.9017C49.2825 49.7907 49.2927 49.6859 49.301 49.5851L49.303 49.5357L49.2804 49.4905C49.2085 49.3466 49.227 49.2026 49.2475 49.0382C49.266 48.8881 49.2845 48.7195 49.229 48.5447C49.2886 47.7819 49.2537 46.8814 49.2229 46.0857C49.2085 45.7485 49.1961 45.4298 49.1899 45.1357V45.1254V45.1172C49.1447 44.741 49.157 44.3359 49.1673 43.9452C49.1776 43.5957 49.1879 43.2359 49.1571 42.9028C49.2414 42.5204 49.2352 42.1729 49.229 41.8049C49.2269 41.6383 49.2249 41.4656 49.229 41.2846V41.2415L49.2167 41.2168C49.301 41.1181 49.3195 41.0174 49.2763 40.9166C49.3133 40.7768 49.3215 40.6452 49.3236 40.526C49.3256 40.4314 49.3298 40.3388 49.3483 40.2566L49.3585 40.2134L49.3462 40.1703C49.3257 40.0901 49.3462 39.9975 49.3688 39.9009C49.3956 39.7816 49.4264 39.6398 49.375 39.4979C49.5169 39.2142 49.5477 38.8626 49.5786 38.5213L49.5868 38.4041C49.5971 38.33 49.5744 38.2602 49.5148 38.1985C49.5148 38.1903 49.5148 38.1882 49.5148 38.1882C49.5148 38.0361 49.593 37.9147 49.6896 37.7605C49.7965 37.5919 49.9178 37.4028 49.9466 37.1396L49.9528 37.0964L49.9486 37.0882C49.961 37.0759 49.9754 37.0615 49.9898 37.0512C50.0556 36.9936 50.1563 36.9093 50.1543 36.7736C50.1543 36.7489 50.1501 36.7242 50.1419 36.7016C50.2694 36.5865 50.3455 36.459 50.4174 36.3439C50.5202 36.1712 50.5943 36.0478 50.7958 35.9902L50.8945 35.9594L50.9212 35.8607C50.95 35.7496 51.0487 35.6839 51.2049 35.5872C51.3221 35.5153 51.4496 35.4309 51.5462 35.3096C51.6758 35.3179 51.758 35.2829 51.8033 35.2336C51.9616 35.1945 52.0829 35.102 52.1857 35.0218C52.3522 34.8861 52.4057 34.8573 52.5208 34.9087L52.636 34.9601L52.7079 34.8861C52.712 34.8861 52.7203 34.8841 52.7244 34.882C52.7758 34.8717 52.8663 34.8429 52.9197 34.7607C52.9691 34.7504 53.0143 34.736 53.0513 34.7216C53.1438 34.6867 53.1644 34.6846 53.1993 34.7031C53.2322 34.7237 53.2939 34.7463 53.3679 34.7257L53.3741 34.7401L53.5077 34.7237L53.6825 34.701C54.2047 34.6332 54.6571 34.5757 55.0642 34.7936L55.2102 34.8717L55.2965 34.7422C55.315 34.7607 55.3356 34.7833 55.3521 34.8018C55.4569 34.919 55.6399 35.1185 55.9051 35.0773C55.9627 35.1267 56.0285 35.1678 56.0861 35.2007C56.1108 35.2151 56.1395 35.2336 56.1622 35.248V35.2542L56.1971 35.3035C56.2814 35.4125 56.4541 35.4659 56.5939 35.47C56.9003 35.7908 57.2108 36.2329 57.2108 36.4261V36.607H57.3465C57.3465 36.6112 57.3485 36.6153 57.3485 36.6173C57.3979 36.8558 57.4678 37.1519 57.6508 37.3452C57.6014 37.4665 57.6446 37.6125 57.6652 37.6742C57.6713 37.6947 57.6775 37.7194 57.6837 37.742L57.6384 37.8757L57.7577 37.997L57.7844 38.0114C57.7782 38.1348 57.8337 38.2519 57.8749 38.3321C57.8851 38.3526 57.8975 38.3774 57.9057 38.4L57.8769 38.4657C57.7124 38.7783 57.9324 38.949 58.0352 39.0312C58.0538 39.0435 58.064 39.0538 58.0764 39.062C57.9962 39.1258 57.9983 39.1895 57.9839 39.3005L57.9962 39.4383L58.0517 39.5267C58.0558 39.5267 58.0558 39.5267 58.0558 39.5267C58.0579 39.5329 58.0599 39.5391 58.062 39.5452C58.0702 39.574 58.0825 39.6089 58.1051 39.648L58.0435 39.7097L58.0003 39.8742L58.0908 40.0037L58.1627 40.0387C58.1607 40.1148 58.1895 40.1785 58.208 40.2216C58.21 40.2299 58.2141 40.2381 58.2182 40.2484L58.2018 40.3306C58.1401 40.6288 58.0661 41.0112 58.2511 41.3217C58.247 41.3278 58.2409 41.332 58.2347 41.3361C58.1504 41.4512 58.171 41.5807 58.1874 41.6774C58.1915 41.7082 58.1997 41.7596 58.1956 41.7761L58.1504 41.9611C58.1483 41.9693 58.21 41.9858 58.2635 41.9961C58.2573 42.0166 58.2491 42.0331 58.247 42.0537L58.2059 42.2674H58.2799C58.2676 42.3394 58.2655 42.4093 58.2635 42.4731C58.2614 42.582 58.2573 42.652 58.2203 42.7096L58.2038 42.7342L58.1956 42.765C58.1422 42.9604 58.2141 43.1454 58.2737 43.2914C58.284 43.3223 58.2964 43.349 58.3046 43.3757C58.2737 43.4106 58.245 43.4579 58.2491 43.5278C58.2491 43.5463 58.2553 43.5607 58.2594 43.571L58.2203 43.6122L58.2553 43.7191C58.2738 43.7767 58.3128 43.8157 58.356 43.8404L58.3252 43.8486C58.319 43.8486 58.319 43.9884 58.319 43.9884V44.0398L58.2059 44.0707L58.2635 44.1899C58.2347 44.2433 58.2039 44.3235 58.2368 44.4119L58.1586 44.5518C58.1607 44.5477 58.171 44.634 58.2409 44.669C58.1689 44.9157 58.3478 45.0966 58.4547 45.2036C58.4999 45.2488 58.5287 45.2817 58.5493 45.3105H58.4588L58.5267 45.5428L58.5287 45.549C58.5123 45.5634 58.4979 45.5819 58.4835 45.5984L58.3354 45.6723L58.3827 45.8759L58.3663 45.9232C58.3334 46.026 58.3622 46.1 58.391 46.1411C58.3971 46.1514 58.4054 46.1535 58.4136 46.1617C58.3601 46.2152 58.2984 46.2912 58.2861 46.4146L58.2696 46.5852L58.4095 46.6058C58.3971 46.6449 58.3848 46.6778 58.3766 46.7128C58.3581 46.7765 58.3437 46.834 58.3149 46.8772H58.3169C58.3128 46.8834 58.3067 46.8896 58.3025 46.8978L58.5452 47.0335C58.5123 47.0973 58.4917 47.163 58.4773 47.2103C58.4691 47.235 58.4588 47.2679 58.4506 47.2843C58.4465 47.2843 58.4424 47.2844 58.4341 47.2823L58.2306 47.2864L58.2409 47.5208C58.2532 47.5578 58.2573 47.5989 58.2635 47.6462C58.2676 47.6894 58.2738 47.7387 58.284 47.7901V48.0245C58.284 48.0574 58.2861 48.1047 58.2943 48.1561L58.2676 48.1705L58.2861 48.3001C58.2964 48.3659 58.2902 48.4295 58.2861 48.4974C58.2841 48.5324 58.282 48.5735 58.282 48.6188L58.1154 48.703L58.3169 48.923C58.3169 48.9271 58.3149 48.9313 58.3128 48.9354C58.2902 48.9888 58.2635 49.0649 58.2635 49.1451H58.1195L58.3642 49.4453C58.3848 49.4699 58.4033 49.5358 58.4156 49.583C58.4177 49.5892 58.4197 49.5975 58.4218 49.6036C58.3211 49.7003 58.3046 49.8442 58.2964 49.9202C58.2923 49.9552 58.2882 50.0046 58.2799 50.021C58.2799 50.021 58.2799 50.0189 58.282 50.0169L58.3457 50.0971C58.2984 50.1341 58.2676 50.1731 58.2532 50.2101C58.2265 50.2677 58.2244 50.3274 58.2326 50.3808H57.9962L58.1915 50.5761L58.0085 50.6358L58.1607 50.7612V51.2485C58.1607 51.3369 58.2039 51.4089 58.2758 51.4459C58.2799 51.4479 58.284 51.4479 58.2881 51.452C58.3827 51.5137 58.4896 51.5116 58.576 51.4931V51.6926L58.8084 51.6248C58.979 51.5754 59.1106 51.5651 59.2442 51.5918L59.4375 51.6309L59.4622 51.4356C59.5568 50.7139 59.5383 50.0107 59.5197 49.3322C59.5012 48.6722 59.4848 48.0451 59.5691 47.4283C59.602 47.3111 59.5465 47.2 59.5115 47.1424Z" fill="white"></path></svg> 