<?xml version="1.0" encoding="UTF-8"?> <svg xmlns="http://www.w3.org/2000/svg" width="80" height="80" viewBox="0 0 80 80" fill="none"><rect width="80" height="80" fill="white"></rect><rect width="60" height="60" fill="#A5A5A8"></rect><circle cx="50" cy="50" r="30" fill="#D7CF5E"></circle><path d="M62.96 63.7837C60.8359 64.5601 58.7925 65.1387 56.8296 65.5195C54.8813 65.8857 52.9111 66.0688 50.9189 66.0688C47.9893 66.0688 45.4624 65.7026 43.3384 64.9702C41.2144 64.2378 39.4565 63.2124 38.0649 61.894C36.688 60.561 35.6626 58.9717 34.9888 57.126C34.3296 55.2656 34 53.2075 34 50.9517C34 48.9595 34.2417 47.1357 34.7251 45.4805C35.2085 43.8105 35.8823 42.3091 36.7466 40.9761C37.6108 39.6431 38.6362 38.4785 39.8228 37.4824C41.0239 36.4863 42.3276 35.6587 43.7339 34.9995C45.1401 34.3257 46.627 33.8276 48.1943 33.5054C49.7764 33.1685 51.3804 33 53.0063 33C53.5337 33 54.1562 33.022 54.874 33.0659C55.5918 33.0952 56.3462 33.1538 57.1372 33.2417C57.9282 33.3296 58.7266 33.4468 59.5322 33.5933C60.3525 33.7251 61.1216 33.8862 61.8394 34.0767L60.5869 39.7236L60.1475 39.8994C59.5176 39.5918 58.873 39.3354 58.2139 39.1304C57.5693 38.9106 56.9395 38.7422 56.3242 38.625C55.709 38.4932 55.1157 38.3979 54.5444 38.3394C53.9731 38.2808 53.4531 38.2515 52.9844 38.2515C51.4756 38.2515 50.1133 38.5005 48.8975 38.9985C47.6963 39.4819 46.6709 40.1997 45.8213 41.1519C44.9717 42.0894 44.3198 43.2539 43.8657 44.6455C43.4116 46.0225 43.1846 47.5972 43.1846 49.3696C43.1846 51.0542 43.3896 52.5996 43.7998 54.0059C44.2246 55.3975 44.8179 56.5986 45.5796 57.6094C46.356 58.6201 47.2935 59.4111 48.3921 59.9824C49.4907 60.5391 50.7285 60.8174 52.1055 60.8174C52.3105 60.8174 52.5522 60.8101 52.8306 60.7954C53.1089 60.7808 53.3872 60.7588 53.6655 60.7295C53.9585 60.7002 54.2368 60.6636 54.5005 60.6196C54.7642 60.5757 54.9766 60.5244 55.1377 60.4658V49.2817H62.96V63.7837Z" fill="white"></path></svg> 