<?xml version="1.0" encoding="UTF-8"?> <svg xmlns="http://www.w3.org/2000/svg" width="80" height="80" viewBox="0 0 80 80" fill="none"><rect width="80" height="80" fill="white"></rect><path d="M52.1267 1.89C52.08 1.87 52.0367 1.85328 51.99 1.84C48.2033 0.646719 44.1767 0 40 0C22.02 0 6.78 11.9267 1.76 28.2833C1.74328 28.34 1.73 28.3933 1.71672 28.45C0.61 32.11 0 35.9833 0 40C0 50.3333 3.97328 59.7333 10.4267 66.84C10.5434 67.0367 10.6934 67.2033 10.8767 67.3367C18.18 75.11 28.5167 80 40 80C60.2733 80 77.03 64.83 79.6133 45.2533C79.6533 45.1233 79.6666 44.9966 79.6733 44.8633C79.87 43.2667 80 41.65 80 40C80 22.1733 68.27 7.04 52.1267 1.89ZM40 76.6667C29.6233 76.6667 20.2567 72.3134 13.58 65.36C13.8367 62.81 14.4767 55.0467 13.2567 51.1667C12.6533 49.25 11.35 47.9433 10.2 46.7933C9.37672 45.97 8.59672 45.1933 8.17672 44.29C7.20672 42.2267 5.8 34.14 5.04344 28.95C9.74328 14.1167 23.6333 3.33328 40 3.33328C42.77 3.33328 45.4567 3.66656 48.05 4.25328C47.0633 5.46656 46.28 6.82328 45.7767 7.86328C43.8367 7.15 41.1134 6.34 39.5967 6.71656C37.0834 7.34328 34.4667 10.5766 31.98 14.0266C31.6067 14.5433 31.0833 15.5933 30.6867 16.4498C28.81 16.3066 26.92 17.1531 25.3867 18.7966C23.8834 20.4066 22.74 22.8966 23.5767 24.8233C24.09 25.9933 25.2134 26.6666 26.6667 26.6666C28.1934 26.6666 29.6267 25.8298 31.1467 24.9398C32.4834 24.1598 33.8667 23.3498 35.0234 23.3331C41.0467 23.2031 44.1202 24.7198 45.0267 26.1198C45.2734 26.4998 45.3567 26.8731 45.2767 27.2566C44.0667 27.4833 40.6367 27.1333 38.3 26.8966C34.36 26.5033 30.2867 26.0933 27.91 26.7198C24.96 27.4966 23.2433 29.5298 20.27 34.0866C18.9367 36.1333 19.3067 40.4033 20.1367 42.3233C20.7067 43.6466 22.7367 46.0233 24.4934 46.5833C25.9267 47.0333 27.7802 46.78 29.7434 46.51C31.2234 46.3 33.4602 45.9967 34.1067 46.4033C35.6367 47.3833 36.6667 51.5066 36.6667 56.6533C36.6467 56.93 36.25 57.7366 36.0167 58.22C35.4067 59.46 34.78 60.7467 35.0367 62C36.0667 67.07 39.9 70.0133 43.05 70.0133C43.1967 70.0133 43.34 70.0066 43.48 69.9933C48.0867 69.5833 55.6667 63.65 56.6367 58.65C56.8734 57.42 56.7634 55.57 56.6434 53.6133C56.5334 51.7966 56.4102 49.7366 56.6302 48.6766C56.8502 47.6166 58.5934 44.4433 59.7569 42.5366C60.1736 41.8498 60.0469 40.9666 59.4469 40.4298C58.4036 39.4898 56.7536 37.9198 56.3502 37.3598C55.9702 36.8298 55.3369 35.6131 54.7069 34.2998C55.2069 34.4766 55.6002 34.6366 55.7902 34.7531C57.6669 35.9131 62.1602 40.9231 63.7369 42.7531C64.1269 43.2098 64.7269 43.4198 65.3236 43.3031C67.8036 42.8164 68.1236 40.2598 68.3303 38.5664C68.407 37.9564 68.547 36.8264 68.727 36.6197C70.087 36.3097 71.847 39.063 73.2538 41.2964C74.227 42.8431 75.167 44.2964 76.227 45.3631C73.62 63.04 58.39 76.6667 40 76.6667Z" fill="#4BA01E"></path></svg> 