<?xml version="1.0" encoding="UTF-8"?> <svg xmlns="http://www.w3.org/2000/svg" width="80" height="80" viewBox="0 0 80 80" fill="none"><rect width="80" height="80" fill="white"></rect><path d="M25.9259 14.1481L33.8452 58.5926L35.5 59.5L41.8518 6C36.2222 12.5185 28.8889 14.1481 25.9259 14.1481Z" fill="#0A75BA"></path><path d="M53.7037 7.48148C60 8.59259 67.2839 8.96296 70.7407 8.59259C63.3333 17.1111 56.2171 15.9261 56.6667 16C54.5926 15.7037 49.1358 14.1481 46.6667 13.4074C44.2963 13.7037 41.4815 15.2593 40.3704 16L41.1111 11.1852C44.3704 9.11111 47.5 7.48148 53.7037 7.48148Z" fill="#0A75BA"></path><path d="M52.9703 22.7923C57.981 25.3415 64.3043 26.224 67.7778 26.3704C59.3277 33.5776 54.3656 31.5843 54.6203 31.6511C52.5995 31.0499 47.1403 30.0587 44.8148 28.963C42.4267 28.9044 39.7297 28.6714 38.521 29.2391L39 24.5C42.5308 22.9323 50.1073 22.7375 52.9703 22.7923Z" fill="#0A75BA"></path><path d="M48.8889 38.5932C53.8996 41.1424 59.8598 41.0388 63.3333 41.1852C54.7444 48.5109 49.5662 45.8606 49.9998 46.0004C47.9926 45.3997 44.9244 44.8769 42.5924 43.7781C40.2043 43.7196 38.2453 43.951 37.0366 44.5188L37.7452 39.4026C41.2761 37.8349 46.0259 38.5384 48.8889 38.5932Z" fill="#0A75BA"></path><path d="M5.18518 39.7037L0 40.0741V43.037H5.55556C11.4815 63.4815 25.0617 71.8025 31.1111 73.4074L62.5926 72.6667C62.963 71.4321 63.8518 68.963 64.4444 68.963C68.2963 55.6296 76.4198 54.2716 80 55.2593V50.0741H75.9259C66.2963 56.3704 52.963 59.7037 53.3333 60.0741C22.5185 61.8519 11.6049 46.4938 10 38.5926H5.18518V39.7037Z" fill="#0A75BA"></path></svg> 