<svg width="80" height="80" viewBox="0 0 80 80" fill="none" xmlns="http://www.w3.org/2000/svg">
<rect width="80" height="80" fill="#F5F8FA"/>
<path fill-rule="evenodd" clip-rule="evenodd" d="M49.0912 61.9951H61.8591C62.0133 62.0084 62.1682 61.9798 62.3074 61.9123C62.4467 61.8447 62.5651 61.7408 62.6501 61.6114C62.7351 61.4821 62.7835 61.3322 62.7902 61.1776C62.797 61.0229 62.7618 60.8694 62.6884 60.7331L55.4084 45.5891C55.0226 44.7886 54.4818 44.3848 53.3532 44.3848H45.5936L61.9925 19.3971C62.0896 19.2567 62.1442 19.0913 62.15 18.9207C62.1558 18.7501 62.1124 18.5814 62.025 18.4347C61.9376 18.2881 61.8099 18.1696 61.6571 18.0935C61.5043 18.0174 61.3329 17.9867 61.1632 18.0053H47.9842C47.5913 17.9931 47.2024 18.0872 46.8584 18.2775C46.5145 18.4679 46.2282 18.7476 46.0299 19.087L38.7968 30.1169L33.5325 19.1843C33.3939 18.8167 33.1405 18.5034 32.81 18.2911C32.4794 18.0787 32.0892 17.9785 31.6972 18.0053H18.9293C18.7755 17.9932 18.6212 18.0226 18.4827 18.0905C18.3441 18.1584 18.2263 18.2622 18.1416 18.3911C18.0569 18.5201 18.0083 18.6694 18.001 18.8235C17.9937 18.9776 18.0278 19.1309 18.1 19.2673L25.3799 34.4113C25.7657 35.2082 26.3066 35.612 27.4352 35.612H35.1947L18.7959 60.6033C18.7001 60.7443 18.6466 60.9097 18.6417 61.0801C18.6368 61.2505 18.6807 61.4187 18.7683 61.565C18.8558 61.7112 18.9833 61.8294 19.1358 61.9056C19.2882 61.9818 19.4593 62.0129 19.6288 61.9951H32.8041C33.1971 62.0073 33.586 61.9132 33.9299 61.7229C34.2739 61.5325 34.5601 61.2528 34.7584 60.9134L41.9951 49.8799L47.2631 60.8161C47.4013 61.1825 47.6536 61.4948 47.9827 61.7071C48.3118 61.9194 48.7004 62.0203 49.0912 61.9951Z" fill="url(#paint0_linear_7855_7899)"/>
<defs>
<linearGradient id="paint0_linear_7855_7899" x1="17.094" y1="18.081" x2="69.0849" y2="52.7609" gradientUnits="userSpaceOnUse">
<stop stop-color="#00D5D9"/>
<stop offset="1" stop-color="#F000EC"/>
</linearGradient>
</defs>
</svg>
