<?xml version="1.0" encoding="UTF-8"?> <svg xmlns="http://www.w3.org/2000/svg" width="81" height="80" viewBox="0 0 81 80" fill="none"><rect width="80" height="80" fill="white"></rect><path fill-rule="evenodd" clip-rule="evenodd" d="M40.1185 59.9372C51.1317 59.9372 60.0597 50.9922 60.0597 39.9581C60.0597 28.924 51.1317 19.9791 40.1185 19.9791C29.1054 19.9791 20.1774 28.924 20.1774 39.9581C20.1774 50.9922 29.1054 59.9372 40.1185 59.9372ZM40.1185 79.9162C62.1449 79.9162 80.0008 62.0264 80.0008 39.9581C80.0008 17.8899 62.1449 0 40.1185 0C18.0922 0 0.236328 17.8899 0.236328 39.9581C0.236328 62.0264 18.0922 79.9162 40.1185 79.9162Z" fill="#FCA33F"></path><path d="M37.459 0H42.7766L41.4472 23.9749H38.7884L37.459 0Z" fill="white"></path><path d="M55.1602 1.62988L59.9637 3.91535L48.4977 25.0009L46.0959 23.8581L55.1602 1.62988Z" fill="white"></path><path d="M69.7109 11.9873L73.3067 15.9124L54.7784 31.1427L52.9805 29.1802L69.7109 11.9873Z" fill="white"></path><path d="M78.6701 29.3035L79.9997 34.6304L56.9192 38.3052L56.3539 35.7023L78.6701 29.3035Z" fill="white"></path><path d="M78.8809 52.1858L78.1047 57.3967L56.0713 47.9495L56.9802 45.4461L78.8809 52.1858Z" fill="white"></path><path d="M68.2744 70.8447L64.3779 74.4702L49.0684 55.996L51.0167 54.1832L68.2744 70.8447Z" fill="white"></path><path d="M39.1748 79.9141L33.8579 80.0004L34.7991 56.0071L37.4576 55.9639L39.1748 79.9141Z" fill="white"></path><path d="M25.2051 79.0127L21.5068 77.2775L30.5572 55.0436L33.071 55.9112L25.2051 79.0127Z" fill="white"></path><path d="M17.0244 73.6914L13.7504 71.246L27.0822 51.2921L29.3703 52.6489L17.0244 73.6914Z" fill="white"></path><path d="M8.42871 66.7754L5.85881 63.5956L23.6957 47.5582L25.5786 49.439L8.42871 66.7754Z" fill="white"></path><path d="M2.16992 56.498L0.61566 52.7145L22.2872 42.4615L23.5541 44.8035L2.16992 56.498Z" fill="white"></path><path d="M0.414062 43.6768L0.234904 41.2714L0.234904 39.292L24.6127 38.6195L24.8647 41.2714L0.414062 43.6768Z" fill="white"></path><path d="M0.235352 30.6748L1.17794 26.6938L24.7475 31.0444L24.4116 33.6869L0.235352 30.6748Z" fill="white"></path><path d="M5.55273 15.5605L7.87563 12.1954L28.2528 24.8349L26.9808 27.1742L5.55273 15.5605Z" fill="white"></path><path d="M20.1768 4.9375L23.7863 3.02382L36.0554 23.6506L33.8505 25.1391L20.1768 4.9375Z" fill="white"></path></svg> 