<?xml version="1.0" encoding="UTF-8"?> <svg xmlns="http://www.w3.org/2000/svg" width="80" height="80" viewBox="0 0 80 80" fill="none"><rect width="80" height="80" fill="#F5F8FA"></rect><path d="M47.0301 13H32.2292L30.0094 17.4403C29.4176 18.6243 27.296 19.9071 26.3092 20.4004H16.6882C14.9119 20.4004 13.4815 21.8805 12.9884 22.6206L0.407255 52.2224C-0.776817 55.7746 0.900618 58.1427 1.88734 58.8828H30.7491L35.1894 54.4425H20.3885C18.0203 54.4425 16.9349 52.9624 16.6882 52.2224L27.0489 26.3208C28.2329 23.9527 30.009 23.3606 30.7491 23.3606H41.8498C44.8099 21.5845 46.5367 15.7135 47.0301 13Z" fill="#365898"></path><path d="M32.9699 66.2832L47.7708 66.2832L49.9906 61.8429C50.5824 60.6589 52.704 59.3761 53.6908 58.8828L63.3118 58.8828C65.0881 58.8828 66.5185 57.4027 67.0116 56.6626L79.5927 27.0608C80.7768 23.5086 79.0994 21.1405 78.1127 20.4004L49.2509 20.4004L44.8106 24.8407L59.6115 24.8407C61.9797 24.8407 63.0651 26.3208 63.3118 27.0608L52.9511 52.9624C51.7671 55.3305 49.991 55.9226 49.2509 55.9226L38.1502 55.9226C35.1901 57.6987 33.4633 63.5697 32.9699 66.2832Z" fill="#365898"></path></svg> 