<?xml version="1.0" encoding="UTF-8"?> <svg xmlns="http://www.w3.org/2000/svg" width="80" height="80" viewBox="0 0 80 80" fill="none"><rect width="80" height="80" fill="#008080"></rect><path d="M80.0003 12.4229H43.2734V67.2616H80.0003L67.9257 40.0938L80.0003 12.4229Z" fill="white"></path><path d="M40.2545 26.5095V12.4225C7.4519 8.80013 -0.24565 29.3605 0.00590414 40.0934H16.6085C16.6085 25.8052 32.3725 25.084 40.2545 26.5095Z" fill="white"></path><path d="M40.2604 53.6774V67.7644C7.45779 71.3867 -0.239754 50.8264 0.0117999 40.0935H16.6144C16.6144 54.3817 32.3784 55.1028 40.2604 53.6774Z" fill="white"></path><path d="M38.7452 50.6592V28.5225H35.2235V30.7864L33.7141 32.0442V28.5225H27.1737C26.6706 28.774 25.6644 29.3274 25.6644 29.5287C24.1551 31.7423 25.3709 33.1343 26.1675 33.5535H27.5511C29.6641 31.9436 28.4315 30.1995 27.5511 29.5287H29.1862L30.1924 30.5349V33.0504L24.6582 38.0815V50.6592H28.18V38.0815L30.1924 36.5722V50.6592H33.7141V35.566L35.2235 34.0566V50.6592H38.7452Z" fill="white"></path><path d="M59.8756 28.5225H55.3477V30.0318H57.3601V32.5473L59.8756 34.0566V28.5225Z" fill="#008080"></path><path d="M50.8193 51.1623V28.5225H53.838V36.8237L59.8753 41.6033V51.1623H50.8193Z" fill="#008080"></path><path d="M53.8389 49.653V39.5908L56.8575 41.6033V49.653H53.8389Z" fill="white"></path></svg> 