<?xml version="1.0" encoding="UTF-8"?> <svg xmlns="http://www.w3.org/2000/svg" width="80" height="80" viewBox="0 0 80 80" fill="none"><rect width="80" height="80" fill="#9E393D"></rect><rect x="13" y="13" width="54" height="54" rx="7" stroke="white" stroke-width="6"></rect><path d="M50.9987 53.1061C50.1497 53.5137 49.2667 53.9212 48.3498 54.3287C47.4668 54.7023 46.5159 55.0419 45.4971 55.3475C44.4783 55.6192 43.3576 55.84 42.135 56.0098C40.9464 56.1796 39.6389 56.2645 38.2125 56.2645C33.6618 56.2645 30.1469 55.2456 27.6678 53.208C25.2226 51.1704 24 47.7743 24 43.0198C24 40.269 24.4245 37.688 25.2735 35.2768C26.1225 32.8316 27.3791 30.7091 29.0432 28.9092C30.7072 27.0753 32.7619 25.632 35.207 24.5792C37.6522 23.5264 40.4539 23 43.6123 23C45.1066 23 46.465 23.1019 47.6876 23.3056C48.9441 23.5094 50.0648 23.7811 51.0497 24.1207C52.0685 24.4263 52.9684 24.766 53.7495 25.1395C54.5646 25.5131 55.2947 25.8697 55.94 26.2093L54.1061 35.6843H44.9367C44.9707 35.3447 45.0047 34.9032 45.0386 34.3598C45.1066 33.8165 45.1575 33.2731 45.1915 32.7297C45.2254 32.1524 45.2594 31.592 45.2933 31.0487C45.3273 30.5053 45.3443 30.0468 45.3443 29.6733C45.3443 29.4016 45.3273 29.0959 45.2933 28.7563C45.2594 28.3828 45.1745 28.0262 45.0386 27.6866C44.9028 27.347 44.682 27.0753 44.3764 26.8715C44.1047 26.6338 43.7311 26.5149 43.2557 26.5149C42.3727 26.5149 41.5577 26.8885 40.8105 27.6356C40.0974 28.3488 39.4521 29.3167 38.8748 30.5393C38.2974 31.7279 37.788 33.0863 37.3465 34.6145C36.9051 36.1428 36.5315 37.705 36.2258 39.3011C35.9542 40.8633 35.7334 42.4085 35.5636 43.9367C35.4278 45.465 35.3598 46.8064 35.3598 47.9611C35.3598 48.3007 35.3768 48.7252 35.4108 49.2346C35.4447 49.744 35.5466 50.2365 35.7164 50.7119C35.8862 51.1873 36.1409 51.5949 36.4805 51.9345C36.8541 52.2741 37.3465 52.4439 37.9578 52.4439C39.0106 52.4439 40.0294 51.7986 41.0143 50.5081C41.9992 49.1837 42.8651 46.8404 43.6123 43.4783H53.0364L50.9987 53.1061Z" fill="white"></path></svg> 