<?xml version="1.0" encoding="UTF-8"?> <svg xmlns="http://www.w3.org/2000/svg" width="80" height="80" viewBox="0 0 80 80" fill="none"><rect width="80" height="80" fill="#00ADEE"></rect><rect width="80" height="80" fill="white" fill-opacity="0.9"></rect><path d="M66.9778 41.1117C67.2814 33.5912 64.4042 26.2266 59.0875 20.9081C54.1549 15.9717 47.5984 13.1668 40.6317 13.0066C40.4257 13.001 40.2187 13.0002 40.0148 13.0002C31.1254 13.0002 22.8035 17.3748 17.7558 24.7047C17.6996 24.789 17.7076 24.8963 17.778 24.9693C17.8161 25.0085 17.8698 25.0297 17.9247 25.0297C17.965 25.0297 18.0044 25.0198 18.0368 24.9982C20.2207 23.5729 22.6648 22.6539 25.216 22.2832C26.0627 22.1599 26.9219 22.0972 27.7864 22.0972C36.8362 22.0972 44.347 28.8623 45.5273 37.602C45.6306 38.3787 45.6931 39.17 45.6931 39.9745C45.6931 44.1353 44.2452 48.1863 41.6141 51.3823C41.5436 51.4687 41.5516 51.5932 41.6331 51.6647C44.5339 54.3015 48.2904 55.7539 52.2129 55.7539C53.7439 55.7539 55.2615 55.5344 56.7197 55.0985C59.5703 54.2456 62.087 52.6195 64.0212 50.4141C65.5118 48.3871 66.1257 46.7184 66.3742 45.7827C66.7115 44.2475 66.9131 42.6842 66.9778 41.1117" fill="#00ADEE"></path><path d="M13.0218 38.8881C12.7183 46.4094 15.5945 53.7744 20.9113 59.0929C25.8472 64.0293 32.4004 66.8352 39.3679 66.9943C39.5739 66.9987 39.7813 67 39.9852 67C48.8746 67 57.1954 62.625 62.2443 55.2963C62.3001 55.2108 62.2922 55.1044 62.2229 55.0317C62.1836 54.9926 62.1287 54.97 62.0751 54.97C62.0346 54.97 61.9957 54.9802 61.962 55.0037C59.7803 56.4268 57.3353 57.3467 54.7849 57.7168C53.937 57.841 53.0778 57.9026 52.2133 57.9026C43.1626 57.9026 35.655 51.1388 34.4737 42.3966C34.369 41.6202 34.309 40.8301 34.3065 40.0265C34.3065 35.8645 35.7558 31.8135 38.3857 28.6197C38.456 28.5334 38.4464 28.4091 38.3665 28.3351C35.4669 25.6983 31.7093 24.2469 27.7871 24.2469C26.2537 24.2469 24.7382 24.4667 23.2823 24.9016C20.4306 25.7532 17.9139 27.3802 15.9776 29.5879C14.4889 31.613 13.8752 33.2826 13.6254 34.2171C13.2907 35.7523 13.0879 37.3156 13.0218 38.8881Z" fill="#00447C"></path></svg> 