<?xml version="1.0" encoding="UTF-8"?> <svg xmlns="http://www.w3.org/2000/svg" width="80" height="80" viewBox="0 0 80 80" fill="none"><rect width="80" height="80" fill="#4573D9"></rect><path opacity="0.4" d="M55.0789 18.9395C55.2194 19.08 57.0456 19.7824 56.6242 19.3609C56.2027 18.799 55.6408 18.3776 55.0789 18.0966C24.8761 0.958286 1.27572 41.978 24.1737 60.3805C25.0165 61.083 25.5785 61.5044 25.8594 61.6449C26.1404 61.6449 31.3381 65.4378 27.4047 59.3972C13.3568 37.0612 30.2143 6.99885 55.0789 18.9395ZM65.7552 36.9207C65.4743 33.6898 64.6315 30.4587 63.0862 27.5087C53.2527 15.7085 15.745 27.7896 28.669 58.1329C29.0904 58.9758 29.5118 59.5377 29.7928 59.3972C30.0737 59.2568 31.1976 59.1163 31.0571 58.2735C27.6856 34.5326 57.3266 28.773 65.7552 36.9207ZM35.4119 61.3639C35.5524 62.0664 35.5524 62.2067 35.8333 62.3473C35.9739 62.3473 38.6429 63.1901 38.6429 62.4878C39.4859 55.1829 59.4337 47.5971 60.8385 53.9186C62.5243 51.2495 64.3505 48.5804 65.1933 45.3493C65.1933 44.9279 65.3338 44.7875 65.3338 44.7875C63.6482 39.0279 30.3548 44.7875 35.4119 61.3639Z" fill="white"></path><path d="M62.9485 27.6487C60.8413 33.6893 41.3149 23.1534 38.3648 17.3937C38.0838 16.8318 37.8029 16.6914 37.6624 16.6914C37.522 16.8318 37.241 16.9723 37.1004 17.6747C35.2743 26.2439 54.6603 41.837 65.7581 37.9036C65.7581 37.9036 65.7581 37.6227 65.7581 37.2011C65.4772 33.6893 64.4938 30.4582 62.9485 27.6487ZM31.3408 19.7819C31.4814 18.939 31.6219 18.5176 31.3408 18.2366C31.0599 18.0961 30.6385 18.5176 29.9361 19.3605C17.855 35.7963 44.4053 60.8015 61.5438 54.3396C63.37 51.53 64.6342 48.4394 65.3367 45.2085C55.9245 52.2323 28.3908 35.5155 31.3408 19.7819ZM28.1099 17.1128C28.8123 16.4104 29.6552 15.8485 29.3742 15.708C29.2337 15.708 28.3908 15.989 27.4075 16.5509C8.5834 27.0868 12.9382 59.9586 37.522 65.8588C38.2243 65.8588 38.9268 65.9993 39.6291 65.9993C42.5792 65.9993 45.3887 65.4373 48.0579 64.5945C50.446 63.7515 51.7102 63.0492 54.0984 61.6445C54.3794 61.5039 54.6603 61.3634 54.8008 61.0825C33.4481 67.685 8.72388 35.2346 28.1099 17.1128Z" fill="white"></path></svg> 