<?xml version="1.0" encoding="UTF-8"?> <svg xmlns="http://www.w3.org/2000/svg" width="80" height="80" viewBox="0 0 80 80" fill="none"><rect width="80" height="80" fill="white"></rect><path d="M33.2064 0L4 58.4127V78.7302L40.8254 8.88889H50.9841L57.3333 21.5873H70.0317L59.873 0H33.2064Z" fill="#004799"></path><path d="M70.0317 25.3975H58.6031L54.1587 31.7467H33.2063L28.127 43.1752H57.3333L63.6825 55.8736L59.873 64.7625H71.3016L75.1111 55.2387L64.9524 36.1911L70.0317 25.3975Z" fill="#FF2D1E"></path><path d="M63.6826 80.0004L68.762 68.5719H20.508L17.9683 62.2227H16.6985L11.6191 72.3814L15.4287 80.0004H63.6826Z" fill="#FF2D1E"></path><path d="M5.26984 52.0635L30.6667 0H25.8254L4 41.9048V52.0635H5.26984Z" fill="#FF2D1E"></path><path d="M4 33.0159L20.5079 0H24.3175L4 38.0952V33.0159Z" fill="#004799"></path></svg> 