<?xml version="1.0" encoding="UTF-8"?> <svg xmlns="http://www.w3.org/2000/svg" width="80" height="80" viewBox="0 0 80 80" fill="none"><rect width="80" height="80" fill="white"></rect><path d="M28.3398 40V75.7018L37.7326 67.5877V61.7456H41.4573V67.1009L51.3358 75.7018V40H41.9431V52.1711H37.7326V40H28.3398Z" fill="#EC1F27"></path><path d="M38.5425 15.8202L5.82996 76.3509L0 65.8026L32.8745 5.27193L38.5425 15.8202Z" fill="#25326F"></path><path d="M25.587 61.2588V51.8465H21.7004L16.5182 61.2588H25.587Z" fill="#25326F"></path><path d="M25.587 67.9123V77H8.09717L12.9555 67.9123H25.587Z" fill="#25326F"></path><path d="M80 67.9123H53.6032V77H75.1417L80 67.9123Z" fill="#25326F"></path><path d="M71.0931 51.6842H53.6032V61.0965H66.2348L71.0931 51.6842Z" fill="#25326F"></path><path d="M59.2713 49.8991L33.8462 3H45.0202L70.4453 49.8991H59.2713Z" fill="#25326F"></path></svg> 