<?xml version="1.0" encoding="UTF-8"?> <svg xmlns="http://www.w3.org/2000/svg" width="80" height="80" viewBox="0 0 80 80" fill="none"><rect width="80" height="80" fill="#F5F8FA"></rect><path d="M40 10C23.4508 10 10 23.451 10 40C10 56.5492 23.4508 70 40 70C56.5492 70 70 56.5492 70 40C70 23.3753 56.5492 10 40 10ZM36.5239 63.199C25.1889 61.5365 16.4232 51.7129 16.4232 39.9245C16.4232 28.136 25.1133 18.3124 36.5239 16.6499V27.6827H32.141C28.5894 27.6827 25.7179 30.5542 25.7179 34.1058V45.6675C25.7179 49.2191 28.5894 52.0907 32.141 52.0907H36.5239V63.199ZM32.8211 45.743C32.4433 45.743 32.141 45.4408 32.141 45.063V34.937C32.141 34.5592 32.4433 34.257 32.8211 34.257H47.1789C47.5566 34.257 47.859 34.5592 47.859 34.937V45.063C47.859 45.4408 47.5566 45.743 47.1789 45.743H32.8211ZM43.4761 63.199V52.1663H47.859C51.4106 52.1663 54.2821 49.2948 54.2821 45.743V34.1813C54.2821 30.6297 51.4106 27.7582 47.859 27.7582H43.4761V16.7254C54.8111 18.3879 63.5769 28.2116 63.5769 40C63.5012 51.7884 54.8111 61.5365 43.4761 63.199Z" fill="#B50029"></path></svg> 