<?xml version="1.0" encoding="UTF-8"?> <svg xmlns="http://www.w3.org/2000/svg" width="80" height="80" viewBox="0 0 80 80" fill="none"><rect width="80" height="80" fill="#DB151C"></rect><rect width="80" height="80" fill="white" fill-opacity="0.9"></rect><path d="M25.0059 65.2633C25.0059 64.8403 31.7207 64.4209 40.0029 64.4209C48.2847 64.4209 54.9978 64.8403 54.9978 65.2633V66.162C54.9978 66.5815 48.2847 67 40.0029 67C31.7207 67 25.0059 66.5815 25.0059 66.162V65.2633Z" fill="#DB151C"></path><path d="M54.9973 53.6652L55 55.1855C55.0106 58.0656 48.3086 60.4284 40.0242 60.4607C31.7425 60.4869 25.0223 58.1756 25.0107 55.2923L25.0059 53.7787L54.9973 53.6652Z" fill="#DB151C"></path><path d="M39.9861 48.5009C31.7021 48.532 24.9961 50.8921 25.0059 53.7806C25.0139 56.6608 31.7376 58.9707 40.0207 58.9401C48.3002 58.9135 55.0053 56.5517 54.9973 53.6671C54.9863 50.8016 48.3459 48.5005 40.1368 48.5005C40.0867 48.5005 40.0362 48.5005 39.9861 48.5009Z" fill="#DB151C"></path><path d="M25.8586 24.2506C23.1021 32.0642 27.2024 40.6222 35.0151 43.3799C42.826 46.1328 51.3906 42.0378 54.1422 34.2247C56.8951 26.4103 52.7961 17.8479 44.9874 15.0959C43.3381 14.5142 41.6555 14.238 40.0008 14.238C33.8198 14.2384 28.0329 18.09 25.8586 24.2506" fill="#DB151C"></path></svg> 