<?xml version="1.0" encoding="UTF-8"?> <svg xmlns="http://www.w3.org/2000/svg" width="80" height="80" viewBox="0 0 80 80" fill="none"><rect width="80" height="80" fill="white"></rect><path d="M6.78447 31.0777C8.65416 21.7292 16.8625 15 26.3961 15H80L73.2155 48.9223C71.3458 58.2708 63.1375 65 53.6039 65H35H0L6.78447 31.0777Z" fill="#009B40"></path><path d="M6.78447 31.0777C8.65416 21.7292 16.8625 15 26.3961 15H80L69.5 21L11 58L0 65L6.78447 31.0777Z" fill="#B9D372"></path><path d="M14.2845 37.0777C16.1542 27.7292 24.3625 21 33.8961 21H70L65.7155 42.4223C63.8458 51.7708 55.6375 58.5 46.1039 58.5H36.25H10L14.2845 37.0777Z" fill="#8BBD3A"></path></svg> 