<?xml version="1.0" encoding="UTF-8"?> <svg xmlns="http://www.w3.org/2000/svg" width="80" height="80" viewBox="0 0 80 80" fill="none"><rect width="80" height="80" fill="#D3D3D3"></rect><path d="M25.71 24.8975C27.8486 24.8975 29.5918 25.1904 30.9395 25.7764C32.3164 26.3623 33.5176 27.124 34.543 28.0615V32.4121C33.8984 31.9434 33.166 31.4307 32.3457 30.874C31.5547 30.3174 30.6172 29.834 29.5332 29.4238C28.4785 28.9844 27.2041 28.7646 25.71 28.7646C23.5127 28.7646 21.5498 29.2627 19.8213 30.2588C18.0928 31.2549 16.7305 32.6318 15.7344 34.3896C14.7383 36.1182 14.2402 38.0811 14.2402 40.2783C14.2402 42.4756 14.7383 44.4385 15.7344 46.167C16.7305 47.8955 18.0928 49.2725 19.8213 50.2979C21.5498 51.2939 23.5127 51.792 25.71 51.792C27.9658 51.792 29.8848 51.4258 31.4668 50.6934C33.0781 49.9316 34.3965 49.1553 35.4219 48.3643V52.3193C34.3965 53.2275 33.0488 54.0186 31.3789 54.6924C29.7383 55.3369 27.8486 55.6592 25.71 55.6592C23.4834 55.6592 21.4326 55.2637 19.5576 54.4727C17.6826 53.6523 16.042 52.5391 14.6357 51.1328C13.2295 49.7266 12.1309 48.1006 11.3398 46.2549C10.5781 44.3799 10.1973 42.3877 10.1973 40.2783C10.1973 38.1689 10.5781 36.1914 11.3398 34.3457C12.1309 32.4707 13.2295 30.8301 14.6357 29.4238C16.042 28.0176 17.6826 26.9189 19.5576 26.1279C21.4326 25.3076 23.4834 24.8975 25.71 24.8975Z" fill="#006533"></path><path d="M53.791 25.5566L67.5459 55H62.7998L59.7236 47.9688H45.9248L42.8047 55H38.0586L51.8135 25.5566H53.791ZM52.8682 32.2363L47.5508 44.2334H58.0977L52.8682 32.2363Z" fill="#006533"></path></svg> 