<?xml version="1.0" encoding="UTF-8"?> <svg xmlns="http://www.w3.org/2000/svg" width="80" height="80" viewBox="0 0 80 80" fill="none"><rect width="80" height="80" fill="#F5F8FA"></rect><path d="M51.1113 35.4444V12.1111V11H73.3335L51.1113 35.4444Z" fill="white"></path><path fill-rule="evenodd" clip-rule="evenodd" d="M51.1113 35.4444L73.3335 11H51.1113V35.4444ZM53.3336 13.2222V29.6964L68.3101 13.2222H53.3336Z" fill="#010179"></path><path d="M51.1113 37.667V68.7781H80.0002L51.1113 37.667Z" fill="white"></path><path d="M51.1113 37.667V68.7781H80.0002L51.1113 37.667Z" fill="white"></path><path fill-rule="evenodd" clip-rule="evenodd" d="M53.3336 43.326V66.5559H74.9042L53.3336 43.326ZM51.1113 68.7781H80.0002L51.1113 37.667V68.7781Z" fill="#010179"></path><path d="M48.8892 11V35.4444H26.667L48.8892 11Z" fill="#010179"></path><path d="M48.8889 68.7781V37.667H24.4444L0 68.7781H48.8889Z" fill="#010179"></path><circle cx="68.8885" cy="37.6668" r="11.1111" fill="#010179"></circle><circle cx="68.8888" cy="37.6671" r="4.44444" fill="white"></circle></svg> 