<?xml version="1.0" encoding="UTF-8"?> <svg xmlns="http://www.w3.org/2000/svg" width="80" height="80" viewBox="0 0 80 80" fill="none"><rect width="80" height="80" fill="#50B848"></rect><path d="M40.2412 17V28.3184L49.4517 17H40.2412Z" fill="white"></path><path d="M20.4081 22.385C21.0505 21.3523 21.7407 20.5377 22.6962 19.772L23.4218 19.2793C24.1075 18.9063 24.7283 18.6582 25.4951 18.4675C25.9597 18.3844 26.3877 18.339 26.8663 18.3234C27.5059 18.3446 28.0535 18.4249 28.6751 18.5783C29.1111 18.7176 29.5058 18.8738 29.9197 19.0702C30.86 19.5889 31.5751 20.1727 32.295 20.9628L32.8358 21.6458C33.6292 22.8074 34.1423 23.9581 34.521 25.3023L34.7257 26.2161C34.7526 26.3619 34.7751 26.5068 34.7932 26.6461V17H19V26.6722C19.1959 25.6054 19.5099 24.2046 19.9913 23.1667L20.4081 22.385Z" fill="white"></path><path d="M56.0356 18.5645L40.2412 37.9752V42.3793C40.2597 42.2372 40.2838 42.0942 40.3079 41.9501L40.5118 41.0379C40.8916 39.6928 41.4056 38.5409 42.1977 37.379L42.7386 36.6932C43.3549 36.0235 43.9539 35.5047 44.728 35.0185C45.1263 34.7961 45.5134 34.6146 45.9301 34.4456C46.8604 34.1529 47.6558 34.0396 48.6375 34.0689L49.5465 34.2014C50.3069 34.3918 50.9281 34.6399 51.6106 35.0181C51.9896 35.2518 52.3313 35.4995 52.6782 35.7766C53.7053 36.6984 54.4203 37.6789 55.0463 38.9003L55.404 39.7233C55.6927 40.5002 55.8995 41.6425 56.036 42.4114C56.0356 42.4114 56.0356 18.5645 56.0356 18.5645Z" fill="white"></path><path d="M48.1685 50.6909C45.9402 50.6909 44.1246 47.8462 44.1246 44.3543C44.1246 40.8644 45.9402 38.0198 48.1685 38.0198C50.3997 38.0198 52.2173 40.8644 52.2173 44.3543C52.2173 47.8462 50.3997 50.6909 48.1685 50.6909ZM48.1685 36.3672C45.0119 36.3672 42.4395 39.9538 42.4395 44.3543C42.4395 48.7548 45.0123 52.3443 48.1685 52.3443C51.3235 52.3443 53.9 48.7548 53.9 44.3543C53.9024 39.9558 51.3235 36.3672 48.1685 36.3672Z" fill="white"></path><path d="M40.5118 47.676L40.3079 46.7598C40.2838 46.6149 40.2597 46.4727 40.2412 46.333V55.9812H56.0356V46.3808C55.8364 47.4504 55.5245 48.7733 55.0459 49.8136L54.6239 50.5966C53.9815 51.6256 53.2933 52.4371 52.3389 53.2064L51.6102 53.6962C50.9273 54.074 50.3065 54.3193 49.5461 54.51C49.0747 54.5932 48.6455 54.6393 48.1693 54.655C47.5317 54.6337 46.9809 54.5562 46.3597 54.4C45.9241 54.2599 45.5286 54.1033 45.1151 53.9102C44.1747 53.3882 43.4589 52.8061 42.7382 52.0171L42.1973 51.3293C41.4056 50.1718 40.8945 49.0179 40.5118 47.676Z" fill="white"></path><path d="M34.794 30.6006C34.7763 30.7427 34.7534 30.8849 34.7265 31.0306L34.5218 31.9436C34.1431 33.2887 33.63 34.4414 32.8366 35.6001L32.2954 36.2863C31.6827 36.9552 31.0781 37.4735 30.3032 37.963C29.9089 38.1806 29.5234 38.3633 29.1018 38.5331C28.1684 38.8286 27.381 38.9418 26.4001 38.9061L25.4947 38.7804C24.7283 38.5893 24.1071 38.3416 23.4214 37.963C23.0444 37.7265 22.7035 37.4788 22.3566 37.2025C21.3267 36.2779 20.6144 35.3038 19.9905 34.0788C19.4918 32.9329 19.2224 31.8525 19 30.6158V54.4142L34.794 35.0091V30.6006V30.6006Z" fill="white"></path><path d="M26.8666 34.9572C24.6375 34.9572 22.8171 32.1137 22.8171 28.6242C22.8171 25.1344 24.6375 22.2845 26.8666 22.2845C29.0926 22.2845 30.9066 25.1348 30.9066 28.6242C30.9066 32.1137 29.0926 34.9572 26.8666 34.9572ZM26.8666 20.6367C23.71 20.6367 21.1348 24.2225 21.1348 28.6238C21.1348 33.0219 23.71 36.6082 26.8666 36.6082C30.0197 36.6082 32.5925 33.0215 32.5925 28.6238C32.5925 24.2229 30.0197 20.6367 26.8666 20.6367Z" fill="white"></path><path d="M34.7939 44.667L25.583 55.9826H34.7939V44.667Z" fill="white"></path><path d="M55.5781 17H51.1394L19.4756 55.9821H23.8488L55.5781 17Z" fill="white"></path><path d="M38.8793 53.2988H36.1699V55.9821H38.8793V53.2988Z" fill="white"></path><path d="M57.4012 53.2988V55.9821C59.2525 55.9821 60.757 57.466 60.757 59.2961C60.757 61.1274 59.2525 62.6113 57.4012 62.6113C56.0381 62.6113 54.7926 62.3058 52.2049 61.6702C47.1909 60.442 41.0178 58.9259 36.0737 57.7134C27.1884 55.5356 19.0371 58.0061 19.0029 63.7785H21.7115C21.7115 61.6324 25.8683 60.2083 34.77 62.3889C42.4693 64.278 45.3649 64.9882 51.1634 66.4104C54.9918 67.3487 58.1299 67.1226 60.3852 66.0478L60.3936 66.0562C62.6489 64.9613 64.1995 62.6683 64.1995 60.0212C64.1999 56.3069 61.1541 53.2988 57.4012 53.2988Z" fill="white"></path></svg> 