<?xml version="1.0" encoding="UTF-8"?> <svg xmlns="http://www.w3.org/2000/svg" width="80" height="80" viewBox="0 0 80 80" fill="none"><rect x="0.000976562" width="80" height="80" fill="#F5F8FA"></rect><path d="M61.16 17L48.55 47.55C47.38 50.3233 46.145 52.685 44.845 54.635C43.5883 56.5417 42.1583 58.1017 40.555 59.315C38.9517 60.5283 37.175 61.4167 35.225 61.98C33.275 62.5 31.0433 62.76 28.53 62.76H24.5V51.32H27.75C29.3967 51.32 30.74 51.125 31.78 50.735C32.8633 50.3017 33.7733 49.565 34.51 48.525L18 17H32.365L41.01 35.785L47.64 17H61.16Z" fill="black"></path><path d="M61.16 17L48.55 47.55C47.38 50.3233 46.145 52.685 44.845 54.635C43.5883 56.5417 42.1583 58.1017 40.555 59.315C38.9517 60.5283 37.175 61.4167 35.225 61.98C33.275 62.5 31.0433 62.76 28.53 62.76H24.5V51.32H27.75C29.3967 51.32 30.74 51.125 31.78 50.735C32.8633 50.3017 33.7733 49.565 34.51 48.525L41.01 35.785L47.64 17H61.16Z" fill="#009637"></path></svg> 