<?xml version="1.0" encoding="UTF-8"?> <svg xmlns="http://www.w3.org/2000/svg" width="80" height="80" viewBox="0 0 80 80" fill="none"><rect y="0.000976562" width="80" height="80" fill="#002E67"></rect><path fill-rule="evenodd" clip-rule="evenodd" d="M59.3186 36.8742C59.0689 37.0878 58.8197 37.2642 58.5723 37.4825C56.8936 38.7614 54.219 39.7992 50.5489 40.7654C42.9206 42.8312 37.388 43.1124 31.1114 44.6537C29.8657 44.9721 28.5822 45.3639 27.4086 45.8633C28.5822 46.4715 29.8657 47.0053 31.1497 47.5065C33.715 46.7591 34.9327 46.4366 38.6354 45.8301C40.0621 45.5752 44.4126 44.7923 47.55 44.1565C53.223 42.9383 61.5299 40.298 59.3186 36.8742ZM55.6479 29.7379C54.4303 29.2059 52.9332 28.6675 51.3335 28.2431C50.6147 28.8141 49.8003 29.3107 48.5821 29.7797C50.5844 30.1303 52.0821 30.7013 53.7883 31.1681C54.074 31.3118 55.4286 30.0673 55.6479 29.7379ZM27.8697 37.3381C35.2872 35.1606 43.0609 34.4853 50.9412 32.3817C47.8748 31.5621 46.1577 31.2024 42.9206 31.597C38.211 32.168 33.0048 33.1617 28.5501 34.4848C26.7993 35.0214 17.6378 37.6233 20.2798 41.2614C20.2792 41.2986 21.8428 39.089 27.8697 37.3381ZM22.7706 49.8215C22.7346 50.5019 23.1653 51.1073 24.057 51.8575C24.1618 51.4973 24.3428 51.2166 24.5925 50.8593C23.9837 50.5339 23.3766 50.2161 22.7706 49.8215ZM26.2317 49.5053C26.7993 49.1456 27.4745 48.8232 28.2236 48.5391C27.1916 48.0729 26.0868 47.6153 25.0163 47.1142C24.5169 47.4349 24.0564 47.755 23.7002 48.0729C24.5536 48.5746 25.3766 49.0368 26.2317 49.5053ZM54.7161 33.7379C53.2235 34.451 51.0844 35.1612 48.0174 35.9132C45.4859 36.5535 39.3525 37.4452 32.758 38.8708C30.6893 39.3353 25.0169 40.6531 22.2357 43.0076C23.0203 43.6554 23.5192 43.7946 24.3749 44.294C25.5158 43.5437 27.085 42.8312 29.4058 42.2207C33.4298 41.1554 36.4642 40.6932 40.1033 40.0895C43.703 39.546 50.5105 38.1228 54.255 36.7648C55.5053 36.3399 56.6439 35.7688 57.4624 35.0861C57.2115 34.8055 54.7877 33.6285 54.7161 33.7379ZM56.8936 32.4143C57.6399 32.7723 58.3226 33.0226 58.9618 33.487C59.4228 32.593 59.137 32.022 58.1794 31.203C57.7854 31.6692 57.3547 32.0592 56.8936 32.4143ZM22.4161 45.7911C21.7357 45.4383 21.309 45.1525 20.7374 44.7929C20.4516 45.4383 21.0278 46.1462 21.5954 46.4715C21.8428 46.2207 22.167 46.007 22.4161 45.7911ZM53.9314 25.3199C53.7883 25.8193 53.2596 26.4252 52.8994 26.8198C54.0059 27.1056 55.1468 27.5278 56.2138 27.9224C56.0729 26.9241 54.932 25.9607 53.9314 25.3199ZM19.0616 31.6274C26.8353 26.5644 35.4298 23.5696 49.9756 26.1045C50.7602 25.6377 51.2218 25.1738 51.4406 24.2471C47.8003 22.9287 43.8456 22.4642 38.7488 22.5335C34.1812 22.6772 25.9442 24.3863 21.5278 26.9957L22.8777 25.3193C25.9442 23.4945 33.9653 21.108 39.9945 20.9991C44.2345 20.8949 46.4097 21.1412 51.4744 22.4968C51.0082 21.6469 49.9761 21.2151 48.4423 20.5026C43.5603 18.325 34.467 18.1091 27.0169 21.4264C27.9407 20.7855 28.8685 20.2122 30.0839 19.6853C32.5392 18.541 36.5713 17.4333 41.5964 17.5404C45.6291 17.612 50.4068 19.0032 53.3283 21.8932C53.8249 22.4968 54.113 23.1028 54.2195 23.5696C56.538 24.7465 57.8902 25.8513 58.6388 27.1354C58.9623 27.8135 59.0694 28.526 58.9245 29.3456C59.8867 29.9143 60.3535 30.416 60.8552 31.0638C61.1708 31.5976 61.4205 32.199 61.495 32.7425C61.5992 33.4504 61.6702 34.2723 60.9217 35.2362C61.7063 35.6308 62.3461 36.731 62.4228 37.2001C62.8128 38.9412 61.6708 40.6543 60.2115 41.9779C58.4973 43.4727 54.7178 45.2585 51.6508 46.0454C45.5936 47.5758 40.207 48.2212 35.9327 49.0059C37.8559 49.4681 40.4584 50.0781 44.7024 50.0781C53.79 50.0781 61.8128 45.7928 61.8128 45.7928C61.8128 45.7928 61.6376 46.3335 61.4566 46.8329C55.6806 50.3266 46.5208 51.7865 42.5953 51.6084C38.6371 51.4274 35.2883 50.8237 32.0077 49.8232C31.0083 50.1107 30.01 50.4331 29.0501 50.8238C34.0426 53.1055 37.8198 53.6067 42.0638 53.9251C46.4109 54.2499 53.617 53.2103 59.6737 51.0042C59.3885 51.2923 59.2464 51.7172 58.9635 51.9681C55.8587 53.6067 49.3026 55.2487 45.9859 55.3902C42.7024 55.5339 38.7116 55.3902 35.2162 54.747C32.2213 54.1433 29.758 53.2103 27.1927 52.0752C26.7322 52.4257 26.5186 52.8598 26.4081 53.3587C36.4315 58.6009 45.7688 58.7075 56.4337 55.3902L55.4658 56.3186C43.7362 61.0992 34.5741 59.2418 27.4762 55.8197C27.2288 55.7109 26.9436 55.6015 26.7322 55.46C27.4104 56.6044 32.825 60.5625 38.8868 61.0614C43.0621 61.4188 48.1588 60.704 51.1898 59.495L49.4091 60.4188C47.9441 61.1336 44.0603 62.7773 38.6371 62.4194C31.4012 61.9182 27.3336 58.7074 25.5169 57.0339C24.6589 56.2441 24.2712 55.3552 24.0192 54.2504C22.3789 53.3936 21.3451 52.4996 20.4917 51.1439C19.9923 50.3965 20.0971 49.5076 20.2042 48.7527L20.4236 48.117C19.6366 47.5414 18.8159 46.9355 18.4957 46.3341C17.7798 45.0483 18.2122 43.9383 18.7094 43.0838C18.2787 42.585 17.8863 42.0855 17.7134 41.5867C17.4998 41.0157 17.4637 40.4395 17.5301 39.8015C17.6727 38.7333 18.246 37.7356 18.9952 36.8765C20.561 35.0586 23.0627 33.6308 27.3004 32.2402C31.4756 30.8473 33.152 30.6314 36.2895 29.9161C39.9601 29.0644 44.3461 28.7809 48.0191 27.4968C37.782 25.7139 27.1612 27.3531 18.4963 33.3055L19.0616 31.6274Z" fill="white"></path></svg> 