<?xml version="1.0" encoding="UTF-8"?> <svg xmlns="http://www.w3.org/2000/svg" width="80" height="80" viewBox="0 0 80 80" fill="none"><rect width="80" height="80" fill="#016444"></rect><path d="M33.6833 48.4549C33.6833 35.2553 21.2278 30.6613 15 30.0143V40.2052C22.1822 41.7581 23.1689 46.3521 22.7645 48.4549C22.5704 53.696 17.5073 55.6533 15 55.9768V66.653C29.1702 66.653 33.3598 54.5209 33.6833 48.4549Z" fill="#FFDE18"></path><path d="M42.4184 14H15V24.4335H42.4184C53.4828 28.1217 54.9548 36.4847 54.3077 40.2052C54.3077 53.5989 42.1757 56.4621 36.1097 56.2194V66.653C59.4032 67.0412 65.0648 49.1829 64.9839 40.2052C65.5663 22.7351 50.1829 15.4558 42.4184 14Z" fill="#FFDE18"></path></svg> 