<svg width="80" height="80" viewBox="0 0 80 80" fill="none" xmlns="http://www.w3.org/2000/svg">
<rect width="80" height="80" rx="8" fill="white"/>
<g clip-path="url(#clip0_7446_5303)">
<path fill-rule="evenodd" clip-rule="evenodd" d="M64.0417 0H16.0632C7.18617 0 0 7.1768 0 16.0422V80H64.0417C72.9183 80 79.9989 72.8234 79.9989 63.9577V16.0422C80.1046 7.1768 72.9183 0 64.0417 0Z" fill="#1D478C"/>
<path d="M26.9168 31.0834H24.9645V22.083H15.3686C15.3686 24.3662 15.3521 26.1861 14.9716 27.9729C14.7565 29.0318 14.4256 30.0576 13.9292 31.0834H12.1259L12.0928 37.5192H15.319L15.4513 34.3427H23.459L23.6906 37.5192H26.9168V31.0834ZM17.6849 31.0834C17.9827 30.4215 18.2309 29.7432 18.4128 29.0483C18.7107 27.8405 18.8596 26.5998 18.9588 25.2431H21.1427V31.0834H17.6849Z" fill="white"/>
<path d="M47.2044 34.3427H51.142V25.2596H54.451V22.083H43.8789V25.2596H47.2044V34.3427Z" fill="white"/>
<path d="M34.3483 34.7894C35.8373 34.7894 36.9293 34.293 37.74 33.2672L37.7896 33.2838V34.5743H41.5122V22.3147H37.5911V23.5886L37.5414 23.6217C36.6811 22.6124 35.4568 22.083 34.1498 22.083C30.9898 22.083 28.5742 24.6971 28.5742 28.4527C28.5742 32.2415 30.9898 34.7894 34.3483 34.7894ZM35.1755 31.3315C33.6203 31.3315 32.545 30.1899 32.545 28.4527C32.545 26.699 33.6865 25.5408 35.1755 25.5408C36.6315 25.5408 37.7565 26.7817 37.7565 28.4527C37.7565 30.2065 36.5818 31.3315 35.1755 31.3315Z" fill="white"/>
<path d="M61.4254 34.7894C62.9146 34.7894 64.0066 34.293 64.8169 33.2672L64.8666 33.2838V34.5743H68.5894V22.3147H64.6683V23.5886L64.6186 23.6217C63.758 22.6124 62.534 22.083 61.2271 22.083C58.0671 22.083 55.6514 24.6971 55.6514 28.4527C55.6514 32.2415 58.0671 34.7894 61.4254 34.7894ZM62.2529 31.3315C60.6974 31.3315 59.622 30.1899 59.622 28.4527C59.622 26.699 60.7637 25.5408 62.2529 25.5408C63.7089 25.5408 64.8334 26.7817 64.8334 28.4527C64.8334 30.2065 63.6591 31.3315 62.2529 31.3315Z" fill="white"/>
<path d="M18.2212 59.6535C21.7783 59.6535 24.5413 57.0228 24.5413 53.2672C24.5413 49.7597 22.0596 47.3607 19.1973 47.3607C17.0961 47.3607 15.7394 48.4031 15.0115 49.6604L14.9619 49.6274C15.1108 46.8479 15.7229 45.5574 18.5521 45.0445L23.6313 44.118L22.6882 40.6602L17.8406 41.5204C12.6787 42.4139 11.5371 45.8055 11.504 51.3646C11.4875 55.8482 13.2412 59.6535 18.2212 59.6535ZM18.0557 56.1956C16.5998 56.1956 15.4748 55.0044 15.4748 53.3003C15.4748 52.1091 16.3185 50.7193 17.973 50.7193C19.4289 50.7193 20.5705 51.7947 20.5705 53.3995C20.5705 55.1036 19.3959 56.1956 18.0557 56.1956ZM31.7216 59.6535C33.2107 59.6535 34.3026 59.1569 35.1133 58.1312L35.1629 58.1478V59.4386H38.8855V47.1787H34.9644V48.4527L34.9148 48.4858C34.0544 47.4766 32.8301 46.9471 31.5231 46.9471C28.3631 46.9471 25.9476 49.5612 25.9476 53.3168C25.9476 57.1055 28.3631 59.6535 31.7216 59.6535ZM32.5489 56.1956C30.9937 56.1956 29.9182 55.054 29.9182 53.3168C29.9182 51.5631 31.0433 50.405 32.5489 50.405C34.0048 50.405 35.1298 51.6458 35.1298 53.3168C35.1298 55.0706 33.9552 56.1956 32.5489 56.1956ZM41.5161 59.4386H45.4372V55.054H49.3087V59.4386H53.2463V47.1787H49.3087V51.894H45.4372V47.1787H41.5161V59.4386ZM55.9265 59.4386H59.7815V55.9971L60.9729 54.5907L64.0501 59.4386H68.4838L63.9175 52.3903L68.2358 47.1787H63.6695L59.8312 52.0429H59.7815V47.1787H55.9265V59.4386Z" fill="white"/>
</g>
<defs>
<clipPath id="clip0_7446_5303">
<rect width="80" height="80" fill="white"/>
</clipPath>
</defs>
</svg>
