<?xml version="1.0" encoding="UTF-8"?> <svg xmlns="http://www.w3.org/2000/svg" width="80" height="80" viewBox="0 0 80 80" fill="none"><rect width="80" height="80" fill="#F5F8FA"></rect><path d="M67.1637 16.3753C67.0607 16.2712 66.8546 16.167 66.6485 16.167H58.5091C57.994 16.167 57.4788 16.5837 57.3758 17.1045L54.8001 41.3754C54.697 41.8962 53.1516 54.292 40.5819 54.292H27.9091C27.394 54.292 26.8788 54.7086 26.7758 55.2295L25.9515 63.4586C25.9515 63.667 25.9515 63.8753 26.1576 63.9795C26.2607 64.0837 26.4667 64.1878 26.6728 64.1878H39.3455C62.0122 64.1878 64.5879 41.8962 64.6909 40.9586L67.2667 16.8962C67.2667 16.6878 67.2667 16.4795 67.1637 16.3753ZM38.8304 26.1671H51.5031C52.0183 26.1671 52.5333 25.7503 52.6364 25.2295L53.4606 17.0003C53.4606 16.792 53.4606 16.5837 53.2546 16.4795C53.1516 16.3753 52.9455 16.2712 52.7395 16.2712H40.0667C17.4 16.167 14.7213 38.3545 14.6182 39.292L12.1455 63.5628C12.1455 63.7712 12.1455 63.9795 12.3516 64.0837C12.4546 64.1878 12.6606 64.292 12.8667 64.292H21.0062C21.5212 64.292 22.0364 63.8753 22.1395 63.3545L24.7152 39.0837C24.7152 38.5629 26.2607 26.1671 38.8304 26.1671ZM38.3152 38.3545H46.0425C48.103 38.3545 49.9576 36.6878 50.1637 34.7087L50.4728 31.6878C50.4728 31.4795 50.4728 31.2712 50.2667 31.167C50.1637 31.0628 49.9576 30.9587 49.7515 30.9587H46.8667C46.8667 30.9587 46.8667 30.9587 46.7637 30.9587H39.0364C35.3273 30.9587 29.5576 33.4587 28.8365 40.3336C28.1152 47.2087 33.3698 49.7086 37.0789 49.7086H43.5697C45.6304 49.7086 47.4849 48.042 47.691 46.0628L48 43.1461C48 42.9379 48 42.7295 47.794 42.6253C47.691 42.5211 47.4849 42.417 47.2788 42.417H44.291C44.291 42.417 39.1394 42.417 37.9031 42.417C36.6667 42.417 36.1516 41.167 36.2546 40.542C36.3576 39.8128 36.4606 38.3545 38.3152 38.3545Z" fill="#DB082B"></path></svg> 