<?xml version="1.0" encoding="UTF-8"?> <svg xmlns="http://www.w3.org/2000/svg" width="80" height="80" viewBox="0 0 80 80" fill="none"><rect width="80" height="80" fill="#F5F8FA"></rect><path d="M11.5996 35.0769C12.3996 30.7692 13.9996 26.6667 16.3996 22.9744L13.1996 19.6923C11.1996 17.641 10.9996 14.1538 13.1996 11.8974C15.1996 9.84615 18.5996 9.84615 20.7996 11.8974L23.7996 14.9744C27.1996 12.5128 31.3996 10.6667 35.5996 9.84615V5.53846C35.5996 2.46154 37.9996 0 40.7996 0C43.7996 0 45.9996 2.46154 45.9996 5.53846V9.64103C50.3996 10.4615 54.5996 12.3077 57.9996 14.7692L60.7996 11.8974C62.7996 9.84615 66.1996 9.64103 68.3996 11.8974C70.3996 13.9487 70.3996 17.4359 68.3996 19.6923L65.5996 22.5641C67.9996 26.0513 69.5996 30.1538 70.3996 34.6667H73.5996C76.5996 34.6667 78.9996 37.1282 78.9996 40C78.9996 43.0769 76.5996 45.3333 73.5996 45.3333H70.1996C69.3996 49.8462 67.5996 53.9487 65.1996 57.4359L67.7996 60.1026C69.7996 62.1538 69.9996 65.641 67.7996 67.8974C65.7996 69.9487 62.3996 69.9487 60.1996 67.8974L57.9996 65.641C54.5996 68.1026 50.5996 69.7436 46.1996 70.5641V74.4615C46.1996 77.5385 43.7996 80 40.9996 80C37.9996 80 35.7996 77.5385 35.7996 74.4615V70.5641C31.5996 69.7436 27.5996 68.1026 24.1996 65.641L21.3996 68.5128C19.3996 70.5641 15.9996 70.7692 13.7996 68.5128C11.7996 66.4615 11.7996 62.9744 13.7996 60.718L16.5996 57.8462C14.1996 54.359 12.3996 50.0513 11.5996 45.5385H6.9996C3.9996 45.5385 1.59961 43.0769 1.59961 40.2051C1.59961 37.1282 3.9996 34.8718 6.9996 34.8718H11.3996L11.5996 35.0769Z" fill="white"></path><path d="M14.1992 43.4865H7.79919C5.79919 43.4865 4.19922 42.0506 4.19922 40.4096C4.19922 38.7685 5.79919 37.3326 7.79919 37.3326H14.1992C14.7992 31.9993 16.7992 27.0762 19.9992 22.9737L15.7992 18.666C14.3992 17.2301 14.1992 15.1788 15.3992 13.948C16.5992 12.7172 18.5992 12.9224 19.9992 14.3583L24.1992 18.666C28.1992 15.3839 32.9992 13.1275 38.3992 12.5121V6.5634C38.3992 4.51212 39.7992 2.87109 41.3992 2.87109C42.9992 2.87109 44.3992 4.51212 44.3992 6.5634V12.5121C49.7992 13.1275 54.7992 15.3839 58.7992 18.666L62.7992 14.5634C64.1992 13.1275 66.1992 12.9224 67.3992 14.1531C68.5992 15.3839 68.3992 17.4352 66.9992 18.8711L62.9992 22.9737C66.1992 27.0762 68.1992 31.9993 68.7992 37.3326H73.9992C75.9992 37.3326 77.5992 38.7685 77.5992 40.4096C77.5992 42.0506 75.9992 43.4865 73.9992 43.4865H67.9992C67.3992 49.0249 65.1992 53.948 61.9992 58.0506L65.7992 62.1531C67.1992 63.589 67.3992 65.6403 66.1992 66.8711C64.9992 68.1019 62.9992 67.8967 61.5992 66.4608L57.5992 62.3583C53.5992 65.6403 48.7992 67.6916 43.5992 68.307V74.2557C43.5992 76.307 42.1992 77.948 40.5992 77.948C38.9992 77.948 37.5992 76.307 37.5992 74.2557V68.307C32.3992 67.6916 27.5992 65.6403 23.7992 62.5634L19.5992 66.8711C18.1992 68.307 16.1992 68.5121 14.9992 67.2813C13.7992 66.0506 13.9992 63.9993 15.3992 62.5634L19.5992 58.2557C16.7992 53.948 14.7992 49.0249 14.1992 43.4865ZM32.3992 38.7685C32.5992 37.5378 32.9992 36.5121 33.5992 35.4865L27.1992 29.1275C24.9992 31.7942 23.5992 35.2813 23.3992 38.9737L32.3992 38.7685ZM35.9992 32.8198C36.7992 32.2044 37.7992 31.7942 38.7992 31.589V22.3583C35.3992 22.7685 32.1992 24.2044 29.5992 26.4608L35.9992 32.8198ZM42.3992 31.3839C43.7992 31.589 45.1992 32.2044 46.1992 33.0249L52.3992 26.666C49.5992 24.2044 45.9992 22.7685 42.1992 22.3583L42.3992 31.3839ZM48.5992 35.6916C49.1992 36.7172 49.5992 37.7429 49.7992 38.9737H58.5992C58.1992 35.2813 56.9992 31.9993 54.7992 29.3326L48.5992 35.6916ZM49.7992 42.4608C49.5992 43.6916 48.9992 44.7172 48.3992 45.7429L54.5992 52.1019C56.7992 49.4352 58.1992 46.1531 58.5992 42.4608H49.7992V42.4608ZM45.9992 47.9993C44.9992 48.6147 43.7992 49.2301 42.3992 49.4352V58.4608C46.1992 58.2557 49.5992 56.6147 52.1992 54.3583L45.9992 47.9993ZM38.9992 49.2301C37.9992 49.0249 37.1992 48.6147 36.3992 48.2044L29.9992 54.7685C32.5992 56.8198 35.5992 58.2557 38.9992 58.666V49.2301ZM33.7992 45.7429C33.1992 44.7172 32.5992 43.6916 32.3992 42.2557H23.3992C23.7992 45.948 25.1992 49.4352 27.3992 52.1019L33.7992 45.7429Z" fill="#E53143"></path></svg> 