<?xml version="1.0" encoding="UTF-8"?> <svg xmlns="http://www.w3.org/2000/svg" width="80" height="80" viewBox="0 0 80 80" fill="none"><rect width="80" height="80" fill="#477CBE"></rect><path d="M57.7001 39.6002H60.1231C63.91 39.6002 66.8361 40.3682 68.9017 41.9041C70.9672 43.44 72 45.6115 72 48.4185C72 54.4695 68.0013 57.495 60.004 57.495H51.5432V28.4582H69.8947V33.5426H57.7001V39.6002ZM57.7001 52.4503H59.7656C61.8444 52.4503 63.3671 52.1193 64.3337 51.4572C65.3002 50.782 65.7835 49.769 65.7835 48.4185C65.7835 47.0812 65.2936 46.1212 64.3138 45.5387C63.334 44.9428 61.6524 44.6449 59.2691 44.6449H57.7001V52.4503Z" fill="white"></path><path d="M46.524 47.0367H40.3671V23.1241H32.4823V18H54.4089V23.1241H46.524V47.0367Z" fill="white"></path><path fill-rule="evenodd" clip-rule="evenodd" d="M29.1511 51.6842V38.9006C29.1511 35.563 26.4455 32.8574 23.108 32.8574C19.7704 32.8574 17.0648 35.563 17.0648 38.9006V51.6842C17.0648 51.6842 19.7704 51.6842 23.108 51.6842C26.4455 51.6842 29.1511 51.6842 29.1511 51.6842ZM23.108 27.279C16.6896 27.279 11.4865 32.4822 11.4865 38.9006V51.6842C11.4865 51.6842 17.8783 57.495 23.108 57.495C31.243 57.495 34.7295 51.6842 34.7295 51.6842V38.9006C34.7295 32.4822 29.5263 27.279 23.108 27.279Z" fill="white"></path><path d="M8 51.6842H38.2159V57.495H8V51.6842Z" fill="white"></path></svg> 