<?xml version="1.0" encoding="UTF-8"?> <svg xmlns="http://www.w3.org/2000/svg" width="80" height="80" viewBox="0 0 80 80" fill="none"><rect width="80" height="80" fill="#005A4A"></rect><g clip-path="url(#clip0)"><path d="M33.3713 28.9143C35.8669 26.6987 38.5229 25.7744 41.0622 25.7891C43.8934 25.8185 46.5787 27.0363 48.7531 28.9876C49.512 29.6919 50.2125 30.4548 50.84 31.2911C53.2042 34.5777 54.3863 38.7739 53.5544 42.97H66.1342H71.2128C71.5047 37.8055 69.4762 33.2572 66.1342 29.6185C62.2523 25.4223 56.6775 22.4879 50.84 21.5049C50.1395 21.3582 49.439 21.2995 48.7531 21.2261C46.1408 20.962 43.5286 21.0941 41.0622 21.6957C38.2602 22.3706 35.6334 23.6324 33.3713 25.5544C32.0725 26.6695 30.8904 28.0046 29.8981 29.5892C28.103 32.4209 26.8626 36.0302 26.4102 40.4612C27.4463 37.5121 28.6284 35.0765 29.8981 33.1104C30.9926 31.3792 32.1747 30 33.3713 28.9143Z" fill="white"></path><path d="M29.8975 25.7748C30.9629 24.6011 32.1303 23.6033 33.3708 22.7669C35.7204 21.1678 38.3327 20.1553 41.0617 19.6419C43.5718 19.1724 46.1695 19.143 48.7526 19.4805C48.8839 19.4805 49.0299 19.4805 49.0882 19.5391C49.0299 19.4805 48.8839 19.4805 48.7526 19.4071C46.2133 18.8056 43.6302 18.3947 41.0617 18.1747C38.464 17.9546 35.8809 17.9399 33.3708 18.1453C32.1887 18.2481 31.0358 18.3947 29.8975 18.6149C18.2663 20.7423 8.70746 28.6944 7 46.3303V58.5814C7.07298 58.7134 7.07298 58.9189 7.07298 59.1389H24.7459C21.5353 42.4422 24.3811 31.8343 29.8975 25.7748Z" fill="white"></path><path d="M70.103 51.583C68.6436 51.0842 67.3886 50.8054 66.2794 50.8054H66.1335C65.4476 50.8054 64.6741 50.8787 63.7693 51.0842V47.4602C63.7693 47.2401 63.8423 47.108 63.9882 47.0347C64.0466 46.9613 64.3385 46.888 64.6158 46.888C64.9514 46.888 65.5206 46.9613 66.1335 47.0347C66.3524 47.0347 66.4837 47.0347 66.761 47.108C67.6658 47.2401 68.5123 47.4602 69.1252 47.7389C69.8257 48.0177 70.176 48.2965 70.176 48.5752V49.2795H71.0808L71.0078 46.125H66.1335H58.7637V46.888H59.6685C60.1501 46.888 60.4419 47.0347 60.4419 47.3135C60.5003 47.3868 60.5003 47.4602 60.5003 47.5922V47.871V57.173V57.5252C60.5003 57.5985 60.5003 57.7306 60.4419 57.8039C60.4419 58.0827 60.1501 58.2294 59.6685 58.2294H58.7637V58.919H63.7693C64.3385 58.919 64.7471 58.919 65.0244 58.919C65.3017 58.919 65.6519 58.9924 66.1335 58.9924C66.2794 58.9924 66.4254 58.9924 66.6297 58.9924C68.3663 58.9924 69.7527 58.6402 70.7305 57.9507C71.7813 57.173 72.2628 56.2047 72.2628 55.0016C72.2628 53.2556 71.504 52.1405 70.103 51.583ZM67.8847 57.3198C67.4615 57.8773 66.907 58.1561 66.1335 58.3028C65.9292 58.3028 65.7249 58.3028 65.5789 58.3028C64.8201 58.2294 64.2655 58.0827 63.7693 57.7306V51.7884C64.1196 51.7151 64.5428 51.7151 65.0244 51.7151C65.4476 51.7151 65.7978 51.7151 66.1335 51.7884C66.6297 51.9351 67.0383 52.0672 67.4615 52.3459C68.162 52.7715 68.5123 53.6811 68.5123 55.0016C68.5123 55.9112 68.2934 56.6889 67.8847 57.3198Z" fill="white"></path><path d="M55.772 52.9034C54.9401 52.2872 53.9623 51.9938 52.8532 51.9351V51.8617C53.4808 51.8617 54.0353 51.715 54.6628 51.5096C55.2174 51.3042 55.699 51.0254 56.0492 50.5999C56.3995 50.1891 56.5454 49.6903 56.5454 49.1327C56.5454 48.3698 56.1222 47.6655 55.3633 46.9613C54.5169 46.3304 53.0575 45.9782 50.8393 46.0516H50.7663C49.9929 46.0516 49.3069 46.0516 48.7524 46.1249C48.5335 46.1249 48.3292 46.1249 48.1832 46.1249H43.3965V46.8879H44.3597C44.8559 46.8879 45.1331 47.0346 45.1331 47.3134C45.1915 47.3868 45.1915 47.4601 45.1915 47.5921V47.8709V57.173V57.5251C45.1915 57.5985 45.1915 57.7305 45.1331 57.8039C45.1331 58.0827 44.8559 58.2294 44.3597 58.2294H43.3965V58.919H48.4751H48.7524C49.234 58.919 49.6572 58.919 49.8615 58.919C50.1388 58.9923 50.4161 58.9923 50.6204 58.9923C50.6934 58.9923 50.7663 58.9923 50.8393 58.9923C51.0436 58.9923 51.2479 58.9923 51.4668 58.9923C53.2034 58.9923 54.5898 58.7135 55.5676 58.0093C56.4725 57.3197 56.954 56.4834 57.027 55.427C57.027 54.3119 56.6038 53.4756 55.772 52.9034ZM48.4751 47.4601C48.5335 47.3868 48.6794 47.3134 48.7524 47.24C49.234 47.0346 49.7156 46.8879 50.3431 46.8879C50.489 46.8879 50.6934 46.8879 50.8393 46.9613C51.1749 46.9613 51.5252 47.0346 51.8024 47.1813C52.1527 47.3868 52.43 47.6655 52.6489 48.0176C52.8532 48.3698 52.9846 48.7806 52.9846 49.2794C52.9846 49.837 52.7803 50.3945 52.43 50.7467C52.0798 51.1575 51.6711 51.3775 51.0436 51.4362H50.8393H50.562H50.3431H48.7524H48.4751V47.4601ZM52.5029 57.4518C52.0798 57.8772 51.5252 58.156 50.8393 58.2294C50.7663 58.3027 50.6204 58.3027 50.562 58.3027C49.8615 58.3027 49.3069 58.156 48.7524 57.8772C48.6794 57.8039 48.5335 57.7305 48.4751 57.6718V52.2139H48.7524H50.3431C50.489 52.2139 50.6934 52.2139 50.8393 52.2872C52.43 52.4192 53.2764 53.4023 53.2764 55.1483C53.2764 56.1313 52.9846 56.8942 52.5029 57.4518Z" fill="white"></path><path d="M40.7406 58.1561C40.259 58.1561 39.9817 57.8039 39.9817 57.2464V47.871V47.5922V47.3135C40.0547 47.0347 40.259 46.888 40.7406 46.888H41.0617H41.7184V46.125H41.0617H33.3708H30.1018V46.888H31.0796C31.6341 46.888 31.9844 46.9613 32.1157 47.0347C32.2617 47.1814 32.3346 47.4602 32.3346 47.7976C32.3346 48.6486 32.0427 49.8957 31.5612 51.6564C31.1233 53.1676 30.5688 54.5761 29.8975 55.8232C29.8245 55.9553 29.7515 56.0727 29.6786 56.2047C28.9197 57.5252 28.0879 58.1561 27.3144 58.1561L27.0371 62.0001H28.0149L28.0879 61.1638C28.1462 60.7383 28.4965 60.4009 29.27 60.1074C29.4597 60.0194 29.6786 59.9167 29.8975 59.8287C30.452 59.6086 31.0942 59.4325 31.8384 59.2711C32.393 59.1391 32.8892 59.0658 33.3708 58.9924C33.794 58.9924 34.1296 58.919 34.4799 58.919C35.1804 58.919 36.0852 59.0658 37.1213 59.2124C38.1721 59.4179 39.0769 59.6966 39.8358 60.0488C40.6092 60.3275 41.0179 60.7383 41.0179 61.1638V62.0001H41.0617H41.9956V58.1561H41.0617H40.7406ZM36.6398 57.2464V57.5252C36.6398 57.6719 36.6398 57.7306 36.6398 57.8039C36.5668 58.0094 36.2895 58.1561 35.9393 58.1561H33.3708H30.8023C30.3061 58.1561 30.0288 57.9507 30.1018 57.5252C30.1018 57.4518 30.2331 57.173 30.452 56.6889C30.6563 56.1313 30.8607 55.5738 31.0796 55.075C31.4298 54.2387 31.7655 53.2556 32.1157 52.1405C32.393 51.0842 32.7432 50.0424 33.0205 48.986C33.0935 48.5019 33.1665 48.2231 33.2248 48.0764C33.2248 47.7976 33.2978 47.6656 33.3708 47.4602C33.4437 47.3135 33.5167 47.2401 33.5751 47.1814C33.794 47.0347 34.0713 46.9613 34.4215 46.9613H36.0122C36.2895 46.9613 36.5084 46.9613 36.5668 47.0347C36.6398 47.1814 36.6398 47.3868 36.6398 47.871V57.2464V57.2464Z" fill="white"></path></g><defs><clipPath id="clip0"><rect x="7" y="18" width="65.6812" height="44" fill="white"></rect></clipPath></defs></svg> 