<?xml version="1.0" encoding="UTF-8"?> <svg xmlns="http://www.w3.org/2000/svg" width="80" height="80" viewBox="0 0 80 80" fill="none"><rect width="80" height="80" fill="#3E9A3C"></rect><path d="M16.1797 51.0002C14.799 51.0002 13.6076 50.6411 12.6055 49.9227C11.6034 49.1744 10.7349 47.9621 10 46.286L10.6681 45.6125C11.2916 46.8397 11.9708 47.7526 12.7057 48.3513C13.4406 48.92 14.3759 49.2043 15.5117 49.2043C17.0037 49.2043 18.1617 48.471 18.9857 47.0043C19.8096 45.5077 20.2661 43.5472 20.3552 41.1227H13.3404V39.3268H20.3552C20.2661 36.8125 19.8096 34.7621 18.9857 33.1757C18.184 31.5894 17.026 30.7962 15.5117 30.7962C14.2646 30.7962 13.2513 31.2751 12.4719 32.2329C11.6925 33.1608 11.2582 34.5526 11.1691 36.4084H10.5011C10.5011 34.4928 10.5456 33.1758 10.6347 32.4574C10.7238 31.7091 10.9576 31.0805 11.3362 30.5717C12.1156 29.524 13.7301 29.0002 16.1797 29.0002C17.7831 29.0002 19.1304 29.4941 20.2216 30.4819C21.3351 31.4397 22.159 32.7567 22.6935 34.4329C23.2502 36.0792 23.5286 37.9349 23.5286 40.0002C23.5286 42.0655 23.2502 43.9363 22.6935 45.6125C22.159 47.2587 21.3351 48.5757 20.2216 49.5635C19.1304 50.5213 17.7831 51.0002 16.1797 51.0002Z" fill="white"></path><path d="M46.3855 51.0002C44.5817 51.0002 42.9672 49.803 41.5419 47.4084L37.7005 40.8982V50.5513H34.6941V24.837C34.6941 23.3104 34.5382 22.188 34.2265 21.4696C33.9147 20.7213 33.2912 20.3472 32.3558 20.3472H31.6878V19.4492H34.6941C35.5181 19.4492 36.1305 19.5989 36.5313 19.8982C36.9545 20.1676 37.2551 20.6764 37.4332 21.4247C37.6114 22.173 37.7005 23.3104 37.7005 24.837V40.2247L41.876 32.3676C42.3882 31.4098 42.9783 30.6914 43.6464 30.2125C44.3367 29.7036 45.1941 29.4492 46.2185 29.4492H47.0536V30.5717C45.762 30.5717 44.7598 31.2451 44.0472 32.5921L40.3728 39.5513L44.2142 46.0615C44.8378 47.139 45.4502 47.9771 46.0515 48.5757C46.675 49.1744 47.3431 49.5485 48.0557 49.6982V50.5513C47.5658 50.8506 47.009 51.0002 46.3855 51.0002Z" fill="white"></path><path d="M62.6511 51.0002C61.1368 51.0002 59.8229 50.5213 58.7095 49.5635C57.596 48.5757 56.7498 47.2438 56.1708 45.5676C55.5918 43.8914 55.3023 42.0356 55.3023 40.0002C55.3023 37.9649 55.5918 36.1091 56.1708 34.4329C56.7498 32.7567 57.596 31.4397 58.7095 30.4819C59.8229 29.4941 61.1368 29.0002 62.6511 29.0002C64.1654 29.0002 65.4793 29.4941 66.5928 30.4819C67.7063 31.4397 68.5525 32.7567 69.1315 34.4329C69.7105 36.1091 70 37.9649 70 40.0002C70 42.0356 69.7105 43.8914 69.1315 45.5676C68.5525 47.2438 67.7063 48.5757 66.5928 49.5635C65.4793 50.5213 64.1654 51.0002 62.6511 51.0002ZM62.6511 49.2043C63.4751 49.2043 64.1988 48.8002 64.8224 47.9921C65.4682 47.1839 65.9581 46.0764 66.2922 44.6696C66.6485 43.2628 66.8266 41.7064 66.8266 40.0002C66.8266 38.2941 66.6485 36.7377 66.2922 35.3309C65.9581 33.924 65.4682 32.8166 64.8224 32.0084C64.1988 31.2002 63.4751 30.7962 62.6511 30.7962C61.8272 30.7962 61.0923 31.2002 60.4465 32.0084C59.8229 32.8166 59.333 33.924 58.9767 35.3309C58.6427 36.7377 58.4756 38.2941 58.4756 40.0002C58.4756 41.7064 58.6427 43.2628 58.9767 44.6696C59.333 46.0764 59.8229 47.1839 60.4465 47.9921C61.0923 48.8002 61.8272 49.2043 62.6511 49.2043Z" fill="white"></path></svg> 