<?xml version="1.0" encoding="UTF-8"?> <svg xmlns="http://www.w3.org/2000/svg" width="80" height="80" viewBox="0 0 80 80" fill="none"><rect width="80" height="80" fill="#1E4588"></rect><path d="M36.4395 63C31.718 63 26.9048 62.4958 22 61.4873V53.3737C27.7299 54.703 32.1764 55.3677 35.3393 55.3677C42.7195 55.3677 46.4096 53.3508 46.4096 49.3169V43.1973H28.0508V35.565H46.4096V30.3393C46.4096 28.5974 45.9053 27.3139 44.8969 26.4888C43.8884 25.6637 42.6966 25.1594 41.3214 24.9761C39.9462 24.7469 38.2043 24.6323 36.0957 24.6323C32.8869 24.6323 28.4175 25.297 22.6876 26.6263V18.5815C28.3259 17.5272 33.139 17 37.1271 17C41.711 17 45.4011 17.3209 48.1973 17.9626C50.9935 18.5585 53.1709 19.8421 54.7294 21.8132C56.3338 23.7384 57.136 26.6263 57.136 30.4768V50.0732C57.136 52.1819 56.6776 54.0613 55.7608 55.7115C54.844 57.3159 53.6522 58.5994 52.1853 59.562C50.2601 60.7997 47.8994 61.6936 45.1031 62.2436C42.3069 62.7479 39.419 63 36.4395 63Z" fill="white"></path></svg> 