<?xml version="1.0" encoding="UTF-8"?> <svg xmlns="http://www.w3.org/2000/svg" width="80" height="80" viewBox="0 0 80 80" fill="none"><rect x="0.000976562" width="80" height="80" fill="white"></rect><path d="M39.9858 66.8296C24.0652 66.8296 10.9774 53.9096 10.9774 37.8798C10.9774 28.9178 15.0567 20.8888 21.459 15.6021L28.0028 23.3484C23.7819 26.8823 21.204 32.0559 21.204 37.8798C21.204 48.1988 29.6459 56.765 39.9858 56.765C50.3257 56.765 58.7675 48.1988 58.7675 37.8798C58.7675 32.0559 56.1897 26.8823 51.9687 23.3484L58.5126 15.6021C64.9148 20.8888 68.9942 28.9178 68.9942 37.8798C68.9942 53.9096 55.9347 66.8296 39.9858 66.8296ZM79.9998 0L39.9858 0.000329971H0V79.9717L39.9858 80H79.9998V0Z" fill="#05145A"></path></svg> 