<?xml version="1.0" encoding="UTF-8"?> <svg xmlns="http://www.w3.org/2000/svg" width="80" height="80" viewBox="0 0 80 80" fill="none"><rect width="80" height="80" fill="#1176BC"></rect><path fill-rule="evenodd" clip-rule="evenodd" d="M34.3965 52.6513V51.1698L35.5073 51.0943C36.41 51.0445 36.976 50.8902 37.202 50.6299C37.4314 50.3712 37.5664 49.4923 37.6005 47.998C37.7014 44.982 37.7501 41.7137 37.7501 38.1963C37.7501 36.3276 37.742 34.2018 37.7274 31.8205C37.7095 30.3808 37.6282 29.4986 37.4785 29.1821C37.4053 29.023 37.2687 28.8944 37.0719 28.7964C36.8751 28.7016 36.0001 28.594 34.4469 28.4847V27C35.9334 27.0337 37.3891 27.0498 38.8138 27.0498C40.4711 27.0498 42.0683 27.0337 43.6036 27C44.2704 28.5458 44.96 30.0803 45.6757 31.6035C46.1831 32.6865 48.4243 37.2869 52.4009 45.3965C56.6084 37.07 59.5555 30.9351 61.2388 27C62.7205 27.0996 64.1273 27.1478 65.461 27.1478C67.0305 27.1478 68.5446 27.0996 70.0003 27V28.4847C68.3544 28.5827 67.4257 28.7257 67.2126 28.9121C66.9979 29.0953 66.8581 29.6625 66.7979 30.6137C66.6954 32.1515 66.6466 35.0711 66.6466 39.379C66.6466 41.5498 66.671 43.8427 66.7214 46.2594C66.7702 48.6728 66.8581 50.0434 66.9849 50.3712C67.0744 50.5608 67.198 50.7071 67.3606 50.8083C67.5233 50.9079 68.4032 51.0284 70.0003 51.1698V52.6513C67.9982 52.5549 66.2107 52.5067 64.638 52.5067C63.0555 52.5067 60.9054 52.5549 58.1844 52.6513V51.1698L59.2708 51.1297C60.1312 51.0943 60.6679 50.9754 60.881 50.7713C61.0973 50.5641 61.2355 50.0274 61.2974 49.1581C61.3559 48.284 61.3868 46.2562 61.3868 43.0602V32.0245C59.4823 35.7941 57.0475 40.7367 54.0891 46.8507C52.8774 49.3654 51.9308 51.4157 51.2494 53H50.0475C49.1236 50.9031 47.8892 48.2486 46.3392 45.0382L39.9556 32.0245V34.5055C39.9556 41.3698 39.9881 46.0987 40.0548 48.6905C40.0922 49.7671 40.2353 50.4291 40.4841 50.6814C40.733 50.932 41.6584 51.0943 43.2604 51.1698V52.6513C41.9918 52.5549 40.7216 52.5067 39.4514 52.5067C37.5631 52.5067 35.8781 52.5549 34.3965 52.6513Z" fill="white"></path><path fill-rule="evenodd" clip-rule="evenodd" d="M11.1027 52.6529V51.7145C11.7516 51.4189 12.3469 51.0782 12.8885 50.6862C13.1308 48.7757 13.2545 44.7618 13.2545 38.6414C13.2545 34.4653 13.2122 31.6984 13.126 30.3406C13.0886 29.6175 12.9617 29.1628 12.747 28.9716C12.5307 28.7836 11.615 28.6197 10 28.4847V27C12.9048 27.0996 15.1964 27.1494 16.883 27.1494L27.0546 27C28.1247 27 29.0892 27.0434 29.9512 27.1302L30.0813 27.3326C29.8276 28.6631 29.6438 30.4338 29.53 32.6464H28.0792C28.0158 30.874 27.9442 29.9276 27.8629 29.8039C27.7832 29.6834 27.5018 29.5661 27.0204 29.46C25.9925 29.2399 24.4198 29.129 22.3022 29.129C21.2629 29.129 20.0512 29.1789 18.6623 29.2785C18.4899 33.0304 18.389 36.0207 18.363 38.2413C19.682 38.3393 20.9214 38.3908 22.0826 38.3908C23.7952 38.3908 24.8248 38.3345 25.1712 38.2253C25.3794 38.153 25.529 37.9746 25.6152 37.6902C25.6884 37.4701 25.7762 36.6956 25.8738 35.3699H27.4774C27.414 37.4411 27.3847 38.786 27.3847 39.4095L27.4774 43.539H25.8738C25.786 41.9483 25.677 41.0276 25.542 40.7849C25.4688 40.6387 25.3013 40.5343 25.0427 40.4732C24.4279 40.3398 23.0471 40.2724 20.8921 40.2724C20.2155 40.2724 19.4218 40.3222 18.5143 40.4218C18.4882 41.0613 18.4752 41.7185 18.4752 42.3821C18.4752 45.8464 18.537 48.5105 18.6623 50.3744L22.3201 50.4275C24.4019 50.4275 26.3048 50.3102 28.0288 50.0788C28.3248 48.9588 28.6045 47.6894 28.8794 46.2658H30.4798C30.1675 48.4318 29.9854 50.511 29.9301 52.5067C28.8127 52.6047 27.736 52.6529 26.7065 52.6529C26.0299 52.6529 24.6979 52.6304 22.7088 52.5774C20.8531 52.5308 19.1469 52.5067 17.5856 52.5067C15.5331 52.5067 13.3748 52.5549 11.1027 52.6529Z" fill="white"></path></svg> 