<?xml version="1.0" encoding="UTF-8"?> <svg xmlns="http://www.w3.org/2000/svg" width="80" height="80" viewBox="0 0 80 80" fill="none"><rect width="80" height="80" fill="#3D90D5"></rect><rect width="80" height="80" fill="white" fill-opacity="0.9"></rect><path d="M40.5261 22.3052L36.889 23.6611L36.2383 22.3023L40.5261 22.3052Z" fill="#2350A9"></path><path d="M51.5509 22.6215L54.5344 26.7979L43.3271 25.7875L51.5509 22.6215Z" fill="#2350A9"></path><path d="M69.9312 22.3044L65.4788 24.0576L63.0957 22.3044H69.9312Z" fill="#2350A9"></path><path d="M33.7736 29.3706L30.2254 33.6162L25.7871 33.1416L33.7736 29.3706Z" fill="#2350A9"></path><path d="M17.0239 42.2449L16.6553 46.4937L10.0166 50.0898L17.0239 42.2449Z" fill="#2350A9"></path><path d="M56.8855 30.6564L63.1685 38.2852L52.707 37.1798L56.8855 30.6564Z" fill="#2350A9"></path><path d="M58.5057 50.1824L54.1967 59L51.9082 52.9168L58.5057 50.1824Z" fill="#2350A9"></path><path d="M35.9883 34.4298L44.6548 31.0458L47.0337 35.5576L35.9883 34.4298Z" fill="#2350A9"></path><path d="M36.2382 22.3014L36.8889 23.6602L33.7744 24.8135L36.2382 22.3014Z" fill="#3D90D5"></path><path d="M30.2257 33.6165L25.7878 38.8516L25.7871 33.1419L30.2257 33.6165Z" fill="#3D90D5"></path><path d="M69.9997 22.305L68.1839 26.0391L65.4785 24.0582L69.9309 22.305H69.9997" fill="#3D90D5"></path><path d="M16.6553 46.4938L16.1569 51.3066L10 50.1055L16.6553 46.4938Z" fill="#3D90D5"></path><path d="M63.1678 38.2862L47.9189 44.6426L52.7068 37.1797L63.1678 38.2862Z" fill="#3D90D5"></path><path d="M40.4677 47.3876L25.7275 53.5674V44.0552L40.4677 47.3876Z" fill="#3D90D5"></path><path d="M51.9085 52.9172L54.1969 59L43.0732 56.7398L51.9085 52.9172Z" fill="#3D90D5"></path><path d="M35.9883 34.4292L47.0337 35.5571L37.361 39.457L35.9883 34.4292Z" fill="#3D90D5"></path></svg> 