<svg width="80" height="80" viewBox="0 0 80 80" fill="none" xmlns="http://www.w3.org/2000/svg">
<rect width="80" height="80" fill="#F4F9FC"/>
<g clip-path="url(#clip0_6539_5283)">
<path d="M28.7158 33.9286C28.7158 27.9382 33.7497 23.0811 39.958 23.0811C46.1665 23.0811 51.2003 27.9382 51.2003 33.9286C51.2003 39.9191 46.1665 44.7762 39.958 44.7762C33.7497 44.7762 28.7158 39.9191 28.7158 33.9286Z" fill="#FF8F32"/>
<path d="M71 48.8232H9V56.9994H71V48.8232Z" fill="#FF8F32"/>
<path d="M13.1949 23C11.7686 23 10.3424 23.2429 9 23.8095V43.9666C14.7889 46.2333 21.3329 43.4809 23.682 37.8953C26.0311 32.3095 23.1786 25.9952 17.3897 23.8095C16.0474 23.3238 14.6211 23 13.1949 23Z" fill="#FF8F32"/>
<path d="M66.7176 23C68.1439 23 69.5702 23.2429 70.9126 23.8095V43.9666C65.1237 46.2333 58.5797 43.5618 56.2306 37.9762C53.8815 32.3905 56.65 26.0762 62.4389 23.8095C63.8652 23.3238 65.2915 23 66.7176 23Z" fill="#FF8F32"/>
</g>
<defs>
<clipPath id="clip0_6539_5283">
<rect width="62" height="34" fill="white" transform="translate(9 23)"/>
</clipPath>
</defs>
</svg>
