<?xml version="1.0" encoding="UTF-8"?> <svg xmlns="http://www.w3.org/2000/svg" width="80" height="80" viewBox="0 0 80 80" fill="none"><rect width="80" height="80" fill="#F5F8FA"></rect><circle cx="40" cy="40" r="30" fill="#054497"></circle><g clip-path="url(#clip0)"><path d="M60.0001 40.588C60.0001 39.7265 59.9494 38.865 59.8143 38.0204C59.4089 35.6049 58.3785 33.6454 55.8278 32.9191C53.8683 32.3616 51.9089 32.4799 50.0845 33.392C48.767 34.0508 47.5339 34.8785 46.1487 35.6893C46.1487 35.1319 46.1318 34.5914 46.1487 34.0339C46.1656 33.4934 45.9629 33.2569 45.3886 33.2738C44.2568 33.3076 43.1082 33.3076 41.9764 33.2738C41.3345 33.2569 41.1318 33.5103 41.1318 34.1184C41.1318 40.9596 41.1318 47.8177 41.1318 54.6589C41.1318 55.3177 41.4021 55.5542 42.044 55.5373C43.1758 55.5035 44.3244 55.5204 45.4562 55.5204C46.419 55.5204 46.4866 55.4528 46.4866 54.49C46.4866 49.9461 46.4866 45.4022 46.5035 40.8414C46.5035 40.5542 46.5372 40.1657 46.7062 40.0137C48.1251 38.8143 49.6285 37.7501 51.4866 37.3785C52.9731 37.0914 54.1217 37.8346 54.4089 39.3042C54.5947 40.267 54.696 41.2468 54.7129 42.2265C54.7467 46.3143 54.7298 50.4191 54.7298 54.5069C54.7298 55.4697 54.7636 55.5035 55.6927 55.5035C56.7737 55.5035 57.8717 55.5035 58.9528 55.5035C59.9832 55.5035 60.017 55.4697 60.017 54.4393C60.0001 49.8447 60.017 45.2164 60.0001 40.588Z" fill="white"></path><path d="M29.9155 24.2363C28.7669 24.1688 27.6014 24.0167 26.4358 24.0843C23.1081 24.287 21.0811 25.8411 20.3547 28.6958C20.152 29.4897 20.0169 30.3343 20.0169 31.162C20 39.0167 20.0169 46.8715 20 54.7262C20 55.3174 20.2196 55.5539 20.8108 55.537C21.9426 55.5201 23.0912 55.537 24.223 55.537C25.3041 55.537 25.3716 55.4694 25.3716 54.3714C25.3716 49.0167 25.3716 43.662 25.3716 38.3073C25.3716 38.0201 25.3716 37.7161 25.3716 37.3444C26.402 37.3444 27.3311 37.3275 28.2601 37.3444C28.8007 37.3613 29.0541 37.1248 29.0541 36.5843C29.0372 35.7566 29.0372 34.912 29.0541 34.0843C29.0709 33.4931 28.8007 33.2735 28.2264 33.2904C27.3142 33.3242 26.4189 33.2904 25.3716 33.2904C25.3716 32.7498 25.3716 32.3275 25.3716 31.9052C25.3716 29.0167 26.1655 28.2566 29.0709 28.4593C29.6115 28.4931 29.848 28.2735 29.9662 27.7836C30.1689 26.9559 30.3716 26.1113 30.6419 25.3005C30.8615 24.5911 30.5574 24.287 29.9155 24.2363Z" fill="white"></path><path d="M38.3785 33.1553C36.0643 33.1553 33.7501 33.1553 31.419 33.1553C30.8278 33.1553 30.5406 33.4087 30.5575 34.0337C30.5913 34.8614 30.5744 35.7059 30.5575 36.5336C30.5406 37.1418 30.7602 37.3276 31.3852 37.2769C32.2129 37.2093 33.0406 37.26 33.9528 37.26C33.9528 37.6316 33.9528 37.9357 33.9528 38.2228C33.9528 43.5269 33.9528 48.8309 33.9528 54.135C33.9528 55.537 33.9528 55.537 35.3886 55.537C36.3177 55.537 37.2636 55.537 38.1927 55.537C39.2737 55.537 39.3075 55.5032 39.3075 54.439C39.3075 48.2059 39.3075 41.9728 39.3075 35.7228C39.3075 35.1992 39.2906 34.6587 39.3075 34.135C39.3413 33.4593 39.0542 33.1553 38.3785 33.1553Z" fill="white"></path><path d="M34.0028 27.429C34.5772 26.8716 35.236 26.3817 35.7765 25.7905C36.0806 25.4526 36.2664 24.9797 36.4353 24.5405C36.486 24.4222 36.3001 24.0844 36.165 24.0337C35.9623 23.9662 35.6245 23.983 35.4893 24.1182C34.4758 25.1317 33.4961 26.1621 32.5333 27.2094C31.942 27.8344 31.8914 28.4594 32.2799 29.2195C32.8711 28.6114 33.4116 28.0033 34.0028 27.429Z" fill="white"></path><path d="M35.9796 29.0844C35.5066 29.7263 35.3039 30.4189 35.7262 31.1114C36.1654 30.5709 36.5877 30.0303 37.0438 29.5067C37.5337 28.9324 38.108 28.4256 38.5641 27.8344C39.358 26.8209 39.1215 25.6891 37.9728 24.9121C38.4796 26.1114 37.9053 26.9391 37.1789 27.7331C36.7735 28.1891 36.3343 28.6114 35.9796 29.0844Z" fill="white"></path><path d="M36.2839 31.3815C37.6014 31.4491 39.0541 30.0133 39.0879 28.7295C38.142 29.5234 37.1285 30.3511 36.1318 31.1788C36.1994 31.2464 36.2501 31.3139 36.2839 31.3815Z" fill="white"></path><path d="M34.7803 24.1182C33.3107 24.2702 32.0607 25.4864 32.2128 26.8209C33.108 25.8749 33.9695 24.9797 34.7803 24.1182Z" fill="white"></path></g><defs><clipPath id="clip0"><rect x="20" y="24" width="40" height="31.5371" fill="white"></rect></clipPath></defs></svg> 