<?xml version="1.0" encoding="UTF-8"?> <svg xmlns="http://www.w3.org/2000/svg" width="80" height="80" viewBox="0 0 80 80" fill="none"><rect width="80" height="80" fill="#8A2533"></rect><path d="M65 40.357C65 43.7371 64.8406 46.1712 64.5217 47.6593C64.0753 49.7214 63.1293 51.5815 61.6837 53.2397C59.4303 55.812 55.1892 57.0981 48.9605 57.0981H46.6008V62.6299H33.1441V57.0981H31.0714C24.8214 57.0981 20.5697 55.812 18.3163 53.2397C16.8707 51.5815 15.9247 49.7214 15.4783 47.6593C15.1594 46.1712 15 43.7371 15 40.357V39.4642C15 36.0841 15.1594 33.65 15.4783 32.1619C15.9247 30.0998 16.8707 28.2397 18.3163 26.5815C20.5485 24.073 24.8002 22.8188 31.0714 22.8188C31.5391 22.8188 32.23 22.7869 33.1441 22.7231V17H46.6008V22.7231C47.6849 22.7869 48.4715 22.8188 48.9605 22.8188C55.2317 22.8188 59.4728 24.073 61.6837 26.5815C63.1293 28.2397 64.0753 30.0998 64.5217 32.1619C64.8406 33.65 65 36.0841 65 39.4642V40.357ZM53.5847 43.2588V36.5943C53.5847 34.8298 53.2339 33.4161 52.5324 32.3532C51.8521 31.2903 51.0018 30.7588 49.9814 30.7588H46.6008V49.0624H49.9814C51.0018 49.0624 51.8521 48.5309 52.5324 47.468C53.2339 46.4051 53.5847 45.002 53.5847 43.2588ZM33.1441 49.0624V30.7588H30.0186C29.0195 30.7588 28.1692 31.2903 27.4676 32.3532C26.7873 33.4161 26.4472 34.8298 26.4472 36.5943V43.2588C26.4472 45.002 26.7873 46.4051 27.4676 47.468C28.1692 48.5309 29.0195 49.0624 30.0186 49.0624H33.1441Z" fill="white"></path></svg> 