<?xml version="1.0" encoding="UTF-8"?> <svg xmlns="http://www.w3.org/2000/svg" width="80" height="80" viewBox="0 0 80 80" fill="none"><rect width="80" height="80" fill="#266DC2"></rect><path fill-rule="evenodd" clip-rule="evenodd" d="M59.3186 36.8732C59.0689 37.0869 58.8197 37.2633 58.5723 37.4815C56.8936 38.7604 54.219 39.7982 50.5489 40.7644C42.9206 42.8303 37.388 43.1115 31.1114 44.6527C29.8657 44.9711 28.5822 45.3629 27.4086 45.8623C28.5822 46.4706 29.8657 47.0044 31.1497 47.5055C33.715 46.7581 34.9327 46.4356 38.6354 45.8291C40.0621 45.5742 44.4126 44.7913 47.55 44.1556C53.223 42.9374 61.5299 40.297 59.3186 36.8732ZM55.6479 29.737C54.4303 29.2049 52.9332 28.6665 51.3335 28.2421C50.6147 28.8131 49.8003 29.3097 48.5821 29.7788C50.5844 30.1293 52.0821 30.7003 53.7883 31.1671C54.074 31.3108 55.4286 30.0663 55.6479 29.737ZM27.8697 37.3372C35.2872 35.1596 43.0609 34.4844 50.9412 32.3807C47.8748 31.5611 46.1577 31.2014 42.9206 31.5961C38.211 32.1671 33.0048 33.1608 28.5501 34.4838C26.7993 35.0204 17.6378 37.6224 20.2798 41.2604C20.2792 41.2976 21.8428 39.088 27.8697 37.3372ZM22.7706 49.8205C22.7346 50.5009 23.1653 51.1063 24.057 51.8566C24.1618 51.4963 24.3428 51.2157 24.5925 50.8583C23.9837 50.533 23.3766 50.2151 22.7706 49.8205ZM26.2317 49.5043C26.7993 49.1447 27.4745 48.8222 28.2236 48.5381C27.1916 48.0719 26.0868 47.6143 25.0163 47.1132C24.5169 47.4339 24.0564 47.7541 23.7002 48.0719C24.5536 48.5736 25.3766 49.0358 26.2317 49.5043ZM54.7161 33.7369C53.2235 34.45 51.0844 35.1602 48.0174 35.9122C45.4859 36.5525 39.3525 37.4443 32.758 38.8698C30.6893 39.3343 25.0169 40.6521 22.2357 43.0067C23.0203 43.6544 23.5192 43.7936 24.3749 44.293C25.5158 43.5427 27.085 42.8303 29.4058 42.2197C33.4298 41.1544 36.4642 40.6922 40.1033 40.0886C43.703 39.545 50.5105 38.1218 54.255 36.7638C55.5053 36.3389 56.6439 35.7679 57.4624 35.0852C57.2115 34.8045 54.7877 33.6275 54.7161 33.7369ZM56.8936 32.4133C57.6399 32.7713 58.3226 33.0216 58.9618 33.4861C59.4228 32.592 59.137 32.021 58.1794 31.202C57.7854 31.6682 57.3547 32.0583 56.8936 32.4133ZM22.4161 45.7901C21.7357 45.4373 21.309 45.1516 20.7374 44.7919C20.4516 45.4373 21.0278 46.1452 21.5954 46.4706C21.8428 46.2197 22.167 46.0061 22.4161 45.7901ZM53.9314 25.3189C53.7883 25.8183 53.2596 26.4243 52.8994 26.8189C54.0059 27.1047 55.1468 27.5268 56.2138 27.9214C56.0729 26.9231 54.932 25.9598 53.9314 25.3189ZM19.0616 31.6264C26.8353 26.5634 35.4298 23.5686 49.9756 26.1035C50.7602 25.6367 51.2218 25.1728 51.4406 24.2461C47.8003 22.9277 43.8456 22.4632 38.7488 22.5325C34.1812 22.6763 25.9442 24.3853 21.5278 26.9947L22.8777 25.3183C25.9442 23.4936 33.9653 21.107 39.9945 20.9982C44.2345 20.8939 46.4097 21.1402 51.4744 22.4959C51.0082 21.6459 49.9761 21.2141 48.4423 20.5016C43.5603 18.3241 34.467 18.1081 27.0169 21.4254C27.9407 20.7845 28.8685 20.2112 30.0839 19.6843C32.5392 18.54 36.5713 17.4323 41.5964 17.5394C45.6291 17.611 50.4068 19.0022 53.3283 21.8922C53.8249 22.4959 54.113 23.1018 54.2195 23.5686C56.538 24.7456 57.8902 25.8504 58.6388 27.1344C58.9623 27.8126 59.0694 28.525 58.9245 29.3446C59.8867 29.9134 60.3535 30.4151 60.8552 31.0628C61.1708 31.5966 61.4205 32.198 61.495 32.7415C61.5992 33.4494 61.6702 34.2713 60.9217 35.2352C61.7063 35.6298 62.3461 36.73 62.4228 37.1991C62.8128 38.9402 61.6708 40.6533 60.2115 41.9769C58.4973 43.4717 54.7178 45.2575 51.6508 46.0444C45.5936 47.5748 40.207 48.2203 35.9327 49.0049C37.8559 49.4671 40.4584 50.0771 44.7024 50.0771C53.79 50.0771 61.8128 45.7919 61.8128 45.7919C61.8128 45.7919 61.6376 46.3325 61.4566 46.8319C55.6806 50.3256 46.5208 51.7855 42.5953 51.6074C38.6371 51.4264 35.2883 50.8228 32.0077 49.8222C31.0083 50.1097 30.01 50.4322 29.0501 50.8228C34.0426 53.1046 37.8198 53.6057 42.0638 53.9241C46.4109 54.2489 53.617 53.2094 59.6737 51.0032C59.3885 51.2913 59.2464 51.7162 58.9635 51.9671C55.8587 53.6057 49.3026 55.2477 45.9859 55.3892C42.7024 55.5329 38.7116 55.3892 35.2162 54.746C32.2213 54.1424 29.758 53.2094 27.1927 52.0742C26.7322 52.4247 26.5186 52.8588 26.4081 53.3577C36.4315 58.5999 45.7688 58.7065 56.4337 55.3892L55.4658 56.3176C43.7362 61.0982 34.5741 59.2408 27.4762 55.8187C27.2288 55.7099 26.9436 55.6005 26.7322 55.4591C27.4104 56.6034 32.825 60.5616 38.8868 61.0604C43.0621 61.4178 48.1588 60.703 51.1898 59.494L49.4091 60.4178C47.9441 61.1326 44.0603 62.7763 38.6371 62.4184C31.4012 61.9172 27.3336 58.7065 25.5169 57.0329C24.6589 56.2431 24.2712 55.3543 24.0192 54.2495C22.3789 53.3926 21.3451 52.4986 20.4917 51.1429C19.9923 50.3955 20.0971 49.5066 20.2042 48.7518L20.4236 48.116C19.6366 47.5404 18.8159 46.9345 18.4957 46.3331C17.7798 45.0473 18.2122 43.9373 18.7094 43.0828C18.2787 42.584 17.8863 42.0846 17.7134 41.5857C17.4998 41.0147 17.4637 40.4385 17.5301 39.8005C17.6727 38.7323 18.246 37.7346 18.9952 36.8755C20.561 35.0577 23.0627 33.6298 27.3004 32.2392C31.4756 30.8464 33.152 30.6304 36.2895 29.9151C39.9601 29.0634 44.3461 28.7799 48.0191 27.4958C37.782 25.7129 27.1612 27.3521 18.4963 33.3045L19.0616 31.6264Z" fill="white"></path></svg> 