<?xml version="1.0" encoding="UTF-8"?> <svg xmlns="http://www.w3.org/2000/svg" width="80" height="80" viewBox="0 0 80 80" fill="none"><rect width="80" height="80" fill="#F5F8FA"></rect><path fill-rule="evenodd" clip-rule="evenodd" d="M52.9112 30.6843C52.9112 30.6843 52.9112 27.2181 52.4716 26.7848C50.7134 23.7519 37.9663 24.6185 21.2632 29.3845C16.8677 30.6843 11.1535 32.8507 6.31836 35.0171V35.4503C8.51613 34.5838 11.1535 33.7172 13.7908 32.8507C26.5379 29.3845 42.8014 28.0847 49.8343 28.9512C50.7134 28.9512 51.153 29.3845 51.5925 29.3845C51.5925 29.3845 51.5925 29.3845 52.0321 29.3845C52.0321 29.3845 52.0321 29.3845 51.5925 29.3845C51.153 29.8178 50.2739 30.6843 49.3947 31.1176C50.7134 31.1176 51.5925 31.1176 52.9112 30.6843Z" fill="#929295"></path><path fill-rule="evenodd" clip-rule="evenodd" d="M59.5046 45.8496C58.186 46.2829 57.3068 46.7162 56.4277 47.1494C57.3068 46.7162 58.6255 46.2829 59.5046 45.8496Z" fill="#00549D"></path><path fill-rule="evenodd" clip-rule="evenodd" d="M74.8892 38.4838C74.8891 38.4448 74.8891 38.4058 74.8891 38.4058L74.8892 38.4838C74.8892 38.4838 74.8892 33.2845 74.4497 32.8512C71.3728 28.5185 52.0324 29.8183 26.9777 36.7507C20.824 38.9171 12.4724 41.95 5 44.9829V45.8495C8.07688 44.5497 11.5933 43.6831 15.1098 42.8166C34.8897 37.184 59.0653 35.0176 69.6146 36.7507C70.9332 36.7507 71.8123 37.184 72.2519 37.184C69.6146 39.7836 64.7795 43.2498 59.0653 45.8495C66.0981 43.2498 74.8892 40.6502 74.8892 38.4838C74.8892 38.9171 74.8892 38.9171 74.8892 38.4838Z" fill="#0059A5"></path><path fill-rule="evenodd" clip-rule="evenodd" d="M67.8563 49.3154V45.8492C65.6586 43.2495 53.351 43.2495 37.0875 48.4488C31.8128 49.7487 28.736 51.0485 26.0986 52.3483V53.2149C27.8569 52.3483 30.0546 51.9151 31.3733 51.4818C51.5928 46.2825 57.7466 47.149 64.7795 48.0156C65.6586 48.0156 66.0981 48.4488 66.5377 48.4488C64.7795 50.182 61.7026 52.3483 57.7466 54.0814C62.1421 52.3483 67.8563 50.6152 67.8563 49.3154Z" fill="#929295"></path></svg> 