<svg width="80" height="80" viewBox="0 0 80 80" fill="none" xmlns="http://www.w3.org/2000/svg">
<rect width="80" height="80" fill="#C8102E"/>
<g clip-path="url(#clip0_6203_8213)">
<path d="M18.4067 38.6013L15.3988 34.2958L12.4287 38.6013H8L13.0963 31.2599L8.31991 24.2354H12.7436L15.3988 28.1404L18.0515 24.2354H22.5407L17.7769 31.1256L22.9085 38.6013H18.4067Z" fill="white"/>
<path d="M31.0828 38.8373C29.9693 38.8373 28.9263 38.6523 27.9766 38.2873C27.0244 37.9224 26.1905 37.3978 25.4927 36.7288C24.7974 36.0624 24.2482 35.2692 23.8603 34.3696C23.4748 33.47 23.2783 32.4766 23.2783 31.4198C23.2783 30.3632 23.4748 29.3672 23.8603 28.4702C24.2457 27.5705 24.8 26.7749 25.5027 26.1084C26.2056 25.4419 27.0394 24.9174 27.9841 24.5524C28.9288 24.185 29.9642 24 31.0651 24C32.166 24 33.2166 24.185 34.1536 24.5524C35.0908 24.9174 35.9196 25.4419 36.6174 26.1084C37.3127 26.7749 37.8669 27.5655 38.2574 28.455C38.6504 29.3495 38.8494 30.3454 38.8494 31.4173C38.8494 32.4893 38.6504 33.4725 38.2574 34.3797C37.8644 35.2844 37.3127 36.0801 36.6149 36.739C35.9196 37.3978 35.0908 37.9199 34.1536 38.2848C33.2166 38.6497 32.1862 38.8373 31.0853 38.8373H31.0828ZM31.0626 27.3526C30.4958 27.3526 29.9718 27.4489 29.4982 27.6415C29.0271 27.8341 28.6089 28.1129 28.2512 28.4727C27.8935 28.8326 27.6139 29.2633 27.4174 29.755C27.2184 30.2491 27.1201 30.8092 27.1201 31.4173C27.1201 32.0255 27.2209 32.5704 27.4174 33.0721C27.6139 33.5713 27.8935 34.0072 28.2437 34.3671C28.5938 34.7244 29.012 35.0031 29.4881 35.1957C29.9667 35.3883 30.4958 35.4871 31.0626 35.4871C31.6294 35.4871 32.156 35.3908 32.6271 35.1983C33.0981 35.0057 33.5163 34.7269 33.874 34.3671C34.2317 34.0072 34.5113 33.5764 34.7078 33.0848C34.9068 32.5907 35.0051 32.0306 35.0051 31.4224C35.0051 30.8142 34.9043 30.2542 34.7078 29.7601C34.5113 29.2659 34.2317 28.8351 33.8815 28.4753C33.5315 28.1179 33.1132 27.8392 32.6371 27.6466C32.1585 27.454 31.6269 27.3552 31.0626 27.3552V27.3526Z" fill="white"/>
<path d="M43.3718 38.9028C42.6136 38.9028 41.8226 38.733 41.024 38.4011L40.7519 38.287L41.6966 35.2917L41.9988 35.3804C42.4901 35.5248 42.9285 35.5984 43.3038 35.5984C43.6792 35.5984 43.6111 35.5857 43.7498 35.5578C44.1704 35.4767 44.5609 35.1599 44.9136 34.6125L44.9186 34.6075L39.3789 24.2354H43.4877L46.9113 31.2118L50.4558 24.2354H54.29L48.2288 35.5704C47.6897 36.5891 47.0373 37.3824 46.2941 37.9323C45.5409 38.4872 44.702 38.809 43.8026 38.8851C43.659 38.8977 43.5155 38.9028 43.3693 38.9028H43.3718Z" fill="white"/>
<path d="M68.3929 38.6013L68.3778 31.2422L64.866 37.1517H63.1001L59.5883 31.3689V38.6013H55.9834V24.2354H59.0971L64.022 32.4459L68.864 24.2354H71.9777L72.0003 38.6013H68.3929Z" fill="white"/>
<path d="M8.80371 56.8854V42.5195H20.4549V45.6948H12.585V47.869H16.0413C17.7569 47.869 19.0946 48.2415 20.0116 48.979C20.9512 49.7341 21.4273 50.834 21.4273 52.2505C21.4273 53.6671 20.9008 54.8607 19.8629 55.6817C18.8477 56.4825 17.4118 56.8879 15.5929 56.8879H8.80371V56.8854ZM15.4191 53.885C16.1497 53.885 16.7089 53.7456 17.0767 53.4694C17.4218 53.2109 17.5906 52.8384 17.5906 52.3291C17.5906 51.8197 17.3664 50.8492 15.4191 50.8492H12.585V53.885H15.4191Z" fill="white"/>
<path d="M34.752 56.8854L33.5429 53.9458H27.6505L26.4362 56.8854H22.4912L28.8571 42.5195H32.3916L38.7777 56.8854H34.7545H34.752ZM32.2833 50.8871L30.6029 46.8073L28.9151 50.8871H32.2833Z" fill="white"/>
<path d="M50.0758 56.8854V51.2596H44.526V56.8854H40.7246V42.5195H44.526V47.9273H50.0758V42.5195H53.8773V56.8854H50.0758Z" fill="white"/>
<path d="M66.4127 56.885L61.9285 51.4392L61.2962 52.0879V56.885H57.6309V42.5166H61.2962V47.4023L66.0801 42.5166H70.917L64.6593 48.9355L71.2244 56.885H66.4127Z" fill="white"/>
</g>
<defs>
<clipPath id="clip0_6203_8213">
<rect width="64" height="33" fill="white" transform="translate(8 24)"/>
</clipPath>
</defs>
</svg>
