<?xml version="1.0" encoding="UTF-8"?> <svg xmlns="http://www.w3.org/2000/svg" width="80" height="80" viewBox="0 0 80 80" fill="none"><rect width="80" height="80" fill="#F5F8FA"></rect><path d="M24.8184 28.4832C25.0366 29.8868 25.4073 31.2624 25.9237 32.5856C27.7785 32.0367 29.6929 31.7142 31.6251 31.6251C32.2082 25.3783 33.9569 20.2538 39.9915 15.3093C41.1585 16.2613 42.2382 17.3156 43.2175 18.4597C44.5907 17.848 46.0125 17.352 47.4681 16.9768C45.3646 14.2668 42.8404 11.9113 39.9915 10C33.8061 14.5027 29.1191 19.7631 27.7799 27.7799C26.7786 27.9502 25.7893 28.1852 24.8184 28.4832V28.4832Z" fill="#2E56A6"></path><path d="M28.4833 55.1649C29.8868 54.9471 31.2624 54.5768 32.5857 54.0606C32.0367 52.2055 31.7143 50.2907 31.6254 48.3581C25.3713 47.7797 20.2449 46.0162 15.3094 39.9914C16.2618 38.8251 17.3161 37.7459 18.4599 36.7666C17.8481 35.3937 17.3521 33.9721 16.9769 32.5166C14.267 34.6196 11.9115 37.1432 10 39.9914C14.4943 46.1635 19.747 50.8625 27.7802 52.2044C27.9503 53.2054 28.1852 54.1943 28.4833 55.1649Z" fill="#2E56A6"></path><path d="M52.2059 27.7797C52.0353 26.7785 51.8005 25.7894 51.5029 24.8184C50.0986 25.0363 48.7223 25.4069 47.3984 25.9234C47.9501 27.7776 48.2726 29.6923 48.3587 31.6249C54.6249 32.2106 59.7391 33.9668 64.6757 39.9913C63.7236 41.1583 62.6693 42.238 61.5253 43.2176C62.1367 44.5909 62.6328 46.0126 63.0082 47.4681C65.7185 45.3644 68.0743 42.8401 69.9861 39.9913C65.4826 33.8065 60.2226 29.1195 52.2059 27.7797Z" fill="#2E56A6"></path><path d="M55.1654 51.5019C54.9481 50.0976 54.5777 48.7212 54.0609 47.3975C52.2061 47.9477 50.2913 48.2701 48.3586 48.3577C47.7821 54.6163 46.014 59.7401 39.9922 64.6745C38.8258 63.7222 37.7465 62.6679 36.7671 61.5241C35.3943 62.1357 33.9729 62.6318 32.5176 63.007C34.6203 65.7175 37.1438 68.0734 39.9922 69.9852C46.1907 65.4726 50.8681 60.2034 52.2059 52.204C53.2065 52.034 54.1951 51.7994 55.1654 51.5019Z" fill="#2E56A6"></path><path d="M37.4019 21.1249C36.5635 22.2721 35.8528 23.5072 35.2822 24.8084C36.9824 25.7305 38.564 26.856 39.9922 28.1602C44.836 24.142 49.696 21.7711 57.4468 22.5394C57.5974 24.0378 57.6147 25.5466 57.4986 27.048C58.9025 27.5853 60.2588 28.2396 61.5533 29.004C61.9828 25.6001 61.8638 22.1494 61.2007 18.7832C53.6104 17.5998 46.6084 18.0007 39.9922 22.7219C39.1642 22.1341 38.299 21.6007 37.4019 21.1249V21.1249Z" fill="#2E56A6"></path><path d="M21.1248 42.5825C22.2716 43.4217 23.5068 44.1329 24.8083 44.7036C25.7298 43.0027 26.8553 41.4204 28.1598 39.9919C24.1551 35.1649 21.7677 30.305 22.5393 22.5393C24.0376 22.3871 25.5466 22.369 27.0482 22.4855C27.5858 21.0821 28.2399 19.7262 29.0039 18.432C25.6 18.0044 22.1498 18.123 18.7833 18.7832C17.5889 26.4072 18.0211 33.4063 22.7217 39.9919C22.134 40.82 21.6006 41.6854 21.1248 42.5825V42.5825Z" fill="#2E56A6"></path><path d="M58.8605 37.4007C57.7132 36.5627 56.4782 35.852 55.1771 35.2812C54.2552 36.9819 53.129 38.5637 51.8235 39.9913C55.8294 44.8174 58.2162 49.6797 57.446 57.4456C55.9476 57.5966 54.4387 57.614 52.9372 57.4977C52.3986 58.9013 51.7441 60.2576 50.9805 61.5526C54.3839 61.9818 57.8341 61.8628 61.1999 61.2C62.3866 53.6578 61.994 46.6212 57.2634 39.9913C57.8508 39.1629 58.3843 38.2976 58.8605 37.4007V37.4007Z" fill="#2E56A6"></path><path d="M42.5823 58.859C43.4217 57.7127 44.1331 56.478 44.7039 55.1769C43.0038 54.2531 41.4217 53.1272 39.9919 51.8235C35.151 55.8421 30.2847 58.2143 22.5394 57.4455C22.387 55.9473 22.369 54.4386 22.4854 52.9372C21.0824 52.3981 19.7266 51.7436 18.4318 50.9805C18.003 54.3839 18.1217 57.834 18.7834 61.1999C26.3258 62.3859 33.3621 61.9939 39.9919 57.2632C40.8201 57.8504 41.6853 58.3835 42.5823 58.859V58.859Z" fill="#2E56A6"></path></svg> 