<?xml version="1.0" encoding="UTF-8"?> <svg xmlns="http://www.w3.org/2000/svg" width="80" height="80" viewBox="0 0 80 80" fill="none"><rect width="80" height="80" fill="white"></rect><path fill-rule="evenodd" clip-rule="evenodd" d="M40 73.9394C58.7442 73.9394 73.9394 58.7442 73.9394 40C73.9394 21.2558 58.7442 6.06061 40 6.06061C21.2558 6.06061 6.06061 21.2558 6.06061 40C6.06061 58.7442 21.2558 73.9394 40 73.9394ZM40 80C62.0914 80 80 62.0914 80 40C80 17.9086 62.0914 0 40 0C17.9086 0 0 17.9086 0 40C0 62.0914 17.9086 80 40 80Z" fill="#CB0202"></path><path d="M18.4848 18.4848H38.4848V24.5455H24.5455V30.6061H36.9697V49.0909H24.5455V55.4545H38.4848V61.5152H18.4848V43.0303H30.9091V36.6667H18.4848V18.4848Z" fill="#CB0202"></path><path d="M61.8182 18.4848H41.8182V24.5455H55.7576V30.6061H43.3333V49.0909H55.7576V55.4545H41.8182V61.5152H61.8182V43.0303H49.3939V36.6667H61.8182V18.4848Z" fill="#CB0202"></path></svg> 