<?xml version="1.0" encoding="UTF-8"?> <svg xmlns="http://www.w3.org/2000/svg" width="80" height="80" viewBox="0 0 80 80" fill="none"><rect width="80" height="80" fill="#F5F8FA"></rect><path d="M52.7552 40C52.7552 37.4772 52.007 35.0108 50.6055 32.9133C49.2038 30.8155 47.2117 29.1805 44.881 28.2151C42.5502 27.2496 39.9854 26.9971 37.5112 27.4893C35.0369 27.9813 32.764 29.1963 30.9801 30.9802C29.1962 32.7642 27.9813 35.037 27.4892 37.5114C26.9971 39.9858 27.2497 42.5505 28.2151 44.8814C29.1806 47.2122 30.8154 49.2044 32.9131 50.6061C35.0106 52.0077 37.4768 52.7558 39.9996 52.7558C43.3827 52.7558 46.6271 51.4119 49.0192 49.0197C51.4112 46.6276 52.7552 43.3829 52.7552 40Z" fill="#106E53"></path><path d="M18.8672 18.7066L24.9996 24.8392C29.0021 20.8784 34.4056 18.6568 40.0364 18.6568C45.6673 18.6568 51.0707 20.8784 55.0732 24.8392L61.2056 18.7066C55.5863 13.1296 47.9902 10 40.0732 10C32.1563 10 24.5602 13.1296 18.9408 18.7066" fill="#B91C6B"></path><path d="M40 61.3773C37.1895 61.3822 34.4057 60.8328 31.8078 59.7606C29.2098 58.6883 26.8489 57.1144 24.8598 55.1288C22.8708 53.1431 21.2929 50.7848 20.2162 48.1887C19.1396 45.5925 18.5854 42.8095 18.5854 39.999H10C10 47.9556 13.1607 55.5866 18.7868 61.2128C24.4129 66.839 32.0435 69.9998 40 69.9998C47.9565 69.9998 55.5871 66.839 61.2132 61.2128C66.8392 55.5866 70 47.9556 70 39.999H61.4145C61.4129 42.809 60.8576 45.5913 59.7805 48.1868C58.7032 50.7821 57.1252 53.1398 55.1365 55.1251C53.1479 57.1105 50.7875 58.6846 48.1903 59.7573C45.5931 60.8301 42.8101 61.3806 40 61.3773Z" fill="#106E53"></path></svg> 