<svg width="80" height="80" viewBox="0 0 80 80" fill="none" xmlns="http://www.w3.org/2000/svg">
<g clip-path="url(#clip0_6204_8202)">
<path d="M80 0H0V80H80V0Z" fill="#1948EF"/>
<path d="M27 28.1543C27 35.4232 32.89 41.3133 40.1574 41.3133C47.4248 41.3133 53.3141 35.4232 53.3141 28.1543C53.3141 20.89 47.4248 15 40.1574 15C32.89 15 27 20.89 27 28.1543Z" fill="#F56E28"/>
<path d="M27 28.1543C27 35.4232 32.89 41.3133 40.1574 41.3133C47.4248 41.3133 53.3141 35.4232 53.3141 28.1543C53.3141 20.89 47.4248 15 40.1574 15C32.89 15 27 20.89 27 28.1543Z" stroke="#F25C19" stroke-width="0.3"/>
<path d="M27 48.3315C27 50.2673 32.89 51.8389 40.1574 51.8389C47.4248 51.8389 53.3141 50.2673 53.3141 48.3315C53.3141 46.3911 47.4248 44.8203 40.1574 44.8203C32.89 44.8203 27 46.3911 27 48.3315Z" fill="#F56E28"/>
<path d="M27 48.3315C27 50.2673 32.89 51.8389 40.1574 51.8389C47.4248 51.8389 53.3141 50.2673 53.3141 48.3315C53.3141 46.3911 47.4248 44.8203 40.1574 44.8203C32.89 44.8203 27 46.3911 27 48.3315Z" stroke="#F25C19" stroke-width="0.3"/>
<path d="M40.1574 55.3486C49.6328 55.3486 53.3141 56.2658 53.3141 57.5426C53.3141 58.817 49.6328 59.7373 40.1574 59.7373C30.6789 59.7373 27 58.817 27 57.5426C27 56.2658 30.6789 55.3486 40.1574 55.3486Z" fill="#F56E28"/>
<path d="M40.1574 55.3486C49.6328 55.3486 53.3141 56.2658 53.3141 57.5426C53.3141 58.817 49.6328 59.7373 40.1574 59.7373C30.6789 59.7373 27 58.817 27 57.5426C27 56.2658 30.6789 55.3486 40.1574 55.3486Z" stroke="#F25C19" stroke-width="0.3"/>
<path d="M40.1574 63.2432C51.8447 63.2432 53.3141 63.5045 53.3141 64.1214C53.3141 64.7383 51.8447 65.0004 40.1574 65.0004C28.4647 65.0004 27 64.7383 27 64.1214C27 63.5045 28.4647 63.2432 40.1574 63.2432Z" fill="#F56E28"/>
<path d="M40.1574 63.2432C51.8447 63.2432 53.3141 63.5045 53.3141 64.1214C53.3141 64.7383 51.8447 65.0004 40.1574 65.0004C28.4647 65.0004 27 64.7383 27 64.1214C27 63.5045 28.4647 63.2432 40.1574 63.2432Z" stroke="#F25C19" stroke-width="0.3"/>
</g>
<defs>
<clipPath id="clip0_6204_8202">
<rect width="80" height="80" fill="white"/>
</clipPath>
</defs>
</svg>
