<svg width="80" height="80" viewBox="0 0 80 80" fill="none" xmlns="http://www.w3.org/2000/svg">
<rect width="80" height="80" fill="#205596"/>
<path d="M21 56.8253V27.7349H28.5542V56.8253H21Z" fill="white"/>
<path d="M58.772 48.3434C58.772 51.1707 57.6013 53.3795 55.2599 54.9699C52.9627 56.5602 49.782 57.3554 45.7178 57.3554C41.7419 57.3554 38.6937 56.7369 36.5732 55.5C34.4527 54.2189 33.039 52.253 32.3322 49.6024L38.9587 48.6084C39.3563 49.9779 40.019 50.9498 40.9467 51.5241C41.8744 52.0984 43.4648 52.3855 45.7178 52.3855C47.8382 52.3855 49.3844 52.1205 50.3563 51.5904C51.3282 51.0161 51.8141 50.1546 51.8141 49.006C51.8141 48.0783 51.4166 47.3494 50.6214 46.8193C49.8704 46.2892 48.5672 45.8253 46.7117 45.4277C42.4708 44.5884 39.5993 43.8153 38.0973 43.1084C36.5953 42.3574 35.4467 41.4076 34.6515 40.259C33.9005 39.1104 33.525 37.6968 33.525 36.0181C33.525 33.2349 34.5852 31.0703 36.7057 29.5241C38.8262 27.9779 41.8523 27.2048 45.784 27.2048C49.2298 27.2048 52.0129 27.8896 54.1334 29.259C56.2539 30.5843 57.5571 32.506 58.0431 35.0241L51.4166 35.753C51.1957 34.5602 50.6656 33.6767 49.8262 33.1024C48.9868 32.5281 47.6394 32.241 45.784 32.241C43.9728 32.241 42.6254 32.4618 41.7419 32.9036C40.8583 33.3454 40.4166 34.1185 40.4166 35.2229C40.4166 36.0623 40.7479 36.7249 41.4105 37.2108C42.1174 37.6968 43.288 38.0944 44.9226 38.4036C47.1756 38.8896 49.1856 39.3755 50.9527 39.8614C52.7639 40.3474 54.1997 40.9438 55.2599 41.6506C56.3202 42.3133 57.1595 43.1747 57.778 44.2349C58.4407 45.2952 58.772 46.6647 58.772 48.3434Z" fill="white"/>
<path d="M29 21C29 23.2091 27.2091 25 25 25C22.7909 25 21 23.2091 21 21C21 18.7909 22.7909 17 25 17C27.2091 17 29 18.7909 29 21Z" fill="white"/>
</svg>
