<?xml version="1.0" encoding="UTF-8"?> <svg xmlns="http://www.w3.org/2000/svg" width="80" height="80" viewBox="0 0 80 80" fill="none"><rect width="80" height="80" fill="white"></rect><path d="M40.1361 42.9851V29.8507C18.5626 26.5075 23.3306 8.55721 28.4113 0C15.7484 5.25373 12.9735 15.7214 13.169 20.2985C14.5759 38.4478 31.7333 42.9851 40.1361 42.9851Z" fill="#000095"></path><path d="M38.9633 42.9851V29.8507C60.5369 26.5075 55.7689 8.55721 50.6882 0C63.351 5.25373 66.1259 15.7214 65.9305 20.2985C64.5235 38.4478 47.3662 42.9851 38.9633 42.9851Z" fill="#000095"></path><path d="M40.1354 46.5672C4.02288 42.2687 7.89208 18.5075 14.3407 7.16418C6.36813 13.3731 4.76533 23.6816 4.9605 28.0597C5.89849 55.2836 28.8013 61.2935 40.1354 60.8955V46.5672Z" fill="#000095"></path><path d="M40.1198 46.5672C76.2324 42.2687 72.3632 18.5075 65.9145 7.16418C73.8871 13.3731 75.4899 23.6816 75.2948 28.0597C74.3568 55.2836 51.454 61.2935 40.1198 60.8955V46.5672Z" fill="#000095"></path><path d="M40.1355 80V64.4776C7.82127 60.6622 0.877105 39.8608 1.44099 29.8936C-7.00277 67.6592 23.7191 79.0335 40.1355 80Z" fill="#000095"></path><path d="M39.8645 80V64.4776C72.1787 60.6622 79.1229 39.8608 78.559 29.8936C87.0028 67.6592 56.2809 79.0335 39.8645 80Z" fill="#000095"></path></svg> 