<svg width="80" height="80" viewBox="0 0 80 80" fill="none" xmlns="http://www.w3.org/2000/svg">
<path d="M80 0H0V80H80V0Z" fill="#526BA6"/>
<path d="M71.9188 7.66406H8.09961V72.3511H71.9188V7.66406Z" fill="white"/>
<path fill-rule="evenodd" clip-rule="evenodd" d="M9.32812 9.2373C29.7937 9.2373 50.3134 9.2373 70.6705 9.2373V70.7062C50.3134 70.7062 29.7937 70.7062 9.32812 70.7062V9.2373Z" fill="#526BA6"/>
<path fill-rule="evenodd" clip-rule="evenodd" d="M11.2271 22.2003H16.3435V12.293H67.7966C67.7966 30.9325 67.7966 49.5721 67.7966 68.1574C50.6395 68.1574 33.4463 68.1574 16.2531 68.1574V65.1924H11.1367L11.2271 22.2003Z" fill="white"/>
<path fill-rule="evenodd" clip-rule="evenodd" d="M13.6865 24.4971C20.3216 24.4971 26.9566 24.4971 33.682 24.4971C27.1916 30.8971 20.7916 37.279 14.4097 43.6609C20.7916 50.2236 27.1916 56.7863 33.682 63.331H13.6865V24.4971Z" fill="#526BA6"/>
<path fill-rule="evenodd" clip-rule="evenodd" d="M37.8575 24.3701H41.9614C35.236 30.752 28.4744 37.2063 21.7851 43.6424C28.4744 50.2594 35.236 56.8763 41.9614 63.5294H37.8575C31.0838 56.9125 24.3524 50.2835 17.6631 43.6424C24.4066 37.2063 31.0778 30.752 37.8575 24.3701Z" fill="#526BA6"/>
<path fill-rule="evenodd" clip-rule="evenodd" d="M44.0586 32.415H64.9942V63.4207H44.0586V63.0772C44.5162 63.1057 44.9751 63.1057 45.4326 63.0772C55.1411 63.1314 63.0959 57.3461 63.0959 50.1145C63.0959 42.8828 55.1411 37.0071 45.4326 37.0071H44.0586V32.415Z" fill="#526BA6"/>
<path fill-rule="evenodd" clip-rule="evenodd" d="M45.3424 41.2735C48.1447 41.2735 50.3684 45.4859 50.3684 50.7289C50.3684 55.9718 48.1447 60.1481 45.3424 60.1481C42.5402 60.1481 40.2803 55.8633 40.2803 50.6746C40.2803 45.4859 42.4859 41.2554 45.3424 41.2735Z" fill="#B4966A"/>
<path fill-rule="evenodd" clip-rule="evenodd" d="M44.2946 41.1836C47.0788 41.1836 49.3206 45.3961 49.3206 50.639C49.3206 55.8819 47.0788 60.0582 44.2946 60.0582C41.5104 60.0582 39.2324 55.7735 39.2324 50.5848C39.2324 45.3961 41.4923 41.0752 44.2946 41.1836Z" fill="url(#paint0_linear)"/>
<defs>
<linearGradient id="paint0_linear" x1="35.9239" y1="38.6526" x2="52.6833" y2="62.5893" gradientUnits="userSpaceOnUse">
<stop stop-color="#B4966A"/>
<stop offset="0.5" stop-color="#FEF0C7"/>
<stop offset="1" stop-color="#B4966A"/>
</linearGradient>
</defs>
</svg>
