<svg width="80" height="80" viewBox="0 0 80 80" fill="none" xmlns="http://www.w3.org/2000/svg">
<rect width="80" height="80" fill="#62B641"/>
<path d="M38.6033 39.4859L60.1255 15H26.7585C23.0388 15 20.0045 18.0343 20.0045 21.754V57.7923C19.9944 58.0847 20.0045 58.2863 20.0045 58.3569L20.0146 58.5081C20.0246 58.6694 20.0246 58.8306 20.0448 58.9919L20.065 59.2843H20.0851C20.5892 62.5101 23.3815 65 26.7484 65H64.0771L38.6033 39.4859ZM23.5428 58.5484L23.5226 58.2056V57.9133C23.5428 57.4698 23.6537 56.4819 24.2182 55.7359C24.2888 55.6452 24.8331 55.0302 25.4581 54.3347L36.2545 42.1472L55.5589 61.4718H26.7484C25.075 61.4617 23.694 60.1814 23.5428 58.5484ZM26.7484 18.5282H52.313L34.9037 38.3367L23.5327 51.1794V21.754C23.5327 19.9798 24.9742 18.5282 26.7484 18.5282Z" fill="white"/>
</svg>
