<?xml version="1.0" encoding="UTF-8"?> <svg xmlns="http://www.w3.org/2000/svg" width="80" height="80" viewBox="0 0 80 80" fill="none"><rect width="80" height="80" fill="#F5F8FA"></rect><path fill-rule="evenodd" clip-rule="evenodd" d="M52 17H28C21.9249 17 17 21.9249 17 28V52C17 58.0751 21.9249 63 28 63H52C58.0751 63 63 58.0751 63 52V28C63 21.9249 58.0751 17 52 17ZM28 12C19.1634 12 12 19.1634 12 28V52C12 60.8366 19.1634 68 28 68H52C60.8366 68 68 60.8366 68 52V28C68 19.1634 60.8366 12 52 12H28Z" fill="#B0CB1F"></path><path d="M33.8462 48.6155C38.2769 56.0001 34.8718 67.2822 32.6154 72.0001H40V8C23.2615 27.2 31.5897 35.4872 38.1538 36.9231C38.6462 44.8 36.5128 46.1539 35.0769 46.154C34.5846 28.4309 16.8205 31.795 8 35.6924C17.8462 60.3078 29.3333 54.5642 33.8462 48.6155Z" fill="#053F6A"></path><path d="M46.1538 48.6156C41.7231 56.0003 45.1282 67.2823 47.3846 72.0002L40 72.0001V8C56.7385 27.2 48.4103 35.4873 41.8462 36.9232C41.3538 44.8001 43.4872 46.1541 44.9231 46.1541C45.4154 28.431 63.1795 31.7951 72 35.6926C62.1538 60.3079 50.6667 54.5644 46.1538 48.6156Z" fill="#053F6A"></path></svg> 