<?xml version="1.0" encoding="UTF-8"?> <svg xmlns="http://www.w3.org/2000/svg" width="80" height="80" viewBox="0 0 80 80" fill="none"><rect width="80" height="80" fill="#8E1215"></rect><path d="M42.5263 19.3684C39.3684 19.3684 36.8421 20.8421 34.9474 23.5789C33.4737 25.6842 32 28.4211 30.7368 31.7895C29.4737 34.9474 28.2105 38.7368 27.3684 42.5263C26.5263 46.5263 26.1053 50.5263 26.1053 54.3158C26.1053 56.4211 26.5263 58.3158 27.5789 60C28.6316 61.6842 30.1053 62.7368 32.2105 62.9474V63.5789H20C20 61.6842 20.2105 59.1579 20.4211 56.2105C20.8421 53.2632 21.2632 49.6842 22.1053 45.6842C22.9474 41.6842 24.2105 37.6842 25.6842 33.6842C27.1579 29.6842 29.0526 25.8947 31.3684 22.3158C32 21.4737 32.4211 20.4211 32.4211 19.3684C32.4211 17.6842 31.7895 16.8421 30.3158 16.6316V16H60V16.6316C58.1053 16.8421 56.8421 17.8947 56.4211 19.3684C56 20.8421 55.5789 22.9474 55.5789 25.4737V54.7368C55.5789 56.4211 55.5789 57.8947 55.7895 58.9474C56 60 56.4211 60.8421 57.0526 61.6842C57.6842 62.5263 58.7368 62.9474 60 63.1579V63.7895H43.7895V63.1579C45.0526 62.9474 46.1053 62.5263 46.7368 61.6842C47.3684 60.8421 47.7895 59.7895 48 58.7368C48.2105 57.6842 48.2105 56.2105 48.2105 54.3158V25.6842C48.2105 23.3684 47.7895 21.6842 47.1579 20.8421C46.5263 19.7895 45.0526 19.3684 42.5263 19.3684Z" fill="white"></path></svg> 