<svg width="80" height="80" viewBox="0 0 80 80" fill="none" xmlns="http://www.w3.org/2000/svg">
<g clip-path="url(#clip0_8233_442)">
<rect width="80" height="80" fill="#F5F8FA"/>
<g clip-path="url(#clip1_8233_442)">
<path d="M40 68C55.464 68 68 55.464 68 40C68 24.536 55.464 12 40 12C24.536 12 12 24.536 12 40C12 55.464 24.536 68 40 68Z" fill="white"/>
<path fill-rule="evenodd" clip-rule="evenodd" d="M39.9999 68.0001C55.4639 68.0001 67.9999 55.4641 67.9999 40.0001C67.9999 24.536 55.4639 12 39.9999 12C24.536 12 12 24.536 12 40.0001C12 55.4641 24.536 68.0001 39.9999 68.0001ZM56.2331 47.4565L43.5767 27.4874C41.9139 24.8639 38.0861 24.8639 36.4233 27.4874L23.7669 47.4565C22.6118 49.2791 23.1529 51.6929 24.9754 52.8479C26.7979 54.0031 29.2118 53.4621 30.3669 51.6395L39.9999 36.4407L49.6331 51.6395C50.7883 53.4621 53.2021 54.0031 55.0247 52.8479C56.8471 51.6929 57.3881 49.2791 56.2331 47.4565Z" fill="#1E60FC"/>
</g>
</g>
<defs>
<clipPath id="clip0_8233_442">
<rect width="80" height="80" fill="white"/>
</clipPath>
<clipPath id="clip1_8233_442">
<rect width="56" height="56" fill="white" transform="translate(12 12)"/>
</clipPath>
</defs>
</svg>
