<?xml version="1.0" encoding="UTF-8"?> <svg xmlns="http://www.w3.org/2000/svg" width="80" height="80" viewBox="0 0 80 80" fill="none"><rect x="0.000976562" width="80" height="80" fill="#F5F8FA"></rect><path fill-rule="evenodd" clip-rule="evenodd" d="M69.6937 51.0142C68.9263 53.3698 67.869 55.6209 66.5459 57.7158C54.8203 56.596 43.0059 58.5705 32.2825 63.4421L33.4472 55.1044C44.9838 50.7687 57.4168 49.3633 69.6307 51.0142H69.6937ZM71 41.8899V42.0157C70.9994 44.0881 70.7831 46.1548 70.3547 48.1825C57.9691 46.5005 45.3587 48.0672 33.762 52.7289L34.785 45.4137C46.3825 41.2778 58.8222 40.0674 71 41.8899ZM69.7881 33.5522C70.2913 35.3155 70.6285 37.122 70.7954 38.9481C58.751 37.1835 46.4551 38.5376 35.084 42.881L35.9497 36.5884C46.769 32.8433 58.3227 31.7165 69.6622 33.3005L69.7881 33.5522ZM65.5858 24.7897C66.8336 26.5491 67.8889 28.4372 68.7336 30.4216C57.818 29.1383 46.7533 30.3983 36.4061 34.1028L37.2403 28.1248C46.3834 25.2125 55.9995 24.0751 65.5701 24.774L65.5858 24.7897ZM57.8581 17.1914C60.0611 18.6894 62.0563 20.472 63.7916 22.4929C54.8639 22.0881 45.9379 23.3306 37.4606 26.1584L38.279 20.3063C44.6467 18.4611 51.217 17.4044 57.8424 17.16L57.8581 17.1914ZM41.0018 12C46.0049 11.9947 50.9293 13.2442 55.3241 15.634C49.5977 16.1079 43.9431 17.2267 38.4679 18.9691L39.2076 13.6518C32.6968 14.093 26.5365 16.7611 21.7622 21.2078C16.9879 25.6544 13.8908 31.6084 12.9915 38.0689C12.0921 44.5293 13.4454 51.1023 16.8238 56.6828C20.2023 62.2633 25.3998 66.5111 31.5428 68.7121L31.9992 65.4872C42.3975 61.0884 53.6973 59.2383 64.9563 60.0912C61.8743 64.1662 57.8024 67.3871 53.1263 69.4486C48.4502 71.5101 43.3249 72.344 38.2362 71.8712C33.1474 71.3985 28.2636 69.6347 24.0478 66.7471C19.832 63.8595 16.4236 59.9436 14.1458 55.3707C11.868 50.7978 10.7962 45.7192 11.0319 40.6163C11.2677 35.5134 12.8031 30.5552 15.4928 26.2115C18.1825 21.8678 21.9373 18.2826 26.4014 15.7956C30.8656 13.3085 35.8911 12.0021 41.0018 12Z" fill="#003869"></path></svg> 