<?xml version="1.0" encoding="UTF-8"?> <svg xmlns="http://www.w3.org/2000/svg" width="80" height="80" viewBox="0 0 80 80" fill="none"><rect width="80" height="80" fill="#32498A"></rect><path d="M31.5029 26.0173V54H25.128V35.1086L22.5814 54H18.0601L15.375 35.5407V54H9V26.0173H18.4412C18.7184 27.6996 19.0129 29.6815 19.3247 31.963L20.3294 39.084L21.9925 26.0173H31.5029Z" fill="white"></path><path d="M51.4247 47.4494C51.4247 49.535 51.1533 51.0329 50.6105 51.9432C50.0677 52.8535 49.242 53.4239 48.1333 53.6543C47.0361 53.8848 45.2807 54 42.867 54H34.4306V26H48.7223V30.8568H41.741V35.5926H42.867C45.119 35.5926 46.8225 35.7251 47.9774 35.9901C49.1323 36.2551 49.9926 36.8428 50.5585 37.7531C51.136 38.6519 51.4247 40.0691 51.4247 42.0049V47.4494ZM44.1143 46.6025V42.558C44.1143 41.3827 43.993 40.6683 43.7505 40.4148C43.5195 40.1613 42.8497 40.0173 41.741 39.9827V49.1778C42.6649 49.1778 43.2885 49.0626 43.6119 48.8321C43.9468 48.5901 44.1143 47.8469 44.1143 46.6025Z" fill="white"></path><path d="M71 47.4494C71 49.535 70.7286 51.0329 70.1858 51.9432C69.643 52.8535 68.8173 53.4239 67.7086 53.6543C66.6114 53.8848 64.856 54 62.4423 54H54.0059V26H68.2976V30.8568H61.3163V35.5926H62.4423C64.6943 35.5926 66.3978 35.7251 67.5527 35.9901C68.7076 36.2551 69.5679 36.8428 70.1338 37.7531C70.7113 38.6519 71 40.0691 71 42.0049V47.4494ZM63.6896 46.6025V42.558C63.6896 41.3827 63.5683 40.6683 63.3258 40.4148C63.0948 40.1613 62.425 40.0173 61.3163 39.9827V49.1778C62.2402 49.1778 62.8638 49.0626 63.1872 48.8321C63.5221 48.5901 63.6896 47.8469 63.6896 46.6025Z" fill="white"></path></svg> 