<?xml version="1.0" encoding="UTF-8"?> <svg xmlns="http://www.w3.org/2000/svg" width="80" height="80" viewBox="0 0 80 80" fill="none"><rect width="80" height="80" fill="#004785"></rect><path fill-rule="evenodd" clip-rule="evenodd" d="M41.0709 15C54.3259 15.4892 64.916 26.4185 64.9997 39.8146C65.0295 46.4464 62.4351 52.8199 57.7843 57.54C53.1336 62.2601 46.8054 64.9423 40.1849 64.9995C33.5594 65.0405 27.1879 62.4485 22.467 57.7918C17.7462 53.1351 15.0611 46.7935 15.0003 40.157C14.9708 33.7027 17.4272 27.4857 21.8584 22.7998C26.2895 18.1139 32.354 15.3201 38.7896 15L38.8175 22.1068C34.2507 22.4092 29.9709 24.4449 26.8507 27.7989C23.7305 31.1528 22.0048 35.5726 22.0254 40.157C22.0455 42.8305 22.6623 45.4657 23.8308 47.8694C24.9993 50.2732 26.6898 52.3847 28.7785 54.0492L35.5596 36.1598L30.8505 36.1948C30.8505 36.1948 29.9227 36.0061 29.3925 36.4463L28.2763 37.5225C28.2763 37.5225 28.1856 34.5735 28.3181 34.2661C28.4507 33.8887 28.8274 30.9328 30.1389 29.4233C31.4644 27.9698 33.5783 27.7672 33.5783 27.7672L48.6472 27.6624L46.4706 29.9335L51.7028 53.609C53.6696 51.9146 55.2448 49.8119 56.3194 47.4468C57.3939 45.0817 57.942 42.5108 57.9257 39.9124C57.8839 35.3482 56.1128 30.9704 52.9706 27.6647C49.8285 24.3591 45.5501 22.3724 41.0011 22.1068L41.0709 15ZM35.3154 29.7518C35.7688 29.7518 36.1525 30.1012 36.1525 30.5344C36.1525 30.9607 35.7828 31.3171 35.3293 31.3171C34.8689 31.3241 34.4922 30.9747 34.4922 30.5484C34.4922 30.1082 34.8549 29.7588 35.3154 29.7518Z" fill="white"></path></svg> 