<svg width="80" height="80" fill="none" xmlns="http://www.w3.org/2000/svg"><g clip-path="url(#a)"><path d="M80 0H0v80h80V0z" fill="#F5F8FA"/><g clip-path="url(#b)"><path d="M66.144 26.162c6.545 11.984 3.248 28.504-7.393 36.937-.364.296-.776.493-1.164.74-.727.074-.994-.493-1.333-.962C53.03 58.464 49.88 54 46.607 49.636c-.315-.42-.63-.863-.533-1.455.896-1.282 2.133-2.194 3.248-3.255.533-.493 1.26-.591 1.939-.493 2.302.32 4.023-.542 5.55-2.318 1.019-1.183 2.376-2.07 3.491-3.304-3.927.025-7.78.05-11.61 0-1.261-.024-2.23.37-3.08 1.307a51.803 51.803 0 0 1-2.569 2.614c-.436.444-.848.986-1.6.888-.605-.518-.702-1.184-.581-1.899 1.309-1.603 2.594-3.205 4.072-4.636.63-.591 1.382-.69 2.206-.69 1.842 0 3.684-.025 5.527 0 1.018.025 1.818-.32 2.545-1.06 1.333-1.357 2.69-2.713 3.854-4.241.218-.296.533-.543.412-.987-.315-.468-.29-.912.218-1.183 1.915-1.06 3.83-2.12 5.89-2.934.194-.074.388 0 .558.172z" fill="#C92D3B"/><path d="M46.242 48.404c3.588 4.956 7.175 9.937 10.763 14.893.145.198.387.346.581.518-.848 1.209-2.303 1.455-3.393 2.293-1.333.272-1.527-.937-1.89-1.676-1.989-4.069-4.219-7.99-6.255-12.058-.46-.937-1.212-1.775-.994-2.959.291-.444.413-1.11 1.188-1.01z" fill="#CC323B"/><path d="M45.294 49.464c.291 1.997 1.551 3.575 2.448 5.301 1.6 3.18 3.321 6.288 4.897 9.493.363.74.63 1.603 1.575 1.874a9.864 9.864 0 0 1-3.442 1.628c-.824.345-1.018-.296-1.236-.839-1.26-3.107-2.448-6.238-3.515-9.444-.557-1.726-1.406-3.328-1.89-5.08-.17-.615-.485-1.183-.34-1.873.097-.32.34-.543.558-.79.266-.172.46-.665.945-.27z" fill="#CF383B"/><path d="M44.013 50.4c.46 2.763 1.866 5.204 2.69 7.842.897 2.91 2.11 5.696 3.2 8.532.17.443.218.986.873.986a9.855 9.855 0 0 1-3.879 1.257c-.436-.172-.63-.567-.727-.986-1.236-5.523-2.885-10.948-3.878-16.545-.097-.469-.194-.962.218-1.332.533-.27 1.066-.295 1.503.247z" fill="#D13E3C"/><path d="M44.011 50.402h-1.6a1.73 1.73 0 0 1-.92.32c-.316.025-.655.025-.97.025H37.223c-.388 0-.776 0-1.164.025-.994 0-1.333.789-1.648 1.528-1.963 4.587-4.29 9-6.181 13.611-.194.493-.315 1.036-.824 1.332-.994-.42-1.964-.838-2.812-1.504-.436-.666.121-1.11.388-1.603 2.787-4.98 5.745-9.888 8.508-14.893.533-.986 1.382-1.652 2.085-2.49.218-.272.509-.543.92-.198.582.913-.46 1.677-.242 2.565.388.616 1.018.419 1.576.443 1.624.025 3.248 0 4.872.025.679 0 1.382-.074 1.915.469-.194.073-.388.197-.606.345z" fill="#DA6A42"/><path d="M27.457 67.218c1.042-3.526 2.836-6.731 4.315-10.06.872-1.973 1.842-3.92 2.715-5.893.339-.764.8-1.085 1.6-.888.411.493.217 1.011.072 1.529-1.454 5.08-3.49 9.986-5.066 15.016-.17.592-.51 1.06-1.042 1.357-.873-.346-1.745-.715-2.594-1.06z" fill="#D86341"/><path d="M39.577 50.377h.97c.872.518.92 1.405.945 2.244.097 5.153.654 10.257 1.09 15.386.05.617.34 1.11.534 1.677-1.26.444-2.57.271-3.879.246-.412-.419-.508-.961-.46-1.48.558-5.522.097-11.046.315-16.569.049-.542.024-1.085.485-1.504z" fill="#D44A3D"/><path d="M15.94 57.798c-.63-.666-1.163-1.406-1.503-2.269-.145-.813.558-.937.994-1.233 4.048-2.712 8.29-5.104 12.266-7.915.387-.27.8-.542 1.308-.419.51.247 1.043.469 1.091 1.16-2.327 2.49-5.139 4.413-7.853 6.435-1.624 1.208-3.079 2.613-4.776 3.674-.46.296-.848.838-1.527.567z" fill="#E18947"/><path d="M30.023 68.278c2.158-5.918 4.412-11.81 6.036-17.901h1.26c.413.567.122 1.159 0 1.701-.993 4.39-1.987 8.778-3.126 13.143-.34 1.307-.121 2.835-1.334 3.846-.993-.024-1.914-.419-2.836-.789z" fill="#D75C3F"/><path d="M11.892 50.057c-.509-1.011-.872-2.072-.97-3.23-.12-.42.17-.592.485-.666 3.176-.913 6.303-1.973 9.6-2.392 1.066-.148 1.963-.715 3.005-.912.558-.099 1.115-.346 1.697-.198.582.247 1.139.494 1.212 1.233-.34.839-1.09 1.11-1.842 1.356-3.903 1.16-7.636 2.713-11.49 3.995-.606.172-1.09.616-1.697.814z" fill="#E79E4C"/><path d="M19.553 61.867c-.752-.641-1.625-1.159-2.06-2.145 2.52-2.737 5.332-5.178 8.095-7.669.921-.813 1.721-1.726 2.618-2.564.8-.74 1.6-1.405 2.715-1.553.315.123.485.37.485.715-.437 1.306-1.479 2.219-2.351 3.18-2.764 3.033-5.382 6.165-8.218 9.1-.363.418-.703.862-1.284.936z" fill="#DE7C46"/><path d="M11.895 50.057c.194-.986 1.09-1.085 1.793-1.307 3.976-1.282 7.83-2.983 11.878-4.093.436-.123.8-.518 1.187-.764.582.074.873.444.897 1.01-.97 1.603-2.787 1.8-4.242 2.565-3.442 1.825-7.102 3.255-10.544 5.129-.485-.79-.848-1.628-.97-2.54z" fill="#E5974B"/><path d="M30.897 48.059c-2.86 1.8-4.993 4.438-7.563 6.583-1.987 1.652-3.514 3.822-5.817 5.08-.606-.568-1.236-1.135-1.576-1.948 4.509-3.255 8.993-6.56 13.187-10.233.218-.197.533-.296.8-.469.557.074 1.163.124.97.987z" fill="#DF8446"/><path d="M37.975 50.377h.63c.557.468.751 1.11.606 1.75-.679 2.639.121 5.351-.51 7.965-.46 1.948-.605 3.92-.848 5.893-.194 1.455-.315 2.934 1.067 3.945-1.188.124-2.327-.123-3.49-.32-.825-.37-.68-1.135-.63-1.8a39.45 39.45 0 0 1 .872-6.337c.654-3.033 1.042-6.115 1.648-9.148.097-.69.194-1.38.655-1.948z" fill="#D5533E"/><path d="M41.465 50.4h.945c1.26 6.264 2.958 12.428 4.436 18.642-.46.32-.993.37-1.551.345-.897.394-1.285-.05-1.406-.888-.897-5.252-1.89-10.48-2.424-15.805-.048-.765-.679-1.554 0-2.294z" fill="#D2423C"/><path d="M41.465 50.4c.46 2.836.921 5.647 1.357 8.483.51 3.131 1.018 6.287 1.455 9.443.097.74.29 1.085 1.018 1.06-.703.395-1.455.346-2.206.321-.582-.024-1.018-.148-1.018-.887-.024-3.083-.654-6.115-.654-9.198 0-1.676-.413-3.353-.51-5.054-.072-1.406.34-2.836-.387-4.168h.945z" fill="#D3463D"/><path d="M22.971 64.629c-.703-.37-1.357-.789-1.842-1.43-.146-.345.024-.641.218-.888 3.37-4.241 6.617-8.605 10.084-12.772.145-.173.315-.272.533-.346.46.025.703.296.8.74-.558 1.997-2.012 3.501-3.054 5.203-1.649 2.688-3.49 5.252-5.163 7.915-.412.666-.8 1.331-1.576 1.578z" fill="#DC7444"/><path d="M38.92 69.93c-.34-.37-.777-.247-1.189-.272-.436-.05-.727-.197-.606-.715.582-2.712.388-5.499 1.018-8.236.412-1.8.922-3.748.243-5.696-.146-.419-.194-1.11.024-1.405.8-1.06.436-2.12.242-3.206h.946c-.097 6.51.242 13.044-.315 19.554-.146-.025-.267-.025-.364-.025z" fill="#D5503E"/><path d="M46.655 10.95c.437 0 .873-.025 1.212.295.049 1.899-.824 3.6-1.26 5.376-1.115 4.61-2.545 9.148-3.684 13.759-.17.468-.51.715-.994.715-.8-.32-.728-.962-.558-1.603.945-4.118 1.648-8.285 2.666-12.354.413-1.602.558-3.279 1.067-4.857.218-.789.388-1.652 1.551-1.332z" fill="#6FB8B1"/><path d="M51.623 12.6c.51.074.946.272 1.31.617-.558 2.367-1.916 4.364-2.885 6.534-1.237 2.762-2.764 5.375-3.951 8.162-.364.813-.752 1.652-1.48 2.244-.338.123-.653.123-.944-.074-.364-.543-.097-1.036.097-1.53 1.987-4.881 4.072-9.739 6.132-14.597.291-.714.533-1.7 1.721-1.356z" fill="#61ADBE"/><path d="M31.965 49.267c-2.958 3.822-5.89 7.644-8.848 11.466-.654.838-1.309 1.652-1.963 2.49-.63-.32-1.14-.79-1.576-1.356 2.74-3.033 5.43-6.09 8.217-9.074 1.26-1.356 2.206-2.984 3.66-4.143.34.074.534.247.51.617z" fill="#DC7845"/><path d="M37.974 50.376c-.582 3.97-1.212 7.965-2.06 11.885-.437 2.047-.582 4.167-.8 6.263-.025.345.194.715.29 1.06-.872-.049-1.745-.172-2.545-.542 1.479-6.238 2.982-12.452 4.46-18.69.243.024.437.024.655.024z" fill="#D7583F"/><path d="M31.31 11.343c.727-.197 1.478-.42 2.205-.616.606 3.575 1.527 7.1 2.376 10.627.873 3.698 1.77 7.373 2.666 11.071.049.173.073.345.097.518 0 .37-.048.715-.34.986-.605 0-.8-.468-.92-.912-1.382-5.252-3.442-10.307-4.727-15.584-.364-1.504-1.164-2.86-1.406-4.413-.121-.592-.412-1.134.049-1.677z" fill="#9EC9B2"/><path d="M22.973 64.629c3.2-4.907 6.399-9.814 9.623-14.72.315-.395.679-.691 1.212-.642-.921 2.269-2.376 4.241-3.49 6.386-1.77 3.428-4.073 6.56-5.697 10.06-.606-.27-1.188-.542-1.648-1.084z" fill="#DB6F43"/><path d="M24.303 14.525c.436-.493 1.018-.69 1.6-.937 1.236 1.627 2.133 3.452 3.078 5.203 2.255 4.167 4.436 8.383 6.812 12.5.072.149.145.297.194.445.048.345.024.64-.243.887-.727.075-1.018-.443-1.333-.936-3.248-5.228-6.448-10.505-9.769-15.683-.266-.419-.557-.912-.339-1.48z" fill="#BFD3B2"/><path d="M46.652 10.95c-.679.048-.945.443-1.09 1.133a2351.107 2351.107 0 0 1-3.928 17.828c-.12.518-.024.813.388 1.06.024 1.011-.388 1.332-1.309.912-.242-2.54.558-4.956.8-7.421.412-3.921 1.454-7.743 1.77-11.688.17-1.997.484-2.293 2.036-2.12.46 0 .945-.05 1.333.295z" fill="#73B9B0"/><path d="M39.55 10.062c1.188 0 2.4-.247 3.54.246a1.595 1.595 0 0 1-.437.37c-.897.148-.994.814-1.018 1.553-.218 4.439-.751 8.853-.727 13.316 0 2.342-.485 4.684-.29 7.027-.074.37-.316.493-.655.42-.582-.395-.51-1.012-.534-1.579-.29-6.41-.387-12.797-.339-19.208 0-.74-.121-1.529.46-2.145z" fill="#80BEAF"/><path d="M35.432 10.381c1.163-.148 2.303-.493 3.49-.32.025.345-.218.468-.46.616-.679.247-.776.765-.727 1.406.242 2.91.29 5.844.848 8.753.315 1.603.34 3.28.388 4.932.073 2.613.436 5.203.703 7.791-.145.494-.46.543-.849.321-1.042-4.315-1.623-8.68-2.254-13.068-.412-2.86-.945-5.696-1.26-8.557-.073-.64-.34-1.282.121-1.874z" fill="#8CC2B1"/><path d="M12.863 52.572c.024-.666.485-.814.994-1.036 3.32-1.553 6.69-3.008 9.938-4.684 1.237-.617 2.86-.814 3.709-2.17.46.074.703.345.679.838-.194.518-.606.888-1.067 1.134-4.242 2.367-8.435 4.76-12.75 7.003-.29.148-.582.247-.921.197a2.496 2.496 0 0 1-.582-1.282z" fill="#E3934B"/><path d="M13.492 53.878c3.079-1.726 6.181-3.378 9.211-5.203 1.818-1.085 3.806-1.825 5.43-3.205.509-.074.921-.05.824.665-1.77.814-3.224 2.146-4.92 3.107-2.934 1.628-5.697 3.576-8.509 5.4-.388.247-.727.592-1.09.888-.437-.493-.776-1.011-.946-1.652z" fill="#E28E49"/><path d="M27.163 12.947a30.34 30.34 0 0 0 1.285-.617c.557.32.727.888.97 1.43 2.35 5.203 4.411 10.529 6.593 15.781.266.641.436 1.307.872 1.874.606 1.011.776 2.194 1.334 3.206-.025.246-.097.443-.316.591a.5.5 0 0 1-.412-.098c-.8-1.06-1.381-2.22-1.72-3.502-2.885-5.572-5.721-11.17-8.29-16.89-.267-.567-.752-1.11-.316-1.775z" fill="#B1D2B4"/><path d="M61.537 19.677a5.8 5.8 0 0 1 1.455 1.628c-2.4 2.219-5.115 4.068-7.66 6.115-1.067.863-2.06 1.825-3.224 2.54-.654.172-1.309.222-1.94-.099-.46-1.01.413-1.282.946-1.726 2.545-1.38 4.266-3.748 6.472-5.523.897-.715 1.624-1.652 2.473-2.466.387-.37.8-.888 1.478-.469z" fill="#516FB0"/><path d="M42.656 30.331c-.17-1.134.412-2.145.678-3.18a722.396 722.396 0 0 1 3.321-12.453c.315-1.183.8-2.318 1.188-3.452.703.05 1.381.222 1.987.666-1.648 3.304-2.35 6.929-3.587 10.38-.921 2.54-2.109 4.981-2.74 7.644-.169.346-.484.395-.847.395z" fill="#6AB7B6"/><path d="M43.383 29.837c.46-2.959 1.866-5.622 2.69-8.482.8-2.737 1.819-5.4 2.691-8.088.194-.64.29-1.257 1.09-1.38.655.074 1.261.271 1.795.69-1.212.173-1.31 1.332-1.649 2.145-2.133 5.006-4.193 10.06-6.278 15.09-.12.272-.242.272-.34.025z" fill="#66B4BA"/><path d="M37.975 34.89c-.436-1.084-.848-2.194-1.285-3.279-2.35-6.016-4.58-12.082-6.787-18.172-.17-.493-.484-.986-.218-1.529.485-.37 1.018-.518 1.6-.592 1.285 4.636 2.52 9.296 4.193 13.809.873 2.391 1.479 4.857 2.158 7.323.145.518.218 1.035.654 1.405.291.173.412.444.412.765-.145.37-.387.468-.727.27z" fill="#A5CDB2"/><path d="M24.303 14.525c1.842 3.452 4.12 6.658 6.18 10.011 1.407 2.318 2.837 4.587 4.219 6.904.29.469.557.913 1.042 1.16.921.64 1.26 1.7 1.89 2.564l.025.05c.024.492-.218.69-.679.69-1.915-1.332-2.957-3.428-4.484-5.105-.121-.296-.025-.567.17-.789.12-.074.242-.148.387-.148a1.059 1.059 0 0 1-.388-.147 1.71 1.71 0 0 1-.436-.494c-1.988-3.28-4.266-6.386-6.448-9.542-.97-1.381-2.06-2.688-2.836-4.217.34-.493.873-.715 1.358-.937z" fill="#C5D3B2"/><path d="M42.725 10.358c.121-.025.242-.025.364-.05.751.05 1.527-.123 2.206.321-1.576-.222-1.528 1.085-1.576 1.973-.145 3.131-1.14 6.115-1.479 9.197-.363 3.403-1.09 6.756-1.406 10.159.073.247-.024.345-.266.32-.606-1.405-.194-2.884 0-4.265.412-3.083.29-6.19.727-9.272.34-2.342.582-4.684.752-7.052.048-.517.12-1.035.678-1.331z" fill="#78BBB0"/><path d="M27.164 12.947c.945 2.146 1.866 4.29 2.86 6.411 1.818 3.797 3.684 7.545 5.526 11.343.122.27.122.616.194.937-1.018-.69-1.309-1.924-1.866-2.91-1.867-3.329-3.539-6.756-5.381-10.085-.921-1.652-2.133-3.131-2.618-5.03.436-.246.873-.468 1.285-.666z" fill="#B7D2B4"/><path d="M29.686 11.91c1.382 3.625 2.74 7.25 4.145 10.85.97 2.515 1.479 5.177 2.666 7.619.17.345.122.813.194 1.232-1.236-1.306-1.43-3.106-2.133-4.684-2.108-4.833-4.096-9.74-6.132-14.598.388-.27.8-.419 1.26-.419z" fill="#AACFB3"/><path d="M10.608 45.198c-.437-.814-.267-1.702-.316-2.54-.12-.197-.097-.37.049-.518 1.6-1.085 3.49-.69 5.236-.887 2.714-.296 5.454-.493 8.193-.568.606.222 1.284.42 1.163 1.307-2.278.642-4.654.863-6.957 1.332-1.963.394-3.975.542-5.938.986-.412.099-.849.074-1.043.567a1.24 1.24 0 0 1-.387.32z" fill="#E9A959"/><path d="M38.292 32.598c-1.115-3.304-1.818-6.731-2.57-10.134-.702-3.156-1.526-6.288-2.326-9.42-.218-.813-.315-1.553.121-2.317.218-.025.436-.05.654-.05.849.445.873 1.308 1.019 2.072 1.09 5.943 1.963 11.91 3.175 17.827.121.666.218 1.332-.073 2.022z" fill="#98C7B1"/><path d="M38.29 32.598c.12-1.85-.606-3.55-.946-5.326-.97-5.227-1.915-10.455-2.884-15.682-.049-.32-.194-.592-.316-.912.388-.222.825-.346 1.285-.272 1.164 7.52 2.327 15.041 3.466 22.562.049.32.025.641.025.962.072.148.048.27-.097.37-.727-.247-.121-1.012-.534-1.381v-.321z" fill="#93C5B1"/><path d="M50.046 29.664h2.206c.218-.173.485-.247.751-.32.388 0 .776.024.921.492-.072.198-.194.346-.387.42-2.618.444-5.26.197-7.878.148-.412 0-.849-.1-1.018-.617 2.448-5.055 4.92-10.11 7.393-15.14.242-.517.388-1.11.897-1.479.193.123.412.247.606.37.484.74-.219 1.307-.267 1.973-.097.295-.218.567-.436.788-1.019 1.332-1.891 2.762-2.303 4.439-1.31 2.318-2.376 4.734-3.733 7.027-.242.395-.582.765-.485 1.282.194.198.436.198.655.198.193 0 .412 0 .606-.025.218 0 .436-.025.654-.025h.921c.364.124.679.222.897.469z" fill="#5EA4C0"/><path d="M53.829 29.912c0-.074 0-.148-.024-.222.29-.913 1.139-1.233 1.793-1.726 2.279-1.702 4.776-3.107 7.054-4.808.436-.321.897-.592 1.454-.296.388.37.703.789.873 1.331-.654 1.134-1.818 1.553-2.836 2.17-2.06 1.258-4.218 2.367-6.108 3.92-.8.173-1.576.37-2.206-.37z" fill="#754E90"/><path d="M25.808 42.905c-2.981.74-5.938 1.578-8.944 2.219a50.865 50.865 0 0 0-5.939 1.701c-.388-.493-.315-1.06-.34-1.627l.074-.074c.266-.543.775-.69 1.309-.765 4.072-.616 8.096-1.504 12.144-2.219.315-.049.63-.024.945-.074.436.124.921.173.751.839z" fill="#E8A350"/><path d="M18.293 19.407c.121-.32.315-.542.63-.64.848-.025 1.309.616 1.818 1.134 2.279 2.293 4.557 4.586 6.811 6.904.63.64 1.334 1.208 2.037 1.75.29.37.75.666.412 1.233-.364.247-.752.247-1.164.099a142.452 142.452 0 0 1-9.938-8.902c-.412-.394-1.091-.789-.606-1.578z" fill="#E5D9B1"/><path d="M15.434 22.91c.315-.42.63-.864.945-1.283 1.188.05 2.036.863 2.836 1.553 2.23 1.899 4.678 3.477 6.933 5.351.412.345 1.066.641.605 1.405-1.018.74-2.108.543-3.223.296a.564.564 0 0 1-.291-.37c.072-.566.654-.419.97-.64-2.449-1.998-5.382-3.28-7.757-5.376-.34-.271-.8-.468-1.018-.937z" fill="#F4DAAF"/><path d="M49.102 29.663h-.946c.218-1.627 1.648-2.391 2.545-3.501 2.06-2.564 4.29-4.98 6.254-7.62.485-.64.921-1.479 1.94-1.405.411.222.823.444.945.962-.51 1.208-1.455 2.096-2.303 3.008-2.303 2.54-4.896 4.833-7.078 7.496-.364.469-.848.79-1.358 1.06z" fill="#5582BE"/><path d="M13.18 26.78c.072-.519.266-.963.654-1.283.606-.468 1.26-.271 1.77.074 2.036 1.356 4.387 2.046 6.399 3.427.485.321 1.018.568 1.163 1.233-.096.641-.387 1.11-1.066 1.184a89.546 89.546 0 0 0-7.32-3.378c-.582-.247-1.212-.641-1.6-1.258z" fill="#F4D29E"/><path d="M13.178 26.78c2.885 1.676 6.278 2.292 8.896 4.512.121.764-.34 1.01-.97 1.085-2.593-1.258-5.332-2.17-7.999-3.23-.29-.124-.606-.148-.824-.42.267-.666.34-1.43.897-1.948z" fill="#F3CD96"/><path d="M47.501 29.663h-.63c.121-1.676 1.406-2.687 2.279-3.895 2.205-3.058 4.508-6.042 6.617-9.173.315-.493.63-1.011 1.357-.838.364.098.655.32.873.64.218.617-.097 1.036-.46 1.43-2.934 3.182-5.527 6.658-8.194 10.036-.533.69-1.115 1.332-1.842 1.8z" fill="#568EC4"/><path d="M15.434 22.908c.993.345 1.77 1.036 2.569 1.702 1.6 1.331 3.612 2.07 5.212 3.427.581.493 1.381.69 1.866 1.43-.606.37-1.188.123-1.745.197-2.86-1.38-5.478-3.205-8.266-4.71-.29-.147-.485-.418-.582-.739.34-.42.63-.863.946-1.307z" fill="#F6D6A9"/><path d="M38.605 10.334c.097-.099.194-.173.315-.271h.655c.024 5.498-.146 11.021.145 16.495.121 2.096-.242 4.266.412 6.337.097.493-.194.444-.509.395-.557-1.677-.679-3.427-.679-5.178-.024-4.118-.606-8.186-.751-12.28-.049-1.824-.51-3.723.412-5.498z" fill="#84BFB0"/><path d="M22.97 15.46c1.745 1.357 2.618 3.404 3.927 5.105 1.745 2.268 3.32 4.66 4.945 7.027.34.518.485 1.16.727 1.751-.727.197-1.042-.37-1.382-.814-2.884-3.797-5.672-7.668-8.532-11.465-.29-.37-.63-.765-.267-1.283.194-.098.388-.197.582-.32z" fill="#CAD5B2"/><path d="M10.05 39.676c-.17-1.208.17-2.367.315-3.55.34-.321.752-.37 1.188-.272 2.788.666 5.648.666 8.484.888.751.37 1.697.592 1.333 1.8-.727.444-1.527.37-2.303.246-2.254-.394-4.508-.197-6.762-.221-.558 0-1.188-.05-1.527.567-.073.172-.146.32-.267.443-.121.148-.267.198-.46.1z" fill="#EDB76F"/><path d="M52.593 16.151c.266-.148.315-.37.315-.64.557-.42.387-1.455 1.284-1.628.437.05.752.296 1.018.592-.339 2.17-1.915 3.649-2.957 5.4-1.672 2.835-3.49 5.597-5.09 8.482-.267.567-.655 1.01-1.236 1.307-.582-.518-.073-1.085.12-1.43.995-1.677 2.061-3.23 2.595-5.179.242-.863 1.43-1.38 1.696-2.416.582-1.578 1.648-2.934 2.255-4.488z" fill="#5D9FC2"/><path d="M49.102 29.665c3.296-4.142 7.247-7.644 10.738-11.589.315.37.92.37 1.066.912-1.139 1.924-3.005 3.083-4.557 4.587-1.672 1.602-3.393 3.156-5.042 4.783-.533.296-.97.74-1.26 1.283-.315.024-.63.024-.945.024z" fill="#547BB9"/><path d="M18.292 19.406c0 .617.46.937.824 1.307 2.643 2.688 5.551 5.104 8.363 7.595.46.419.849.937 1.26 1.43-.266.271-.557.271-.896.197-3.394-2.688-6.933-5.178-10.011-8.26-.267-.271-.752-.469-.582-1.011.315-.493.485-1.06 1.042-1.258z" fill="#EADAB0"/><path d="M22.389 15.807c.363 1.208 1.212 2.145 1.963 3.033 2.497 2.983 4.533 6.287 6.957 9.32.363.468.702.937 1.236 1.208l.315.32c-.315.321-.703.37-1.115.247-.752-.517-1.188-1.38-1.963-1.898a1.803 1.803 0 0 1-.388-.567c-1.018-2.17-2.86-3.674-4.266-5.499-1.116-1.43-2.182-2.885-3.418-4.192-.315-.345-.655-.74-.267-1.257.315-.272.63-.493.945-.715z" fill="#CFD6B2"/><path d="M45.926 29.665c.315-.42.63-.838.945-1.282 1.551-2.417 2.957-4.956 4.678-7.225 1.528-2.022 2.618-4.414 4.557-6.115.34.247.68.493 1.018.715-1.55 1.036-2.23 2.836-3.248 4.241-2.327 3.23-4.872 6.288-7.005 9.666h-.945z" fill="#5894C3"/><path d="M56.13 15.042c-.896 1.43-1.696 2.934-2.714 4.24-1.648 2.121-3.176 4.365-4.654 6.61-.582.887-.873 1.972-1.89 2.49.872-2.318 2.374-4.266 3.635-6.362 1.527-2.54 3.151-5.03 4.703-7.545.363.074.678.27.92.567z" fill="#5A99C2"/><path d="M29.393 28.728c-.775-.296-1.309-.863-1.89-1.43-2.86-2.86-5.72-5.696-8.581-8.556.194-.444.509-.765.945-.937 1.6.912 2.812 2.268 3.879 3.748 1.478 2.046 3.587 3.5 5.041 5.548.364.468 1.067.838.606 1.627z" fill="#DFD8B1"/><path d="M47.5 29.665c3.297-3.97 6.133-8.334 9.769-12.033.315-.32.484-.814.727-1.208.363.148.678.37.872.715-1.066.666-1.72 1.726-2.448 2.688-2.593 3.427-5.55 6.558-8.29 9.838h-.63z" fill="#5588C2"/><path d="M29.393 28.727c-.751-1.553-1.915-2.786-3.15-3.92-2.328-2.145-4.097-4.808-6.376-7.003.194-.123.388-.271.582-.394.921-.173 1.333.591 1.77 1.11 2.496 2.958 5.162 5.794 7.49 8.9.096.1.218.222.315.321.339.69 1.09 1.036 1.357 1.776-.024.172-.121.27-.267.37-.412.147-.775.147-1.115-.198-.194-.32-.387-.641-.606-.962z" fill="#D9D7B1"/><path d="M11.531 30.947c.146-.42.267-.839.412-1.283.34-.616.921-.542 1.382-.345 2.497 1.011 5.139 1.652 7.563 2.91.29.937-.243 1.282-.994 1.504-2.788-.962-5.745-1.356-8.363-2.786z" fill="#F1C68B"/><path d="M56.396 29.935c-.145-.27-.17-.443.145-.64 2.812-1.677 5.624-3.379 8.436-5.08.388.32.581.764.751 1.233-.121.394-.436.592-.751.764-2.545 1.406-5.139 2.688-7.708 4.044-.364.025-.68.025-.873-.32z" fill="#98386C"/><path d="M64.107 22.883c-3.03 1.652-5.769 3.748-8.629 5.647-.557.37-1.115.764-1.672 1.159h-.897c-.17-.469.218-.666.485-.888 2.836-2.12 5.599-4.315 8.41-6.436.437-.32.873-.838 1.552-.419.242.32.509.616.751.937z" fill="#5460A4"/><path d="M11.532 30.947c2.86.617 5.672 1.307 8.338 2.59.121.788-.364 1.035-.994 1.133-2.618-.64-5.26-1.208-7.83-2.095.074-.568.146-1.135.486-1.628z" fill="#F0C284"/><path d="M17.298 20.615c2.06 1.825 4.049 3.748 6.206 5.45 1.503 1.159 2.957 2.342 4.314 3.649-.315.271-.63.271-.945 0-1.479-1.701-3.49-2.688-5.187-4.069-1.721-1.38-3.515-2.663-5.26-3.994.145-.469.46-.79.872-1.036z" fill="#EFDAB0"/><path d="M20.16 37.111c-3.297.05-6.545-.296-9.793-.961v-.346c.243-1.11 1.067-1.158 1.94-1.134 2.302.099 4.508.79 6.786 1.11.606.246 1.212.493 1.067 1.331z" fill="#EEBA75"/><path d="M29.709 27.42c-1.188-.32-1.527-1.529-2.23-2.318-2.351-2.564-4.412-5.4-7.03-7.718.34-.32.655-.64.994-.937 1.018 1.924 2.618 3.378 3.927 5.08 1.236 1.627 2.642 3.156 3.975 4.71.315.37.388.764.364 1.183z" fill="#D5D7B2"/><path d="M11.022 32.573c1.576-.468 2.909.518 4.315.839 1.188.27 2.52.197 3.563 1.035.049.444.049.863-.364 1.134-2.666-.32-5.308-.69-7.829-1.726.097-.419.218-.838.315-1.282z" fill="#F0BF7D"/><path d="M51.309 28.407c.29-.764.824-1.356 1.405-1.899 2.74-2.49 5.454-4.98 8.194-7.47.193.221.411.443.605.665-.727.024-1.09.592-1.527 1.035-2.472 2.515-5.041 4.932-7.732 7.2-.267.222-.533.469-.945.469z" fill="#5276B5"/><path d="M14.51 24.215a2518.32 2518.32 0 0 1 8.315 4.882c.218.123.34.37.509.567v.32c.049.297-.024.42-.315.272a37.157 37.157 0 0 0-9.187-4.784c.242-.394.46-.813.679-1.257z" fill="#F4D4A3"/><path d="M63.355 21.946c-2.497 1.159-4.46 3.107-6.642 4.734-1.285.962-2.763 1.701-3.806 3.008h-.63c2.012-2.317 4.63-3.896 7.006-5.794 1.163-.937 2.157-2.17 3.708-2.59.17.173.388.321.364.642z" fill="#5463A6"/><path d="M10.706 33.855c.242-.024.509-.123.751-.074 2.376.543 4.751 1.135 7.127 1.702.533-.099.727.123.63.64-2.351 0-4.533-1.01-6.908-1.035-.8 0-1.43.05-1.915.69.097-.616.194-1.282.315-1.923z" fill="#EFBD78"/><path d="M20.837 32.278c-2.302-.64-4.58-1.331-6.787-2.293-.679-.296-1.357-.567-2.109-.296.122-.32.219-.64.34-.961 2.157-.099 3.83 1.282 5.745 1.948 1.066.37 2.448.296 3.102 1.553-.073.123-.17.148-.29.05z" fill="#F2C990"/><path d="M57.344 29.886c2.787-1.48 5.575-2.96 8.387-4.439.145.247.266.469.412.715-2.085 1.011-4.145 2.047-6.23 3.033-.606.271-.34.469-.024.715-.849.79-1.697.79-2.545-.024z" fill="#A23E6C"/><path d="M10.052 39.676h.266c.218.197.315.444.388.715.073.666.097 1.307-.34 1.874l-.072.37c-.46-.937-.242-1.948-.242-2.96z" fill="#ECB36A"/><path d="M54.191 13.883c-.606.394-.533 1.331-1.285 1.627.218-.641.412-1.258.63-1.899.291-.074.485.05.655.272z" fill="#5EA4C1"/><path d="M57.342 29.887h2.52c.194.148.752.074.291.567-1.77 1.899-3.539 3.797-5.284 5.696-.46.518-1.018.468-1.6.468-1.939 0-3.902.05-5.841-.024-1.091-.05-1.891.296-2.594 1.134-1.188 1.356-2.448 2.59-3.684 3.896-.34.518-.655 1.06-1.14 1.48-.581.493-.897 1.232-1.527 1.676-.8.42-1.188 1.406-2.133 1.628-.848.961-1.697 1.898-2.57 2.86-.436.148-.63.813-1.211.64-.219-.221-.412-.418-.63-.64-.17-.197-.34-.42-.51-.617-.194-.197-.363-.394-.557-.591-.315-.32-.655-.642-.97-.962-.315-.32-.63-.641-.92-.962-.17-.37-.461-.567-.825-.666-.218-.246-.412-.517-.63-.764-.267-.271-.51-.542-.776-.814l-.945-.961-.63-.641c-.049-.173-.243-.173-.316-.32-.315-.321-.63-.667-.945-.987-.194-.271-.557-.32-.8-.567-.29-.271-.581-.567-.848-.839-.315-.37-.727-.64-.824-1.158a3.589 3.589 0 0 0-1.285-1.283 2.117 2.117 0 0 0-.945-.961l-.63-.641c-.025-.395-.049-.79.315-1.036.46-.148.727-.493.945-.912.509-.296.897-.642.994-1.258a.636.636 0 0 0 .29-.074c.461-.148.728-.518.946-.912.509-.148.558-.74.945-1.011.097-.099.218-.173.315-.271 1.164-.148 2.376.222 3.49-.296h4.412c.51.296 1.115-.025 1.6.296-.12.222-.242.419-.363.64-.097.716-.703 1.036-1.091 1.53-.509.493-.994 1.01-1.479 1.504l-.436.443c-.29.395-.873.617-.703 1.283.388.64.97 1.06 1.479 1.578.412.419.848.813 1.212 1.257.872 1.036 1.72 1.134 2.618.05.315-.247.581-.518.824-.839a.974.974 0 0 1 .29-.246c.146-.1.316-.222.461-.346.194-.172.364-.345.533-.517.243-.222.46-.469.825-.469.218-.222.436-.42.654-.641l.315-.32c.243-.075.46-.148.558-.42.048-.148.242-.172.29-.345a.747.747 0 0 0 .097-.246c.243-.05.461-.124.558-.395.049-.148.242-.173.315-.32l.291-.297c.097-.123.218-.221.315-.345.048-.148.242-.172.291-.32.048-.074.097-.148.097-.247.533-.172.945-.468 1.188-1.01l.63-.642c.242-.148.485-.32.703-.468h1.26c3.054.222 6.109.197 9.187.074h2.57c.387-.074.703-.074 1.018-.099z" fill="#FEFEFE"/><path d="M44.642 50.007c-2.763.05-5.55.05-8.314.123-1.115.05-.654-.567-.533-1.06.485-.888 1.406-1.356 2.012-2.145.654-.641 1.285-1.282 1.915-1.923.606-.469.945-1.258 1.818-1.357 1.503-1.504 3.03-2.983 4.508-4.487.413-.42.825-.74 1.479-.715 4.436.024 8.847.024 13.574.024-2.157 2.367-4.266 4.439-6.569 6.214-.654.493-1.939.247-2.933.173-1.333-.124-2.327.296-3.15 1.331-.655.814-1.455 1.504-2.182 2.269l-.946 1.035c-.242.148-.46.346-.678.518z" fill="#FEFEFE"/><path d="M41.492 43.646a6.543 6.543 0 0 1-1.576 1.602c-.703-.764-.46-1.553-.024-2.317.194-.666.896-.814 1.26-1.283-.121.69.242 1.307.34 1.998z" fill="#D04043"/><path d="M38.002 47.172c-.558.863-1.31 1.48-2.23 1.898-.17-.961.945-1.652.605-2.663.485-.764 1.261-1.232 1.915-1.8.8.962 0 1.751-.29 2.565z" fill="#D96244"/><path d="M38.847 34.153c-.098.123-.194.222-.291.345-.097-.197-.17-.42-.267-.616v-.962c.509.271.145.912.558 1.233z" fill="#98C7B1"/><path d="M37.66 35.163c-.824-.715-1.357-1.652-1.89-2.565v-.961c.678 1.134 1.527 2.194 1.89 3.526z" fill="#B7D2B4"/><path d="M40.739 32.229c-.097.098-.194.222-.291.32-.558-1.603-.34-3.28-.17-4.882.145-1.332.267-2.638.218-3.97-.145-4.167.703-8.26.655-12.427-.025-1.258.896-.863 1.575-.912-.315 2.786-.606 5.597-.945 8.383-.485 3.748-.485 7.545-1.188 11.293-.145.715-.267 1.48.146 2.195z" fill="#7BBCB0"/><path d="m39.82 33.19-.316.32c-.679-1.75-.8-3.625-.848-5.45-.097-4.364-.849-8.654-1.285-12.994-.121-1.331-.024-2.638-.267-3.97-.194-1.134.922-.616 1.503-.764-.145 6.707.824 13.39.679 20.096-.024.912.34 1.85.533 2.762z" fill="#88C1B1"/><path d="M37.03 35.853c-.22.198-.413.42-.631.617-.194.074-.437.099-.582-.05-1.479-1.33-3.006-2.588-4.46-3.945-.17-.148-.17-.37-.073-.591a4.124 4.124 0 0 1 1.236-1.282c1.867 1.454 2.933 3.575 4.51 5.251zM32.908 30.01c-.533-.099-1.139.172-1.6-.296l.025-.025c.097-.148.218-.148.315 0h1.26a1 1 0 0 1 .122.222c0 .025-.097.05-.122.099z" fill="#DDD8B1"/><path d="M23.288 40.34c.218.198.412.42.63.617-2.497.222-4.993.42-7.49.642-2.012.197-4.048.419-6.06.64 0-.64-.024-1.306-.024-1.947 1.212-.814 2.593-.247 3.878-.395 2.521-.271 5.066-.074 7.611-.074.51.025 1.018.173 1.455.518z" fill="#EBAC5E"/><path d="M24.861 41.943c.097.099.219.198.316.32-1.915.026-3.685.765-5.551 1.086a124.81 124.81 0 0 0-8.945 1.8c-.121-.838.121-1.159 1.067-1.307 3.563-.493 7.102-1.11 10.641-1.75.824-.149 1.648-.124 2.472-.149z" fill="#E9A654"/><path d="M52.593 16.152c-.194 1.776-1.309 3.107-2.23 4.513-.557-.666.073-1.06.364-1.48.703-.961.8-2.318 1.866-3.033z" fill="#5EA4C1"/><path d="M21.444 38.394c.412.222.727.542.945.961-.388.42-.921.469-1.454.469-2.933.025-5.89 0-8.824.025-.63 0-1.284-.025-1.77-.494-.169-1.11.413-1.306 1.382-1.306 3.248-.025 6.472.074 9.72.345z" fill="#ECB36A"/><path d="M10.342 39.355H22.39c.412.222.678.568.896.987-3.442.123-6.884-.32-10.326.246-.848.148-1.745-.172-2.618-.27v-.642a.715.715 0 0 1 0-.32z" fill="#EBB065"/><path d="M31.626 29.663h-.291c-.315-.715-1.26-1.01-1.284-1.923.654.518 1.406.987 1.575 1.924z" fill="#D5D7B2"/><path d="M31.287 31.908c1.721 1.529 3.418 3.033 5.14 4.562-.219.197-.437.419-.68.616-2.302-.69-4.048-2.342-6.06-3.55.461-.617.946-1.184 1.6-1.628z" fill="#F4D8AB"/><path d="M34.46 38.343c-1.407 1.726-1.504 1.726-3.08.247-.484-.469-1.041-.863-1.357-1.48 0-.148 0-.37.17-.394 1.503-.148 2.885.222 4.194.937.266.123.266.419.072.69z" fill="#EFBF7E"/><path d="M34.46 38.344c-1.236-1.283-2.86-1.184-4.436-1.233-.606-.469-1.163-.962-1.576-1.652-.048-.617.461-.617.752-.518 2.012.74 4.17 1.11 5.914 2.49-.024.42-.17.79-.654.913z" fill="#F1C68B"/><path d="M35.14 37.43c-1.6-.591-3.175-1.232-4.8-1.75-.581-.173-1.163-.863-1.866-.222-.533-1.01.582-1.085.921-1.602 2.06.764 3.83 2.095 5.842 2.983.194.099.242.32.194.542-.121.025-.194.05-.291.05z" fill="#F3CE98"/><path d="M35.406 37.382c-1.503-1.183-3.345-1.652-4.945-2.638-.412-.246-.897-.37-1.066-.888.096-.098.218-.197.315-.296 1.115-.098 1.77.765 2.569 1.307 1.163.765 2.448 1.307 3.49 2.244-.145.074-.242.173-.363.271z" fill="#F4D3A1"/><path d="M38 47.172c.097-.863.194-1.701.29-2.564l1.6-1.702c0 .765.025 1.554.025 2.318L38 47.172z" fill="#D65443"/></g></g><defs><clipPath id="a"><path fill="#fff" d="M0 0h80v80H0z"/></clipPath><clipPath id="b"><path fill="#fff" transform="translate(10 10)" d="M0 0h60v60H0z"/></clipPath></defs></svg>