<?xml version="1.0" encoding="UTF-8"?> <svg xmlns="http://www.w3.org/2000/svg" width="80" height="80" viewBox="0 0 80 80" fill="none"><rect width="80" height="80" fill="#F5F8FA"></rect><path d="M46.1784 23H51.746V56.4199H46.1784V34.2241L35.3948 56.4199H29.8457V23H35.3948V45.2417L46.1784 23Z" fill="#EC1C24"></path><path d="M21.9188 56.4199H16.3697V42.0971H5.54906V56.4199H0V23H5.54906V36.5424H16.3697V23H21.9188V56.4199Z" fill="#004684"></path><path d="M77.3734 28.5776H65.3505V35.0505H69.6788C72.8479 35.0505 75.3573 36.0068 77.207 37.9196C79.069 39.8171 80 42.3802 80 45.6089C80 48.853 79.0752 51.462 77.2255 53.436C75.3881 55.3947 72.9404 56.3893 69.8822 56.4199H59.7459V23H77.3734V28.5776ZM65.3505 40.6051V50.8882H69.7712C71.1893 50.8882 72.3176 50.4062 73.1562 49.4421C74.007 48.4781 74.4324 47.1851 74.4324 45.563C74.4324 44.0481 74.0255 42.8546 73.2117 41.9823C72.4101 41.0948 71.3065 40.6357 69.9007 40.6051H65.3505Z" fill="#004684"></path></svg> 