<?xml version="1.0" encoding="UTF-8"?> <svg xmlns="http://www.w3.org/2000/svg" width="80" height="80" viewBox="0 0 80 80" fill="none"><rect width="80" height="80" fill="#00A651"></rect><circle cx="40" cy="40" r="25" fill="#0E7B34"></circle><path d="M39 50.3281V29H46.4707C49.0586 29 51.0215 29.498 52.3594 30.4941C53.6973 31.4805 54.3662 32.9307 54.3662 34.8447C54.3662 35.8896 54.0977 36.8125 53.5605 37.6133C53.0234 38.4043 52.2764 38.9854 51.3193 39.3564C52.4131 39.6299 53.2725 40.1816 53.8975 41.0117C54.5322 41.8418 54.8496 42.8574 54.8496 44.0586C54.8496 46.1094 54.1953 47.6621 52.8867 48.7168C51.5781 49.7715 49.7129 50.3086 47.291 50.3281H39ZM43.3945 41.041V46.7979H47.1592C48.1943 46.7979 49 46.5537 49.5762 46.0654C50.1621 45.5674 50.4551 44.8838 50.4551 44.0146C50.4551 42.0615 49.4443 41.0703 47.4229 41.041H43.3945ZM43.3945 37.9355H46.6465C48.8633 37.8965 49.9717 37.0127 49.9717 35.2842C49.9717 34.3174 49.6885 33.624 49.1221 33.2041C48.5654 32.7744 47.6816 32.5596 46.4707 32.5596H43.3945V37.9355Z" fill="white"></path><path d="M43.3438 50.3281H38.9492L30.3945 36.2949V50.3281H26V29H30.3945L38.9639 43.0625V29H43.3438V50.3281Z" fill="white"></path></svg> 