<?xml version="1.0" encoding="UTF-8"?> <svg xmlns="http://www.w3.org/2000/svg" width="80" height="80" viewBox="0 0 80 80" fill="none"><rect width="80" height="80" fill="white"></rect><path fill-rule="evenodd" clip-rule="evenodd" d="M37.1034 22.5181L41.2831 22.5156L32.5339 49.1441L28.4717 49.1323L37.1034 22.5181Z" fill="#0063AB"></path><path fill-rule="evenodd" clip-rule="evenodd" d="M43.9344 29.5509L47.9026 29.5293L39.3272 55.8374H35.5068L43.9344 29.5509Z" fill="#0063AB"></path><path fill-rule="evenodd" clip-rule="evenodd" d="M19.2109 49.1223L20.8564 49.1285L24.858 36.4367L27.9985 46.5309L30.1592 39.8377L26.2634 27.9463L19.2109 49.1223Z" fill="#0063AB"></path><path fill-rule="evenodd" clip-rule="evenodd" d="M26.9346 25.3507L27.8358 23.1094L31.5374 35.657L30.6949 38.0913L26.9346 25.3507Z" fill="#0063AB"></path><path fill-rule="evenodd" clip-rule="evenodd" d="M67.501 33.7285C67.6575 34.4169 67.7367 34.5456 67.6631 35.2625C71.4989 35.257 75.9298 35.1914 79.7619 35.1803C79.6908 34.6266 79.7081 34.5858 79.5398 33.7148C75.5258 33.7229 71.5125 33.7229 67.501 33.7285Z" fill="#0063AB"></path><path fill-rule="evenodd" clip-rule="evenodd" d="M79.3369 32.3128H67.1347C66.9151 31.8378 66.6658 31.2768 66.4097 30.8191C66.2137 30.4691 65.433 29.5445 65.4404 29.4678C65.9291 29.4084 68.4573 29.5111 69.3938 29.4869C69.3035 28.9334 69.2144 28.6452 69.1266 28.4065C64.7792 16.9937 56.3491 5.69667 38.25 5.11098C15.3804 5.11654 1.33737 21.8024 0.876531 40.3381H0C0.217122 18.6111 15.9755 0.69568 38.2506 0.0159757C57.2894 -0.49303 74.8361 11.1801 79.3369 32.3128Z" fill="#0063AB"></path><path fill-rule="evenodd" clip-rule="evenodd" d="M34.001 49.1231L42.6543 22.4767L43.8927 22.4736L35.48 49.1584L34.001 49.1231Z" fill="#0063AB"></path><path fill-rule="evenodd" clip-rule="evenodd" d="M40.8545 55.8368L49.2264 29.5287L50.7512 29.5176L42.2686 55.8368H40.8545Z" fill="#0063AB"></path><path fill-rule="evenodd" clip-rule="evenodd" d="M51.0878 32.8486C51.3463 31.9976 51.7144 30.7007 52.174 29.5039C55.549 29.5806 58.4044 29.4693 61.7812 29.5423C67.8266 30.5609 67.2804 41.498 60.5242 42.6867C65.6059 46.6004 61.1397 55.8503 55.6374 55.8479C51.7391 55.8479 47.5631 55.8615 43.666 55.8615C43.893 55.2646 44.2116 54.1557 44.4337 53.562C47.9584 53.4105 51.4892 53.6238 55.0108 53.4735C59.6793 50.7856 60.4426 45.8706 57.7876 42.5958C64.889 40.3093 62.5439 32.8233 60.2694 32.7991C56.8183 32.7293 54.5364 32.9222 51.0878 32.8486Z" fill="#0063AB"></path><path fill-rule="evenodd" clip-rule="evenodd" d="M44.8965 52.0727C45.0437 51.6231 45.2955 50.9063 45.4421 50.4579C48.2925 50.4233 50.2447 50.4993 53.0921 50.4035C54.9676 49.5834 55.3852 47.6952 54.8618 46.2751C51.863 46.2751 49.7066 46.3098 46.7046 46.3098C47.0838 45.2602 47.518 43.8186 47.8948 42.7715C51.0446 42.7715 53.2034 42.8482 56.3526 42.8482C59.0614 44.536 57.6795 51.1636 54.5952 52.0733H44.8965V52.0727Z" fill="#0063AB"></path><path fill-rule="evenodd" clip-rule="evenodd" d="M48.3057 41.4007C51.0033 41.4007 54.1265 41.3816 56.8266 41.3816C59.2453 41.0346 60.9068 38.4178 61.0676 36.6849C61.1462 35.8184 60.5734 34.4942 59.7946 34.2957L50.6223 34.2734L50.2208 35.4677C53.2964 35.4677 55.6519 35.4331 58.7244 35.4331C59.9251 36.5513 58.6589 39.7735 56.5056 40.0389H48.7139L48.3057 41.4007Z" fill="#0063AB"></path><path fill-rule="evenodd" clip-rule="evenodd" d="M12.5225 49.1686L21.1931 22.4561H26.4536L17.9536 49.108L12.5225 49.1686Z" fill="#0063AB"></path><path fill-rule="evenodd" clip-rule="evenodd" d="M45.1367 25.7733L46.1982 22.4565L50.1645 22.4336L49.1006 25.7845L45.1367 25.7733Z" fill="#0063AB"></path><path fill-rule="evenodd" clip-rule="evenodd" d="M50.4609 25.7659L51.5224 22.4745L53.1041 22.4404L52.0049 25.7678L50.4609 25.7659Z" fill="#0063AB"></path><path fill-rule="evenodd" clip-rule="evenodd" d="M44.3691 28.1072L44.7595 26.9561H48.7184L48.3349 28.1054L44.3691 28.1072Z" fill="#0063AB"></path><path fill-rule="evenodd" clip-rule="evenodd" d="M49.708 28.0786L50.0748 26.9521L51.6479 26.9571L51.2248 28.0835L49.708 28.0786Z" fill="#0063AB"></path><path fill-rule="evenodd" clip-rule="evenodd" d="M38.4443 18.8856L39.5083 15.5688L43.4716 15.5459L42.4101 18.8968L38.4443 18.8856Z" fill="#0063AB"></path><path fill-rule="evenodd" clip-rule="evenodd" d="M43.7695 18.8727L44.8298 15.5837L46.1467 15.5527L45.05 18.8789L43.7695 18.8727Z" fill="#0063AB"></path><path fill-rule="evenodd" clip-rule="evenodd" d="M37.6787 21.2185L38.0672 20.0654H42.0601L41.6636 21.216L37.6787 21.2185Z" fill="#0063AB"></path><path fill-rule="evenodd" clip-rule="evenodd" d="M43.0195 21.1899L43.3864 20.0635H44.6674L44.3229 21.1788L43.0195 21.1899Z" fill="#0063AB"></path><path fill-rule="evenodd" clip-rule="evenodd" d="M12.7956 44.0483C13.0312 43.3054 13.0479 43.2293 13.2756 42.5315C11.5627 42.4956 0.538974 42.4604 0.0410156 42.4845C0.0546244 43.3616 0.0546218 43.0524 0.114624 44.0167C4.12675 44.0167 8.74137 43.9289 12.7956 44.0483Z" fill="#0063AB"></path><path fill-rule="evenodd" clip-rule="evenodd" d="M0.344727 45.5538C3.83291 45.6144 8.87931 45.5087 12.2648 45.5742C11.898 47.014 11.4031 48.439 11.1155 49.1348C10.6194 49.1694 11.0351 49.1898 10.1004 49.1651C10.239 49.6419 10.2526 49.7564 10.3336 49.9976C14.0568 61.623 21.8683 73.3561 39.9148 74.898C62.751 76.1189 77.67 60.2006 79.1193 41.7168C79.4954 41.7403 79.6241 41.7459 79.9996 41.765C78.6152 63.4494 61.9178 80.5045 39.6414 79.9893C20.6008 79.4896 3.70425 66.8906 0.344727 45.5538Z" fill="#0063AB"></path></svg> 