<?xml version="1.0" encoding="UTF-8"?> <svg xmlns="http://www.w3.org/2000/svg" width="80" height="80" viewBox="0 0 80 80" fill="none"><rect width="80" height="80" fill="#1D334B"></rect><path d="M26.4481 20H14.3056C12.5841 28.1302 12.0512 39.7247 12 44.3805C13.1477 52.5507 21.8712 58.1977 26.0895 60L26.6531 59.4493L26.4481 20Z" fill="#DD1936"></path><path d="M12.3271 36.2686H26.5319L26.5511 39.1722H12.167L12.3271 36.2686Z" fill="white"></path><path d="M12.1778 39.1758H26.5619V42.0794H12.0625L12.1778 39.1758Z" fill="#13387E"></path><path d="M12.0523 42.0762H26.5644L26.5772 44.9798H12.0979L12.0489 44.5958L12 44.2117V43.7275L12.0523 42.0762Z" fill="white"></path><path d="M32.3408 20H38.284V60H32.3408V20Z" fill="white"></path><path d="M62.0568 20H68V60H62.0568V20Z" fill="white"></path><path d="M64.8235 38.0726V43.8799H35.3124L35.3124 38.0726H64.8235Z" fill="white"></path></svg> 