<?xml version="1.0" encoding="UTF-8"?> <svg xmlns="http://www.w3.org/2000/svg" width="80" height="80" viewBox="0 0 80 80" fill="none"><rect width="80" height="80" fill="#004A99"></rect><path fill-rule="evenodd" clip-rule="evenodd" d="M31.631 11.0454C31.3854 10.619 26.6093 13.315 25.7516 14.1733L23.5932 16.3332L22.5514 17.6737L21.4348 20.2804L20.9883 21.8443L20.9141 23.1103L21.2116 24.8232L21.7326 25.8659L22.5514 26.3872C22.5514 26.3872 22.3282 26.4617 23.2212 26.7597C24.1143 27.0576 24.5608 27.0576 24.5608 27.0576L27.0912 26.6851L31.7055 26.0149C34.1789 25.6558 37.2063 25.5798 39.7433 25.3447C39.7433 25.3447 41.3064 25.2702 42.646 25.2702C43.9856 25.2702 48.8977 25.4192 49.8652 25.4192C50.8325 25.4192 51.5023 25.6424 52.0979 25.6424C52.6932 25.6424 54.033 25.9404 54.033 25.9404L55.4469 26.6851L56.3401 27.4299L56.7122 28.1746C56.7122 28.1746 56.9354 28.3981 56.7122 29.0683C56.4889 29.7386 56.6377 29.6641 56.4144 30.0366C56.1912 30.4088 55.8934 30.9303 55.8934 30.9303C55.8934 30.9303 55.5959 31.4515 54.9261 32.0473C54.2563 32.6432 54.8516 32.2707 54.033 32.7922C53.2142 33.3134 52.9909 33.7602 52.9909 33.7602L55.0003 33.239L56.5634 32.4942L57.6052 31.6005L58.5728 30.8558L60.5822 29.2173L62.2196 27.8023L63.9314 25.8659L65.0477 23.855L65.643 21.2486L65.4943 18.7164L64.9732 17.2267L64.1547 15.9608L62.2196 14.7691L60.5079 14.3968L58.9448 14.0243C57.7416 13.9492 56.3093 13.6521 55.1493 13.6521C54.6283 13.6521 54.1073 13.4286 52.5444 13.5776C50.9815 13.7266 49.1209 13.8756 48.6744 14.0243C48.2279 14.1733 45.8462 14.3968 45.8462 14.3968C45.8462 14.3968 43.6136 14.6203 42.9435 14.6948C40.4384 14.9731 37.934 15.4238 35.4268 15.7373L33.8639 15.8863L31.259 15.9608L29.6216 15.4395L29.2496 14.3223L30.0682 12.8329C29.9419 12.5163 31.8768 11.4718 31.631 11.0454H31.631Z" fill="white"></path><path fill-rule="evenodd" clip-rule="evenodd" d="M30.885 30.5074C33.2435 27.3604 29.9731 29.9942 26.5241 33.2433C24.7174 34.9454 23.1318 36.9139 21.955 38.3042C21.2806 39.1007 20.7834 39.9405 20.4655 40.338L19.2747 41.8277L18.2327 44.2854L16.8186 47.6368L16.2978 50.7647L16 54.1906L16.4465 57.6165L17.3396 61.0421L18.8282 63.4253L20.9121 65.3617L22.996 66.8512L25.8239 68.0429L29.1731 68.4896L33.5642 67.7449L37.7319 65.9575L41.1554 64.0213L44.4301 61.3401L47.1093 58.0632L49.1932 54.7863L50.6818 51.3604L51.7236 47.1898L52.0214 43.6149L51.2771 39.5933L49.3422 36.7634L47.7048 35.4227L45.621 34.678L42.9416 34.529H40.5601L38.1785 35.125L35.7968 36.0187L33.1176 37.3591L31.4803 38.5508L29.9917 39.4446L28.8011 40.636L31.4803 39.4446L33.4154 38.2528L35.9458 37.3591L37.5832 36.9124H40.1136L42.1975 37.2101L43.6116 37.8061L44.7279 38.8486L45.0254 40.0403L45.3232 42.2745L44.8767 45.1046L43.9836 47.0408L42.9416 48.9772L42.0485 50.7647L40.5601 52.2541L39.0715 53.8926L36.8389 55.68L34.0107 57.1695L31.9268 57.4675L29.3964 57.3185L26.866 56.1268L25.0798 54.0416L23.74 51.2114L23.4425 48.8283L23.5167 46.1471L23.5912 44.3599L24.3355 41.8277L25.5263 38.9976L26.4194 37.2101L27.6102 35.2739L28.9498 33.3375L29.9916 31.699L30.885 30.5074Z" fill="white"></path></svg> 