<?xml version="1.0" encoding="UTF-8"?> <svg xmlns="http://www.w3.org/2000/svg" width="80" height="80" viewBox="0 0 80 80" fill="none"><rect width="80" height="80" fill="#F5F8FA"></rect><path d="M45.3458 28.7168V40.4717H33.673V28.7168H22.0186V64H33.673V52.2266H45.3458V64H57.0003V28.7168H45.3458Z" fill="#0DB14B"></path><path d="M33.6728 19.8867C33.6728 18.7216 33.33 17.5827 32.6879 16.6143C32.0458 15.6458 31.1332 14.8913 30.0656 14.4463C28.9981 14.0013 27.8237 13.8858 26.691 14.1145C25.5584 14.3431 24.5185 14.9056 23.703 15.7307C22.8875 16.5559 22.333 17.6065 22.1099 18.7496C21.8868 19.8928 22.005 21.077 22.4496 22.1523C22.8941 23.2276 23.645 24.1457 24.6072 24.7903C25.5694 25.4349 26.6997 25.7771 27.8548 25.7734C28.6203 25.7734 29.3784 25.621 30.0855 25.3249C30.7926 25.0289 31.4347 24.595 31.9752 24.0481C32.5157 23.5012 32.9439 22.8521 33.2352 22.138C33.5265 21.4239 33.6752 20.6589 33.6728 19.8867V19.8867Z" fill="#0DB14B"></path><path d="M57 19.8866C56.9999 18.7239 56.6585 17.5872 56.0188 16.62C55.3791 15.6528 54.4698 14.8982 53.4054 14.4516C52.3411 14.005 51.1695 13.8863 50.0384 14.1104C48.9072 14.3346 47.8672 14.8916 47.0496 15.7112C46.2319 16.5307 45.6731 17.5762 45.4438 18.7156C45.2145 19.8551 45.3248 21.0375 45.761 22.1138C46.1971 23.1901 46.9394 24.112 47.8944 24.7633C48.8493 25.4145 49.9741 25.766 51.1268 25.7733C51.8964 25.7782 52.6593 25.6295 53.3716 25.3359C54.084 25.0422 54.7317 24.6094 55.2776 24.0623C55.8234 23.5152 56.2566 22.8646 56.5522 22.1479C56.8478 21.4313 57 20.6628 57 19.8866V19.8866Z" fill="#0DB14B"></path></svg> 