<?xml version="1.0" encoding="UTF-8"?> <svg xmlns="http://www.w3.org/2000/svg" width="80" height="80" viewBox="0 0 80 80" fill="none"><rect width="80" height="80" fill="#E1EDF2"></rect><path d="M18.292 59.8201H64.2246V20.1797C16.4044 61.0786 23.3257 55.4156 18.292 59.8201Z" fill="#00858A"></path><path d="M63.5954 36.5392L67.3707 30.2471L49.1235 34.0224C54.1572 34.0224 58.5617 34.6516 63.5954 36.5392ZM35.2808 37.7976C40.3145 35.2808 45.9774 34.6516 49.1235 34.0224C48.4943 34.0224 35.91 37.7976 35.2808 37.7976ZM35.2808 37.7976C30.8763 39.6853 26.4718 43.4606 27.101 47.2358C27.7302 50.3819 31.5055 52.2695 37.7977 53.528C38.4269 53.528 37.7977 54.1572 37.7977 54.1572C32.764 53.528 15.146 52.8988 12.6291 48.4943C11.9999 44.719 24.5842 40.9437 35.2808 37.7976Z" fill="#D7B56D"></path><path d="M51.0114 43.4609V45.9778C52.2699 47.8654 55.4159 54.1576 51.0114 54.1576V56.6744C57.3036 56.6744 56.0452 50.3823 54.1575 45.9778H57.9328V56.6744H60.4496V43.4609H51.0114ZM50.3822 45.9778V43.4609H41.5732V56.6744H49.1238C50.3822 56.6744 50.3822 54.7868 50.3822 53.5283C50.3822 52.2699 49.1238 48.4946 48.4946 48.4946H45.9777C45.9777 49.7531 48.4946 52.8991 47.2362 54.1576H44.0901V45.9778H50.3822Z" fill="#FEFEFE"></path></svg> 