<?xml version="1.0" encoding="UTF-8"?> <svg xmlns="http://www.w3.org/2000/svg" width="80" height="80" viewBox="0 0 80 80" fill="none"><rect width="80" height="80" fill="#F5F8FA"></rect><path d="M16.7783 59.4581C15.0695 59.4581 13.493 59.1834 12.0487 58.6342C10.6043 58.0646 9.35328 57.2814 8.29548 56.2846C7.25801 55.2879 6.44431 54.108 5.85438 52.745C5.28479 51.3618 5 49.8564 5 48.229C5 46.6016 5.28479 45.1065 5.85438 43.7435C6.44431 42.3602 7.25801 41.1702 8.29548 40.1734C9.35328 39.1766 10.6043 38.4036 12.0487 37.8544C13.493 37.2848 15.0695 37 16.7783 37C18.487 37 20.0534 37.2848 21.4774 37.8544C22.9217 38.4036 24.1626 39.1766 25.2 40.1734C26.2375 41.1499 27.041 42.3297 27.6106 43.713C28.2006 45.0759 28.4955 46.5813 28.4955 48.229C28.4955 49.8768 28.2006 51.3923 27.6106 52.7756C27.041 54.1385 26.2375 55.3184 25.2 56.3151C24.1626 57.2916 22.9217 58.0646 21.4774 58.6342C20.0534 59.1834 18.487 59.4581 16.7783 59.4581ZM16.7783 53.9656C17.592 53.9656 18.3345 53.8232 19.0058 53.5384C19.6974 53.2536 20.2873 52.8569 20.7756 52.3484C21.2841 51.8398 21.6706 51.2397 21.9351 50.5481C22.2199 49.8361 22.3623 49.0631 22.3623 48.229C22.3623 47.395 22.2199 46.6321 21.9351 45.9405C21.6706 45.2285 21.2841 44.6182 20.7756 44.1097C20.2873 43.6011 19.6974 43.2044 19.0058 42.9196C18.3345 42.6349 17.592 42.4925 16.7783 42.4925C15.9646 42.4925 15.2119 42.6349 14.5203 42.9196C13.8286 43.2044 13.2285 43.6011 12.72 44.1097C12.2317 44.6182 11.8452 45.2285 11.5604 45.9405C11.2756 46.6321 11.1332 47.395 11.1332 48.229C11.1332 49.0631 11.2756 49.8361 11.5604 50.5481C11.8452 51.2397 12.2317 51.8398 12.72 52.3484C13.2285 52.8569 13.8286 53.2536 14.5203 53.5384C15.2119 53.8232 15.9646 53.9656 16.7783 53.9656Z" fill="#0047BA"></path><path d="M50.2365 37.5492V58.9088H44.3474V42.9196H40.228L39.4041 50.3345C38.7735 56.0914 36.0578 58.9698 31.257 58.9698H29.5482V53.5689H30.5552C31.4706 53.5689 32.1622 53.3045 32.6301 52.7756C33.1183 52.2263 33.4336 51.3414 33.576 50.1209L35.0407 37.5492H50.2365Z" fill="#0047BA"></path><path d="M67.3411 55.4303H59.7737L58.5837 58.9088H52.2978L60.6891 37.5492H66.4257L75 58.9088H68.5311L67.3411 55.4303ZM63.5574 44.2012L61.2078 50.8227H65.9069L63.5574 44.2012Z" fill="#0047BA"></path><path d="M7.322 18H12.2582V19.9991H7.322V18ZM14.4879 21.0447V31.809H11.5816V26.0732L7.29124 31.809H5V21.0447H7.90634V26.8113L12.1659 21.0447H14.4879Z" fill="#0047BA"></path><path d="M21.9449 32.0858C21.0837 32.0858 20.2892 31.9474 19.5614 31.6706C18.8335 31.3835 18.203 30.9888 17.6699 30.4865C17.1471 29.9842 16.737 29.3896 16.4397 28.7027C16.1527 28.0056 16.0092 27.247 16.0092 26.4268C16.0092 25.6067 16.1527 24.8532 16.4397 24.1664C16.737 23.4693 17.1471 22.8695 17.6699 22.3672C18.203 21.8649 18.8335 21.4753 19.5614 21.1985C20.2892 20.9115 21.0837 20.7679 21.9449 20.7679C22.806 20.7679 23.5954 20.9115 24.313 21.1985C25.0409 21.4753 25.6662 21.8649 26.1891 22.3672C26.7119 22.8593 27.1168 23.4539 27.4039 24.151C27.7012 24.8378 27.8498 25.5965 27.8498 26.4268C27.8498 27.2572 27.7012 28.021 27.4039 28.7181C27.1168 29.405 26.7119 29.9995 26.1891 30.5019C25.6662 30.994 25.0409 31.3835 24.313 31.6706C23.5954 31.9474 22.806 32.0858 21.9449 32.0858ZM21.9449 29.3178C22.3549 29.3178 22.7291 29.2461 23.0674 29.1025C23.416 28.959 23.7133 28.7591 23.9593 28.5028C24.2156 28.2465 24.4104 27.9441 24.5437 27.5955C24.6872 27.2367 24.759 26.8472 24.759 26.4268C24.759 26.0065 24.6872 25.6221 24.5437 25.2735C24.4104 24.9147 24.2156 24.6072 23.9593 24.3509C23.7133 24.0946 23.416 23.8947 23.0674 23.7512C22.7291 23.6076 22.3549 23.5359 21.9449 23.5359C21.5348 23.5359 21.1555 23.6076 20.8069 23.7512C20.4584 23.8947 20.156 24.0946 19.8997 24.3509C19.6536 24.6072 19.4589 24.9147 19.3153 25.2735C19.1718 25.6221 19.1 26.0065 19.1 26.4268C19.1 26.8472 19.1718 27.2367 19.3153 27.5955C19.4589 27.9441 19.6536 28.2465 19.8997 28.5028C20.156 28.7591 20.4584 28.959 20.8069 29.1025C21.1555 29.2461 21.5348 29.3178 21.9449 29.3178Z" fill="#0047BA"></path><path d="M42.505 21.0447V31.809H29.3727V21.0447H32.3405V29.0871H34.5241V21.0447H37.3382V29.0871H39.5218V21.0447H42.505Z" fill="#0047BA"></path><path d="M50.6283 31.809L47.5528 27.0573V31.809H44.5849V21.0447H47.5528V25.5811L50.3976 21.0447H53.8268L50.3822 26.2577L54.1497 31.809H50.6283Z" fill="#0047BA"></path><path d="M61.5272 30.0559H57.7136L57.1139 31.809H53.9461L58.1749 21.0447H61.0659L65.3869 31.809H62.1269L61.5272 30.0559ZM59.6204 24.397L58.4363 27.7339H60.8044L59.6204 24.397Z" fill="#0047BA"></path><path d="M71.0172 21.0447C71.5913 21.0447 72.1193 21.1421 72.6011 21.3369C73.0829 21.5317 73.5033 21.8034 73.8621 22.1519C74.2209 22.4902 74.4977 22.9003 74.6925 23.3821C74.8975 23.8537 75 24.3714 75 24.9352C75 25.4991 74.8975 26.0219 74.6925 26.5037C74.4977 26.9753 74.2209 27.3854 73.8621 27.7339C73.5033 28.0825 73.0829 28.3542 72.6011 28.5489C72.1193 28.7437 71.5913 28.8411 71.0172 28.8411H69.4026V31.809H66.4348V21.0447H71.0172ZM70.6636 26.2423C71.0531 26.2423 71.3658 26.1244 71.6016 25.8886C71.8374 25.6426 71.9553 25.3248 71.9553 24.9352C71.9553 24.5559 71.8374 24.2432 71.6016 23.9972C71.3658 23.7512 71.0531 23.6282 70.6636 23.6282H69.4026V26.2423H70.6636Z" fill="#0047BA"></path></svg> 