<svg width="80" height="80" viewBox="0 0 80 80" fill="none" xmlns="http://www.w3.org/2000/svg">
<rect y="0.000976562" width="80" height="80" fill="white"/>
<path d="M48.0805 65.9338L45.3181 57.1284C52.8568 54.7617 57.9236 47.8082 57.9236 39.8208C57.9236 31.9344 52.9384 25.0072 45.5187 22.5837L48.3836 13.8101C59.608 17.4779 67.1508 27.9317 67.1508 39.8208C67.1508 51.8621 59.4876 62.3546 48.0805 65.9338V65.9338ZM34.3235 57.0122L31.3755 65.758C20.2924 62.0211 12.8492 51.5977 12.8492 39.8208C12.8492 28.0313 20.3076 17.6066 31.4087 13.8793L34.3456 22.6266C27.0062 25.0902 22.0764 31.9994 22.0764 39.8208C22.0764 47.6324 26.9979 54.543 34.3221 57.0122H34.3235ZM39.9965 0.00276812C17.9077 0.00138406 0 17.9083 0 39.9952C0 62.0847 17.9063 80 39.9965 80C62.0826 80 80 62.0834 80 39.9952C80 17.9083 62.0826 0 39.9965 0V0.00276812Z" fill="#00B4E3"/>
</svg>
