<svg width="80" height="80" viewBox="0 0 80 80" fill="none" xmlns="http://www.w3.org/2000/svg">
<g clip-path="url(#clip0_8214_438)">
<path d="M80 0H0V80H80V0Z" fill="#CBFF5B"/>
<path fill-rule="evenodd" clip-rule="evenodd" d="M26.8955 40.5022C26.8955 33.5397 32.5378 27.8955 39.4985 27.8955C46.459 27.8955 52.1038 33.5397 52.1038 40.5022C52.1038 47.4622 46.459 53.1038 39.4985 53.1038C32.5378 53.1038 26.8955 47.4622 26.8955 40.5022Z" fill="#222222"/>
<path fill-rule="evenodd" clip-rule="evenodd" d="M48.667 24.458C48.667 20.66 51.7453 17.583 55.542 17.583C59.3387 17.583 62.417 20.66 62.417 24.458C62.417 28.2561 59.3387 31.333 55.542 31.333C51.7453 31.333 48.667 28.2561 48.667 24.458Z" fill="#222222"/>
<path fill-rule="evenodd" clip-rule="evenodd" d="M39.4658 13V22.9374C29.7826 22.9521 21.9374 30.8095 21.9374 40.5C21.9374 50.2003 29.7997 58.0626 39.5 58.0626C49.1416 58.0626 57.0627 50.2761 57.0627 40.434L67 40.4413C67 55.6895 54.6895 68 39.5 68C24.3129 68 12 55.6895 12 40.5C12 25.3227 24.2958 13.0196 39.4658 13Z" fill="#222222"/>
</g>
<defs>
<clipPath id="clip0_8214_438">
<rect width="80" height="80" fill="white"/>
</clipPath>
</defs>
</svg>
