<?xml version="1.0" encoding="UTF-8"?> <svg xmlns="http://www.w3.org/2000/svg" width="80" height="80" viewBox="0 0 80 80" fill="none"><rect width="80" height="80" fill="#C41230"></rect><path d="M58.8786 20.0501C58.7784 20.0501 58.6782 20 58.6281 20H57.2255C56.6744 20.0501 56.0733 20.1002 55.4221 20.1503C51.1641 20.3507 46.9562 20.6512 42.6982 21.052C39.1415 21.4026 35.5348 21.8034 32.0282 22.5548C29.9243 22.9555 27.8203 23.4565 25.8165 24.1578C25.0651 24.4083 24.3638 24.7088 23.7627 25.2098C23.2617 25.6105 22.861 26.1115 22.7608 26.7627C22.5103 28.1152 23.3118 29.1672 24.7646 29.3676C25.8165 29.5179 26.8184 29.3676 27.8203 29.1672C31.3269 28.4158 34.8836 27.8648 38.4402 27.3638C40.8948 27.0633 43.3494 26.8128 45.804 26.7627H46.2549C46.2549 26.8629 46.2048 26.9631 46.2048 27.0132C43.5498 34.2768 40.8447 41.4903 37.789 48.5536C37.0376 50.3069 36.2361 52.0101 35.3344 53.6632C33.8817 56.2681 30.7758 57.7709 27.9205 57.32C25.516 56.9694 23.7126 55.717 22.4102 53.7133C21.5085 52.2605 20.8572 50.6575 20.8071 48.9042C20.757 47.7521 21.0075 46.65 21.7088 45.6982C22.3601 44.7965 23.3118 44.2956 24.4139 44.0451C25.4158 43.7946 26.4177 43.6444 27.4196 43.8447C27.8203 43.8948 28.171 44.0451 28.5216 44.1453C28.3713 44.6462 28.0708 44.9468 27.67 45.047C27.2192 45.1973 26.7183 45.2975 26.2173 45.3976L26.2173 45.3977C26.0169 45.4478 25.7664 45.4978 25.516 45.598C24.6143 45.9487 24.2636 46.7502 24.6143 47.6519C25.1152 48.804 25.9668 49.5054 27.1691 49.856C28.4214 50.2067 29.6237 50.1065 30.8259 49.5555C33.3807 48.4033 34.9837 45.5479 34.5329 42.7928C34.3325 41.4903 33.531 40.5886 32.429 39.9374C31.377 39.2862 30.2248 39.0357 29.0226 38.9355C26.4678 38.7352 23.9631 39.186 21.6587 40.3883C19.0038 41.7408 17.6011 43.8948 17.2004 46.8003C17.1002 47.4515 17 48.1528 17 48.804C17 49.5054 17.1002 50.2568 17.2505 50.9581C17.5009 52.5611 18.0019 54.0639 18.7533 55.6168C19.5047 57.1697 20.707 58.3219 22.1096 59.3238C24.1634 60.8266 26.4678 61.7283 28.9725 62.079C30.0745 62.2292 31.1265 62.079 32.2286 61.9788C34.0821 61.8285 35.5849 61.027 36.8873 59.7746C37.9393 58.7227 38.7909 57.5705 39.5423 56.3181C41.2455 53.563 42.4978 50.6074 43.65 47.5517C44.7521 44.6963 45.804 41.7909 46.856 38.9355C46.9061 38.8353 46.9061 38.7352 46.9562 38.6851C47.0063 38.635 47.1065 38.5849 47.2067 38.5348C47.2067 38.635 47.2568 38.6851 47.2568 38.7852C46.9562 39.9875 46.6556 41.1397 46.3551 42.3419C46.0044 43.8447 45.8541 45.3977 45.754 46.9506C45.7039 48.1528 45.6037 49.3551 45.6037 50.5573C45.6037 51.6093 45.7039 52.6112 46.0044 53.6131C46.4052 54.8153 47.2568 55.5166 48.5091 55.717C48.96 55.7671 49.4108 55.6669 49.7615 55.3664C50.2624 54.9155 50.7634 54.4647 51.1641 53.9136C52.166 52.6112 53.2681 51.3087 54.5204 50.2568L59.079 45.2975C59.5799 43.8447 59.079 42.2918 56.8247 42.5423C56.3238 42.7928 55.6225 43.2937 54.9713 43.8447C53.769 44.8466 52.6168 45.8485 51.2643 46.65C51.2142 46.7001 51.114 46.7001 50.9637 46.8003C51.0138 46.2993 51.0639 45.8986 51.114 45.4978C51.4647 42.9931 52.166 40.6387 53.0176 38.2843C53.8191 36.0301 54.6707 33.7758 55.2718 31.4214C55.5724 30.3695 55.2217 29.0169 53.6688 28.6162C52.8673 28.4158 52.0658 28.4158 51.2643 28.4659C51.114 28.516 50.9637 28.516 50.7634 28.516C51.114 27.2636 51.8654 26.412 53.1178 26.1115C53.4684 26.0113 53.8191 25.9111 54.1697 25.9111C55.3218 25.861 56.524 25.8109 57.7261 25.7608L57.7264 25.7608C58.578 25.7107 59.4296 25.6606 60.2311 25.4102C61.784 24.9092 62.4853 23.1559 61.6338 21.7533C60.9825 20.8015 60.1309 20.1002 58.8786 20.0501Z" fill="white"></path></svg> 