<?xml version="1.0" encoding="UTF-8"?> <svg xmlns="http://www.w3.org/2000/svg" width="80" height="80" viewBox="0 0 80 80" fill="none"><rect width="80" height="80" fill="#F5F8FA"></rect><path d="M74 11H48L46.5 19H72.5L74 11Z" fill="#045898"></path><path d="M46 24.5L42.5 55H51.5L53.5 39H61V55C60.6 60.2 57.8333 61.8333 56.5 62H7.5L6 69H60C64.8 69 68 61.6667 69 58V37.5C69 34.7 66.3333 33.3333 65 33H54.5L55.5 24.5H46Z" fill="#045898"></path><path d="M39 24.5H29.5L26 55H36L39 24.5Z" fill="#659934"></path><path d="M18.5 11H48L46.5 19C39.3333 18.8333 25 18.6 25 19C23 19 22.1667 21.3333 22 22.5L19 55H9L13 18.5C13.4 14.9 16.8333 12 18.5 11Z" fill="#659934"></path></svg> 