<?xml version="1.0" encoding="UTF-8"?> <svg xmlns="http://www.w3.org/2000/svg" width="80" height="80" viewBox="0 0 80 80" fill="none"><rect width="80" height="80" fill="white"></rect><path d="M42.4746 15.8491H49.418C49.418 25.3585 49.418 30.7925 49.418 40.1509V40.6038C49.418 42.566 50.6255 44.9811 51.8331 46.1887C57.1161 51.4717 66.6255 47.6981 66.6255 39.8491C66.6255 31.2453 55.6067 27.9245 50.9274 34.566V25.8113C60.8897 20.6792 73.5689 27.7736 73.5689 39.6981C73.5689 43.9245 71.9086 47.8491 69.0406 50.717C66.1727 53.5849 62.2482 55.2453 58.0218 55.3962C48.3614 55.3962 42.6255 47.5472 42.6255 39.5472L42.4746 15.8491ZM7.00291 77.8868H13.9463V80H7.00291V77.8868ZM7.00291 72.9057H13.9463V76.0755H7.00291V72.9057ZM7.00291 65.6604H13.9463V70.9434H7.00291V65.6604ZM14.0972 39.3962C14.0972 37.434 15.3048 35.0189 16.5123 33.8113C21.7954 28.5283 31.1538 32.3019 31.1538 40.1509C31.1538 48.7547 20.135 52.0755 15.4557 45.434V54.1887C25.418 59.3208 38.0972 52.2264 38.0972 40.1509C38.0972 35.9245 36.4369 32 33.5689 29.1321C30.701 26.2641 26.7765 24.6038 22.5501 24.4528C12.5878 24.3019 6.85196 32.6038 7.00291 40.6038V64H14.0972C14.0972 54.3396 14.0972 49.2075 14.0972 39.6981V39.3962ZM42.4746 2.11321H49.418V0H42.4746V2.11321ZM42.4746 7.09434H49.418V3.92453H42.4746V7.09434ZM42.4746 14.3396H49.418V9.0566H42.4746V14.3396Z" fill="#000044"></path></svg> 