<?xml version="1.0" encoding="UTF-8"?> <svg xmlns="http://www.w3.org/2000/svg" width="80" height="80" viewBox="0 0 80 80" fill="none"><rect width="80" height="80" fill="#F5F8FA"></rect><path d="M45.5193 17.0433L33.3689 9.99972V17.1764C23.3563 19.9409 16 29.1089 16 40.0019C16 49.3946 21.4691 57.5113 29.3971 61.3389L31.7645 54.836C26.4709 52.0041 22.8684 46.4245 22.8684 40.0019C22.8684 32.9499 27.2121 26.9151 33.3689 24.4167V50.4256L45.5193 17.0433Z" fill="#3D3C43"></path><path d="M33.8477 62.9581L46.0002 70V62.8267C56.0111 60.0621 63.3691 50.8926 63.3691 40.0022C63.3691 30.6084 57.9013 22.4914 49.9709 18.6625L47.6037 25.1671C52.8985 27.999 56.498 33.5782 56.498 40.0022C56.498 47.0532 52.1566 53.0877 46.0002 55.586V29.5741L33.8477 62.9581Z" fill="#99D541"></path></svg> 