<?xml version="1.0" encoding="UTF-8"?> <svg xmlns="http://www.w3.org/2000/svg" width="80" height="80" viewBox="0 0 80 80" fill="none"><rect width="80" height="80" fill="#428A37"></rect><path fill-rule="evenodd" clip-rule="evenodd" d="M62 57.3586C62 60.4417 59.4963 63 56.3997 63H22.6003C19.5037 62.9344 17 60.4417 17 57.3586V23.6414C17 20.5583 19.5037 18 22.6003 18H56.3338C59.4305 18 61.9341 20.5583 61.9341 23.6414V57.3586H62Z" fill="#B49F64"></path><path fill-rule="evenodd" clip-rule="evenodd" d="M39.4667 37.6783C41.0479 37.6783 42.2998 38.9247 42.2998 40.499C42.2998 42.0734 41.0479 43.3197 39.4667 43.3197C37.8854 43.3197 36.6336 42.0734 36.6336 40.499C36.6995 38.9247 37.9513 37.6783 39.4667 37.6783ZM43.6834 32.0369C42.1021 32.0369 40.8503 33.2833 40.8503 34.8576C40.8503 36.432 42.1021 37.6783 43.6834 37.6783C45.2646 37.6783 46.5164 36.432 46.5164 34.8576C46.5164 33.2833 45.2646 32.0369 43.6834 32.0369ZM35.25 32.0369C33.6687 32.0369 32.4169 33.2833 32.4169 34.8576C32.4169 36.432 33.6687 37.6783 35.25 37.6783C36.8312 37.6783 38.0831 36.432 38.0831 34.8576C38.0831 33.2833 36.8312 32.0369 35.25 32.0369ZM47.9 26.3955C49.4813 26.3955 50.7331 27.6419 50.7331 29.2162C50.7331 30.7906 49.4813 32.0369 47.9 32.0369C46.3188 32.0369 45.067 30.7906 45.067 29.2162C45.1328 27.6419 46.3847 26.3955 47.9 26.3955ZM39.4667 26.3955C41.0479 26.3955 42.2998 27.6419 42.2998 29.2162C42.2998 30.7906 41.0479 32.0369 39.4667 32.0369C37.8854 32.0369 36.6336 30.7906 36.6336 29.2162C36.6995 27.6419 37.9513 26.3955 39.4667 26.3955ZM33.8664 29.2162C33.8664 30.7906 32.6145 32.0369 31.0333 32.0369C29.452 32.0369 28.2002 30.7906 28.2002 29.2162C28.2002 27.6419 29.452 26.3955 31.0333 26.3955C32.6145 26.3955 33.8664 27.6419 33.8664 29.2162ZM43.6834 43.2541C42.1021 43.2541 40.8503 44.5005 40.8503 46.0748C40.8503 47.6492 42.1021 48.8955 43.6834 48.8955C45.2646 48.8955 46.5164 47.6492 46.5164 46.0748C46.5164 44.5661 45.2646 43.2541 43.6834 43.2541ZM35.25 43.2541C33.6687 43.2541 32.4169 44.5005 32.4169 46.0748C32.4169 47.6492 33.6687 48.8955 35.25 48.8955C36.8312 48.8955 38.0831 47.6492 38.0831 46.0748C38.0831 44.5661 36.8312 43.2541 35.25 43.2541ZM47.9 48.8955C49.4813 48.8955 50.7331 50.1419 50.7331 51.7162C50.7331 53.225 49.4813 54.5369 47.9 54.5369C46.3188 54.5369 45.067 53.225 45.067 51.7162C45.1328 50.1419 46.3847 48.8955 47.9 48.8955ZM39.4667 48.8955C41.0479 48.8955 42.2998 50.1419 42.2998 51.7162C42.2998 53.225 41.0479 54.5369 39.4667 54.5369C37.8854 54.5369 36.6336 53.225 36.6336 51.7162C36.6995 50.1419 37.9513 48.8955 39.4667 48.8955ZM31.0333 48.8955C32.6145 48.8955 33.8664 50.1419 33.8664 51.7162C33.8664 53.225 32.6145 54.5369 31.0333 54.5369C29.452 54.5369 28.2002 53.225 28.2002 51.7162C28.2661 50.1419 29.5179 48.8955 31.0333 48.8955Z" fill="white"></path></svg> 