<?xml version="1.0" encoding="UTF-8"?> <svg xmlns="http://www.w3.org/2000/svg" width="80" height="80" viewBox="0 0 80 80" fill="none"><rect width="80" height="80" fill="#F5F8FA"></rect><rect y="10" width="80" height="60.0873" rx="4" fill="#006C54"></rect><path d="M17.6419 58.9081L3.84277 70.0871H80V48.7771L67.7729 51.0478L66.0262 49.3011L64.2795 47.3797L60.6113 46.8557L59.3886 48.6024L56.5939 45.8077L53.1004 47.3797V45.109L50.131 42.4889L47.8602 34.6286L45.7642 33.4059L42.096 27.8164L39.6506 29.5631L37.2052 31.8339L36.1572 31.4845L34.0611 33.4059L31.965 36.7247L26.5502 41.2662L23.7554 49.3011L18.1659 55.764L17.6419 58.9081Z" fill="white"></path><path d="M32.1396 20.3055C37.7292 16.3928 44.4832 17.3943 47.1615 18.3841C48.4191 14.0521 51.4118 10.9897 52.751 10H49.4322C47.6156 11.6769 46.4628 13.9592 46.1134 14.8907C39.1265 12.096 33.8864 17.3361 32.1396 20.3055Z" fill="white"></path><path d="M47.5107 29.5629C52.5413 25.5105 59.6214 26.477 62.5326 27.4668C63.93 21.5977 72.6636 16.6372 76.8557 14.8906C66.2356 16.0085 62.2997 21.5281 61.6592 24.1481C54.6723 21.4932 49.3157 26.6518 47.5107 29.5629Z" fill="white"></path><path d="M21.1352 62.2276L17.8164 65.721H21.1352L28.4714 63.1009L31.2662 60.6555L31.9649 65.721L34.9343 60.6555V59.0835L35.9823 56.9874L34.9343 54.542L33.1876 55.7647L30.3928 52.6206L34.0609 53.1446L33.1876 47.2057L34.0609 42.8389L36.681 41.9655L38.0784 36.7254L36.681 38.2974L35.9823 35.1533L34.9343 38.2974L29.5195 42.8389L26.3754 51.2232L22.3579 56.9874H21.1352V62.2276Z" fill="#006C54"></path><path d="M48.0348 47.5546L45.0653 46.1572L44.5413 49.8253L43.668 51.9214L47.3361 51.0481L48.0348 47.5546Z" fill="#006C54"></path><path d="M40.6988 52.6204L41.7468 44.0614L37.5547 42.6641C37.6711 44.0032 37.939 46.7514 38.0787 47.0309C38.2184 47.3104 39.8837 50.8737 40.6988 52.6204Z" fill="#006C54"></path><path d="M53.9741 49.9998L51.1793 48.4277L50.6553 56.6373L52.0527 56.1133L52.5767 58.9081L56.4195 52.9692L53.9741 49.9998Z" fill="#006C54"></path><path d="M61.8337 50L59.9123 51.5721V53.4934L57.6416 57.6856H61.8337L63.9298 54.0175L61.8337 53.4934V50Z" fill="#006C54"></path><path d="M42.271 61.0046C41.747 62.2856 40.6291 64.8824 40.3496 65.0221H41.0483L44.5417 62.2273L45.4151 62.926L47.6859 61.0046L45.4151 56.8125L43.8431 60.4806L42.271 61.0046Z" fill="#006C54"></path><path d="M24.8038 58.7336H23.5811V60.6549H24.8038L27.7732 60.1309L29.6946 57.6855L27.7732 55.0654L24.8038 58.7336Z" fill="white"></path></svg> 