<svg width="80" height="80" viewBox="0 0 80 80" fill="none" xmlns="http://www.w3.org/2000/svg">
<g clip-path="url(#clip0_4486_1161)">
<path d="M80 0.000976562H0V80.001H80V0.000976562Z" fill="#FFE600"/>
<path d="M40 47.1434L22.1192 65L15.0563 57.9467L32.9371 40.0901L29.1821 36.3402V29.019L26.5894 26.4299V32.8582L24.3543 35.0903L15.2351 26.0727L13 28.3048C13 26.6084 13.3576 21.6978 17.4702 17.6801C21.9404 13.3945 26.7682 15.3588 28.4669 16.9659L37.5861 25.9834L35.2616 28.3048L40 33.0368L44.7384 28.3048L42.4139 25.9834L51.5331 16.8766C53.2318 15.2695 58.0596 13.3053 62.5298 17.5909C66.6424 21.6978 67 26.5191 67 28.2155L64.7649 25.9834L55.6457 35.0903L53.4106 32.8582V26.4299L50.8179 29.019V36.3402L47.0629 40.0901L64.9437 57.9467L57.8808 65L40 47.1434Z" fill="black"/>
</g>
<defs>
<clipPath id="clip0_4486_1161">
<rect width="80" height="80" fill="white"/>
</clipPath>
</defs>
</svg>
