<?xml version="1.0" encoding="UTF-8"?> <svg xmlns="http://www.w3.org/2000/svg" width="80" height="80" viewBox="0 0 80 80" fill="none"><rect width="80" height="80" fill="#009996"></rect><path d="M42.871 61.5909C38.8901 61.5909 35.8606 60.7273 33.7823 59C31.7333 57.2424 30.7089 54.7879 30.7089 51.6364C30.7089 48.5758 31.3821 45.8788 32.7286 43.5455C34.075 41.1818 35.9923 39.3636 38.4803 38.0909C40.9684 36.7879 43.8662 36.1364 47.1739 36.1364C47.2031 36.0151 47.2324 35.8636 47.2617 35.6818C47.291 35.5 47.3056 35.2879 47.3056 35.0455C47.3056 33.5 46.4421 32.7273 44.7151 32.7273H44.276L44.4956 31.3636H49.7644C50.9645 31.3636 51.8133 31.5909 52.311 32.0455C52.8378 32.4697 53.1013 33.1818 53.1013 34.1818C53.1013 34.6364 53.0281 35.2879 52.8817 36.1364C56.8626 36.1364 59.8776 37.0152 61.9265 38.7727C63.9755 40.5303 65 42.9848 65 46.1364C65 49.197 64.3268 51.8939 62.9803 54.2273C61.6338 56.5606 59.7166 58.3788 57.2285 59.6818C54.7697 60.9545 51.8865 61.5909 48.5789 61.5909L47.9642 65H42.2563L42.871 61.5909ZM46.8226 38.1818C44.7444 38.2121 42.9442 38.9091 41.4221 40.2727C39.9293 41.6364 38.7877 43.3636 37.9974 45.4545C37.2363 47.5455 36.8558 49.6818 36.8558 51.8636C36.8558 54.2273 37.3827 56.1061 38.4364 57.5C39.5195 58.8636 41.1147 59.5455 43.2223 59.5455L46.8226 38.1818ZM48.9301 59.5455C51.0084 59.5152 52.7939 58.8333 54.2868 57.5C55.8089 56.1364 56.9504 54.4091 57.7115 52.3182C58.5018 50.2273 58.897 48.0909 58.897 45.9091C58.897 43.5455 58.3555 41.6667 57.2724 40.2727C56.2187 38.8788 54.638 38.1818 52.5305 38.1818L48.9301 59.5455Z" fill="white"></path><path d="M15 45C16.6392 35.3636 17.7661 28.6818 18.3808 24.9545C18.9955 21.2273 19.3029 19.197 19.3029 18.8636C19.3029 18.0152 19.1126 17.3939 18.7321 17C18.3515 16.5758 17.7076 16.3636 16.8002 16.3636H16.3611L16.5806 15H28.655C31.3479 15 33.7628 15.5 35.8996 16.5C38.0657 17.5 39.1487 19.4242 39.1487 22.2727C39.1487 24.4545 38.5779 26.3485 37.4363 27.9545C36.2948 29.5303 34.7873 30.7424 32.9139 31.5909C31.0406 32.4394 29.0502 32.8636 26.9426 32.8636H22.7715L20.7079 45H15ZM25.7132 31.0455C27.2353 31.0455 28.5525 30.6212 29.6648 29.7727C30.7772 28.8939 31.6114 27.7576 32.1675 26.3636C32.753 24.9394 33.0457 23.4091 33.0457 21.7727C33.0457 20.0152 32.592 18.7576 31.6846 18C30.8064 17.2121 29.6941 16.8182 28.3476 16.8182C27.4988 16.8182 26.8402 16.8788 26.3718 17L25.4498 17.1364L23.0788 31.0455H25.7132Z" fill="white"></path></svg> 