<?xml version="1.0" encoding="UTF-8"?> <svg xmlns="http://www.w3.org/2000/svg" width="80" height="80" viewBox="0 0 80 80" fill="none"><rect width="80" height="80" fill="#F7F9F9"></rect><circle cx="40" cy="40" r="24" stroke="#383838" stroke-width="2"></circle><path fill-rule="evenodd" clip-rule="evenodd" d="M43.3706 23.9307C41.4149 25.5185 38.1967 29.317 36.6783 32.8764C36.5621 33.1422 36.6783 33.1824 37.0529 32.9541C37.4317 32.725 38.5228 32.1999 39.0462 32.0478C39.0462 32.0478 38.4793 34.0193 38.292 35.1054C38.1432 36.0001 38.8832 35.9307 39.3447 35.8245C39.8062 35.7208 41.7176 35.6364 42.0537 35.5954C42.0537 35.5954 40.2862 35.1782 40.0989 34.46C39.9116 33.7468 40.4158 32.1514 40.7761 31.0695C40.8531 30.8379 40.7377 30.5026 40.3631 30.6498C39.9835 30.7994 39.4601 30.9123 39.1959 31.0695C39.1959 31.0695 40.8531 26.9918 43.4091 24.0461L43.3706 23.9307L52.1381 25.7476C51.9467 27.2351 51.4032 27.1021 51.1582 27.0302C50.8948 26.9533 50.8221 26.8413 50.0295 26.7677C49.7795 26.7434 48.6214 26.613 49.241 27.1021C50.236 27.8998 51.0813 29.5202 51.0813 29.5202C51.1958 28.9918 50.9274 28.2376 50.7836 27.975C50.6348 27.7075 50.8221 27.6347 51.0044 27.6715C51.1958 27.7075 51.3029 27.7794 51.6482 27.975C51.9851 28.1607 52.21 28.1264 52.2878 27.6715C52.3497 27.2777 52.3304 26.4759 52.2535 25.7501C52.2435 25.6974 52.1582 25.6715 52.1381 25.7476L43.3706 23.9307ZM45.8539 19.8597C45.9651 19.7351 45.8539 19.6331 45.5562 19.8246C45.2535 20.0093 43.9275 20.8095 43.0345 22.3112C42.9241 22.5018 42.991 22.7836 43.4659 22.6197C44.0487 22.4149 44.6482 22.3112 44.9124 22.2727C45.1775 22.2343 45.1775 22.0486 44.9902 21.9759C44.802 21.8965 44.7586 21.8237 44.8405 21.521C44.9124 21.2192 45.4417 20.3496 45.8539 19.8597ZM28.5638 45.5185C28.7937 45.2342 29.2745 44.8337 29.9083 44.5201C30.8113 44.0628 33.3874 43.7643 34.8138 43.7835C35.6591 43.7927 36.2268 44.179 36.6206 44.5736C37.0136 44.9691 36.3372 45.0268 36.0002 44.7425C35.6591 44.4633 35.2845 44.3663 34.8907 44.3663C34.4969 44.3663 34.0788 44.5201 33.8581 44.6848C33.6323 44.8579 33.5747 45.0895 33.0119 45.2534C32.3297 45.4457 31.5429 44.8295 31.5429 44.8295C32.0947 45.8755 33.0454 45.8412 33.5747 45.7116C33.9593 45.6096 34.0788 45.4315 34.6457 45.4223C35.5487 45.4081 35.9425 45.9332 35.9425 45.9332C34.8138 45.8755 32.9016 46.5837 31.9944 46.781C30.8648 47.0318 29.7937 47.0653 29.7937 47.0653C30.5228 47.9716 31.5997 47.9716 32.3924 47.9716C33.18 47.9716 35.7168 47.7835 37.2402 47.9139C39.1524 48.0728 40.68 49.3312 40.68 51.1965C40.68 53.0619 39.3873 54.0786 39.3873 54.0786C41.0211 53.5728 41.6984 52.2718 41.6984 52.2718C42.5688 55.6355 40.7611 58.3253 39.1089 59.4239C37.7352 60.3403 33.6123 61.2851 30.4467 59.7667C26.9442 58.0845 25.6182 56.4457 25.6182 56.4457C33.2327 57.0669 36.9567 54.9515 36.9567 54.9515C30.0772 55.3512 25.277 53.6062 22.1733 52.2425C20.9342 50.2668 20.0312 48.1071 19.502 45.7593V45.7643C25.1959 50.0636 30.2452 50.801 30.2452 50.801C24.0956 47.4608 21.0354 43.7208 19.002 39.9909C19.109 37.8128 19.5412 35.776 20.252 33.8212L20.2662 33.7877C22.5479 39.878 25.0563 41.6915 25.0563 41.6915C22.5722 36.0268 22.5914 31.9708 22.8172 28.9148C23.7687 27.5603 24.8498 26.3605 26.0847 25.266L26.1031 25.2434C25.1432 30.6807 26.2962 34.2141 26.2962 34.2141C26.2962 29.9148 28.7034 24.7986 30.6198 22.1908C31.8355 21.5804 33.0078 21.1306 34.3389 20.7568H34.343C32.5939 22.9617 31.8255 25.1021 31.8255 25.1021C35.4149 21.6749 41.3572 19.6172 42.2602 19.3848C43.1633 19.164 45.7627 18.2 46.4977 18.0336C47.1708 17.8722 47.4977 18.3012 47.4542 18.7109C47.3965 19.2435 47.1708 20.1272 47.1708 20.1272C49.1641 20.6147 50.0295 21.598 50.0295 21.598C49.9525 21.3329 49.991 20.8797 49.991 20.8797C52.7393 23.3329 53.4885 24.5026 53.5654 26.7259C53.6423 28.9533 54.6172 29.2928 55.1799 29.5938C55.7468 29.8956 57.1398 30.6933 57.5871 31.0695C57.9224 31.3529 57.7786 31.6715 57.5871 31.8981C57.399 32.1222 57.399 32.1999 57.3656 32.4625C57.1967 33.6188 56.6833 34.0862 55.9717 34.3471C55.256 34.6096 54.4642 34.1974 54.4642 34.1974C53.6758 35.0653 53.5261 34.4984 53.4885 34.1615C53.455 33.8212 53.037 34.0862 52.7393 34.1974C52.4366 34.3103 52.3254 33.8964 52.3254 33.8964C50.8948 33.7083 50.2694 34.5561 50.2694 34.5561C51.5136 34.725 52.1381 35.5737 52.1908 35.9131C52.2485 36.2601 52.8112 36.0268 52.8112 36.0268C52.8112 36.0268 52.8639 35.9131 53.0947 35.8028C53.3196 35.6891 53.3781 35.7442 53.3196 36.0268C53.2627 36.3086 53.205 36.5377 53.205 36.5377L53.8296 36.9357C53.5988 38.4658 52.9266 38.4006 52.5855 38.2342C50.4182 37.1472 46.5512 36.9357 46.5512 36.9357C46.7761 36.5954 47.3196 36.159 47.3196 36.159C37.394 36.159 35.7168 37.3688 35.2076 38.0076C34.8564 38.4508 35.1599 39.138 35.1599 39.138C33.9777 39.3646 30.9802 40.1238 29.8314 41.1807C28.7268 42.1924 28.3573 44.5695 28.3188 45.4457C28.3088 45.6297 28.4869 45.6246 28.5638 45.5185Z" fill="#383838"></path><path fill-rule="evenodd" clip-rule="evenodd" d="M54.6455 56.1599C53.7609 53.1909 51.3211 51.2971 49.9658 49.6524C49.4131 48.9827 48.597 48.0429 48.597 48.0429C49.3897 48.4961 50.8947 48.7218 50.8947 48.7218C50.4808 48.3798 49.5385 47.2519 49.1631 46.7946C48.1163 45.5362 46.301 44.129 44.9507 43.517C42.2986 42.3113 39.536 42.1575 39.1614 42.0856C38.7818 42.0078 37.9942 42.1575 38.4792 41.4008C38.9691 40.6449 41.8278 38.4208 41.8278 38.4208C41.2275 38.4208 38.5946 38.6525 37.8011 38.7603C37.0135 38.8765 36.8312 38.6115 36.7885 38.0856C36.7885 38.0856 35.2024 39.5822 35.9616 40.3464C36.077 40.4601 36.4131 40.4986 36.8312 40.3105C37.24 40.1198 38.0661 39.8548 38.3688 39.8205C38.3688 39.8205 37.6915 40.8757 37.5427 41.3289C37.393 41.782 37.3546 42.0078 38.0661 42.2344C38.7818 42.4559 42.3947 43.5939 44.6096 45.1023C46.8286 46.6115 49.1255 48.5395 50.8219 52.0822C52.5126 55.6348 51.5803 58.3238 51.3169 58.8154C52.5326 58.0395 53.6363 57.1532 54.6647 56.1449L54.6455 56.1599Z" fill="#383838"></path><path fill-rule="evenodd" clip-rule="evenodd" d="M59.5959 48.641C57.4203 46.8676 53.6009 43.7004 48.9404 42.6118C48.9404 42.6118 55.5901 45.2773 57.963 51.9863C58.6068 50.9211 59.1452 49.8174 59.5959 48.641Z" fill="#383838"></path><path fill-rule="evenodd" clip-rule="evenodd" d="M46.5403 61.0977C47.2519 59.4347 48.0345 55.4823 47.2084 52.4221C47.2084 52.4221 47.3614 59.6228 42.4375 61.999C43.8213 61.8351 45.2427 61.5266 46.5303 61.1019L46.5403 61.0977Z" fill="#383838"></path><path fill-rule="evenodd" clip-rule="evenodd" d="M60.9936 40.7785C60.3548 40.5193 56.4192 39.4014 56.4192 39.4014C57.7361 39.3286 58.2646 38.3504 58.2646 38.3504C57.0254 38.6848 55.1417 38.837 53.5664 38.6104C53.5664 38.6104 57.2136 40.194 60.8448 43.6514V43.6179C60.941 42.7835 60.9987 41.9298 60.9987 41.0577C60.9987 40.9524 60.9987 40.8939 60.9936 40.7785" fill="#383838"></path></svg> 