<?xml version="1.0" encoding="UTF-8"?> <svg xmlns="http://www.w3.org/2000/svg" width="80" height="80" viewBox="0 0 80 80" fill="none"><rect width="80" height="80" fill="#0A314E"></rect><path d="M4 51.22H6.45C6.77667 51.22 6.99833 51.1617 7.115 51.045C7.23167 50.905 7.29 50.6833 7.29 50.38V29.38C7.29 29.0533 7.23167 28.8317 7.115 28.715C6.99833 28.5983 6.77667 28.54 6.45 28.54H4V27.42H16.46C18.0933 27.42 19.54 27.7 20.8 28.26C22.0833 28.7967 23.075 29.5667 23.775 30.57C24.4983 31.55 24.86 32.67 24.86 33.93C24.86 35.2133 24.4983 36.3567 23.775 37.36C23.075 38.3633 22.0833 39.1567 20.8 39.74C19.54 40.3 18.0933 40.58 16.46 40.58H12.47V50.38C12.47 50.6833 12.5283 50.905 12.645 51.045C12.785 51.1617 13.0067 51.22 13.31 51.22H16.39V52.34H4V51.22ZM15.935 39.46C17.1483 39.46 18 38.97 18.49 37.99C19.0033 37.01 19.26 35.6567 19.26 33.93C19.26 32.2267 19.015 30.9083 18.525 29.975C18.035 29.0183 17.1717 28.54 15.935 28.54H13.31C13.0067 28.54 12.785 28.5983 12.645 28.715C12.5283 28.8317 12.47 29.0533 12.47 29.38V39.46H15.935Z" fill="white"></path><path d="M33.1952 51.22H35.4352C35.7619 51.22 35.9835 51.1617 36.1002 51.045C36.2169 50.905 36.2752 50.6833 36.2752 50.38V47.58H34.3852C32.8219 47.58 31.3519 47.2533 29.9752 46.6C28.5985 45.9467 27.4902 45.025 26.6502 43.835C25.8335 42.645 25.4252 41.28 25.4252 39.74C25.4252 38.2 25.8335 36.835 26.6502 35.645C27.4902 34.455 28.5985 33.5333 29.9752 32.88C31.3519 32.2267 32.8219 31.9 34.3852 31.9H36.2752V29.38C36.2752 29.0533 36.2169 28.8317 36.1002 28.715C35.9835 28.5983 35.7619 28.54 35.4352 28.54H33.1952V27.42H44.5352V28.54H42.2952C41.9919 28.54 41.7702 28.5983 41.6302 28.715C41.5135 28.8317 41.4552 29.0533 41.4552 29.38V31.9H43.3452C44.9085 31.9 46.3785 32.2267 47.7552 32.88C49.1319 33.5333 50.2285 34.455 51.0452 35.645C51.8852 36.835 52.3052 38.2 52.3052 39.74C52.3052 41.28 51.8852 42.645 51.0452 43.835C50.2285 45.025 49.1319 45.9467 47.7552 46.6C46.3785 47.2533 44.9085 47.58 43.3452 47.58H41.4552V50.38C41.4552 50.6833 41.5135 50.905 41.6302 51.045C41.7702 51.1617 41.9919 51.22 42.2952 51.22H44.5352V52.34H33.1952V51.22ZM36.2752 46.46V33.02H35.2602C33.7435 33.02 32.6585 33.5683 32.0052 34.665C31.3519 35.7617 31.0252 37.4533 31.0252 39.74C31.0252 42.0267 31.3519 43.7183 32.0052 44.815C32.6585 45.9117 33.7435 46.46 35.2602 46.46H36.2752ZM42.4702 46.46C43.9869 46.46 45.0719 45.9117 45.7252 44.815C46.3785 43.7183 46.7052 42.0267 46.7052 39.74C46.7052 37.4533 46.3785 35.7617 45.7252 34.665C45.0719 33.5683 43.9869 33.02 42.4702 33.02H41.4552V46.46H42.4702Z" fill="white"></path><path d="M71.6449 53.18C70.1515 53.18 68.9615 52.7367 68.0749 51.85C67.2115 50.9633 66.7799 49.6567 66.7799 47.93V43.835C66.7799 42.715 66.4999 41.7817 65.9399 41.035C65.4032 40.265 64.5632 39.88 63.4199 39.88H61.2499V50.38C61.2499 50.6833 61.3082 50.905 61.4249 51.045C61.5649 51.1617 61.7865 51.22 62.0899 51.22H64.5399V52.34H52.7799V51.22H55.2299C55.5565 51.22 55.7782 51.1617 55.8949 51.045C56.0115 50.905 56.0699 50.6833 56.0699 50.38V29.38C56.0699 29.0533 56.0115 28.8317 55.8949 28.715C55.7782 28.5983 55.5565 28.54 55.2299 28.54H52.7799V27.42H64.5399V28.54H62.0899C61.7865 28.54 61.5649 28.5983 61.4249 28.715C61.3082 28.8317 61.2499 29.0533 61.2499 29.38V38.62H63.6649C64.9482 38.62 65.8115 38.13 66.2549 37.15C66.7215 36.1467 66.9549 34.5367 66.9549 32.32C66.9549 30.7333 67.2699 29.52 67.8999 28.68C68.7399 27.56 69.8365 27 71.1899 27C71.9132 27 72.5316 27.1983 73.0449 27.595C73.5816 27.9683 73.9899 28.4467 74.2699 29.03C74.5499 29.59 74.6899 30.15 74.6899 30.71C74.6899 31.55 74.5149 32.2617 74.1649 32.845C73.8382 33.405 73.4182 33.825 72.9049 34.105C72.4149 34.385 71.9365 34.525 71.4699 34.525C70.7699 34.525 70.1865 34.3267 69.7199 33.93C69.2765 33.51 69.0549 32.9967 69.0549 32.39C69.0549 31.5733 69.4282 30.85 70.1749 30.22C70.5715 29.8933 70.7699 29.555 70.7699 29.205C70.7699 28.855 70.5599 28.68 70.1399 28.68C69.5566 28.68 69.0666 29.0183 68.6699 29.695C68.2732 30.3717 68.0749 31.4567 68.0749 32.95V34.07C68.0749 36.38 67.5032 38.0133 66.3599 38.97V39.145C68.1799 39.5883 69.5682 40.3117 70.5249 41.315C71.4815 42.295 71.9599 43.8117 71.9599 45.865V49.75C71.9599 50.73 72.2865 51.22 72.9399 51.22C73.5465 51.22 73.9899 50.7183 74.2699 49.715C74.5499 48.7117 74.6899 47.4867 74.6899 46.04H75.8099C75.8099 48.3033 75.5065 50.065 74.8999 51.325C74.2932 52.5617 73.2082 53.18 71.6449 53.18Z" fill="white"></path></svg> 