<?xml version="1.0" encoding="UTF-8"?> <svg xmlns="http://www.w3.org/2000/svg" width="80" height="80" viewBox="0 0 80 80" fill="none"><rect width="80" height="80" fill="#F5F8FA"></rect><path d="M45.4805 55.5317L40.3322 60.68L36.4271 56.7749L15.6143 38.5363L12.5478 30.3214L40.4346 2.43457L42.6041 4.60409L25.0139 22.1942C21.5817 25.6265 22.0416 30.6627 22.9176 32.9687L45.4805 55.5317Z" fill="#FC0D1B"></path><path d="M6.96991 35.8983L36.0414 64.9698L40.3317 60.6795L17.3348 37.6826C14.905 35.2528 15.4188 29.4742 15.9795 26.8887L6.96991 35.8983Z" fill="white"></path><path d="M6.5892 44.9567L31.3217 69.6892L36.041 64.9698L11.3085 40.2374L11.2549 30.7451C7.13621 34.8638 4.81946 37.1805 6.5892 44.9567Z" fill="#26855E"></path><path d="M34.5195 24.8355L39.6678 19.6872L43.5729 23.5923L64.3857 41.8309L67.4522 50.0458L39.5654 77.9326L37.3959 75.7631L54.9861 58.173C58.4183 54.7407 57.9584 49.7045 57.0824 47.3985L34.5195 24.8355Z" fill="#FC0D1B"></path><path d="M73.0301 44.4689L43.9586 15.3974L39.6683 19.6877L62.6652 42.6846C65.095 45.1144 64.5812 50.893 64.0205 53.4785L73.0301 44.4689Z" fill="#341BC8"></path><path d="M73.4108 35.4105L48.6783 10.678L43.959 15.3973L68.6915 40.1298L68.7451 49.6221C72.8638 45.5034 75.1805 43.1867 73.4108 35.4105Z" fill="white"></path><path d="M34.5481 30.0142L34.0898 25.2656L29.3705 29.9849L29.9897 34.5726L45.4493 50.354L46.1221 54.8881L50.6269 50.3833L50.1686 45.6347L34.5481 30.0142Z" fill="#FC0D1B"></path></svg> 