<?xml version="1.0" encoding="UTF-8"?> <svg xmlns="http://www.w3.org/2000/svg" width="80" height="80" viewBox="0 0 80 80" fill="none"><rect width="80" height="80" fill="#2B64E2"></rect><g clip-path="url(#clip0)"><path d="M53.0603 20H52.2877C46.05 20.4958 39.9203 21.914 34.0986 24.2082C27.3161 26.6938 21.0334 30.3738 15.5479 35.074C14.9315 35.6164 13.2877 37.3342 12.7781 37.8849C12.0156 38.7648 11.3179 39.6987 10.6904 40.6794C10.4331 41.0774 10.2025 41.492 10 41.9205C10.2886 41.6907 10.5631 41.4437 10.8219 41.1808C12.9959 39.0403 15.3932 37.139 17.9726 35.5096C26.5534 29.9041 37.9452 25.9096 47.5452 25.1041C48.7437 24.9777 49.9484 24.9201 51.1534 24.9315C52.3583 24.8995 53.564 24.9517 54.7616 25.0877C57.2911 25.3016 59.75 26.0317 61.9863 27.2329C63.376 27.9873 64.4984 29.1528 65.2 30.5699C66.1534 32.6082 66.0219 34.9671 64.7397 37.6384C64.6561 37.7854 64.5926 37.943 64.5507 38.1068C65.055 37.5836 65.5324 37.0349 65.9808 36.463C67.6769 34.5311 68.856 32.2011 69.4082 29.6904C69.5037 29.0208 69.5257 28.3428 69.474 27.6685C69.211 25.2027 67.7069 23.2301 65.0767 21.9151C62.4755 20.7158 59.6555 20.0639 56.7918 20C56.2082 20 53.5041 20 53.0603 20Z" fill="#FC121B"></path><path d="M28.6738 33.8576L28.1971 33.9152C27.1115 34.0389 26.0489 34.3156 25.0409 34.7371C23.4699 35.3613 22.1295 36.4548 21.2026 37.8686C20.5854 38.8811 20.2269 40.03 20.1587 41.2138C20.093 42.9891 20.9231 44.2795 22.7231 45.2083C23.7616 45.7136 24.8496 46.1102 25.9697 46.3919L27.3834 46.8193C28.1313 46.9827 28.796 47.4083 29.2574 48.0193C29.3839 48.3555 29.4045 48.7223 29.3163 49.0706C29.2282 49.4188 29.0355 49.7317 28.7642 49.9672C28.1507 50.5299 27.3667 50.8713 26.5368 50.9371C25.9312 50.9831 25.3225 50.9666 24.7204 50.8878C24.3913 50.8413 24.0779 50.7181 23.8052 50.5283C23.5325 50.3384 23.3082 50.0871 23.1505 49.7946C22.9718 49.4099 22.9062 48.9823 22.9615 48.5617C22.9615 48.2741 22.9615 47.9864 22.9615 47.9289V47.822H20.4957H18.03V48.0439C17.6239 49.6141 17.8575 51.2813 18.6793 52.6795C19.0061 53.1458 19.4057 53.5565 19.8628 53.896C21.3033 54.7769 22.9767 55.201 24.6628 55.1124C26.2164 55.1355 27.7614 54.8793 29.2245 54.3562C29.8673 54.1082 30.484 53.7971 31.0656 53.4275C31.9709 52.8161 32.7438 52.0288 33.3383 51.1123C33.9328 50.1959 34.3367 49.1691 34.5258 48.0932C34.7544 47.1108 34.6563 46.0806 34.2464 45.159C34.05 44.7423 33.7703 44.3702 33.4245 44.0658C32.5204 43.2028 31.3368 42.6686 28.6327 41.9206C26.7258 41.3946 26.0519 41.0987 25.6327 40.6795C25.4618 40.5148 25.3591 40.2918 25.345 40.0549C25.3649 39.6491 25.5076 39.2589 25.7542 38.936C26.0008 38.6131 26.3396 38.3727 26.7258 38.2467C27.5831 37.9552 28.5084 37.9294 29.3806 38.1727C29.6733 38.2439 29.943 38.3884 30.1645 38.5925C30.3859 38.7967 30.5517 39.0539 30.6464 39.3398C30.7031 39.6413 30.7031 39.9507 30.6464 40.2521V40.4658H35.5779V40.2686C35.8484 39.1006 35.7389 37.8769 35.2656 36.7754C35.0511 36.3164 34.7496 35.9033 34.3779 35.559C33.382 34.6784 32.1397 34.1247 30.819 33.9727C30.108 33.8786 29.3908 33.8401 28.6738 33.8576V33.8576ZM39.1532 34.2932C39.1532 34.2932 38.1341 38.9042 36.8765 44.4604C35.619 50.0165 34.5998 54.6275 34.5998 54.6275C34.5998 54.6275 36.9505 54.6275 39.8108 54.6275C45.482 54.6275 45.1779 54.6275 46.2793 54.4302C47.6304 54.2447 48.9025 53.6844 49.9513 52.8128C51.0002 51.9411 51.7839 50.793 52.2135 49.4987C52.4046 48.9646 52.5476 48.4145 52.6409 47.8549C52.7067 47.2842 52.7067 46.7078 52.6409 46.1371C52.5616 45.5581 52.3294 45.0107 51.9683 44.5513C51.6071 44.0919 51.13 43.7371 50.5861 43.5234L50.4135 43.4494L50.5532 43.3754C50.8906 43.1899 51.2147 42.9812 51.5231 42.7508C51.9333 42.4269 52.308 42.0605 52.6409 41.6576C53.2571 40.8904 53.6698 39.9801 53.8409 39.011C54.2437 36.611 53.2902 35.1069 50.9395 34.4987C50.4283 34.3796 49.9091 34.2972 49.3861 34.2521C48.9998 34.2686 39.1532 34.2521 39.1532 34.2932ZM47.5697 38.4604C47.8848 38.4976 48.1726 38.6572 48.3709 38.9048C48.5693 39.1524 48.6624 39.468 48.63 39.7837C48.6351 40.3328 48.4567 40.8679 48.1232 41.3041C47.7897 41.7403 47.3201 42.0528 46.7889 42.1919C46.0172 42.3156 45.2335 42.346 44.4546 42.2823H42.3752C42.3752 42.2823 42.5478 41.4604 42.7779 40.4412C43.008 39.422 43.2053 38.559 43.2053 38.5097V38.4193H45.2683C46.0356 38.3862 46.8041 38.3999 47.5697 38.4604V38.4604ZM46.0656 45.7672C46.4086 45.7628 46.7444 45.8659 47.0259 46.0619C47.3074 46.2579 47.5205 46.5371 47.6354 46.8604C47.7337 47.2654 47.7337 47.6882 47.6354 48.0932C47.546 48.638 47.2889 49.1414 46.9 49.5333C46.5111 49.9251 46.0097 50.186 45.4656 50.2795C44.6038 50.3826 43.7342 50.4046 42.8683 50.3453C42.1028 50.4147 41.3325 50.4147 40.5669 50.3453C40.5669 50.3453 40.7971 49.2932 41.0765 48.0357C41.356 46.7782 41.5943 45.759 41.5943 45.759C41.5943 45.759 45.8519 45.7508 46.0656 45.7672ZM57.1286 34.433C57.1286 34.5234 56.0848 39.085 54.8437 44.6001L52.5998 54.6275C52.5998 54.6275 53.7176 54.6275 55.0656 54.6275H57.5313L59.7916 44.5097C61.0245 38.9453 62.0683 34.359 62.0683 34.3426C62.0683 34.3261 61.945 34.2932 59.6026 34.2932H57.1368L57.1286 34.433Z" fill="white"></path></g><defs><clipPath id="clip0"><rect x="10" y="20" width="60" height="35.3425" fill="white"></rect></clipPath></defs></svg> 