<?xml version="1.0" encoding="UTF-8"?> <svg xmlns="http://www.w3.org/2000/svg" width="80" height="80" viewBox="0 0 80 80" fill="none"><rect width="80" height="80" fill="#F5F8FA"></rect><path d="M6.98413 40.2857C13.0794 73.3016 38.3069 69.7037 50.1587 63.7778L52.6984 69.4921L40.6349 74.5714L40 72.0317H30.4762V74.5714L17.7778 70.7619L19.0476 68.2222L12.6984 63.7778L10.7937 65.6825L2.53968 55.5238L5.07937 53.619L3.1746 47.2698H0V40.2857H6.98413Z" fill="#7F6689"></path><path d="M6.98413 40.2857C13.0794 7.26984 38.3069 10.8677 50.1587 16.7937L52.6984 11.0794L40.6349 6L40 8.53968H30.4762V6L17.7778 9.80952L19.0476 12.3492L12.6984 16.7937L10.7937 14.8889L2.53968 25.0476L5.07937 26.9524L3.1746 33.3016H0V40.2857H6.98413Z" fill="#7F6689"></path><path d="M53.3329 45.9997L29.8408 59.333L53.3329 19.333V45.9997Z" fill="#7F6689"></path><path d="M56.5079 45.9997L80 59.333L56.5079 19.333V45.9997Z" fill="#7F6689"></path><path d="M55.238 47.9043L32.3809 61.2376H77.4602L55.238 47.9043Z" fill="#7F6689"></path></svg> 