<?xml version="1.0" encoding="UTF-8"?> <svg xmlns="http://www.w3.org/2000/svg" width="80" height="80" viewBox="0 0 80 80" fill="none"><rect width="80" height="80" fill="#3B2A98"></rect><path fill-rule="evenodd" clip-rule="evenodd" d="M36.4616 43.5266C29.271 45.6755 24.1754 44.6727 19.2752 40.3927C24.7081 30.7403 30.8511 26.1021 40.9358 25.7082C39.551 31.4029 37.953 37.814 36.4616 43.5266ZM39.8705 43.5445C39.4976 45.0309 39.0715 46.7321 38.681 48.2006C39.0183 49.866 40.6517 50.9584 45.4099 51.1733C66.0408 48.9169 64.0345 25.726 44.4157 25.7082C43.013 31.2238 41.5217 37.026 40.1013 42.5237C43.8298 41.3598 45.3922 38.6019 46.7415 33.4802C47.3275 33.8921 47.9488 34.2682 48.5702 34.6442C46.2977 39.8196 43.812 42.2372 39.8705 43.5445ZM43.6877 14.9455C42.9066 18.0614 41.9833 21.5893 41.2021 24.7053C32.7154 24.777 23.0214 27.8392 16.683 36.8111C11.9425 24.777 24.4418 9.75212 38.2016 10.5042C42.6579 11.1669 43.7232 12.3667 43.6877 14.9455ZM36.1953 44.5831C35.6804 46.4993 35.6449 46.5888 35.1123 48.505C34.2423 49.8123 33.1948 50.457 31.9519 51.424C33.9582 51.424 36.0533 51.1912 37.9708 51.424C69.3964 56.5815 75.5394 24.2935 44.7708 24.7411C45.694 21.052 46.848 16.5214 47.8068 12.8502C56.2757 14.9455 63.9279 16.3243 70 12.4741C68.6507 11.328 67.3191 10.1461 65.9697 9C61.1759 13.8351 51.2334 12.0623 38.2549 9.3761C25.8266 7.45991 12.3687 17.0586 11.1081 30.0419C10.682 34.2502 11.8715 37.5991 14.4105 40.1062C-2.11907 66.7891 31.8632 81.8853 49.6178 61.6494C49.1739 60.7899 48.7123 59.9124 48.2862 59.017C36.3196 80.2741 6.58067 67.4338 18.0857 42.7028C23.2167 45.586 29.342 46.5351 36.1953 44.5831Z" fill="white"></path></svg> 