<?xml version="1.0" encoding="UTF-8"?> <svg xmlns="http://www.w3.org/2000/svg" width="80" height="80" viewBox="0 0 80 80" fill="none"><rect width="80" height="80" fill="#F5F8FA"></rect><path d="M23.6663 12C16.133 12 10 17.5278 10 24.2918V39.8693C10 46.6388 16.133 52.1612 23.6663 52.1612H40.9332C47.1332 52.1612 52.6003 49.0724 54.1975 43.6821H19.8662V21.0048H54.326C52.9996 15.3517 47.4682 12 40.9988 12H23.6663Z" fill="#D71920"></path><path d="M25.667 58.9948C27.0003 64.6479 32.533 67.9997 39.068 67.9997H56.3335C63.8668 67.9997 69.9999 62.4719 69.9999 55.7078V40.1317C69.9999 33.3622 63.8668 27.8398 56.3335 27.8398H38.9997C32.7996 27.8398 27.3326 30.9286 25.7354 36.3189H60.0667V59.0609H25.667V58.9948Z" fill="#007A5F"></path></svg> 