<?xml version="1.0" encoding="UTF-8"?> <svg xmlns="http://www.w3.org/2000/svg" width="80" height="80" viewBox="0 0 80 80" fill="none"><rect x="-0.000976562" width="80" height="80" fill="white"></rect><path d="M-0.00078125 7.62955e-06H5.99922V50L-0.00078125 60V7.62955e-06Z" fill="#1B1B1B"></path><path d="M-0.000976562 6L-0.00078125 7.62955e-06L59.999 0L49.999 6.00001L-0.000976562 6Z" fill="#1B1B1B"></path><path d="M79.9988 80L73.9988 80L73.9988 30L79.9988 20L79.9988 80Z" fill="#1B1B1B"></path><path d="M79.999 74L79.9988 80L19.999 80L29.999 74L79.999 74Z" fill="#1B1B1B"></path><path d="M58.3638 58.5981C57.589 58.5981 56.9339 58.4728 56.3984 58.2222C55.8743 57.9715 55.4756 57.624 55.2021 57.1797C54.9401 56.7467 54.8091 56.2568 54.8091 55.71C54.8091 55.1289 54.9344 54.5479 55.1851 53.9668C55.5382 54.4225 55.9028 54.7472 56.2788 54.9409C56.6662 55.1346 57.082 55.2314 57.5264 55.2314C58.1416 55.2314 58.6714 55.0492 59.1157 54.6846C59.5601 54.3086 59.9303 53.8016 60.2266 53.1636C60.4886 52.5939 60.6823 51.9559 60.8076 51.2495C60.9329 50.5317 60.9956 49.8197 60.9956 49.1133C60.9956 47.7689 60.762 46.7492 60.2949 46.0542C59.7367 45.2225 58.8594 44.8066 57.6631 44.8066C57.0137 44.8066 56.4554 44.9206 55.9883 45.1484L53.2197 58H48.1782L53.2197 34.6211C52.502 34.6439 51.8696 34.7806 51.3228 35.0312C50.7873 35.2705 50.3258 35.6522 49.9385 36.1763C49.0954 37.327 48.6738 39.224 48.6738 41.8672C48.6738 42.6191 48.7593 43.2002 48.9302 43.6104C48.9757 43.7585 49.0327 43.8895 49.1011 44.0034C49.1466 44.0832 49.1694 44.1629 49.1694 44.2427C47.9162 44.2427 46.9876 43.992 46.3838 43.4907C45.7458 42.9552 45.4268 42.0723 45.4268 40.8418C45.4268 39.6341 45.6489 38.4891 46.0933 37.4067C46.549 36.3244 47.2383 35.373 48.1611 34.5527C49.1523 33.6641 50.4113 32.9748 51.938 32.4849C53.4647 31.995 55.2705 31.75 57.3555 31.75C57.7656 31.75 58.2043 31.7728 58.6714 31.8184L59.5088 31.8867C61.1266 32.0234 62.0495 32.0975 62.2773 32.1089C62.8698 32.1545 63.5135 32.1772 64.2085 32.1772C65.4276 32.1772 66.4814 32.0348 67.3701 31.75C67.3473 31.8525 67.3018 32.0861 67.2334 32.4507C67.1764 32.8153 67.0967 33.1685 66.9941 33.5103C66.903 33.8407 66.7891 34.1369 66.6523 34.3989C66.1283 35.4357 65.2567 35.9541 64.0376 35.9541C62.3058 35.9541 60.3348 35.7205 58.1245 35.2534L56.3813 43.3711C57.0877 43.1546 57.7144 42.9951 58.2612 42.8926C58.8081 42.79 59.3664 42.7388 59.936 42.7388C61.8957 42.7388 63.3939 43.3483 64.4307 44.5674C64.9092 45.1484 65.2681 45.832 65.5073 46.6182C65.7466 47.4043 65.8662 48.2702 65.8662 49.2158C65.8662 49.8197 65.8035 50.4691 65.6782 51.1641C65.5529 51.8477 65.3649 52.5256 65.1143 53.1978C64.8522 53.9155 64.5161 54.5991 64.106 55.2485C63.6958 55.8866 63.223 56.4505 62.6875 56.9404C61.4684 58.0456 60.0272 58.5981 58.3638 58.5981Z" fill="#1B1B1B"></path><path d="M47.4658 44.5981C46.4518 44.5981 45.717 44.3418 45.2612 43.8291C44.908 43.4417 44.7314 42.9176 44.7314 42.2568C44.7314 41.7327 44.8112 41.1289 44.9707 40.4453C45.1302 39.7503 45.3638 38.856 45.6714 37.7622C45.979 36.6571 46.2069 35.7456 46.355 35.0278C46.5145 34.3101 46.5942 33.6493 46.5942 33.0454C46.5942 32.3049 46.4404 31.7295 46.1328 31.3193C45.791 30.8864 45.2441 30.6699 44.4922 30.6699C44.082 30.6699 43.7004 30.7155 43.3472 30.8066L40.5444 44H35.5029L40.5786 20.1938C39.0063 20.8547 37.793 21.8345 36.9385 23.1333C36.0954 24.4321 35.6738 26.0101 35.6738 27.8672C35.6738 28.6191 35.7593 29.2002 35.9302 29.6104C35.9757 29.7585 36.0327 29.8895 36.1011 30.0034C36.1466 30.0832 36.1694 30.1629 36.1694 30.2427C34.9162 30.2427 33.9876 29.992 33.3838 29.4907C32.7458 28.9552 32.4268 28.0723 32.4268 26.8418C32.4268 26.0898 32.5863 25.3379 32.9053 24.5859C33.2357 23.834 33.7028 23.1105 34.3066 22.4155C34.8877 21.7433 35.5713 21.1224 36.3574 20.5527C37.1436 19.9831 37.998 19.4875 38.9209 19.0659C40.8805 18.1886 42.806 17.75 44.6973 17.75C45.2214 17.75 45.6885 17.7728 46.0986 17.8184L43.8599 28.2773C44.2928 26.9329 44.9821 25.4632 45.9277 23.8682C46.6455 22.6491 47.3576 21.6237 48.064 20.792C48.8957 19.7666 49.7445 19.0033 50.6104 18.502C51.4876 18.0007 52.3535 17.75 53.208 17.75C53.5612 17.75 53.8973 17.8013 54.2163 17.9038C54.5353 18.0063 54.8145 18.1545 55.0537 18.3481C55.5778 18.7811 55.8398 19.3621 55.8398 20.0913C55.8398 20.9116 55.5949 21.5496 55.105 22.0054C54.7062 22.37 54.1935 22.5522 53.5669 22.5522C52.5643 22.5522 51.875 22.0851 51.499 21.1509C50.3027 21.8687 49.2204 22.8883 48.252 24.21C47.2835 25.5316 46.355 27.1722 45.4663 29.1318C45.8537 29.109 46.1214 29.0977 46.2695 29.0977H46.936C48.5311 29.0977 49.6818 29.4508 50.3882 30.1572C50.9806 30.7611 51.2769 31.6554 51.2769 32.8403C51.2769 33.4897 51.2028 34.1847 51.0547 34.9253C50.9066 35.6545 50.6958 36.5203 50.4224 37.5229C50.1147 38.6395 49.8926 39.494 49.7559 40.0864C49.6305 40.6675 49.5679 41.203 49.5679 41.6929C49.5679 42.2397 49.6875 42.724 49.9268 43.1455C50.1774 43.5557 50.5135 43.8405 50.9351 44C49.5337 44.3988 48.3773 44.5981 47.4658 44.5981Z" fill="#1B1B1B"></path><path d="M20.5786 30.1938C19.0063 30.8547 17.793 31.8345 16.9385 33.1333C16.0954 34.4321 15.6738 36.0101 15.6738 37.8672C15.6738 38.6191 15.7593 39.2002 15.9302 39.6104C15.9757 39.7585 16.0327 39.8895 16.1011 40.0034C16.1466 40.0832 16.1694 40.1629 16.1694 40.2427C14.9162 40.2427 13.9876 39.992 13.3838 39.4907C12.7458 38.9552 12.4268 38.0723 12.4268 36.8418C12.4268 36.0898 12.5863 35.3379 12.9053 34.5859C13.2357 33.834 13.7028 33.1105 14.3066 32.4155C14.8877 31.7433 15.5713 31.1224 16.3574 30.5527C17.1436 29.9831 17.998 29.4875 18.9209 29.0659C20.8805 28.1886 22.806 27.75 24.6973 27.75C25.2214 27.75 25.6885 27.7728 26.0986 27.8184L23.8599 38.2432H29.0039L31.2427 27.8184H36.2842L30.73 54H25.6885L28.4912 40.8408H23.3472L20.5444 54H15.5029L20.5786 30.1938Z" fill="#1B1B1B"></path></svg> 