<?xml version="1.0" encoding="UTF-8"?> <svg xmlns="http://www.w3.org/2000/svg" width="80" height="80" viewBox="0 0 80 80" fill="none"><rect width="80" height="80" fill="#F5F8FA"></rect><path fill-rule="evenodd" clip-rule="evenodd" d="M43.6914 30.5078L54.492 65.6026H43.7036L43.6914 30.5078Z" fill="#FFFFFE"></path><path fill-rule="evenodd" clip-rule="evenodd" d="M21.4092 65.4904L37.4397 11.042L54.0514 65.4904H21.4092Z" fill="#009252"></path><path fill-rule="evenodd" clip-rule="evenodd" d="M43.9795 19.3359L43.9995 69.9992H59.0006L43.9795 19.3359Z" fill="#009252"></path><path fill-rule="evenodd" clip-rule="evenodd" d="M21 65.7882L37.4521 10L54.4644 65.7882H21ZM21.4084 65.4903H54.0506L37.439 11.1524L21.4084 65.4903Z" fill="#FFFFFE"></path><path fill-rule="evenodd" clip-rule="evenodd" d="M40.291 49.5729C38.3637 44.6566 36.394 37.2553 36.394 29.0684C36.394 25.5726 36.7511 21.9342 37.627 18.285L37.0214 18.1377L22.5107 69.0686H37.8904L37.9851 68.9614C41.1346 65.3741 42.7325 62.3688 42.7277 59.2077C42.7257 56.3733 41.8187 53.4723 40.291 49.5729Z" fill="#FFFFFE"></path></svg> 