<?xml version="1.0" encoding="UTF-8"?> <svg xmlns="http://www.w3.org/2000/svg" width="80" height="80" viewBox="0 0 80 80" fill="none"><rect x="0.000976562" width="80" height="80" fill="#F5F8FA"></rect><path fill-rule="evenodd" clip-rule="evenodd" d="M33.6439 11.3659C37.5232 10.0864 42.0948 10.1307 47.483 11.3659V28.1024L61.9878 19.661C65.2037 23.127 67.6894 27.0175 68.9488 31.622L55.239 39.6007L40.77 31.1026L26.045 39.6566L12.252 31.6428C13.0944 27.6458 15.4292 23.7152 19.204 19.6767L33.6439 28.066V11.3659ZM54.5586 40.2171L68.955 48.5811C67.5335 53.0904 65.3818 57.175 62.003 60.5472L47.483 52.1114V68.904C42.8698 69.94 38.2571 70.1315 33.6439 68.904V52.1683L19.2191 60.563C16.1619 57.8538 13.9008 53.8804 12.2582 48.602L26.7931 40.1433L40.77 48.3548L54.5586 40.2171Z" fill="#0164A9"></path><path fill-rule="evenodd" clip-rule="evenodd" d="M33.4025 41.3167C31.3483 40.7634 29.4785 40.1044 27.2051 39.8743L40.8286 32.0742L54.2382 40.0345C52.3503 39.9989 50.1424 39.6427 47.3999 38.7523C45.339 38.2536 43.0951 38.77 40.6682 40.0879C38.8127 41.7435 36.3196 42.0463 33.4025 41.3167V41.3167Z" fill="#0164A9"></path></svg> 