<?xml version="1.0" encoding="UTF-8"?> <svg xmlns="http://www.w3.org/2000/svg" width="80" height="80" viewBox="0 0 80 80" fill="none"><rect width="80" height="80" fill="#F4F4F4"></rect><path fill-rule="evenodd" clip-rule="evenodd" d="M41.326 33.2332C41.7944 33.2332 42.2628 33.0451 42.825 32.8572L59.4076 26.5602C57.1591 22.9888 50.9758 15.6579 41.5134 15.094C40.7639 15 40.0144 15 39.3586 15C30.1773 15 23.1508 19.1354 18.6538 26.4662C15.6558 31.2594 15 36.1467 15 39.8122C15 42.2557 15.2811 44.1355 15.4684 45.0752C15.7495 47.2369 16.8737 49.3986 17.4359 49.7745C17.8106 50.0565 18.4664 50.2444 19.0285 50.2444C19.4033 50.2444 19.8717 50.1505 20.2465 50.0565L36.6417 43.8535C36.1733 43.0076 35.1427 41.2219 33.269 37.1806C30.3647 30.7895 29.2405 26.9361 28.9593 24.1166C29.0531 23.7406 29.0531 23.5527 29.0531 23.3647C29.0531 22.5188 29.5215 21.673 30.3647 21.673C31.4889 21.7669 32.4258 22.7068 33.55 23.8346C35.6111 25.9023 38.6091 30.9775 39.6397 32.3873C40.2018 33.0451 40.6702 33.2332 41.326 33.2332Z" fill="#DB0334"></path><path fill-rule="evenodd" clip-rule="evenodd" d="M37.9527 46.7662C37.4843 46.7662 36.9221 46.8602 36.4537 47.1422L19.9648 53.4392C22.2133 57.0107 28.3967 64.2475 37.8591 64.9053C38.6085 64.9994 39.2643 64.9994 40.0138 64.9994C49.1015 64.9994 56.2217 60.864 60.7186 53.5332C63.6229 48.7399 64.3725 43.8527 64.3725 40.0933C64.3725 37.6497 64.0913 35.864 63.904 34.9241C63.6229 32.7624 62.4987 30.6008 61.8429 30.2249C61.4682 29.9428 60.8124 29.7549 60.1566 29.7549C59.7818 29.7549 59.3134 29.8489 58.9386 29.9428L42.5434 36.1459C43.0118 36.9918 44.0424 38.7775 45.9161 42.8189C48.8204 49.2099 49.9446 52.9693 50.2258 55.8828C50.2258 56.0708 50.2258 56.3527 50.2258 56.5407C50.2258 57.3866 49.7573 58.2324 49.0078 58.2324C47.8835 58.1384 46.9467 57.1986 45.8225 56.0708C43.7613 54.0031 40.7634 48.928 39.7328 47.5181C39.1707 46.9542 38.6085 46.7662 37.9527 46.7662Z" fill="#DB0334"></path></svg> 