<?xml version="1.0" encoding="UTF-8"?> <svg xmlns="http://www.w3.org/2000/svg" width="80" height="80" viewBox="0 0 80 80" fill="none"><rect width="80" height="80" fill="#F6F8FB"></rect><path d="M44.4838 17.9756V29.6423H39.96C34.2458 29.6423 29.6426 34.2454 29.6426 39.9597C29.6426 45.674 34.2458 50.2772 39.96 50.2772H44.4838V61.9438C54.8013 59.9597 62.4997 50.9121 62.4997 39.9597C62.4997 29.0867 54.8013 20.0391 44.4838 17.9756Z" fill="#003791"></path><path d="M39.9603 53.9286C32.2619 53.9286 25.9921 47.6587 25.9921 39.9603C25.9921 32.2619 32.2619 25.9921 39.9603 25.9921H40.8333V17.5C40.5159 17.5 40.1984 17.5 39.9603 17.5C27.5794 17.5 17.5 27.5794 17.5 39.9603C17.5 52.4206 27.5794 62.5 39.9603 62.5C40.2778 62.5 40.5952 62.5 40.8333 62.5V53.9286H39.9603Z" fill="#FF4B5F"></path></svg> 