<?xml version="1.0" encoding="UTF-8"?> <svg xmlns="http://www.w3.org/2000/svg" width="80" height="80" viewBox="0 0 80 80" fill="none"><rect width="80" height="80" fill="white"></rect><path d="M80 40C76.9688 38.9155 46.0253 34.6335 45.5401 34.4601C44.3287 31.0741 40.1141 0.318346 40.0002 0C38.8997 3.07586 34.6258 33.9976 34.4603 34.4599C33.2171 34.9047 3.3431 38.804 0 40C0.382901 40.137 33.8389 45.3177 34.4601 45.5399C36.3284 50.7621 38.8483 76.7805 40 79.9998C41.1338 76.8308 45.4366 45.8293 45.5399 45.5399C46.7807 45.0962 76.6504 41.1985 80 40Z" fill="#405DA3"></path><path d="M78.2707 22.9703H12.0907V52.1586H7.18907V22.9703H0V19H78.2707V22.9703Z" fill="#FBAF41"></path><path d="M24.5951 42.437H21.7685V52.1586H16.8669V28.3693H21.7685V37.8948H24.0069L29.8235 28.3693H35.8035L28.4674 39.6268L36.5715 52.1586H30.7222L24.5951 42.437Z" fill="#FBAF41"></path><path d="M57.8446 52.1586H52.9266V32.3397H43.4011V52.1586H38.4994V28.3693H57.8446V52.1586Z" fill="#FBAF41"></path><path d="M77.6799 32.3397H67.0597V36.9472H70.8829C73.6823 36.9472 75.899 37.628 77.5328 38.9895C79.1776 40.3402 80 42.1647 80 44.463C80 53.4646 79.1831 57.9988 77.5492 59.4039C75.9262 60.7981 73.764 61.5062 71.0627 61.5279H62.109V28.3693H77.6799V32.3397ZM67.0597 40.9012V57.5903H70.9646C72.2173 57.5903 73.214 57.2472 73.9546 56.5609C74.7062 55.8747 75.082 52.2773 75.082 44.4304C75.082 43.352 74.7226 42.5024 74.0037 41.8815C73.2956 41.2497 72.3208 40.923 71.079 40.9012H67.0597Z" fill="#FBAF41"></path><path d="M65.6107 61.5279H0.0254885V57.5125H65.6107V61.5279Z" fill="#FBAF41"></path></svg> 