<svg width="80" height="80" viewBox="0 0 80 80" fill="none" xmlns="http://www.w3.org/2000/svg">
<rect y="0.000976562" width="80" height="80" fill="#E0E7ED"/>
<path fill-rule="evenodd" clip-rule="evenodd" d="M13 29.3631V46.2816L13.0024 46.482C15.7806 51.585 21.1538 55.0937 27.3688 55.2681C22.4195 55.0249 18.4714 51.0844 18.4714 46.2816V26.9196C18.4717 26.3433 18.7027 25.7907 19.1137 25.3829C19.5247 24.9751 20.0822 24.7454 20.664 24.7441C17.3302 24.7441 14.4406 25.4321 13 28.1769" fill="#B30064"/>
<path fill-rule="evenodd" clip-rule="evenodd" d="M20.6628 20C16.4356 20 13 23.4103 13 27.6034V30.0469C13.7274 28.6552 14.827 27.4883 16.1786 26.6737C17.5302 25.8591 19.0819 25.4282 20.664 25.4279H26.097C26.4565 25.4276 26.8124 25.3572 27.1444 25.2206C27.4765 25.0841 27.7781 24.8841 28.032 24.6321C28.286 24.38 28.4874 24.0809 28.6247 23.7518C28.7619 23.4227 28.8324 23.0701 28.8321 22.714C28.8324 22.3578 28.7619 22.005 28.6246 21.6758C28.4872 21.3467 28.2857 21.0475 28.0316 20.7955C27.7775 20.5434 27.4758 20.3435 27.1436 20.207C26.8115 20.0705 26.4554 20.0002 26.0958 20H20.664H20.6628ZM57.4368 32.3789C57.4368 32.8131 57.3937 33.2377 57.3146 33.6505C57.1522 34.485 56.8268 35.28 56.3566 35.9909C55.5387 37.2719 55.7459 38.6787 57.0045 39.3916C57.8127 39.8255 58.543 40.3886 59.166 41.0582C60.632 42.643 61.4425 44.7162 61.4364 46.8657C61.4364 51.1929 58.2367 54.768 54.1365 55.2295C60.0318 54.9768 64.8601 51.5523 66.9066 46.7009C66.8888 44.7582 66.4613 42.8407 65.6515 41.0713C64.8417 39.3019 63.6674 37.7197 62.204 36.4262C62.6627 35.1641 62.9081 33.8 62.9081 32.3789C62.9081 31.6186 62.7369 30.1857 62.5968 29.4645C59.6593 26.8549 55.7435 25.2417 51.5319 25.2417C51.4325 25.2417 51.3319 25.2453 51.2325 25.2488C54.6119 25.3342 57.4356 28.8785 57.4356 32.3778L57.4368 32.3789Z" fill="#B30064"/>
<path fill-rule="evenodd" clip-rule="evenodd" d="M51.1164 20C56.8356 20 61.6101 24.1635 62.6411 29.6496C59.7024 27.04 55.7866 25.4279 51.5762 25.4279C51.4756 25.4279 51.375 25.4315 51.2756 25.4339C51.2226 25.4304 51.1695 25.4284 51.1164 25.4279H42.7111V45.7792C42.7111 53.7337 36.0471 60.2067 27.855 60.2067C19.7311 60.2067 13.1138 53.8428 13 45.9797C15.7782 51.0826 21.1502 54.5913 27.3664 54.7669C27.5269 54.7728 27.6909 54.7787 27.855 54.7787C33.0282 54.7787 37.2386 50.741 37.2386 45.7792V20H51.1176H51.1164ZM54.2287 54.6245C53.9305 54.6579 53.6307 54.6749 53.3306 54.6755H44.4858C43.759 54.6755 43.062 54.9615 42.548 55.4706C42.0341 55.9797 41.7454 56.6701 41.7454 57.3901C41.7454 58.11 42.0341 58.8005 42.548 59.3096C43.062 59.8187 43.759 60.1047 44.4858 60.1047H53.3318C60.8676 60.1047 67 53.8927 67 46.2608L66.9988 46.0947C64.9535 50.9462 60.1252 54.3719 54.2287 54.6233V54.6245Z" fill="#B30064"/>
</svg>
