<?xml version="1.0" encoding="UTF-8"?> <svg xmlns="http://www.w3.org/2000/svg" width="80" height="80" viewBox="0 0 80 80" fill="none"><rect width="80" height="80" fill="#CAEAF7"></rect><path d="M39.4556 9.99964C59.9646 9.99963 69.4555 25.2723 70.001 39.4541L58.001 39.4541C58.001 24.6178 48.1829 16.5451 38.3647 17.0905C25.2738 17.0905 13.4557 26.1814 10.0011 32.3632C15.6738 15.3451 28.5465 10.5451 39.4556 9.99964Z" fill="#1C3462"></path><path d="M40.5454 69.9994C20.0363 69.9994 10.5455 54.7267 10 40.5449L22 40.5449C22 55.3813 32.3636 63.454 42.1817 62.9085C55.2726 62.9085 66.5453 53.8176 69.9998 47.6358C64.3271 64.654 51.4544 69.4539 40.5454 69.9994Z" fill="#1C3462"></path><path d="M45.4543 60.1812C27.9998 60.1812 25.0907 47.2722 24.1816 40.5449H32.9089C34.218 49.7085 41.4543 51.9994 44.9089 51.9994C50.1452 52.4358 55.4543 47.8176 57.4543 45.454C55.2725 51.9994 48.5452 54.7267 45.4543 55.2722C55.927 56.1449 62.9088 48.3631 65.0906 44.3631C60.727 56.5812 50.1816 59.9994 45.4543 60.1812Z" fill="#695EA2"></path><path d="M35.0906 19.8178C52.5451 19.8178 55.4542 32.7268 56.3633 39.4541L47.636 39.4541C46.3269 30.2905 39.0906 27.9996 35.6361 27.9996C30.3997 27.5632 25.0906 32.1814 23.0906 34.545C25.2725 27.9996 31.9997 25.2723 35.0906 24.7269C24.6179 23.8541 17.6361 31.6359 15.4543 35.6359C19.8179 23.4178 30.3633 19.9996 35.0906 19.8178Z" fill="#695EA2"></path></svg> 