<svg width="80" height="80" viewBox="0 0 80 80" fill="none" xmlns="http://www.w3.org/2000/svg">
<rect width="80" height="80" fill="#F5F8FA"/>
<path fill-rule="evenodd" clip-rule="evenodd" d="M41.4216 28.6206C41.4348 28.6018 41.4479 28.5811 41.463 28.5604C41.8108 28.0547 41.666 27.6787 41.4329 27.4775C41.2863 27.3478 37.7969 25.2346 37.7969 25.2346C37.545 25.0654 37.3776 24.7778 37.3776 24.4487C37.3776 23.9317 37.6878 23.5407 38.391 23.347C40.6339 22.7304 48.5207 22.407 51.2016 22.407C52.1304 22.407 53.7322 22.4033 55.1704 22.4446L55.1065 22.3826C51.1772 19.0267 46.0747 17 40.5023 17C28.0733 17 18 27.0714 18 39.5004C18 44.9638 19.9458 49.9704 23.1833 53.8696C26.0109 49.8031 32.9896 39.7843 34.5181 37.7369C36.2797 35.3775 40.2992 30.1321 40.9779 29.2429L41.0118 29.2015L41.4216 28.6206Z" fill="#E2001A"/>
<path fill-rule="evenodd" clip-rule="evenodd" d="M26.7789 57.3356C30.5766 60.261 35.3332 62 40.4995 62C52.9266 62 62.9999 51.9268 62.9999 39.4996C62.9999 35.7377 62.0768 32.1938 60.4468 29.0785L60.4487 29.0804C61.2233 28.334 62.1163 27.1534 61.5297 25.6719C61.3455 25.232 60.4713 24.2318 60.2457 23.9893L60.2776 24.0757C60.8247 25.7283 59.7418 26.7642 58.9635 27.4673C58.5367 27.8565 52.8232 33.2428 46.1227 39.1011C40.2156 44.2656 33.611 49.5203 29.7833 52.3855C24.4007 56.4125 23.3535 56.9991 23.3535 56.9991C23.2106 57.0762 22.9737 57.142 22.8008 57.142C22.4718 57.142 22.186 56.9954 22.0055 56.7585L21.9999 56.7528C21.9717 56.8224 21.9623 56.8826 21.9867 56.9239C22.5639 57.8602 23.5208 58.9412 24.0792 58.9412C24.2522 58.9412 24.4909 58.8754 24.6338 58.8002C24.6338 58.8002 25.0568 58.5652 26.7789 57.3356Z" fill="#E2001A"/>
<path fill-rule="evenodd" clip-rule="evenodd" d="M41.4559 28.5599C41.8018 28.0561 41.6571 27.6801 41.4258 27.477C41.2792 27.3492 37.7898 25.2341 37.7898 25.2341C37.5379 25.0649 37.3706 24.7791 37.3706 24.4501C37.3706 23.9312 37.6808 23.5421 38.3839 23.3465C40.6249 22.7299 48.5136 22.4084 51.1927 22.4084C52.4579 22.4084 54.964 22.399 56.6128 22.508C58.4628 22.6284 59.8672 23.0119 60.215 23.9068C60.9012 25.6609 59.7676 26.7438 58.9629 27.4733C58.538 27.8605 52.8246 33.2469 46.1241 39.1051C40.217 44.2696 33.6105 49.5224 29.7846 52.3895C24.402 56.4166 23.3548 57.0031 23.3548 57.0031C23.2119 57.0802 22.9751 57.146 22.8002 57.146C22.2437 57.146 21.8057 56.7193 21.8057 56.159C21.8057 55.9484 21.8696 55.7492 21.9824 55.5894C21.9824 55.5894 32.5802 40.3196 34.511 37.7364C36.4399 35.157 41.0686 29.1145 41.0686 29.1145C41.0686 29.1145 41.1231 29.0469 41.4559 28.5599Z" fill="#FEFEFE"/>
</svg>
