<?xml version="1.0" encoding="UTF-8"?> <svg xmlns="http://www.w3.org/2000/svg" width="80" height="80" viewBox="0 0 80 80" fill="none"><rect width="80" height="80" fill="#FFCD00"></rect><path d="M27.7081 63.0005C24.6275 63.0005 22.3022 62.0246 20.7323 60.0728C19.192 58.121 18.1849 55.6074 17.7109 52.5318C17.237 49.4563 17 45.6266 17 41.0429C17 36.193 17.2222 32.2155 17.6665 29.1104C18.1404 26.0053 19.1624 23.5064 20.7323 21.6138C22.3022 19.6916 24.6275 18.7305 27.7081 18.7305V23.7874C26.6121 23.7874 25.7679 24.438 25.1755 25.7392C24.6127 27.0403 24.2128 28.9182 23.9758 31.3727C23.7685 33.8272 23.6648 37.0506 23.6648 41.0429C23.6648 44.9761 23.7833 48.1551 24.0203 50.58C24.2572 53.005 24.6719 54.8237 25.2644 56.0362C25.8568 57.2782 26.6714 57.8992 27.7081 57.8992V63.0005Z" fill="#231F20"></path><path d="M40.0998 57.5039C37.7301 57.5039 35.9084 57.1194 34.6347 56.3505C33.3609 55.5521 32.4723 54.4283 31.9687 52.9793C31.4948 51.5006 31.2578 49.5932 31.2578 47.257V32.9291C31.2578 29.617 31.7466 27.1773 32.7241 25.6099C33.7016 24.013 35.153 22.8745 37.0784 22.1943C38.0559 21.8099 39.3889 21.455 41.0773 21.1297C42.4695 20.8044 43.6099 20.4939 44.4986 20.1982C45.4168 19.9024 46.2758 19.5032 47.0756 19.0005L47.3422 24.8115C46.6017 25.1959 45.8167 25.4916 44.9873 25.6986C44.1579 25.9057 43.1656 26.1127 42.0104 26.3197C41.8623 26.3492 41.3587 26.4527 40.4997 26.6302C39.6703 26.778 38.9298 26.9851 38.2781 27.2512C37.5079 27.5469 36.9599 28.094 36.6341 28.8925C36.3083 29.6909 36.1453 30.8147 36.1453 32.2637V34.2155C37.3006 32.8848 39.3296 32.2194 42.2325 32.2194C43.8321 32.2194 45.1058 32.5299 46.0537 33.1509C47.0312 33.7424 47.7421 34.7183 48.1864 36.0786C48.6604 37.4094 48.8973 39.2428 48.8973 41.5791V47.8337C48.8973 50.3473 48.5419 52.3139 47.831 53.7334C47.1201 55.1528 46.1277 56.1435 44.854 56.7054C43.5803 57.2377 41.9956 57.5039 40.0998 57.5039ZM40.2331 52.8462C40.7959 52.8462 41.1958 52.6983 41.4328 52.4026C41.6994 52.1069 41.8771 51.5746 41.9659 50.8057C42.0548 50.0368 42.0992 48.8095 42.0992 47.1239V40.2927C42.0992 38.7845 41.9808 37.7642 41.7438 37.2319C41.5068 36.67 41.0181 36.3891 40.2775 36.3891C39.7443 36.3891 39.3 36.6257 38.9446 37.0988C38.6187 37.5424 38.3818 38.3113 38.2337 39.4055V47.0796C38.2337 48.7356 38.2781 49.9629 38.3669 50.7613C38.4558 51.5302 38.6335 52.0773 38.9001 52.4026C39.1963 52.6983 39.6407 52.8462 40.2331 52.8462Z" fill="#231F20"></path><path d="M52.2919 57.8992C53.3286 57.8992 54.1284 57.2782 54.6912 56.0362C55.2836 54.7941 55.6983 52.9754 55.9353 50.58C56.1723 48.1551 56.2908 44.9613 56.2908 40.9986C56.2908 36.9767 56.1871 33.7533 55.9797 31.3283C55.7724 28.8738 55.3725 27.0108 54.7801 25.7392C54.2173 24.438 53.3879 23.7874 52.2919 23.7874V18.7305C55.3725 18.7305 57.6978 19.6768 59.2677 21.5694C60.8376 23.4621 61.8448 25.9609 62.2891 29.0661C62.763 32.1712 63 36.1487 63 40.9986C63 45.5823 62.763 49.4267 62.2891 52.5318C61.8151 55.6074 60.7932 58.121 59.2233 60.0728C57.683 62.0246 55.3725 63.0005 52.2919 63.0005V57.8992Z" fill="#231F20"></path></svg> 