<?xml version="1.0" encoding="UTF-8"?> <svg xmlns="http://www.w3.org/2000/svg" width="80" height="80" viewBox="0 0 80 80" fill="none"><rect x="0.000976562" width="80" height="80" fill="white"></rect><path d="M32.4839 31.836C28.7255 34.5113 25.7725 38.5242 25.7725 43.6072C25.7725 47.8876 27.9202 51.9005 31.1416 54.8433C33.2893 56.716 34.6316 56.716 34.6316 54.5758V32.9061C34.6316 31.836 33.5577 31.301 32.4839 31.836ZM46.7121 18.7272C45.9067 18.4597 45.6383 17.9246 45.6383 17.3896V9.89884C45.6383 9.09626 44.8329 8.56121 43.7591 9.09626C40.5376 11.2365 38.39 12.8416 35.1685 14.9818C34.6316 15.2494 34.3631 15.7844 34.3631 16.587V17.9246C34.3631 18.4597 33.8262 18.9947 33.2893 19.2622C31.947 19.7973 30.3363 20.3324 28.994 20.8674C20.1349 25.1478 13.9604 33.7087 13.9604 43.8747C13.9604 52.9706 19.0611 62.0665 27.3832 67.1495C28.994 68.2196 30.6047 68.4871 32.2155 66.882C36.5108 62.8691 40.8061 58.8562 45.1014 54.8433C45.6383 54.3082 46.1752 53.5057 46.1752 52.4356V33.4412C46.1752 31.836 47.249 32.1035 48.0544 32.6386C52.0812 35.3139 54.7658 39.5943 54.7658 44.1422C54.7658 47.8876 53.4235 51.0979 51.0074 53.7732C50.202 54.8433 50.202 54.8433 49.9336 56.1809V66.3469C49.9336 67.9521 51.5443 67.9521 52.3497 67.417C60.6718 62.8691 66.3094 53.7732 66.3094 43.8747C66.3094 31.5685 57.4504 21.67 46.7121 18.7272ZM0 0.000364065L80 0V80.0004L0.000599623 79.9908L0 0.000364065Z" fill="#AB0873"></path></svg> 