<?xml version="1.0" encoding="UTF-8"?> <svg xmlns="http://www.w3.org/2000/svg" width="80" height="80" viewBox="0 0 80 80" fill="none"><rect width="80" height="80" fill="#F5F8FA"></rect><path fill-rule="evenodd" clip-rule="evenodd" d="M5 34.4851L9.4708 33.0774L5 30.7738L40 19L75 30.7738L70.5292 33.0774L75 34.4851L70.5292 36.7887L75 38.3244L70.9124 40.372L75 41.7798L57.5 50.6101V51.122C57.5 57.1369 49.708 62 40 62C30.292 62 22.5 57.1369 22.5 51.122V50.6101L5 41.7798C5 41.7798 8.57664 40.628 9.08759 40.372L5 38.3244L9.4708 36.7887L5 34.4851ZM22.7555 35.7649L14.0693 31.4137L40 22.7113L65.9307 31.4137L57.2445 35.7649C55.7117 30.6458 48.5584 26.8065 40 26.8065C31.4416 26.8065 24.2883 30.6458 22.7555 35.7649ZM57.5 41.5238V39.6042C57.5 45.619 49.708 50.4821 40 50.4821C30.292 50.4821 22.5 45.619 22.5 39.6042V41.5238C22.5 47.5387 30.292 52.4018 40 52.4018C49.708 52.4018 57.5 47.5387 57.5 41.5238ZM57.5 45.2351V43.3155C57.5 49.4583 49.708 54.3214 40 54.3214C30.292 54.3214 22.5 49.4583 22.5 43.3155V45.2351C22.5 51.25 30.292 56.2411 40 56.2411C49.708 56.2411 57.5 51.25 57.5 45.2351ZM57.5 49.0744V47.1548C57.5 53.1696 49.708 58.1607 40 58.1607C30.292 58.1607 22.5 53.1696 22.5 47.1548V49.0744C22.5 55.0893 30.292 60.0804 40 60.0804C49.708 60.0804 57.5 55.0893 57.5 49.0744ZM68.3577 34.1012L70.5292 34.869L57.5 41.5238C57.5 40.8839 57.5 40.244 57.5 39.6042L68.3577 34.1012ZM68.3577 37.9405L70.5292 38.7083L57.5 45.2351C57.5 44.5952 57.5 43.9554 57.5 43.3155L68.3577 37.9405ZM11.2591 41.5238L9.08759 42.2917L22.5 49.0744V47.1548L11.2591 41.5238ZM11.7701 37.9405L9.4708 38.7083L22.5 45.2351V43.3155L11.7701 37.9405ZM11.7701 34.1012L9.4708 34.869L22.5 41.5238V39.6042L11.7701 34.1012ZM71.0401 42.2917L57.5 49.0744C57.5 48.4345 57.5 47.7946 57.5 47.1548L68.7409 41.5238L71.0401 42.2917ZM57.5 37.5565L70.5292 31.0298L40 20.7917L9.4708 31.0298L22.5 37.5565V37.8125C22.5 43.8274 30.292 48.6905 40 48.6905C49.708 48.6905 57.5 43.8274 57.5 37.8125V37.5565Z" fill="#016350"></path><path fill-rule="evenodd" clip-rule="evenodd" d="M57.5 37.5557V50.6092V51.1211C57.5 57.136 49.708 61.9991 40 61.9991C30.4197 61.9991 22.5 57.136 22.5 51.1211V49.0735C22.5 55.0884 30.4197 60.0795 40 60.0795C49.708 60.0795 57.5 55.0884 57.5 49.0735V47.1539C57.5 53.1688 49.708 58.1598 40 58.1598C30.4197 58.1598 22.5 53.1688 22.5 47.1539V45.2342C22.5 51.3771 30.4197 56.2402 40 56.2402C49.708 56.2402 57.5 51.3771 57.5 45.2342V43.3146C57.5 49.4575 49.708 54.3205 40 54.3205C30.4197 54.3205 22.5 49.4575 22.5 43.4426V41.5229C22.5 47.5378 30.4197 52.4009 40 52.4009C49.708 52.4009 57.5 47.5378 57.5 41.5229V39.6033C57.5 45.6182 49.708 50.4813 40 50.4813C30.4197 50.4813 22.5 45.6182 22.5 39.6033V37.6836C22.5 43.8265 30.4197 48.6896 40 48.6896C48.3029 48.6896 55.3285 45.1063 57.1168 40.2432C57.3723 39.4753 57.5 38.5795 57.5 37.8116V37.5557Z" fill="#D7B56D"></path><path fill-rule="evenodd" clip-rule="evenodd" d="M51.752 31.6689C54.179 33.3326 55.7118 35.3803 55.7118 37.6838C55.7118 39.9874 54.179 42.163 51.752 43.6987V41.5231C53.0293 40.3713 53.7957 39.0916 53.7957 37.6838C53.7957 36.4041 53.0293 34.9963 51.752 33.9725V31.6689Z" fill="#D7B56D"></path></svg> 