<?xml version="1.0" encoding="UTF-8"?> <svg xmlns="http://www.w3.org/2000/svg" width="80" height="80" viewBox="0 0 80 80" fill="none"><rect x="0.000976562" width="80" height="80" fill="#F5F8FA"></rect><path fill-rule="evenodd" clip-rule="evenodd" d="M46.1564 57.7878C46.1564 57.7878 47.7719 62.1022 49.2529 62.3718H30.5391C26.7694 62.3718 23.4036 60.2146 22.3266 56.17L11.4214 23.8125C11.4214 23.8125 10.479 19.9026 8.99805 19.2285H28.1157C31.8854 19.3633 34.4434 20.7116 35.9244 25.7L46.1564 57.7878Z" fill="#E32D29"></path><path opacity="0.2" fill-rule="evenodd" clip-rule="evenodd" d="M46.1564 57.7878C46.1564 57.7878 47.7719 62.1022 49.2529 62.3718H30.5391C26.7694 62.3718 23.4036 60.2146 22.3266 56.17L11.4214 23.8125C11.4214 23.8125 10.479 19.9026 8.99805 19.2285H28.1157C31.8854 19.3633 34.4434 20.7116 35.9244 25.7L46.1564 57.7878Z" fill="url(#paint0_linear)"></path><path fill-rule="evenodd" clip-rule="evenodd" d="M34.1737 57.7878C34.1737 57.7878 32.5581 62.1022 31.0771 62.3718H49.7909C53.5606 62.3718 56.9264 60.2146 58.0035 56.17L68.774 23.8125C68.774 23.8125 69.7164 19.9026 71.1974 19.2285H52.2143C48.4446 19.2285 46.0213 20.5767 44.5403 25.5652L34.1737 57.7878Z" fill="#E32E2A"></path><defs><linearGradient id="paint0_linear" x1="29.1093" y1="15.5603" x2="29.1093" y2="66.175" gradientUnits="userSpaceOnUse"><stop stop-color="white" stop-opacity="0"></stop><stop offset="0.33" stop-color="white" stop-opacity="0"></stop><stop offset="0.76" stop-color="#0E1513"></stop><stop offset="1" stop-color="#0E1513"></stop></linearGradient></defs></svg> 