<?xml version="1.0" encoding="UTF-8"?> <svg xmlns="http://www.w3.org/2000/svg" width="80" height="80" viewBox="0 0 80 80" fill="none"><rect width="80" height="80" fill="white"></rect><g clip-path="url(#clip0)"><path d="M36.1198 52.3636C36.0651 52.5274 35.9592 52.6692 35.8178 52.7683C35.6763 52.8673 35.5068 52.9182 35.3342 52.9135C35.2246 52.9302 35.1126 52.9209 35.0073 52.8863C34.902 52.8517 34.8063 52.7928 34.7279 52.7145C34.6496 52.6361 34.5907 52.5404 34.5561 52.4351C34.5215 52.3298 34.5122 52.2178 34.5289 52.1082C34.5232 51.9603 34.5565 51.8135 34.6254 51.6825C34.6944 51.5515 34.7965 51.4409 34.9217 51.3619C35.7911 50.5075 36.5085 49.5111 37.043 48.4156C37.6382 47.3245 37.9553 46.1034 37.9661 44.8605V21.2907H30.2274C28.6103 21.2782 27.0095 21.6131 25.533 22.2727C23.4208 23.1521 21.6174 24.639 20.3516 26.5448C19.0857 28.4506 18.4144 30.6895 18.4228 32.9774C18.4222 34.5129 18.6068 36.0429 18.9728 37.5342C19.2529 38.8342 19.7942 40.0637 20.5637 41.1483C21.354 42.1763 22.3864 42.9928 23.5689 43.5249C24.9743 44.1603 26.5053 44.4692 28.0471 44.4284C28.908 44.4227 29.7627 44.2835 30.5809 44.0159C31.4433 43.7552 32.2494 43.3355 32.9575 42.7785C33.7045 42.1872 34.3087 41.4354 34.7253 40.5787C35.195 39.5585 35.4107 38.4398 35.3538 37.3182C35.4679 35.7247 35.0234 34.1412 34.0967 32.8399C33.7026 32.3356 33.1944 31.932 32.6139 31.6622C32.0335 31.3925 31.3973 31.2643 30.7577 31.2882C30.0062 31.2991 29.2596 31.4114 28.5382 31.6221C28.1536 31.7332 27.8054 31.9445 27.5293 32.2344C27.2532 32.5243 27.0591 32.8824 26.9669 33.272C26.9669 33.272 27.0847 33.272 27.3204 33.272C27.6046 33.2753 27.8851 33.3362 28.145 33.4509C28.405 33.5657 28.639 33.732 28.8328 33.9398C29.0397 34.1568 29.2017 34.4125 29.3096 34.6923C29.4174 34.972 29.469 35.2703 29.4613 35.5701C29.4916 36.1729 29.2875 36.7642 28.8917 37.22C28.7201 37.4276 28.5037 37.5937 28.2589 37.706C28.014 37.8182 27.7469 37.8736 27.4775 37.8681C27.1882 37.8727 26.9011 37.8175 26.634 37.706C26.367 37.5945 26.1259 37.429 25.9259 37.22C25.7218 36.9987 25.5644 36.7385 25.4632 36.455C25.3619 36.1715 25.3189 35.8706 25.3366 35.5701V35.4326C25.3263 34.1195 25.7549 32.8406 26.5544 31.7989C27.1186 31.2731 27.7841 30.8679 28.5101 30.6079C29.2362 30.3478 30.0076 30.2385 30.7773 30.2865C31.5349 30.2582 32.2902 30.3852 32.9968 30.6597C33.7515 30.9459 34.4255 31.4109 34.961 32.0149C35.5636 32.6884 36.0364 33.4675 36.3555 34.313C36.7535 35.3394 36.947 36.4336 36.9251 37.5342C36.9667 38.9623 36.6776 40.3807 36.0805 41.6786C35.5687 42.708 34.8299 43.6079 33.92 44.3105C33.0652 44.9801 32.0827 45.468 31.0327 45.7444C30.0206 46.0187 28.9778 46.1639 27.9293 46.1765C24.056 46.4325 20.234 45.1796 17.2639 42.6803C15.9833 41.4008 14.9899 39.8632 14.3498 38.1698C13.7097 36.4765 13.4376 34.6662 13.5517 32.8595C13.5188 30.9124 13.9926 28.9901 14.9266 27.2813C15.8476 25.6577 17.1069 24.251 18.6192 23.1566C20.2308 21.9828 22.0309 21.0927 23.9421 20.5246C25.9772 19.8954 28.0972 19.584 30.2274 19.6015H37.9661C37.931 18.4363 37.6498 17.2917 37.1412 16.2428C36.6988 15.2086 36.0271 14.2885 35.177 13.5519C35.0088 13.5185 34.8591 13.4235 34.7573 13.2854C34.6555 13.1473 34.6091 12.9761 34.6271 12.8055C34.6126 12.7031 34.6208 12.5987 34.6511 12.4998C34.6814 12.4009 34.733 12.3099 34.8023 12.2331C34.8716 12.1563 34.9569 12.0956 35.0522 12.0554C35.1475 12.0152 35.2504 11.9963 35.3538 12.0002C35.4953 11.9838 35.6383 12.0131 35.762 12.0838C35.8857 12.1544 35.9835 12.2628 36.0413 12.393H43.7407C43.7984 12.2628 43.8963 12.1544 44.02 12.0838C44.1437 12.0131 44.2867 11.9838 44.4282 12.0002C44.5378 11.9836 44.6497 11.9929 44.755 12.0275C44.8603 12.0621 44.956 12.1209 45.0344 12.1993C45.1128 12.2777 45.1716 12.3734 45.2062 12.4787C45.2408 12.584 45.2502 12.6959 45.2335 12.8055C45.2515 12.9761 45.205 13.1473 45.1033 13.2854C45.0015 13.4235 44.8518 13.5185 44.6835 13.5519C43.8334 14.2885 43.1618 15.2086 42.7194 16.2428C42.2107 17.2917 41.9296 18.4363 41.8944 19.6015H49.6332C51.776 19.5871 53.9085 19.8984 55.9578 20.5246C57.8746 21.0935 59.6811 21.9835 61.3003 23.1566C62.8161 24.2791 64.075 25.7121 64.9929 27.3599C65.9269 29.0687 66.4007 30.991 66.3678 32.9381C66.4806 34.7481 66.2041 36.5612 65.557 38.2553C64.9098 39.9494 63.9071 41.4851 62.6163 42.7589C59.6361 45.2539 55.8099 46.5059 51.9313 46.2551C50.8828 46.2412 49.8402 46.096 48.8279 45.8229C47.7779 45.5465 46.7954 45.0586 45.9406 44.3891C45.0306 43.6865 44.2919 42.7866 43.78 41.7571C43.1979 40.4288 42.9355 38.9824 43.014 37.5342C42.9859 36.4349 43.1727 35.3407 43.564 34.313C43.8831 33.4675 44.3559 32.6884 44.9585 32.0149C45.4924 31.4092 46.1668 30.9438 46.9227 30.6597C47.6165 30.3884 48.3583 30.2614 49.1029 30.2865C49.8726 30.2385 50.644 30.3478 51.3701 30.6079C52.0961 30.8679 52.7616 31.2731 53.3258 31.7989C54.1253 32.8406 54.5539 34.1195 54.5436 35.4326V35.5701C54.5535 35.8747 54.5012 36.1782 54.3897 36.4619C54.2783 36.7456 54.1101 37.0035 53.8954 37.22C53.6953 37.429 53.4542 37.5945 53.1872 37.706C52.9202 37.8175 52.6331 37.8727 52.3437 37.8681C52.0744 37.8736 51.8073 37.8182 51.5624 37.706C51.3175 37.5937 51.1012 37.4276 50.9295 37.22C50.5337 36.7642 50.3296 36.1729 50.3599 35.5701C50.3522 35.261 50.4074 34.9537 50.5222 34.6666C50.637 34.3796 50.809 34.119 51.0278 33.9005C51.2216 33.6928 51.4556 33.5264 51.7155 33.4117C51.9755 33.2969 52.256 33.236 52.5402 33.2327C52.7758 33.2327 52.8937 33.2327 52.8937 33.2327C52.8015 32.8431 52.6074 32.485 52.3313 32.1951C52.0552 31.9052 51.707 31.6939 51.3224 31.5828C50.5991 31.3854 49.8526 31.2863 49.1029 31.2882C48.4633 31.2643 47.8271 31.3925 47.2466 31.6622C46.6662 31.932 46.158 32.3356 45.7638 32.8399C44.8372 34.1412 44.3927 35.7247 44.5068 37.3182C44.4744 38.4463 44.717 39.5653 45.2139 40.5787C45.6305 41.4354 46.2347 42.1872 46.9816 42.7785C47.6898 43.3355 48.4958 43.7552 49.3582 44.0159C50.1764 44.2835 51.0312 44.4227 51.892 44.4284C53.4338 44.4692 54.9649 44.1603 56.3703 43.5249C57.5401 42.9624 58.5523 42.1189 59.3165 41.0697C60.0695 40.0071 60.6036 38.8052 60.8878 37.5342C61.2277 36.0661 61.3925 34.5629 61.3788 33.0559C61.4037 31.5249 61.1249 30.004 60.5586 28.5813C59.9922 27.1586 59.1494 25.8623 58.0791 24.7672C57.0125 23.6969 55.744 22.849 54.3472 22.2727C52.8844 21.6415 51.3047 21.3269 49.7118 21.3496H41.973V44.9194C41.9839 46.1623 42.3009 47.3834 42.8962 48.4746C43.4437 49.5212 44.1605 50.4703 45.0174 51.2833C45.1426 51.3624 45.2448 51.4729 45.3137 51.6039C45.3826 51.7349 45.4159 51.8817 45.4103 52.0297C45.4262 52.1374 45.417 52.2473 45.3835 52.3509C45.35 52.4545 45.293 52.549 45.2169 52.6269C45.1409 52.7049 45.0479 52.7642 44.9451 52.8003C44.8424 52.8364 44.7327 52.8482 44.6246 52.835C44.4494 52.8408 44.2768 52.7906 44.132 52.6917C43.9872 52.5928 43.8777 52.4504 43.8193 52.285L36.1198 52.3636Z" fill="#BD0D31"></path><path d="M30.0119 37.7505C29.9997 39.6467 29.3021 41.4745 28.0478 42.8966C26.4893 44.6316 24.4302 45.8396 22.1553 46.3535C23.59 46.7931 24.9628 47.4135 26.2408 48.1998C27.4509 48.9116 28.5385 49.8136 29.462 50.8711C30.3097 51.8733 30.9745 53.0169 31.4261 54.2494C31.9207 55.4994 32.1675 56.8336 32.1529 58.1777C32.1561 59.5368 31.8541 60.8793 31.269 62.106C30.6459 63.359 29.7539 64.4589 28.6567 65.3273C27.4216 66.3056 26.007 67.033 24.4927 67.4682C22.6528 68.023 20.7377 68.288 18.8163 68.2539H1.55135C1.48931 68.4002 1.38532 68.525 1.2525 68.6124C1.11968 68.6998 0.96396 68.7459 0.804973 68.7449C0.693484 68.7624 0.579428 68.7529 0.472336 68.7173C0.365245 68.6817 0.268229 68.621 0.189397 68.5403C0.110566 68.4595 0.0522078 68.3611 0.0192009 68.2531C-0.013806 68.1452 -0.020503 68.031 -0.000330414 67.9199C-0.00933046 67.7544 0.0330038 67.59 0.12089 67.4494C0.208776 67.3088 0.337929 67.1988 0.490708 67.1343C1.39696 66.3321 2.11463 65.3394 2.59235 64.2273C3.11161 63.1343 3.38642 61.9412 3.39766 60.7311V35.6685C3.39133 35.0756 3.2987 34.4867 3.12267 33.9204C2.94171 33.3204 2.69812 32.7411 2.39594 32.192C2.10933 31.6584 1.79462 31.1405 1.45314 30.6403C1.15466 30.1983 0.833411 29.7722 0.490708 29.3636C0.196085 29.2654 -0.000330414 29.01 -0.000330414 28.6172C-0.0162662 28.5095 -0.00710753 28.3995 0.0264315 28.296C0.0599706 28.1924 0.116984 28.0979 0.193026 28.02C0.269069 27.942 0.362085 27.8827 0.464825 27.8466C0.567564 27.8105 0.67725 27.7986 0.785331 27.8119C0.935435 27.8049 1.08403 27.8445 1.21066 27.9254C1.33729 28.0063 1.43573 28.1245 1.49243 28.2637H13.5916C15.6516 28.2613 17.7081 28.4321 19.7394 28.7743C21.5553 29.0589 23.3212 29.6012 24.9837 30.385C26.4199 31.0601 27.6779 32.0624 28.6567 33.3115C29.5868 34.6007 30.0634 36.1617 30.0119 37.7505V37.7505ZM13.0809 53.2477C13.0775 53.032 13.1214 52.8182 13.2096 52.6213C13.2979 52.4245 13.4283 52.2494 13.5916 52.1085C13.9221 51.8158 14.3483 51.6542 14.7897 51.6542C15.2312 51.6542 15.6574 51.8158 15.9879 52.1085C16.143 52.257 16.2664 52.4354 16.3507 52.6328C16.435 52.8303 16.4784 53.0428 16.4784 53.2575C16.4784 53.4722 16.435 53.6847 16.3507 53.8822C16.2664 54.0797 16.143 54.2581 15.9879 54.4066C15.6409 54.7104 15.1919 54.8718 14.7308 54.8583C14.1139 54.8935 13.4967 54.796 12.9206 54.5724C12.3446 54.3488 11.8233 54.0042 11.3918 53.562C10.5752 52.6617 10.1449 51.4767 10.1936 50.2622C10.1956 49.6311 10.3396 49.0085 10.615 48.4407C10.8904 47.8728 11.2902 47.3743 11.7846 46.9821C13.117 45.9523 14.7786 45.4426 16.4593 45.5482H17.0878C18.5103 45.5508 19.9191 45.2704 21.2322 44.7233C22.2738 44.2541 23.2144 43.587 24.0016 42.7591C24.6646 42.0762 25.1854 41.2683 25.5337 40.3825C25.8368 39.5581 25.9962 38.6878 26.0051 37.8095C26.0402 36.5473 25.6834 35.3053 24.9837 34.2543C24.2685 33.2247 23.3281 32.3716 22.2339 31.7599C21.0087 31.0639 19.6838 30.5605 18.3056 30.2671C16.7609 29.8971 15.1799 29.6994 13.5916 29.6779H7.38489V60.7311C7.38489 63.9916 9.34904 65.9951 13.0809 66.7218H18.8752C20.3225 66.761 21.7617 66.4933 23.0981 65.9361C24.1876 65.4804 25.1757 64.8127 26.0051 63.972C26.7474 63.1371 27.3151 62.1621 27.6746 61.1043C28.0338 60.1225 28.2199 59.0857 28.2246 58.0402C28.2111 56.6492 27.9241 55.2744 27.38 53.9941C26.8117 52.6748 25.9986 51.4752 24.9837 50.4586C22.7154 48.2301 19.6587 46.9877 16.4789 47.0017C15.1939 46.9002 13.9143 47.2549 12.8649 48.0034C12.5131 48.3019 12.2332 48.6759 12.0462 49.0976C11.8591 49.5193 11.7697 49.9779 11.7846 50.439C11.7874 50.9857 11.8735 51.5288 12.0399 52.0496C12.1205 52.3107 12.2548 52.5522 12.434 52.7585C12.6133 52.9648 12.8336 53.1314 13.0809 53.2477Z" fill="#BD0D31"></path><path d="M55.3698 30.9739V60.7308C55.3698 63.9913 57.334 65.9947 61.0659 66.7215H65.8584C68.0908 66.8287 70.3013 66.2383 72.183 65.0323C73.6923 64.0048 74.8669 62.557 75.5613 60.8683C76.229 59.1509 76.4846 57.3009 76.3077 55.4669C76.147 53.5913 75.6269 51.7641 74.7757 50.0851C73.9477 48.4343 72.7434 47.0012 71.2598 45.9014C69.7572 44.7847 67.9267 44.1975 66.0548 44.2319C65.225 44.2299 64.3988 44.3423 63.5996 44.5658C62.8722 44.7568 62.1772 45.0547 61.5373 45.4497C60.9957 45.8084 60.5288 46.2686 60.1624 46.8049C59.8376 47.3008 59.6668 47.8817 59.6713 48.4745C59.677 49.1371 59.7628 49.7966 59.9267 50.4386C59.9928 50.7723 60.1354 51.0861 60.3433 51.3553C60.5512 51.6246 60.8187 51.8419 61.1248 51.9903C61.1155 51.7266 61.1593 51.4638 61.2538 51.2174C61.3483 50.9711 61.4915 50.7463 61.6748 50.5565C61.8369 50.3758 62.0352 50.2313 62.2569 50.1324C62.4785 50.0335 62.7185 49.9823 62.9613 49.9823C63.204 49.9823 63.444 50.0335 63.6657 50.1324C63.8874 50.2313 64.0857 50.3758 64.2478 50.5565C64.5879 50.9557 64.7696 51.466 64.7585 51.9903C64.773 52.2513 64.7354 52.5125 64.6477 52.7587C64.56 53.0049 64.424 53.2311 64.2478 53.4241C64.0764 53.6047 63.8689 53.747 63.6387 53.8418C63.4086 53.9365 63.161 53.9816 62.9122 53.9741C62.2334 54.0073 61.5563 53.8806 60.9354 53.6043C60.3145 53.3279 59.7671 52.9097 59.3374 52.3831C58.4556 51.1867 58.0118 49.7235 58.0804 48.2388C58.1148 47.3613 58.4087 46.5137 58.9249 45.8032C59.6413 44.8546 60.5877 44.1042 61.6748 43.623C63.0744 42.9929 64.5805 42.633 66.1137 42.5624C68.174 42.4575 70.2364 42.7237 72.2026 43.348C74.0402 44.1407 75.6628 45.3593 76.9362 46.9032C78.15 48.3894 79.0337 50.1168 79.5289 51.9707C80.0062 53.8103 80.1131 55.7265 79.8432 57.6078C79.6302 59.4909 78.9555 61.2923 77.879 62.8521C76.6967 64.5302 75.1088 65.8816 73.2633 66.7804C70.9813 67.8545 68.4774 68.3727 65.9566 68.2928H49.5363C49.4806 68.4476 49.3753 68.5797 49.2368 68.6685C49.0982 68.7573 48.9342 68.7979 48.7703 68.7838C48.2399 68.7838 47.9846 68.5285 47.9846 67.9785C47.9694 67.8119 48.0092 67.6449 48.0979 67.503C48.1866 67.3612 48.3192 67.2522 48.4756 67.1929C49.3758 66.3851 50.0924 65.3939 50.5773 64.2859C51.0965 63.1929 51.3714 61.9998 51.3826 60.7897V35.6682C51.3763 35.0752 51.2836 34.4864 51.1076 33.9201C50.9182 33.3231 50.6749 32.7446 50.3809 32.1916C50.0862 31.6417 49.7523 31.131 49.4381 30.64C49.1238 30.1489 48.7703 29.7364 48.4756 29.3633C48.3277 29.3073 48.2028 29.2034 48.1209 29.068C48.039 28.9327 48.0049 28.7739 48.0239 28.6169C48.0113 28.5081 48.0235 28.3979 48.0595 28.2944C48.0956 28.191 48.1545 28.0971 48.2319 28.0196C48.3094 27.9422 48.4033 27.8833 48.5067 27.8472C48.6102 27.8112 48.7204 27.799 48.8292 27.8116C48.9772 27.8146 49.1215 27.8584 49.2462 27.9381C49.371 28.0178 49.4713 28.1303 49.5363 28.2633H75.0703C75.0647 27.9157 75.191 27.5788 75.4238 27.3205C75.5234 27.1928 75.6519 27.0905 75.7987 27.0222C75.9456 26.9539 76.1066 26.9215 76.2684 26.9277C76.4247 26.9213 76.5806 26.9477 76.7261 27.0052C76.8716 27.0627 77.0034 27.15 77.113 27.2616C77.2277 27.374 77.3182 27.5086 77.379 27.6572C77.4398 27.8058 77.4696 27.9653 77.4666 28.1258C77.4678 28.2669 77.4386 28.4066 77.381 28.5354C77.3234 28.6642 77.2387 28.7791 77.1327 28.8722C76.9183 29.0711 76.6532 29.207 76.3666 29.265C74.9769 29.5007 73.5724 29.6385 72.1633 29.6775L65.4656 29.8543C62.6568 29.8543 60.4963 30.0311 58.9642 30.1882C57.7299 30.2422 56.5141 30.508 55.3698 30.9739V30.9739Z" fill="#BD0D31"></path></g><defs><clipPath id="clip0"><rect width="80" height="56.7248" fill="white" transform="translate(0 12)"></rect></clipPath></defs></svg> 