<?xml version="1.0" encoding="UTF-8"?> <svg xmlns="http://www.w3.org/2000/svg" width="80" height="80" viewBox="0 0 80 80" fill="none"><rect width="80" height="80" fill="#067941"></rect><rect x="13" y="52" width="54" height="4" fill="white"></rect><path d="M13 24.2919H19.4801C22.2629 24.2919 24.3646 24.6811 25.7851 25.4595C27.2057 26.2379 27.916 27.6098 27.916 29.5753C27.916 30.7623 27.6338 31.7645 27.0695 32.5818C26.5246 33.3991 25.7365 33.8953 24.7051 34.0705V34.2164C25.4057 34.3527 26.0381 34.5959 26.6025 34.9462C27.1668 35.2965 27.6144 35.8024 27.9452 36.464C28.276 37.1257 28.4414 38.0014 28.4414 39.0911C28.4414 40.9787 27.7603 42.4577 26.3981 43.528C25.0359 44.5983 23.1678 45.1334 20.7937 45.1334H13V24.2919ZM17.4077 32.5526H19.9764C21.2607 32.5526 22.1461 32.3483 22.6326 31.9396C23.1386 31.531 23.3916 30.9374 23.3916 30.159C23.3916 29.3612 23.0997 28.7871 22.5159 28.4369C21.9321 28.0866 21.0077 27.9114 19.7428 27.9114H17.4077V32.5526ZM17.4077 36.0554V41.4847H20.2975C21.6207 41.4847 22.5451 41.2317 23.0705 40.7258C23.5959 40.2003 23.8586 39.5095 23.8586 38.6533C23.8586 37.8749 23.5862 37.2522 23.0413 36.7851C22.5159 36.2986 21.5526 36.0554 20.1515 36.0554H17.4077Z" fill="white"></path><path d="M49.3377 24.2919L42.8867 39.0328C42.3029 40.356 41.6802 41.5042 41.0186 42.4771C40.3764 43.4307 39.5493 44.1604 38.5374 44.6664C37.5255 45.1723 36.2022 45.4253 34.5676 45.4253C34.0617 45.4253 33.5071 45.3864 32.9038 45.3086C32.3005 45.2307 31.7459 45.1237 31.24 44.9875V41.1928C31.707 41.3874 32.2227 41.5236 32.787 41.6015C33.3514 41.6793 33.8768 41.7182 34.3633 41.7182C35.3363 41.7182 36.0368 41.4847 36.465 41.0177C36.8931 40.5312 37.2336 39.9474 37.4866 39.2663L30.2767 24.2919H34.9471L38.8293 33.3115C38.9655 33.6034 39.1504 34.0218 39.3839 34.5667C39.6175 35.0921 39.7926 35.5397 39.9094 35.9094H40.0553C40.1721 35.5592 40.3375 35.1019 40.5515 34.5375C40.785 33.9732 40.9894 33.477 41.1645 33.0488L44.7841 24.2919H49.3377Z" fill="white"></path><path d="M66.3578 29.1666C66.3578 30.5677 65.8616 31.6964 64.8691 32.5526C63.8767 33.4088 62.6118 33.944 61.0745 34.1581V34.2456C62.9815 34.4402 64.441 34.9754 65.4529 35.8511C66.4843 36.7073 67 37.8262 67 39.2079C67 41.0371 66.2508 42.5355 64.7524 43.7031C63.2734 44.8513 61.0939 45.4253 58.2139 45.4253C56.6376 45.4253 55.2365 45.328 54.0105 45.1334C52.804 44.9388 51.7532 44.6567 50.858 44.2869V40.5798C51.4613 40.8717 52.1424 41.1247 52.9013 41.3387C53.6603 41.5333 54.4289 41.689 55.2073 41.8058C55.9857 41.9031 56.7057 41.9517 57.3674 41.9517C59.216 41.9517 60.5491 41.689 61.3664 41.1636C62.2031 40.6187 62.6215 39.8598 62.6215 38.8868C62.6215 37.8943 62.0183 37.1743 60.8118 36.7268C59.6052 36.2597 57.9804 36.0262 55.9371 36.0262H53.9813V32.5818H55.7327C57.3868 32.5818 58.6712 32.4748 59.5858 32.2607C60.5004 32.0467 61.1426 31.7353 61.5123 31.3266C61.8821 30.918 62.0669 30.4315 62.0669 29.8672C62.0669 29.1471 61.7458 28.5828 61.1037 28.1741C60.4809 27.746 59.5371 27.532 58.2722 27.532C57.202 27.532 56.19 27.6876 55.2365 27.999C54.3024 28.3104 53.4267 28.719 52.6094 29.225L50.6829 26.2768C51.7532 25.5762 52.9402 25.0216 54.2441 24.613C55.5479 24.2043 57.0949 24 58.8852 24C61.2399 24 63.0691 24.4865 64.3729 25.4595C65.6962 26.4325 66.3578 27.6682 66.3578 29.1666Z" fill="white"></path></svg> 