<?xml version="1.0" encoding="UTF-8"?> <svg xmlns="http://www.w3.org/2000/svg" width="80" height="80" viewBox="0 0 80 80" fill="none"><rect width="80" height="80" fill="url(#paint0_linear)"></rect><path d="M51.5179 35.5446V39.1607H56.6071V41.3036H51.5179V46.9286H48.8393V33.4018H56.875V35.6786L51.5179 35.5446ZM70 42.9107C70 45.3214 68.125 47.0625 64.7768 47.0625C63.7054 47.0625 62.5 46.9286 61.5625 46.6607V44.1161C62.5 44.5179 63.7054 44.7857 64.7768 44.7857C66.1161 44.7857 67.0536 44.25 67.0536 43.0446C67.0536 40.3661 61.1607 41.4375 61.1607 37.0179C61.1607 34.6071 63.0357 33 66.25 33C67.0536 33 67.8571 33.1339 68.6607 33.2679V35.5446C67.8571 35.2768 66.9197 35.1429 66.1161 35.1429C64.6429 35.1429 63.8393 35.8125 63.8393 36.75C64.1071 39.2946 70 38.4911 70 42.9107Z" fill="white"></path><path d="M17.9018 46.9294H14.5536L10 33.2686H12.8125L15.4911 41.4383C15.7589 42.3758 16.0268 43.5811 16.2946 44.5186C16.5625 43.5811 16.8304 42.3758 17.0982 41.4383L19.7768 33.2686H22.4554L17.9018 46.9294ZM40.8036 46.9294H37.5893L35.4464 39.4294C35.3125 38.7597 35.0446 37.8222 35.0446 36.8847C34.9107 37.6883 34.7768 38.6258 34.6429 39.4294L32.5 46.9294H29.2857L25.9375 33.2686H28.75L30.625 40.7686C30.8929 41.974 31.0268 43.1794 31.1607 44.1169C31.2946 43.0454 31.5625 41.974 31.8304 40.7686L33.8393 33.2686H36.5179L38.6607 40.7686C38.9286 41.8401 39.1964 42.9115 39.3304 43.9829C39.4643 42.9115 39.5982 41.8401 39.8661 40.7686L41.6071 33.1347H44.1518L40.8036 46.9294Z" fill="white"></path><defs><linearGradient id="paint0_linear" x1="0" y1="80" x2="80" y2="0" gradientUnits="userSpaceOnUse"><stop stop-color="#003B59"></stop><stop offset="1" stop-color="#007392"></stop></linearGradient></defs></svg> 