<?xml version="1.0" encoding="UTF-8"?> <svg xmlns="http://www.w3.org/2000/svg" width="80" height="80" viewBox="0 0 80 80" fill="none"><rect width="80" height="80" fill="#FB1A18"></rect><path d="M14 56.5504V24.4496H34.3454V30.0695H20.8119V36.7684H23.5186C26.5561 36.7684 29.0372 37.188 30.962 38.0272C32.9168 38.8665 34.3604 40.0204 35.2927 41.4891C36.225 42.9578 36.6912 44.6362 36.6912 46.5245C36.6912 49.7016 35.6235 52.1744 33.4882 53.9428C31.383 55.6812 28.0147 56.5504 23.3832 56.5504H14ZM23.1126 50.9755C25.1877 50.9755 26.8117 50.6458 27.9846 49.9864C29.1876 49.327 29.7891 48.173 29.7891 46.5245C29.7891 44.8161 29.1425 43.6921 27.8493 43.1526C26.5561 42.6131 24.7967 42.3433 22.5712 42.3433H20.8119V50.9755H23.1126Z" fill="white"></path><path d="M65.0075 31.9578C65.0075 34.1158 64.2406 35.8542 62.7068 37.173C61.1731 38.4918 59.2182 39.3161 56.8423 39.6458V39.7807C59.7896 40.0804 62.0452 40.9046 63.6091 42.2534C65.203 43.5722 66 45.2956 66 47.4237C66 50.2411 64.8421 52.549 62.5264 54.3474C60.2407 56.1158 56.8724 57 52.4214 57C49.9854 57 47.82 56.8501 45.9253 56.5504C44.0607 56.2507 42.4367 55.8161 41.0533 55.2466V49.5368C41.9856 49.9864 43.0382 50.376 44.2111 50.7057C45.384 51.0054 46.5719 51.2452 47.7749 51.4251C48.9779 51.5749 50.0906 51.6499 51.1132 51.6499C53.9702 51.6499 56.0303 51.2452 57.2935 50.436C58.5867 49.5967 59.2332 48.4278 59.2332 46.9292C59.2332 45.4005 58.3009 44.2916 56.4363 43.6022C54.5717 42.8828 52.0605 42.5232 48.9027 42.5232H45.8802V37.218H48.5869C51.1432 37.218 53.1281 37.0531 54.5416 36.7234C55.9551 36.3937 56.9476 35.9142 57.519 35.2847C58.0904 34.6553 58.3761 33.906 58.3761 33.0368C58.3761 31.9278 57.8799 31.0586 56.8874 30.4292C55.9251 29.7698 54.4665 29.4401 52.5116 29.4401C50.8575 29.4401 49.2936 29.6798 47.82 30.1594C46.3764 30.639 45.0231 31.2684 43.76 32.0477L40.7826 27.5068C42.4367 26.4278 44.2712 25.5736 46.2862 24.9441C48.3012 24.3147 50.6921 24 53.459 24C57.098 24 59.925 24.7493 61.94 26.248C63.985 27.7466 65.0075 29.6499 65.0075 31.9578Z" fill="white"></path></svg> 