<?xml version="1.0" encoding="UTF-8"?> <svg xmlns="http://www.w3.org/2000/svg" width="80" height="80" viewBox="0 0 80 80" fill="none"><rect width="80" height="80" fill="#10C8D2"></rect><path fill-rule="evenodd" clip-rule="evenodd" d="M27 59.2436C39.7161 54.1639 48.0494 47.6657 52 39.749V63.499H27C27.0979 62.7092 27.0979 61.2908 27 59.2436V59.2436Z" fill="white"></path><path fill-rule="evenodd" clip-rule="evenodd" d="M36.998 29.751C39.8624 32.4764 43.6124 34.0351 48.248 34.4272V40.6842C45.2762 45.743 41.5262 49.384 36.998 51.6071C37.0368 46.4285 36.998 35.368 36.998 29.751V29.751Z" fill="white"></path><path fill-rule="evenodd" clip-rule="evenodd" d="M38.25 16C39.9195 18.3887 42.0028 20.1266 44.5 21.2136C44.5 25.1052 44.5146 28.6176 44.5 31.2017C42.2054 31.2017 40.1221 29.8498 38.25 27.1459V16Z" fill="white"></path></svg> 